<?xml version="1.0" encoding="utf-8" standalone="no"?>
<!DOCTYPE svg PUBLIC "-//W3C//DTD SVG 1.1//EN"
  "http://www.w3.org/Graphics/SVG/1.1/DTD/svg11.dtd">
<svg xmlns:xlink="http://www.w3.org/1999/xlink" width="864pt" height="360pt" viewBox="0 0 864 360" xmlns="http://www.w3.org/2000/svg" version="1.1">
 <metadata>
  <rdf:RDF xmlns:dc="http://purl.org/dc/elements/1.1/" xmlns:cc="http://creativecommons.org/ns#" xmlns:rdf="http://www.w3.org/1999/02/22-rdf-syntax-ns#">
   <cc:Work>
    <dc:type rdf:resource="http://purl.org/dc/dcmitype/StillImage"/>
    <dc:date>2024-03-04T08:11:13.745277</dc:date>
    <dc:format>image/svg+xml</dc:format>
    <dc:creator>
     <cc:Agent>
      <dc:title>Matplotlib v3.8.3, https://matplotlib.org/</dc:title>
     </cc:Agent>
    </dc:creator>
   </cc:Work>
  </rdf:RDF>
 </metadata>
 <defs>
  <style type="text/css">*{stroke-linejoin: round; stroke-linecap: butt}</style>
 </defs>
 <g id="figure_1">
  <g id="patch_1">
   <path d="M 0 360 
L 864 360 
L 864 0 
L 0 0 
L 0 360 
z
" style="fill: none; opacity: 0"/>
  </g>
  <g id="axes_1">
   <g id="patch_2">
    <path d="M 108 320.4 
L 777.6 320.4 
L 777.6 43.2 
L 108 43.2 
L 108 320.4 
z
" style="fill: none; opacity: 0"/>
   </g>
   <g id="matplotlib.axis_1">
    <g id="xtick_1">
     <g id="line2d_1">
      <path d="M 163.321441 320.4 
L 163.321441 43.2 
" clip-path="url(#p9464bf244d)" style="fill: none; stroke-dasharray: 5.12,1.28,0.8,1.28; stroke-dashoffset: 0; stroke: #b0b0b0; stroke-width: 0.8"/>
     </g>
     <g id="line2d_2">
      <defs>
       <path id="m6b5393c0de" d="M 0 0 
L 0 3.5 
" style="stroke: #a9a9a9; stroke-width: 0.8"/>
      </defs>
      <g>
       <use xlink:href="#m6b5393c0de" x="163.321441" y="320.4" style="fill: #a9a9a9; stroke: #a9a9a9; stroke-width: 0.8"/>
      </g>
     </g>
     <g id="text_1">
      <!-- 2021-09 -->
      <g style="fill: #a9a9a9" transform="translate(142.430035 334.998438) scale(0.1 -0.1)">
       <defs>
        <path id="DejaVuSans-32" d="M 1228 531 
L 3431 531 
L 3431 0 
L 469 0 
L 469 531 
Q 828 903 1448 1529 
Q 2069 2156 2228 2338 
Q 2531 2678 2651 2914 
Q 2772 3150 2772 3378 
Q 2772 3750 2511 3984 
Q 2250 4219 1831 4219 
Q 1534 4219 1204 4116 
Q 875 4013 500 3803 
L 500 4441 
Q 881 4594 1212 4672 
Q 1544 4750 1819 4750 
Q 2544 4750 2975 4387 
Q 3406 4025 3406 3419 
Q 3406 3131 3298 2873 
Q 3191 2616 2906 2266 
Q 2828 2175 2409 1742 
Q 1991 1309 1228 531 
z
" transform="scale(0.015625)"/>
        <path id="DejaVuSans-30" d="M 2034 4250 
Q 1547 4250 1301 3770 
Q 1056 3291 1056 2328 
Q 1056 1369 1301 889 
Q 1547 409 2034 409 
Q 2525 409 2770 889 
Q 3016 1369 3016 2328 
Q 3016 3291 2770 3770 
Q 2525 4250 2034 4250 
z
M 2034 4750 
Q 2819 4750 3233 4129 
Q 3647 3509 3647 2328 
Q 3647 1150 3233 529 
Q 2819 -91 2034 -91 
Q 1250 -91 836 529 
Q 422 1150 422 2328 
Q 422 3509 836 4129 
Q 1250 4750 2034 4750 
z
" transform="scale(0.015625)"/>
        <path id="DejaVuSans-31" d="M 794 531 
L 1825 531 
L 1825 4091 
L 703 3866 
L 703 4441 
L 1819 4666 
L 2450 4666 
L 2450 531 
L 3481 531 
L 3481 0 
L 794 0 
L 794 531 
z
" transform="scale(0.015625)"/>
        <path id="DejaVuSans-2d" d="M 313 2009 
L 1997 2009 
L 1997 1497 
L 313 1497 
L 313 2009 
z
" transform="scale(0.015625)"/>
        <path id="DejaVuSans-39" d="M 703 97 
L 703 672 
Q 941 559 1184 500 
Q 1428 441 1663 441 
Q 2288 441 2617 861 
Q 2947 1281 2994 2138 
Q 2813 1869 2534 1725 
Q 2256 1581 1919 1581 
Q 1219 1581 811 2004 
Q 403 2428 403 3163 
Q 403 3881 828 4315 
Q 1253 4750 1959 4750 
Q 2769 4750 3195 4129 
Q 3622 3509 3622 2328 
Q 3622 1225 3098 567 
Q 2575 -91 1691 -91 
Q 1453 -91 1209 -44 
Q 966 3 703 97 
z
M 1959 2075 
Q 2384 2075 2632 2365 
Q 2881 2656 2881 3163 
Q 2881 3666 2632 3958 
Q 2384 4250 1959 4250 
Q 1534 4250 1286 3958 
Q 1038 3666 1038 3163 
Q 1038 2656 1286 2365 
Q 1534 2075 1959 2075 
z
" transform="scale(0.015625)"/>
       </defs>
       <use xlink:href="#DejaVuSans-32"/>
       <use xlink:href="#DejaVuSans-30" x="63.623047"/>
       <use xlink:href="#DejaVuSans-32" x="127.246094"/>
       <use xlink:href="#DejaVuSans-31" x="190.869141"/>
       <use xlink:href="#DejaVuSans-2d" x="254.492188"/>
       <use xlink:href="#DejaVuSans-30" x="290.576172"/>
       <use xlink:href="#DejaVuSans-39" x="354.199219"/>
      </g>
     </g>
    </g>
    <g id="xtick_2">
     <g id="line2d_3">
      <path d="M 241.167067 320.4 
L 241.167067 43.2 
" clip-path="url(#p9464bf244d)" style="fill: none; stroke-dasharray: 5.12,1.28,0.8,1.28; stroke-dashoffset: 0; stroke: #b0b0b0; stroke-width: 0.8"/>
     </g>
     <g id="line2d_4">
      <g>
       <use xlink:href="#m6b5393c0de" x="241.167067" y="320.4" style="fill: #a9a9a9; stroke: #a9a9a9; stroke-width: 0.8"/>
      </g>
     </g>
     <g id="text_2">
      <!-- 2022-01 -->
      <g style="fill: #a9a9a9" transform="translate(220.275661 334.998438) scale(0.1 -0.1)">
       <use xlink:href="#DejaVuSans-32"/>
       <use xlink:href="#DejaVuSans-30" x="63.623047"/>
       <use xlink:href="#DejaVuSans-32" x="127.246094"/>
       <use xlink:href="#DejaVuSans-32" x="190.869141"/>
       <use xlink:href="#DejaVuSans-2d" x="254.492188"/>
       <use xlink:href="#DejaVuSans-30" x="290.576172"/>
       <use xlink:href="#DejaVuSans-31" x="354.199219"/>
      </g>
     </g>
    </g>
    <g id="xtick_3">
     <g id="line2d_5">
      <path d="M 317.736535 320.4 
L 317.736535 43.2 
" clip-path="url(#p9464bf244d)" style="fill: none; stroke-dasharray: 5.12,1.28,0.8,1.28; stroke-dashoffset: 0; stroke: #b0b0b0; stroke-width: 0.8"/>
     </g>
     <g id="line2d_6">
      <g>
       <use xlink:href="#m6b5393c0de" x="317.736535" y="320.4" style="fill: #a9a9a9; stroke: #a9a9a9; stroke-width: 0.8"/>
      </g>
     </g>
     <g id="text_3">
      <!-- 2022-05 -->
      <g style="fill: #a9a9a9" transform="translate(296.845129 334.998438) scale(0.1 -0.1)">
       <defs>
        <path id="DejaVuSans-35" d="M 691 4666 
L 3169 4666 
L 3169 4134 
L 1269 4134 
L 1269 2991 
Q 1406 3038 1543 3061 
Q 1681 3084 1819 3084 
Q 2600 3084 3056 2656 
Q 3513 2228 3513 1497 
Q 3513 744 3044 326 
Q 2575 -91 1722 -91 
Q 1428 -91 1123 -41 
Q 819 9 494 109 
L 494 744 
Q 775 591 1075 516 
Q 1375 441 1709 441 
Q 2250 441 2565 725 
Q 2881 1009 2881 1497 
Q 2881 1984 2565 2268 
Q 2250 2553 1709 2553 
Q 1456 2553 1204 2497 
Q 953 2441 691 2322 
L 691 4666 
z
" transform="scale(0.015625)"/>
       </defs>
       <use xlink:href="#DejaVuSans-32"/>
       <use xlink:href="#DejaVuSans-30" x="63.623047"/>
       <use xlink:href="#DejaVuSans-32" x="127.246094"/>
       <use xlink:href="#DejaVuSans-32" x="190.869141"/>
       <use xlink:href="#DejaVuSans-2d" x="254.492188"/>
       <use xlink:href="#DejaVuSans-30" x="290.576172"/>
       <use xlink:href="#DejaVuSans-35" x="354.199219"/>
      </g>
     </g>
    </g>
    <g id="xtick_4">
     <g id="line2d_7">
      <path d="M 396.22024 320.4 
L 396.22024 43.2 
" clip-path="url(#p9464bf244d)" style="fill: none; stroke-dasharray: 5.12,1.28,0.8,1.28; stroke-dashoffset: 0; stroke: #b0b0b0; stroke-width: 0.8"/>
     </g>
     <g id="line2d_8">
      <g>
       <use xlink:href="#m6b5393c0de" x="396.22024" y="320.4" style="fill: #a9a9a9; stroke: #a9a9a9; stroke-width: 0.8"/>
      </g>
     </g>
     <g id="text_4">
      <!-- 2022-09 -->
      <g style="fill: #a9a9a9" transform="translate(375.328834 334.998438) scale(0.1 -0.1)">
       <use xlink:href="#DejaVuSans-32"/>
       <use xlink:href="#DejaVuSans-30" x="63.623047"/>
       <use xlink:href="#DejaVuSans-32" x="127.246094"/>
       <use xlink:href="#DejaVuSans-32" x="190.869141"/>
       <use xlink:href="#DejaVuSans-2d" x="254.492188"/>
       <use xlink:href="#DejaVuSans-30" x="290.576172"/>
       <use xlink:href="#DejaVuSans-39" x="354.199219"/>
      </g>
     </g>
    </g>
    <g id="xtick_5">
     <g id="line2d_9">
      <path d="M 474.065866 320.4 
L 474.065866 43.2 
" clip-path="url(#p9464bf244d)" style="fill: none; stroke-dasharray: 5.12,1.28,0.8,1.28; stroke-dashoffset: 0; stroke: #b0b0b0; stroke-width: 0.8"/>
     </g>
     <g id="line2d_10">
      <g>
       <use xlink:href="#m6b5393c0de" x="474.065866" y="320.4" style="fill: #a9a9a9; stroke: #a9a9a9; stroke-width: 0.8"/>
      </g>
     </g>
     <g id="text_5">
      <!-- 2023-01 -->
      <g style="fill: #a9a9a9" transform="translate(453.17446 334.998438) scale(0.1 -0.1)">
       <defs>
        <path id="DejaVuSans-33" d="M 2597 2516 
Q 3050 2419 3304 2112 
Q 3559 1806 3559 1356 
Q 3559 666 3084 287 
Q 2609 -91 1734 -91 
Q 1441 -91 1130 -33 
Q 819 25 488 141 
L 488 750 
Q 750 597 1062 519 
Q 1375 441 1716 441 
Q 2309 441 2620 675 
Q 2931 909 2931 1356 
Q 2931 1769 2642 2001 
Q 2353 2234 1838 2234 
L 1294 2234 
L 1294 2753 
L 1863 2753 
Q 2328 2753 2575 2939 
Q 2822 3125 2822 3475 
Q 2822 3834 2567 4026 
Q 2313 4219 1838 4219 
Q 1578 4219 1281 4162 
Q 984 4106 628 3988 
L 628 4550 
Q 988 4650 1302 4700 
Q 1616 4750 1894 4750 
Q 2613 4750 3031 4423 
Q 3450 4097 3450 3541 
Q 3450 3153 3228 2886 
Q 3006 2619 2597 2516 
z
" transform="scale(0.015625)"/>
       </defs>
       <use xlink:href="#DejaVuSans-32"/>
       <use xlink:href="#DejaVuSans-30" x="63.623047"/>
       <use xlink:href="#DejaVuSans-32" x="127.246094"/>
       <use xlink:href="#DejaVuSans-33" x="190.869141"/>
       <use xlink:href="#DejaVuSans-2d" x="254.492188"/>
       <use xlink:href="#DejaVuSans-30" x="290.576172"/>
       <use xlink:href="#DejaVuSans-31" x="354.199219"/>
      </g>
     </g>
    </g>
    <g id="xtick_6">
     <g id="line2d_11">
      <path d="M 550.635334 320.4 
L 550.635334 43.2 
" clip-path="url(#p9464bf244d)" style="fill: none; stroke-dasharray: 5.12,1.28,0.8,1.28; stroke-dashoffset: 0; stroke: #b0b0b0; stroke-width: 0.8"/>
     </g>
     <g id="line2d_12">
      <g>
       <use xlink:href="#m6b5393c0de" x="550.635334" y="320.4" style="fill: #a9a9a9; stroke: #a9a9a9; stroke-width: 0.8"/>
      </g>
     </g>
     <g id="text_6">
      <!-- 2023-05 -->
      <g style="fill: #a9a9a9" transform="translate(529.743928 334.998438) scale(0.1 -0.1)">
       <use xlink:href="#DejaVuSans-32"/>
       <use xlink:href="#DejaVuSans-30" x="63.623047"/>
       <use xlink:href="#DejaVuSans-32" x="127.246094"/>
       <use xlink:href="#DejaVuSans-33" x="190.869141"/>
       <use xlink:href="#DejaVuSans-2d" x="254.492188"/>
       <use xlink:href="#DejaVuSans-30" x="290.576172"/>
       <use xlink:href="#DejaVuSans-35" x="354.199219"/>
      </g>
     </g>
    </g>
    <g id="xtick_7">
     <g id="line2d_13">
      <path d="M 629.119039 320.4 
L 629.119039 43.2 
" clip-path="url(#p9464bf244d)" style="fill: none; stroke-dasharray: 5.12,1.28,0.8,1.28; stroke-dashoffset: 0; stroke: #b0b0b0; stroke-width: 0.8"/>
     </g>
     <g id="line2d_14">
      <g>
       <use xlink:href="#m6b5393c0de" x="629.119039" y="320.4" style="fill: #a9a9a9; stroke: #a9a9a9; stroke-width: 0.8"/>
      </g>
     </g>
     <g id="text_7">
      <!-- 2023-09 -->
      <g style="fill: #a9a9a9" transform="translate(608.227633 334.998438) scale(0.1 -0.1)">
       <use xlink:href="#DejaVuSans-32"/>
       <use xlink:href="#DejaVuSans-30" x="63.623047"/>
       <use xlink:href="#DejaVuSans-32" x="127.246094"/>
       <use xlink:href="#DejaVuSans-33" x="190.869141"/>
       <use xlink:href="#DejaVuSans-2d" x="254.492188"/>
       <use xlink:href="#DejaVuSans-30" x="290.576172"/>
       <use xlink:href="#DejaVuSans-39" x="354.199219"/>
      </g>
     </g>
    </g>
    <g id="xtick_8">
     <g id="line2d_15">
      <path d="M 706.964666 320.4 
L 706.964666 43.2 
" clip-path="url(#p9464bf244d)" style="fill: none; stroke-dasharray: 5.12,1.28,0.8,1.28; stroke-dashoffset: 0; stroke: #b0b0b0; stroke-width: 0.8"/>
     </g>
     <g id="line2d_16">
      <g>
       <use xlink:href="#m6b5393c0de" x="706.964666" y="320.4" style="fill: #a9a9a9; stroke: #a9a9a9; stroke-width: 0.8"/>
      </g>
     </g>
     <g id="text_8">
      <!-- 2024-01 -->
      <g style="fill: #a9a9a9" transform="translate(686.073259 334.998438) scale(0.1 -0.1)">
       <defs>
        <path id="DejaVuSans-34" d="M 2419 4116 
L 825 1625 
L 2419 1625 
L 2419 4116 
z
M 2253 4666 
L 3047 4666 
L 3047 1625 
L 3713 1625 
L 3713 1100 
L 3047 1100 
L 3047 0 
L 2419 0 
L 2419 1100 
L 313 1100 
L 313 1709 
L 2253 4666 
z
" transform="scale(0.015625)"/>
       </defs>
       <use xlink:href="#DejaVuSans-32"/>
       <use xlink:href="#DejaVuSans-30" x="63.623047"/>
       <use xlink:href="#DejaVuSans-32" x="127.246094"/>
       <use xlink:href="#DejaVuSans-34" x="190.869141"/>
       <use xlink:href="#DejaVuSans-2d" x="254.492188"/>
       <use xlink:href="#DejaVuSans-30" x="290.576172"/>
       <use xlink:href="#DejaVuSans-31" x="354.199219"/>
      </g>
     </g>
    </g>
   </g>
   <g id="matplotlib.axis_2">
    <g id="ytick_1">
     <g id="line2d_17">
      <path d="M 108 307.84411 
L 777.6 307.84411 
" clip-path="url(#p9464bf244d)" style="fill: none; stroke-dasharray: 5.12,1.28,0.8,1.28; stroke-dashoffset: 0; stroke: #b0b0b0; stroke-width: 0.8"/>
     </g>
     <g id="line2d_18">
      <defs>
       <path id="m11c066237d" d="M 0 0 
L -3.5 0 
" style="stroke: #a9a9a9; stroke-width: 0.8"/>
      </defs>
      <g>
       <use xlink:href="#m11c066237d" x="108" y="307.84411" style="fill: #a9a9a9; stroke: #a9a9a9; stroke-width: 0.8"/>
      </g>
     </g>
     <g id="text_9">
      <!-- 0 -->
      <g style="fill: #a9a9a9" transform="translate(94.6375 311.643329) scale(0.1 -0.1)">
       <use xlink:href="#DejaVuSans-30"/>
      </g>
     </g>
    </g>
    <g id="ytick_2">
     <g id="line2d_19">
      <path d="M 108 272.55617 
L 777.6 272.55617 
" clip-path="url(#p9464bf244d)" style="fill: none; stroke-dasharray: 5.12,1.28,0.8,1.28; stroke-dashoffset: 0; stroke: #b0b0b0; stroke-width: 0.8"/>
     </g>
     <g id="line2d_20">
      <g>
       <use xlink:href="#m11c066237d" x="108" y="272.55617" style="fill: #a9a9a9; stroke: #a9a9a9; stroke-width: 0.8"/>
      </g>
     </g>
     <g id="text_10">
      <!-- 800 -->
      <g style="fill: #a9a9a9" transform="translate(81.9125 276.355389) scale(0.1 -0.1)">
       <defs>
        <path id="DejaVuSans-38" d="M 2034 2216 
Q 1584 2216 1326 1975 
Q 1069 1734 1069 1313 
Q 1069 891 1326 650 
Q 1584 409 2034 409 
Q 2484 409 2743 651 
Q 3003 894 3003 1313 
Q 3003 1734 2745 1975 
Q 2488 2216 2034 2216 
z
M 1403 2484 
Q 997 2584 770 2862 
Q 544 3141 544 3541 
Q 544 4100 942 4425 
Q 1341 4750 2034 4750 
Q 2731 4750 3128 4425 
Q 3525 4100 3525 3541 
Q 3525 3141 3298 2862 
Q 3072 2584 2669 2484 
Q 3125 2378 3379 2068 
Q 3634 1759 3634 1313 
Q 3634 634 3220 271 
Q 2806 -91 2034 -91 
Q 1263 -91 848 271 
Q 434 634 434 1313 
Q 434 1759 690 2068 
Q 947 2378 1403 2484 
z
M 1172 3481 
Q 1172 3119 1398 2916 
Q 1625 2713 2034 2713 
Q 2441 2713 2670 2916 
Q 2900 3119 2900 3481 
Q 2900 3844 2670 4047 
Q 2441 4250 2034 4250 
Q 1625 4250 1398 4047 
Q 1172 3844 1172 3481 
z
" transform="scale(0.015625)"/>
       </defs>
       <use xlink:href="#DejaVuSans-38"/>
       <use xlink:href="#DejaVuSans-30" x="63.623047"/>
       <use xlink:href="#DejaVuSans-30" x="127.246094"/>
      </g>
     </g>
    </g>
    <g id="ytick_3">
     <g id="line2d_21">
      <path d="M 108 237.26823 
L 777.6 237.26823 
" clip-path="url(#p9464bf244d)" style="fill: none; stroke-dasharray: 5.12,1.28,0.8,1.28; stroke-dashoffset: 0; stroke: #b0b0b0; stroke-width: 0.8"/>
     </g>
     <g id="line2d_22">
      <g>
       <use xlink:href="#m11c066237d" x="108" y="237.26823" style="fill: #a9a9a9; stroke: #a9a9a9; stroke-width: 0.8"/>
      </g>
     </g>
     <g id="text_11">
      <!-- 1600 -->
      <g style="fill: #a9a9a9" transform="translate(75.55 241.067449) scale(0.1 -0.1)">
       <defs>
        <path id="DejaVuSans-36" d="M 2113 2584 
Q 1688 2584 1439 2293 
Q 1191 2003 1191 1497 
Q 1191 994 1439 701 
Q 1688 409 2113 409 
Q 2538 409 2786 701 
Q 3034 994 3034 1497 
Q 3034 2003 2786 2293 
Q 2538 2584 2113 2584 
z
M 3366 4563 
L 3366 3988 
Q 3128 4100 2886 4159 
Q 2644 4219 2406 4219 
Q 1781 4219 1451 3797 
Q 1122 3375 1075 2522 
Q 1259 2794 1537 2939 
Q 1816 3084 2150 3084 
Q 2853 3084 3261 2657 
Q 3669 2231 3669 1497 
Q 3669 778 3244 343 
Q 2819 -91 2113 -91 
Q 1303 -91 875 529 
Q 447 1150 447 2328 
Q 447 3434 972 4092 
Q 1497 4750 2381 4750 
Q 2619 4750 2861 4703 
Q 3103 4656 3366 4563 
z
" transform="scale(0.015625)"/>
       </defs>
       <use xlink:href="#DejaVuSans-31"/>
       <use xlink:href="#DejaVuSans-36" x="63.623047"/>
       <use xlink:href="#DejaVuSans-30" x="127.246094"/>
       <use xlink:href="#DejaVuSans-30" x="190.869141"/>
      </g>
     </g>
    </g>
    <g id="ytick_4">
     <g id="line2d_23">
      <path d="M 108 201.980291 
L 777.6 201.980291 
" clip-path="url(#p9464bf244d)" style="fill: none; stroke-dasharray: 5.12,1.28,0.8,1.28; stroke-dashoffset: 0; stroke: #b0b0b0; stroke-width: 0.8"/>
     </g>
     <g id="line2d_24">
      <g>
       <use xlink:href="#m11c066237d" x="108" y="201.980291" style="fill: #a9a9a9; stroke: #a9a9a9; stroke-width: 0.8"/>
      </g>
     </g>
     <g id="text_12">
      <!-- 2400 -->
      <g style="fill: #a9a9a9" transform="translate(75.55 205.779509) scale(0.1 -0.1)">
       <use xlink:href="#DejaVuSans-32"/>
       <use xlink:href="#DejaVuSans-34" x="63.623047"/>
       <use xlink:href="#DejaVuSans-30" x="127.246094"/>
       <use xlink:href="#DejaVuSans-30" x="190.869141"/>
      </g>
     </g>
    </g>
    <g id="ytick_5">
     <g id="line2d_25">
      <path d="M 108 166.692351 
L 777.6 166.692351 
" clip-path="url(#p9464bf244d)" style="fill: none; stroke-dasharray: 5.12,1.28,0.8,1.28; stroke-dashoffset: 0; stroke: #b0b0b0; stroke-width: 0.8"/>
     </g>
     <g id="line2d_26">
      <g>
       <use xlink:href="#m11c066237d" x="108" y="166.692351" style="fill: #a9a9a9; stroke: #a9a9a9; stroke-width: 0.8"/>
      </g>
     </g>
     <g id="text_13">
      <!-- 3200 -->
      <g style="fill: #a9a9a9" transform="translate(75.55 170.49157) scale(0.1 -0.1)">
       <use xlink:href="#DejaVuSans-33"/>
       <use xlink:href="#DejaVuSans-32" x="63.623047"/>
       <use xlink:href="#DejaVuSans-30" x="127.246094"/>
       <use xlink:href="#DejaVuSans-30" x="190.869141"/>
      </g>
     </g>
    </g>
    <g id="ytick_6">
     <g id="line2d_27">
      <path d="M 108 131.404411 
L 777.6 131.404411 
" clip-path="url(#p9464bf244d)" style="fill: none; stroke-dasharray: 5.12,1.28,0.8,1.28; stroke-dashoffset: 0; stroke: #b0b0b0; stroke-width: 0.8"/>
     </g>
     <g id="line2d_28">
      <g>
       <use xlink:href="#m11c066237d" x="108" y="131.404411" style="fill: #a9a9a9; stroke: #a9a9a9; stroke-width: 0.8"/>
      </g>
     </g>
     <g id="text_14">
      <!-- 4000 -->
      <g style="fill: #a9a9a9" transform="translate(75.55 135.20363) scale(0.1 -0.1)">
       <use xlink:href="#DejaVuSans-34"/>
       <use xlink:href="#DejaVuSans-30" x="63.623047"/>
       <use xlink:href="#DejaVuSans-30" x="127.246094"/>
       <use xlink:href="#DejaVuSans-30" x="190.869141"/>
      </g>
     </g>
    </g>
    <g id="ytick_7">
     <g id="line2d_29">
      <path d="M 108 96.116471 
L 777.6 96.116471 
" clip-path="url(#p9464bf244d)" style="fill: none; stroke-dasharray: 5.12,1.28,0.8,1.28; stroke-dashoffset: 0; stroke: #b0b0b0; stroke-width: 0.8"/>
     </g>
     <g id="line2d_30">
      <g>
       <use xlink:href="#m11c066237d" x="108" y="96.116471" style="fill: #a9a9a9; stroke: #a9a9a9; stroke-width: 0.8"/>
      </g>
     </g>
     <g id="text_15">
      <!-- 4800 -->
      <g style="fill: #a9a9a9" transform="translate(75.55 99.91569) scale(0.1 -0.1)">
       <use xlink:href="#DejaVuSans-34"/>
       <use xlink:href="#DejaVuSans-38" x="63.623047"/>
       <use xlink:href="#DejaVuSans-30" x="127.246094"/>
       <use xlink:href="#DejaVuSans-30" x="190.869141"/>
      </g>
     </g>
    </g>
    <g id="ytick_8">
     <g id="line2d_31">
      <path d="M 108 60.828531 
L 777.6 60.828531 
" clip-path="url(#p9464bf244d)" style="fill: none; stroke-dasharray: 5.12,1.28,0.8,1.28; stroke-dashoffset: 0; stroke: #b0b0b0; stroke-width: 0.8"/>
     </g>
     <g id="line2d_32">
      <g>
       <use xlink:href="#m11c066237d" x="108" y="60.828531" style="fill: #a9a9a9; stroke: #a9a9a9; stroke-width: 0.8"/>
      </g>
     </g>
     <g id="text_16">
      <!-- 5600 -->
      <g style="fill: #a9a9a9" transform="translate(75.55 64.62775) scale(0.1 -0.1)">
       <use xlink:href="#DejaVuSans-35"/>
       <use xlink:href="#DejaVuSans-36" x="63.623047"/>
       <use xlink:href="#DejaVuSans-30" x="127.246094"/>
       <use xlink:href="#DejaVuSans-30" x="190.869141"/>
      </g>
     </g>
    </g>
   </g>
   <g id="line2d_33">
    <path d="M 138.436364 307.71178 
L 142.264837 307.403011 
L 142.902916 307.138351 
L 144.817153 306.917802 
L 148.645626 306.167933 
L 152.474099 305.859163 
L 153.112178 305.550394 
L 153.750257 305.373954 
L 154.388336 304.579975 
L 155.026415 304.138876 
L 155.664494 302.771469 
L 156.302573 302.683249 
L 156.940652 302.19804 
L 158.21681 301.580501 
L 160.769125 299.639664 
L 162.045283 299.110345 
L 162.683362 298.669246 
L 165.235678 297.566497 
L 165.873756 296.551969 
L 167.149914 295.625661 
L 167.787993 295.316891 
L 174.168782 294.434693 
L 174.806861 294.125923 
L 179.273413 293.773044 
L 181.18765 293.287835 
L 186.93036 292.537966 
L 187.568439 292.185087 
L 188.206518 292.096867 
L 188.844597 291.832207 
L 190.120755 291.611658 
L 190.758834 291.567548 
L 191.396913 291.346998 
L 193.949228 290.950009 
L 195.225386 290.597129 
L 197.139623 290.42069 
L 198.41578 290.28836 
L 199.053859 290.11192 
L 199.691938 290.06781 
L 201.606175 289.494381 
L 205.434648 288.920952 
L 206.072727 288.744513 
L 206.710806 287.862314 
L 208.625043 287.156555 
L 210.53928 286.627236 
L 211.177358 286.318467 
L 211.815437 286.274357 
L 215.005832 285.392158 
L 216.28199 285.303938 
L 216.920069 285.215719 
L 218.834305 284.64229 
L 221.386621 284.024751 
L 222.0247 283.760091 
L 222.662779 283.671871 
L 223.300858 283.363102 
L 229.681647 282.392683 
L 232.872041 281.510485 
L 233.51012 281.113496 
L 236.062436 280.451847 
L 237.338593 279.701978 
L 237.976672 279.260879 
L 239.890909 278.907999 
L 243.719383 277.761141 
L 244.99554 277.364152 
L 245.633619 277.275932 
L 246.909777 276.923053 
L 248.185935 276.614283 
L 248.824014 276.526063 
L 250.100172 275.996744 
L 250.73825 275.864414 
L 251.376329 275.599755 
L 252.014408 275.511535 
L 252.652487 275.202766 
L 253.290566 275.026326 
L 254.566724 274.938106 
L 255.842882 274.497007 
L 257.119039 274.408787 
L 257.757118 274.100018 
L 260.309434 273.658918 
L 262.86175 273.438369 
L 263.499828 273.306039 
L 264.775986 272.6885 
L 271.794854 269.733135 
L 272.432933 269.380256 
L 273.071012 268.674497 
L 273.709091 267.615859 
L 274.34717 266.77777 
L 274.985249 266.60133 
L 275.623328 266.60133 
L 276.899485 265.675022 
L 277.537564 265.498582 
L 278.175643 265.145703 
L 278.813722 265.013373 
L 279.451801 264.439944 
L 280.08988 264.263504 
L 282.004117 263.337196 
L 283.280274 261.572799 
L 283.918353 261.17581 
L 284.556432 260.117171 
L 285.194511 259.455522 
L 285.83259 259.146753 
L 286.470669 258.970313 
L 289.022985 257.470576 
L 290.299142 256.456048 
L 290.937221 256.059058 
L 291.5753 255.13275 
L 292.213379 253.677122 
L 292.851458 252.750814 
L 293.489537 252.265605 
L 294.127616 252.000945 
L 296.679931 249.795449 
L 297.956089 248.780921 
L 298.594168 248.251602 
L 299.232247 247.413513 
L 300.508405 246.310765 
L 303.06072 244.678698 
L 303.698799 244.105269 
L 304.336878 243.972939 
L 304.974957 243.708279 
L 306.251115 243.002521 
L 308.165352 242.032102 
L 309.441509 240.841134 
L 310.079588 240.091266 
L 311.355746 239.209067 
L 311.993825 239.032627 
L 312.631904 238.723858 
L 313.908062 237.885769 
L 314.546141 237.53289 
L 315.18422 237.44467 
L 316.460377 236.738911 
L 317.098456 236.386032 
L 317.736535 235.724383 
L 318.374614 235.327394 
L 319.012693 235.106844 
L 320.288851 234.356975 
L 320.92693 234.004096 
L 321.565009 233.783546 
L 323.479245 232.548468 
L 325.393482 231.975039 
L 326.031561 231.53394 
L 326.66964 231.40161 
L 327.945798 230.960511 
L 329.860034 230.210642 
L 331.774271 229.504884 
L 333.050429 229.284334 
L 334.326587 228.181586 
L 335.602744 227.564047 
L 337.516981 226.461299 
L 338.793139 226.108419 
L 339.431218 225.71143 
L 340.069297 225.53499 
L 341.983533 224.344022 
L 345.173928 223.594154 
L 347.088165 222.491406 
L 347.726244 222.403186 
L 348.364322 222.182636 
L 349.64048 221.917977 
L 351.554717 220.506459 
L 353.468954 220.06536 
L 354.107033 219.84481 
L 354.745111 219.359601 
L 358.573585 218.124523 
L 359.211664 218.080413 
L 363.678216 216.492456 
L 364.316295 216.183686 
L 366.230532 215.742587 
L 367.50669 215.433818 
L 368.144768 215.125048 
L 368.782847 214.992718 
L 370.697084 214.11052 
L 372.611321 213.184211 
L 373.2494 212.743112 
L 373.887479 212.566673 
L 375.801715 211.552144 
L 377.077873 211.243375 
L 378.354031 210.581726 
L 379.630189 210.228846 
L 380.268268 210.140627 
L 381.544425 209.390758 
L 382.182504 209.258428 
L 383.458662 208.729109 
L 384.096741 208.596779 
L 384.73482 208.2439 
L 387.287136 207.846911 
L 388.563293 207.229372 
L 389.201372 206.700053 
L 389.839451 205.597304 
L 391.115609 205.332645 
L 391.753688 205.200315 
L 394.306003 203.877017 
L 394.944082 203.744688 
L 400.048714 201.318642 
L 401.96295 200.921652 
L 402.601029 200.568773 
L 406.429503 199.245475 
L 407.70566 198.451497 
L 408.981818 197.701628 
L 409.619897 197.613408 
L 410.257976 197.392858 
L 410.896055 197.348748 
L 414.086449 196.51066 
L 414.724528 196.025451 
L 416.000686 195.584351 
L 417.914923 194.966813 
L 418.553002 194.569823 
L 419.191081 194.393384 
L 419.82916 193.952284 
L 420.467238 193.687625 
L 421.105317 193.290635 
L 422.381475 192.849536 
L 424.295712 192.231997 
L 424.933791 191.923228 
L 426.848027 190.4676 
L 427.486106 190.33527 
L 428.762264 189.364852 
L 429.400343 189.232522 
L 430.038422 188.262104 
L 430.676501 187.997444 
L 431.31458 187.512235 
L 431.952659 187.424015 
L 433.228816 186.674147 
L 433.866895 186.541817 
L 434.504974 186.277157 
L 435.143053 185.791948 
L 435.781132 185.571399 
L 437.695369 184.292211 
L 440.247684 183.013023 
L 440.885763 182.924803 
L 442.161921 182.351374 
L 442.8 181.998495 
L 443.438079 180.939856 
L 444.076158 180.366427 
L 444.714237 180.013548 
L 445.352316 179.881218 
L 446.628473 179.08724 
L 447.266552 178.95491 
L 448.54271 178.337371 
L 450.456947 177.543392 
L 451.733105 176.661194 
L 453.009262 175.337896 
L 456.199657 173.04418 
L 457.475815 171.985542 
L 458.113894 171.720882 
L 458.751973 171.015123 
L 459.390051 170.529914 
L 460.666209 170.088815 
L 461.304288 169.559496 
L 462.580446 168.897847 
L 463.218525 168.721407 
L 463.856604 168.280308 
L 464.494683 168.147978 
L 466.408919 167.13345 
L 467.685077 166.383581 
L 474.065866 164.133975 
L 474.703945 163.560546 
L 476.618182 162.854787 
L 477.89434 162.457798 
L 478.532419 161.972589 
L 481.084734 160.649291 
L 481.722813 160.296412 
L 482.998971 157.782146 
L 484.275129 156.282409 
L 485.551286 155.53254 
L 487.465523 154.782671 
L 488.103602 154.694451 
L 488.741681 154.341572 
L 490.655918 153.768143 
L 493.208233 152.621285 
L 493.846312 152.224295 
L 495.12247 151.783196 
L 498.950943 149.5777 
L 499.589022 148.916051 
L 500.86518 148.210292 
L 501.503259 147.857413 
L 502.141338 147.636863 
L 502.779417 147.195764 
L 504.055575 146.578225 
L 505.969811 145.563697 
L 506.60789 145.387257 
L 507.245969 144.902048 
L 507.884048 144.637388 
L 508.522127 144.505059 
L 509.798285 144.063959 
L 511.712521 143.358201 
L 512.3506 142.917101 
L 513.626758 142.564222 
L 514.902916 142.079013 
L 515.540995 141.593804 
L 516.817153 141.196814 
L 517.455232 140.888045 
L 518.09331 140.711605 
L 519.369468 139.829407 
L 520.645626 139.255978 
L 521.921784 138.285559 
L 523.197942 137.84446 
L 523.836021 137.315141 
L 524.474099 137.226921 
L 525.750257 136.300613 
L 527.026415 135.683074 
L 527.664494 135.418414 
L 528.302573 134.800875 
L 532.131046 133.433468 
L 534.045283 132.595379 
L 535.95952 132.02195 
L 537.235678 131.84551 
L 537.873756 131.580851 
L 538.511835 131.492631 
L 539.787993 130.963312 
L 540.426072 130.919202 
L 542.978388 129.992893 
L 544.892624 128.669596 
L 545.530703 128.404936 
L 546.168782 128.007947 
L 548.083019 127.169858 
L 549.997256 126.023 
L 550.635334 125.626011 
L 551.911492 125.317241 
L 553.18765 124.435043 
L 555.739966 123.641064 
L 556.378045 123.376405 
L 557.654202 123.067635 
L 560.844597 122.053107 
L 562.758834 121.700228 
L 565.311149 120.906249 
L 565.949228 120.641589 
L 566.587307 120.55337 
L 567.225386 120.2446 
L 568.501544 119.97994 
L 569.139623 119.671171 
L 571.053859 119.230072 
L 572.330017 118.965412 
L 576.158491 118.259653 
L 577.434648 117.994994 
L 578.072727 117.862664 
L 578.710806 117.598005 
L 579.348885 117.553895 
L 581.263122 117.024576 
L 581.901201 116.671696 
L 585.091595 115.877717 
L 585.729674 115.745388 
L 587.005832 115.304288 
L 588.920069 114.64264 
L 589.558148 114.55442 
L 591.472384 113.892771 
L 592.110463 113.892771 
L 593.386621 113.451672 
L 594.0247 112.834133 
L 594.662779 112.525363 
L 595.938937 112.128374 
L 598.491252 111.157956 
L 599.129331 111.025626 
L 599.76741 110.628636 
L 600.405489 110.496307 
L 601.043568 110.099317 
L 604.233962 109.173009 
L 604.872041 108.77602 
L 605.51012 108.59958 
L 606.148199 108.070261 
L 608.062436 107.717381 
L 609.338593 107.011623 
L 609.976672 106.305864 
L 611.25283 106.041204 
L 615.719383 105.026676 
L 616.357461 104.850236 
L 617.633619 104.806126 
L 618.271698 104.497357 
L 620.824014 104.056258 
L 621.462093 103.747488 
L 623.376329 103.482829 
L 625.928645 102.68885 
L 627.842882 102.247751 
L 629.757118 101.762542 
L 632.309434 100.968563 
L 632.947513 100.836233 
L 633.585592 100.527464 
L 634.223671 100.439244 
L 634.86175 100.218694 
L 635.499828 99.821705 
L 637.414065 99.115946 
L 638.052144 98.630737 
L 639.328302 98.277858 
L 639.966381 98.013198 
L 641.242539 97.660319 
L 643.794854 96.513461 
L 645.709091 96.381131 
L 648.261407 95.587152 
L 648.899485 95.190163 
L 650.175643 94.793173 
L 652.08988 93.822755 
L 652.727959 93.690425 
L 653.366038 93.381656 
L 654.004117 93.293436 
L 661.022985 90.95561 
L 663.5753 90.338071 
L 664.213379 90.161631 
L 665.489537 89.588202 
L 666.127616 89.499982 
L 667.403774 89.147103 
L 668.041852 88.661894 
L 668.679931 88.353124 
L 669.31801 87.603256 
L 669.956089 87.162156 
L 671.232247 86.765167 
L 671.870326 86.235848 
L 678.889194 83.368703 
L 680.165352 83.059933 
L 681.441509 82.486504 
L 683.355746 81.339646 
L 683.993825 81.207317 
L 684.631904 80.722107 
L 685.908062 80.104569 
L 687.18422 79.31059 
L 689.098456 78.428391 
L 689.736535 77.987292 
L 691.012693 77.502083 
L 692.288851 76.752214 
L 692.92693 76.443445 
L 693.565009 76.002346 
L 694.841166 75.561246 
L 695.479245 75.428917 
L 698.031561 74.282058 
L 701.221955 73.17931 
L 701.860034 73.1352 
L 702.498113 72.958761 
L 703.136192 72.561771 
L 703.774271 72.473552 
L 704.41235 72.208892 
L 706.326587 71.856013 
L 709.516981 70.223945 
L 710.793139 69.518187 
L 711.431218 69.429967 
L 713.345455 68.415438 
L 715.259691 67.70968 
L 717.173928 66.871591 
L 719.726244 65.857063 
L 720.364322 65.680623 
L 721.002401 65.283634 
L 722.278559 65.107194 
L 722.916638 64.710205 
L 723.554717 64.666095 
L 724.830875 64.269106 
L 726.107033 63.651567 
L 726.745111 63.563347 
L 727.38319 63.298687 
L 728.021269 63.166357 
L 729.935506 62.328269 
L 730.573585 62.195939 
L 731.211664 61.93128 
L 734.402058 61.181411 
L 736.316295 60.431542 
L 738.230532 59.284684 
L 739.50669 58.755365 
L 740.144768 58.490705 
L 740.782847 58.093716 
L 742.059005 57.829057 
L 742.697084 57.476177 
L 743.335163 57.343847 
L 744.611321 56.638089 
L 746.525557 55.8 
L 747.163636 55.8 
L 747.163636 55.8 
" clip-path="url(#p9464bf244d)" style="fill: none; stroke: #1f77b4; stroke-width: 1.5; stroke-linecap: square"/>
   </g>
   <g id="line2d_34">
    <path d="M 139.074443 307.8 
L 140.988679 307.71178 
L 142.902916 307.66767 
L 146.731389 307.57945 
L 149.921784 307.447121 
L 152.474099 307.447121 
L 153.112178 307.270681 
L 155.664494 307.182461 
L 157.578731 306.961911 
L 159.492967 306.785472 
L 163.321441 306.609032 
L 163.95952 306.609032 
L 164.597599 306.476702 
L 167.149914 306.388482 
L 168.426072 306.300263 
L 173.530703 306.212043 
L 176.721098 306.079713 
L 184.378045 305.991493 
L 187.568439 305.859163 
L 191.396913 305.770943 
L 193.949228 305.682724 
L 199.691938 305.594504 
L 201.606175 305.550394 
L 203.520412 305.506284 
L 205.434648 305.285734 
L 209.263122 305.241624 
L 210.53928 305.153405 
L 215.005832 305.065185 
L 222.0247 304.668195 
L 226.491252 304.579975 
L 227.76741 304.491756 
L 229.681647 304.403536 
L 233.51012 304.227096 
L 236.062436 304.182986 
L 237.976672 304.006546 
L 248.185935 303.389008 
L 250.73825 303.300788 
L 255.204803 303.080238 
L 257.119039 302.992018 
L 263.499828 302.639139 
L 270.518696 302.550919 
L 273.071012 302.286259 
L 274.34717 302.19804 
L 282.642196 301.536391 
L 286.470669 301.051182 
L 289.022985 300.962962 
L 294.127616 300.301313 
L 297.31801 300.213093 
L 305.613036 299.551444 
L 308.803431 299.198565 
L 311.355746 299.110345 
L 312.631904 299.022125 
L 315.18422 298.933905 
L 316.460377 298.845685 
L 319.650772 298.536916 
L 320.288851 298.360476 
L 324.117324 298.184036 
L 327.307719 298.095817 
L 335.602744 297.610607 
L 337.516981 297.522388 
L 345.812007 297.037178 
L 350.278559 296.948959 
L 350.916638 296.816629 
L 356.021269 296.728409 
L 360.487822 296.507859 
L 367.50669 296.419639 
L 371.973242 296.19909 
L 377.077873 296.11087 
L 382.182504 295.84621 
L 386.649057 295.757991 
L 398.772556 295.008122 
L 403.877187 294.919902 
L 420.467238 293.861264 
L 424.295712 293.773044 
L 426.209949 293.728934 
L 428.124185 293.684824 
L 430.038422 293.508384 
L 435.143053 293.420165 
L 436.419211 293.199615 
L 437.695369 293.111395 
L 440.885763 292.979065 
L 442.161921 292.890845 
L 443.438079 292.802626 
L 449.180789 292.714406 
L 450.456947 292.582076 
L 453.009262 292.537966 
L 453.647341 292.405636 
L 454.923499 292.317416 
L 455.561578 292.185087 
L 457.475815 292.096867 
L 468.323156 291.435218 
L 470.237393 291.346998 
L 473.427787 291.214668 
L 482.360892 291.126448 
L 486.827444 290.905899 
L 491.932075 290.817679 
L 494.484391 290.729459 
L 497.036707 290.685349 
L 498.312864 290.553019 
L 500.86518 290.4648 
L 507.245969 290.11192 
L 511.074443 290.06781 
L 512.988679 289.891371 
L 514.902916 289.847261 
L 519.369468 289.759041 
L 521.921784 289.670821 
L 529.578731 289.582601 
L 532.769125 289.450271 
L 536.597599 289.362051 
L 538.511835 289.141502 
L 542.340309 289.097392 
L 544.254545 288.920952 
L 546.806861 288.832732 
L 554.463808 288.744513 
L 557.654202 288.612183 
L 568.501544 288.568073 
L 569.777702 288.479853 
L 571.691938 288.435743 
L 579.986964 288.347523 
L 581.263122 288.259303 
L 588.28199 288.171083 
L 590.834305 288.082864 
L 598.491252 288.038754 
L 599.76741 287.950534 
L 609.338593 287.906424 
L 611.25283 287.729984 
L 622.100172 287.641764 
L 624.014408 287.597654 
L 640.60446 287.509435 
L 642.518696 287.465325 
L 654.642196 287.377105 
L 657.194511 287.288885 
L 661.661063 287.200665 
L 666.765695 286.936006 
L 669.31801 286.847786 
L 671.870326 286.759566 
L 675.698799 286.671346 
L 677.613036 286.627236 
L 680.165352 286.539016 
L 682.079588 286.494906 
L 685.269983 286.406687 
L 686.546141 286.274357 
L 690.374614 286.186137 
L 693.565009 286.053807 
L 694.841166 286.009697 
L 696.755403 285.833257 
L 700.583877 285.745038 
L 703.136192 285.656818 
L 709.516981 285.568598 
L 712.707376 285.436268 
L 719.088165 285.348048 
L 723.554717 285.127499 
L 729.297427 285.039279 
L 730.573585 284.951059 
L 738.230532 284.862839 
L 740.144768 284.818729 
L 747.163636 284.730509 
L 747.163636 284.730509 
" clip-path="url(#p9464bf244d)" style="fill: none; stroke: #ff7f0e; stroke-width: 1.5; stroke-linecap: square"/>
   </g>
   <g id="patch_3">
    <path d="M 108 320.4 
L 108 43.2 
" style="fill: none; stroke: #a9a9a9; stroke-width: 0.8; stroke-linejoin: miter; stroke-linecap: square"/>
   </g>
   <g id="patch_4">
    <path d="M 777.6 320.4 
L 777.6 43.2 
" style="fill: none"/>
   </g>
   <g id="patch_5">
    <path d="M 108 320.4 
L 777.6 320.4 
" style="fill: none; stroke: #a9a9a9; stroke-width: 0.8; stroke-linejoin: miter; stroke-linecap: square"/>
   </g>
   <g id="patch_6">
    <path d="M 108 43.2 
L 777.6 43.2 
" style="fill: none"/>
   </g>
   <g id="text_17">
    <!-- get_subscribe history -->
    <g style="fill: #a9a9a9" transform="translate(378.6075 37.2) scale(0.12 -0.12)">
     <defs>
      <path id="DejaVuSans-67" d="M 2906 1791 
Q 2906 2416 2648 2759 
Q 2391 3103 1925 3103 
Q 1463 3103 1205 2759 
Q 947 2416 947 1791 
Q 947 1169 1205 825 
Q 1463 481 1925 481 
Q 2391 481 2648 825 
Q 2906 1169 2906 1791 
z
M 3481 434 
Q 3481 -459 3084 -895 
Q 2688 -1331 1869 -1331 
Q 1566 -1331 1297 -1286 
Q 1028 -1241 775 -1147 
L 775 -588 
Q 1028 -725 1275 -790 
Q 1522 -856 1778 -856 
Q 2344 -856 2625 -561 
Q 2906 -266 2906 331 
L 2906 616 
Q 2728 306 2450 153 
Q 2172 0 1784 0 
Q 1141 0 747 490 
Q 353 981 353 1791 
Q 353 2603 747 3093 
Q 1141 3584 1784 3584 
Q 2172 3584 2450 3431 
Q 2728 3278 2906 2969 
L 2906 3500 
L 3481 3500 
L 3481 434 
z
" transform="scale(0.015625)"/>
      <path id="DejaVuSans-65" d="M 3597 1894 
L 3597 1613 
L 953 1613 
Q 991 1019 1311 708 
Q 1631 397 2203 397 
Q 2534 397 2845 478 
Q 3156 559 3463 722 
L 3463 178 
Q 3153 47 2828 -22 
Q 2503 -91 2169 -91 
Q 1331 -91 842 396 
Q 353 884 353 1716 
Q 353 2575 817 3079 
Q 1281 3584 2069 3584 
Q 2775 3584 3186 3129 
Q 3597 2675 3597 1894 
z
M 3022 2063 
Q 3016 2534 2758 2815 
Q 2500 3097 2075 3097 
Q 1594 3097 1305 2825 
Q 1016 2553 972 2059 
L 3022 2063 
z
" transform="scale(0.015625)"/>
      <path id="DejaVuSans-74" d="M 1172 4494 
L 1172 3500 
L 2356 3500 
L 2356 3053 
L 1172 3053 
L 1172 1153 
Q 1172 725 1289 603 
Q 1406 481 1766 481 
L 2356 481 
L 2356 0 
L 1766 0 
Q 1100 0 847 248 
Q 594 497 594 1153 
L 594 3053 
L 172 3053 
L 172 3500 
L 594 3500 
L 594 4494 
L 1172 4494 
z
" transform="scale(0.015625)"/>
      <path id="DejaVuSans-5f" d="M 3263 -1063 
L 3263 -1509 
L -63 -1509 
L -63 -1063 
L 3263 -1063 
z
" transform="scale(0.015625)"/>
      <path id="DejaVuSans-73" d="M 2834 3397 
L 2834 2853 
Q 2591 2978 2328 3040 
Q 2066 3103 1784 3103 
Q 1356 3103 1142 2972 
Q 928 2841 928 2578 
Q 928 2378 1081 2264 
Q 1234 2150 1697 2047 
L 1894 2003 
Q 2506 1872 2764 1633 
Q 3022 1394 3022 966 
Q 3022 478 2636 193 
Q 2250 -91 1575 -91 
Q 1294 -91 989 -36 
Q 684 19 347 128 
L 347 722 
Q 666 556 975 473 
Q 1284 391 1588 391 
Q 1994 391 2212 530 
Q 2431 669 2431 922 
Q 2431 1156 2273 1281 
Q 2116 1406 1581 1522 
L 1381 1569 
Q 847 1681 609 1914 
Q 372 2147 372 2553 
Q 372 3047 722 3315 
Q 1072 3584 1716 3584 
Q 2034 3584 2315 3537 
Q 2597 3491 2834 3397 
z
" transform="scale(0.015625)"/>
      <path id="DejaVuSans-75" d="M 544 1381 
L 544 3500 
L 1119 3500 
L 1119 1403 
Q 1119 906 1312 657 
Q 1506 409 1894 409 
Q 2359 409 2629 706 
Q 2900 1003 2900 1516 
L 2900 3500 
L 3475 3500 
L 3475 0 
L 2900 0 
L 2900 538 
Q 2691 219 2414 64 
Q 2138 -91 1772 -91 
Q 1169 -91 856 284 
Q 544 659 544 1381 
z
M 1991 3584 
L 1991 3584 
z
" transform="scale(0.015625)"/>
      <path id="DejaVuSans-62" d="M 3116 1747 
Q 3116 2381 2855 2742 
Q 2594 3103 2138 3103 
Q 1681 3103 1420 2742 
Q 1159 2381 1159 1747 
Q 1159 1113 1420 752 
Q 1681 391 2138 391 
Q 2594 391 2855 752 
Q 3116 1113 3116 1747 
z
M 1159 2969 
Q 1341 3281 1617 3432 
Q 1894 3584 2278 3584 
Q 2916 3584 3314 3078 
Q 3713 2572 3713 1747 
Q 3713 922 3314 415 
Q 2916 -91 2278 -91 
Q 1894 -91 1617 61 
Q 1341 213 1159 525 
L 1159 0 
L 581 0 
L 581 4863 
L 1159 4863 
L 1159 2969 
z
" transform="scale(0.015625)"/>
      <path id="DejaVuSans-63" d="M 3122 3366 
L 3122 2828 
Q 2878 2963 2633 3030 
Q 2388 3097 2138 3097 
Q 1578 3097 1268 2742 
Q 959 2388 959 1747 
Q 959 1106 1268 751 
Q 1578 397 2138 397 
Q 2388 397 2633 464 
Q 2878 531 3122 666 
L 3122 134 
Q 2881 22 2623 -34 
Q 2366 -91 2075 -91 
Q 1284 -91 818 406 
Q 353 903 353 1747 
Q 353 2603 823 3093 
Q 1294 3584 2113 3584 
Q 2378 3584 2631 3529 
Q 2884 3475 3122 3366 
z
" transform="scale(0.015625)"/>
      <path id="DejaVuSans-72" d="M 2631 2963 
Q 2534 3019 2420 3045 
Q 2306 3072 2169 3072 
Q 1681 3072 1420 2755 
Q 1159 2438 1159 1844 
L 1159 0 
L 581 0 
L 581 3500 
L 1159 3500 
L 1159 2956 
Q 1341 3275 1631 3429 
Q 1922 3584 2338 3584 
Q 2397 3584 2469 3576 
Q 2541 3569 2628 3553 
L 2631 2963 
z
" transform="scale(0.015625)"/>
      <path id="DejaVuSans-69" d="M 603 3500 
L 1178 3500 
L 1178 0 
L 603 0 
L 603 3500 
z
M 603 4863 
L 1178 4863 
L 1178 4134 
L 603 4134 
L 603 4863 
z
" transform="scale(0.015625)"/>
      <path id="DejaVuSans-20" transform="scale(0.015625)"/>
      <path id="DejaVuSans-68" d="M 3513 2113 
L 3513 0 
L 2938 0 
L 2938 2094 
Q 2938 2591 2744 2837 
Q 2550 3084 2163 3084 
Q 1697 3084 1428 2787 
Q 1159 2491 1159 1978 
L 1159 0 
L 581 0 
L 581 4863 
L 1159 4863 
L 1159 2956 
Q 1366 3272 1645 3428 
Q 1925 3584 2291 3584 
Q 2894 3584 3203 3211 
Q 3513 2838 3513 2113 
z
" transform="scale(0.015625)"/>
      <path id="DejaVuSans-6f" d="M 1959 3097 
Q 1497 3097 1228 2736 
Q 959 2375 959 1747 
Q 959 1119 1226 758 
Q 1494 397 1959 397 
Q 2419 397 2687 759 
Q 2956 1122 2956 1747 
Q 2956 2369 2687 2733 
Q 2419 3097 1959 3097 
z
M 1959 3584 
Q 2709 3584 3137 3096 
Q 3566 2609 3566 1747 
Q 3566 888 3137 398 
Q 2709 -91 1959 -91 
Q 1206 -91 779 398 
Q 353 888 353 1747 
Q 353 2609 779 3096 
Q 1206 3584 1959 3584 
z
" transform="scale(0.015625)"/>
      <path id="DejaVuSans-79" d="M 2059 -325 
Q 1816 -950 1584 -1140 
Q 1353 -1331 966 -1331 
L 506 -1331 
L 506 -850 
L 844 -850 
Q 1081 -850 1212 -737 
Q 1344 -625 1503 -206 
L 1606 56 
L 191 3500 
L 800 3500 
L 1894 763 
L 2988 3500 
L 3597 3500 
L 2059 -325 
z
" transform="scale(0.015625)"/>
     </defs>
     <use xlink:href="#DejaVuSans-67"/>
     <use xlink:href="#DejaVuSans-65" x="63.476562"/>
     <use xlink:href="#DejaVuSans-74" x="125"/>
     <use xlink:href="#DejaVuSans-5f" x="164.208984"/>
     <use xlink:href="#DejaVuSans-73" x="214.208984"/>
     <use xlink:href="#DejaVuSans-75" x="266.308594"/>
     <use xlink:href="#DejaVuSans-62" x="329.6875"/>
     <use xlink:href="#DejaVuSans-73" x="393.164062"/>
     <use xlink:href="#DejaVuSans-63" x="445.263672"/>
     <use xlink:href="#DejaVuSans-72" x="500.244141"/>
     <use xlink:href="#DejaVuSans-69" x="541.357422"/>
     <use xlink:href="#DejaVuSans-62" x="569.140625"/>
     <use xlink:href="#DejaVuSans-65" x="632.617188"/>
     <use xlink:href="#DejaVuSans-20" x="694.140625"/>
     <use xlink:href="#DejaVuSans-68" x="725.927734"/>
     <use xlink:href="#DejaVuSans-69" x="789.306641"/>
     <use xlink:href="#DejaVuSans-73" x="817.089844"/>
     <use xlink:href="#DejaVuSans-74" x="869.189453"/>
     <use xlink:href="#DejaVuSans-6f" x="908.398438"/>
     <use xlink:href="#DejaVuSans-72" x="969.580078"/>
     <use xlink:href="#DejaVuSans-79" x="1010.693359"/>
    </g>
   </g>
   <g id="legend_1">
    <g id="line2d_35">
     <path d="M 815.08 328.498438 
L 825.08 328.498438 
L 835.08 328.498438 
" style="fill: none; stroke: #1f77b4; stroke-width: 1.5; stroke-linecap: square"/>
    </g>
    <g id="text_18">
     <!-- star -->
     <g style="fill: #a9a9a9" transform="translate(843.08 331.998438) scale(0.1 -0.1)">
      <defs>
       <path id="DejaVuSans-61" d="M 2194 1759 
Q 1497 1759 1228 1600 
Q 959 1441 959 1056 
Q 959 750 1161 570 
Q 1363 391 1709 391 
Q 2188 391 2477 730 
Q 2766 1069 2766 1631 
L 2766 1759 
L 2194 1759 
z
M 3341 1997 
L 3341 0 
L 2766 0 
L 2766 531 
Q 2569 213 2275 61 
Q 1981 -91 1556 -91 
Q 1019 -91 701 211 
Q 384 513 384 1019 
Q 384 1609 779 1909 
Q 1175 2209 1959 2209 
L 2766 2209 
L 2766 2266 
Q 2766 2663 2505 2880 
Q 2244 3097 1772 3097 
Q 1472 3097 1187 3025 
Q 903 2953 641 2809 
L 641 3341 
Q 956 3463 1253 3523 
Q 1550 3584 1831 3584 
Q 2591 3584 2966 3190 
Q 3341 2797 3341 1997 
z
" transform="scale(0.015625)"/>
      </defs>
      <use xlink:href="#DejaVuSans-73"/>
      <use xlink:href="#DejaVuSans-74" x="52.099609"/>
      <use xlink:href="#DejaVuSans-61" x="91.308594"/>
      <use xlink:href="#DejaVuSans-72" x="152.587891"/>
     </g>
    </g>
    <g id="line2d_36">
     <path d="M 815.08 343.176562 
L 825.08 343.176562 
L 835.08 343.176562 
" style="fill: none; stroke: #ff7f0e; stroke-width: 1.5; stroke-linecap: square"/>
    </g>
    <g id="text_19">
     <!-- fork -->
     <g style="fill: #a9a9a9" transform="translate(843.08 346.676562) scale(0.1 -0.1)">
      <defs>
       <path id="DejaVuSans-66" d="M 2375 4863 
L 2375 4384 
L 1825 4384 
Q 1516 4384 1395 4259 
Q 1275 4134 1275 3809 
L 1275 3500 
L 2222 3500 
L 2222 3053 
L 1275 3053 
L 1275 0 
L 697 0 
L 697 3053 
L 147 3053 
L 147 3500 
L 697 3500 
L 697 3744 
Q 697 4328 969 4595 
Q 1241 4863 1831 4863 
L 2375 4863 
z
" transform="scale(0.015625)"/>
       <path id="DejaVuSans-6b" d="M 581 4863 
L 1159 4863 
L 1159 1991 
L 2875 3500 
L 3609 3500 
L 1753 1863 
L 3688 0 
L 2938 0 
L 1159 1709 
L 1159 0 
L 581 0 
L 581 4863 
z
" transform="scale(0.015625)"/>
      </defs>
      <use xlink:href="#DejaVuSans-66"/>
      <use xlink:href="#DejaVuSans-6f" x="35.205078"/>
      <use xlink:href="#DejaVuSans-72" x="96.386719"/>
      <use xlink:href="#DejaVuSans-6b" x="137.5"/>
     </g>
    </g>
   </g>
  </g>
 </g>
 <defs>
  <clipPath id="p9464bf244d">
   <rect x="108" y="43.2" width="669.6" height="277.2"/>
  </clipPath>
 </defs>
</svg>
