<?xml version="1.0" encoding="utf-8" standalone="no"?>
<!DOCTYPE svg PUBLIC "-//W3C//DTD SVG 1.1//EN"
  "http://www.w3.org/Graphics/SVG/1.1/DTD/svg11.dtd">
<svg xmlns:xlink="http://www.w3.org/1999/xlink" width="864pt" height="360pt" viewBox="0 0 864 360" xmlns="http://www.w3.org/2000/svg" version="1.1">
 <metadata>
  <rdf:RDF xmlns:dc="http://purl.org/dc/elements/1.1/" xmlns:cc="http://creativecommons.org/ns#" xmlns:rdf="http://www.w3.org/1999/02/22-rdf-syntax-ns#">
   <cc:Work>
    <dc:type rdf:resource="http://purl.org/dc/dcmitype/StillImage"/>
    <dc:date>2025-01-09T20:07:07.287054</dc:date>
    <dc:format>image/svg+xml</dc:format>
    <dc:creator>
     <cc:Agent>
      <dc:title>Matplotlib v3.10.0, https://matplotlib.org/</dc:title>
     </cc:Agent>
    </dc:creator>
   </cc:Work>
  </rdf:RDF>
 </metadata>
 <defs>
  <style type="text/css">*{stroke-linejoin: round; stroke-linecap: butt}</style>
 </defs>
 <g id="figure_1">
  <g id="patch_1">
   <path d="M 0 360 
L 864 360 
L 864 0 
L 0 0 
L 0 360 
z
" style="fill: none; opacity: 0"/>
  </g>
  <g id="axes_1">
   <g id="patch_2">
    <path d="M 108 320.4 
L 777.6 320.4 
L 777.6 43.2 
L 108 43.2 
L 108 320.4 
z
" style="fill: none; opacity: 0"/>
   </g>
   <g id="matplotlib.axis_1">
    <g id="xtick_1">
     <g id="line2d_1">
      <path d="M 127.368595 320.4 
L 127.368595 43.2 
" clip-path="url(#pf3f3256207)" style="fill: none; stroke-dasharray: 5.12,1.28,0.8,1.28; stroke-dashoffset: 0; stroke: #b0b0b0; stroke-width: 0.8"/>
     </g>
     <g id="line2d_2">
      <defs>
       <path id="mec8d592686" d="M 0 0 
L 0 3.5 
" style="stroke: #a9a9a9; stroke-width: 0.8"/>
      </defs>
      <g>
       <use xlink:href="#mec8d592686" x="127.368595" y="320.4" style="fill: #a9a9a9; stroke: #a9a9a9; stroke-width: 0.8"/>
      </g>
     </g>
     <g id="text_1">
      <!-- 2021-07 -->
      <g style="fill: #a9a9a9" transform="translate(106.477189 334.998438) scale(0.1 -0.1)">
       <defs>
        <path id="DejaVuSans-32" d="M 1228 531 
L 3431 531 
L 3431 0 
L 469 0 
L 469 531 
Q 828 903 1448 1529 
Q 2069 2156 2228 2338 
Q 2531 2678 2651 2914 
Q 2772 3150 2772 3378 
Q 2772 3750 2511 3984 
Q 2250 4219 1831 4219 
Q 1534 4219 1204 4116 
Q 875 4013 500 3803 
L 500 4441 
Q 881 4594 1212 4672 
Q 1544 4750 1819 4750 
Q 2544 4750 2975 4387 
Q 3406 4025 3406 3419 
Q 3406 3131 3298 2873 
Q 3191 2616 2906 2266 
Q 2828 2175 2409 1742 
Q 1991 1309 1228 531 
z
" transform="scale(0.015625)"/>
        <path id="DejaVuSans-30" d="M 2034 4250 
Q 1547 4250 1301 3770 
Q 1056 3291 1056 2328 
Q 1056 1369 1301 889 
Q 1547 409 2034 409 
Q 2525 409 2770 889 
Q 3016 1369 3016 2328 
Q 3016 3291 2770 3770 
Q 2525 4250 2034 4250 
z
M 2034 4750 
Q 2819 4750 3233 4129 
Q 3647 3509 3647 2328 
Q 3647 1150 3233 529 
Q 2819 -91 2034 -91 
Q 1250 -91 836 529 
Q 422 1150 422 2328 
Q 422 3509 836 4129 
Q 1250 4750 2034 4750 
z
" transform="scale(0.015625)"/>
        <path id="DejaVuSans-31" d="M 794 531 
L 1825 531 
L 1825 4091 
L 703 3866 
L 703 4441 
L 1819 4666 
L 2450 4666 
L 2450 531 
L 3481 531 
L 3481 0 
L 794 0 
L 794 531 
z
" transform="scale(0.015625)"/>
        <path id="DejaVuSans-2d" d="M 313 2009 
L 1997 2009 
L 1997 1497 
L 313 1497 
L 313 2009 
z
" transform="scale(0.015625)"/>
        <path id="DejaVuSans-37" d="M 525 4666 
L 3525 4666 
L 3525 4397 
L 1831 0 
L 1172 0 
L 2766 4134 
L 525 4134 
L 525 4666 
z
" transform="scale(0.015625)"/>
       </defs>
       <use xlink:href="#DejaVuSans-32"/>
       <use xlink:href="#DejaVuSans-30" transform="translate(63.623047 0)"/>
       <use xlink:href="#DejaVuSans-32" transform="translate(127.246094 0)"/>
       <use xlink:href="#DejaVuSans-31" transform="translate(190.869141 0)"/>
       <use xlink:href="#DejaVuSans-2d" transform="translate(254.492188 0)"/>
       <use xlink:href="#DejaVuSans-30" transform="translate(290.576172 0)"/>
       <use xlink:href="#DejaVuSans-37" transform="translate(354.199219 0)"/>
      </g>
     </g>
    </g>
    <g id="xtick_2">
     <g id="line2d_3">
      <path d="M 215.910744 320.4 
L 215.910744 43.2 
" clip-path="url(#pf3f3256207)" style="fill: none; stroke-dasharray: 5.12,1.28,0.8,1.28; stroke-dashoffset: 0; stroke: #b0b0b0; stroke-width: 0.8"/>
     </g>
     <g id="line2d_4">
      <g>
       <use xlink:href="#mec8d592686" x="215.910744" y="320.4" style="fill: #a9a9a9; stroke: #a9a9a9; stroke-width: 0.8"/>
      </g>
     </g>
     <g id="text_2">
      <!-- 2022-01 -->
      <g style="fill: #a9a9a9" transform="translate(195.019338 334.998438) scale(0.1 -0.1)">
       <use xlink:href="#DejaVuSans-32"/>
       <use xlink:href="#DejaVuSans-30" transform="translate(63.623047 0)"/>
       <use xlink:href="#DejaVuSans-32" transform="translate(127.246094 0)"/>
       <use xlink:href="#DejaVuSans-32" transform="translate(190.869141 0)"/>
       <use xlink:href="#DejaVuSans-2d" transform="translate(254.492188 0)"/>
       <use xlink:href="#DejaVuSans-30" transform="translate(290.576172 0)"/>
       <use xlink:href="#DejaVuSans-31" transform="translate(354.199219 0)"/>
      </g>
     </g>
    </g>
    <g id="xtick_3">
     <g id="line2d_5">
      <path d="M 303.009271 320.4 
L 303.009271 43.2 
" clip-path="url(#pf3f3256207)" style="fill: none; stroke-dasharray: 5.12,1.28,0.8,1.28; stroke-dashoffset: 0; stroke: #b0b0b0; stroke-width: 0.8"/>
     </g>
     <g id="line2d_6">
      <g>
       <use xlink:href="#mec8d592686" x="303.009271" y="320.4" style="fill: #a9a9a9; stroke: #a9a9a9; stroke-width: 0.8"/>
      </g>
     </g>
     <g id="text_3">
      <!-- 2022-07 -->
      <g style="fill: #a9a9a9" transform="translate(282.117864 334.998438) scale(0.1 -0.1)">
       <use xlink:href="#DejaVuSans-32"/>
       <use xlink:href="#DejaVuSans-30" transform="translate(63.623047 0)"/>
       <use xlink:href="#DejaVuSans-32" transform="translate(127.246094 0)"/>
       <use xlink:href="#DejaVuSans-32" transform="translate(190.869141 0)"/>
       <use xlink:href="#DejaVuSans-2d" transform="translate(254.492188 0)"/>
       <use xlink:href="#DejaVuSans-30" transform="translate(290.576172 0)"/>
       <use xlink:href="#DejaVuSans-37" transform="translate(354.199219 0)"/>
      </g>
     </g>
    </g>
    <g id="xtick_4">
     <g id="line2d_7">
      <path d="M 391.551419 320.4 
L 391.551419 43.2 
" clip-path="url(#pf3f3256207)" style="fill: none; stroke-dasharray: 5.12,1.28,0.8,1.28; stroke-dashoffset: 0; stroke: #b0b0b0; stroke-width: 0.8"/>
     </g>
     <g id="line2d_8">
      <g>
       <use xlink:href="#mec8d592686" x="391.551419" y="320.4" style="fill: #a9a9a9; stroke: #a9a9a9; stroke-width: 0.8"/>
      </g>
     </g>
     <g id="text_4">
      <!-- 2023-01 -->
      <g style="fill: #a9a9a9" transform="translate(370.660013 334.998438) scale(0.1 -0.1)">
       <defs>
        <path id="DejaVuSans-33" d="M 2597 2516 
Q 3050 2419 3304 2112 
Q 3559 1806 3559 1356 
Q 3559 666 3084 287 
Q 2609 -91 1734 -91 
Q 1441 -91 1130 -33 
Q 819 25 488 141 
L 488 750 
Q 750 597 1062 519 
Q 1375 441 1716 441 
Q 2309 441 2620 675 
Q 2931 909 2931 1356 
Q 2931 1769 2642 2001 
Q 2353 2234 1838 2234 
L 1294 2234 
L 1294 2753 
L 1863 2753 
Q 2328 2753 2575 2939 
Q 2822 3125 2822 3475 
Q 2822 3834 2567 4026 
Q 2313 4219 1838 4219 
Q 1578 4219 1281 4162 
Q 984 4106 628 3988 
L 628 4550 
Q 988 4650 1302 4700 
Q 1616 4750 1894 4750 
Q 2613 4750 3031 4423 
Q 3450 4097 3450 3541 
Q 3450 3153 3228 2886 
Q 3006 2619 2597 2516 
z
" transform="scale(0.015625)"/>
       </defs>
       <use xlink:href="#DejaVuSans-32"/>
       <use xlink:href="#DejaVuSans-30" transform="translate(63.623047 0)"/>
       <use xlink:href="#DejaVuSans-32" transform="translate(127.246094 0)"/>
       <use xlink:href="#DejaVuSans-33" transform="translate(190.869141 0)"/>
       <use xlink:href="#DejaVuSans-2d" transform="translate(254.492188 0)"/>
       <use xlink:href="#DejaVuSans-30" transform="translate(290.576172 0)"/>
       <use xlink:href="#DejaVuSans-31" transform="translate(354.199219 0)"/>
      </g>
     </g>
    </g>
    <g id="xtick_5">
     <g id="line2d_9">
      <path d="M 478.649946 320.4 
L 478.649946 43.2 
" clip-path="url(#pf3f3256207)" style="fill: none; stroke-dasharray: 5.12,1.28,0.8,1.28; stroke-dashoffset: 0; stroke: #b0b0b0; stroke-width: 0.8"/>
     </g>
     <g id="line2d_10">
      <g>
       <use xlink:href="#mec8d592686" x="478.649946" y="320.4" style="fill: #a9a9a9; stroke: #a9a9a9; stroke-width: 0.8"/>
      </g>
     </g>
     <g id="text_5">
      <!-- 2023-07 -->
      <g style="fill: #a9a9a9" transform="translate(457.75854 334.998438) scale(0.1 -0.1)">
       <use xlink:href="#DejaVuSans-32"/>
       <use xlink:href="#DejaVuSans-30" transform="translate(63.623047 0)"/>
       <use xlink:href="#DejaVuSans-32" transform="translate(127.246094 0)"/>
       <use xlink:href="#DejaVuSans-33" transform="translate(190.869141 0)"/>
       <use xlink:href="#DejaVuSans-2d" transform="translate(254.492188 0)"/>
       <use xlink:href="#DejaVuSans-30" transform="translate(290.576172 0)"/>
       <use xlink:href="#DejaVuSans-37" transform="translate(354.199219 0)"/>
      </g>
     </g>
    </g>
    <g id="xtick_6">
     <g id="line2d_11">
      <path d="M 567.192095 320.4 
L 567.192095 43.2 
" clip-path="url(#pf3f3256207)" style="fill: none; stroke-dasharray: 5.12,1.28,0.8,1.28; stroke-dashoffset: 0; stroke: #b0b0b0; stroke-width: 0.8"/>
     </g>
     <g id="line2d_12">
      <g>
       <use xlink:href="#mec8d592686" x="567.192095" y="320.4" style="fill: #a9a9a9; stroke: #a9a9a9; stroke-width: 0.8"/>
      </g>
     </g>
     <g id="text_6">
      <!-- 2024-01 -->
      <g style="fill: #a9a9a9" transform="translate(546.300689 334.998438) scale(0.1 -0.1)">
       <defs>
        <path id="DejaVuSans-34" d="M 2419 4116 
L 825 1625 
L 2419 1625 
L 2419 4116 
z
M 2253 4666 
L 3047 4666 
L 3047 1625 
L 3713 1625 
L 3713 1100 
L 3047 1100 
L 3047 0 
L 2419 0 
L 2419 1100 
L 313 1100 
L 313 1709 
L 2253 4666 
z
" transform="scale(0.015625)"/>
       </defs>
       <use xlink:href="#DejaVuSans-32"/>
       <use xlink:href="#DejaVuSans-30" transform="translate(63.623047 0)"/>
       <use xlink:href="#DejaVuSans-32" transform="translate(127.246094 0)"/>
       <use xlink:href="#DejaVuSans-34" transform="translate(190.869141 0)"/>
       <use xlink:href="#DejaVuSans-2d" transform="translate(254.492188 0)"/>
       <use xlink:href="#DejaVuSans-30" transform="translate(290.576172 0)"/>
       <use xlink:href="#DejaVuSans-31" transform="translate(354.199219 0)"/>
      </g>
     </g>
    </g>
    <g id="xtick_7">
     <g id="line2d_13">
      <path d="M 654.771829 320.4 
L 654.771829 43.2 
" clip-path="url(#pf3f3256207)" style="fill: none; stroke-dasharray: 5.12,1.28,0.8,1.28; stroke-dashoffset: 0; stroke: #b0b0b0; stroke-width: 0.8"/>
     </g>
     <g id="line2d_14">
      <g>
       <use xlink:href="#mec8d592686" x="654.771829" y="320.4" style="fill: #a9a9a9; stroke: #a9a9a9; stroke-width: 0.8"/>
      </g>
     </g>
     <g id="text_7">
      <!-- 2024-07 -->
      <g style="fill: #a9a9a9" transform="translate(633.880423 334.998438) scale(0.1 -0.1)">
       <use xlink:href="#DejaVuSans-32"/>
       <use xlink:href="#DejaVuSans-30" transform="translate(63.623047 0)"/>
       <use xlink:href="#DejaVuSans-32" transform="translate(127.246094 0)"/>
       <use xlink:href="#DejaVuSans-34" transform="translate(190.869141 0)"/>
       <use xlink:href="#DejaVuSans-2d" transform="translate(254.492188 0)"/>
       <use xlink:href="#DejaVuSans-30" transform="translate(290.576172 0)"/>
       <use xlink:href="#DejaVuSans-37" transform="translate(354.199219 0)"/>
      </g>
     </g>
    </g>
    <g id="xtick_8">
     <g id="line2d_15">
      <path d="M 743.313978 320.4 
L 743.313978 43.2 
" clip-path="url(#pf3f3256207)" style="fill: none; stroke-dasharray: 5.12,1.28,0.8,1.28; stroke-dashoffset: 0; stroke: #b0b0b0; stroke-width: 0.8"/>
     </g>
     <g id="line2d_16">
      <g>
       <use xlink:href="#mec8d592686" x="743.313978" y="320.4" style="fill: #a9a9a9; stroke: #a9a9a9; stroke-width: 0.8"/>
      </g>
     </g>
     <g id="text_8">
      <!-- 2025-01 -->
      <g style="fill: #a9a9a9" transform="translate(722.422571 334.998438) scale(0.1 -0.1)">
       <defs>
        <path id="DejaVuSans-35" d="M 691 4666 
L 3169 4666 
L 3169 4134 
L 1269 4134 
L 1269 2991 
Q 1406 3038 1543 3061 
Q 1681 3084 1819 3084 
Q 2600 3084 3056 2656 
Q 3513 2228 3513 1497 
Q 3513 744 3044 326 
Q 2575 -91 1722 -91 
Q 1428 -91 1123 -41 
Q 819 9 494 109 
L 494 744 
Q 775 591 1075 516 
Q 1375 441 1709 441 
Q 2250 441 2565 725 
Q 2881 1009 2881 1497 
Q 2881 1984 2565 2268 
Q 2250 2553 1709 2553 
Q 1456 2553 1204 2497 
Q 953 2441 691 2322 
L 691 4666 
z
" transform="scale(0.015625)"/>
       </defs>
       <use xlink:href="#DejaVuSans-32"/>
       <use xlink:href="#DejaVuSans-30" transform="translate(63.623047 0)"/>
       <use xlink:href="#DejaVuSans-32" transform="translate(127.246094 0)"/>
       <use xlink:href="#DejaVuSans-35" transform="translate(190.869141 0)"/>
       <use xlink:href="#DejaVuSans-2d" transform="translate(254.492188 0)"/>
       <use xlink:href="#DejaVuSans-30" transform="translate(290.576172 0)"/>
       <use xlink:href="#DejaVuSans-31" transform="translate(354.199219 0)"/>
      </g>
     </g>
    </g>
   </g>
   <g id="matplotlib.axis_2">
    <g id="ytick_1">
     <g id="line2d_17">
      <path d="M 108 307.835068 
L 777.6 307.835068 
" clip-path="url(#pf3f3256207)" style="fill: none; stroke-dasharray: 5.12,1.28,0.8,1.28; stroke-dashoffset: 0; stroke: #b0b0b0; stroke-width: 0.8"/>
     </g>
     <g id="line2d_18">
      <defs>
       <path id="m1654936996" d="M 0 0 
L -3.5 0 
" style="stroke: #a9a9a9; stroke-width: 0.8"/>
      </defs>
      <g>
       <use xlink:href="#m1654936996" x="108" y="307.835068" style="fill: #a9a9a9; stroke: #a9a9a9; stroke-width: 0.8"/>
      </g>
     </g>
     <g id="text_9">
      <!-- 0 -->
      <g style="fill: #a9a9a9" transform="translate(94.6375 311.634287) scale(0.1 -0.1)">
       <use xlink:href="#DejaVuSans-30"/>
      </g>
     </g>
    </g>
    <g id="ytick_2">
     <g id="line2d_19">
      <path d="M 108 279.780518 
L 777.6 279.780518 
" clip-path="url(#pf3f3256207)" style="fill: none; stroke-dasharray: 5.12,1.28,0.8,1.28; stroke-dashoffset: 0; stroke: #b0b0b0; stroke-width: 0.8"/>
     </g>
     <g id="line2d_20">
      <g>
       <use xlink:href="#m1654936996" x="108" y="279.780518" style="fill: #a9a9a9; stroke: #a9a9a9; stroke-width: 0.8"/>
      </g>
     </g>
     <g id="text_10">
      <!-- 800 -->
      <g style="fill: #a9a9a9" transform="translate(81.9125 283.579736) scale(0.1 -0.1)">
       <defs>
        <path id="DejaVuSans-38" d="M 2034 2216 
Q 1584 2216 1326 1975 
Q 1069 1734 1069 1313 
Q 1069 891 1326 650 
Q 1584 409 2034 409 
Q 2484 409 2743 651 
Q 3003 894 3003 1313 
Q 3003 1734 2745 1975 
Q 2488 2216 2034 2216 
z
M 1403 2484 
Q 997 2584 770 2862 
Q 544 3141 544 3541 
Q 544 4100 942 4425 
Q 1341 4750 2034 4750 
Q 2731 4750 3128 4425 
Q 3525 4100 3525 3541 
Q 3525 3141 3298 2862 
Q 3072 2584 2669 2484 
Q 3125 2378 3379 2068 
Q 3634 1759 3634 1313 
Q 3634 634 3220 271 
Q 2806 -91 2034 -91 
Q 1263 -91 848 271 
Q 434 634 434 1313 
Q 434 1759 690 2068 
Q 947 2378 1403 2484 
z
M 1172 3481 
Q 1172 3119 1398 2916 
Q 1625 2713 2034 2713 
Q 2441 2713 2670 2916 
Q 2900 3119 2900 3481 
Q 2900 3844 2670 4047 
Q 2441 4250 2034 4250 
Q 1625 4250 1398 4047 
Q 1172 3844 1172 3481 
z
" transform="scale(0.015625)"/>
       </defs>
       <use xlink:href="#DejaVuSans-38"/>
       <use xlink:href="#DejaVuSans-30" transform="translate(63.623047 0)"/>
       <use xlink:href="#DejaVuSans-30" transform="translate(127.246094 0)"/>
      </g>
     </g>
    </g>
    <g id="ytick_3">
     <g id="line2d_21">
      <path d="M 108 251.725967 
L 777.6 251.725967 
" clip-path="url(#pf3f3256207)" style="fill: none; stroke-dasharray: 5.12,1.28,0.8,1.28; stroke-dashoffset: 0; stroke: #b0b0b0; stroke-width: 0.8"/>
     </g>
     <g id="line2d_22">
      <g>
       <use xlink:href="#m1654936996" x="108" y="251.725967" style="fill: #a9a9a9; stroke: #a9a9a9; stroke-width: 0.8"/>
      </g>
     </g>
     <g id="text_11">
      <!-- 1600 -->
      <g style="fill: #a9a9a9" transform="translate(75.55 255.525186) scale(0.1 -0.1)">
       <defs>
        <path id="DejaVuSans-36" d="M 2113 2584 
Q 1688 2584 1439 2293 
Q 1191 2003 1191 1497 
Q 1191 994 1439 701 
Q 1688 409 2113 409 
Q 2538 409 2786 701 
Q 3034 994 3034 1497 
Q 3034 2003 2786 2293 
Q 2538 2584 2113 2584 
z
M 3366 4563 
L 3366 3988 
Q 3128 4100 2886 4159 
Q 2644 4219 2406 4219 
Q 1781 4219 1451 3797 
Q 1122 3375 1075 2522 
Q 1259 2794 1537 2939 
Q 1816 3084 2150 3084 
Q 2853 3084 3261 2657 
Q 3669 2231 3669 1497 
Q 3669 778 3244 343 
Q 2819 -91 2113 -91 
Q 1303 -91 875 529 
Q 447 1150 447 2328 
Q 447 3434 972 4092 
Q 1497 4750 2381 4750 
Q 2619 4750 2861 4703 
Q 3103 4656 3366 4563 
z
" transform="scale(0.015625)"/>
       </defs>
       <use xlink:href="#DejaVuSans-31"/>
       <use xlink:href="#DejaVuSans-36" transform="translate(63.623047 0)"/>
       <use xlink:href="#DejaVuSans-30" transform="translate(127.246094 0)"/>
       <use xlink:href="#DejaVuSans-30" transform="translate(190.869141 0)"/>
      </g>
     </g>
    </g>
    <g id="ytick_4">
     <g id="line2d_23">
      <path d="M 108 223.671417 
L 777.6 223.671417 
" clip-path="url(#pf3f3256207)" style="fill: none; stroke-dasharray: 5.12,1.28,0.8,1.28; stroke-dashoffset: 0; stroke: #b0b0b0; stroke-width: 0.8"/>
     </g>
     <g id="line2d_24">
      <g>
       <use xlink:href="#m1654936996" x="108" y="223.671417" style="fill: #a9a9a9; stroke: #a9a9a9; stroke-width: 0.8"/>
      </g>
     </g>
     <g id="text_12">
      <!-- 2400 -->
      <g style="fill: #a9a9a9" transform="translate(75.55 227.470635) scale(0.1 -0.1)">
       <use xlink:href="#DejaVuSans-32"/>
       <use xlink:href="#DejaVuSans-34" transform="translate(63.623047 0)"/>
       <use xlink:href="#DejaVuSans-30" transform="translate(127.246094 0)"/>
       <use xlink:href="#DejaVuSans-30" transform="translate(190.869141 0)"/>
      </g>
     </g>
    </g>
    <g id="ytick_5">
     <g id="line2d_25">
      <path d="M 108 195.616866 
L 777.6 195.616866 
" clip-path="url(#pf3f3256207)" style="fill: none; stroke-dasharray: 5.12,1.28,0.8,1.28; stroke-dashoffset: 0; stroke: #b0b0b0; stroke-width: 0.8"/>
     </g>
     <g id="line2d_26">
      <g>
       <use xlink:href="#m1654936996" x="108" y="195.616866" style="fill: #a9a9a9; stroke: #a9a9a9; stroke-width: 0.8"/>
      </g>
     </g>
     <g id="text_13">
      <!-- 3200 -->
      <g style="fill: #a9a9a9" transform="translate(75.55 199.416085) scale(0.1 -0.1)">
       <use xlink:href="#DejaVuSans-33"/>
       <use xlink:href="#DejaVuSans-32" transform="translate(63.623047 0)"/>
       <use xlink:href="#DejaVuSans-30" transform="translate(127.246094 0)"/>
       <use xlink:href="#DejaVuSans-30" transform="translate(190.869141 0)"/>
      </g>
     </g>
    </g>
    <g id="ytick_6">
     <g id="line2d_27">
      <path d="M 108 167.562316 
L 777.6 167.562316 
" clip-path="url(#pf3f3256207)" style="fill: none; stroke-dasharray: 5.12,1.28,0.8,1.28; stroke-dashoffset: 0; stroke: #b0b0b0; stroke-width: 0.8"/>
     </g>
     <g id="line2d_28">
      <g>
       <use xlink:href="#m1654936996" x="108" y="167.562316" style="fill: #a9a9a9; stroke: #a9a9a9; stroke-width: 0.8"/>
      </g>
     </g>
     <g id="text_14">
      <!-- 4000 -->
      <g style="fill: #a9a9a9" transform="translate(75.55 171.361534) scale(0.1 -0.1)">
       <use xlink:href="#DejaVuSans-34"/>
       <use xlink:href="#DejaVuSans-30" transform="translate(63.623047 0)"/>
       <use xlink:href="#DejaVuSans-30" transform="translate(127.246094 0)"/>
       <use xlink:href="#DejaVuSans-30" transform="translate(190.869141 0)"/>
      </g>
     </g>
    </g>
    <g id="ytick_7">
     <g id="line2d_29">
      <path d="M 108 139.507765 
L 777.6 139.507765 
" clip-path="url(#pf3f3256207)" style="fill: none; stroke-dasharray: 5.12,1.28,0.8,1.28; stroke-dashoffset: 0; stroke: #b0b0b0; stroke-width: 0.8"/>
     </g>
     <g id="line2d_30">
      <g>
       <use xlink:href="#m1654936996" x="108" y="139.507765" style="fill: #a9a9a9; stroke: #a9a9a9; stroke-width: 0.8"/>
      </g>
     </g>
     <g id="text_15">
      <!-- 4800 -->
      <g style="fill: #a9a9a9" transform="translate(75.55 143.306984) scale(0.1 -0.1)">
       <use xlink:href="#DejaVuSans-34"/>
       <use xlink:href="#DejaVuSans-38" transform="translate(63.623047 0)"/>
       <use xlink:href="#DejaVuSans-30" transform="translate(127.246094 0)"/>
       <use xlink:href="#DejaVuSans-30" transform="translate(190.869141 0)"/>
      </g>
     </g>
    </g>
    <g id="ytick_8">
     <g id="line2d_31">
      <path d="M 108 111.453215 
L 777.6 111.453215 
" clip-path="url(#pf3f3256207)" style="fill: none; stroke-dasharray: 5.12,1.28,0.8,1.28; stroke-dashoffset: 0; stroke: #b0b0b0; stroke-width: 0.8"/>
     </g>
     <g id="line2d_32">
      <g>
       <use xlink:href="#m1654936996" x="108" y="111.453215" style="fill: #a9a9a9; stroke: #a9a9a9; stroke-width: 0.8"/>
      </g>
     </g>
     <g id="text_16">
      <!-- 5600 -->
      <g style="fill: #a9a9a9" transform="translate(75.55 115.252433) scale(0.1 -0.1)">
       <use xlink:href="#DejaVuSans-35"/>
       <use xlink:href="#DejaVuSans-36" transform="translate(63.623047 0)"/>
       <use xlink:href="#DejaVuSans-30" transform="translate(127.246094 0)"/>
       <use xlink:href="#DejaVuSans-30" transform="translate(190.869141 0)"/>
      </g>
     </g>
    </g>
    <g id="ytick_9">
     <g id="line2d_33">
      <path d="M 108 83.398664 
L 777.6 83.398664 
" clip-path="url(#pf3f3256207)" style="fill: none; stroke-dasharray: 5.12,1.28,0.8,1.28; stroke-dashoffset: 0; stroke: #b0b0b0; stroke-width: 0.8"/>
     </g>
     <g id="line2d_34">
      <g>
       <use xlink:href="#m1654936996" x="108" y="83.398664" style="fill: #a9a9a9; stroke: #a9a9a9; stroke-width: 0.8"/>
      </g>
     </g>
     <g id="text_17">
      <!-- 6400 -->
      <g style="fill: #a9a9a9" transform="translate(75.55 87.197883) scale(0.1 -0.1)">
       <use xlink:href="#DejaVuSans-36"/>
       <use xlink:href="#DejaVuSans-34" transform="translate(63.623047 0)"/>
       <use xlink:href="#DejaVuSans-30" transform="translate(127.246094 0)"/>
       <use xlink:href="#DejaVuSans-30" transform="translate(190.869141 0)"/>
      </g>
     </g>
    </g>
    <g id="ytick_10">
     <g id="line2d_35">
      <path d="M 108 55.344114 
L 777.6 55.344114 
" clip-path="url(#pf3f3256207)" style="fill: none; stroke-dasharray: 5.12,1.28,0.8,1.28; stroke-dashoffset: 0; stroke: #b0b0b0; stroke-width: 0.8"/>
     </g>
     <g id="line2d_36">
      <g>
       <use xlink:href="#m1654936996" x="108" y="55.344114" style="fill: #a9a9a9; stroke: #a9a9a9; stroke-width: 0.8"/>
      </g>
     </g>
     <g id="text_18">
      <!-- 7200 -->
      <g style="fill: #a9a9a9" transform="translate(75.55 59.143332) scale(0.1 -0.1)">
       <use xlink:href="#DejaVuSans-37"/>
       <use xlink:href="#DejaVuSans-32" transform="translate(63.623047 0)"/>
       <use xlink:href="#DejaVuSans-30" transform="translate(127.246094 0)"/>
       <use xlink:href="#DejaVuSans-30" transform="translate(190.869141 0)"/>
      </g>
     </g>
    </g>
   </g>
   <g id="line2d_37">
    <path d="M 138.436364 307.729864 
L 141.323608 307.484386 
L 141.804815 307.273977 
L 143.729644 307.0285 
L 145.654474 306.64275 
L 146.616888 306.502477 
L 149.022925 306.292068 
L 149.98534 305.906318 
L 150.466547 305.27509 
L 150.947754 304.924409 
L 151.428962 303.837295 
L 151.910169 303.767158 
L 152.391376 303.381408 
L 153.353791 302.890454 
L 155.27862 301.347453 
L 157.20345 300.400612 
L 158.647072 299.734317 
L 159.128279 298.962817 
L 160.090693 298.261453 
L 160.571901 298.051044 
L 165.383974 297.34968 
L 165.865181 297.139271 
L 169.233633 296.858725 
L 171.158462 296.402839 
L 175.008121 295.876816 
L 175.489328 295.631339 
L 175.970535 295.561202 
L 176.93295 295.245589 
L 180.301401 294.684498 
L 181.263816 294.403952 
L 185.594682 293.66752 
L 186.557097 293.457111 
L 187.519511 293.422043 
L 189.444341 292.966156 
L 189.925548 292.299861 
L 191.36917 291.73877 
L 192.812792 291.35302 
L 193.293999 291.107542 
L 194.256414 290.932202 
L 196.181243 290.37111 
L 197.143658 290.300974 
L 198.106073 290.055497 
L 200.030902 289.564542 
L 200.512109 289.529474 
L 201.474524 289.073588 
L 201.955731 289.003451 
L 202.436939 288.757974 
L 207.730219 287.881269 
L 209.655049 287.320178 
L 210.136256 287.004564 
L 212.542292 286.197996 
L 213.504707 285.531701 
L 214.948329 285.251155 
L 227.45972 281.709268 
L 227.940927 281.709268 
L 228.422134 281.498859 
L 229.384549 281.393654 
L 229.865756 281.218313 
L 231.790586 281.148177 
L 232.753 280.972836 
L 233.715415 280.481881 
L 235.159037 279.955859 
L 235.640244 279.640245 
L 236.602659 279.219427 
L 237.083866 278.973949 
L 238.046281 278.658336 
L 238.527488 278.518063 
L 239.489903 277.921904 
L 239.97111 277.395881 
L 240.933525 275.923017 
L 241.414732 275.782744 
L 241.89594 275.782744 
L 243.339562 274.941108 
L 243.820769 274.69563 
L 244.301976 274.590426 
L 244.783184 274.134539 
L 245.745598 273.748789 
L 246.708013 273.292903 
L 249.11405 270.24197 
L 252.001294 268.69897 
L 252.963708 267.92747 
L 253.444916 267.611856 
L 253.926123 266.910493 
L 254.40733 265.823379 
L 254.888538 265.086947 
L 255.369745 264.701197 
L 255.850952 264.490788 
L 259.700611 260.983969 
L 260.663026 260.107264 
L 263.550269 258.318787 
L 264.031477 258.143446 
L 265.475099 257.301809 
L 266.918721 256.354968 
L 268.84355 254.636627 
L 269.805965 254.250877 
L 270.768379 253.584581 
L 271.249587 253.304036 
L 271.730794 253.233899 
L 273.174416 252.427331 
L 273.655623 251.901308 
L 276.06166 250.603785 
L 276.542867 250.428444 
L 277.986489 249.446535 
L 285.204599 246.921625 
L 286.167014 246.044921 
L 287.129429 245.589034 
L 288.091843 245.063011 
L 288.573051 244.782466 
L 289.535465 244.50192 
L 290.016673 244.186307 
L 290.49788 244.046034 
L 291.941502 243.099193 
L 294.347539 242.538102 
L 295.791161 241.696465 
L 297.234783 241.380852 
L 297.71599 241.240579 
L 299.159612 240.153465 
L 301.084441 239.627442 
L 301.565649 239.241692 
L 304.452893 238.259783 
L 305.415307 238.084442 
L 306.377722 237.698692 
L 309.746173 236.471305 
L 310.708588 236.331033 
L 312.15221 235.840078 
L 314.558246 234.682828 
L 316.483076 233.630782 
L 320.332734 232.052714 
L 320.813942 231.982577 
L 321.776356 231.386418 
L 322.257564 231.316282 
L 324.182393 230.544782 
L 326.107222 230.299304 
L 327.069637 229.80835 
L 327.550844 229.387531 
L 328.032052 228.510827 
L 329.956881 227.984804 
L 331.400503 227.248372 
L 331.88171 227.143167 
L 335.250162 225.494962 
L 336.212576 225.249485 
L 337.174991 225.039076 
L 338.137406 224.548121 
L 338.618613 224.337712 
L 339.09982 224.267576 
L 341.02465 223.390871 
L 342.468272 222.479098 
L 343.911894 222.198553 
L 346.31793 221.602394 
L 346.799138 221.216643 
L 348.24276 220.690621 
L 350.167589 219.919121 
L 350.648796 219.568439 
L 351.130004 219.393098 
L 352.092418 218.867075 
L 354.017248 218.270916 
L 354.498455 218.025438 
L 355.942077 216.868188 
L 356.423284 216.762984 
L 357.385699 215.991483 
L 357.866906 215.921347 
L 358.348114 215.149847 
L 358.829321 214.939438 
L 359.310528 214.553688 
L 359.791736 214.483551 
L 360.75415 213.887392 
L 361.716565 213.571778 
L 362.197772 213.221097 
L 362.67898 213.045756 
L 364.122602 212.028778 
L 366.047431 211.011801 
L 366.528638 210.941664 
L 367.97226 210.205232 
L 368.453467 209.398664 
L 369.415882 208.6973 
L 369.897089 208.592096 
L 370.859504 207.995937 
L 371.340711 207.890732 
L 372.303126 207.399777 
L 374.227955 206.452936 
L 374.709163 206.102254 
L 375.671577 205.155413 
L 376.633992 204.559254 
L 377.115199 204.24364 
L 377.596407 203.717618 
L 379.521236 202.385026 
L 380.002443 201.823935 
L 380.483651 201.438185 
L 381.446065 201.087503 
L 382.40848 200.456276 
L 383.852102 199.719844 
L 384.333309 199.649708 
L 385.776931 198.878208 
L 386.739346 198.282048 
L 391.551419 196.528639 
L 392.032627 196.142889 
L 393.957456 195.406457 
L 394.438663 195.266184 
L 395.401078 194.634957 
L 396.363493 194.214139 
L 397.325907 193.547843 
L 398.288322 191.619093 
L 399.250737 190.496911 
L 400.694359 189.760479 
L 401.656773 189.374729 
L 402.137981 189.304592 
L 402.619188 189.024047 
L 405.025225 188.252547 
L 405.506432 188.042137 
L 406.468847 187.375842 
L 407.912469 186.744615 
L 408.874883 186.218592 
L 409.356091 185.86791 
L 409.837298 185.657501 
L 410.318505 185.306819 
L 410.799713 184.780796 
L 411.762127 184.254773 
L 414.168164 182.95725 
L 417.055408 181.519454 
L 418.49903 181.098636 
L 419.942652 180.537545 
L 420.423859 180.186863 
L 421.386274 179.906318 
L 422.348688 179.520568 
L 422.829896 179.134818 
L 424.754725 178.468522 
L 425.71714 177.767158 
L 426.679554 177.381408 
L 427.641969 176.644976 
L 428.604384 176.294294 
L 429.085591 175.873476 
L 429.566798 175.80334 
L 430.529213 175.066908 
L 431.491628 174.575953 
L 431.972835 174.365544 
L 432.454042 173.874589 
L 435.822494 172.541998 
L 436.784908 172.12118 
L 438.22853 171.665294 
L 439.190945 171.525021 
L 439.672152 171.314612 
L 440.15336 171.244475 
L 441.115774 170.823657 
L 441.596982 170.788589 
L 443.521811 170.052157 
L 444.965433 169.03518 
L 445.44664 168.859839 
L 446.409055 168.333816 
L 446.890262 168.193543 
L 449.777506 166.580406 
L 450.258714 166.475202 
L 451.702336 165.633565 
L 453.145958 165.142611 
L 454.108372 164.826997 
L 456.033202 164.19577 
L 456.995616 163.880156 
L 458.920446 163.494406 
L 459.401653 163.283997 
L 459.88286 163.21386 
L 460.845275 162.793042 
L 461.326482 162.722906 
L 461.80769 162.477428 
L 462.770104 162.302087 
L 464.213726 161.776065 
L 465.176141 161.67086 
L 466.619763 161.355246 
L 469.025799 160.934428 
L 481.53719 157.287336 
L 482.018397 156.796382 
L 482.980812 156.410632 
L 486.830471 154.972836 
L 487.311678 154.692291 
L 488.7553 154.271472 
L 489.717715 154.025995 
L 490.198922 153.710381 
L 490.680129 153.605177 
L 491.161337 153.184358 
L 492.604959 152.903813 
L 493.567373 152.447927 
L 494.048581 151.886836 
L 495.97341 151.430949 
L 499.341861 150.729585 
L 499.823069 150.729585 
L 500.304276 150.519176 
L 502.229105 150.168494 
L 502.710313 149.958085 
L 504.635142 149.607403 
L 505.597557 149.186585 
L 506.559971 149.011244 
L 508.966008 148.415085 
L 510.890837 147.818926 
L 511.372045 147.713721 
L 511.853252 147.468244 
L 512.815667 147.222766 
L 513.296874 146.942221 
L 514.740496 146.451266 
L 515.221703 146.135653 
L 516.184118 145.855107 
L 520.033777 144.522516 
L 520.996191 144.45238 
L 522.92102 143.891289 
L 523.402228 143.610743 
L 524.364642 143.330198 
L 526.770679 142.243084 
L 527.251886 142.208016 
L 532.545167 140.349402 
L 534.951204 139.718174 
L 535.913618 139.262288 
L 537.35724 138.946674 
L 539.28207 137.368606 
L 540.244484 137.08806 
L 540.725692 136.70231 
L 543.612936 135.615196 
L 544.094143 135.299583 
L 545.056558 135.019037 
L 545.537765 134.703423 
L 547.943802 133.931923 
L 549.387424 133.090287 
L 549.868631 132.985082 
L 552.274668 131.687559 
L 553.71829 131.056332 
L 554.199497 130.70565 
L 555.161912 130.390036 
L 556.124326 129.828945 
L 556.605534 129.653604 
L 557.086741 129.302922 
L 563.342436 127.093626 
L 563.823644 126.988422 
L 564.304851 126.672808 
L 566.22968 126.287058 
L 567.192095 125.901308 
L 570.079339 124.498581 
L 570.560546 124.428444 
L 572.004168 123.621876 
L 573.44779 123.130921 
L 576.816241 121.763262 
L 577.297449 121.622989 
L 577.778656 121.307375 
L 578.741071 121.202171 
L 579.222278 120.886557 
L 580.184693 120.711216 
L 581.147107 120.25533 
L 581.628315 120.044921 
L 582.109522 119.974784 
L 584.515559 119.027943 
L 585.959181 118.642193 
L 586.921595 118.396716 
L 588.365217 117.975898 
L 589.327632 117.590148 
L 591.252461 116.538102 
L 592.214876 116.152352 
L 592.696083 115.836738 
L 593.658498 115.626329 
L 594.139705 115.345783 
L 594.620913 115.240579 
L 596.064535 114.434011 
L 597.026949 114.048261 
L 598.951779 113.311829 
L 601.357815 112.50526 
L 602.32023 112.014306 
L 604.726267 111.207737 
L 607.613511 110.050487 
L 609.53834 109.173782 
L 614.350413 107.315168 
L 614.831621 106.999555 
L 616.75645 106.333259 
L 617.237657 106.333259 
L 618.200072 105.912441 
L 620.124901 104.369441 
L 620.606109 104.229168 
L 621.087316 103.913554 
L 621.568523 103.80835 
L 622.049731 103.562872 
L 622.530938 103.492736 
L 623.012145 103.142054 
L 623.493352 103.036849 
L 624.455767 102.44069 
L 625.899389 101.704258 
L 626.861804 101.318508 
L 627.343011 101.073031 
L 628.786633 100.757417 
L 631.19267 99.950849 
L 632.155084 99.635235 
L 633.598706 98.898803 
L 634.561121 98.442917 
L 635.523536 98.197439 
L 636.967158 97.531144 
L 641.298024 95.953075 
L 642.741646 95.076371 
L 643.222853 94.971166 
L 644.185268 94.51528 
L 645.147682 94.164598 
L 645.62889 93.74378 
L 646.591304 93.35803 
L 649.478548 92.200779 
L 650.92217 91.779961 
L 651.403378 91.534484 
L 651.884585 91.464347 
L 653.328207 90.938325 
L 654.771829 90.412302 
L 655.734244 90.026552 
L 656.215451 89.640802 
L 657.659073 89.255051 
L 658.14028 88.974506 
L 659.102695 88.729029 
L 660.546317 87.92246 
L 661.027524 87.887392 
L 662.471146 87.431506 
L 663.433561 87.361369 
L 664.395976 86.975619 
L 667.28322 86.133983 
L 668.245634 86.098915 
L 672.095293 84.871528 
L 673.057708 84.345505 
L 673.538915 83.924687 
L 674.982537 83.08305 
L 675.463744 82.732368 
L 676.426159 82.381687 
L 678.832195 81.610186 
L 679.313403 81.224436 
L 682.200647 80.032118 
L 684.125476 79.506095 
L 685.087891 79.085277 
L 685.569098 78.8398 
L 686.531513 78.559254 
L 687.01272 78.278709 
L 687.975135 78.103368 
L 690.381171 76.981186 
L 690.862379 76.70064 
L 692.306001 76.349958 
L 692.787208 76.034345 
L 693.268415 75.859004 
L 693.749623 75.438185 
L 694.23083 75.368049 
L 696.155659 74.596549 
L 698.080489 74.140662 
L 698.561696 74.070526 
L 699.042903 73.860117 
L 699.524111 73.825049 
L 700.486525 73.509435 
L 700.967733 73.474367 
L 702.411355 72.913276 
L 704.336184 72.352185 
L 705.298599 71.615753 
L 707.223428 70.563707 
L 708.66705 70.072753 
L 711.554294 68.77523 
L 712.516709 68.249207 
L 712.997916 68.003729 
L 713.479123 67.547843 
L 716.366367 66.601002 
L 717.328782 66.215252 
L 718.291197 65.969775 
L 718.772404 65.724297 
L 719.253611 65.303479 
L 721.178441 64.812524 
L 721.659648 64.461842 
L 727.915343 62.217478 
L 728.877758 62.042137 
L 733.208624 60.534205 
L 734.171038 60.288728 
L 734.652246 60.078319 
L 735.133453 60.043251 
L 736.095868 59.657501 
L 737.058282 59.061341 
L 737.53949 58.886001 
L 738.020697 58.850932 
L 739.464319 58.219705 
L 740.907941 57.693682 
L 741.389148 57.623546 
L 742.351563 57.237796 
L 743.795185 56.922182 
L 745.238807 56.466296 
L 745.720014 56.361091 
L 746.201222 56.010409 
L 747.163636 55.8 
L 747.163636 55.8 
" clip-path="url(#pf3f3256207)" style="fill: none; stroke: #1f77b4; stroke-width: 1.5; stroke-linecap: square"/>
   </g>
   <g id="line2d_38">
    <path d="M 138.917571 307.8 
L 143.248437 307.694795 
L 147.098096 307.519454 
L 149.022925 307.519454 
L 149.504132 307.379182 
L 151.910169 307.273977 
L 154.797413 306.958363 
L 157.684657 306.853159 
L 158.647072 306.747954 
L 162.015523 306.607682 
L 165.383974 306.502477 
L 167.790011 306.432341 
L 174.045706 306.327136 
L 176.451743 306.257 
L 179.820194 306.151795 
L 182.226231 306.081659 
L 187.519511 305.976454 
L 189.444341 305.801113 
L 191.36917 305.766045 
L 194.256414 305.660841 
L 196.181243 305.625772 
L 198.58728 305.555636 
L 200.512109 305.380295 
L 204.842975 305.27509 
L 205.80539 305.204954 
L 207.730219 305.09975 
L 210.617463 304.994545 
L 212.542292 304.88934 
L 221.204024 304.363318 
L 224.572476 304.258113 
L 226.016098 304.11784 
L 228.422134 304.012636 
L 233.234208 303.767158 
L 238.046281 303.697022 
L 239.97111 303.486613 
L 241.89594 303.381408 
L 247.18922 302.890454 
L 250.557672 302.504704 
L 252.001294 302.434567 
L 255.850952 301.943613 
L 258.738196 301.873476 
L 260.181818 301.733203 
L 261.62544 301.627999 
L 275.099245 300.611021 
L 276.06166 300.43568 
L 278.948904 300.330476 
L 286.648221 299.874589 
L 290.016673 299.769385 
L 291.941502 299.558976 
L 294.347539 299.453771 
L 297.234783 299.348567 
L 299.640819 299.243362 
L 301.565649 299.208294 
L 303.971685 299.138158 
L 304.9341 298.997885 
L 311.671003 298.89268 
L 312.633417 298.787476 
L 318.407905 298.682271 
L 322.738771 298.471862 
L 326.107222 298.366657 
L 328.032052 298.156248 
L 331.400503 298.051044 
L 332.362918 297.875703 
L 334.768954 297.805566 
L 339.581028 297.73543 
L 341.505857 297.560089 
L 343.430686 297.525021 
L 344.874308 297.419816 
L 346.799138 297.244475 
L 351.611211 296.998998 
L 356.423284 296.893793 
L 360.75415 296.683384 
L 362.197772 296.648316 
L 363.160187 296.508043 
L 365.566223 296.402839 
L 366.528638 296.332702 
L 367.491053 296.262566 
L 368.453467 296.19243 
L 372.784333 296.122293 
L 374.227955 296.017089 
L 387.220553 295.175452 
L 389.62659 295.070248 
L 392.032627 295.000111 
L 398.769529 294.894907 
L 399.731944 294.754634 
L 406.468847 294.649429 
L 411.28092 294.403952 
L 412.243335 294.368884 
L 413.205749 294.263679 
L 415.611786 294.158475 
L 418.017822 294.088338 
L 420.423859 293.983134 
L 422.829896 293.912997 
L 427.160762 293.807793 
L 430.048006 293.702588 
L 436.784908 293.597384 
L 442.078189 293.316838 
L 444.003018 293.246702 
L 445.44664 293.141497 
L 452.183543 293.036293 
L 455.070787 292.931088 
L 463.732519 292.825884 
L 465.657348 292.790815 
L 471.431836 292.720679 
L 472.394251 292.650543 
L 479.131153 292.545338 
L 481.055983 292.51027 
L 493.567373 292.405065 
L 495.010995 292.264793 
L 516.665325 292.159588 
L 519.071362 292.089452 
L 531.582752 292.019315 
L 532.545167 291.949179 
L 534.951204 291.879043 
L 536.394826 291.73877 
L 539.28207 291.633565 
L 542.650521 291.493293 
L 546.981387 291.388088 
L 549.387424 291.317952 
L 552.755875 291.212747 
L 556.605534 291.037406 
L 559.01157 290.932202 
L 560.9364 290.897133 
L 565.267266 290.791929 
L 567.192095 290.756861 
L 573.44779 290.651656 
L 575.372619 290.616588 
L 577.778656 290.511383 
L 580.6659 290.406179 
L 584.034351 290.336042 
L 584.996766 290.265906 
L 596.545742 290.160701 
L 602.801437 289.810019 
L 605.207474 289.739883 
L 606.169889 289.634679 
L 607.132303 289.564542 
L 610.981962 289.459338 
L 613.869206 289.354133 
L 618.681279 289.248928 
L 621.087316 289.003451 
L 625.899389 288.898247 
L 626.861804 288.793042 
L 631.673877 288.687837 
L 634.079914 288.617701 
L 639.373194 288.582633 
L 640.335609 288.477428 
L 645.62889 288.372224 
L 646.591304 288.302087 
L 657.177866 288.196883 
L 660.06511 288.091678 
L 667.28322 287.986474 
L 669.208049 287.951406 
L 673.538915 287.881269 
L 674.50133 287.776065 
L 680.757025 287.67086 
L 683.163061 287.600724 
L 691.824793 287.495519 
L 693.268415 287.390315 
L 694.712037 287.28511 
L 696.155659 287.179905 
L 703.373769 287.074701 
L 706.261013 286.969496 
L 719.253611 286.864292 
L 723.584477 286.653883 
L 729.358965 286.548678 
L 730.32138 286.443473 
L 737.53949 286.373337 
L 738.501904 286.303201 
L 743.795185 286.197996 
L 746.201222 286.12786 
L 747.163636 286.12786 
L 747.163636 286.12786 
" clip-path="url(#pf3f3256207)" style="fill: none; stroke: #ff7f0e; stroke-width: 1.5; stroke-linecap: square"/>
   </g>
   <g id="patch_3">
    <path d="M 108 320.4 
L 108 43.2 
" style="fill: none; stroke: #a9a9a9; stroke-width: 0.8; stroke-linejoin: miter; stroke-linecap: square"/>
   </g>
   <g id="patch_4">
    <path d="M 777.6 320.4 
L 777.6 43.2 
" style="fill: none"/>
   </g>
   <g id="patch_5">
    <path d="M 108 320.4 
L 777.6 320.4 
" style="fill: none; stroke: #a9a9a9; stroke-width: 0.8; stroke-linejoin: miter; stroke-linecap: square"/>
   </g>
   <g id="patch_6">
    <path d="M 108 43.2 
L 777.6 43.2 
" style="fill: none"/>
   </g>
   <g id="text_19">
    <!-- get_subscribe history -->
    <g style="fill: #a9a9a9" transform="translate(378.6075 37.2) scale(0.12 -0.12)">
     <defs>
      <path id="DejaVuSans-67" d="M 2906 1791 
Q 2906 2416 2648 2759 
Q 2391 3103 1925 3103 
Q 1463 3103 1205 2759 
Q 947 2416 947 1791 
Q 947 1169 1205 825 
Q 1463 481 1925 481 
Q 2391 481 2648 825 
Q 2906 1169 2906 1791 
z
M 3481 434 
Q 3481 -459 3084 -895 
Q 2688 -1331 1869 -1331 
Q 1566 -1331 1297 -1286 
Q 1028 -1241 775 -1147 
L 775 -588 
Q 1028 -725 1275 -790 
Q 1522 -856 1778 -856 
Q 2344 -856 2625 -561 
Q 2906 -266 2906 331 
L 2906 616 
Q 2728 306 2450 153 
Q 2172 0 1784 0 
Q 1141 0 747 490 
Q 353 981 353 1791 
Q 353 2603 747 3093 
Q 1141 3584 1784 3584 
Q 2172 3584 2450 3431 
Q 2728 3278 2906 2969 
L 2906 3500 
L 3481 3500 
L 3481 434 
z
" transform="scale(0.015625)"/>
      <path id="DejaVuSans-65" d="M 3597 1894 
L 3597 1613 
L 953 1613 
Q 991 1019 1311 708 
Q 1631 397 2203 397 
Q 2534 397 2845 478 
Q 3156 559 3463 722 
L 3463 178 
Q 3153 47 2828 -22 
Q 2503 -91 2169 -91 
Q 1331 -91 842 396 
Q 353 884 353 1716 
Q 353 2575 817 3079 
Q 1281 3584 2069 3584 
Q 2775 3584 3186 3129 
Q 3597 2675 3597 1894 
z
M 3022 2063 
Q 3016 2534 2758 2815 
Q 2500 3097 2075 3097 
Q 1594 3097 1305 2825 
Q 1016 2553 972 2059 
L 3022 2063 
z
" transform="scale(0.015625)"/>
      <path id="DejaVuSans-74" d="M 1172 4494 
L 1172 3500 
L 2356 3500 
L 2356 3053 
L 1172 3053 
L 1172 1153 
Q 1172 725 1289 603 
Q 1406 481 1766 481 
L 2356 481 
L 2356 0 
L 1766 0 
Q 1100 0 847 248 
Q 594 497 594 1153 
L 594 3053 
L 172 3053 
L 172 3500 
L 594 3500 
L 594 4494 
L 1172 4494 
z
" transform="scale(0.015625)"/>
      <path id="DejaVuSans-5f" d="M 3263 -1063 
L 3263 -1509 
L -63 -1509 
L -63 -1063 
L 3263 -1063 
z
" transform="scale(0.015625)"/>
      <path id="DejaVuSans-73" d="M 2834 3397 
L 2834 2853 
Q 2591 2978 2328 3040 
Q 2066 3103 1784 3103 
Q 1356 3103 1142 2972 
Q 928 2841 928 2578 
Q 928 2378 1081 2264 
Q 1234 2150 1697 2047 
L 1894 2003 
Q 2506 1872 2764 1633 
Q 3022 1394 3022 966 
Q 3022 478 2636 193 
Q 2250 -91 1575 -91 
Q 1294 -91 989 -36 
Q 684 19 347 128 
L 347 722 
Q 666 556 975 473 
Q 1284 391 1588 391 
Q 1994 391 2212 530 
Q 2431 669 2431 922 
Q 2431 1156 2273 1281 
Q 2116 1406 1581 1522 
L 1381 1569 
Q 847 1681 609 1914 
Q 372 2147 372 2553 
Q 372 3047 722 3315 
Q 1072 3584 1716 3584 
Q 2034 3584 2315 3537 
Q 2597 3491 2834 3397 
z
" transform="scale(0.015625)"/>
      <path id="DejaVuSans-75" d="M 544 1381 
L 544 3500 
L 1119 3500 
L 1119 1403 
Q 1119 906 1312 657 
Q 1506 409 1894 409 
Q 2359 409 2629 706 
Q 2900 1003 2900 1516 
L 2900 3500 
L 3475 3500 
L 3475 0 
L 2900 0 
L 2900 538 
Q 2691 219 2414 64 
Q 2138 -91 1772 -91 
Q 1169 -91 856 284 
Q 544 659 544 1381 
z
M 1991 3584 
L 1991 3584 
z
" transform="scale(0.015625)"/>
      <path id="DejaVuSans-62" d="M 3116 1747 
Q 3116 2381 2855 2742 
Q 2594 3103 2138 3103 
Q 1681 3103 1420 2742 
Q 1159 2381 1159 1747 
Q 1159 1113 1420 752 
Q 1681 391 2138 391 
Q 2594 391 2855 752 
Q 3116 1113 3116 1747 
z
M 1159 2969 
Q 1341 3281 1617 3432 
Q 1894 3584 2278 3584 
Q 2916 3584 3314 3078 
Q 3713 2572 3713 1747 
Q 3713 922 3314 415 
Q 2916 -91 2278 -91 
Q 1894 -91 1617 61 
Q 1341 213 1159 525 
L 1159 0 
L 581 0 
L 581 4863 
L 1159 4863 
L 1159 2969 
z
" transform="scale(0.015625)"/>
      <path id="DejaVuSans-63" d="M 3122 3366 
L 3122 2828 
Q 2878 2963 2633 3030 
Q 2388 3097 2138 3097 
Q 1578 3097 1268 2742 
Q 959 2388 959 1747 
Q 959 1106 1268 751 
Q 1578 397 2138 397 
Q 2388 397 2633 464 
Q 2878 531 3122 666 
L 3122 134 
Q 2881 22 2623 -34 
Q 2366 -91 2075 -91 
Q 1284 -91 818 406 
Q 353 903 353 1747 
Q 353 2603 823 3093 
Q 1294 3584 2113 3584 
Q 2378 3584 2631 3529 
Q 2884 3475 3122 3366 
z
" transform="scale(0.015625)"/>
      <path id="DejaVuSans-72" d="M 2631 2963 
Q 2534 3019 2420 3045 
Q 2306 3072 2169 3072 
Q 1681 3072 1420 2755 
Q 1159 2438 1159 1844 
L 1159 0 
L 581 0 
L 581 3500 
L 1159 3500 
L 1159 2956 
Q 1341 3275 1631 3429 
Q 1922 3584 2338 3584 
Q 2397 3584 2469 3576 
Q 2541 3569 2628 3553 
L 2631 2963 
z
" transform="scale(0.015625)"/>
      <path id="DejaVuSans-69" d="M 603 3500 
L 1178 3500 
L 1178 0 
L 603 0 
L 603 3500 
z
M 603 4863 
L 1178 4863 
L 1178 4134 
L 603 4134 
L 603 4863 
z
" transform="scale(0.015625)"/>
      <path id="DejaVuSans-20" transform="scale(0.015625)"/>
      <path id="DejaVuSans-68" d="M 3513 2113 
L 3513 0 
L 2938 0 
L 2938 2094 
Q 2938 2591 2744 2837 
Q 2550 3084 2163 3084 
Q 1697 3084 1428 2787 
Q 1159 2491 1159 1978 
L 1159 0 
L 581 0 
L 581 4863 
L 1159 4863 
L 1159 2956 
Q 1366 3272 1645 3428 
Q 1925 3584 2291 3584 
Q 2894 3584 3203 3211 
Q 3513 2838 3513 2113 
z
" transform="scale(0.015625)"/>
      <path id="DejaVuSans-6f" d="M 1959 3097 
Q 1497 3097 1228 2736 
Q 959 2375 959 1747 
Q 959 1119 1226 758 
Q 1494 397 1959 397 
Q 2419 397 2687 759 
Q 2956 1122 2956 1747 
Q 2956 2369 2687 2733 
Q 2419 3097 1959 3097 
z
M 1959 3584 
Q 2709 3584 3137 3096 
Q 3566 2609 3566 1747 
Q 3566 888 3137 398 
Q 2709 -91 1959 -91 
Q 1206 -91 779 398 
Q 353 888 353 1747 
Q 353 2609 779 3096 
Q 1206 3584 1959 3584 
z
" transform="scale(0.015625)"/>
      <path id="DejaVuSans-79" d="M 2059 -325 
Q 1816 -950 1584 -1140 
Q 1353 -1331 966 -1331 
L 506 -1331 
L 506 -850 
L 844 -850 
Q 1081 -850 1212 -737 
Q 1344 -625 1503 -206 
L 1606 56 
L 191 3500 
L 800 3500 
L 1894 763 
L 2988 3500 
L 3597 3500 
L 2059 -325 
z
" transform="scale(0.015625)"/>
     </defs>
     <use xlink:href="#DejaVuSans-67"/>
     <use xlink:href="#DejaVuSans-65" transform="translate(63.476562 0)"/>
     <use xlink:href="#DejaVuSans-74" transform="translate(125 0)"/>
     <use xlink:href="#DejaVuSans-5f" transform="translate(164.208984 0)"/>
     <use xlink:href="#DejaVuSans-73" transform="translate(214.208984 0)"/>
     <use xlink:href="#DejaVuSans-75" transform="translate(266.308594 0)"/>
     <use xlink:href="#DejaVuSans-62" transform="translate(329.6875 0)"/>
     <use xlink:href="#DejaVuSans-73" transform="translate(393.164062 0)"/>
     <use xlink:href="#DejaVuSans-63" transform="translate(445.263672 0)"/>
     <use xlink:href="#DejaVuSans-72" transform="translate(500.244141 0)"/>
     <use xlink:href="#DejaVuSans-69" transform="translate(541.357422 0)"/>
     <use xlink:href="#DejaVuSans-62" transform="translate(569.140625 0)"/>
     <use xlink:href="#DejaVuSans-65" transform="translate(632.617188 0)"/>
     <use xlink:href="#DejaVuSans-20" transform="translate(694.140625 0)"/>
     <use xlink:href="#DejaVuSans-68" transform="translate(725.927734 0)"/>
     <use xlink:href="#DejaVuSans-69" transform="translate(789.306641 0)"/>
     <use xlink:href="#DejaVuSans-73" transform="translate(817.089844 0)"/>
     <use xlink:href="#DejaVuSans-74" transform="translate(869.189453 0)"/>
     <use xlink:href="#DejaVuSans-6f" transform="translate(908.398438 0)"/>
     <use xlink:href="#DejaVuSans-72" transform="translate(969.580078 0)"/>
     <use xlink:href="#DejaVuSans-79" transform="translate(1010.693359 0)"/>
    </g>
   </g>
   <g id="legend_1">
    <g id="line2d_39">
     <path d="M 815.08 328.498438 
L 825.08 328.498438 
L 835.08 328.498438 
" style="fill: none; stroke: #1f77b4; stroke-width: 1.5; stroke-linecap: square"/>
    </g>
    <g id="text_20">
     <!-- star -->
     <g style="fill: #a9a9a9" transform="translate(843.08 331.998438) scale(0.1 -0.1)">
      <defs>
       <path id="DejaVuSans-61" d="M 2194 1759 
Q 1497 1759 1228 1600 
Q 959 1441 959 1056 
Q 959 750 1161 570 
Q 1363 391 1709 391 
Q 2188 391 2477 730 
Q 2766 1069 2766 1631 
L 2766 1759 
L 2194 1759 
z
M 3341 1997 
L 3341 0 
L 2766 0 
L 2766 531 
Q 2569 213 2275 61 
Q 1981 -91 1556 -91 
Q 1019 -91 701 211 
Q 384 513 384 1019 
Q 384 1609 779 1909 
Q 1175 2209 1959 2209 
L 2766 2209 
L 2766 2266 
Q 2766 2663 2505 2880 
Q 2244 3097 1772 3097 
Q 1472 3097 1187 3025 
Q 903 2953 641 2809 
L 641 3341 
Q 956 3463 1253 3523 
Q 1550 3584 1831 3584 
Q 2591 3584 2966 3190 
Q 3341 2797 3341 1997 
z
" transform="scale(0.015625)"/>
      </defs>
      <use xlink:href="#DejaVuSans-73"/>
      <use xlink:href="#DejaVuSans-74" transform="translate(52.099609 0)"/>
      <use xlink:href="#DejaVuSans-61" transform="translate(91.308594 0)"/>
      <use xlink:href="#DejaVuSans-72" transform="translate(152.587891 0)"/>
     </g>
    </g>
    <g id="line2d_40">
     <path d="M 815.08 343.176562 
L 825.08 343.176562 
L 835.08 343.176562 
" style="fill: none; stroke: #ff7f0e; stroke-width: 1.5; stroke-linecap: square"/>
    </g>
    <g id="text_21">
     <!-- fork -->
     <g style="fill: #a9a9a9" transform="translate(843.08 346.676562) scale(0.1 -0.1)">
      <defs>
       <path id="DejaVuSans-66" d="M 2375 4863 
L 2375 4384 
L 1825 4384 
Q 1516 4384 1395 4259 
Q 1275 4134 1275 3809 
L 1275 3500 
L 2222 3500 
L 2222 3053 
L 1275 3053 
L 1275 0 
L 697 0 
L 697 3053 
L 147 3053 
L 147 3500 
L 697 3500 
L 697 3744 
Q 697 4328 969 4595 
Q 1241 4863 1831 4863 
L 2375 4863 
z
" transform="scale(0.015625)"/>
       <path id="DejaVuSans-6b" d="M 581 4863 
L 1159 4863 
L 1159 1991 
L 2875 3500 
L 3609 3500 
L 1753 1863 
L 3688 0 
L 2938 0 
L 1159 1709 
L 1159 0 
L 581 0 
L 581 4863 
z
" transform="scale(0.015625)"/>
      </defs>
      <use xlink:href="#DejaVuSans-66"/>
      <use xlink:href="#DejaVuSans-6f" transform="translate(35.205078 0)"/>
      <use xlink:href="#DejaVuSans-72" transform="translate(96.386719 0)"/>
      <use xlink:href="#DejaVuSans-6b" transform="translate(137.5 0)"/>
     </g>
    </g>
   </g>
  </g>
 </g>
 <defs>
  <clipPath id="pf3f3256207">
   <rect x="108" y="43.2" width="669.6" height="277.2"/>
  </clipPath>
 </defs>
</svg>
