<?xml version="1.0" encoding="utf-8" standalone="no"?>
<!DOCTYPE svg PUBLIC "-//W3C//DTD SVG 1.1//EN"
  "http://www.w3.org/Graphics/SVG/1.1/DTD/svg11.dtd">
<svg xmlns:xlink="http://www.w3.org/1999/xlink" width="864pt" height="360pt" viewBox="0 0 864 360" xmlns="http://www.w3.org/2000/svg" version="1.1">
 <metadata>
  <rdf:RDF xmlns:dc="http://purl.org/dc/elements/1.1/" xmlns:cc="http://creativecommons.org/ns#" xmlns:rdf="http://www.w3.org/1999/02/22-rdf-syntax-ns#">
   <cc:Work>
    <dc:type rdf:resource="http://purl.org/dc/dcmitype/StillImage"/>
    <dc:date>2025-01-12T08:15:15.633252</dc:date>
    <dc:format>image/svg+xml</dc:format>
    <dc:creator>
     <cc:Agent>
      <dc:title>Matplotlib v3.10.0, https://matplotlib.org/</dc:title>
     </cc:Agent>
    </dc:creator>
   </cc:Work>
  </rdf:RDF>
 </metadata>
 <defs>
  <style type="text/css">*{stroke-linejoin: round; stroke-linecap: butt}</style>
 </defs>
 <g id="figure_1">
  <g id="patch_1">
   <path d="M 0 360 
L 864 360 
L 864 0 
L 0 0 
L 0 360 
z
" style="fill: none; opacity: 0"/>
  </g>
  <g id="axes_1">
   <g id="patch_2">
    <path d="M 108 320.4 
L 777.6 320.4 
L 777.6 43.2 
L 108 43.2 
L 108 320.4 
z
" style="fill: none; opacity: 0"/>
   </g>
   <g id="matplotlib.axis_1">
    <g id="xtick_1">
     <g id="line2d_1">
      <path d="M 127.394781 320.4 
L 127.394781 43.2 
" clip-path="url(#pccf83f43de)" style="fill: none; stroke-dasharray: 5.12,1.28,0.8,1.28; stroke-dashoffset: 0; stroke: #b0b0b0; stroke-width: 0.8"/>
     </g>
     <g id="line2d_2">
      <defs>
       <path id="m226dfa52aa" d="M 0 0 
L 0 3.5 
" style="stroke: #a9a9a9; stroke-width: 0.8"/>
      </defs>
      <g>
       <use xlink:href="#m226dfa52aa" x="127.394781" y="320.4" style="fill: #a9a9a9; stroke: #a9a9a9; stroke-width: 0.8"/>
      </g>
     </g>
     <g id="text_1">
      <!-- 2021-07 -->
      <g style="fill: #a9a9a9" transform="translate(106.503374 334.998438) scale(0.1 -0.1)">
       <defs>
        <path id="DejaVuSans-32" d="M 1228 531 
L 3431 531 
L 3431 0 
L 469 0 
L 469 531 
Q 828 903 1448 1529 
Q 2069 2156 2228 2338 
Q 2531 2678 2651 2914 
Q 2772 3150 2772 3378 
Q 2772 3750 2511 3984 
Q 2250 4219 1831 4219 
Q 1534 4219 1204 4116 
Q 875 4013 500 3803 
L 500 4441 
Q 881 4594 1212 4672 
Q 1544 4750 1819 4750 
Q 2544 4750 2975 4387 
Q 3406 4025 3406 3419 
Q 3406 3131 3298 2873 
Q 3191 2616 2906 2266 
Q 2828 2175 2409 1742 
Q 1991 1309 1228 531 
z
" transform="scale(0.015625)"/>
        <path id="DejaVuSans-30" d="M 2034 4250 
Q 1547 4250 1301 3770 
Q 1056 3291 1056 2328 
Q 1056 1369 1301 889 
Q 1547 409 2034 409 
Q 2525 409 2770 889 
Q 3016 1369 3016 2328 
Q 3016 3291 2770 3770 
Q 2525 4250 2034 4250 
z
M 2034 4750 
Q 2819 4750 3233 4129 
Q 3647 3509 3647 2328 
Q 3647 1150 3233 529 
Q 2819 -91 2034 -91 
Q 1250 -91 836 529 
Q 422 1150 422 2328 
Q 422 3509 836 4129 
Q 1250 4750 2034 4750 
z
" transform="scale(0.015625)"/>
        <path id="DejaVuSans-31" d="M 794 531 
L 1825 531 
L 1825 4091 
L 703 3866 
L 703 4441 
L 1819 4666 
L 2450 4666 
L 2450 531 
L 3481 531 
L 3481 0 
L 794 0 
L 794 531 
z
" transform="scale(0.015625)"/>
        <path id="DejaVuSans-2d" d="M 313 2009 
L 1997 2009 
L 1997 1497 
L 313 1497 
L 313 2009 
z
" transform="scale(0.015625)"/>
        <path id="DejaVuSans-37" d="M 525 4666 
L 3525 4666 
L 3525 4397 
L 1831 0 
L 1172 0 
L 2766 4134 
L 525 4134 
L 525 4666 
z
" transform="scale(0.015625)"/>
       </defs>
       <use xlink:href="#DejaVuSans-32"/>
       <use xlink:href="#DejaVuSans-30" transform="translate(63.623047 0)"/>
       <use xlink:href="#DejaVuSans-32" transform="translate(127.246094 0)"/>
       <use xlink:href="#DejaVuSans-31" transform="translate(190.869141 0)"/>
       <use xlink:href="#DejaVuSans-2d" transform="translate(254.492188 0)"/>
       <use xlink:href="#DejaVuSans-30" transform="translate(290.576172 0)"/>
       <use xlink:href="#DejaVuSans-37" transform="translate(354.199219 0)"/>
      </g>
     </g>
    </g>
    <g id="xtick_2">
     <g id="line2d_3">
      <path d="M 215.727445 320.4 
L 215.727445 43.2 
" clip-path="url(#pccf83f43de)" style="fill: none; stroke-dasharray: 5.12,1.28,0.8,1.28; stroke-dashoffset: 0; stroke: #b0b0b0; stroke-width: 0.8"/>
     </g>
     <g id="line2d_4">
      <g>
       <use xlink:href="#m226dfa52aa" x="215.727445" y="320.4" style="fill: #a9a9a9; stroke: #a9a9a9; stroke-width: 0.8"/>
      </g>
     </g>
     <g id="text_2">
      <!-- 2022-01 -->
      <g style="fill: #a9a9a9" transform="translate(194.836039 334.998438) scale(0.1 -0.1)">
       <use xlink:href="#DejaVuSans-32"/>
       <use xlink:href="#DejaVuSans-30" transform="translate(63.623047 0)"/>
       <use xlink:href="#DejaVuSans-32" transform="translate(127.246094 0)"/>
       <use xlink:href="#DejaVuSans-32" transform="translate(190.869141 0)"/>
       <use xlink:href="#DejaVuSans-2d" transform="translate(254.492188 0)"/>
       <use xlink:href="#DejaVuSans-30" transform="translate(290.576172 0)"/>
       <use xlink:href="#DejaVuSans-31" transform="translate(354.199219 0)"/>
      </g>
     </g>
    </g>
    <g id="xtick_3">
     <g id="line2d_5">
      <path d="M 302.619902 320.4 
L 302.619902 43.2 
" clip-path="url(#pccf83f43de)" style="fill: none; stroke-dasharray: 5.12,1.28,0.8,1.28; stroke-dashoffset: 0; stroke: #b0b0b0; stroke-width: 0.8"/>
     </g>
     <g id="line2d_6">
      <g>
       <use xlink:href="#m226dfa52aa" x="302.619902" y="320.4" style="fill: #a9a9a9; stroke: #a9a9a9; stroke-width: 0.8"/>
      </g>
     </g>
     <g id="text_3">
      <!-- 2022-07 -->
      <g style="fill: #a9a9a9" transform="translate(281.728496 334.998438) scale(0.1 -0.1)">
       <use xlink:href="#DejaVuSans-32"/>
       <use xlink:href="#DejaVuSans-30" transform="translate(63.623047 0)"/>
       <use xlink:href="#DejaVuSans-32" transform="translate(127.246094 0)"/>
       <use xlink:href="#DejaVuSans-32" transform="translate(190.869141 0)"/>
       <use xlink:href="#DejaVuSans-2d" transform="translate(254.492188 0)"/>
       <use xlink:href="#DejaVuSans-30" transform="translate(290.576172 0)"/>
       <use xlink:href="#DejaVuSans-37" transform="translate(354.199219 0)"/>
      </g>
     </g>
    </g>
    <g id="xtick_4">
     <g id="line2d_7">
      <path d="M 390.952567 320.4 
L 390.952567 43.2 
" clip-path="url(#pccf83f43de)" style="fill: none; stroke-dasharray: 5.12,1.28,0.8,1.28; stroke-dashoffset: 0; stroke: #b0b0b0; stroke-width: 0.8"/>
     </g>
     <g id="line2d_8">
      <g>
       <use xlink:href="#m226dfa52aa" x="390.952567" y="320.4" style="fill: #a9a9a9; stroke: #a9a9a9; stroke-width: 0.8"/>
      </g>
     </g>
     <g id="text_4">
      <!-- 2023-01 -->
      <g style="fill: #a9a9a9" transform="translate(370.06116 334.998438) scale(0.1 -0.1)">
       <defs>
        <path id="DejaVuSans-33" d="M 2597 2516 
Q 3050 2419 3304 2112 
Q 3559 1806 3559 1356 
Q 3559 666 3084 287 
Q 2609 -91 1734 -91 
Q 1441 -91 1130 -33 
Q 819 25 488 141 
L 488 750 
Q 750 597 1062 519 
Q 1375 441 1716 441 
Q 2309 441 2620 675 
Q 2931 909 2931 1356 
Q 2931 1769 2642 2001 
Q 2353 2234 1838 2234 
L 1294 2234 
L 1294 2753 
L 1863 2753 
Q 2328 2753 2575 2939 
Q 2822 3125 2822 3475 
Q 2822 3834 2567 4026 
Q 2313 4219 1838 4219 
Q 1578 4219 1281 4162 
Q 984 4106 628 3988 
L 628 4550 
Q 988 4650 1302 4700 
Q 1616 4750 1894 4750 
Q 2613 4750 3031 4423 
Q 3450 4097 3450 3541 
Q 3450 3153 3228 2886 
Q 3006 2619 2597 2516 
z
" transform="scale(0.015625)"/>
       </defs>
       <use xlink:href="#DejaVuSans-32"/>
       <use xlink:href="#DejaVuSans-30" transform="translate(63.623047 0)"/>
       <use xlink:href="#DejaVuSans-32" transform="translate(127.246094 0)"/>
       <use xlink:href="#DejaVuSans-33" transform="translate(190.869141 0)"/>
       <use xlink:href="#DejaVuSans-2d" transform="translate(254.492188 0)"/>
       <use xlink:href="#DejaVuSans-30" transform="translate(290.576172 0)"/>
       <use xlink:href="#DejaVuSans-31" transform="translate(354.199219 0)"/>
      </g>
     </g>
    </g>
    <g id="xtick_5">
     <g id="line2d_9">
      <path d="M 477.845024 320.4 
L 477.845024 43.2 
" clip-path="url(#pccf83f43de)" style="fill: none; stroke-dasharray: 5.12,1.28,0.8,1.28; stroke-dashoffset: 0; stroke: #b0b0b0; stroke-width: 0.8"/>
     </g>
     <g id="line2d_10">
      <g>
       <use xlink:href="#m226dfa52aa" x="477.845024" y="320.4" style="fill: #a9a9a9; stroke: #a9a9a9; stroke-width: 0.8"/>
      </g>
     </g>
     <g id="text_5">
      <!-- 2023-07 -->
      <g style="fill: #a9a9a9" transform="translate(456.953618 334.998438) scale(0.1 -0.1)">
       <use xlink:href="#DejaVuSans-32"/>
       <use xlink:href="#DejaVuSans-30" transform="translate(63.623047 0)"/>
       <use xlink:href="#DejaVuSans-32" transform="translate(127.246094 0)"/>
       <use xlink:href="#DejaVuSans-33" transform="translate(190.869141 0)"/>
       <use xlink:href="#DejaVuSans-2d" transform="translate(254.492188 0)"/>
       <use xlink:href="#DejaVuSans-30" transform="translate(290.576172 0)"/>
       <use xlink:href="#DejaVuSans-37" transform="translate(354.199219 0)"/>
      </g>
     </g>
    </g>
    <g id="xtick_6">
     <g id="line2d_11">
      <path d="M 566.177689 320.4 
L 566.177689 43.2 
" clip-path="url(#pccf83f43de)" style="fill: none; stroke-dasharray: 5.12,1.28,0.8,1.28; stroke-dashoffset: 0; stroke: #b0b0b0; stroke-width: 0.8"/>
     </g>
     <g id="line2d_12">
      <g>
       <use xlink:href="#m226dfa52aa" x="566.177689" y="320.4" style="fill: #a9a9a9; stroke: #a9a9a9; stroke-width: 0.8"/>
      </g>
     </g>
     <g id="text_6">
      <!-- 2024-01 -->
      <g style="fill: #a9a9a9" transform="translate(545.286282 334.998438) scale(0.1 -0.1)">
       <defs>
        <path id="DejaVuSans-34" d="M 2419 4116 
L 825 1625 
L 2419 1625 
L 2419 4116 
z
M 2253 4666 
L 3047 4666 
L 3047 1625 
L 3713 1625 
L 3713 1100 
L 3047 1100 
L 3047 0 
L 2419 0 
L 2419 1100 
L 313 1100 
L 313 1709 
L 2253 4666 
z
" transform="scale(0.015625)"/>
       </defs>
       <use xlink:href="#DejaVuSans-32"/>
       <use xlink:href="#DejaVuSans-30" transform="translate(63.623047 0)"/>
       <use xlink:href="#DejaVuSans-32" transform="translate(127.246094 0)"/>
       <use xlink:href="#DejaVuSans-34" transform="translate(190.869141 0)"/>
       <use xlink:href="#DejaVuSans-2d" transform="translate(254.492188 0)"/>
       <use xlink:href="#DejaVuSans-30" transform="translate(290.576172 0)"/>
       <use xlink:href="#DejaVuSans-31" transform="translate(354.199219 0)"/>
      </g>
     </g>
    </g>
    <g id="xtick_7">
     <g id="line2d_13">
      <path d="M 653.550215 320.4 
L 653.550215 43.2 
" clip-path="url(#pccf83f43de)" style="fill: none; stroke-dasharray: 5.12,1.28,0.8,1.28; stroke-dashoffset: 0; stroke: #b0b0b0; stroke-width: 0.8"/>
     </g>
     <g id="line2d_14">
      <g>
       <use xlink:href="#m226dfa52aa" x="653.550215" y="320.4" style="fill: #a9a9a9; stroke: #a9a9a9; stroke-width: 0.8"/>
      </g>
     </g>
     <g id="text_7">
      <!-- 2024-07 -->
      <g style="fill: #a9a9a9" transform="translate(632.658809 334.998438) scale(0.1 -0.1)">
       <use xlink:href="#DejaVuSans-32"/>
       <use xlink:href="#DejaVuSans-30" transform="translate(63.623047 0)"/>
       <use xlink:href="#DejaVuSans-32" transform="translate(127.246094 0)"/>
       <use xlink:href="#DejaVuSans-34" transform="translate(190.869141 0)"/>
       <use xlink:href="#DejaVuSans-2d" transform="translate(254.492188 0)"/>
       <use xlink:href="#DejaVuSans-30" transform="translate(290.576172 0)"/>
       <use xlink:href="#DejaVuSans-37" transform="translate(354.199219 0)"/>
      </g>
     </g>
    </g>
    <g id="xtick_8">
     <g id="line2d_15">
      <path d="M 741.882879 320.4 
L 741.882879 43.2 
" clip-path="url(#pccf83f43de)" style="fill: none; stroke-dasharray: 5.12,1.28,0.8,1.28; stroke-dashoffset: 0; stroke: #b0b0b0; stroke-width: 0.8"/>
     </g>
     <g id="line2d_16">
      <g>
       <use xlink:href="#m226dfa52aa" x="741.882879" y="320.4" style="fill: #a9a9a9; stroke: #a9a9a9; stroke-width: 0.8"/>
      </g>
     </g>
     <g id="text_8">
      <!-- 2025-01 -->
      <g style="fill: #a9a9a9" transform="translate(720.991473 334.998438) scale(0.1 -0.1)">
       <defs>
        <path id="DejaVuSans-35" d="M 691 4666 
L 3169 4666 
L 3169 4134 
L 1269 4134 
L 1269 2991 
Q 1406 3038 1543 3061 
Q 1681 3084 1819 3084 
Q 2600 3084 3056 2656 
Q 3513 2228 3513 1497 
Q 3513 744 3044 326 
Q 2575 -91 1722 -91 
Q 1428 -91 1123 -41 
Q 819 9 494 109 
L 494 744 
Q 775 591 1075 516 
Q 1375 441 1709 441 
Q 2250 441 2565 725 
Q 2881 1009 2881 1497 
Q 2881 1984 2565 2268 
Q 2250 2553 1709 2553 
Q 1456 2553 1204 2497 
Q 953 2441 691 2322 
L 691 4666 
z
" transform="scale(0.015625)"/>
       </defs>
       <use xlink:href="#DejaVuSans-32"/>
       <use xlink:href="#DejaVuSans-30" transform="translate(63.623047 0)"/>
       <use xlink:href="#DejaVuSans-32" transform="translate(127.246094 0)"/>
       <use xlink:href="#DejaVuSans-35" transform="translate(190.869141 0)"/>
       <use xlink:href="#DejaVuSans-2d" transform="translate(254.492188 0)"/>
       <use xlink:href="#DejaVuSans-30" transform="translate(290.576172 0)"/>
       <use xlink:href="#DejaVuSans-31" transform="translate(354.199219 0)"/>
      </g>
     </g>
    </g>
   </g>
   <g id="matplotlib.axis_2">
    <g id="ytick_1">
     <g id="line2d_17">
      <path d="M 108 307.835034 
L 777.6 307.835034 
" clip-path="url(#pccf83f43de)" style="fill: none; stroke-dasharray: 5.12,1.28,0.8,1.28; stroke-dashoffset: 0; stroke: #b0b0b0; stroke-width: 0.8"/>
     </g>
     <g id="line2d_18">
      <defs>
       <path id="md81360db59" d="M 0 0 
L -3.5 0 
" style="stroke: #a9a9a9; stroke-width: 0.8"/>
      </defs>
      <g>
       <use xlink:href="#md81360db59" x="108" y="307.835034" style="fill: #a9a9a9; stroke: #a9a9a9; stroke-width: 0.8"/>
      </g>
     </g>
     <g id="text_9">
      <!-- 0 -->
      <g style="fill: #a9a9a9" transform="translate(94.6375 311.634253) scale(0.1 -0.1)">
       <use xlink:href="#DejaVuSans-30"/>
      </g>
     </g>
    </g>
    <g id="ytick_2">
     <g id="line2d_19">
      <path d="M 108 279.807785 
L 777.6 279.807785 
" clip-path="url(#pccf83f43de)" style="fill: none; stroke-dasharray: 5.12,1.28,0.8,1.28; stroke-dashoffset: 0; stroke: #b0b0b0; stroke-width: 0.8"/>
     </g>
     <g id="line2d_20">
      <g>
       <use xlink:href="#md81360db59" x="108" y="279.807785" style="fill: #a9a9a9; stroke: #a9a9a9; stroke-width: 0.8"/>
      </g>
     </g>
     <g id="text_10">
      <!-- 800 -->
      <g style="fill: #a9a9a9" transform="translate(81.9125 283.607004) scale(0.1 -0.1)">
       <defs>
        <path id="DejaVuSans-38" d="M 2034 2216 
Q 1584 2216 1326 1975 
Q 1069 1734 1069 1313 
Q 1069 891 1326 650 
Q 1584 409 2034 409 
Q 2484 409 2743 651 
Q 3003 894 3003 1313 
Q 3003 1734 2745 1975 
Q 2488 2216 2034 2216 
z
M 1403 2484 
Q 997 2584 770 2862 
Q 544 3141 544 3541 
Q 544 4100 942 4425 
Q 1341 4750 2034 4750 
Q 2731 4750 3128 4425 
Q 3525 4100 3525 3541 
Q 3525 3141 3298 2862 
Q 3072 2584 2669 2484 
Q 3125 2378 3379 2068 
Q 3634 1759 3634 1313 
Q 3634 634 3220 271 
Q 2806 -91 2034 -91 
Q 1263 -91 848 271 
Q 434 634 434 1313 
Q 434 1759 690 2068 
Q 947 2378 1403 2484 
z
M 1172 3481 
Q 1172 3119 1398 2916 
Q 1625 2713 2034 2713 
Q 2441 2713 2670 2916 
Q 2900 3119 2900 3481 
Q 2900 3844 2670 4047 
Q 2441 4250 2034 4250 
Q 1625 4250 1398 4047 
Q 1172 3844 1172 3481 
z
" transform="scale(0.015625)"/>
       </defs>
       <use xlink:href="#DejaVuSans-38"/>
       <use xlink:href="#DejaVuSans-30" transform="translate(63.623047 0)"/>
       <use xlink:href="#DejaVuSans-30" transform="translate(127.246094 0)"/>
      </g>
     </g>
    </g>
    <g id="ytick_3">
     <g id="line2d_21">
      <path d="M 108 251.780537 
L 777.6 251.780537 
" clip-path="url(#pccf83f43de)" style="fill: none; stroke-dasharray: 5.12,1.28,0.8,1.28; stroke-dashoffset: 0; stroke: #b0b0b0; stroke-width: 0.8"/>
     </g>
     <g id="line2d_22">
      <g>
       <use xlink:href="#md81360db59" x="108" y="251.780537" style="fill: #a9a9a9; stroke: #a9a9a9; stroke-width: 0.8"/>
      </g>
     </g>
     <g id="text_11">
      <!-- 1600 -->
      <g style="fill: #a9a9a9" transform="translate(75.55 255.579755) scale(0.1 -0.1)">
       <defs>
        <path id="DejaVuSans-36" d="M 2113 2584 
Q 1688 2584 1439 2293 
Q 1191 2003 1191 1497 
Q 1191 994 1439 701 
Q 1688 409 2113 409 
Q 2538 409 2786 701 
Q 3034 994 3034 1497 
Q 3034 2003 2786 2293 
Q 2538 2584 2113 2584 
z
M 3366 4563 
L 3366 3988 
Q 3128 4100 2886 4159 
Q 2644 4219 2406 4219 
Q 1781 4219 1451 3797 
Q 1122 3375 1075 2522 
Q 1259 2794 1537 2939 
Q 1816 3084 2150 3084 
Q 2853 3084 3261 2657 
Q 3669 2231 3669 1497 
Q 3669 778 3244 343 
Q 2819 -91 2113 -91 
Q 1303 -91 875 529 
Q 447 1150 447 2328 
Q 447 3434 972 4092 
Q 1497 4750 2381 4750 
Q 2619 4750 2861 4703 
Q 3103 4656 3366 4563 
z
" transform="scale(0.015625)"/>
       </defs>
       <use xlink:href="#DejaVuSans-31"/>
       <use xlink:href="#DejaVuSans-36" transform="translate(63.623047 0)"/>
       <use xlink:href="#DejaVuSans-30" transform="translate(127.246094 0)"/>
       <use xlink:href="#DejaVuSans-30" transform="translate(190.869141 0)"/>
      </g>
     </g>
    </g>
    <g id="ytick_4">
     <g id="line2d_23">
      <path d="M 108 223.753288 
L 777.6 223.753288 
" clip-path="url(#pccf83f43de)" style="fill: none; stroke-dasharray: 5.12,1.28,0.8,1.28; stroke-dashoffset: 0; stroke: #b0b0b0; stroke-width: 0.8"/>
     </g>
     <g id="line2d_24">
      <g>
       <use xlink:href="#md81360db59" x="108" y="223.753288" style="fill: #a9a9a9; stroke: #a9a9a9; stroke-width: 0.8"/>
      </g>
     </g>
     <g id="text_12">
      <!-- 2400 -->
      <g style="fill: #a9a9a9" transform="translate(75.55 227.552507) scale(0.1 -0.1)">
       <use xlink:href="#DejaVuSans-32"/>
       <use xlink:href="#DejaVuSans-34" transform="translate(63.623047 0)"/>
       <use xlink:href="#DejaVuSans-30" transform="translate(127.246094 0)"/>
       <use xlink:href="#DejaVuSans-30" transform="translate(190.869141 0)"/>
      </g>
     </g>
    </g>
    <g id="ytick_5">
     <g id="line2d_25">
      <path d="M 108 195.726039 
L 777.6 195.726039 
" clip-path="url(#pccf83f43de)" style="fill: none; stroke-dasharray: 5.12,1.28,0.8,1.28; stroke-dashoffset: 0; stroke: #b0b0b0; stroke-width: 0.8"/>
     </g>
     <g id="line2d_26">
      <g>
       <use xlink:href="#md81360db59" x="108" y="195.726039" style="fill: #a9a9a9; stroke: #a9a9a9; stroke-width: 0.8"/>
      </g>
     </g>
     <g id="text_13">
      <!-- 3200 -->
      <g style="fill: #a9a9a9" transform="translate(75.55 199.525258) scale(0.1 -0.1)">
       <use xlink:href="#DejaVuSans-33"/>
       <use xlink:href="#DejaVuSans-32" transform="translate(63.623047 0)"/>
       <use xlink:href="#DejaVuSans-30" transform="translate(127.246094 0)"/>
       <use xlink:href="#DejaVuSans-30" transform="translate(190.869141 0)"/>
      </g>
     </g>
    </g>
    <g id="ytick_6">
     <g id="line2d_27">
      <path d="M 108 167.69879 
L 777.6 167.69879 
" clip-path="url(#pccf83f43de)" style="fill: none; stroke-dasharray: 5.12,1.28,0.8,1.28; stroke-dashoffset: 0; stroke: #b0b0b0; stroke-width: 0.8"/>
     </g>
     <g id="line2d_28">
      <g>
       <use xlink:href="#md81360db59" x="108" y="167.69879" style="fill: #a9a9a9; stroke: #a9a9a9; stroke-width: 0.8"/>
      </g>
     </g>
     <g id="text_14">
      <!-- 4000 -->
      <g style="fill: #a9a9a9" transform="translate(75.55 171.498009) scale(0.1 -0.1)">
       <use xlink:href="#DejaVuSans-34"/>
       <use xlink:href="#DejaVuSans-30" transform="translate(63.623047 0)"/>
       <use xlink:href="#DejaVuSans-30" transform="translate(127.246094 0)"/>
       <use xlink:href="#DejaVuSans-30" transform="translate(190.869141 0)"/>
      </g>
     </g>
    </g>
    <g id="ytick_7">
     <g id="line2d_29">
      <path d="M 108 139.671542 
L 777.6 139.671542 
" clip-path="url(#pccf83f43de)" style="fill: none; stroke-dasharray: 5.12,1.28,0.8,1.28; stroke-dashoffset: 0; stroke: #b0b0b0; stroke-width: 0.8"/>
     </g>
     <g id="line2d_30">
      <g>
       <use xlink:href="#md81360db59" x="108" y="139.671542" style="fill: #a9a9a9; stroke: #a9a9a9; stroke-width: 0.8"/>
      </g>
     </g>
     <g id="text_15">
      <!-- 4800 -->
      <g style="fill: #a9a9a9" transform="translate(75.55 143.470761) scale(0.1 -0.1)">
       <use xlink:href="#DejaVuSans-34"/>
       <use xlink:href="#DejaVuSans-38" transform="translate(63.623047 0)"/>
       <use xlink:href="#DejaVuSans-30" transform="translate(127.246094 0)"/>
       <use xlink:href="#DejaVuSans-30" transform="translate(190.869141 0)"/>
      </g>
     </g>
    </g>
    <g id="ytick_8">
     <g id="line2d_31">
      <path d="M 108 111.644293 
L 777.6 111.644293 
" clip-path="url(#pccf83f43de)" style="fill: none; stroke-dasharray: 5.12,1.28,0.8,1.28; stroke-dashoffset: 0; stroke: #b0b0b0; stroke-width: 0.8"/>
     </g>
     <g id="line2d_32">
      <g>
       <use xlink:href="#md81360db59" x="108" y="111.644293" style="fill: #a9a9a9; stroke: #a9a9a9; stroke-width: 0.8"/>
      </g>
     </g>
     <g id="text_16">
      <!-- 5600 -->
      <g style="fill: #a9a9a9" transform="translate(75.55 115.443512) scale(0.1 -0.1)">
       <use xlink:href="#DejaVuSans-35"/>
       <use xlink:href="#DejaVuSans-36" transform="translate(63.623047 0)"/>
       <use xlink:href="#DejaVuSans-30" transform="translate(127.246094 0)"/>
       <use xlink:href="#DejaVuSans-30" transform="translate(190.869141 0)"/>
      </g>
     </g>
    </g>
    <g id="ytick_9">
     <g id="line2d_33">
      <path d="M 108 83.617044 
L 777.6 83.617044 
" clip-path="url(#pccf83f43de)" style="fill: none; stroke-dasharray: 5.12,1.28,0.8,1.28; stroke-dashoffset: 0; stroke: #b0b0b0; stroke-width: 0.8"/>
     </g>
     <g id="line2d_34">
      <g>
       <use xlink:href="#md81360db59" x="108" y="83.617044" style="fill: #a9a9a9; stroke: #a9a9a9; stroke-width: 0.8"/>
      </g>
     </g>
     <g id="text_17">
      <!-- 6400 -->
      <g style="fill: #a9a9a9" transform="translate(75.55 87.416263) scale(0.1 -0.1)">
       <use xlink:href="#DejaVuSans-36"/>
       <use xlink:href="#DejaVuSans-34" transform="translate(63.623047 0)"/>
       <use xlink:href="#DejaVuSans-30" transform="translate(127.246094 0)"/>
       <use xlink:href="#DejaVuSans-30" transform="translate(190.869141 0)"/>
      </g>
     </g>
    </g>
    <g id="ytick_10">
     <g id="line2d_35">
      <path d="M 108 55.589796 
L 777.6 55.589796 
" clip-path="url(#pccf83f43de)" style="fill: none; stroke-dasharray: 5.12,1.28,0.8,1.28; stroke-dashoffset: 0; stroke: #b0b0b0; stroke-width: 0.8"/>
     </g>
     <g id="line2d_36">
      <g>
       <use xlink:href="#md81360db59" x="108" y="55.589796" style="fill: #a9a9a9; stroke: #a9a9a9; stroke-width: 0.8"/>
      </g>
     </g>
     <g id="text_18">
      <!-- 7200 -->
      <g style="fill: #a9a9a9" transform="translate(75.55 59.389014) scale(0.1 -0.1)">
       <use xlink:href="#DejaVuSans-37"/>
       <use xlink:href="#DejaVuSans-32" transform="translate(63.623047 0)"/>
       <use xlink:href="#DejaVuSans-30" transform="translate(127.246094 0)"/>
       <use xlink:href="#DejaVuSans-30" transform="translate(190.869141 0)"/>
      </g>
     </g>
    </g>
   </g>
   <g id="line2d_37">
    <path d="M 138.436364 307.729932 
L 141.316777 307.484693 
L 141.796845 307.274489 
L 143.717121 307.029251 
L 145.637396 306.643876 
L 146.597534 306.50374 
L 148.997878 306.293535 
L 149.958015 305.908161 
L 150.438084 305.277548 
L 150.918153 304.927207 
L 151.398222 303.841151 
L 151.878291 303.771083 
L 152.35836 303.385708 
L 153.318497 302.895231 
L 155.238773 301.353733 
L 157.159048 300.407813 
L 158.599254 299.742166 
L 159.079323 298.971417 
L 160.039461 298.270735 
L 160.51953 298.060531 
L 165.320218 297.35985 
L 165.800287 297.149645 
L 169.160769 296.869373 
L 171.081044 296.41393 
L 174.921594 295.888419 
L 175.401663 295.643181 
L 175.881732 295.573113 
L 176.84187 295.257806 
L 180.202352 294.697261 
L 181.162489 294.416989 
L 185.483109 293.681273 
L 186.443246 293.471069 
L 187.403384 293.436035 
L 189.323659 292.980592 
L 189.803728 292.314945 
L 191.243935 291.7544 
L 192.684141 291.369025 
L 193.16421 291.123787 
L 194.124348 290.948617 
L 196.044623 290.388072 
L 197.004761 290.318004 
L 197.964898 290.072765 
L 199.885174 289.582288 
L 200.365242 289.547254 
L 201.32538 289.091811 
L 201.805449 289.021743 
L 202.285518 288.776505 
L 207.566275 287.900653 
L 209.48655 287.340108 
L 209.966619 287.024802 
L 212.366963 286.219018 
L 213.327101 285.553371 
L 214.767307 285.273099 
L 227.249097 281.734659 
L 227.729165 281.734659 
L 228.209234 281.524454 
L 229.169372 281.419352 
L 229.649441 281.244182 
L 231.569716 281.174114 
L 232.529854 280.998943 
L 233.489991 280.508467 
L 234.930198 279.982956 
L 235.410267 279.667649 
L 236.370404 279.24724 
L 236.850473 279.002002 
L 237.810611 278.686695 
L 238.29068 278.546559 
L 239.250817 277.95098 
L 239.730886 277.425469 
L 240.691024 275.954039 
L 241.171093 275.813902 
L 241.651161 275.813902 
L 243.091368 274.973085 
L 243.571437 274.727847 
L 244.051506 274.622744 
L 244.531574 274.167302 
L 245.491712 273.781927 
L 246.45185 273.326484 
L 248.852194 270.278521 
L 251.732607 268.737022 
L 252.692744 267.966273 
L 253.172813 267.650966 
L 253.652882 266.950285 
L 254.132951 265.864229 
L 254.61302 265.128514 
L 255.093089 264.743139 
L 255.573157 264.532935 
L 259.413708 261.029529 
L 260.373846 260.153677 
L 263.254259 258.36694 
L 263.734328 258.19177 
L 265.174534 257.350952 
L 266.61474 256.405033 
L 268.535016 254.688364 
L 269.495153 254.302989 
L 270.455291 253.637342 
L 270.93536 253.357069 
L 271.415429 253.287001 
L 272.855635 252.481218 
L 273.335704 251.955707 
L 275.736048 250.659447 
L 276.216117 250.484276 
L 277.656323 249.503323 
L 284.857356 246.98087 
L 285.817494 246.105019 
L 286.777631 245.649576 
L 287.737769 245.124065 
L 288.217838 244.843793 
L 289.177975 244.56352 
L 289.658044 244.248214 
L 290.138113 244.108077 
L 291.578319 243.162158 
L 293.978664 242.601613 
L 295.41887 241.760795 
L 296.859077 241.445489 
L 297.339145 241.305352 
L 298.779352 240.219297 
L 300.699627 239.693786 
L 301.179696 239.308411 
L 304.060109 238.327457 
L 305.020247 238.152287 
L 305.980384 237.766912 
L 309.340866 236.54072 
L 310.301004 236.400584 
L 311.74121 235.910107 
L 314.141554 234.753983 
L 316.06183 233.702961 
L 319.90238 232.126428 
L 320.382449 232.05636 
L 321.342587 231.460781 
L 321.822656 231.390713 
L 323.742931 230.619964 
L 325.663206 230.374725 
L 326.623344 229.884249 
L 327.103413 229.46384 
L 327.583482 228.587988 
L 329.503757 228.062477 
L 330.943963 227.326762 
L 331.424032 227.22166 
L 334.784514 225.575059 
L 335.744652 225.329821 
L 336.704789 225.119616 
L 337.664927 224.629139 
L 338.144996 224.418935 
L 338.625065 224.348867 
L 340.54534 223.473015 
L 341.985546 222.56213 
L 343.425753 222.281857 
L 345.826097 221.686278 
L 346.306166 221.300904 
L 347.746372 220.775393 
L 349.666648 220.004643 
L 350.146716 219.654303 
L 350.626785 219.479132 
L 351.586923 218.953622 
L 353.507198 218.358043 
L 353.987267 218.112804 
L 355.427473 216.95668 
L 355.907542 216.851578 
L 356.86768 216.080829 
L 357.347749 216.01076 
L 357.827818 215.240011 
L 358.307886 215.029807 
L 358.787955 214.644432 
L 359.268024 214.574364 
L 360.228162 213.978785 
L 361.188299 213.663478 
L 361.668368 213.313138 
L 362.148437 213.137967 
L 363.588644 212.12198 
L 365.508919 211.105992 
L 365.988988 211.035924 
L 367.429194 210.300209 
L 367.909263 209.494425 
L 368.869401 208.793744 
L 369.349469 208.688642 
L 370.309607 208.093063 
L 370.789676 207.987961 
L 371.749814 207.497484 
L 373.670089 206.551564 
L 374.150158 206.201223 
L 375.110295 205.255304 
L 376.070433 204.659725 
L 376.550502 204.344418 
L 377.030571 203.818907 
L 378.950846 202.487613 
L 379.430915 201.927068 
L 379.910984 201.541693 
L 380.871121 201.191353 
L 381.831259 200.56074 
L 383.271465 199.825024 
L 383.751534 199.754956 
L 385.191741 198.984207 
L 386.151878 198.388628 
L 390.952567 196.636925 
L 391.432636 196.25155 
L 393.352911 195.515835 
L 393.83298 195.375699 
L 394.793117 194.745085 
L 395.753255 194.324677 
L 396.713393 193.65903 
L 397.67353 191.732156 
L 398.633668 190.611066 
L 400.073874 189.875351 
L 401.034012 189.489976 
L 401.514081 189.419908 
L 401.99415 189.139636 
L 404.394494 188.368886 
L 404.874563 188.158682 
L 405.8347 187.493035 
L 407.274907 186.862422 
L 408.235044 186.336911 
L 408.715113 185.98657 
L 409.195182 185.776366 
L 409.675251 185.426025 
L 410.15532 184.900514 
L 411.115457 184.375003 
L 413.515802 183.078743 
L 416.396215 181.642347 
L 417.836421 181.221938 
L 419.276627 180.661393 
L 419.756696 180.311052 
L 420.716834 180.03078 
L 421.676972 179.645405 
L 422.15704 179.260031 
L 424.077316 178.594383 
L 425.037453 177.893702 
L 425.997591 177.508328 
L 426.957729 176.772612 
L 427.917866 176.422272 
L 428.397935 176.001863 
L 428.878004 175.931795 
L 429.838142 175.19608 
L 430.798279 174.705603 
L 431.278348 174.495398 
L 431.758417 174.004921 
L 435.118899 172.673627 
L 436.079036 172.253218 
L 437.519243 171.797776 
L 438.479381 171.657639 
L 438.959449 171.447435 
L 439.439518 171.377367 
L 440.399656 170.956958 
L 440.879725 170.921924 
L 442.8 170.186209 
L 444.240206 169.170221 
L 444.720275 168.995051 
L 445.680413 168.46954 
L 446.160482 168.329404 
L 449.040895 166.717837 
L 449.520964 166.612735 
L 450.96117 165.771917 
L 452.401377 165.28144 
L 453.361514 164.966134 
L 455.28179 164.335521 
L 456.241927 164.020214 
L 458.162202 163.634839 
L 458.642271 163.424635 
L 459.12234 163.354567 
L 460.082478 162.934158 
L 460.562547 162.86409 
L 461.042615 162.618852 
L 462.002753 162.443681 
L 463.44296 161.91817 
L 464.403097 161.813068 
L 465.843304 161.497762 
L 468.243648 161.077353 
L 480.725437 157.433811 
L 481.205506 156.943334 
L 482.165644 156.557959 
L 486.006194 155.121563 
L 486.486263 154.84129 
L 487.92647 154.420881 
L 488.886607 154.175643 
L 489.366676 153.860336 
L 489.846745 153.755234 
L 490.326814 153.334826 
L 491.76702 153.054553 
L 492.727158 152.59911 
L 493.207227 152.038565 
L 495.127502 151.583122 
L 498.487984 150.882441 
L 498.968053 150.882441 
L 499.448122 150.672237 
L 501.368397 150.321896 
L 501.848466 150.111692 
L 503.768741 149.761351 
L 504.728879 149.340943 
L 505.689016 149.165772 
L 508.08936 148.570193 
L 510.009636 147.974614 
L 510.489705 147.869512 
L 510.969773 147.624274 
L 511.929911 147.379035 
L 512.40998 147.098763 
L 513.850186 146.608286 
L 514.330255 146.292979 
L 515.290393 146.012707 
L 519.130944 144.681412 
L 520.091081 144.611344 
L 522.011356 144.050799 
L 522.491425 143.770527 
L 523.451563 143.490254 
L 525.851907 142.404199 
L 526.331976 142.369164 
L 531.612733 140.512359 
L 534.013077 139.881746 
L 534.973215 139.426303 
L 536.413421 139.110997 
L 538.333697 137.534464 
L 539.293834 137.254192 
L 539.773903 136.868817 
L 542.654316 135.782761 
L 543.134385 135.467454 
L 544.094523 135.187182 
L 544.574591 134.871875 
L 546.974935 134.101126 
L 548.415142 133.260309 
L 548.895211 133.155206 
L 551.295555 131.858946 
L 552.735761 131.228333 
L 553.21583 130.877992 
L 554.175968 130.562686 
L 555.136106 130.002141 
L 555.616174 129.826971 
L 556.096243 129.47663 
L 562.337138 127.269484 
L 562.817207 127.164382 
L 563.297276 126.849075 
L 565.217551 126.463701 
L 566.177689 126.078326 
L 569.058102 124.676964 
L 569.53817 124.606896 
L 570.978377 123.801112 
L 572.418583 123.310635 
L 575.779065 121.944307 
L 576.259134 121.804171 
L 576.739203 121.488864 
L 577.69934 121.383762 
L 578.179409 121.068455 
L 579.139547 120.893285 
L 580.099685 120.437842 
L 580.579753 120.227638 
L 581.059822 120.15757 
L 583.460166 119.21165 
L 584.900373 118.826276 
L 585.86051 118.581037 
L 587.300717 118.160628 
L 588.260855 117.775254 
L 590.18113 116.724232 
L 591.141268 116.338857 
L 591.621336 116.023551 
L 592.581474 115.813346 
L 593.061543 115.533074 
L 593.541612 115.427972 
L 594.981818 114.622188 
L 595.941956 114.236814 
L 597.862231 113.501098 
L 600.262575 112.695315 
L 601.222713 112.204838 
L 603.623057 111.399055 
L 606.50347 110.242931 
L 608.423745 109.367079 
L 613.224434 107.510274 
L 613.704502 107.194967 
L 615.624778 106.52932 
L 616.104847 106.52932 
L 617.064984 106.108911 
L 618.98526 104.567413 
L 619.465328 104.427277 
L 619.945397 104.11197 
L 620.425466 104.006868 
L 620.905535 103.761629 
L 621.385604 103.691561 
L 621.865672 103.341221 
L 622.345741 103.236118 
L 623.305879 102.640539 
L 624.746085 101.904824 
L 625.706223 101.519449 
L 626.186292 101.274211 
L 627.626498 100.958904 
L 630.026843 100.153121 
L 630.98698 99.837815 
L 632.427187 99.102099 
L 633.387324 98.646656 
L 634.347462 98.401418 
L 635.787668 97.735771 
L 640.108288 96.159238 
L 641.548494 95.283387 
L 642.028563 95.178284 
L 642.988701 94.722842 
L 643.948839 94.372501 
L 644.428907 93.952092 
L 645.389045 93.566718 
L 648.269458 92.410594 
L 649.709664 91.990185 
L 650.189733 91.744946 
L 650.669802 91.674878 
L 652.110009 91.149367 
L 653.550215 90.623857 
L 654.510353 90.238482 
L 654.990422 89.853107 
L 656.430628 89.467733 
L 656.910697 89.18746 
L 657.870835 88.942222 
L 659.311041 88.136438 
L 659.79111 88.101404 
L 661.231316 87.645961 
L 662.191454 87.575893 
L 663.151592 87.190519 
L 666.032005 86.349701 
L 666.992142 86.314667 
L 670.832693 85.088475 
L 671.792831 84.562964 
L 672.272899 84.142555 
L 673.713106 83.301738 
L 674.193175 82.951397 
L 675.153312 82.601057 
L 677.553656 81.830307 
L 678.033725 81.444933 
L 680.914138 80.253775 
L 682.834414 79.728264 
L 683.794551 79.307855 
L 684.27462 79.062616 
L 685.234758 78.782344 
L 685.714826 78.502071 
L 686.674964 78.326901 
L 689.075308 77.205811 
L 689.555377 76.925539 
L 690.995584 76.575198 
L 691.475652 76.259892 
L 691.955721 76.084721 
L 692.43579 75.664313 
L 692.915859 75.594244 
L 694.836134 74.823495 
L 696.75641 74.368052 
L 697.236478 74.297984 
L 697.716547 74.08778 
L 698.196616 74.052746 
L 699.156754 73.737439 
L 699.636822 73.702405 
L 701.077029 73.14186 
L 702.997304 72.581315 
L 703.957442 71.8456 
L 705.877717 70.794578 
L 707.317924 70.304101 
L 710.198337 69.007841 
L 711.158474 68.48233 
L 711.638543 68.237092 
L 712.118612 67.781649 
L 714.999025 66.835729 
L 715.959163 66.450355 
L 716.9193 66.205116 
L 717.399369 65.959878 
L 717.879438 65.539469 
L 719.799713 65.048992 
L 720.279782 64.698651 
L 726.520677 62.456472 
L 727.480814 62.281301 
L 731.801434 60.774837 
L 732.761572 60.529598 
L 733.24164 60.319394 
L 733.721709 60.28436 
L 734.681847 59.898985 
L 735.641985 59.303406 
L 736.122053 59.128236 
L 736.602122 59.093202 
L 738.042329 58.462589 
L 739.482535 57.937078 
L 739.962604 57.86701 
L 740.922742 57.481635 
L 742.362948 57.166328 
L 743.803155 56.710886 
L 744.283223 56.605783 
L 744.763292 56.255443 
L 745.72343 56.045238 
L 746.683568 55.8 
L 747.163636 55.8 
L 747.163636 55.8 
" clip-path="url(#pccf83f43de)" style="fill: none; stroke: #1f77b4; stroke-width: 1.5; stroke-linecap: square"/>
   </g>
   <g id="line2d_38">
    <path d="M 138.916432 307.8 
L 143.237052 307.694898 
L 147.077603 307.519728 
L 148.997878 307.519728 
L 149.477947 307.379591 
L 151.878291 307.274489 
L 154.758704 306.959183 
L 157.639117 306.85408 
L 158.599254 306.748978 
L 161.959736 306.608842 
L 165.320218 306.50374 
L 167.720562 306.433672 
L 173.961457 306.328569 
L 176.361801 306.258501 
L 179.722283 306.153399 
L 182.122627 306.083331 
L 187.403384 305.978229 
L 189.323659 305.803059 
L 191.243935 305.768024 
L 194.124348 305.662922 
L 196.044623 305.627888 
L 198.444967 305.55782 
L 200.365242 305.38265 
L 204.685862 305.277548 
L 205.645999 305.207479 
L 207.566275 305.102377 
L 210.446688 304.997275 
L 212.366963 304.892173 
L 221.008202 304.366662 
L 224.368684 304.26156 
L 225.80889 304.121424 
L 228.209234 304.016321 
L 233.009923 303.771083 
L 237.810611 303.701015 
L 239.730886 303.490811 
L 241.651161 303.385708 
L 246.931919 302.895231 
L 250.2924 302.509857 
L 251.732607 302.439789 
L 255.573157 301.949312 
L 258.45357 301.879244 
L 259.893777 301.739107 
L 261.333983 301.634005 
L 274.775911 300.618018 
L 275.736048 300.442847 
L 278.616461 300.337745 
L 286.297562 299.882302 
L 289.658044 299.7772 
L 291.578319 299.566996 
L 293.978664 299.461894 
L 296.859077 299.356791 
L 299.259421 299.251689 
L 301.179696 299.216655 
L 303.58004 299.146587 
L 304.540178 299.006451 
L 311.261141 298.901349 
L 312.221279 298.796246 
L 317.982105 298.691144 
L 322.302724 298.48094 
L 325.663206 298.375838 
L 327.583482 298.165633 
L 330.943963 298.060531 
L 331.904101 297.885361 
L 334.304445 297.815293 
L 339.105133 297.745225 
L 341.025409 297.570054 
L 342.945684 297.53502 
L 344.38589 297.429918 
L 346.306166 297.254748 
L 351.106854 297.009509 
L 355.907542 296.904407 
L 360.228162 296.694203 
L 361.668368 296.659169 
L 362.628506 296.519032 
L 365.02885 296.41393 
L 365.988988 296.343862 
L 366.949125 296.273794 
L 367.909263 296.203726 
L 372.229882 296.133658 
L 373.670089 296.028556 
L 386.631947 295.187738 
L 389.032291 295.082636 
L 391.432636 295.012568 
L 398.153599 294.907466 
L 399.113737 294.767329 
L 405.8347 294.662227 
L 410.635389 294.416989 
L 411.595526 294.381955 
L 412.555664 294.276852 
L 414.956008 294.17175 
L 417.356352 294.101682 
L 419.756696 293.99658 
L 422.15704 293.926512 
L 426.47766 293.82141 
L 429.358073 293.716308 
L 436.079036 293.611205 
L 441.359794 293.330933 
L 443.280069 293.260865 
L 444.720275 293.155763 
L 451.441239 293.05066 
L 454.321652 292.945558 
L 462.962891 292.840456 
L 464.883166 292.805422 
L 470.643992 292.735354 
L 471.60413 292.665286 
L 478.325093 292.560184 
L 480.245369 292.525149 
L 492.727158 292.420047 
L 494.167364 292.279911 
L 515.770462 292.174809 
L 518.170806 292.104741 
L 530.652595 292.034673 
L 531.612733 291.964604 
L 534.013077 291.894536 
L 535.453284 291.7544 
L 538.333697 291.649298 
L 541.694178 291.509162 
L 546.014798 291.40406 
L 548.415142 291.333991 
L 551.775624 291.228889 
L 555.616174 291.053719 
L 558.016518 290.948617 
L 559.936794 290.913583 
L 564.257413 290.80848 
L 566.177689 290.773446 
L 572.418583 290.668344 
L 574.338859 290.63331 
L 576.739203 290.528208 
L 579.619616 290.423106 
L 582.980098 290.353038 
L 583.940235 290.28297 
L 595.461887 290.177867 
L 601.702782 289.827527 
L 604.103126 289.757459 
L 605.063264 289.652356 
L 606.023401 289.582288 
L 609.863952 289.477186 
L 612.744365 289.372084 
L 617.545053 289.266982 
L 619.945397 289.021743 
L 624.746085 288.916641 
L 625.706223 288.811539 
L 630.506911 288.706437 
L 632.907256 288.636369 
L 638.188013 288.601335 
L 639.14815 288.496232 
L 644.428907 288.39113 
L 645.389045 288.321062 
L 655.950559 288.21596 
L 658.830972 288.110858 
L 666.032005 288.005756 
L 667.95228 287.970722 
L 672.272899 287.900653 
L 673.233037 287.795551 
L 679.473932 287.690449 
L 681.874276 287.620381 
L 690.515515 287.515279 
L 691.955721 287.410177 
L 693.395928 287.305074 
L 694.836134 287.199972 
L 702.037167 287.09487 
L 704.91758 286.989768 
L 717.879438 286.884666 
L 722.200057 286.674461 
L 727.960883 286.569359 
L 728.921021 286.499291 
L 736.122053 286.429223 
L 737.082191 286.359155 
L 742.362948 286.254053 
L 744.763292 286.183984 
L 747.163636 286.183984 
L 747.163636 286.183984 
" clip-path="url(#pccf83f43de)" style="fill: none; stroke: #ff7f0e; stroke-width: 1.5; stroke-linecap: square"/>
   </g>
   <g id="patch_3">
    <path d="M 108 320.4 
L 108 43.2 
" style="fill: none; stroke: #a9a9a9; stroke-width: 0.8; stroke-linejoin: miter; stroke-linecap: square"/>
   </g>
   <g id="patch_4">
    <path d="M 777.6 320.4 
L 777.6 43.2 
" style="fill: none"/>
   </g>
   <g id="patch_5">
    <path d="M 108 320.4 
L 777.6 320.4 
" style="fill: none; stroke: #a9a9a9; stroke-width: 0.8; stroke-linejoin: miter; stroke-linecap: square"/>
   </g>
   <g id="patch_6">
    <path d="M 108 43.2 
L 777.6 43.2 
" style="fill: none"/>
   </g>
   <g id="text_19">
    <!-- get_subscribe history -->
    <g style="fill: #a9a9a9" transform="translate(378.6075 37.2) scale(0.12 -0.12)">
     <defs>
      <path id="DejaVuSans-67" d="M 2906 1791 
Q 2906 2416 2648 2759 
Q 2391 3103 1925 3103 
Q 1463 3103 1205 2759 
Q 947 2416 947 1791 
Q 947 1169 1205 825 
Q 1463 481 1925 481 
Q 2391 481 2648 825 
Q 2906 1169 2906 1791 
z
M 3481 434 
Q 3481 -459 3084 -895 
Q 2688 -1331 1869 -1331 
Q 1566 -1331 1297 -1286 
Q 1028 -1241 775 -1147 
L 775 -588 
Q 1028 -725 1275 -790 
Q 1522 -856 1778 -856 
Q 2344 -856 2625 -561 
Q 2906 -266 2906 331 
L 2906 616 
Q 2728 306 2450 153 
Q 2172 0 1784 0 
Q 1141 0 747 490 
Q 353 981 353 1791 
Q 353 2603 747 3093 
Q 1141 3584 1784 3584 
Q 2172 3584 2450 3431 
Q 2728 3278 2906 2969 
L 2906 3500 
L 3481 3500 
L 3481 434 
z
" transform="scale(0.015625)"/>
      <path id="DejaVuSans-65" d="M 3597 1894 
L 3597 1613 
L 953 1613 
Q 991 1019 1311 708 
Q 1631 397 2203 397 
Q 2534 397 2845 478 
Q 3156 559 3463 722 
L 3463 178 
Q 3153 47 2828 -22 
Q 2503 -91 2169 -91 
Q 1331 -91 842 396 
Q 353 884 353 1716 
Q 353 2575 817 3079 
Q 1281 3584 2069 3584 
Q 2775 3584 3186 3129 
Q 3597 2675 3597 1894 
z
M 3022 2063 
Q 3016 2534 2758 2815 
Q 2500 3097 2075 3097 
Q 1594 3097 1305 2825 
Q 1016 2553 972 2059 
L 3022 2063 
z
" transform="scale(0.015625)"/>
      <path id="DejaVuSans-74" d="M 1172 4494 
L 1172 3500 
L 2356 3500 
L 2356 3053 
L 1172 3053 
L 1172 1153 
Q 1172 725 1289 603 
Q 1406 481 1766 481 
L 2356 481 
L 2356 0 
L 1766 0 
Q 1100 0 847 248 
Q 594 497 594 1153 
L 594 3053 
L 172 3053 
L 172 3500 
L 594 3500 
L 594 4494 
L 1172 4494 
z
" transform="scale(0.015625)"/>
      <path id="DejaVuSans-5f" d="M 3263 -1063 
L 3263 -1509 
L -63 -1509 
L -63 -1063 
L 3263 -1063 
z
" transform="scale(0.015625)"/>
      <path id="DejaVuSans-73" d="M 2834 3397 
L 2834 2853 
Q 2591 2978 2328 3040 
Q 2066 3103 1784 3103 
Q 1356 3103 1142 2972 
Q 928 2841 928 2578 
Q 928 2378 1081 2264 
Q 1234 2150 1697 2047 
L 1894 2003 
Q 2506 1872 2764 1633 
Q 3022 1394 3022 966 
Q 3022 478 2636 193 
Q 2250 -91 1575 -91 
Q 1294 -91 989 -36 
Q 684 19 347 128 
L 347 722 
Q 666 556 975 473 
Q 1284 391 1588 391 
Q 1994 391 2212 530 
Q 2431 669 2431 922 
Q 2431 1156 2273 1281 
Q 2116 1406 1581 1522 
L 1381 1569 
Q 847 1681 609 1914 
Q 372 2147 372 2553 
Q 372 3047 722 3315 
Q 1072 3584 1716 3584 
Q 2034 3584 2315 3537 
Q 2597 3491 2834 3397 
z
" transform="scale(0.015625)"/>
      <path id="DejaVuSans-75" d="M 544 1381 
L 544 3500 
L 1119 3500 
L 1119 1403 
Q 1119 906 1312 657 
Q 1506 409 1894 409 
Q 2359 409 2629 706 
Q 2900 1003 2900 1516 
L 2900 3500 
L 3475 3500 
L 3475 0 
L 2900 0 
L 2900 538 
Q 2691 219 2414 64 
Q 2138 -91 1772 -91 
Q 1169 -91 856 284 
Q 544 659 544 1381 
z
M 1991 3584 
L 1991 3584 
z
" transform="scale(0.015625)"/>
      <path id="DejaVuSans-62" d="M 3116 1747 
Q 3116 2381 2855 2742 
Q 2594 3103 2138 3103 
Q 1681 3103 1420 2742 
Q 1159 2381 1159 1747 
Q 1159 1113 1420 752 
Q 1681 391 2138 391 
Q 2594 391 2855 752 
Q 3116 1113 3116 1747 
z
M 1159 2969 
Q 1341 3281 1617 3432 
Q 1894 3584 2278 3584 
Q 2916 3584 3314 3078 
Q 3713 2572 3713 1747 
Q 3713 922 3314 415 
Q 2916 -91 2278 -91 
Q 1894 -91 1617 61 
Q 1341 213 1159 525 
L 1159 0 
L 581 0 
L 581 4863 
L 1159 4863 
L 1159 2969 
z
" transform="scale(0.015625)"/>
      <path id="DejaVuSans-63" d="M 3122 3366 
L 3122 2828 
Q 2878 2963 2633 3030 
Q 2388 3097 2138 3097 
Q 1578 3097 1268 2742 
Q 959 2388 959 1747 
Q 959 1106 1268 751 
Q 1578 397 2138 397 
Q 2388 397 2633 464 
Q 2878 531 3122 666 
L 3122 134 
Q 2881 22 2623 -34 
Q 2366 -91 2075 -91 
Q 1284 -91 818 406 
Q 353 903 353 1747 
Q 353 2603 823 3093 
Q 1294 3584 2113 3584 
Q 2378 3584 2631 3529 
Q 2884 3475 3122 3366 
z
" transform="scale(0.015625)"/>
      <path id="DejaVuSans-72" d="M 2631 2963 
Q 2534 3019 2420 3045 
Q 2306 3072 2169 3072 
Q 1681 3072 1420 2755 
Q 1159 2438 1159 1844 
L 1159 0 
L 581 0 
L 581 3500 
L 1159 3500 
L 1159 2956 
Q 1341 3275 1631 3429 
Q 1922 3584 2338 3584 
Q 2397 3584 2469 3576 
Q 2541 3569 2628 3553 
L 2631 2963 
z
" transform="scale(0.015625)"/>
      <path id="DejaVuSans-69" d="M 603 3500 
L 1178 3500 
L 1178 0 
L 603 0 
L 603 3500 
z
M 603 4863 
L 1178 4863 
L 1178 4134 
L 603 4134 
L 603 4863 
z
" transform="scale(0.015625)"/>
      <path id="DejaVuSans-20" transform="scale(0.015625)"/>
      <path id="DejaVuSans-68" d="M 3513 2113 
L 3513 0 
L 2938 0 
L 2938 2094 
Q 2938 2591 2744 2837 
Q 2550 3084 2163 3084 
Q 1697 3084 1428 2787 
Q 1159 2491 1159 1978 
L 1159 0 
L 581 0 
L 581 4863 
L 1159 4863 
L 1159 2956 
Q 1366 3272 1645 3428 
Q 1925 3584 2291 3584 
Q 2894 3584 3203 3211 
Q 3513 2838 3513 2113 
z
" transform="scale(0.015625)"/>
      <path id="DejaVuSans-6f" d="M 1959 3097 
Q 1497 3097 1228 2736 
Q 959 2375 959 1747 
Q 959 1119 1226 758 
Q 1494 397 1959 397 
Q 2419 397 2687 759 
Q 2956 1122 2956 1747 
Q 2956 2369 2687 2733 
Q 2419 3097 1959 3097 
z
M 1959 3584 
Q 2709 3584 3137 3096 
Q 3566 2609 3566 1747 
Q 3566 888 3137 398 
Q 2709 -91 1959 -91 
Q 1206 -91 779 398 
Q 353 888 353 1747 
Q 353 2609 779 3096 
Q 1206 3584 1959 3584 
z
" transform="scale(0.015625)"/>
      <path id="DejaVuSans-79" d="M 2059 -325 
Q 1816 -950 1584 -1140 
Q 1353 -1331 966 -1331 
L 506 -1331 
L 506 -850 
L 844 -850 
Q 1081 -850 1212 -737 
Q 1344 -625 1503 -206 
L 1606 56 
L 191 3500 
L 800 3500 
L 1894 763 
L 2988 3500 
L 3597 3500 
L 2059 -325 
z
" transform="scale(0.015625)"/>
     </defs>
     <use xlink:href="#DejaVuSans-67"/>
     <use xlink:href="#DejaVuSans-65" transform="translate(63.476562 0)"/>
     <use xlink:href="#DejaVuSans-74" transform="translate(125 0)"/>
     <use xlink:href="#DejaVuSans-5f" transform="translate(164.208984 0)"/>
     <use xlink:href="#DejaVuSans-73" transform="translate(214.208984 0)"/>
     <use xlink:href="#DejaVuSans-75" transform="translate(266.308594 0)"/>
     <use xlink:href="#DejaVuSans-62" transform="translate(329.6875 0)"/>
     <use xlink:href="#DejaVuSans-73" transform="translate(393.164062 0)"/>
     <use xlink:href="#DejaVuSans-63" transform="translate(445.263672 0)"/>
     <use xlink:href="#DejaVuSans-72" transform="translate(500.244141 0)"/>
     <use xlink:href="#DejaVuSans-69" transform="translate(541.357422 0)"/>
     <use xlink:href="#DejaVuSans-62" transform="translate(569.140625 0)"/>
     <use xlink:href="#DejaVuSans-65" transform="translate(632.617188 0)"/>
     <use xlink:href="#DejaVuSans-20" transform="translate(694.140625 0)"/>
     <use xlink:href="#DejaVuSans-68" transform="translate(725.927734 0)"/>
     <use xlink:href="#DejaVuSans-69" transform="translate(789.306641 0)"/>
     <use xlink:href="#DejaVuSans-73" transform="translate(817.089844 0)"/>
     <use xlink:href="#DejaVuSans-74" transform="translate(869.189453 0)"/>
     <use xlink:href="#DejaVuSans-6f" transform="translate(908.398438 0)"/>
     <use xlink:href="#DejaVuSans-72" transform="translate(969.580078 0)"/>
     <use xlink:href="#DejaVuSans-79" transform="translate(1010.693359 0)"/>
    </g>
   </g>
   <g id="legend_1">
    <g id="line2d_39">
     <path d="M 815.08 328.498438 
L 825.08 328.498438 
L 835.08 328.498438 
" style="fill: none; stroke: #1f77b4; stroke-width: 1.5; stroke-linecap: square"/>
    </g>
    <g id="text_20">
     <!-- star -->
     <g style="fill: #a9a9a9" transform="translate(843.08 331.998438) scale(0.1 -0.1)">
      <defs>
       <path id="DejaVuSans-61" d="M 2194 1759 
Q 1497 1759 1228 1600 
Q 959 1441 959 1056 
Q 959 750 1161 570 
Q 1363 391 1709 391 
Q 2188 391 2477 730 
Q 2766 1069 2766 1631 
L 2766 1759 
L 2194 1759 
z
M 3341 1997 
L 3341 0 
L 2766 0 
L 2766 531 
Q 2569 213 2275 61 
Q 1981 -91 1556 -91 
Q 1019 -91 701 211 
Q 384 513 384 1019 
Q 384 1609 779 1909 
Q 1175 2209 1959 2209 
L 2766 2209 
L 2766 2266 
Q 2766 2663 2505 2880 
Q 2244 3097 1772 3097 
Q 1472 3097 1187 3025 
Q 903 2953 641 2809 
L 641 3341 
Q 956 3463 1253 3523 
Q 1550 3584 1831 3584 
Q 2591 3584 2966 3190 
Q 3341 2797 3341 1997 
z
" transform="scale(0.015625)"/>
      </defs>
      <use xlink:href="#DejaVuSans-73"/>
      <use xlink:href="#DejaVuSans-74" transform="translate(52.099609 0)"/>
      <use xlink:href="#DejaVuSans-61" transform="translate(91.308594 0)"/>
      <use xlink:href="#DejaVuSans-72" transform="translate(152.587891 0)"/>
     </g>
    </g>
    <g id="line2d_40">
     <path d="M 815.08 343.176562 
L 825.08 343.176562 
L 835.08 343.176562 
" style="fill: none; stroke: #ff7f0e; stroke-width: 1.5; stroke-linecap: square"/>
    </g>
    <g id="text_21">
     <!-- fork -->
     <g style="fill: #a9a9a9" transform="translate(843.08 346.676562) scale(0.1 -0.1)">
      <defs>
       <path id="DejaVuSans-66" d="M 2375 4863 
L 2375 4384 
L 1825 4384 
Q 1516 4384 1395 4259 
Q 1275 4134 1275 3809 
L 1275 3500 
L 2222 3500 
L 2222 3053 
L 1275 3053 
L 1275 0 
L 697 0 
L 697 3053 
L 147 3053 
L 147 3500 
L 697 3500 
L 697 3744 
Q 697 4328 969 4595 
Q 1241 4863 1831 4863 
L 2375 4863 
z
" transform="scale(0.015625)"/>
       <path id="DejaVuSans-6b" d="M 581 4863 
L 1159 4863 
L 1159 1991 
L 2875 3500 
L 3609 3500 
L 1753 1863 
L 3688 0 
L 2938 0 
L 1159 1709 
L 1159 0 
L 581 0 
L 581 4863 
z
" transform="scale(0.015625)"/>
      </defs>
      <use xlink:href="#DejaVuSans-66"/>
      <use xlink:href="#DejaVuSans-6f" transform="translate(35.205078 0)"/>
      <use xlink:href="#DejaVuSans-72" transform="translate(96.386719 0)"/>
      <use xlink:href="#DejaVuSans-6b" transform="translate(137.5 0)"/>
     </g>
    </g>
   </g>
  </g>
 </g>
 <defs>
  <clipPath id="pccf83f43de">
   <rect x="108" y="43.2" width="669.6" height="277.2"/>
  </clipPath>
 </defs>
</svg>
