<?xml version="1.0" encoding="utf-8" standalone="no"?>
<!DOCTYPE svg PUBLIC "-//W3C//DTD SVG 1.1//EN"
  "http://www.w3.org/Graphics/SVG/1.1/DTD/svg11.dtd">
<svg xmlns:xlink="http://www.w3.org/1999/xlink" width="864pt" height="360pt" viewBox="0 0 864 360" xmlns="http://www.w3.org/2000/svg" version="1.1">
 <metadata>
  <rdf:RDF xmlns:dc="http://purl.org/dc/elements/1.1/" xmlns:cc="http://creativecommons.org/ns#" xmlns:rdf="http://www.w3.org/1999/02/22-rdf-syntax-ns#">
   <cc:Work>
    <dc:type rdf:resource="http://purl.org/dc/dcmitype/StillImage"/>
    <dc:date>2025-01-10T08:14:51.935824</dc:date>
    <dc:format>image/svg+xml</dc:format>
    <dc:creator>
     <cc:Agent>
      <dc:title>Matplotlib v3.10.0, https://matplotlib.org/</dc:title>
     </cc:Agent>
    </dc:creator>
   </cc:Work>
  </rdf:RDF>
 </metadata>
 <defs>
  <style type="text/css">*{stroke-linejoin: round; stroke-linecap: butt}</style>
 </defs>
 <g id="figure_1">
  <g id="patch_1">
   <path d="M 0 360 
L 864 360 
L 864 0 
L 0 0 
L 0 360 
z
" style="fill: none; opacity: 0"/>
  </g>
  <g id="axes_1">
   <g id="patch_2">
    <path d="M 108 320.4 
L 777.6 320.4 
L 777.6 43.2 
L 108 43.2 
L 108 320.4 
z
" style="fill: none; opacity: 0"/>
   </g>
   <g id="matplotlib.axis_1">
    <g id="xtick_1">
     <g id="line2d_1">
      <path d="M 127.377337 320.4 
L 127.377337 43.2 
" clip-path="url(#pf178699ae3)" style="fill: none; stroke-dasharray: 5.12,1.28,0.8,1.28; stroke-dashoffset: 0; stroke: #b0b0b0; stroke-width: 0.8"/>
     </g>
     <g id="line2d_2">
      <defs>
       <path id="m2b7801017e" d="M 0 0 
L 0 3.5 
" style="stroke: #a9a9a9; stroke-width: 0.8"/>
      </defs>
      <g>
       <use xlink:href="#m2b7801017e" x="127.377337" y="320.4" style="fill: #a9a9a9; stroke: #a9a9a9; stroke-width: 0.8"/>
      </g>
     </g>
     <g id="text_1">
      <!-- 2021-07 -->
      <g style="fill: #a9a9a9" transform="translate(106.485931 334.998438) scale(0.1 -0.1)">
       <defs>
        <path id="DejaVuSans-32" d="M 1228 531 
L 3431 531 
L 3431 0 
L 469 0 
L 469 531 
Q 828 903 1448 1529 
Q 2069 2156 2228 2338 
Q 2531 2678 2651 2914 
Q 2772 3150 2772 3378 
Q 2772 3750 2511 3984 
Q 2250 4219 1831 4219 
Q 1534 4219 1204 4116 
Q 875 4013 500 3803 
L 500 4441 
Q 881 4594 1212 4672 
Q 1544 4750 1819 4750 
Q 2544 4750 2975 4387 
Q 3406 4025 3406 3419 
Q 3406 3131 3298 2873 
Q 3191 2616 2906 2266 
Q 2828 2175 2409 1742 
Q 1991 1309 1228 531 
z
" transform="scale(0.015625)"/>
        <path id="DejaVuSans-30" d="M 2034 4250 
Q 1547 4250 1301 3770 
Q 1056 3291 1056 2328 
Q 1056 1369 1301 889 
Q 1547 409 2034 409 
Q 2525 409 2770 889 
Q 3016 1369 3016 2328 
Q 3016 3291 2770 3770 
Q 2525 4250 2034 4250 
z
M 2034 4750 
Q 2819 4750 3233 4129 
Q 3647 3509 3647 2328 
Q 3647 1150 3233 529 
Q 2819 -91 2034 -91 
Q 1250 -91 836 529 
Q 422 1150 422 2328 
Q 422 3509 836 4129 
Q 1250 4750 2034 4750 
z
" transform="scale(0.015625)"/>
        <path id="DejaVuSans-31" d="M 794 531 
L 1825 531 
L 1825 4091 
L 703 3866 
L 703 4441 
L 1819 4666 
L 2450 4666 
L 2450 531 
L 3481 531 
L 3481 0 
L 794 0 
L 794 531 
z
" transform="scale(0.015625)"/>
        <path id="DejaVuSans-2d" d="M 313 2009 
L 1997 2009 
L 1997 1497 
L 313 1497 
L 313 2009 
z
" transform="scale(0.015625)"/>
        <path id="DejaVuSans-37" d="M 525 4666 
L 3525 4666 
L 3525 4397 
L 1831 0 
L 1172 0 
L 2766 4134 
L 525 4134 
L 525 4666 
z
" transform="scale(0.015625)"/>
       </defs>
       <use xlink:href="#DejaVuSans-32"/>
       <use xlink:href="#DejaVuSans-30" transform="translate(63.623047 0)"/>
       <use xlink:href="#DejaVuSans-32" transform="translate(127.246094 0)"/>
       <use xlink:href="#DejaVuSans-31" transform="translate(190.869141 0)"/>
       <use xlink:href="#DejaVuSans-2d" transform="translate(254.492188 0)"/>
       <use xlink:href="#DejaVuSans-30" transform="translate(290.576172 0)"/>
       <use xlink:href="#DejaVuSans-37" transform="translate(354.199219 0)"/>
      </g>
     </g>
    </g>
    <g id="xtick_2">
     <g id="line2d_3">
      <path d="M 215.849548 320.4 
L 215.849548 43.2 
" clip-path="url(#pf178699ae3)" style="fill: none; stroke-dasharray: 5.12,1.28,0.8,1.28; stroke-dashoffset: 0; stroke: #b0b0b0; stroke-width: 0.8"/>
     </g>
     <g id="line2d_4">
      <g>
       <use xlink:href="#m2b7801017e" x="215.849548" y="320.4" style="fill: #a9a9a9; stroke: #a9a9a9; stroke-width: 0.8"/>
      </g>
     </g>
     <g id="text_2">
      <!-- 2022-01 -->
      <g style="fill: #a9a9a9" transform="translate(194.958141 334.998438) scale(0.1 -0.1)">
       <use xlink:href="#DejaVuSans-32"/>
       <use xlink:href="#DejaVuSans-30" transform="translate(63.623047 0)"/>
       <use xlink:href="#DejaVuSans-32" transform="translate(127.246094 0)"/>
       <use xlink:href="#DejaVuSans-32" transform="translate(190.869141 0)"/>
       <use xlink:href="#DejaVuSans-2d" transform="translate(254.492188 0)"/>
       <use xlink:href="#DejaVuSans-30" transform="translate(290.576172 0)"/>
       <use xlink:href="#DejaVuSans-31" transform="translate(354.199219 0)"/>
      </g>
     </g>
    </g>
    <g id="xtick_3">
     <g id="line2d_5">
      <path d="M 302.879276 320.4 
L 302.879276 43.2 
" clip-path="url(#pf178699ae3)" style="fill: none; stroke-dasharray: 5.12,1.28,0.8,1.28; stroke-dashoffset: 0; stroke: #b0b0b0; stroke-width: 0.8"/>
     </g>
     <g id="line2d_6">
      <g>
       <use xlink:href="#m2b7801017e" x="302.879276" y="320.4" style="fill: #a9a9a9; stroke: #a9a9a9; stroke-width: 0.8"/>
      </g>
     </g>
     <g id="text_3">
      <!-- 2022-07 -->
      <g style="fill: #a9a9a9" transform="translate(281.98787 334.998438) scale(0.1 -0.1)">
       <use xlink:href="#DejaVuSans-32"/>
       <use xlink:href="#DejaVuSans-30" transform="translate(63.623047 0)"/>
       <use xlink:href="#DejaVuSans-32" transform="translate(127.246094 0)"/>
       <use xlink:href="#DejaVuSans-32" transform="translate(190.869141 0)"/>
       <use xlink:href="#DejaVuSans-2d" transform="translate(254.492188 0)"/>
       <use xlink:href="#DejaVuSans-30" transform="translate(290.576172 0)"/>
       <use xlink:href="#DejaVuSans-37" transform="translate(354.199219 0)"/>
      </g>
     </g>
    </g>
    <g id="xtick_4">
     <g id="line2d_7">
      <path d="M 391.351486 320.4 
L 391.351486 43.2 
" clip-path="url(#pf178699ae3)" style="fill: none; stroke-dasharray: 5.12,1.28,0.8,1.28; stroke-dashoffset: 0; stroke: #b0b0b0; stroke-width: 0.8"/>
     </g>
     <g id="line2d_8">
      <g>
       <use xlink:href="#m2b7801017e" x="391.351486" y="320.4" style="fill: #a9a9a9; stroke: #a9a9a9; stroke-width: 0.8"/>
      </g>
     </g>
     <g id="text_4">
      <!-- 2023-01 -->
      <g style="fill: #a9a9a9" transform="translate(370.46008 334.998438) scale(0.1 -0.1)">
       <defs>
        <path id="DejaVuSans-33" d="M 2597 2516 
Q 3050 2419 3304 2112 
Q 3559 1806 3559 1356 
Q 3559 666 3084 287 
Q 2609 -91 1734 -91 
Q 1441 -91 1130 -33 
Q 819 25 488 141 
L 488 750 
Q 750 597 1062 519 
Q 1375 441 1716 441 
Q 2309 441 2620 675 
Q 2931 909 2931 1356 
Q 2931 1769 2642 2001 
Q 2353 2234 1838 2234 
L 1294 2234 
L 1294 2753 
L 1863 2753 
Q 2328 2753 2575 2939 
Q 2822 3125 2822 3475 
Q 2822 3834 2567 4026 
Q 2313 4219 1838 4219 
Q 1578 4219 1281 4162 
Q 984 4106 628 3988 
L 628 4550 
Q 988 4650 1302 4700 
Q 1616 4750 1894 4750 
Q 2613 4750 3031 4423 
Q 3450 4097 3450 3541 
Q 3450 3153 3228 2886 
Q 3006 2619 2597 2516 
z
" transform="scale(0.015625)"/>
       </defs>
       <use xlink:href="#DejaVuSans-32"/>
       <use xlink:href="#DejaVuSans-30" transform="translate(63.623047 0)"/>
       <use xlink:href="#DejaVuSans-32" transform="translate(127.246094 0)"/>
       <use xlink:href="#DejaVuSans-33" transform="translate(190.869141 0)"/>
       <use xlink:href="#DejaVuSans-2d" transform="translate(254.492188 0)"/>
       <use xlink:href="#DejaVuSans-30" transform="translate(290.576172 0)"/>
       <use xlink:href="#DejaVuSans-31" transform="translate(354.199219 0)"/>
      </g>
     </g>
    </g>
    <g id="xtick_5">
     <g id="line2d_9">
      <path d="M 478.381215 320.4 
L 478.381215 43.2 
" clip-path="url(#pf178699ae3)" style="fill: none; stroke-dasharray: 5.12,1.28,0.8,1.28; stroke-dashoffset: 0; stroke: #b0b0b0; stroke-width: 0.8"/>
     </g>
     <g id="line2d_10">
      <g>
       <use xlink:href="#m2b7801017e" x="478.381215" y="320.4" style="fill: #a9a9a9; stroke: #a9a9a9; stroke-width: 0.8"/>
      </g>
     </g>
     <g id="text_5">
      <!-- 2023-07 -->
      <g style="fill: #a9a9a9" transform="translate(457.489809 334.998438) scale(0.1 -0.1)">
       <use xlink:href="#DejaVuSans-32"/>
       <use xlink:href="#DejaVuSans-30" transform="translate(63.623047 0)"/>
       <use xlink:href="#DejaVuSans-32" transform="translate(127.246094 0)"/>
       <use xlink:href="#DejaVuSans-33" transform="translate(190.869141 0)"/>
       <use xlink:href="#DejaVuSans-2d" transform="translate(254.492188 0)"/>
       <use xlink:href="#DejaVuSans-30" transform="translate(290.576172 0)"/>
       <use xlink:href="#DejaVuSans-37" transform="translate(354.199219 0)"/>
      </g>
     </g>
    </g>
    <g id="xtick_6">
     <g id="line2d_11">
      <path d="M 566.853425 320.4 
L 566.853425 43.2 
" clip-path="url(#pf178699ae3)" style="fill: none; stroke-dasharray: 5.12,1.28,0.8,1.28; stroke-dashoffset: 0; stroke: #b0b0b0; stroke-width: 0.8"/>
     </g>
     <g id="line2d_12">
      <g>
       <use xlink:href="#m2b7801017e" x="566.853425" y="320.4" style="fill: #a9a9a9; stroke: #a9a9a9; stroke-width: 0.8"/>
      </g>
     </g>
     <g id="text_6">
      <!-- 2024-01 -->
      <g style="fill: #a9a9a9" transform="translate(545.962019 334.998438) scale(0.1 -0.1)">
       <defs>
        <path id="DejaVuSans-34" d="M 2419 4116 
L 825 1625 
L 2419 1625 
L 2419 4116 
z
M 2253 4666 
L 3047 4666 
L 3047 1625 
L 3713 1625 
L 3713 1100 
L 3047 1100 
L 3047 0 
L 2419 0 
L 2419 1100 
L 313 1100 
L 313 1709 
L 2253 4666 
z
" transform="scale(0.015625)"/>
       </defs>
       <use xlink:href="#DejaVuSans-32"/>
       <use xlink:href="#DejaVuSans-30" transform="translate(63.623047 0)"/>
       <use xlink:href="#DejaVuSans-32" transform="translate(127.246094 0)"/>
       <use xlink:href="#DejaVuSans-34" transform="translate(190.869141 0)"/>
       <use xlink:href="#DejaVuSans-2d" transform="translate(254.492188 0)"/>
       <use xlink:href="#DejaVuSans-30" transform="translate(290.576172 0)"/>
       <use xlink:href="#DejaVuSans-31" transform="translate(354.199219 0)"/>
      </g>
     </g>
    </g>
    <g id="xtick_7">
     <g id="line2d_13">
      <path d="M 654.363981 320.4 
L 654.363981 43.2 
" clip-path="url(#pf178699ae3)" style="fill: none; stroke-dasharray: 5.12,1.28,0.8,1.28; stroke-dashoffset: 0; stroke: #b0b0b0; stroke-width: 0.8"/>
     </g>
     <g id="line2d_14">
      <g>
       <use xlink:href="#m2b7801017e" x="654.363981" y="320.4" style="fill: #a9a9a9; stroke: #a9a9a9; stroke-width: 0.8"/>
      </g>
     </g>
     <g id="text_7">
      <!-- 2024-07 -->
      <g style="fill: #a9a9a9" transform="translate(633.472575 334.998438) scale(0.1 -0.1)">
       <use xlink:href="#DejaVuSans-32"/>
       <use xlink:href="#DejaVuSans-30" transform="translate(63.623047 0)"/>
       <use xlink:href="#DejaVuSans-32" transform="translate(127.246094 0)"/>
       <use xlink:href="#DejaVuSans-34" transform="translate(190.869141 0)"/>
       <use xlink:href="#DejaVuSans-2d" transform="translate(254.492188 0)"/>
       <use xlink:href="#DejaVuSans-30" transform="translate(290.576172 0)"/>
       <use xlink:href="#DejaVuSans-37" transform="translate(354.199219 0)"/>
      </g>
     </g>
    </g>
    <g id="xtick_8">
     <g id="line2d_15">
      <path d="M 742.836191 320.4 
L 742.836191 43.2 
" clip-path="url(#pf178699ae3)" style="fill: none; stroke-dasharray: 5.12,1.28,0.8,1.28; stroke-dashoffset: 0; stroke: #b0b0b0; stroke-width: 0.8"/>
     </g>
     <g id="line2d_16">
      <g>
       <use xlink:href="#m2b7801017e" x="742.836191" y="320.4" style="fill: #a9a9a9; stroke: #a9a9a9; stroke-width: 0.8"/>
      </g>
     </g>
     <g id="text_8">
      <!-- 2025-01 -->
      <g style="fill: #a9a9a9" transform="translate(721.944785 334.998438) scale(0.1 -0.1)">
       <defs>
        <path id="DejaVuSans-35" d="M 691 4666 
L 3169 4666 
L 3169 4134 
L 1269 4134 
L 1269 2991 
Q 1406 3038 1543 3061 
Q 1681 3084 1819 3084 
Q 2600 3084 3056 2656 
Q 3513 2228 3513 1497 
Q 3513 744 3044 326 
Q 2575 -91 1722 -91 
Q 1428 -91 1123 -41 
Q 819 9 494 109 
L 494 744 
Q 775 591 1075 516 
Q 1375 441 1709 441 
Q 2250 441 2565 725 
Q 2881 1009 2881 1497 
Q 2881 1984 2565 2268 
Q 2250 2553 1709 2553 
Q 1456 2553 1204 2497 
Q 953 2441 691 2322 
L 691 4666 
z
" transform="scale(0.015625)"/>
       </defs>
       <use xlink:href="#DejaVuSans-32"/>
       <use xlink:href="#DejaVuSans-30" transform="translate(63.623047 0)"/>
       <use xlink:href="#DejaVuSans-32" transform="translate(127.246094 0)"/>
       <use xlink:href="#DejaVuSans-35" transform="translate(190.869141 0)"/>
       <use xlink:href="#DejaVuSans-2d" transform="translate(254.492188 0)"/>
       <use xlink:href="#DejaVuSans-30" transform="translate(290.576172 0)"/>
       <use xlink:href="#DejaVuSans-31" transform="translate(354.199219 0)"/>
      </g>
     </g>
    </g>
   </g>
   <g id="matplotlib.axis_2">
    <g id="ytick_1">
     <g id="line2d_17">
      <path d="M 108 307.835068 
L 777.6 307.835068 
" clip-path="url(#pf178699ae3)" style="fill: none; stroke-dasharray: 5.12,1.28,0.8,1.28; stroke-dashoffset: 0; stroke: #b0b0b0; stroke-width: 0.8"/>
     </g>
     <g id="line2d_18">
      <defs>
       <path id="m1dc9ab59da" d="M 0 0 
L -3.5 0 
" style="stroke: #a9a9a9; stroke-width: 0.8"/>
      </defs>
      <g>
       <use xlink:href="#m1dc9ab59da" x="108" y="307.835068" style="fill: #a9a9a9; stroke: #a9a9a9; stroke-width: 0.8"/>
      </g>
     </g>
     <g id="text_9">
      <!-- 0 -->
      <g style="fill: #a9a9a9" transform="translate(94.6375 311.634287) scale(0.1 -0.1)">
       <use xlink:href="#DejaVuSans-30"/>
      </g>
     </g>
    </g>
    <g id="ytick_2">
     <g id="line2d_19">
      <path d="M 108 279.780518 
L 777.6 279.780518 
" clip-path="url(#pf178699ae3)" style="fill: none; stroke-dasharray: 5.12,1.28,0.8,1.28; stroke-dashoffset: 0; stroke: #b0b0b0; stroke-width: 0.8"/>
     </g>
     <g id="line2d_20">
      <g>
       <use xlink:href="#m1dc9ab59da" x="108" y="279.780518" style="fill: #a9a9a9; stroke: #a9a9a9; stroke-width: 0.8"/>
      </g>
     </g>
     <g id="text_10">
      <!-- 800 -->
      <g style="fill: #a9a9a9" transform="translate(81.9125 283.579736) scale(0.1 -0.1)">
       <defs>
        <path id="DejaVuSans-38" d="M 2034 2216 
Q 1584 2216 1326 1975 
Q 1069 1734 1069 1313 
Q 1069 891 1326 650 
Q 1584 409 2034 409 
Q 2484 409 2743 651 
Q 3003 894 3003 1313 
Q 3003 1734 2745 1975 
Q 2488 2216 2034 2216 
z
M 1403 2484 
Q 997 2584 770 2862 
Q 544 3141 544 3541 
Q 544 4100 942 4425 
Q 1341 4750 2034 4750 
Q 2731 4750 3128 4425 
Q 3525 4100 3525 3541 
Q 3525 3141 3298 2862 
Q 3072 2584 2669 2484 
Q 3125 2378 3379 2068 
Q 3634 1759 3634 1313 
Q 3634 634 3220 271 
Q 2806 -91 2034 -91 
Q 1263 -91 848 271 
Q 434 634 434 1313 
Q 434 1759 690 2068 
Q 947 2378 1403 2484 
z
M 1172 3481 
Q 1172 3119 1398 2916 
Q 1625 2713 2034 2713 
Q 2441 2713 2670 2916 
Q 2900 3119 2900 3481 
Q 2900 3844 2670 4047 
Q 2441 4250 2034 4250 
Q 1625 4250 1398 4047 
Q 1172 3844 1172 3481 
z
" transform="scale(0.015625)"/>
       </defs>
       <use xlink:href="#DejaVuSans-38"/>
       <use xlink:href="#DejaVuSans-30" transform="translate(63.623047 0)"/>
       <use xlink:href="#DejaVuSans-30" transform="translate(127.246094 0)"/>
      </g>
     </g>
    </g>
    <g id="ytick_3">
     <g id="line2d_21">
      <path d="M 108 251.725967 
L 777.6 251.725967 
" clip-path="url(#pf178699ae3)" style="fill: none; stroke-dasharray: 5.12,1.28,0.8,1.28; stroke-dashoffset: 0; stroke: #b0b0b0; stroke-width: 0.8"/>
     </g>
     <g id="line2d_22">
      <g>
       <use xlink:href="#m1dc9ab59da" x="108" y="251.725967" style="fill: #a9a9a9; stroke: #a9a9a9; stroke-width: 0.8"/>
      </g>
     </g>
     <g id="text_11">
      <!-- 1600 -->
      <g style="fill: #a9a9a9" transform="translate(75.55 255.525186) scale(0.1 -0.1)">
       <defs>
        <path id="DejaVuSans-36" d="M 2113 2584 
Q 1688 2584 1439 2293 
Q 1191 2003 1191 1497 
Q 1191 994 1439 701 
Q 1688 409 2113 409 
Q 2538 409 2786 701 
Q 3034 994 3034 1497 
Q 3034 2003 2786 2293 
Q 2538 2584 2113 2584 
z
M 3366 4563 
L 3366 3988 
Q 3128 4100 2886 4159 
Q 2644 4219 2406 4219 
Q 1781 4219 1451 3797 
Q 1122 3375 1075 2522 
Q 1259 2794 1537 2939 
Q 1816 3084 2150 3084 
Q 2853 3084 3261 2657 
Q 3669 2231 3669 1497 
Q 3669 778 3244 343 
Q 2819 -91 2113 -91 
Q 1303 -91 875 529 
Q 447 1150 447 2328 
Q 447 3434 972 4092 
Q 1497 4750 2381 4750 
Q 2619 4750 2861 4703 
Q 3103 4656 3366 4563 
z
" transform="scale(0.015625)"/>
       </defs>
       <use xlink:href="#DejaVuSans-31"/>
       <use xlink:href="#DejaVuSans-36" transform="translate(63.623047 0)"/>
       <use xlink:href="#DejaVuSans-30" transform="translate(127.246094 0)"/>
       <use xlink:href="#DejaVuSans-30" transform="translate(190.869141 0)"/>
      </g>
     </g>
    </g>
    <g id="ytick_4">
     <g id="line2d_23">
      <path d="M 108 223.671417 
L 777.6 223.671417 
" clip-path="url(#pf178699ae3)" style="fill: none; stroke-dasharray: 5.12,1.28,0.8,1.28; stroke-dashoffset: 0; stroke: #b0b0b0; stroke-width: 0.8"/>
     </g>
     <g id="line2d_24">
      <g>
       <use xlink:href="#m1dc9ab59da" x="108" y="223.671417" style="fill: #a9a9a9; stroke: #a9a9a9; stroke-width: 0.8"/>
      </g>
     </g>
     <g id="text_12">
      <!-- 2400 -->
      <g style="fill: #a9a9a9" transform="translate(75.55 227.470635) scale(0.1 -0.1)">
       <use xlink:href="#DejaVuSans-32"/>
       <use xlink:href="#DejaVuSans-34" transform="translate(63.623047 0)"/>
       <use xlink:href="#DejaVuSans-30" transform="translate(127.246094 0)"/>
       <use xlink:href="#DejaVuSans-30" transform="translate(190.869141 0)"/>
      </g>
     </g>
    </g>
    <g id="ytick_5">
     <g id="line2d_25">
      <path d="M 108 195.616866 
L 777.6 195.616866 
" clip-path="url(#pf178699ae3)" style="fill: none; stroke-dasharray: 5.12,1.28,0.8,1.28; stroke-dashoffset: 0; stroke: #b0b0b0; stroke-width: 0.8"/>
     </g>
     <g id="line2d_26">
      <g>
       <use xlink:href="#m1dc9ab59da" x="108" y="195.616866" style="fill: #a9a9a9; stroke: #a9a9a9; stroke-width: 0.8"/>
      </g>
     </g>
     <g id="text_13">
      <!-- 3200 -->
      <g style="fill: #a9a9a9" transform="translate(75.55 199.416085) scale(0.1 -0.1)">
       <use xlink:href="#DejaVuSans-33"/>
       <use xlink:href="#DejaVuSans-32" transform="translate(63.623047 0)"/>
       <use xlink:href="#DejaVuSans-30" transform="translate(127.246094 0)"/>
       <use xlink:href="#DejaVuSans-30" transform="translate(190.869141 0)"/>
      </g>
     </g>
    </g>
    <g id="ytick_6">
     <g id="line2d_27">
      <path d="M 108 167.562316 
L 777.6 167.562316 
" clip-path="url(#pf178699ae3)" style="fill: none; stroke-dasharray: 5.12,1.28,0.8,1.28; stroke-dashoffset: 0; stroke: #b0b0b0; stroke-width: 0.8"/>
     </g>
     <g id="line2d_28">
      <g>
       <use xlink:href="#m1dc9ab59da" x="108" y="167.562316" style="fill: #a9a9a9; stroke: #a9a9a9; stroke-width: 0.8"/>
      </g>
     </g>
     <g id="text_14">
      <!-- 4000 -->
      <g style="fill: #a9a9a9" transform="translate(75.55 171.361534) scale(0.1 -0.1)">
       <use xlink:href="#DejaVuSans-34"/>
       <use xlink:href="#DejaVuSans-30" transform="translate(63.623047 0)"/>
       <use xlink:href="#DejaVuSans-30" transform="translate(127.246094 0)"/>
       <use xlink:href="#DejaVuSans-30" transform="translate(190.869141 0)"/>
      </g>
     </g>
    </g>
    <g id="ytick_7">
     <g id="line2d_29">
      <path d="M 108 139.507765 
L 777.6 139.507765 
" clip-path="url(#pf178699ae3)" style="fill: none; stroke-dasharray: 5.12,1.28,0.8,1.28; stroke-dashoffset: 0; stroke: #b0b0b0; stroke-width: 0.8"/>
     </g>
     <g id="line2d_30">
      <g>
       <use xlink:href="#m1dc9ab59da" x="108" y="139.507765" style="fill: #a9a9a9; stroke: #a9a9a9; stroke-width: 0.8"/>
      </g>
     </g>
     <g id="text_15">
      <!-- 4800 -->
      <g style="fill: #a9a9a9" transform="translate(75.55 143.306984) scale(0.1 -0.1)">
       <use xlink:href="#DejaVuSans-34"/>
       <use xlink:href="#DejaVuSans-38" transform="translate(63.623047 0)"/>
       <use xlink:href="#DejaVuSans-30" transform="translate(127.246094 0)"/>
       <use xlink:href="#DejaVuSans-30" transform="translate(190.869141 0)"/>
      </g>
     </g>
    </g>
    <g id="ytick_8">
     <g id="line2d_31">
      <path d="M 108 111.453215 
L 777.6 111.453215 
" clip-path="url(#pf178699ae3)" style="fill: none; stroke-dasharray: 5.12,1.28,0.8,1.28; stroke-dashoffset: 0; stroke: #b0b0b0; stroke-width: 0.8"/>
     </g>
     <g id="line2d_32">
      <g>
       <use xlink:href="#m1dc9ab59da" x="108" y="111.453215" style="fill: #a9a9a9; stroke: #a9a9a9; stroke-width: 0.8"/>
      </g>
     </g>
     <g id="text_16">
      <!-- 5600 -->
      <g style="fill: #a9a9a9" transform="translate(75.55 115.252433) scale(0.1 -0.1)">
       <use xlink:href="#DejaVuSans-35"/>
       <use xlink:href="#DejaVuSans-36" transform="translate(63.623047 0)"/>
       <use xlink:href="#DejaVuSans-30" transform="translate(127.246094 0)"/>
       <use xlink:href="#DejaVuSans-30" transform="translate(190.869141 0)"/>
      </g>
     </g>
    </g>
    <g id="ytick_9">
     <g id="line2d_33">
      <path d="M 108 83.398664 
L 777.6 83.398664 
" clip-path="url(#pf178699ae3)" style="fill: none; stroke-dasharray: 5.12,1.28,0.8,1.28; stroke-dashoffset: 0; stroke: #b0b0b0; stroke-width: 0.8"/>
     </g>
     <g id="line2d_34">
      <g>
       <use xlink:href="#m1dc9ab59da" x="108" y="83.398664" style="fill: #a9a9a9; stroke: #a9a9a9; stroke-width: 0.8"/>
      </g>
     </g>
     <g id="text_17">
      <!-- 6400 -->
      <g style="fill: #a9a9a9" transform="translate(75.55 87.197883) scale(0.1 -0.1)">
       <use xlink:href="#DejaVuSans-36"/>
       <use xlink:href="#DejaVuSans-34" transform="translate(63.623047 0)"/>
       <use xlink:href="#DejaVuSans-30" transform="translate(127.246094 0)"/>
       <use xlink:href="#DejaVuSans-30" transform="translate(190.869141 0)"/>
      </g>
     </g>
    </g>
    <g id="ytick_10">
     <g id="line2d_35">
      <path d="M 108 55.344114 
L 777.6 55.344114 
" clip-path="url(#pf178699ae3)" style="fill: none; stroke-dasharray: 5.12,1.28,0.8,1.28; stroke-dashoffset: 0; stroke: #b0b0b0; stroke-width: 0.8"/>
     </g>
     <g id="line2d_36">
      <g>
       <use xlink:href="#m1dc9ab59da" x="108" y="55.344114" style="fill: #a9a9a9; stroke: #a9a9a9; stroke-width: 0.8"/>
      </g>
     </g>
     <g id="text_18">
      <!-- 7200 -->
      <g style="fill: #a9a9a9" transform="translate(75.55 59.143332) scale(0.1 -0.1)">
       <use xlink:href="#DejaVuSans-37"/>
       <use xlink:href="#DejaVuSans-32" transform="translate(63.623047 0)"/>
       <use xlink:href="#DejaVuSans-30" transform="translate(127.246094 0)"/>
       <use xlink:href="#DejaVuSans-30" transform="translate(190.869141 0)"/>
      </g>
     </g>
    </g>
   </g>
   <g id="line2d_37">
    <path d="M 138.436364 307.729864 
L 141.321327 307.484386 
L 141.802154 307.273977 
L 143.725463 307.0285 
L 145.648772 306.64275 
L 146.610427 306.502477 
L 149.014563 306.292068 
L 149.976217 305.906318 
L 150.457044 305.27509 
L 150.937872 304.924409 
L 151.418699 303.837295 
L 151.899526 303.767158 
L 152.380353 303.381408 
L 153.342008 302.890454 
L 155.265317 301.347453 
L 157.188626 300.400612 
L 158.631107 299.734317 
L 159.111935 298.962817 
L 160.073589 298.261453 
L 160.554416 298.051044 
L 165.362688 297.34968 
L 165.843516 297.139271 
L 169.209306 296.858725 
L 171.132615 296.402839 
L 174.979233 295.876816 
L 175.46006 295.631339 
L 175.940888 295.561202 
L 176.902542 295.245589 
L 180.268333 294.684498 
L 181.229987 294.403952 
L 185.557432 293.66752 
L 186.519087 293.457111 
L 187.480741 293.422043 
L 189.40405 292.966156 
L 189.884877 292.299861 
L 191.327359 291.73877 
L 192.769841 291.35302 
L 193.250668 291.107542 
L 194.212322 290.932202 
L 196.135631 290.37111 
L 197.097286 290.300974 
L 198.05894 290.055497 
L 199.982249 289.564542 
L 200.463076 289.529474 
L 201.424731 289.073588 
L 201.905558 289.003451 
L 202.386385 288.757974 
L 207.675485 287.881269 
L 209.598794 287.320178 
L 210.079621 287.004564 
L 212.483757 286.197996 
L 213.445411 285.531701 
L 214.887893 285.251155 
L 227.389401 281.709268 
L 227.870228 281.709268 
L 228.351056 281.498859 
L 229.31271 281.393654 
L 229.793537 281.218313 
L 231.716846 281.148177 
L 232.678501 280.972836 
L 233.640155 280.481881 
L 235.082637 279.955859 
L 235.563464 279.640245 
L 236.525118 279.219427 
L 237.005946 278.973949 
L 237.9676 278.658336 
L 238.448427 278.518063 
L 239.410082 277.921904 
L 239.890909 277.395881 
L 240.852564 275.923017 
L 241.333391 275.782744 
L 241.814218 275.782744 
L 243.2567 274.941108 
L 243.737527 274.69563 
L 244.218354 274.590426 
L 244.699181 274.134539 
L 245.660836 273.748789 
L 246.62249 273.292903 
L 249.026626 270.24197 
L 251.91159 268.69897 
L 252.873244 267.92747 
L 253.354072 267.611856 
L 253.834899 266.910493 
L 254.315726 265.823379 
L 254.796553 265.086947 
L 255.27738 264.701197 
L 255.758208 264.490788 
L 259.604826 260.983969 
L 260.56648 260.107264 
L 263.451443 258.318787 
L 263.932271 258.143446 
L 265.374752 257.301809 
L 266.817234 256.354968 
L 268.740543 254.636627 
L 269.702197 254.250877 
L 270.663852 253.584581 
L 271.144679 253.304036 
L 271.625506 253.233899 
L 273.067988 252.427331 
L 273.548815 251.901308 
L 275.952951 250.603785 
L 276.433779 250.428444 
L 277.87626 249.446535 
L 285.088669 246.921625 
L 286.050323 246.044921 
L 287.011978 245.589034 
L 287.973632 245.063011 
L 288.454459 244.782466 
L 289.416114 244.50192 
L 289.896941 244.186307 
L 290.377768 244.046034 
L 291.82025 243.099193 
L 294.224386 242.538102 
L 295.666868 241.696465 
L 297.109349 241.380852 
L 297.590177 241.240579 
L 299.032658 240.153465 
L 300.955967 239.627442 
L 301.436794 239.241692 
L 304.321758 238.259783 
L 305.283412 238.084442 
L 306.245067 237.698692 
L 309.610857 236.471305 
L 310.572512 236.331033 
L 312.014994 235.840078 
L 314.41913 234.682828 
L 316.342439 233.630782 
L 320.189056 232.052714 
L 320.669884 231.982577 
L 321.631538 231.386418 
L 322.112365 231.316282 
L 324.035674 230.544782 
L 325.958983 230.299304 
L 326.920638 229.80835 
L 327.401465 229.387531 
L 327.882292 228.510827 
L 329.805601 227.984804 
L 331.248083 227.248372 
L 331.72891 227.143167 
L 335.094701 225.494962 
L 336.056355 225.249485 
L 337.018009 225.039076 
L 337.979664 224.548121 
L 338.460491 224.337712 
L 338.941318 224.267576 
L 340.864627 223.390871 
L 342.307109 222.479098 
L 343.749591 222.198553 
L 346.153727 221.602394 
L 346.634554 221.216643 
L 348.077036 220.690621 
L 350.000345 219.919121 
L 350.481172 219.568439 
L 350.961999 219.393098 
L 351.923654 218.867075 
L 353.846963 218.270916 
L 354.32779 218.025438 
L 355.770271 216.868188 
L 356.251099 216.762984 
L 357.212753 215.991483 
L 357.69358 215.921347 
L 358.174408 215.149847 
L 358.655235 214.939438 
L 359.136062 214.553688 
L 359.616889 214.483551 
L 360.578544 213.887392 
L 361.540198 213.571778 
L 362.021025 213.221097 
L 362.501853 213.045756 
L 363.944334 212.028778 
L 365.867643 211.011801 
L 366.34847 210.941664 
L 367.790952 210.205232 
L 368.271779 209.398664 
L 369.233434 208.6973 
L 369.714261 208.592096 
L 370.675916 207.995937 
L 371.156743 207.890732 
L 372.118397 207.399777 
L 374.041706 206.452936 
L 374.522533 206.102254 
L 375.484188 205.155413 
L 376.445842 204.559254 
L 376.92667 204.24364 
L 377.407497 203.717618 
L 379.330806 202.385026 
L 379.811633 201.823935 
L 380.29246 201.438185 
L 381.254115 201.087503 
L 382.215769 200.456276 
L 383.658251 199.719844 
L 384.139078 199.649708 
L 385.58156 198.878208 
L 386.543214 198.282048 
L 391.351486 196.528639 
L 391.832314 196.142889 
L 393.755623 195.406457 
L 394.23645 195.266184 
L 395.198104 194.634957 
L 396.159759 194.214139 
L 397.121413 193.547843 
L 398.083068 191.619093 
L 399.044722 190.496911 
L 400.487204 189.760479 
L 401.448858 189.374729 
L 401.929685 189.304592 
L 402.410513 189.024047 
L 404.814649 188.252547 
L 405.295476 188.042137 
L 406.257131 187.375842 
L 407.699612 186.744615 
L 408.661267 186.218592 
L 409.142094 185.86791 
L 409.622921 185.657501 
L 410.103748 185.306819 
L 410.584576 184.780796 
L 411.54623 184.254773 
L 413.950366 182.95725 
L 416.83533 181.519454 
L 418.277811 181.098636 
L 419.720293 180.537545 
L 420.20112 180.186863 
L 421.162775 179.906318 
L 422.124429 179.520568 
L 422.605256 179.134818 
L 424.528565 178.468522 
L 425.49022 177.767158 
L 426.451874 177.381408 
L 427.413529 176.644976 
L 428.375183 176.294294 
L 428.85601 175.873476 
L 429.336838 175.80334 
L 430.298492 175.066908 
L 431.260146 174.575953 
L 431.740974 174.365544 
L 432.221801 173.874589 
L 435.587592 172.541998 
L 436.549246 172.12118 
L 437.991728 171.665294 
L 438.953382 171.525021 
L 439.434209 171.314612 
L 439.915037 171.244475 
L 440.876691 170.823657 
L 441.357518 170.788589 
L 443.280827 170.052157 
L 444.723309 169.03518 
L 445.204136 168.859839 
L 446.165791 168.333816 
L 446.646618 168.193543 
L 449.531581 166.580406 
L 450.012408 166.475202 
L 451.45489 165.633565 
L 452.897372 165.142611 
L 453.859026 164.826997 
L 455.782335 164.19577 
L 456.74399 163.880156 
L 458.667299 163.494406 
L 459.148126 163.283997 
L 459.628953 163.21386 
L 460.590607 162.793042 
L 461.071435 162.722906 
L 461.552262 162.477428 
L 462.513916 162.302087 
L 463.956398 161.776065 
L 464.918053 161.67086 
L 466.360534 161.355246 
L 468.76467 160.934428 
L 481.266178 157.287336 
L 481.747006 156.796382 
L 482.70866 156.410632 
L 486.555278 154.972836 
L 487.036105 154.692291 
L 488.478587 154.271472 
L 489.440241 154.025995 
L 489.921069 153.710381 
L 490.401896 153.605177 
L 490.882723 153.184358 
L 492.325205 152.903813 
L 493.286859 152.447927 
L 493.767686 151.886836 
L 495.690995 151.430949 
L 499.056786 150.729585 
L 499.537613 150.729585 
L 500.01844 150.519176 
L 501.941749 150.168494 
L 502.422576 149.958085 
L 504.345885 149.607403 
L 505.30754 149.186585 
L 506.269194 149.011244 
L 508.67333 148.415085 
L 510.596639 147.818926 
L 511.077467 147.713721 
L 511.558294 147.468244 
L 512.519948 147.222766 
L 513.000776 146.942221 
L 514.443257 146.451266 
L 514.924084 146.135653 
L 515.885739 145.855107 
L 519.732357 144.522516 
L 520.694011 144.45238 
L 522.61732 143.891289 
L 523.098147 143.610743 
L 524.059802 143.330198 
L 526.463938 142.243084 
L 526.944765 142.208016 
L 532.233865 140.349402 
L 534.638001 139.718174 
L 535.599655 139.262288 
L 537.042137 138.946674 
L 538.965446 137.368606 
L 539.9271 137.08806 
L 540.407928 136.70231 
L 543.292891 135.615196 
L 543.773718 135.299583 
L 544.735373 135.019037 
L 545.2162 134.703423 
L 547.620336 133.931923 
L 549.062818 133.090287 
L 549.543645 132.985082 
L 551.947781 131.687559 
L 553.390263 131.056332 
L 553.87109 130.70565 
L 554.832745 130.390036 
L 555.794399 129.828945 
L 556.275226 129.653604 
L 556.756053 129.302922 
L 563.006807 127.093626 
L 563.487635 126.988422 
L 563.968462 126.672808 
L 565.891771 126.287058 
L 566.853425 125.901308 
L 569.738389 124.498581 
L 570.219216 124.428444 
L 571.661698 123.621876 
L 573.104179 123.130921 
L 576.46997 121.763262 
L 576.950797 121.622989 
L 577.431624 121.307375 
L 578.393279 121.202171 
L 578.874106 120.886557 
L 579.83576 120.711216 
L 580.797415 120.25533 
L 581.278242 120.044921 
L 581.759069 119.974784 
L 584.163206 119.027943 
L 585.605687 118.642193 
L 586.567342 118.396716 
L 588.009823 117.975898 
L 588.971478 117.590148 
L 590.894787 116.538102 
L 591.856441 116.152352 
L 592.337268 115.836738 
L 593.298923 115.626329 
L 593.77975 115.345783 
L 594.260577 115.240579 
L 595.703059 114.434011 
L 596.664713 114.048261 
L 598.588022 113.311829 
L 600.992159 112.50526 
L 601.953813 112.014306 
L 604.357949 111.207737 
L 607.242913 110.050487 
L 609.166221 109.173782 
L 613.974494 107.315168 
L 614.455321 106.999555 
L 616.37863 106.333259 
L 616.859457 106.333259 
L 617.821112 105.912441 
L 619.744421 104.369441 
L 620.225248 104.229168 
L 620.706075 103.913554 
L 621.186902 103.80835 
L 621.667729 103.562872 
L 622.148557 103.492736 
L 622.629384 103.142054 
L 623.110211 103.036849 
L 624.071866 102.44069 
L 625.514347 101.704258 
L 626.476002 101.318508 
L 626.956829 101.073031 
L 628.399311 100.757417 
L 630.803447 99.950849 
L 631.765101 99.635235 
L 633.207583 98.898803 
L 634.169237 98.442917 
L 635.130892 98.197439 
L 636.573374 97.531144 
L 640.900819 95.953075 
L 642.3433 95.076371 
L 642.824128 94.971166 
L 643.785782 94.51528 
L 644.747436 94.164598 
L 645.228264 93.74378 
L 646.189918 93.35803 
L 649.074882 92.200779 
L 650.517363 91.779961 
L 650.99819 91.534484 
L 651.479018 91.464347 
L 652.921499 90.938325 
L 654.363981 90.412302 
L 655.325636 90.026552 
L 655.806463 89.640802 
L 657.248944 89.255051 
L 657.729772 88.974506 
L 658.691426 88.729029 
L 660.133908 87.92246 
L 660.614735 87.887392 
L 662.057217 87.431506 
L 663.018871 87.361369 
L 663.980526 86.975619 
L 666.865489 86.133983 
L 667.827143 86.098915 
L 671.673761 84.871528 
L 672.635416 84.345505 
L 673.116243 83.924687 
L 674.558725 83.08305 
L 675.039552 82.732368 
L 676.001206 82.381687 
L 678.405343 81.610186 
L 678.88617 81.224436 
L 681.771133 80.032118 
L 683.694442 79.506095 
L 684.656097 79.085277 
L 685.136924 78.8398 
L 686.098578 78.559254 
L 686.579405 78.278709 
L 687.54106 78.103368 
L 689.945196 76.981186 
L 690.426023 76.70064 
L 691.868505 76.349958 
L 692.349332 76.034345 
L 692.830159 75.859004 
L 693.310987 75.438185 
L 693.791814 75.368049 
L 695.715123 74.596549 
L 697.638432 74.140662 
L 698.119259 74.070526 
L 698.600086 73.860117 
L 699.080913 73.825049 
L 700.042568 73.509435 
L 700.523395 73.474367 
L 701.965877 72.913276 
L 703.889186 72.352185 
L 704.85084 71.615753 
L 706.774149 70.563707 
L 708.216631 70.072753 
L 711.101594 68.77523 
L 712.063249 68.249207 
L 712.544076 68.003729 
L 713.024903 67.547843 
L 715.909866 66.601002 
L 716.871521 66.215252 
L 717.833175 65.969775 
L 718.314003 65.724297 
L 718.79483 65.303479 
L 720.718139 64.812524 
L 721.198966 64.461842 
L 727.44972 62.217478 
L 728.411374 62.042137 
L 732.738819 60.534205 
L 733.700474 60.288728 
L 734.181301 60.078319 
L 734.662128 60.043251 
L 735.623783 59.657501 
L 736.585437 59.061341 
L 737.066265 58.886001 
L 737.547092 58.850932 
L 738.989573 58.219705 
L 740.432055 57.693682 
L 740.912882 57.623546 
L 741.874537 57.237796 
L 743.317019 56.922182 
L 744.7595 56.466296 
L 745.240327 56.361091 
L 745.721155 56.010409 
L 747.163636 55.8 
L 747.163636 55.8 
" clip-path="url(#pf178699ae3)" style="fill: none; stroke: #1f77b4; stroke-width: 1.5; stroke-linecap: square"/>
   </g>
   <g id="line2d_38">
    <path d="M 138.917191 307.8 
L 143.244636 307.694795 
L 147.091254 307.519454 
L 149.014563 307.519454 
L 149.49539 307.379182 
L 151.899526 307.273977 
L 154.784489 306.958363 
L 157.669453 306.853159 
L 158.631107 306.747954 
L 161.996898 306.607682 
L 165.362688 306.502477 
L 167.766825 306.432341 
L 174.017579 306.327136 
L 176.421715 306.257 
L 179.787505 306.151795 
L 182.191642 306.081659 
L 187.480741 305.976454 
L 189.40405 305.801113 
L 191.327359 305.766045 
L 194.212322 305.660841 
L 196.135631 305.625772 
L 198.539767 305.555636 
L 200.463076 305.380295 
L 204.790521 305.27509 
L 205.752176 305.204954 
L 207.675485 305.09975 
L 210.560448 304.994545 
L 212.483757 304.88934 
L 221.138647 304.363318 
L 224.504438 304.258113 
L 225.946919 304.11784 
L 228.351056 304.012636 
L 233.159328 303.767158 
L 237.9676 303.697022 
L 239.890909 303.486613 
L 241.814218 303.381408 
L 247.103318 302.890454 
L 250.469108 302.504704 
L 251.91159 302.434567 
L 255.758208 301.943613 
L 258.643171 301.873476 
L 260.085653 301.733203 
L 261.528134 301.627999 
L 274.991297 300.611021 
L 275.952951 300.43568 
L 278.837915 300.330476 
L 286.53115 299.874589 
L 289.896941 299.769385 
L 291.82025 299.558976 
L 294.224386 299.453771 
L 297.109349 299.348567 
L 299.513486 299.243362 
L 301.436794 299.208294 
L 303.840931 299.138158 
L 304.802585 298.997885 
L 311.534166 298.89268 
L 312.495821 298.787476 
L 318.265748 298.682271 
L 322.593193 298.471862 
L 325.958983 298.366657 
L 327.882292 298.156248 
L 331.248083 298.051044 
L 332.209737 297.875703 
L 334.613873 297.805566 
L 339.422146 297.73543 
L 341.345455 297.560089 
L 343.268763 297.525021 
L 344.711245 297.419816 
L 346.634554 297.244475 
L 351.442826 296.998998 
L 356.251099 296.893793 
L 360.578544 296.683384 
L 362.021025 296.648316 
L 362.98268 296.508043 
L 365.386816 296.402839 
L 366.34847 296.332702 
L 367.310125 296.262566 
L 368.271779 296.19243 
L 372.599224 296.122293 
L 374.041706 296.017089 
L 387.024041 295.175452 
L 389.428178 295.070248 
L 391.832314 295.000111 
L 398.563895 294.894907 
L 399.525549 294.754634 
L 406.257131 294.649429 
L 411.065403 294.403952 
L 412.027057 294.368884 
L 412.988712 294.263679 
L 415.392848 294.158475 
L 417.796984 294.088338 
L 420.20112 293.983134 
L 422.605256 293.912997 
L 426.932701 293.807793 
L 429.817665 293.702588 
L 436.549246 293.597384 
L 441.838346 293.316838 
L 443.761654 293.246702 
L 445.204136 293.141497 
L 451.935717 293.036293 
L 454.820681 292.931088 
L 463.475571 292.825884 
L 465.39888 292.790815 
L 471.168807 292.720679 
L 472.130461 292.650543 
L 478.862042 292.545338 
L 480.785351 292.51027 
L 493.286859 292.405065 
L 494.729341 292.264793 
L 516.366566 292.159588 
L 518.770702 292.089452 
L 531.27221 292.019315 
L 532.233865 291.949179 
L 534.638001 291.879043 
L 536.080483 291.73877 
L 538.965446 291.633565 
L 542.331237 291.493293 
L 546.658682 291.388088 
L 549.062818 291.317952 
L 552.428608 291.212747 
L 556.275226 291.037406 
L 558.679362 290.932202 
L 560.602671 290.897133 
L 564.930116 290.791929 
L 566.853425 290.756861 
L 573.104179 290.651656 
L 575.027488 290.616588 
L 577.431624 290.511383 
L 580.316588 290.406179 
L 583.682378 290.336042 
L 584.644033 290.265906 
L 596.183886 290.160701 
L 602.43464 289.810019 
L 604.838776 289.739883 
L 605.800431 289.634679 
L 606.762085 289.564542 
L 610.608703 289.459338 
L 613.493667 289.354133 
L 618.301939 289.248928 
L 620.706075 289.003451 
L 625.514347 288.898247 
L 626.476002 288.793042 
L 631.284274 288.687837 
L 633.68841 288.617701 
L 638.97751 288.582633 
L 639.939164 288.477428 
L 645.228264 288.372224 
L 646.189918 288.302087 
L 656.768117 288.196883 
L 659.653081 288.091678 
L 666.865489 287.986474 
L 668.788798 287.951406 
L 673.116243 287.881269 
L 674.077897 287.776065 
L 680.328651 287.67086 
L 682.732788 287.600724 
L 691.387678 287.495519 
L 692.830159 287.390315 
L 694.272641 287.28511 
L 695.715123 287.179905 
L 702.927531 287.074701 
L 705.812495 286.969496 
L 718.79483 286.864292 
L 723.122275 286.653883 
L 728.892202 286.548678 
L 729.853856 286.443473 
L 737.066265 286.373337 
L 738.027919 286.303201 
L 743.317019 286.197996 
L 745.721155 286.12786 
L 747.163636 286.12786 
L 747.163636 286.12786 
" clip-path="url(#pf178699ae3)" style="fill: none; stroke: #ff7f0e; stroke-width: 1.5; stroke-linecap: square"/>
   </g>
   <g id="patch_3">
    <path d="M 108 320.4 
L 108 43.2 
" style="fill: none; stroke: #a9a9a9; stroke-width: 0.8; stroke-linejoin: miter; stroke-linecap: square"/>
   </g>
   <g id="patch_4">
    <path d="M 777.6 320.4 
L 777.6 43.2 
" style="fill: none"/>
   </g>
   <g id="patch_5">
    <path d="M 108 320.4 
L 777.6 320.4 
" style="fill: none; stroke: #a9a9a9; stroke-width: 0.8; stroke-linejoin: miter; stroke-linecap: square"/>
   </g>
   <g id="patch_6">
    <path d="M 108 43.2 
L 777.6 43.2 
" style="fill: none"/>
   </g>
   <g id="text_19">
    <!-- get_subscribe history -->
    <g style="fill: #a9a9a9" transform="translate(378.6075 37.2) scale(0.12 -0.12)">
     <defs>
      <path id="DejaVuSans-67" d="M 2906 1791 
Q 2906 2416 2648 2759 
Q 2391 3103 1925 3103 
Q 1463 3103 1205 2759 
Q 947 2416 947 1791 
Q 947 1169 1205 825 
Q 1463 481 1925 481 
Q 2391 481 2648 825 
Q 2906 1169 2906 1791 
z
M 3481 434 
Q 3481 -459 3084 -895 
Q 2688 -1331 1869 -1331 
Q 1566 -1331 1297 -1286 
Q 1028 -1241 775 -1147 
L 775 -588 
Q 1028 -725 1275 -790 
Q 1522 -856 1778 -856 
Q 2344 -856 2625 -561 
Q 2906 -266 2906 331 
L 2906 616 
Q 2728 306 2450 153 
Q 2172 0 1784 0 
Q 1141 0 747 490 
Q 353 981 353 1791 
Q 353 2603 747 3093 
Q 1141 3584 1784 3584 
Q 2172 3584 2450 3431 
Q 2728 3278 2906 2969 
L 2906 3500 
L 3481 3500 
L 3481 434 
z
" transform="scale(0.015625)"/>
      <path id="DejaVuSans-65" d="M 3597 1894 
L 3597 1613 
L 953 1613 
Q 991 1019 1311 708 
Q 1631 397 2203 397 
Q 2534 397 2845 478 
Q 3156 559 3463 722 
L 3463 178 
Q 3153 47 2828 -22 
Q 2503 -91 2169 -91 
Q 1331 -91 842 396 
Q 353 884 353 1716 
Q 353 2575 817 3079 
Q 1281 3584 2069 3584 
Q 2775 3584 3186 3129 
Q 3597 2675 3597 1894 
z
M 3022 2063 
Q 3016 2534 2758 2815 
Q 2500 3097 2075 3097 
Q 1594 3097 1305 2825 
Q 1016 2553 972 2059 
L 3022 2063 
z
" transform="scale(0.015625)"/>
      <path id="DejaVuSans-74" d="M 1172 4494 
L 1172 3500 
L 2356 3500 
L 2356 3053 
L 1172 3053 
L 1172 1153 
Q 1172 725 1289 603 
Q 1406 481 1766 481 
L 2356 481 
L 2356 0 
L 1766 0 
Q 1100 0 847 248 
Q 594 497 594 1153 
L 594 3053 
L 172 3053 
L 172 3500 
L 594 3500 
L 594 4494 
L 1172 4494 
z
" transform="scale(0.015625)"/>
      <path id="DejaVuSans-5f" d="M 3263 -1063 
L 3263 -1509 
L -63 -1509 
L -63 -1063 
L 3263 -1063 
z
" transform="scale(0.015625)"/>
      <path id="DejaVuSans-73" d="M 2834 3397 
L 2834 2853 
Q 2591 2978 2328 3040 
Q 2066 3103 1784 3103 
Q 1356 3103 1142 2972 
Q 928 2841 928 2578 
Q 928 2378 1081 2264 
Q 1234 2150 1697 2047 
L 1894 2003 
Q 2506 1872 2764 1633 
Q 3022 1394 3022 966 
Q 3022 478 2636 193 
Q 2250 -91 1575 -91 
Q 1294 -91 989 -36 
Q 684 19 347 128 
L 347 722 
Q 666 556 975 473 
Q 1284 391 1588 391 
Q 1994 391 2212 530 
Q 2431 669 2431 922 
Q 2431 1156 2273 1281 
Q 2116 1406 1581 1522 
L 1381 1569 
Q 847 1681 609 1914 
Q 372 2147 372 2553 
Q 372 3047 722 3315 
Q 1072 3584 1716 3584 
Q 2034 3584 2315 3537 
Q 2597 3491 2834 3397 
z
" transform="scale(0.015625)"/>
      <path id="DejaVuSans-75" d="M 544 1381 
L 544 3500 
L 1119 3500 
L 1119 1403 
Q 1119 906 1312 657 
Q 1506 409 1894 409 
Q 2359 409 2629 706 
Q 2900 1003 2900 1516 
L 2900 3500 
L 3475 3500 
L 3475 0 
L 2900 0 
L 2900 538 
Q 2691 219 2414 64 
Q 2138 -91 1772 -91 
Q 1169 -91 856 284 
Q 544 659 544 1381 
z
M 1991 3584 
L 1991 3584 
z
" transform="scale(0.015625)"/>
      <path id="DejaVuSans-62" d="M 3116 1747 
Q 3116 2381 2855 2742 
Q 2594 3103 2138 3103 
Q 1681 3103 1420 2742 
Q 1159 2381 1159 1747 
Q 1159 1113 1420 752 
Q 1681 391 2138 391 
Q 2594 391 2855 752 
Q 3116 1113 3116 1747 
z
M 1159 2969 
Q 1341 3281 1617 3432 
Q 1894 3584 2278 3584 
Q 2916 3584 3314 3078 
Q 3713 2572 3713 1747 
Q 3713 922 3314 415 
Q 2916 -91 2278 -91 
Q 1894 -91 1617 61 
Q 1341 213 1159 525 
L 1159 0 
L 581 0 
L 581 4863 
L 1159 4863 
L 1159 2969 
z
" transform="scale(0.015625)"/>
      <path id="DejaVuSans-63" d="M 3122 3366 
L 3122 2828 
Q 2878 2963 2633 3030 
Q 2388 3097 2138 3097 
Q 1578 3097 1268 2742 
Q 959 2388 959 1747 
Q 959 1106 1268 751 
Q 1578 397 2138 397 
Q 2388 397 2633 464 
Q 2878 531 3122 666 
L 3122 134 
Q 2881 22 2623 -34 
Q 2366 -91 2075 -91 
Q 1284 -91 818 406 
Q 353 903 353 1747 
Q 353 2603 823 3093 
Q 1294 3584 2113 3584 
Q 2378 3584 2631 3529 
Q 2884 3475 3122 3366 
z
" transform="scale(0.015625)"/>
      <path id="DejaVuSans-72" d="M 2631 2963 
Q 2534 3019 2420 3045 
Q 2306 3072 2169 3072 
Q 1681 3072 1420 2755 
Q 1159 2438 1159 1844 
L 1159 0 
L 581 0 
L 581 3500 
L 1159 3500 
L 1159 2956 
Q 1341 3275 1631 3429 
Q 1922 3584 2338 3584 
Q 2397 3584 2469 3576 
Q 2541 3569 2628 3553 
L 2631 2963 
z
" transform="scale(0.015625)"/>
      <path id="DejaVuSans-69" d="M 603 3500 
L 1178 3500 
L 1178 0 
L 603 0 
L 603 3500 
z
M 603 4863 
L 1178 4863 
L 1178 4134 
L 603 4134 
L 603 4863 
z
" transform="scale(0.015625)"/>
      <path id="DejaVuSans-20" transform="scale(0.015625)"/>
      <path id="DejaVuSans-68" d="M 3513 2113 
L 3513 0 
L 2938 0 
L 2938 2094 
Q 2938 2591 2744 2837 
Q 2550 3084 2163 3084 
Q 1697 3084 1428 2787 
Q 1159 2491 1159 1978 
L 1159 0 
L 581 0 
L 581 4863 
L 1159 4863 
L 1159 2956 
Q 1366 3272 1645 3428 
Q 1925 3584 2291 3584 
Q 2894 3584 3203 3211 
Q 3513 2838 3513 2113 
z
" transform="scale(0.015625)"/>
      <path id="DejaVuSans-6f" d="M 1959 3097 
Q 1497 3097 1228 2736 
Q 959 2375 959 1747 
Q 959 1119 1226 758 
Q 1494 397 1959 397 
Q 2419 397 2687 759 
Q 2956 1122 2956 1747 
Q 2956 2369 2687 2733 
Q 2419 3097 1959 3097 
z
M 1959 3584 
Q 2709 3584 3137 3096 
Q 3566 2609 3566 1747 
Q 3566 888 3137 398 
Q 2709 -91 1959 -91 
Q 1206 -91 779 398 
Q 353 888 353 1747 
Q 353 2609 779 3096 
Q 1206 3584 1959 3584 
z
" transform="scale(0.015625)"/>
      <path id="DejaVuSans-79" d="M 2059 -325 
Q 1816 -950 1584 -1140 
Q 1353 -1331 966 -1331 
L 506 -1331 
L 506 -850 
L 844 -850 
Q 1081 -850 1212 -737 
Q 1344 -625 1503 -206 
L 1606 56 
L 191 3500 
L 800 3500 
L 1894 763 
L 2988 3500 
L 3597 3500 
L 2059 -325 
z
" transform="scale(0.015625)"/>
     </defs>
     <use xlink:href="#DejaVuSans-67"/>
     <use xlink:href="#DejaVuSans-65" transform="translate(63.476562 0)"/>
     <use xlink:href="#DejaVuSans-74" transform="translate(125 0)"/>
     <use xlink:href="#DejaVuSans-5f" transform="translate(164.208984 0)"/>
     <use xlink:href="#DejaVuSans-73" transform="translate(214.208984 0)"/>
     <use xlink:href="#DejaVuSans-75" transform="translate(266.308594 0)"/>
     <use xlink:href="#DejaVuSans-62" transform="translate(329.6875 0)"/>
     <use xlink:href="#DejaVuSans-73" transform="translate(393.164062 0)"/>
     <use xlink:href="#DejaVuSans-63" transform="translate(445.263672 0)"/>
     <use xlink:href="#DejaVuSans-72" transform="translate(500.244141 0)"/>
     <use xlink:href="#DejaVuSans-69" transform="translate(541.357422 0)"/>
     <use xlink:href="#DejaVuSans-62" transform="translate(569.140625 0)"/>
     <use xlink:href="#DejaVuSans-65" transform="translate(632.617188 0)"/>
     <use xlink:href="#DejaVuSans-20" transform="translate(694.140625 0)"/>
     <use xlink:href="#DejaVuSans-68" transform="translate(725.927734 0)"/>
     <use xlink:href="#DejaVuSans-69" transform="translate(789.306641 0)"/>
     <use xlink:href="#DejaVuSans-73" transform="translate(817.089844 0)"/>
     <use xlink:href="#DejaVuSans-74" transform="translate(869.189453 0)"/>
     <use xlink:href="#DejaVuSans-6f" transform="translate(908.398438 0)"/>
     <use xlink:href="#DejaVuSans-72" transform="translate(969.580078 0)"/>
     <use xlink:href="#DejaVuSans-79" transform="translate(1010.693359 0)"/>
    </g>
   </g>
   <g id="legend_1">
    <g id="line2d_39">
     <path d="M 815.08 328.498438 
L 825.08 328.498438 
L 835.08 328.498438 
" style="fill: none; stroke: #1f77b4; stroke-width: 1.5; stroke-linecap: square"/>
    </g>
    <g id="text_20">
     <!-- star -->
     <g style="fill: #a9a9a9" transform="translate(843.08 331.998438) scale(0.1 -0.1)">
      <defs>
       <path id="DejaVuSans-61" d="M 2194 1759 
Q 1497 1759 1228 1600 
Q 959 1441 959 1056 
Q 959 750 1161 570 
Q 1363 391 1709 391 
Q 2188 391 2477 730 
Q 2766 1069 2766 1631 
L 2766 1759 
L 2194 1759 
z
M 3341 1997 
L 3341 0 
L 2766 0 
L 2766 531 
Q 2569 213 2275 61 
Q 1981 -91 1556 -91 
Q 1019 -91 701 211 
Q 384 513 384 1019 
Q 384 1609 779 1909 
Q 1175 2209 1959 2209 
L 2766 2209 
L 2766 2266 
Q 2766 2663 2505 2880 
Q 2244 3097 1772 3097 
Q 1472 3097 1187 3025 
Q 903 2953 641 2809 
L 641 3341 
Q 956 3463 1253 3523 
Q 1550 3584 1831 3584 
Q 2591 3584 2966 3190 
Q 3341 2797 3341 1997 
z
" transform="scale(0.015625)"/>
      </defs>
      <use xlink:href="#DejaVuSans-73"/>
      <use xlink:href="#DejaVuSans-74" transform="translate(52.099609 0)"/>
      <use xlink:href="#DejaVuSans-61" transform="translate(91.308594 0)"/>
      <use xlink:href="#DejaVuSans-72" transform="translate(152.587891 0)"/>
     </g>
    </g>
    <g id="line2d_40">
     <path d="M 815.08 343.176562 
L 825.08 343.176562 
L 835.08 343.176562 
" style="fill: none; stroke: #ff7f0e; stroke-width: 1.5; stroke-linecap: square"/>
    </g>
    <g id="text_21">
     <!-- fork -->
     <g style="fill: #a9a9a9" transform="translate(843.08 346.676562) scale(0.1 -0.1)">
      <defs>
       <path id="DejaVuSans-66" d="M 2375 4863 
L 2375 4384 
L 1825 4384 
Q 1516 4384 1395 4259 
Q 1275 4134 1275 3809 
L 1275 3500 
L 2222 3500 
L 2222 3053 
L 1275 3053 
L 1275 0 
L 697 0 
L 697 3053 
L 147 3053 
L 147 3500 
L 697 3500 
L 697 3744 
Q 697 4328 969 4595 
Q 1241 4863 1831 4863 
L 2375 4863 
z
" transform="scale(0.015625)"/>
       <path id="DejaVuSans-6b" d="M 581 4863 
L 1159 4863 
L 1159 1991 
L 2875 3500 
L 3609 3500 
L 1753 1863 
L 3688 0 
L 2938 0 
L 1159 1709 
L 1159 0 
L 581 0 
L 581 4863 
z
" transform="scale(0.015625)"/>
      </defs>
      <use xlink:href="#DejaVuSans-66"/>
      <use xlink:href="#DejaVuSans-6f" transform="translate(35.205078 0)"/>
      <use xlink:href="#DejaVuSans-72" transform="translate(96.386719 0)"/>
      <use xlink:href="#DejaVuSans-6b" transform="translate(137.5 0)"/>
     </g>
    </g>
   </g>
  </g>
 </g>
 <defs>
  <clipPath id="pf178699ae3">
   <rect x="108" y="43.2" width="669.6" height="277.2"/>
  </clipPath>
 </defs>
</svg>
