<?xml version="1.0" encoding="utf-8" standalone="no"?>
<!DOCTYPE svg PUBLIC "-//W3C//DTD SVG 1.1//EN"
  "http://www.w3.org/Graphics/SVG/1.1/DTD/svg11.dtd">
<svg xmlns:xlink="http://www.w3.org/1999/xlink" width="864pt" height="360pt" viewBox="0 0 864 360" xmlns="http://www.w3.org/2000/svg" version="1.1">
 <metadata>
  <rdf:RDF xmlns:dc="http://purl.org/dc/elements/1.1/" xmlns:cc="http://creativecommons.org/ns#" xmlns:rdf="http://www.w3.org/1999/02/22-rdf-syntax-ns#">
   <cc:Work>
    <dc:type rdf:resource="http://purl.org/dc/dcmitype/StillImage"/>
    <dc:date>2024-03-05T20:04:39.234115</dc:date>
    <dc:format>image/svg+xml</dc:format>
    <dc:creator>
     <cc:Agent>
      <dc:title>Matplotlib v3.8.3, https://matplotlib.org/</dc:title>
     </cc:Agent>
    </dc:creator>
   </cc:Work>
  </rdf:RDF>
 </metadata>
 <defs>
  <style type="text/css">*{stroke-linejoin: round; stroke-linecap: butt}</style>
 </defs>
 <g id="figure_1">
  <g id="patch_1">
   <path d="M 0 360 
L 864 360 
L 864 0 
L 0 0 
L 0 360 
z
" style="fill: none; opacity: 0"/>
  </g>
  <g id="axes_1">
   <g id="patch_2">
    <path d="M 108 320.4 
L 777.6 320.4 
L 777.6 43.2 
L 108 43.2 
L 108 320.4 
z
" style="fill: none; opacity: 0"/>
   </g>
   <g id="matplotlib.axis_1">
    <g id="xtick_1">
     <g id="line2d_1">
      <path d="M 163.295383 320.4 
L 163.295383 43.2 
" clip-path="url(#pa3be210059)" style="fill: none; stroke-dasharray: 5.12,1.28,0.8,1.28; stroke-dashoffset: 0; stroke: #b0b0b0; stroke-width: 0.8"/>
     </g>
     <g id="line2d_2">
      <defs>
       <path id="m0588b0ad71" d="M 0 0 
L 0 3.5 
" style="stroke: #a9a9a9; stroke-width: 0.8"/>
      </defs>
      <g>
       <use xlink:href="#m0588b0ad71" x="163.295383" y="320.4" style="fill: #a9a9a9; stroke: #a9a9a9; stroke-width: 0.8"/>
      </g>
     </g>
     <g id="text_1">
      <!-- 2021-09 -->
      <g style="fill: #a9a9a9" transform="translate(142.403977 334.998438) scale(0.1 -0.1)">
       <defs>
        <path id="DejaVuSans-32" d="M 1228 531 
L 3431 531 
L 3431 0 
L 469 0 
L 469 531 
Q 828 903 1448 1529 
Q 2069 2156 2228 2338 
Q 2531 2678 2651 2914 
Q 2772 3150 2772 3378 
Q 2772 3750 2511 3984 
Q 2250 4219 1831 4219 
Q 1534 4219 1204 4116 
Q 875 4013 500 3803 
L 500 4441 
Q 881 4594 1212 4672 
Q 1544 4750 1819 4750 
Q 2544 4750 2975 4387 
Q 3406 4025 3406 3419 
Q 3406 3131 3298 2873 
Q 3191 2616 2906 2266 
Q 2828 2175 2409 1742 
Q 1991 1309 1228 531 
z
" transform="scale(0.015625)"/>
        <path id="DejaVuSans-30" d="M 2034 4250 
Q 1547 4250 1301 3770 
Q 1056 3291 1056 2328 
Q 1056 1369 1301 889 
Q 1547 409 2034 409 
Q 2525 409 2770 889 
Q 3016 1369 3016 2328 
Q 3016 3291 2770 3770 
Q 2525 4250 2034 4250 
z
M 2034 4750 
Q 2819 4750 3233 4129 
Q 3647 3509 3647 2328 
Q 3647 1150 3233 529 
Q 2819 -91 2034 -91 
Q 1250 -91 836 529 
Q 422 1150 422 2328 
Q 422 3509 836 4129 
Q 1250 4750 2034 4750 
z
" transform="scale(0.015625)"/>
        <path id="DejaVuSans-31" d="M 794 531 
L 1825 531 
L 1825 4091 
L 703 3866 
L 703 4441 
L 1819 4666 
L 2450 4666 
L 2450 531 
L 3481 531 
L 3481 0 
L 794 0 
L 794 531 
z
" transform="scale(0.015625)"/>
        <path id="DejaVuSans-2d" d="M 313 2009 
L 1997 2009 
L 1997 1497 
L 313 1497 
L 313 2009 
z
" transform="scale(0.015625)"/>
        <path id="DejaVuSans-39" d="M 703 97 
L 703 672 
Q 941 559 1184 500 
Q 1428 441 1663 441 
Q 2288 441 2617 861 
Q 2947 1281 2994 2138 
Q 2813 1869 2534 1725 
Q 2256 1581 1919 1581 
Q 1219 1581 811 2004 
Q 403 2428 403 3163 
Q 403 3881 828 4315 
Q 1253 4750 1959 4750 
Q 2769 4750 3195 4129 
Q 3622 3509 3622 2328 
Q 3622 1225 3098 567 
Q 2575 -91 1691 -91 
Q 1453 -91 1209 -44 
Q 966 3 703 97 
z
M 1959 2075 
Q 2384 2075 2632 2365 
Q 2881 2656 2881 3163 
Q 2881 3666 2632 3958 
Q 2384 4250 1959 4250 
Q 1534 4250 1286 3958 
Q 1038 3666 1038 3163 
Q 1038 2656 1286 2365 
Q 1534 2075 1959 2075 
z
" transform="scale(0.015625)"/>
       </defs>
       <use xlink:href="#DejaVuSans-32"/>
       <use xlink:href="#DejaVuSans-30" x="63.623047"/>
       <use xlink:href="#DejaVuSans-32" x="127.246094"/>
       <use xlink:href="#DejaVuSans-31" x="190.869141"/>
       <use xlink:href="#DejaVuSans-2d" x="254.492188"/>
       <use xlink:href="#DejaVuSans-30" x="290.576172"/>
       <use xlink:href="#DejaVuSans-39" x="354.199219"/>
      </g>
     </g>
    </g>
    <g id="xtick_2">
     <g id="line2d_3">
      <path d="M 241.059495 320.4 
L 241.059495 43.2 
" clip-path="url(#pa3be210059)" style="fill: none; stroke-dasharray: 5.12,1.28,0.8,1.28; stroke-dashoffset: 0; stroke: #b0b0b0; stroke-width: 0.8"/>
     </g>
     <g id="line2d_4">
      <g>
       <use xlink:href="#m0588b0ad71" x="241.059495" y="320.4" style="fill: #a9a9a9; stroke: #a9a9a9; stroke-width: 0.8"/>
      </g>
     </g>
     <g id="text_2">
      <!-- 2022-01 -->
      <g style="fill: #a9a9a9" transform="translate(220.168089 334.998438) scale(0.1 -0.1)">
       <use xlink:href="#DejaVuSans-32"/>
       <use xlink:href="#DejaVuSans-30" x="63.623047"/>
       <use xlink:href="#DejaVuSans-32" x="127.246094"/>
       <use xlink:href="#DejaVuSans-32" x="190.869141"/>
       <use xlink:href="#DejaVuSans-2d" x="254.492188"/>
       <use xlink:href="#DejaVuSans-30" x="290.576172"/>
       <use xlink:href="#DejaVuSans-31" x="354.199219"/>
      </g>
     </g>
    </g>
    <g id="xtick_3">
     <g id="line2d_5">
      <path d="M 317.548786 320.4 
L 317.548786 43.2 
" clip-path="url(#pa3be210059)" style="fill: none; stroke-dasharray: 5.12,1.28,0.8,1.28; stroke-dashoffset: 0; stroke: #b0b0b0; stroke-width: 0.8"/>
     </g>
     <g id="line2d_6">
      <g>
       <use xlink:href="#m0588b0ad71" x="317.548786" y="320.4" style="fill: #a9a9a9; stroke: #a9a9a9; stroke-width: 0.8"/>
      </g>
     </g>
     <g id="text_3">
      <!-- 2022-05 -->
      <g style="fill: #a9a9a9" transform="translate(296.65738 334.998438) scale(0.1 -0.1)">
       <defs>
        <path id="DejaVuSans-35" d="M 691 4666 
L 3169 4666 
L 3169 4134 
L 1269 4134 
L 1269 2991 
Q 1406 3038 1543 3061 
Q 1681 3084 1819 3084 
Q 2600 3084 3056 2656 
Q 3513 2228 3513 1497 
Q 3513 744 3044 326 
Q 2575 -91 1722 -91 
Q 1428 -91 1123 -41 
Q 819 9 494 109 
L 494 744 
Q 775 591 1075 516 
Q 1375 441 1709 441 
Q 2250 441 2565 725 
Q 2881 1009 2881 1497 
Q 2881 1984 2565 2268 
Q 2250 2553 1709 2553 
Q 1456 2553 1204 2497 
Q 953 2441 691 2322 
L 691 4666 
z
" transform="scale(0.015625)"/>
       </defs>
       <use xlink:href="#DejaVuSans-32"/>
       <use xlink:href="#DejaVuSans-30" x="63.623047"/>
       <use xlink:href="#DejaVuSans-32" x="127.246094"/>
       <use xlink:href="#DejaVuSans-32" x="190.869141"/>
       <use xlink:href="#DejaVuSans-2d" x="254.492188"/>
       <use xlink:href="#DejaVuSans-30" x="290.576172"/>
       <use xlink:href="#DejaVuSans-35" x="354.199219"/>
      </g>
     </g>
    </g>
    <g id="xtick_4">
     <g id="line2d_7">
      <path d="M 395.950309 320.4 
L 395.950309 43.2 
" clip-path="url(#pa3be210059)" style="fill: none; stroke-dasharray: 5.12,1.28,0.8,1.28; stroke-dashoffset: 0; stroke: #b0b0b0; stroke-width: 0.8"/>
     </g>
     <g id="line2d_8">
      <g>
       <use xlink:href="#m0588b0ad71" x="395.950309" y="320.4" style="fill: #a9a9a9; stroke: #a9a9a9; stroke-width: 0.8"/>
      </g>
     </g>
     <g id="text_4">
      <!-- 2022-09 -->
      <g style="fill: #a9a9a9" transform="translate(375.058903 334.998438) scale(0.1 -0.1)">
       <use xlink:href="#DejaVuSans-32"/>
       <use xlink:href="#DejaVuSans-30" x="63.623047"/>
       <use xlink:href="#DejaVuSans-32" x="127.246094"/>
       <use xlink:href="#DejaVuSans-32" x="190.869141"/>
       <use xlink:href="#DejaVuSans-2d" x="254.492188"/>
       <use xlink:href="#DejaVuSans-30" x="290.576172"/>
       <use xlink:href="#DejaVuSans-39" x="354.199219"/>
      </g>
     </g>
    </g>
    <g id="xtick_5">
     <g id="line2d_9">
      <path d="M 473.714422 320.4 
L 473.714422 43.2 
" clip-path="url(#pa3be210059)" style="fill: none; stroke-dasharray: 5.12,1.28,0.8,1.28; stroke-dashoffset: 0; stroke: #b0b0b0; stroke-width: 0.8"/>
     </g>
     <g id="line2d_10">
      <g>
       <use xlink:href="#m0588b0ad71" x="473.714422" y="320.4" style="fill: #a9a9a9; stroke: #a9a9a9; stroke-width: 0.8"/>
      </g>
     </g>
     <g id="text_5">
      <!-- 2023-01 -->
      <g style="fill: #a9a9a9" transform="translate(452.823015 334.998438) scale(0.1 -0.1)">
       <defs>
        <path id="DejaVuSans-33" d="M 2597 2516 
Q 3050 2419 3304 2112 
Q 3559 1806 3559 1356 
Q 3559 666 3084 287 
Q 2609 -91 1734 -91 
Q 1441 -91 1130 -33 
Q 819 25 488 141 
L 488 750 
Q 750 597 1062 519 
Q 1375 441 1716 441 
Q 2309 441 2620 675 
Q 2931 909 2931 1356 
Q 2931 1769 2642 2001 
Q 2353 2234 1838 2234 
L 1294 2234 
L 1294 2753 
L 1863 2753 
Q 2328 2753 2575 2939 
Q 2822 3125 2822 3475 
Q 2822 3834 2567 4026 
Q 2313 4219 1838 4219 
Q 1578 4219 1281 4162 
Q 984 4106 628 3988 
L 628 4550 
Q 988 4650 1302 4700 
Q 1616 4750 1894 4750 
Q 2613 4750 3031 4423 
Q 3450 4097 3450 3541 
Q 3450 3153 3228 2886 
Q 3006 2619 2597 2516 
z
" transform="scale(0.015625)"/>
       </defs>
       <use xlink:href="#DejaVuSans-32"/>
       <use xlink:href="#DejaVuSans-30" x="63.623047"/>
       <use xlink:href="#DejaVuSans-32" x="127.246094"/>
       <use xlink:href="#DejaVuSans-33" x="190.869141"/>
       <use xlink:href="#DejaVuSans-2d" x="254.492188"/>
       <use xlink:href="#DejaVuSans-30" x="290.576172"/>
       <use xlink:href="#DejaVuSans-31" x="354.199219"/>
      </g>
     </g>
    </g>
    <g id="xtick_6">
     <g id="line2d_11">
      <path d="M 550.203713 320.4 
L 550.203713 43.2 
" clip-path="url(#pa3be210059)" style="fill: none; stroke-dasharray: 5.12,1.28,0.8,1.28; stroke-dashoffset: 0; stroke: #b0b0b0; stroke-width: 0.8"/>
     </g>
     <g id="line2d_12">
      <g>
       <use xlink:href="#m0588b0ad71" x="550.203713" y="320.4" style="fill: #a9a9a9; stroke: #a9a9a9; stroke-width: 0.8"/>
      </g>
     </g>
     <g id="text_6">
      <!-- 2023-05 -->
      <g style="fill: #a9a9a9" transform="translate(529.312306 334.998438) scale(0.1 -0.1)">
       <use xlink:href="#DejaVuSans-32"/>
       <use xlink:href="#DejaVuSans-30" x="63.623047"/>
       <use xlink:href="#DejaVuSans-32" x="127.246094"/>
       <use xlink:href="#DejaVuSans-33" x="190.869141"/>
       <use xlink:href="#DejaVuSans-2d" x="254.492188"/>
       <use xlink:href="#DejaVuSans-30" x="290.576172"/>
       <use xlink:href="#DejaVuSans-35" x="354.199219"/>
      </g>
     </g>
    </g>
    <g id="xtick_7">
     <g id="line2d_13">
      <path d="M 628.605236 320.4 
L 628.605236 43.2 
" clip-path="url(#pa3be210059)" style="fill: none; stroke-dasharray: 5.12,1.28,0.8,1.28; stroke-dashoffset: 0; stroke: #b0b0b0; stroke-width: 0.8"/>
     </g>
     <g id="line2d_14">
      <g>
       <use xlink:href="#m0588b0ad71" x="628.605236" y="320.4" style="fill: #a9a9a9; stroke: #a9a9a9; stroke-width: 0.8"/>
      </g>
     </g>
     <g id="text_7">
      <!-- 2023-09 -->
      <g style="fill: #a9a9a9" transform="translate(607.713829 334.998438) scale(0.1 -0.1)">
       <use xlink:href="#DejaVuSans-32"/>
       <use xlink:href="#DejaVuSans-30" x="63.623047"/>
       <use xlink:href="#DejaVuSans-32" x="127.246094"/>
       <use xlink:href="#DejaVuSans-33" x="190.869141"/>
       <use xlink:href="#DejaVuSans-2d" x="254.492188"/>
       <use xlink:href="#DejaVuSans-30" x="290.576172"/>
       <use xlink:href="#DejaVuSans-39" x="354.199219"/>
      </g>
     </g>
    </g>
    <g id="xtick_8">
     <g id="line2d_15">
      <path d="M 706.369348 320.4 
L 706.369348 43.2 
" clip-path="url(#pa3be210059)" style="fill: none; stroke-dasharray: 5.12,1.28,0.8,1.28; stroke-dashoffset: 0; stroke: #b0b0b0; stroke-width: 0.8"/>
     </g>
     <g id="line2d_16">
      <g>
       <use xlink:href="#m0588b0ad71" x="706.369348" y="320.4" style="fill: #a9a9a9; stroke: #a9a9a9; stroke-width: 0.8"/>
      </g>
     </g>
     <g id="text_8">
      <!-- 2024-01 -->
      <g style="fill: #a9a9a9" transform="translate(685.477942 334.998438) scale(0.1 -0.1)">
       <defs>
        <path id="DejaVuSans-34" d="M 2419 4116 
L 825 1625 
L 2419 1625 
L 2419 4116 
z
M 2253 4666 
L 3047 4666 
L 3047 1625 
L 3713 1625 
L 3713 1100 
L 3047 1100 
L 3047 0 
L 2419 0 
L 2419 1100 
L 313 1100 
L 313 1709 
L 2253 4666 
z
" transform="scale(0.015625)"/>
       </defs>
       <use xlink:href="#DejaVuSans-32"/>
       <use xlink:href="#DejaVuSans-30" x="63.623047"/>
       <use xlink:href="#DejaVuSans-32" x="127.246094"/>
       <use xlink:href="#DejaVuSans-34" x="190.869141"/>
       <use xlink:href="#DejaVuSans-2d" x="254.492188"/>
       <use xlink:href="#DejaVuSans-30" x="290.576172"/>
       <use xlink:href="#DejaVuSans-31" x="354.199219"/>
      </g>
     </g>
    </g>
   </g>
   <g id="matplotlib.axis_2">
    <g id="ytick_1">
     <g id="line2d_17">
      <path d="M 108 307.844033 
L 777.6 307.844033 
" clip-path="url(#pa3be210059)" style="fill: none; stroke-dasharray: 5.12,1.28,0.8,1.28; stroke-dashoffset: 0; stroke: #b0b0b0; stroke-width: 0.8"/>
     </g>
     <g id="line2d_18">
      <defs>
       <path id="ma8a46cd3b7" d="M 0 0 
L -3.5 0 
" style="stroke: #a9a9a9; stroke-width: 0.8"/>
      </defs>
      <g>
       <use xlink:href="#ma8a46cd3b7" x="108" y="307.844033" style="fill: #a9a9a9; stroke: #a9a9a9; stroke-width: 0.8"/>
      </g>
     </g>
     <g id="text_9">
      <!-- 0 -->
      <g style="fill: #a9a9a9" transform="translate(94.6375 311.643252) scale(0.1 -0.1)">
       <use xlink:href="#DejaVuSans-30"/>
      </g>
     </g>
    </g>
    <g id="ytick_2">
     <g id="line2d_19">
      <path d="M 108 272.617753 
L 777.6 272.617753 
" clip-path="url(#pa3be210059)" style="fill: none; stroke-dasharray: 5.12,1.28,0.8,1.28; stroke-dashoffset: 0; stroke: #b0b0b0; stroke-width: 0.8"/>
     </g>
     <g id="line2d_20">
      <g>
       <use xlink:href="#ma8a46cd3b7" x="108" y="272.617753" style="fill: #a9a9a9; stroke: #a9a9a9; stroke-width: 0.8"/>
      </g>
     </g>
     <g id="text_10">
      <!-- 800 -->
      <g style="fill: #a9a9a9" transform="translate(81.9125 276.416972) scale(0.1 -0.1)">
       <defs>
        <path id="DejaVuSans-38" d="M 2034 2216 
Q 1584 2216 1326 1975 
Q 1069 1734 1069 1313 
Q 1069 891 1326 650 
Q 1584 409 2034 409 
Q 2484 409 2743 651 
Q 3003 894 3003 1313 
Q 3003 1734 2745 1975 
Q 2488 2216 2034 2216 
z
M 1403 2484 
Q 997 2584 770 2862 
Q 544 3141 544 3541 
Q 544 4100 942 4425 
Q 1341 4750 2034 4750 
Q 2731 4750 3128 4425 
Q 3525 4100 3525 3541 
Q 3525 3141 3298 2862 
Q 3072 2584 2669 2484 
Q 3125 2378 3379 2068 
Q 3634 1759 3634 1313 
Q 3634 634 3220 271 
Q 2806 -91 2034 -91 
Q 1263 -91 848 271 
Q 434 634 434 1313 
Q 434 1759 690 2068 
Q 947 2378 1403 2484 
z
M 1172 3481 
Q 1172 3119 1398 2916 
Q 1625 2713 2034 2713 
Q 2441 2713 2670 2916 
Q 2900 3119 2900 3481 
Q 2900 3844 2670 4047 
Q 2441 4250 2034 4250 
Q 1625 4250 1398 4047 
Q 1172 3844 1172 3481 
z
" transform="scale(0.015625)"/>
       </defs>
       <use xlink:href="#DejaVuSans-38"/>
       <use xlink:href="#DejaVuSans-30" x="63.623047"/>
       <use xlink:href="#DejaVuSans-30" x="127.246094"/>
      </g>
     </g>
    </g>
    <g id="ytick_3">
     <g id="line2d_21">
      <path d="M 108 237.391473 
L 777.6 237.391473 
" clip-path="url(#pa3be210059)" style="fill: none; stroke-dasharray: 5.12,1.28,0.8,1.28; stroke-dashoffset: 0; stroke: #b0b0b0; stroke-width: 0.8"/>
     </g>
     <g id="line2d_22">
      <g>
       <use xlink:href="#ma8a46cd3b7" x="108" y="237.391473" style="fill: #a9a9a9; stroke: #a9a9a9; stroke-width: 0.8"/>
      </g>
     </g>
     <g id="text_11">
      <!-- 1600 -->
      <g style="fill: #a9a9a9" transform="translate(75.55 241.190692) scale(0.1 -0.1)">
       <defs>
        <path id="DejaVuSans-36" d="M 2113 2584 
Q 1688 2584 1439 2293 
Q 1191 2003 1191 1497 
Q 1191 994 1439 701 
Q 1688 409 2113 409 
Q 2538 409 2786 701 
Q 3034 994 3034 1497 
Q 3034 2003 2786 2293 
Q 2538 2584 2113 2584 
z
M 3366 4563 
L 3366 3988 
Q 3128 4100 2886 4159 
Q 2644 4219 2406 4219 
Q 1781 4219 1451 3797 
Q 1122 3375 1075 2522 
Q 1259 2794 1537 2939 
Q 1816 3084 2150 3084 
Q 2853 3084 3261 2657 
Q 3669 2231 3669 1497 
Q 3669 778 3244 343 
Q 2819 -91 2113 -91 
Q 1303 -91 875 529 
Q 447 1150 447 2328 
Q 447 3434 972 4092 
Q 1497 4750 2381 4750 
Q 2619 4750 2861 4703 
Q 3103 4656 3366 4563 
z
" transform="scale(0.015625)"/>
       </defs>
       <use xlink:href="#DejaVuSans-31"/>
       <use xlink:href="#DejaVuSans-36" x="63.623047"/>
       <use xlink:href="#DejaVuSans-30" x="127.246094"/>
       <use xlink:href="#DejaVuSans-30" x="190.869141"/>
      </g>
     </g>
    </g>
    <g id="ytick_4">
     <g id="line2d_23">
      <path d="M 108 202.165193 
L 777.6 202.165193 
" clip-path="url(#pa3be210059)" style="fill: none; stroke-dasharray: 5.12,1.28,0.8,1.28; stroke-dashoffset: 0; stroke: #b0b0b0; stroke-width: 0.8"/>
     </g>
     <g id="line2d_24">
      <g>
       <use xlink:href="#ma8a46cd3b7" x="108" y="202.165193" style="fill: #a9a9a9; stroke: #a9a9a9; stroke-width: 0.8"/>
      </g>
     </g>
     <g id="text_12">
      <!-- 2400 -->
      <g style="fill: #a9a9a9" transform="translate(75.55 205.964412) scale(0.1 -0.1)">
       <use xlink:href="#DejaVuSans-32"/>
       <use xlink:href="#DejaVuSans-34" x="63.623047"/>
       <use xlink:href="#DejaVuSans-30" x="127.246094"/>
       <use xlink:href="#DejaVuSans-30" x="190.869141"/>
      </g>
     </g>
    </g>
    <g id="ytick_5">
     <g id="line2d_25">
      <path d="M 108 166.938913 
L 777.6 166.938913 
" clip-path="url(#pa3be210059)" style="fill: none; stroke-dasharray: 5.12,1.28,0.8,1.28; stroke-dashoffset: 0; stroke: #b0b0b0; stroke-width: 0.8"/>
     </g>
     <g id="line2d_26">
      <g>
       <use xlink:href="#ma8a46cd3b7" x="108" y="166.938913" style="fill: #a9a9a9; stroke: #a9a9a9; stroke-width: 0.8"/>
      </g>
     </g>
     <g id="text_13">
      <!-- 3200 -->
      <g style="fill: #a9a9a9" transform="translate(75.55 170.738132) scale(0.1 -0.1)">
       <use xlink:href="#DejaVuSans-33"/>
       <use xlink:href="#DejaVuSans-32" x="63.623047"/>
       <use xlink:href="#DejaVuSans-30" x="127.246094"/>
       <use xlink:href="#DejaVuSans-30" x="190.869141"/>
      </g>
     </g>
    </g>
    <g id="ytick_6">
     <g id="line2d_27">
      <path d="M 108 131.712633 
L 777.6 131.712633 
" clip-path="url(#pa3be210059)" style="fill: none; stroke-dasharray: 5.12,1.28,0.8,1.28; stroke-dashoffset: 0; stroke: #b0b0b0; stroke-width: 0.8"/>
     </g>
     <g id="line2d_28">
      <g>
       <use xlink:href="#ma8a46cd3b7" x="108" y="131.712633" style="fill: #a9a9a9; stroke: #a9a9a9; stroke-width: 0.8"/>
      </g>
     </g>
     <g id="text_14">
      <!-- 4000 -->
      <g style="fill: #a9a9a9" transform="translate(75.55 135.511852) scale(0.1 -0.1)">
       <use xlink:href="#DejaVuSans-34"/>
       <use xlink:href="#DejaVuSans-30" x="63.623047"/>
       <use xlink:href="#DejaVuSans-30" x="127.246094"/>
       <use xlink:href="#DejaVuSans-30" x="190.869141"/>
      </g>
     </g>
    </g>
    <g id="ytick_7">
     <g id="line2d_29">
      <path d="M 108 96.486353 
L 777.6 96.486353 
" clip-path="url(#pa3be210059)" style="fill: none; stroke-dasharray: 5.12,1.28,0.8,1.28; stroke-dashoffset: 0; stroke: #b0b0b0; stroke-width: 0.8"/>
     </g>
     <g id="line2d_30">
      <g>
       <use xlink:href="#ma8a46cd3b7" x="108" y="96.486353" style="fill: #a9a9a9; stroke: #a9a9a9; stroke-width: 0.8"/>
      </g>
     </g>
     <g id="text_15">
      <!-- 4800 -->
      <g style="fill: #a9a9a9" transform="translate(75.55 100.285572) scale(0.1 -0.1)">
       <use xlink:href="#DejaVuSans-34"/>
       <use xlink:href="#DejaVuSans-38" x="63.623047"/>
       <use xlink:href="#DejaVuSans-30" x="127.246094"/>
       <use xlink:href="#DejaVuSans-30" x="190.869141"/>
      </g>
     </g>
    </g>
    <g id="ytick_8">
     <g id="line2d_31">
      <path d="M 108 61.260073 
L 777.6 61.260073 
" clip-path="url(#pa3be210059)" style="fill: none; stroke-dasharray: 5.12,1.28,0.8,1.28; stroke-dashoffset: 0; stroke: #b0b0b0; stroke-width: 0.8"/>
     </g>
     <g id="line2d_32">
      <g>
       <use xlink:href="#ma8a46cd3b7" x="108" y="61.260073" style="fill: #a9a9a9; stroke: #a9a9a9; stroke-width: 0.8"/>
      </g>
     </g>
     <g id="text_16">
      <!-- 5600 -->
      <g style="fill: #a9a9a9" transform="translate(75.55 65.059292) scale(0.1 -0.1)">
       <use xlink:href="#DejaVuSans-35"/>
       <use xlink:href="#DejaVuSans-36" x="63.623047"/>
       <use xlink:href="#DejaVuSans-30" x="127.246094"/>
       <use xlink:href="#DejaVuSans-30" x="190.869141"/>
      </g>
     </g>
    </g>
   </g>
   <g id="line2d_33">
    <path d="M 138.436364 307.711934 
L 142.260828 307.403704 
L 142.898239 307.139507 
L 144.810471 306.919343 
L 148.634936 306.170785 
L 152.4594 305.862555 
L 153.096811 305.554325 
L 153.734222 305.378193 
L 154.371633 304.585602 
L 155.009043 304.145273 
L 155.646454 302.780255 
L 156.283865 302.692189 
L 156.921276 302.207828 
L 158.196097 301.591368 
L 160.74574 299.653923 
L 162.020562 299.125529 
L 162.657972 298.6852 
L 165.207615 297.584379 
L 165.845026 296.571623 
L 167.119848 295.646933 
L 167.757258 295.338703 
L 174.131366 294.458046 
L 174.768777 294.149817 
L 179.230652 293.797554 
L 181.142884 293.313192 
L 186.879581 292.564634 
L 187.516992 292.212371 
L 188.154403 292.124305 
L 188.791813 291.860108 
L 190.066635 291.639944 
L 190.704046 291.595911 
L 191.341456 291.375747 
L 193.891099 290.979451 
L 195.165921 290.627189 
L 197.078153 290.451057 
L 198.352975 290.318959 
L 198.990386 290.142827 
L 199.627796 290.098794 
L 201.540029 289.526367 
L 205.364493 288.95394 
L 206.001904 288.777809 
L 206.639315 287.897152 
L 208.551547 287.192626 
L 210.463779 286.664232 
L 211.10119 286.356002 
L 211.738601 286.311969 
L 214.925654 285.431312 
L 216.200476 285.343247 
L 216.837887 285.255181 
L 218.750119 284.682754 
L 221.299762 284.066294 
L 221.937173 283.802097 
L 222.574584 283.714031 
L 223.211994 283.405801 
L 229.586102 282.437078 
L 232.773156 281.556421 
L 233.410566 281.160126 
L 235.960209 280.499633 
L 237.235031 279.751075 
L 237.872442 279.310746 
L 239.784674 278.958483 
L 243.609139 277.813629 
L 244.88396 277.417334 
L 245.521371 277.329268 
L 246.796192 276.977005 
L 248.071014 276.668775 
L 248.708425 276.580709 
L 249.983246 276.052315 
L 250.620657 275.920217 
L 251.258068 275.65602 
L 251.895478 275.567954 
L 252.532889 275.259724 
L 253.1703 275.083593 
L 254.445121 274.995527 
L 255.719943 274.555198 
L 256.994764 274.467133 
L 257.632175 274.158903 
L 260.181818 273.718574 
L 262.731461 273.49841 
L 263.368872 273.366311 
L 264.643693 272.749851 
L 271.655212 269.799651 
L 272.292623 269.447388 
L 272.930033 268.742862 
L 273.567444 267.686074 
L 274.204855 266.84945 
L 274.842266 266.673318 
L 275.479676 266.673318 
L 276.754498 265.748628 
L 277.391909 265.572497 
L 278.029319 265.220234 
L 278.66673 265.088136 
L 279.304141 264.515709 
L 279.941552 264.339577 
L 281.853784 263.414887 
L 283.128605 261.653573 
L 283.766016 261.257278 
L 284.403427 260.200489 
L 285.040838 259.539997 
L 285.678248 259.231767 
L 286.315659 259.055635 
L 288.865302 257.558518 
L 290.140124 256.545763 
L 290.777535 256.149467 
L 291.414945 255.224777 
L 292.052356 253.771693 
L 292.689767 252.847003 
L 293.327178 252.362642 
L 293.964588 252.098445 
L 296.514231 249.896802 
L 297.789053 248.884047 
L 298.426464 248.355653 
L 299.063874 247.519028 
L 300.338696 246.418207 
L 302.888339 244.788992 
L 303.52575 244.216565 
L 304.16316 244.084466 
L 304.800571 243.820269 
L 306.075393 243.115743 
L 307.987625 242.147021 
L 309.262446 240.958134 
L 309.899857 240.209575 
L 311.174679 239.328918 
L 311.812089 239.152787 
L 312.4495 238.844557 
L 313.724322 238.007933 
L 314.361733 237.65567 
L 314.999143 237.567604 
L 316.273965 236.863079 
L 316.911376 236.510816 
L 317.548786 235.850323 
L 318.186197 235.454028 
L 318.823608 235.233863 
L 320.098429 234.485305 
L 320.73584 234.133042 
L 321.373251 233.912878 
L 323.285483 232.679958 
L 325.197715 232.107531 
L 325.835126 231.667203 
L 326.472537 231.535104 
L 327.747358 231.094775 
L 329.659591 230.346217 
L 331.571823 229.641691 
L 332.846644 229.421527 
L 334.121466 228.320706 
L 335.396287 227.704246 
L 336.671109 226.99972 
L 337.30852 226.647458 
L 338.583341 226.295195 
L 339.220752 225.898899 
L 339.858163 225.722768 
L 341.770395 224.533881 
L 344.957449 223.785322 
L 346.869681 222.684501 
L 347.507092 222.596435 
L 348.144503 222.376271 
L 349.419324 222.112074 
L 351.331556 220.703023 
L 353.243789 220.262694 
L 353.881199 220.04253 
L 354.51861 219.558169 
L 358.343075 218.325249 
L 358.980485 218.281216 
L 363.442361 216.696034 
L 364.079772 216.387804 
L 365.992004 215.947475 
L 367.266825 215.639245 
L 367.904236 215.331015 
L 368.541647 215.198917 
L 370.453879 214.31826 
L 372.366111 213.39357 
L 373.003522 212.953241 
L 373.640933 212.77711 
L 375.553165 211.764354 
L 376.827987 211.456124 
L 378.102808 210.795632 
L 379.37763 210.443369 
L 380.01504 210.355303 
L 381.289862 209.606745 
L 381.927273 209.474646 
L 383.202094 208.946252 
L 383.839505 208.814153 
L 384.476916 208.461891 
L 387.026559 208.065595 
L 388.30138 207.449135 
L 388.938791 206.920741 
L 389.576202 205.81992 
L 390.851023 205.555723 
L 391.488434 205.423624 
L 394.038077 204.102638 
L 394.675488 203.97054 
L 399.774774 201.548733 
L 401.687006 201.152438 
L 402.324417 200.800175 
L 406.148881 199.479189 
L 407.423703 198.686598 
L 408.698525 197.938039 
L 409.335935 197.849974 
L 409.973346 197.62981 
L 410.610757 197.585777 
L 413.797811 196.749153 
L 414.435221 196.264791 
L 415.710043 195.824463 
L 417.622275 195.208003 
L 418.259686 194.811707 
L 418.897097 194.635576 
L 419.534507 194.195247 
L 420.171918 193.93105 
L 420.809329 193.534754 
L 422.08415 193.094426 
L 423.996383 192.477966 
L 424.633793 192.169736 
L 426.546026 190.716652 
L 427.183436 190.584554 
L 428.458258 189.615831 
L 429.095669 189.483732 
L 429.733079 188.51501 
L 430.37049 188.250813 
L 431.007901 187.766451 
L 431.645312 187.678385 
L 432.920133 186.929827 
L 433.557544 186.797728 
L 434.194955 186.533531 
L 434.832366 186.04917 
L 435.469776 185.829006 
L 437.382009 184.552053 
L 439.931652 183.2751 
L 440.569062 183.187035 
L 441.843884 182.614608 
L 442.481295 182.262345 
L 443.118705 181.205557 
L 443.756116 180.633129 
L 444.393527 180.280867 
L 445.030938 180.148768 
L 446.305759 179.356177 
L 446.94317 179.224078 
L 448.217991 178.607618 
L 450.130224 177.815027 
L 451.405045 176.93437 
L 452.679867 175.613385 
L 455.866921 173.323676 
L 457.141742 172.266888 
L 457.779153 172.002691 
L 458.416564 171.298165 
L 459.053974 170.813804 
L 460.328796 170.373475 
L 460.966207 169.845081 
L 462.241028 169.184589 
L 462.878439 169.008457 
L 463.51585 168.568129 
L 464.15326 168.43603 
L 466.065493 167.423275 
L 467.340314 166.674716 
L 473.714422 164.429041 
L 474.351832 163.856614 
L 476.264065 163.152088 
L 477.538886 162.755792 
L 478.176297 162.271431 
L 480.72594 160.950446 
L 481.363351 160.598183 
L 482.638172 158.08831 
L 483.912994 156.591193 
L 485.187815 155.842635 
L 487.100048 155.094077 
L 487.737458 155.006011 
L 488.374869 154.653748 
L 490.287101 154.081321 
L 492.836744 152.936467 
L 493.474155 152.540171 
L 494.748977 152.099843 
L 498.573441 149.8982 
L 499.210852 149.237707 
L 500.485673 148.533182 
L 501.123084 148.180919 
L 501.760495 147.960755 
L 502.397906 147.520426 
L 503.672727 146.903966 
L 505.58496 145.891211 
L 506.22237 145.71508 
L 506.859781 145.230718 
L 507.497192 144.966521 
L 508.134603 144.834423 
L 509.409424 144.394094 
L 511.321656 143.689568 
L 511.959067 143.24924 
L 513.233889 142.896977 
L 514.50871 142.412616 
L 515.146121 141.928254 
L 516.420942 141.531959 
L 517.058353 141.223729 
L 517.695764 141.047597 
L 518.970585 140.16694 
L 520.245407 139.594513 
L 521.520228 138.625791 
L 522.79505 138.185462 
L 523.432461 137.657068 
L 524.069871 137.569002 
L 525.344693 136.644312 
L 526.619515 136.027853 
L 527.256925 135.763655 
L 527.894336 135.147196 
L 531.718801 133.782177 
L 533.631033 132.945553 
L 535.543265 132.373126 
L 536.818087 132.196995 
L 537.455497 131.932797 
L 538.092908 131.844732 
L 539.36773 131.316338 
L 540.00514 131.272305 
L 542.554783 130.347615 
L 544.467016 129.026629 
L 545.104426 128.762432 
L 545.741837 128.366137 
L 547.654069 127.529512 
L 549.566302 126.384658 
L 550.203713 125.988363 
L 551.478534 125.680133 
L 552.753356 124.799476 
L 555.302999 124.006885 
L 555.940409 123.742687 
L 557.215231 123.434457 
L 560.402285 122.421702 
L 562.314517 122.069439 
L 564.86416 121.276848 
L 565.501571 121.012651 
L 566.138981 120.924585 
L 566.776392 120.616355 
L 568.051214 120.352158 
L 568.688624 120.043928 
L 570.600857 119.6036 
L 571.875678 119.339402 
L 575.700143 118.634877 
L 576.974964 118.37068 
L 577.612375 118.238581 
L 578.249786 117.974384 
L 578.887197 117.930351 
L 580.799429 117.401957 
L 581.43684 117.049694 
L 584.623893 116.257103 
L 585.261304 116.125004 
L 586.536126 115.684676 
L 588.448358 115.024183 
L 589.085769 114.936117 
L 590.998001 114.275625 
L 591.635412 114.275625 
L 592.910233 113.835296 
L 593.547644 113.218836 
L 594.185055 112.910606 
L 595.459876 112.514311 
L 598.009519 111.545588 
L 598.64693 111.413489 
L 599.284341 111.017194 
L 599.921752 110.885095 
L 600.559162 110.4888 
L 603.746216 109.56411 
L 604.383627 109.167814 
L 605.021038 108.991683 
L 605.658448 108.463288 
L 607.570681 108.111026 
L 608.845502 107.4065 
L 609.482913 106.701974 
L 610.757734 106.437777 
L 615.21961 105.425022 
L 615.85702 105.24889 
L 617.131842 105.204858 
L 617.769253 104.896628 
L 620.318896 104.456299 
L 620.956307 104.148069 
L 622.868539 103.883872 
L 625.418182 103.091281 
L 627.330414 102.650952 
L 629.242646 102.166591 
L 631.792289 101.374 
L 632.4297 101.241901 
L 633.067111 100.933671 
L 633.704522 100.845605 
L 634.341932 100.625441 
L 634.979343 100.229146 
L 636.891575 99.52462 
L 637.528986 99.040259 
L 638.803808 98.687996 
L 639.441218 98.423799 
L 640.71604 98.071536 
L 643.265683 96.926682 
L 645.177915 96.794583 
L 647.727558 96.001992 
L 648.364969 95.605696 
L 649.639791 95.209401 
L 651.552023 94.240678 
L 652.189434 94.108579 
L 652.826844 93.800349 
L 653.464255 93.712284 
L 660.475773 91.378543 
L 663.025416 90.762083 
L 663.662827 90.585951 
L 664.937649 90.013524 
L 665.575059 89.925459 
L 666.849881 89.573196 
L 667.487292 89.088835 
L 668.124703 88.780605 
L 668.762113 88.032046 
L 669.399524 87.591718 
L 670.674346 87.195422 
L 671.311756 86.667028 
L 678.323275 83.804893 
L 679.598096 83.496663 
L 680.872918 82.924236 
L 682.78515 81.823414 
L 683.422561 81.691316 
L 684.059971 81.206954 
L 685.334793 80.590494 
L 686.609614 79.797903 
L 688.521847 78.917246 
L 689.159257 78.476918 
L 690.434079 77.992556 
L 691.708901 77.243998 
L 692.346311 76.935768 
L 692.983722 76.495439 
L 694.258544 76.055111 
L 694.895954 75.923012 
L 697.445597 74.778158 
L 700.632651 73.677337 
L 701.270062 73.633304 
L 701.907473 73.457173 
L 702.544883 73.060877 
L 703.182294 72.972811 
L 703.819705 72.752647 
L 705.731937 72.400384 
L 708.918991 70.771169 
L 710.193812 70.066643 
L 710.831223 69.978578 
L 712.743455 68.965822 
L 714.655688 68.261297 
L 716.56792 67.424672 
L 719.117563 66.411917 
L 719.754974 66.235785 
L 720.392385 65.83949 
L 721.667206 65.663358 
L 722.304617 65.267063 
L 722.942028 65.22303 
L 724.216849 64.826734 
L 725.491671 64.210274 
L 726.129081 64.122209 
L 726.766492 63.858012 
L 727.403903 63.725913 
L 729.316135 62.889289 
L 729.953546 62.75719 
L 730.590957 62.492993 
L 733.77801 61.744435 
L 735.690243 60.995876 
L 737.602475 59.851022 
L 738.877297 59.322628 
L 739.514707 59.058431 
L 740.152118 58.662135 
L 741.42694 58.397938 
L 742.06435 58.045675 
L 742.701761 57.913577 
L 743.976583 57.209051 
L 746.526226 56.020164 
L 747.163636 55.8 
L 747.163636 55.8 
" clip-path="url(#pa3be210059)" style="fill: none; stroke: #1f77b4; stroke-width: 1.5; stroke-linecap: square"/>
   </g>
   <g id="line2d_34">
    <path d="M 139.073774 307.8 
L 140.986007 307.711934 
L 142.898239 307.667901 
L 146.722703 307.579836 
L 149.909757 307.447737 
L 152.4594 307.447737 
L 153.096811 307.271606 
L 155.646454 307.18354 
L 157.558686 306.963376 
L 159.470919 306.787244 
L 163.295383 306.611113 
L 163.932794 306.611113 
L 164.570205 306.479015 
L 167.119848 306.390949 
L 168.394669 306.302883 
L 173.493955 306.214817 
L 176.681009 306.082719 
L 184.329938 305.994653 
L 187.516992 305.862555 
L 191.341456 305.774489 
L 193.891099 305.686423 
L 199.627796 305.598358 
L 201.540029 305.554325 
L 203.452261 305.510292 
L 205.364493 305.290128 
L 209.188958 305.246095 
L 210.463779 305.158029 
L 214.925654 305.069963 
L 221.937173 304.673668 
L 226.399048 304.585602 
L 227.67387 304.497536 
L 229.586102 304.409471 
L 233.410566 304.233339 
L 235.960209 304.189306 
L 237.872442 304.013175 
L 248.071014 303.396715 
L 250.620657 303.308649 
L 255.082532 303.088485 
L 256.994764 303.000419 
L 263.368872 302.648157 
L 270.38039 302.560091 
L 272.930033 302.295894 
L 274.204855 302.207828 
L 282.491195 301.547335 
L 286.315659 301.062974 
L 288.865302 300.974908 
L 293.964588 300.314416 
L 297.151642 300.22635 
L 305.437982 299.565857 
L 308.625036 299.213594 
L 311.174679 299.125529 
L 312.4495 299.037463 
L 314.999143 298.949397 
L 316.273965 298.861331 
L 319.461019 298.553102 
L 320.098429 298.37697 
L 323.922894 298.200839 
L 327.109948 298.112773 
L 335.396287 297.628412 
L 337.30852 297.540346 
L 345.59486 297.055985 
L 350.056735 296.967919 
L 350.694146 296.83582 
L 355.793432 296.747755 
L 360.255307 296.52759 
L 367.266825 296.439525 
L 371.728701 296.21936 
L 376.827987 296.131295 
L 381.927273 295.867098 
L 386.389148 295.779032 
L 398.499952 295.030474 
L 403.599238 294.942408 
L 420.171918 293.885619 
L 423.996383 293.797554 
L 425.908615 293.753521 
L 427.820847 293.709488 
L 429.733079 293.533357 
L 434.832366 293.445291 
L 436.107187 293.225127 
L 437.382009 293.137061 
L 440.569062 293.004962 
L 441.843884 292.916897 
L 443.118705 292.828831 
L 448.855402 292.740765 
L 450.130224 292.608667 
L 452.679867 292.564634 
L 453.317277 292.432535 
L 454.592099 292.34447 
L 455.22951 292.212371 
L 457.141742 292.124305 
L 467.977725 291.463813 
L 469.889957 291.375747 
L 473.077011 291.243648 
L 482.000762 291.155583 
L 486.462637 290.935418 
L 491.561923 290.847353 
L 494.111566 290.759287 
L 496.661209 290.715254 
L 497.93603 290.583156 
L 500.485673 290.49509 
L 506.859781 290.142827 
L 510.684246 290.098794 
L 512.596478 289.922663 
L 514.50871 289.87863 
L 518.970585 289.790564 
L 521.520228 289.702499 
L 529.169158 289.614433 
L 532.356211 289.482334 
L 536.180676 289.394269 
L 538.092908 289.174104 
L 541.917373 289.130072 
L 543.829605 288.95394 
L 546.379248 288.865875 
L 554.028177 288.777809 
L 557.215231 288.64571 
L 568.051214 288.601677 
L 569.326035 288.513612 
L 571.238267 288.469579 
L 579.524607 288.381513 
L 580.799429 288.293447 
L 587.810947 288.205382 
L 590.36059 288.117316 
L 598.009519 288.073283 
L 599.284341 287.985218 
L 608.845502 287.941185 
L 610.757734 287.765053 
L 621.593717 287.676988 
L 623.50595 287.632955 
L 640.078629 287.544889 
L 641.990861 287.500856 
L 654.101666 287.41279 
L 656.651309 287.324725 
L 661.113184 287.236659 
L 666.21247 286.972462 
L 668.762113 286.884396 
L 671.311756 286.796331 
L 675.136221 286.708265 
L 677.048453 286.664232 
L 679.598096 286.576166 
L 681.510328 286.532133 
L 684.697382 286.444068 
L 685.972204 286.356002 
L 689.796668 286.267936 
L 692.983722 286.135838 
L 694.258544 286.091805 
L 696.170776 285.915674 
L 699.99524 285.827608 
L 702.544883 285.739542 
L 708.918991 285.651476 
L 712.106045 285.519378 
L 718.480152 285.431312 
L 722.942028 285.211148 
L 728.678724 285.123082 
L 729.953546 285.035017 
L 737.602475 284.946951 
L 739.514707 284.902918 
L 746.526226 284.814852 
L 747.163636 284.726787 
L 747.163636 284.726787 
" clip-path="url(#pa3be210059)" style="fill: none; stroke: #ff7f0e; stroke-width: 1.5; stroke-linecap: square"/>
   </g>
   <g id="patch_3">
    <path d="M 108 320.4 
L 108 43.2 
" style="fill: none; stroke: #a9a9a9; stroke-width: 0.8; stroke-linejoin: miter; stroke-linecap: square"/>
   </g>
   <g id="patch_4">
    <path d="M 777.6 320.4 
L 777.6 43.2 
" style="fill: none"/>
   </g>
   <g id="patch_5">
    <path d="M 108 320.4 
L 777.6 320.4 
" style="fill: none; stroke: #a9a9a9; stroke-width: 0.8; stroke-linejoin: miter; stroke-linecap: square"/>
   </g>
   <g id="patch_6">
    <path d="M 108 43.2 
L 777.6 43.2 
" style="fill: none"/>
   </g>
   <g id="text_17">
    <!-- get_subscribe history -->
    <g style="fill: #a9a9a9" transform="translate(378.6075 37.2) scale(0.12 -0.12)">
     <defs>
      <path id="DejaVuSans-67" d="M 2906 1791 
Q 2906 2416 2648 2759 
Q 2391 3103 1925 3103 
Q 1463 3103 1205 2759 
Q 947 2416 947 1791 
Q 947 1169 1205 825 
Q 1463 481 1925 481 
Q 2391 481 2648 825 
Q 2906 1169 2906 1791 
z
M 3481 434 
Q 3481 -459 3084 -895 
Q 2688 -1331 1869 -1331 
Q 1566 -1331 1297 -1286 
Q 1028 -1241 775 -1147 
L 775 -588 
Q 1028 -725 1275 -790 
Q 1522 -856 1778 -856 
Q 2344 -856 2625 -561 
Q 2906 -266 2906 331 
L 2906 616 
Q 2728 306 2450 153 
Q 2172 0 1784 0 
Q 1141 0 747 490 
Q 353 981 353 1791 
Q 353 2603 747 3093 
Q 1141 3584 1784 3584 
Q 2172 3584 2450 3431 
Q 2728 3278 2906 2969 
L 2906 3500 
L 3481 3500 
L 3481 434 
z
" transform="scale(0.015625)"/>
      <path id="DejaVuSans-65" d="M 3597 1894 
L 3597 1613 
L 953 1613 
Q 991 1019 1311 708 
Q 1631 397 2203 397 
Q 2534 397 2845 478 
Q 3156 559 3463 722 
L 3463 178 
Q 3153 47 2828 -22 
Q 2503 -91 2169 -91 
Q 1331 -91 842 396 
Q 353 884 353 1716 
Q 353 2575 817 3079 
Q 1281 3584 2069 3584 
Q 2775 3584 3186 3129 
Q 3597 2675 3597 1894 
z
M 3022 2063 
Q 3016 2534 2758 2815 
Q 2500 3097 2075 3097 
Q 1594 3097 1305 2825 
Q 1016 2553 972 2059 
L 3022 2063 
z
" transform="scale(0.015625)"/>
      <path id="DejaVuSans-74" d="M 1172 4494 
L 1172 3500 
L 2356 3500 
L 2356 3053 
L 1172 3053 
L 1172 1153 
Q 1172 725 1289 603 
Q 1406 481 1766 481 
L 2356 481 
L 2356 0 
L 1766 0 
Q 1100 0 847 248 
Q 594 497 594 1153 
L 594 3053 
L 172 3053 
L 172 3500 
L 594 3500 
L 594 4494 
L 1172 4494 
z
" transform="scale(0.015625)"/>
      <path id="DejaVuSans-5f" d="M 3263 -1063 
L 3263 -1509 
L -63 -1509 
L -63 -1063 
L 3263 -1063 
z
" transform="scale(0.015625)"/>
      <path id="DejaVuSans-73" d="M 2834 3397 
L 2834 2853 
Q 2591 2978 2328 3040 
Q 2066 3103 1784 3103 
Q 1356 3103 1142 2972 
Q 928 2841 928 2578 
Q 928 2378 1081 2264 
Q 1234 2150 1697 2047 
L 1894 2003 
Q 2506 1872 2764 1633 
Q 3022 1394 3022 966 
Q 3022 478 2636 193 
Q 2250 -91 1575 -91 
Q 1294 -91 989 -36 
Q 684 19 347 128 
L 347 722 
Q 666 556 975 473 
Q 1284 391 1588 391 
Q 1994 391 2212 530 
Q 2431 669 2431 922 
Q 2431 1156 2273 1281 
Q 2116 1406 1581 1522 
L 1381 1569 
Q 847 1681 609 1914 
Q 372 2147 372 2553 
Q 372 3047 722 3315 
Q 1072 3584 1716 3584 
Q 2034 3584 2315 3537 
Q 2597 3491 2834 3397 
z
" transform="scale(0.015625)"/>
      <path id="DejaVuSans-75" d="M 544 1381 
L 544 3500 
L 1119 3500 
L 1119 1403 
Q 1119 906 1312 657 
Q 1506 409 1894 409 
Q 2359 409 2629 706 
Q 2900 1003 2900 1516 
L 2900 3500 
L 3475 3500 
L 3475 0 
L 2900 0 
L 2900 538 
Q 2691 219 2414 64 
Q 2138 -91 1772 -91 
Q 1169 -91 856 284 
Q 544 659 544 1381 
z
M 1991 3584 
L 1991 3584 
z
" transform="scale(0.015625)"/>
      <path id="DejaVuSans-62" d="M 3116 1747 
Q 3116 2381 2855 2742 
Q 2594 3103 2138 3103 
Q 1681 3103 1420 2742 
Q 1159 2381 1159 1747 
Q 1159 1113 1420 752 
Q 1681 391 2138 391 
Q 2594 391 2855 752 
Q 3116 1113 3116 1747 
z
M 1159 2969 
Q 1341 3281 1617 3432 
Q 1894 3584 2278 3584 
Q 2916 3584 3314 3078 
Q 3713 2572 3713 1747 
Q 3713 922 3314 415 
Q 2916 -91 2278 -91 
Q 1894 -91 1617 61 
Q 1341 213 1159 525 
L 1159 0 
L 581 0 
L 581 4863 
L 1159 4863 
L 1159 2969 
z
" transform="scale(0.015625)"/>
      <path id="DejaVuSans-63" d="M 3122 3366 
L 3122 2828 
Q 2878 2963 2633 3030 
Q 2388 3097 2138 3097 
Q 1578 3097 1268 2742 
Q 959 2388 959 1747 
Q 959 1106 1268 751 
Q 1578 397 2138 397 
Q 2388 397 2633 464 
Q 2878 531 3122 666 
L 3122 134 
Q 2881 22 2623 -34 
Q 2366 -91 2075 -91 
Q 1284 -91 818 406 
Q 353 903 353 1747 
Q 353 2603 823 3093 
Q 1294 3584 2113 3584 
Q 2378 3584 2631 3529 
Q 2884 3475 3122 3366 
z
" transform="scale(0.015625)"/>
      <path id="DejaVuSans-72" d="M 2631 2963 
Q 2534 3019 2420 3045 
Q 2306 3072 2169 3072 
Q 1681 3072 1420 2755 
Q 1159 2438 1159 1844 
L 1159 0 
L 581 0 
L 581 3500 
L 1159 3500 
L 1159 2956 
Q 1341 3275 1631 3429 
Q 1922 3584 2338 3584 
Q 2397 3584 2469 3576 
Q 2541 3569 2628 3553 
L 2631 2963 
z
" transform="scale(0.015625)"/>
      <path id="DejaVuSans-69" d="M 603 3500 
L 1178 3500 
L 1178 0 
L 603 0 
L 603 3500 
z
M 603 4863 
L 1178 4863 
L 1178 4134 
L 603 4134 
L 603 4863 
z
" transform="scale(0.015625)"/>
      <path id="DejaVuSans-20" transform="scale(0.015625)"/>
      <path id="DejaVuSans-68" d="M 3513 2113 
L 3513 0 
L 2938 0 
L 2938 2094 
Q 2938 2591 2744 2837 
Q 2550 3084 2163 3084 
Q 1697 3084 1428 2787 
Q 1159 2491 1159 1978 
L 1159 0 
L 581 0 
L 581 4863 
L 1159 4863 
L 1159 2956 
Q 1366 3272 1645 3428 
Q 1925 3584 2291 3584 
Q 2894 3584 3203 3211 
Q 3513 2838 3513 2113 
z
" transform="scale(0.015625)"/>
      <path id="DejaVuSans-6f" d="M 1959 3097 
Q 1497 3097 1228 2736 
Q 959 2375 959 1747 
Q 959 1119 1226 758 
Q 1494 397 1959 397 
Q 2419 397 2687 759 
Q 2956 1122 2956 1747 
Q 2956 2369 2687 2733 
Q 2419 3097 1959 3097 
z
M 1959 3584 
Q 2709 3584 3137 3096 
Q 3566 2609 3566 1747 
Q 3566 888 3137 398 
Q 2709 -91 1959 -91 
Q 1206 -91 779 398 
Q 353 888 353 1747 
Q 353 2609 779 3096 
Q 1206 3584 1959 3584 
z
" transform="scale(0.015625)"/>
      <path id="DejaVuSans-79" d="M 2059 -325 
Q 1816 -950 1584 -1140 
Q 1353 -1331 966 -1331 
L 506 -1331 
L 506 -850 
L 844 -850 
Q 1081 -850 1212 -737 
Q 1344 -625 1503 -206 
L 1606 56 
L 191 3500 
L 800 3500 
L 1894 763 
L 2988 3500 
L 3597 3500 
L 2059 -325 
z
" transform="scale(0.015625)"/>
     </defs>
     <use xlink:href="#DejaVuSans-67"/>
     <use xlink:href="#DejaVuSans-65" x="63.476562"/>
     <use xlink:href="#DejaVuSans-74" x="125"/>
     <use xlink:href="#DejaVuSans-5f" x="164.208984"/>
     <use xlink:href="#DejaVuSans-73" x="214.208984"/>
     <use xlink:href="#DejaVuSans-75" x="266.308594"/>
     <use xlink:href="#DejaVuSans-62" x="329.6875"/>
     <use xlink:href="#DejaVuSans-73" x="393.164062"/>
     <use xlink:href="#DejaVuSans-63" x="445.263672"/>
     <use xlink:href="#DejaVuSans-72" x="500.244141"/>
     <use xlink:href="#DejaVuSans-69" x="541.357422"/>
     <use xlink:href="#DejaVuSans-62" x="569.140625"/>
     <use xlink:href="#DejaVuSans-65" x="632.617188"/>
     <use xlink:href="#DejaVuSans-20" x="694.140625"/>
     <use xlink:href="#DejaVuSans-68" x="725.927734"/>
     <use xlink:href="#DejaVuSans-69" x="789.306641"/>
     <use xlink:href="#DejaVuSans-73" x="817.089844"/>
     <use xlink:href="#DejaVuSans-74" x="869.189453"/>
     <use xlink:href="#DejaVuSans-6f" x="908.398438"/>
     <use xlink:href="#DejaVuSans-72" x="969.580078"/>
     <use xlink:href="#DejaVuSans-79" x="1010.693359"/>
    </g>
   </g>
   <g id="legend_1">
    <g id="line2d_35">
     <path d="M 815.08 328.498438 
L 825.08 328.498438 
L 835.08 328.498438 
" style="fill: none; stroke: #1f77b4; stroke-width: 1.5; stroke-linecap: square"/>
    </g>
    <g id="text_18">
     <!-- star -->
     <g style="fill: #a9a9a9" transform="translate(843.08 331.998438) scale(0.1 -0.1)">
      <defs>
       <path id="DejaVuSans-61" d="M 2194 1759 
Q 1497 1759 1228 1600 
Q 959 1441 959 1056 
Q 959 750 1161 570 
Q 1363 391 1709 391 
Q 2188 391 2477 730 
Q 2766 1069 2766 1631 
L 2766 1759 
L 2194 1759 
z
M 3341 1997 
L 3341 0 
L 2766 0 
L 2766 531 
Q 2569 213 2275 61 
Q 1981 -91 1556 -91 
Q 1019 -91 701 211 
Q 384 513 384 1019 
Q 384 1609 779 1909 
Q 1175 2209 1959 2209 
L 2766 2209 
L 2766 2266 
Q 2766 2663 2505 2880 
Q 2244 3097 1772 3097 
Q 1472 3097 1187 3025 
Q 903 2953 641 2809 
L 641 3341 
Q 956 3463 1253 3523 
Q 1550 3584 1831 3584 
Q 2591 3584 2966 3190 
Q 3341 2797 3341 1997 
z
" transform="scale(0.015625)"/>
      </defs>
      <use xlink:href="#DejaVuSans-73"/>
      <use xlink:href="#DejaVuSans-74" x="52.099609"/>
      <use xlink:href="#DejaVuSans-61" x="91.308594"/>
      <use xlink:href="#DejaVuSans-72" x="152.587891"/>
     </g>
    </g>
    <g id="line2d_36">
     <path d="M 815.08 343.176562 
L 825.08 343.176562 
L 835.08 343.176562 
" style="fill: none; stroke: #ff7f0e; stroke-width: 1.5; stroke-linecap: square"/>
    </g>
    <g id="text_19">
     <!-- fork -->
     <g style="fill: #a9a9a9" transform="translate(843.08 346.676562) scale(0.1 -0.1)">
      <defs>
       <path id="DejaVuSans-66" d="M 2375 4863 
L 2375 4384 
L 1825 4384 
Q 1516 4384 1395 4259 
Q 1275 4134 1275 3809 
L 1275 3500 
L 2222 3500 
L 2222 3053 
L 1275 3053 
L 1275 0 
L 697 0 
L 697 3053 
L 147 3053 
L 147 3500 
L 697 3500 
L 697 3744 
Q 697 4328 969 4595 
Q 1241 4863 1831 4863 
L 2375 4863 
z
" transform="scale(0.015625)"/>
       <path id="DejaVuSans-6b" d="M 581 4863 
L 1159 4863 
L 1159 1991 
L 2875 3500 
L 3609 3500 
L 1753 1863 
L 3688 0 
L 2938 0 
L 1159 1709 
L 1159 0 
L 581 0 
L 581 4863 
z
" transform="scale(0.015625)"/>
      </defs>
      <use xlink:href="#DejaVuSans-66"/>
      <use xlink:href="#DejaVuSans-6f" x="35.205078"/>
      <use xlink:href="#DejaVuSans-72" x="96.386719"/>
      <use xlink:href="#DejaVuSans-6b" x="137.5"/>
     </g>
    </g>
   </g>
  </g>
 </g>
 <defs>
  <clipPath id="pa3be210059">
   <rect x="108" y="43.2" width="669.6" height="277.2"/>
  </clipPath>
 </defs>
</svg>
