<?xml version="1.0" encoding="utf-8" standalone="no"?>
<!DOCTYPE svg PUBLIC "-//W3C//DTD SVG 1.1//EN"
  "http://www.w3.org/Graphics/SVG/1.1/DTD/svg11.dtd">
<svg xmlns:xlink="http://www.w3.org/1999/xlink" width="864pt" height="360pt" viewBox="0 0 864 360" xmlns="http://www.w3.org/2000/svg" version="1.1">
 <metadata>
  <rdf:RDF xmlns:dc="http://purl.org/dc/elements/1.1/" xmlns:cc="http://creativecommons.org/ns#" xmlns:rdf="http://www.w3.org/1999/02/22-rdf-syntax-ns#">
   <cc:Work>
    <dc:type rdf:resource="http://purl.org/dc/dcmitype/StillImage"/>
    <dc:date>2024-03-07T08:09:30.601621</dc:date>
    <dc:format>image/svg+xml</dc:format>
    <dc:creator>
     <cc:Agent>
      <dc:title>Matplotlib v3.8.3, https://matplotlib.org/</dc:title>
     </cc:Agent>
    </dc:creator>
   </cc:Work>
  </rdf:RDF>
 </metadata>
 <defs>
  <style type="text/css">*{stroke-linejoin: round; stroke-linecap: butt}</style>
 </defs>
 <g id="figure_1">
  <g id="patch_1">
   <path d="M 0 360 
L 864 360 
L 864 0 
L 0 0 
L 0 360 
z
" style="fill: none; opacity: 0"/>
  </g>
  <g id="axes_1">
   <g id="patch_2">
    <path d="M 108 320.4 
L 777.6 320.4 
L 777.6 43.2 
L 108 43.2 
L 108 320.4 
z
" style="fill: none; opacity: 0"/>
   </g>
   <g id="matplotlib.axis_1">
    <g id="xtick_1">
     <g id="line2d_1">
      <path d="M 163.243431 320.4 
L 163.243431 43.2 
" clip-path="url(#p4e51295278)" style="fill: none; stroke-dasharray: 5.12,1.28,0.8,1.28; stroke-dashoffset: 0; stroke: #b0b0b0; stroke-width: 0.8"/>
     </g>
     <g id="line2d_2">
      <defs>
       <path id="m5e8fbd9241" d="M 0 0 
L 0 3.5 
" style="stroke: #a9a9a9; stroke-width: 0.8"/>
      </defs>
      <g>
       <use xlink:href="#m5e8fbd9241" x="163.243431" y="320.4" style="fill: #a9a9a9; stroke: #a9a9a9; stroke-width: 0.8"/>
      </g>
     </g>
     <g id="text_1">
      <!-- 2021-09 -->
      <g style="fill: #a9a9a9" transform="translate(142.352025 334.998438) scale(0.1 -0.1)">
       <defs>
        <path id="DejaVuSans-32" d="M 1228 531 
L 3431 531 
L 3431 0 
L 469 0 
L 469 531 
Q 828 903 1448 1529 
Q 2069 2156 2228 2338 
Q 2531 2678 2651 2914 
Q 2772 3150 2772 3378 
Q 2772 3750 2511 3984 
Q 2250 4219 1831 4219 
Q 1534 4219 1204 4116 
Q 875 4013 500 3803 
L 500 4441 
Q 881 4594 1212 4672 
Q 1544 4750 1819 4750 
Q 2544 4750 2975 4387 
Q 3406 4025 3406 3419 
Q 3406 3131 3298 2873 
Q 3191 2616 2906 2266 
Q 2828 2175 2409 1742 
Q 1991 1309 1228 531 
z
" transform="scale(0.015625)"/>
        <path id="DejaVuSans-30" d="M 2034 4250 
Q 1547 4250 1301 3770 
Q 1056 3291 1056 2328 
Q 1056 1369 1301 889 
Q 1547 409 2034 409 
Q 2525 409 2770 889 
Q 3016 1369 3016 2328 
Q 3016 3291 2770 3770 
Q 2525 4250 2034 4250 
z
M 2034 4750 
Q 2819 4750 3233 4129 
Q 3647 3509 3647 2328 
Q 3647 1150 3233 529 
Q 2819 -91 2034 -91 
Q 1250 -91 836 529 
Q 422 1150 422 2328 
Q 422 3509 836 4129 
Q 1250 4750 2034 4750 
z
" transform="scale(0.015625)"/>
        <path id="DejaVuSans-31" d="M 794 531 
L 1825 531 
L 1825 4091 
L 703 3866 
L 703 4441 
L 1819 4666 
L 2450 4666 
L 2450 531 
L 3481 531 
L 3481 0 
L 794 0 
L 794 531 
z
" transform="scale(0.015625)"/>
        <path id="DejaVuSans-2d" d="M 313 2009 
L 1997 2009 
L 1997 1497 
L 313 1497 
L 313 2009 
z
" transform="scale(0.015625)"/>
        <path id="DejaVuSans-39" d="M 703 97 
L 703 672 
Q 941 559 1184 500 
Q 1428 441 1663 441 
Q 2288 441 2617 861 
Q 2947 1281 2994 2138 
Q 2813 1869 2534 1725 
Q 2256 1581 1919 1581 
Q 1219 1581 811 2004 
Q 403 2428 403 3163 
Q 403 3881 828 4315 
Q 1253 4750 1959 4750 
Q 2769 4750 3195 4129 
Q 3622 3509 3622 2328 
Q 3622 1225 3098 567 
Q 2575 -91 1691 -91 
Q 1453 -91 1209 -44 
Q 966 3 703 97 
z
M 1959 2075 
Q 2384 2075 2632 2365 
Q 2881 2656 2881 3163 
Q 2881 3666 2632 3958 
Q 2384 4250 1959 4250 
Q 1534 4250 1286 3958 
Q 1038 3666 1038 3163 
Q 1038 2656 1286 2365 
Q 1534 2075 1959 2075 
z
" transform="scale(0.015625)"/>
       </defs>
       <use xlink:href="#DejaVuSans-32"/>
       <use xlink:href="#DejaVuSans-30" x="63.623047"/>
       <use xlink:href="#DejaVuSans-32" x="127.246094"/>
       <use xlink:href="#DejaVuSans-31" x="190.869141"/>
       <use xlink:href="#DejaVuSans-2d" x="254.492188"/>
       <use xlink:href="#DejaVuSans-30" x="290.576172"/>
       <use xlink:href="#DejaVuSans-39" x="354.199219"/>
      </g>
     </g>
    </g>
    <g id="xtick_2">
     <g id="line2d_3">
      <path d="M 240.845027 320.4 
L 240.845027 43.2 
" clip-path="url(#p4e51295278)" style="fill: none; stroke-dasharray: 5.12,1.28,0.8,1.28; stroke-dashoffset: 0; stroke: #b0b0b0; stroke-width: 0.8"/>
     </g>
     <g id="line2d_4">
      <g>
       <use xlink:href="#m5e8fbd9241" x="240.845027" y="320.4" style="fill: #a9a9a9; stroke: #a9a9a9; stroke-width: 0.8"/>
      </g>
     </g>
     <g id="text_2">
      <!-- 2022-01 -->
      <g style="fill: #a9a9a9" transform="translate(219.953621 334.998438) scale(0.1 -0.1)">
       <use xlink:href="#DejaVuSans-32"/>
       <use xlink:href="#DejaVuSans-30" x="63.623047"/>
       <use xlink:href="#DejaVuSans-32" x="127.246094"/>
       <use xlink:href="#DejaVuSans-32" x="190.869141"/>
       <use xlink:href="#DejaVuSans-2d" x="254.492188"/>
       <use xlink:href="#DejaVuSans-30" x="290.576172"/>
       <use xlink:href="#DejaVuSans-31" x="354.199219"/>
      </g>
     </g>
    </g>
    <g id="xtick_3">
     <g id="line2d_5">
      <path d="M 317.174466 320.4 
L 317.174466 43.2 
" clip-path="url(#p4e51295278)" style="fill: none; stroke-dasharray: 5.12,1.28,0.8,1.28; stroke-dashoffset: 0; stroke: #b0b0b0; stroke-width: 0.8"/>
     </g>
     <g id="line2d_6">
      <g>
       <use xlink:href="#m5e8fbd9241" x="317.174466" y="320.4" style="fill: #a9a9a9; stroke: #a9a9a9; stroke-width: 0.8"/>
      </g>
     </g>
     <g id="text_3">
      <!-- 2022-05 -->
      <g style="fill: #a9a9a9" transform="translate(296.283059 334.998438) scale(0.1 -0.1)">
       <defs>
        <path id="DejaVuSans-35" d="M 691 4666 
L 3169 4666 
L 3169 4134 
L 1269 4134 
L 1269 2991 
Q 1406 3038 1543 3061 
Q 1681 3084 1819 3084 
Q 2600 3084 3056 2656 
Q 3513 2228 3513 1497 
Q 3513 744 3044 326 
Q 2575 -91 1722 -91 
Q 1428 -91 1123 -41 
Q 819 9 494 109 
L 494 744 
Q 775 591 1075 516 
Q 1375 441 1709 441 
Q 2250 441 2565 725 
Q 2881 1009 2881 1497 
Q 2881 1984 2565 2268 
Q 2250 2553 1709 2553 
Q 1456 2553 1204 2497 
Q 953 2441 691 2322 
L 691 4666 
z
" transform="scale(0.015625)"/>
       </defs>
       <use xlink:href="#DejaVuSans-32"/>
       <use xlink:href="#DejaVuSans-30" x="63.623047"/>
       <use xlink:href="#DejaVuSans-32" x="127.246094"/>
       <use xlink:href="#DejaVuSans-32" x="190.869141"/>
       <use xlink:href="#DejaVuSans-2d" x="254.492188"/>
       <use xlink:href="#DejaVuSans-30" x="290.576172"/>
       <use xlink:href="#DejaVuSans-35" x="354.199219"/>
      </g>
     </g>
    </g>
    <g id="xtick_4">
     <g id="line2d_7">
      <path d="M 395.41214 320.4 
L 395.41214 43.2 
" clip-path="url(#p4e51295278)" style="fill: none; stroke-dasharray: 5.12,1.28,0.8,1.28; stroke-dashoffset: 0; stroke: #b0b0b0; stroke-width: 0.8"/>
     </g>
     <g id="line2d_8">
      <g>
       <use xlink:href="#m5e8fbd9241" x="395.41214" y="320.4" style="fill: #a9a9a9; stroke: #a9a9a9; stroke-width: 0.8"/>
      </g>
     </g>
     <g id="text_4">
      <!-- 2022-09 -->
      <g style="fill: #a9a9a9" transform="translate(374.520734 334.998438) scale(0.1 -0.1)">
       <use xlink:href="#DejaVuSans-32"/>
       <use xlink:href="#DejaVuSans-30" x="63.623047"/>
       <use xlink:href="#DejaVuSans-32" x="127.246094"/>
       <use xlink:href="#DejaVuSans-32" x="190.869141"/>
       <use xlink:href="#DejaVuSans-2d" x="254.492188"/>
       <use xlink:href="#DejaVuSans-30" x="290.576172"/>
       <use xlink:href="#DejaVuSans-39" x="354.199219"/>
      </g>
     </g>
    </g>
    <g id="xtick_5">
     <g id="line2d_9">
      <path d="M 473.013736 320.4 
L 473.013736 43.2 
" clip-path="url(#p4e51295278)" style="fill: none; stroke-dasharray: 5.12,1.28,0.8,1.28; stroke-dashoffset: 0; stroke: #b0b0b0; stroke-width: 0.8"/>
     </g>
     <g id="line2d_10">
      <g>
       <use xlink:href="#m5e8fbd9241" x="473.013736" y="320.4" style="fill: #a9a9a9; stroke: #a9a9a9; stroke-width: 0.8"/>
      </g>
     </g>
     <g id="text_5">
      <!-- 2023-01 -->
      <g style="fill: #a9a9a9" transform="translate(452.12233 334.998438) scale(0.1 -0.1)">
       <defs>
        <path id="DejaVuSans-33" d="M 2597 2516 
Q 3050 2419 3304 2112 
Q 3559 1806 3559 1356 
Q 3559 666 3084 287 
Q 2609 -91 1734 -91 
Q 1441 -91 1130 -33 
Q 819 25 488 141 
L 488 750 
Q 750 597 1062 519 
Q 1375 441 1716 441 
Q 2309 441 2620 675 
Q 2931 909 2931 1356 
Q 2931 1769 2642 2001 
Q 2353 2234 1838 2234 
L 1294 2234 
L 1294 2753 
L 1863 2753 
Q 2328 2753 2575 2939 
Q 2822 3125 2822 3475 
Q 2822 3834 2567 4026 
Q 2313 4219 1838 4219 
Q 1578 4219 1281 4162 
Q 984 4106 628 3988 
L 628 4550 
Q 988 4650 1302 4700 
Q 1616 4750 1894 4750 
Q 2613 4750 3031 4423 
Q 3450 4097 3450 3541 
Q 3450 3153 3228 2886 
Q 3006 2619 2597 2516 
z
" transform="scale(0.015625)"/>
       </defs>
       <use xlink:href="#DejaVuSans-32"/>
       <use xlink:href="#DejaVuSans-30" x="63.623047"/>
       <use xlink:href="#DejaVuSans-32" x="127.246094"/>
       <use xlink:href="#DejaVuSans-33" x="190.869141"/>
       <use xlink:href="#DejaVuSans-2d" x="254.492188"/>
       <use xlink:href="#DejaVuSans-30" x="290.576172"/>
       <use xlink:href="#DejaVuSans-31" x="354.199219"/>
      </g>
     </g>
    </g>
    <g id="xtick_6">
     <g id="line2d_11">
      <path d="M 549.343175 320.4 
L 549.343175 43.2 
" clip-path="url(#p4e51295278)" style="fill: none; stroke-dasharray: 5.12,1.28,0.8,1.28; stroke-dashoffset: 0; stroke: #b0b0b0; stroke-width: 0.8"/>
     </g>
     <g id="line2d_12">
      <g>
       <use xlink:href="#m5e8fbd9241" x="549.343175" y="320.4" style="fill: #a9a9a9; stroke: #a9a9a9; stroke-width: 0.8"/>
      </g>
     </g>
     <g id="text_6">
      <!-- 2023-05 -->
      <g style="fill: #a9a9a9" transform="translate(528.451768 334.998438) scale(0.1 -0.1)">
       <use xlink:href="#DejaVuSans-32"/>
       <use xlink:href="#DejaVuSans-30" x="63.623047"/>
       <use xlink:href="#DejaVuSans-32" x="127.246094"/>
       <use xlink:href="#DejaVuSans-33" x="190.869141"/>
       <use xlink:href="#DejaVuSans-2d" x="254.492188"/>
       <use xlink:href="#DejaVuSans-30" x="290.576172"/>
       <use xlink:href="#DejaVuSans-35" x="354.199219"/>
      </g>
     </g>
    </g>
    <g id="xtick_7">
     <g id="line2d_13">
      <path d="M 627.580849 320.4 
L 627.580849 43.2 
" clip-path="url(#p4e51295278)" style="fill: none; stroke-dasharray: 5.12,1.28,0.8,1.28; stroke-dashoffset: 0; stroke: #b0b0b0; stroke-width: 0.8"/>
     </g>
     <g id="line2d_14">
      <g>
       <use xlink:href="#m5e8fbd9241" x="627.580849" y="320.4" style="fill: #a9a9a9; stroke: #a9a9a9; stroke-width: 0.8"/>
      </g>
     </g>
     <g id="text_7">
      <!-- 2023-09 -->
      <g style="fill: #a9a9a9" transform="translate(606.689443 334.998438) scale(0.1 -0.1)">
       <use xlink:href="#DejaVuSans-32"/>
       <use xlink:href="#DejaVuSans-30" x="63.623047"/>
       <use xlink:href="#DejaVuSans-32" x="127.246094"/>
       <use xlink:href="#DejaVuSans-33" x="190.869141"/>
       <use xlink:href="#DejaVuSans-2d" x="254.492188"/>
       <use xlink:href="#DejaVuSans-30" x="290.576172"/>
       <use xlink:href="#DejaVuSans-39" x="354.199219"/>
      </g>
     </g>
    </g>
    <g id="xtick_8">
     <g id="line2d_15">
      <path d="M 705.182445 320.4 
L 705.182445 43.2 
" clip-path="url(#p4e51295278)" style="fill: none; stroke-dasharray: 5.12,1.28,0.8,1.28; stroke-dashoffset: 0; stroke: #b0b0b0; stroke-width: 0.8"/>
     </g>
     <g id="line2d_16">
      <g>
       <use xlink:href="#m5e8fbd9241" x="705.182445" y="320.4" style="fill: #a9a9a9; stroke: #a9a9a9; stroke-width: 0.8"/>
      </g>
     </g>
     <g id="text_8">
      <!-- 2024-01 -->
      <g style="fill: #a9a9a9" transform="translate(684.291039 334.998438) scale(0.1 -0.1)">
       <defs>
        <path id="DejaVuSans-34" d="M 2419 4116 
L 825 1625 
L 2419 1625 
L 2419 4116 
z
M 2253 4666 
L 3047 4666 
L 3047 1625 
L 3713 1625 
L 3713 1100 
L 3047 1100 
L 3047 0 
L 2419 0 
L 2419 1100 
L 313 1100 
L 313 1709 
L 2253 4666 
z
" transform="scale(0.015625)"/>
       </defs>
       <use xlink:href="#DejaVuSans-32"/>
       <use xlink:href="#DejaVuSans-30" x="63.623047"/>
       <use xlink:href="#DejaVuSans-32" x="127.246094"/>
       <use xlink:href="#DejaVuSans-34" x="190.869141"/>
       <use xlink:href="#DejaVuSans-2d" x="254.492188"/>
       <use xlink:href="#DejaVuSans-30" x="290.576172"/>
       <use xlink:href="#DejaVuSans-31" x="354.199219"/>
      </g>
     </g>
    </g>
   </g>
   <g id="matplotlib.axis_2">
    <g id="ytick_1">
     <g id="line2d_17">
      <path d="M 108 307.843964 
L 777.6 307.843964 
" clip-path="url(#p4e51295278)" style="fill: none; stroke-dasharray: 5.12,1.28,0.8,1.28; stroke-dashoffset: 0; stroke: #b0b0b0; stroke-width: 0.8"/>
     </g>
     <g id="line2d_18">
      <defs>
       <path id="m8e13e318b6" d="M 0 0 
L -3.5 0 
" style="stroke: #a9a9a9; stroke-width: 0.8"/>
      </defs>
      <g>
       <use xlink:href="#m8e13e318b6" x="108" y="307.843964" style="fill: #a9a9a9; stroke: #a9a9a9; stroke-width: 0.8"/>
      </g>
     </g>
     <g id="text_9">
      <!-- 0 -->
      <g style="fill: #a9a9a9" transform="translate(94.6375 311.643182) scale(0.1 -0.1)">
       <use xlink:href="#DejaVuSans-30"/>
      </g>
     </g>
    </g>
    <g id="ytick_2">
     <g id="line2d_19">
      <path d="M 108 272.672994 
L 777.6 272.672994 
" clip-path="url(#p4e51295278)" style="fill: none; stroke-dasharray: 5.12,1.28,0.8,1.28; stroke-dashoffset: 0; stroke: #b0b0b0; stroke-width: 0.8"/>
     </g>
     <g id="line2d_20">
      <g>
       <use xlink:href="#m8e13e318b6" x="108" y="272.672994" style="fill: #a9a9a9; stroke: #a9a9a9; stroke-width: 0.8"/>
      </g>
     </g>
     <g id="text_10">
      <!-- 800 -->
      <g style="fill: #a9a9a9" transform="translate(81.9125 276.472212) scale(0.1 -0.1)">
       <defs>
        <path id="DejaVuSans-38" d="M 2034 2216 
Q 1584 2216 1326 1975 
Q 1069 1734 1069 1313 
Q 1069 891 1326 650 
Q 1584 409 2034 409 
Q 2484 409 2743 651 
Q 3003 894 3003 1313 
Q 3003 1734 2745 1975 
Q 2488 2216 2034 2216 
z
M 1403 2484 
Q 997 2584 770 2862 
Q 544 3141 544 3541 
Q 544 4100 942 4425 
Q 1341 4750 2034 4750 
Q 2731 4750 3128 4425 
Q 3525 4100 3525 3541 
Q 3525 3141 3298 2862 
Q 3072 2584 2669 2484 
Q 3125 2378 3379 2068 
Q 3634 1759 3634 1313 
Q 3634 634 3220 271 
Q 2806 -91 2034 -91 
Q 1263 -91 848 271 
Q 434 634 434 1313 
Q 434 1759 690 2068 
Q 947 2378 1403 2484 
z
M 1172 3481 
Q 1172 3119 1398 2916 
Q 1625 2713 2034 2713 
Q 2441 2713 2670 2916 
Q 2900 3119 2900 3481 
Q 2900 3844 2670 4047 
Q 2441 4250 2034 4250 
Q 1625 4250 1398 4047 
Q 1172 3844 1172 3481 
z
" transform="scale(0.015625)"/>
       </defs>
       <use xlink:href="#DejaVuSans-38"/>
       <use xlink:href="#DejaVuSans-30" x="63.623047"/>
       <use xlink:href="#DejaVuSans-30" x="127.246094"/>
      </g>
     </g>
    </g>
    <g id="ytick_3">
     <g id="line2d_21">
      <path d="M 108 237.502024 
L 777.6 237.502024 
" clip-path="url(#p4e51295278)" style="fill: none; stroke-dasharray: 5.12,1.28,0.8,1.28; stroke-dashoffset: 0; stroke: #b0b0b0; stroke-width: 0.8"/>
     </g>
     <g id="line2d_22">
      <g>
       <use xlink:href="#m8e13e318b6" x="108" y="237.502024" style="fill: #a9a9a9; stroke: #a9a9a9; stroke-width: 0.8"/>
      </g>
     </g>
     <g id="text_11">
      <!-- 1600 -->
      <g style="fill: #a9a9a9" transform="translate(75.55 241.301242) scale(0.1 -0.1)">
       <defs>
        <path id="DejaVuSans-36" d="M 2113 2584 
Q 1688 2584 1439 2293 
Q 1191 2003 1191 1497 
Q 1191 994 1439 701 
Q 1688 409 2113 409 
Q 2538 409 2786 701 
Q 3034 994 3034 1497 
Q 3034 2003 2786 2293 
Q 2538 2584 2113 2584 
z
M 3366 4563 
L 3366 3988 
Q 3128 4100 2886 4159 
Q 2644 4219 2406 4219 
Q 1781 4219 1451 3797 
Q 1122 3375 1075 2522 
Q 1259 2794 1537 2939 
Q 1816 3084 2150 3084 
Q 2853 3084 3261 2657 
Q 3669 2231 3669 1497 
Q 3669 778 3244 343 
Q 2819 -91 2113 -91 
Q 1303 -91 875 529 
Q 447 1150 447 2328 
Q 447 3434 972 4092 
Q 1497 4750 2381 4750 
Q 2619 4750 2861 4703 
Q 3103 4656 3366 4563 
z
" transform="scale(0.015625)"/>
       </defs>
       <use xlink:href="#DejaVuSans-31"/>
       <use xlink:href="#DejaVuSans-36" x="63.623047"/>
       <use xlink:href="#DejaVuSans-30" x="127.246094"/>
       <use xlink:href="#DejaVuSans-30" x="190.869141"/>
      </g>
     </g>
    </g>
    <g id="ytick_4">
     <g id="line2d_23">
      <path d="M 108 202.331054 
L 777.6 202.331054 
" clip-path="url(#p4e51295278)" style="fill: none; stroke-dasharray: 5.12,1.28,0.8,1.28; stroke-dashoffset: 0; stroke: #b0b0b0; stroke-width: 0.8"/>
     </g>
     <g id="line2d_24">
      <g>
       <use xlink:href="#m8e13e318b6" x="108" y="202.331054" style="fill: #a9a9a9; stroke: #a9a9a9; stroke-width: 0.8"/>
      </g>
     </g>
     <g id="text_12">
      <!-- 2400 -->
      <g style="fill: #a9a9a9" transform="translate(75.55 206.130272) scale(0.1 -0.1)">
       <use xlink:href="#DejaVuSans-32"/>
       <use xlink:href="#DejaVuSans-34" x="63.623047"/>
       <use xlink:href="#DejaVuSans-30" x="127.246094"/>
       <use xlink:href="#DejaVuSans-30" x="190.869141"/>
      </g>
     </g>
    </g>
    <g id="ytick_5">
     <g id="line2d_25">
      <path d="M 108 167.160084 
L 777.6 167.160084 
" clip-path="url(#p4e51295278)" style="fill: none; stroke-dasharray: 5.12,1.28,0.8,1.28; stroke-dashoffset: 0; stroke: #b0b0b0; stroke-width: 0.8"/>
     </g>
     <g id="line2d_26">
      <g>
       <use xlink:href="#m8e13e318b6" x="108" y="167.160084" style="fill: #a9a9a9; stroke: #a9a9a9; stroke-width: 0.8"/>
      </g>
     </g>
     <g id="text_13">
      <!-- 3200 -->
      <g style="fill: #a9a9a9" transform="translate(75.55 170.959302) scale(0.1 -0.1)">
       <use xlink:href="#DejaVuSans-33"/>
       <use xlink:href="#DejaVuSans-32" x="63.623047"/>
       <use xlink:href="#DejaVuSans-30" x="127.246094"/>
       <use xlink:href="#DejaVuSans-30" x="190.869141"/>
      </g>
     </g>
    </g>
    <g id="ytick_6">
     <g id="line2d_27">
      <path d="M 108 131.989114 
L 777.6 131.989114 
" clip-path="url(#p4e51295278)" style="fill: none; stroke-dasharray: 5.12,1.28,0.8,1.28; stroke-dashoffset: 0; stroke: #b0b0b0; stroke-width: 0.8"/>
     </g>
     <g id="line2d_28">
      <g>
       <use xlink:href="#m8e13e318b6" x="108" y="131.989114" style="fill: #a9a9a9; stroke: #a9a9a9; stroke-width: 0.8"/>
      </g>
     </g>
     <g id="text_14">
      <!-- 4000 -->
      <g style="fill: #a9a9a9" transform="translate(75.55 135.788332) scale(0.1 -0.1)">
       <use xlink:href="#DejaVuSans-34"/>
       <use xlink:href="#DejaVuSans-30" x="63.623047"/>
       <use xlink:href="#DejaVuSans-30" x="127.246094"/>
       <use xlink:href="#DejaVuSans-30" x="190.869141"/>
      </g>
     </g>
    </g>
    <g id="ytick_7">
     <g id="line2d_29">
      <path d="M 108 96.818144 
L 777.6 96.818144 
" clip-path="url(#p4e51295278)" style="fill: none; stroke-dasharray: 5.12,1.28,0.8,1.28; stroke-dashoffset: 0; stroke: #b0b0b0; stroke-width: 0.8"/>
     </g>
     <g id="line2d_30">
      <g>
       <use xlink:href="#m8e13e318b6" x="108" y="96.818144" style="fill: #a9a9a9; stroke: #a9a9a9; stroke-width: 0.8"/>
      </g>
     </g>
     <g id="text_15">
      <!-- 4800 -->
      <g style="fill: #a9a9a9" transform="translate(75.55 100.617363) scale(0.1 -0.1)">
       <use xlink:href="#DejaVuSans-34"/>
       <use xlink:href="#DejaVuSans-38" x="63.623047"/>
       <use xlink:href="#DejaVuSans-30" x="127.246094"/>
       <use xlink:href="#DejaVuSans-30" x="190.869141"/>
      </g>
     </g>
    </g>
    <g id="ytick_8">
     <g id="line2d_31">
      <path d="M 108 61.647174 
L 777.6 61.647174 
" clip-path="url(#p4e51295278)" style="fill: none; stroke-dasharray: 5.12,1.28,0.8,1.28; stroke-dashoffset: 0; stroke: #b0b0b0; stroke-width: 0.8"/>
     </g>
     <g id="line2d_32">
      <g>
       <use xlink:href="#m8e13e318b6" x="108" y="61.647174" style="fill: #a9a9a9; stroke: #a9a9a9; stroke-width: 0.8"/>
      </g>
     </g>
     <g id="text_16">
      <!-- 5600 -->
      <g style="fill: #a9a9a9" transform="translate(75.55 65.446393) scale(0.1 -0.1)">
       <use xlink:href="#DejaVuSans-35"/>
       <use xlink:href="#DejaVuSans-36" x="63.623047"/>
       <use xlink:href="#DejaVuSans-30" x="127.246094"/>
       <use xlink:href="#DejaVuSans-30" x="190.869141"/>
      </g>
     </g>
    </g>
   </g>
   <g id="line2d_33">
    <path d="M 138.436364 307.712073 
L 142.252836 307.404327 
L 142.888914 307.140544 
L 144.79715 306.920726 
L 148.613622 306.173343 
L 152.430094 305.865597 
L 153.066173 305.557851 
L 153.702251 305.381996 
L 154.33833 304.590649 
L 154.974409 304.151012 
L 155.610487 302.788137 
L 156.246566 302.700209 
L 156.882645 302.216609 
L 158.154802 301.601117 
L 160.699117 299.666713 
L 161.971274 299.139149 
L 162.607353 298.699512 
L 165.151667 297.600419 
L 165.787746 296.589253 
L 167.059903 295.666015 
L 167.695982 295.358269 
L 174.056768 294.478995 
L 174.692847 294.171249 
L 179.145398 293.819539 
L 181.053634 293.335939 
L 186.778341 292.588555 
L 187.41442 292.236846 
L 188.050499 292.148918 
L 188.686577 291.885136 
L 189.958735 291.665318 
L 190.594813 291.621354 
L 191.230892 291.401535 
L 193.775207 291.005862 
L 195.047364 290.654152 
L 196.9556 290.478297 
L 198.227757 290.346406 
L 198.863836 290.170551 
L 199.499915 290.126588 
L 201.40815 289.555059 
L 205.224622 288.983531 
L 205.860701 288.807676 
L 206.49678 287.928402 
L 208.405016 287.224983 
L 210.313252 286.697418 
L 210.94933 286.389672 
L 211.585409 286.345708 
L 214.765802 285.466434 
L 216.03796 285.378507 
L 216.674038 285.290579 
L 218.582274 284.719051 
L 221.126589 284.103559 
L 221.762667 283.839777 
L 222.398746 283.751849 
L 223.034825 283.444103 
L 229.395611 282.476902 
L 232.576005 281.597627 
L 233.212083 281.201954 
L 235.756398 280.542498 
L 237.028555 279.795115 
L 237.664634 279.355478 
L 239.57287 279.003768 
L 243.389342 277.860712 
L 244.661499 277.465038 
L 245.297578 277.377111 
L 246.569735 277.025401 
L 247.841892 276.717655 
L 248.477971 276.629728 
L 249.750128 276.102163 
L 250.386207 275.970272 
L 251.022286 275.70649 
L 251.658364 275.618562 
L 252.294443 275.310816 
L 252.930522 275.134962 
L 254.202679 275.047034 
L 255.474836 274.607397 
L 256.746993 274.51947 
L 257.383072 274.211724 
L 259.927387 273.772087 
L 262.471701 273.552268 
L 263.10778 273.420377 
L 264.379937 272.804885 
L 271.376803 269.859316 
L 272.012881 269.507606 
L 272.64896 268.804187 
L 273.285038 267.749058 
L 273.921117 266.913747 
L 274.557196 266.737893 
L 275.193274 266.737893 
L 276.465432 265.814655 
L 277.10151 265.6388 
L 277.737589 265.28709 
L 278.373668 265.155199 
L 279.009746 264.583671 
L 279.645825 264.407816 
L 281.554061 263.484578 
L 282.826218 261.726029 
L 283.462297 261.330356 
L 284.098376 260.275227 
L 284.734454 259.615771 
L 285.370533 259.308025 
L 286.006612 259.13217 
L 288.550926 257.637404 
L 289.823083 256.626239 
L 290.459162 256.230565 
L 291.095241 255.307327 
L 291.731319 253.856525 
L 292.367398 252.933287 
L 293.003477 252.449686 
L 293.639555 252.185904 
L 296.18387 249.987718 
L 297.456027 248.976553 
L 298.092106 248.448988 
L 298.728185 247.613678 
L 300.000342 246.514585 
L 302.544657 244.887927 
L 303.180735 244.316399 
L 303.816814 244.184508 
L 304.452893 243.920726 
L 305.72505 243.217306 
L 307.633286 242.250105 
L 308.905443 241.063084 
L 309.541522 240.315701 
L 310.813679 239.436427 
L 311.449758 239.260572 
L 312.085836 238.952826 
L 313.357994 238.117516 
L 313.994072 237.765806 
L 314.630151 237.677879 
L 315.902308 236.974459 
L 316.538387 236.622749 
L 317.174466 235.963294 
L 317.810544 235.56762 
L 318.446623 235.347802 
L 319.71878 234.600419 
L 320.354859 234.248709 
L 320.990938 234.02889 
L 322.899174 232.797906 
L 324.80741 232.226378 
L 325.443488 231.786741 
L 326.079567 231.65485 
L 327.351724 231.215213 
L 329.25996 230.46783 
L 331.168196 229.76441 
L 332.440353 229.544592 
L 333.712511 228.445499 
L 334.984668 227.830007 
L 336.256825 227.126588 
L 336.892904 226.774878 
L 338.165061 226.423168 
L 338.80114 226.027495 
L 339.437219 225.85164 
L 341.345455 224.66462 
L 344.525848 223.917237 
L 346.434084 222.818144 
L 347.070162 222.730216 
L 347.706241 222.510398 
L 348.978398 222.246615 
L 350.886634 220.839777 
L 352.79487 220.40014 
L 353.430949 220.180321 
L 354.067028 219.69672 
L 357.8835 218.465736 
L 358.519578 218.421773 
L 362.972129 216.839079 
L 363.608207 216.531333 
L 365.516443 216.091696 
L 366.788601 215.78395 
L 367.424679 215.476204 
L 368.060758 215.344313 
L 369.968994 214.465038 
L 371.87723 213.5418 
L 372.513309 213.102163 
L 373.149387 212.926308 
L 375.057623 211.915143 
L 376.329781 211.607397 
L 377.601938 210.947941 
L 378.874095 210.596232 
L 379.510174 210.508304 
L 380.782331 209.760921 
L 381.41841 209.62903 
L 382.690567 209.101465 
L 383.326646 208.969574 
L 383.962724 208.617865 
L 386.507039 208.222191 
L 387.779196 207.606699 
L 388.415275 207.079135 
L 389.051354 205.980042 
L 390.323511 205.71626 
L 390.95959 205.584368 
L 393.503904 204.265457 
L 394.139983 204.133566 
L 399.228612 201.715562 
L 401.136848 201.319888 
L 401.772927 200.968179 
L 405.589399 199.649267 
L 406.861556 198.85792 
L 408.133713 198.110537 
L 408.769792 198.02261 
L 409.405871 197.802791 
L 410.041949 197.758828 
L 413.222343 196.923517 
L 413.858421 196.439916 
L 415.130579 196.000279 
L 417.038814 195.384787 
L 417.674893 194.989114 
L 418.310972 194.813259 
L 418.94705 194.373622 
L 419.583129 194.109839 
L 420.219208 193.714166 
L 421.491365 193.274529 
L 423.399601 192.659037 
L 424.03568 192.351291 
L 425.943916 190.900488 
L 426.579994 190.768597 
L 427.852152 189.801396 
L 428.48823 189.669505 
L 429.124309 188.702303 
L 429.760388 188.438521 
L 430.396466 187.95492 
L 431.032545 187.866992 
L 432.304702 187.119609 
L 432.940781 186.987718 
L 433.57686 186.723936 
L 434.212938 186.240335 
L 434.849017 186.020516 
L 436.757253 184.745569 
L 439.301567 183.470621 
L 439.937646 183.382694 
L 441.209803 182.811165 
L 441.845882 182.459456 
L 442.481961 181.404327 
L 443.118039 180.832798 
L 443.754118 180.481089 
L 444.390197 180.349197 
L 445.662354 179.557851 
L 446.298433 179.42596 
L 447.57059 178.810468 
L 449.478826 178.019121 
L 450.750983 177.139846 
L 452.02314 175.820935 
L 455.203534 173.534822 
L 456.475691 172.479693 
L 457.11177 172.215911 
L 457.747848 171.512491 
L 458.383927 171.02889 
L 459.656084 170.589253 
L 460.292163 170.061689 
L 461.56432 169.402233 
L 462.200399 169.226378 
L 462.836478 168.786741 
L 463.472556 168.65485 
L 465.380792 167.643685 
L 466.65295 166.896301 
L 473.013736 164.654152 
L 473.649815 164.082624 
L 475.558051 163.379204 
L 476.830208 162.983531 
L 477.466287 162.49993 
L 480.010601 161.181019 
L 480.64668 160.829309 
L 481.918837 158.323378 
L 483.190995 156.828611 
L 484.463152 156.081228 
L 486.371388 155.333845 
L 487.007467 155.245918 
L 487.643545 154.894208 
L 489.551781 154.32268 
L 492.096096 153.179623 
L 492.732174 152.78395 
L 494.004332 152.344313 
L 497.820804 150.146127 
L 498.456882 149.486671 
L 499.72904 148.783252 
L 500.365118 148.431542 
L 501.001197 148.211724 
L 501.637276 147.772087 
L 502.909433 147.156595 
L 504.817669 146.145429 
L 505.453748 145.969574 
L 506.089826 145.485973 
L 506.725905 145.222191 
L 507.361983 145.0903 
L 508.634141 144.650663 
L 510.542377 143.947244 
L 511.178455 143.507606 
L 512.450613 143.155897 
L 513.72277 142.672296 
L 514.358849 142.188695 
L 515.631006 141.793022 
L 516.267085 141.485276 
L 516.903163 141.309421 
L 518.175321 140.430147 
L 519.447478 139.858618 
L 520.719635 138.891417 
L 521.991793 138.451779 
L 522.627871 137.924215 
L 523.26395 137.836288 
L 524.536107 136.91305 
L 525.808264 136.297558 
L 526.444343 136.033775 
L 527.080422 135.418283 
L 530.896894 134.055408 
L 532.80513 133.220098 
L 534.713366 132.648569 
L 535.985523 132.472715 
L 536.621602 132.208932 
L 537.25768 132.121005 
L 538.529838 131.59344 
L 539.165916 131.549477 
L 541.710231 130.626239 
L 543.618467 129.307327 
L 544.254545 129.043545 
L 544.890624 128.647872 
L 546.79886 127.812561 
L 548.707096 126.669505 
L 549.343175 126.273831 
L 550.615332 125.966085 
L 551.887489 125.086811 
L 554.431804 124.295464 
L 555.067883 124.031682 
L 556.34004 123.723936 
L 559.520433 122.71277 
L 561.428669 122.361061 
L 563.972984 121.569714 
L 564.609062 121.305932 
L 565.245141 121.218004 
L 565.88122 120.910258 
L 567.153377 120.646476 
L 567.789456 120.33873 
L 569.697692 119.899093 
L 570.969849 119.635311 
L 574.786321 118.931891 
L 576.058478 118.668109 
L 576.694557 118.536218 
L 577.330636 118.272435 
L 577.966714 118.228472 
L 579.87495 117.700907 
L 580.511029 117.349197 
L 583.691422 116.557851 
L 584.327501 116.42596 
L 585.599658 115.986322 
L 587.507894 115.326867 
L 588.143973 115.238939 
L 590.052209 114.579484 
L 590.688287 114.579484 
L 591.960445 114.139846 
L 592.596523 113.524355 
L 593.232602 113.216609 
L 594.504759 112.820935 
L 597.049074 111.853733 
L 597.685152 111.721842 
L 598.321231 111.326169 
L 598.95731 111.194278 
L 599.593388 110.798604 
L 602.773782 109.875366 
L 603.40986 109.479693 
L 604.045939 109.303838 
L 604.682018 108.776274 
L 606.590254 108.424564 
L 607.862411 107.721144 
L 608.49849 107.017725 
L 609.770647 106.753943 
L 614.223197 105.742777 
L 614.859276 105.566923 
L 616.131433 105.522959 
L 616.767512 105.215213 
L 619.311827 104.775576 
L 619.947905 104.46783 
L 621.856141 104.204047 
L 624.400456 103.412701 
L 626.308692 102.973064 
L 628.216928 102.489463 
L 630.761243 101.698116 
L 631.397321 101.566225 
L 632.0334 101.258479 
L 632.669478 101.170551 
L 633.305557 100.950733 
L 633.941636 100.555059 
L 635.849872 99.85164 
L 636.48595 99.368039 
L 637.758108 99.016329 
L 638.394186 98.752547 
L 639.666344 98.400837 
L 642.210658 97.257781 
L 644.118894 97.12589 
L 646.663209 96.334543 
L 647.299288 95.93887 
L 648.571445 95.543196 
L 650.479681 94.575994 
L 651.115759 94.444103 
L 651.751838 94.136357 
L 652.387917 94.04843 
L 659.384782 91.718353 
L 661.929097 91.102861 
L 662.565175 90.927006 
L 663.837333 90.355478 
L 664.473411 90.267551 
L 665.745569 89.915841 
L 666.381647 89.43224 
L 667.017726 89.124494 
L 667.653805 88.377111 
L 668.289883 87.937474 
L 669.56204 87.5418 
L 670.198119 87.014236 
L 677.194984 84.156595 
L 678.467142 83.848849 
L 679.739299 83.27732 
L 681.647535 82.178227 
L 682.283614 82.046336 
L 682.919692 81.562736 
L 684.19185 80.947244 
L 685.464007 80.155897 
L 687.372243 79.276622 
L 688.008321 78.836985 
L 689.280479 78.353385 
L 690.552636 77.606001 
L 691.188715 77.298255 
L 691.824793 76.858618 
L 693.096951 76.418981 
L 693.733029 76.28709 
L 696.277344 75.144033 
L 699.457737 74.044941 
L 700.093816 74.000977 
L 700.729895 73.825122 
L 701.365973 73.429449 
L 702.002052 73.341521 
L 702.638131 73.121703 
L 704.546366 72.769993 
L 707.72676 71.143336 
L 708.998917 70.439916 
L 709.634996 70.351989 
L 711.543232 69.340823 
L 713.451468 68.637404 
L 715.359704 67.802094 
L 717.904018 66.790928 
L 718.540097 66.615073 
L 719.176176 66.2194 
L 720.448333 66.043545 
L 721.084412 65.647872 
L 721.72049 65.603908 
L 722.992647 65.208234 
L 724.264805 64.592742 
L 724.900883 64.504815 
L 725.536962 64.241033 
L 726.173041 64.109142 
L 728.081277 63.273831 
L 728.717355 63.14194 
L 729.353434 62.878158 
L 732.533827 62.130775 
L 734.442063 61.383391 
L 736.350299 60.240335 
L 737.622457 59.71277 
L 738.258535 59.448988 
L 738.894614 59.053315 
L 740.166771 58.789532 
L 740.80285 58.437823 
L 741.438928 58.305932 
L 742.711086 57.602512 
L 746.527558 55.8 
L 747.163636 55.8 
L 747.163636 55.8 
" clip-path="url(#p4e51295278)" style="fill: none; stroke: #1f77b4; stroke-width: 1.5; stroke-linecap: square"/>
   </g>
   <g id="line2d_34">
    <path d="M 139.072442 307.8 
L 140.980678 307.712073 
L 142.888914 307.668109 
L 146.705386 307.580181 
L 149.885779 307.44829 
L 152.430094 307.44829 
L 153.066173 307.272435 
L 155.610487 307.184508 
L 157.518723 306.964689 
L 159.426959 306.788835 
L 163.243431 306.61298 
L 163.87951 306.61298 
L 164.515588 306.481089 
L 167.059903 306.393161 
L 168.33206 306.305234 
L 173.42069 306.217306 
L 176.601083 306.085415 
L 184.234027 305.997488 
L 187.41442 305.865597 
L 191.230892 305.777669 
L 193.775207 305.689742 
L 199.499915 305.601814 
L 201.40815 305.557851 
L 203.316386 305.513887 
L 205.224622 305.294068 
L 209.041094 305.250105 
L 210.313252 305.162177 
L 214.765802 305.07425 
L 221.762667 304.678576 
L 226.215218 304.590649 
L 227.487375 304.502722 
L 229.395611 304.414794 
L 233.212083 304.238939 
L 235.756398 304.194976 
L 237.664634 304.019121 
L 247.841892 303.403629 
L 250.386207 303.315701 
L 254.838757 303.095883 
L 256.746993 303.007955 
L 263.10778 302.656246 
L 270.104645 302.568318 
L 272.64896 302.304536 
L 273.921117 302.216609 
L 282.19014 301.557153 
L 286.006612 301.073552 
L 288.550926 300.985625 
L 293.639555 300.326169 
L 296.819949 300.238241 
L 305.088971 299.578786 
L 308.269364 299.227076 
L 310.813679 299.139149 
L 312.085836 299.051221 
L 314.630151 298.963294 
L 315.902308 298.875366 
L 319.082702 298.56762 
L 319.71878 298.391766 
L 323.535252 298.215911 
L 326.715645 298.127983 
L 334.984668 297.644382 
L 336.892904 297.556455 
L 345.161926 297.072854 
L 349.614477 296.984927 
L 350.250556 296.853036 
L 355.339185 296.765108 
L 359.791736 296.54529 
L 366.788601 296.457362 
L 371.241151 296.237544 
L 376.329781 296.149616 
L 381.41841 295.885834 
L 385.87096 295.797906 
L 397.956455 295.050523 
L 403.045084 294.962596 
L 419.583129 293.907467 
L 423.399601 293.819539 
L 425.307837 293.775576 
L 427.216073 293.731612 
L 429.124309 293.555757 
L 434.212938 293.46783 
L 435.485095 293.248011 
L 436.757253 293.160084 
L 439.937646 293.028193 
L 441.209803 292.940265 
L 442.481961 292.852338 
L 448.206669 292.76441 
L 449.478826 292.632519 
L 452.02314 292.588555 
L 452.659219 292.456664 
L 453.931376 292.368737 
L 454.567455 292.236846 
L 456.475691 292.148918 
L 467.289028 291.489463 
L 469.197264 291.401535 
L 472.377657 291.269644 
L 481.282759 291.181717 
L 485.735309 290.961898 
L 490.823938 290.873971 
L 493.368253 290.786043 
L 495.912568 290.74208 
L 497.184725 290.610188 
L 499.72904 290.522261 
L 506.089826 290.170551 
L 509.906298 290.126588 
L 511.814534 289.950733 
L 513.72277 289.906769 
L 518.175321 289.818842 
L 520.719635 289.730914 
L 528.352579 289.642987 
L 531.532972 289.511096 
L 535.349444 289.423168 
L 537.25768 289.20335 
L 541.074152 289.159386 
L 542.982388 288.983531 
L 545.526703 288.895604 
L 553.159647 288.807676 
L 556.34004 288.675785 
L 567.153377 288.631821 
L 568.425534 288.543894 
L 570.33377 288.49993 
L 578.602793 288.412003 
L 579.87495 288.324075 
L 586.871815 288.236148 
L 589.41613 288.148221 
L 597.049074 288.104257 
L 598.321231 288.016329 
L 607.862411 287.972366 
L 609.770647 287.796511 
L 620.583984 287.708583 
L 622.49222 287.66462 
L 639.030265 287.576692 
L 640.938501 287.532729 
L 653.023995 287.444801 
L 655.56831 287.356874 
L 660.020861 287.268946 
L 665.10949 287.005164 
L 667.653805 286.917237 
L 670.198119 286.829309 
L 674.014591 286.741382 
L 675.922827 286.697418 
L 678.467142 286.609491 
L 680.375378 286.565527 
L 683.555771 286.477599 
L 684.827928 286.389672 
L 688.6444 286.301745 
L 691.824793 286.169853 
L 693.096951 286.12589 
L 695.005187 285.950035 
L 698.821659 285.862107 
L 701.365973 285.77418 
L 707.72676 285.686253 
L 710.907153 285.554361 
L 717.26794 285.466434 
L 721.72049 285.246615 
L 727.445198 285.158688 
L 728.717355 285.070761 
L 736.350299 284.982833 
L 738.258535 284.93887 
L 745.2554 284.850942 
L 746.527558 284.763015 
L 747.163636 284.763015 
L 747.163636 284.763015 
" clip-path="url(#p4e51295278)" style="fill: none; stroke: #ff7f0e; stroke-width: 1.5; stroke-linecap: square"/>
   </g>
   <g id="patch_3">
    <path d="M 108 320.4 
L 108 43.2 
" style="fill: none; stroke: #a9a9a9; stroke-width: 0.8; stroke-linejoin: miter; stroke-linecap: square"/>
   </g>
   <g id="patch_4">
    <path d="M 777.6 320.4 
L 777.6 43.2 
" style="fill: none"/>
   </g>
   <g id="patch_5">
    <path d="M 108 320.4 
L 777.6 320.4 
" style="fill: none; stroke: #a9a9a9; stroke-width: 0.8; stroke-linejoin: miter; stroke-linecap: square"/>
   </g>
   <g id="patch_6">
    <path d="M 108 43.2 
L 777.6 43.2 
" style="fill: none"/>
   </g>
   <g id="text_17">
    <!-- get_subscribe history -->
    <g style="fill: #a9a9a9" transform="translate(378.6075 37.2) scale(0.12 -0.12)">
     <defs>
      <path id="DejaVuSans-67" d="M 2906 1791 
Q 2906 2416 2648 2759 
Q 2391 3103 1925 3103 
Q 1463 3103 1205 2759 
Q 947 2416 947 1791 
Q 947 1169 1205 825 
Q 1463 481 1925 481 
Q 2391 481 2648 825 
Q 2906 1169 2906 1791 
z
M 3481 434 
Q 3481 -459 3084 -895 
Q 2688 -1331 1869 -1331 
Q 1566 -1331 1297 -1286 
Q 1028 -1241 775 -1147 
L 775 -588 
Q 1028 -725 1275 -790 
Q 1522 -856 1778 -856 
Q 2344 -856 2625 -561 
Q 2906 -266 2906 331 
L 2906 616 
Q 2728 306 2450 153 
Q 2172 0 1784 0 
Q 1141 0 747 490 
Q 353 981 353 1791 
Q 353 2603 747 3093 
Q 1141 3584 1784 3584 
Q 2172 3584 2450 3431 
Q 2728 3278 2906 2969 
L 2906 3500 
L 3481 3500 
L 3481 434 
z
" transform="scale(0.015625)"/>
      <path id="DejaVuSans-65" d="M 3597 1894 
L 3597 1613 
L 953 1613 
Q 991 1019 1311 708 
Q 1631 397 2203 397 
Q 2534 397 2845 478 
Q 3156 559 3463 722 
L 3463 178 
Q 3153 47 2828 -22 
Q 2503 -91 2169 -91 
Q 1331 -91 842 396 
Q 353 884 353 1716 
Q 353 2575 817 3079 
Q 1281 3584 2069 3584 
Q 2775 3584 3186 3129 
Q 3597 2675 3597 1894 
z
M 3022 2063 
Q 3016 2534 2758 2815 
Q 2500 3097 2075 3097 
Q 1594 3097 1305 2825 
Q 1016 2553 972 2059 
L 3022 2063 
z
" transform="scale(0.015625)"/>
      <path id="DejaVuSans-74" d="M 1172 4494 
L 1172 3500 
L 2356 3500 
L 2356 3053 
L 1172 3053 
L 1172 1153 
Q 1172 725 1289 603 
Q 1406 481 1766 481 
L 2356 481 
L 2356 0 
L 1766 0 
Q 1100 0 847 248 
Q 594 497 594 1153 
L 594 3053 
L 172 3053 
L 172 3500 
L 594 3500 
L 594 4494 
L 1172 4494 
z
" transform="scale(0.015625)"/>
      <path id="DejaVuSans-5f" d="M 3263 -1063 
L 3263 -1509 
L -63 -1509 
L -63 -1063 
L 3263 -1063 
z
" transform="scale(0.015625)"/>
      <path id="DejaVuSans-73" d="M 2834 3397 
L 2834 2853 
Q 2591 2978 2328 3040 
Q 2066 3103 1784 3103 
Q 1356 3103 1142 2972 
Q 928 2841 928 2578 
Q 928 2378 1081 2264 
Q 1234 2150 1697 2047 
L 1894 2003 
Q 2506 1872 2764 1633 
Q 3022 1394 3022 966 
Q 3022 478 2636 193 
Q 2250 -91 1575 -91 
Q 1294 -91 989 -36 
Q 684 19 347 128 
L 347 722 
Q 666 556 975 473 
Q 1284 391 1588 391 
Q 1994 391 2212 530 
Q 2431 669 2431 922 
Q 2431 1156 2273 1281 
Q 2116 1406 1581 1522 
L 1381 1569 
Q 847 1681 609 1914 
Q 372 2147 372 2553 
Q 372 3047 722 3315 
Q 1072 3584 1716 3584 
Q 2034 3584 2315 3537 
Q 2597 3491 2834 3397 
z
" transform="scale(0.015625)"/>
      <path id="DejaVuSans-75" d="M 544 1381 
L 544 3500 
L 1119 3500 
L 1119 1403 
Q 1119 906 1312 657 
Q 1506 409 1894 409 
Q 2359 409 2629 706 
Q 2900 1003 2900 1516 
L 2900 3500 
L 3475 3500 
L 3475 0 
L 2900 0 
L 2900 538 
Q 2691 219 2414 64 
Q 2138 -91 1772 -91 
Q 1169 -91 856 284 
Q 544 659 544 1381 
z
M 1991 3584 
L 1991 3584 
z
" transform="scale(0.015625)"/>
      <path id="DejaVuSans-62" d="M 3116 1747 
Q 3116 2381 2855 2742 
Q 2594 3103 2138 3103 
Q 1681 3103 1420 2742 
Q 1159 2381 1159 1747 
Q 1159 1113 1420 752 
Q 1681 391 2138 391 
Q 2594 391 2855 752 
Q 3116 1113 3116 1747 
z
M 1159 2969 
Q 1341 3281 1617 3432 
Q 1894 3584 2278 3584 
Q 2916 3584 3314 3078 
Q 3713 2572 3713 1747 
Q 3713 922 3314 415 
Q 2916 -91 2278 -91 
Q 1894 -91 1617 61 
Q 1341 213 1159 525 
L 1159 0 
L 581 0 
L 581 4863 
L 1159 4863 
L 1159 2969 
z
" transform="scale(0.015625)"/>
      <path id="DejaVuSans-63" d="M 3122 3366 
L 3122 2828 
Q 2878 2963 2633 3030 
Q 2388 3097 2138 3097 
Q 1578 3097 1268 2742 
Q 959 2388 959 1747 
Q 959 1106 1268 751 
Q 1578 397 2138 397 
Q 2388 397 2633 464 
Q 2878 531 3122 666 
L 3122 134 
Q 2881 22 2623 -34 
Q 2366 -91 2075 -91 
Q 1284 -91 818 406 
Q 353 903 353 1747 
Q 353 2603 823 3093 
Q 1294 3584 2113 3584 
Q 2378 3584 2631 3529 
Q 2884 3475 3122 3366 
z
" transform="scale(0.015625)"/>
      <path id="DejaVuSans-72" d="M 2631 2963 
Q 2534 3019 2420 3045 
Q 2306 3072 2169 3072 
Q 1681 3072 1420 2755 
Q 1159 2438 1159 1844 
L 1159 0 
L 581 0 
L 581 3500 
L 1159 3500 
L 1159 2956 
Q 1341 3275 1631 3429 
Q 1922 3584 2338 3584 
Q 2397 3584 2469 3576 
Q 2541 3569 2628 3553 
L 2631 2963 
z
" transform="scale(0.015625)"/>
      <path id="DejaVuSans-69" d="M 603 3500 
L 1178 3500 
L 1178 0 
L 603 0 
L 603 3500 
z
M 603 4863 
L 1178 4863 
L 1178 4134 
L 603 4134 
L 603 4863 
z
" transform="scale(0.015625)"/>
      <path id="DejaVuSans-20" transform="scale(0.015625)"/>
      <path id="DejaVuSans-68" d="M 3513 2113 
L 3513 0 
L 2938 0 
L 2938 2094 
Q 2938 2591 2744 2837 
Q 2550 3084 2163 3084 
Q 1697 3084 1428 2787 
Q 1159 2491 1159 1978 
L 1159 0 
L 581 0 
L 581 4863 
L 1159 4863 
L 1159 2956 
Q 1366 3272 1645 3428 
Q 1925 3584 2291 3584 
Q 2894 3584 3203 3211 
Q 3513 2838 3513 2113 
z
" transform="scale(0.015625)"/>
      <path id="DejaVuSans-6f" d="M 1959 3097 
Q 1497 3097 1228 2736 
Q 959 2375 959 1747 
Q 959 1119 1226 758 
Q 1494 397 1959 397 
Q 2419 397 2687 759 
Q 2956 1122 2956 1747 
Q 2956 2369 2687 2733 
Q 2419 3097 1959 3097 
z
M 1959 3584 
Q 2709 3584 3137 3096 
Q 3566 2609 3566 1747 
Q 3566 888 3137 398 
Q 2709 -91 1959 -91 
Q 1206 -91 779 398 
Q 353 888 353 1747 
Q 353 2609 779 3096 
Q 1206 3584 1959 3584 
z
" transform="scale(0.015625)"/>
      <path id="DejaVuSans-79" d="M 2059 -325 
Q 1816 -950 1584 -1140 
Q 1353 -1331 966 -1331 
L 506 -1331 
L 506 -850 
L 844 -850 
Q 1081 -850 1212 -737 
Q 1344 -625 1503 -206 
L 1606 56 
L 191 3500 
L 800 3500 
L 1894 763 
L 2988 3500 
L 3597 3500 
L 2059 -325 
z
" transform="scale(0.015625)"/>
     </defs>
     <use xlink:href="#DejaVuSans-67"/>
     <use xlink:href="#DejaVuSans-65" x="63.476562"/>
     <use xlink:href="#DejaVuSans-74" x="125"/>
     <use xlink:href="#DejaVuSans-5f" x="164.208984"/>
     <use xlink:href="#DejaVuSans-73" x="214.208984"/>
     <use xlink:href="#DejaVuSans-75" x="266.308594"/>
     <use xlink:href="#DejaVuSans-62" x="329.6875"/>
     <use xlink:href="#DejaVuSans-73" x="393.164062"/>
     <use xlink:href="#DejaVuSans-63" x="445.263672"/>
     <use xlink:href="#DejaVuSans-72" x="500.244141"/>
     <use xlink:href="#DejaVuSans-69" x="541.357422"/>
     <use xlink:href="#DejaVuSans-62" x="569.140625"/>
     <use xlink:href="#DejaVuSans-65" x="632.617188"/>
     <use xlink:href="#DejaVuSans-20" x="694.140625"/>
     <use xlink:href="#DejaVuSans-68" x="725.927734"/>
     <use xlink:href="#DejaVuSans-69" x="789.306641"/>
     <use xlink:href="#DejaVuSans-73" x="817.089844"/>
     <use xlink:href="#DejaVuSans-74" x="869.189453"/>
     <use xlink:href="#DejaVuSans-6f" x="908.398438"/>
     <use xlink:href="#DejaVuSans-72" x="969.580078"/>
     <use xlink:href="#DejaVuSans-79" x="1010.693359"/>
    </g>
   </g>
   <g id="legend_1">
    <g id="line2d_35">
     <path d="M 815.08 328.498438 
L 825.08 328.498438 
L 835.08 328.498438 
" style="fill: none; stroke: #1f77b4; stroke-width: 1.5; stroke-linecap: square"/>
    </g>
    <g id="text_18">
     <!-- star -->
     <g style="fill: #a9a9a9" transform="translate(843.08 331.998438) scale(0.1 -0.1)">
      <defs>
       <path id="DejaVuSans-61" d="M 2194 1759 
Q 1497 1759 1228 1600 
Q 959 1441 959 1056 
Q 959 750 1161 570 
Q 1363 391 1709 391 
Q 2188 391 2477 730 
Q 2766 1069 2766 1631 
L 2766 1759 
L 2194 1759 
z
M 3341 1997 
L 3341 0 
L 2766 0 
L 2766 531 
Q 2569 213 2275 61 
Q 1981 -91 1556 -91 
Q 1019 -91 701 211 
Q 384 513 384 1019 
Q 384 1609 779 1909 
Q 1175 2209 1959 2209 
L 2766 2209 
L 2766 2266 
Q 2766 2663 2505 2880 
Q 2244 3097 1772 3097 
Q 1472 3097 1187 3025 
Q 903 2953 641 2809 
L 641 3341 
Q 956 3463 1253 3523 
Q 1550 3584 1831 3584 
Q 2591 3584 2966 3190 
Q 3341 2797 3341 1997 
z
" transform="scale(0.015625)"/>
      </defs>
      <use xlink:href="#DejaVuSans-73"/>
      <use xlink:href="#DejaVuSans-74" x="52.099609"/>
      <use xlink:href="#DejaVuSans-61" x="91.308594"/>
      <use xlink:href="#DejaVuSans-72" x="152.587891"/>
     </g>
    </g>
    <g id="line2d_36">
     <path d="M 815.08 343.176562 
L 825.08 343.176562 
L 835.08 343.176562 
" style="fill: none; stroke: #ff7f0e; stroke-width: 1.5; stroke-linecap: square"/>
    </g>
    <g id="text_19">
     <!-- fork -->
     <g style="fill: #a9a9a9" transform="translate(843.08 346.676562) scale(0.1 -0.1)">
      <defs>
       <path id="DejaVuSans-66" d="M 2375 4863 
L 2375 4384 
L 1825 4384 
Q 1516 4384 1395 4259 
Q 1275 4134 1275 3809 
L 1275 3500 
L 2222 3500 
L 2222 3053 
L 1275 3053 
L 1275 0 
L 697 0 
L 697 3053 
L 147 3053 
L 147 3500 
L 697 3500 
L 697 3744 
Q 697 4328 969 4595 
Q 1241 4863 1831 4863 
L 2375 4863 
z
" transform="scale(0.015625)"/>
       <path id="DejaVuSans-6b" d="M 581 4863 
L 1159 4863 
L 1159 1991 
L 2875 3500 
L 3609 3500 
L 1753 1863 
L 3688 0 
L 2938 0 
L 1159 1709 
L 1159 0 
L 581 0 
L 581 4863 
z
" transform="scale(0.015625)"/>
      </defs>
      <use xlink:href="#DejaVuSans-66"/>
      <use xlink:href="#DejaVuSans-6f" x="35.205078"/>
      <use xlink:href="#DejaVuSans-72" x="96.386719"/>
      <use xlink:href="#DejaVuSans-6b" x="137.5"/>
     </g>
    </g>
   </g>
  </g>
 </g>
 <defs>
  <clipPath id="p4e51295278">
   <rect x="108" y="43.2" width="669.6" height="277.2"/>
  </clipPath>
 </defs>
</svg>
