<?xml version="1.0" encoding="utf-8" standalone="no"?>
<!DOCTYPE svg PUBLIC "-//W3C//DTD SVG 1.1//EN"
  "http://www.w3.org/Graphics/SVG/1.1/DTD/svg11.dtd">
<svg xmlns:xlink="http://www.w3.org/1999/xlink" width="864pt" height="360pt" viewBox="0 0 864 360" xmlns="http://www.w3.org/2000/svg" version="1.1">
 <metadata>
  <rdf:RDF xmlns:dc="http://purl.org/dc/elements/1.1/" xmlns:cc="http://creativecommons.org/ns#" xmlns:rdf="http://www.w3.org/1999/02/22-rdf-syntax-ns#">
   <cc:Work>
    <dc:type rdf:resource="http://purl.org/dc/dcmitype/StillImage"/>
    <dc:date>2024-03-05T08:10:01.896985</dc:date>
    <dc:format>image/svg+xml</dc:format>
    <dc:creator>
     <cc:Agent>
      <dc:title>Matplotlib v3.8.3, https://matplotlib.org/</dc:title>
     </cc:Agent>
    </dc:creator>
   </cc:Work>
  </rdf:RDF>
 </metadata>
 <defs>
  <style type="text/css">*{stroke-linejoin: round; stroke-linecap: butt}</style>
 </defs>
 <g id="figure_1">
  <g id="patch_1">
   <path d="M 0 360 
L 864 360 
L 864 0 
L 0 0 
L 0 360 
z
" style="fill: none; opacity: 0"/>
  </g>
  <g id="axes_1">
   <g id="patch_2">
    <path d="M 108 320.4 
L 777.6 320.4 
L 777.6 43.2 
L 108 43.2 
L 108 320.4 
z
" style="fill: none; opacity: 0"/>
   </g>
   <g id="matplotlib.axis_1">
    <g id="xtick_1">
     <g id="line2d_1">
      <path d="M 163.295383 320.4 
L 163.295383 43.2 
" clip-path="url(#p61499bd020)" style="fill: none; stroke-dasharray: 5.12,1.28,0.8,1.28; stroke-dashoffset: 0; stroke: #b0b0b0; stroke-width: 0.8"/>
     </g>
     <g id="line2d_2">
      <defs>
       <path id="mb8664b2fe7" d="M 0 0 
L 0 3.5 
" style="stroke: #a9a9a9; stroke-width: 0.8"/>
      </defs>
      <g>
       <use xlink:href="#mb8664b2fe7" x="163.295383" y="320.4" style="fill: #a9a9a9; stroke: #a9a9a9; stroke-width: 0.8"/>
      </g>
     </g>
     <g id="text_1">
      <!-- 2021-09 -->
      <g style="fill: #a9a9a9" transform="translate(142.403977 334.998438) scale(0.1 -0.1)">
       <defs>
        <path id="DejaVuSans-32" d="M 1228 531 
L 3431 531 
L 3431 0 
L 469 0 
L 469 531 
Q 828 903 1448 1529 
Q 2069 2156 2228 2338 
Q 2531 2678 2651 2914 
Q 2772 3150 2772 3378 
Q 2772 3750 2511 3984 
Q 2250 4219 1831 4219 
Q 1534 4219 1204 4116 
Q 875 4013 500 3803 
L 500 4441 
Q 881 4594 1212 4672 
Q 1544 4750 1819 4750 
Q 2544 4750 2975 4387 
Q 3406 4025 3406 3419 
Q 3406 3131 3298 2873 
Q 3191 2616 2906 2266 
Q 2828 2175 2409 1742 
Q 1991 1309 1228 531 
z
" transform="scale(0.015625)"/>
        <path id="DejaVuSans-30" d="M 2034 4250 
Q 1547 4250 1301 3770 
Q 1056 3291 1056 2328 
Q 1056 1369 1301 889 
Q 1547 409 2034 409 
Q 2525 409 2770 889 
Q 3016 1369 3016 2328 
Q 3016 3291 2770 3770 
Q 2525 4250 2034 4250 
z
M 2034 4750 
Q 2819 4750 3233 4129 
Q 3647 3509 3647 2328 
Q 3647 1150 3233 529 
Q 2819 -91 2034 -91 
Q 1250 -91 836 529 
Q 422 1150 422 2328 
Q 422 3509 836 4129 
Q 1250 4750 2034 4750 
z
" transform="scale(0.015625)"/>
        <path id="DejaVuSans-31" d="M 794 531 
L 1825 531 
L 1825 4091 
L 703 3866 
L 703 4441 
L 1819 4666 
L 2450 4666 
L 2450 531 
L 3481 531 
L 3481 0 
L 794 0 
L 794 531 
z
" transform="scale(0.015625)"/>
        <path id="DejaVuSans-2d" d="M 313 2009 
L 1997 2009 
L 1997 1497 
L 313 1497 
L 313 2009 
z
" transform="scale(0.015625)"/>
        <path id="DejaVuSans-39" d="M 703 97 
L 703 672 
Q 941 559 1184 500 
Q 1428 441 1663 441 
Q 2288 441 2617 861 
Q 2947 1281 2994 2138 
Q 2813 1869 2534 1725 
Q 2256 1581 1919 1581 
Q 1219 1581 811 2004 
Q 403 2428 403 3163 
Q 403 3881 828 4315 
Q 1253 4750 1959 4750 
Q 2769 4750 3195 4129 
Q 3622 3509 3622 2328 
Q 3622 1225 3098 567 
Q 2575 -91 1691 -91 
Q 1453 -91 1209 -44 
Q 966 3 703 97 
z
M 1959 2075 
Q 2384 2075 2632 2365 
Q 2881 2656 2881 3163 
Q 2881 3666 2632 3958 
Q 2384 4250 1959 4250 
Q 1534 4250 1286 3958 
Q 1038 3666 1038 3163 
Q 1038 2656 1286 2365 
Q 1534 2075 1959 2075 
z
" transform="scale(0.015625)"/>
       </defs>
       <use xlink:href="#DejaVuSans-32"/>
       <use xlink:href="#DejaVuSans-30" x="63.623047"/>
       <use xlink:href="#DejaVuSans-32" x="127.246094"/>
       <use xlink:href="#DejaVuSans-31" x="190.869141"/>
       <use xlink:href="#DejaVuSans-2d" x="254.492188"/>
       <use xlink:href="#DejaVuSans-30" x="290.576172"/>
       <use xlink:href="#DejaVuSans-39" x="354.199219"/>
      </g>
     </g>
    </g>
    <g id="xtick_2">
     <g id="line2d_3">
      <path d="M 241.059495 320.4 
L 241.059495 43.2 
" clip-path="url(#p61499bd020)" style="fill: none; stroke-dasharray: 5.12,1.28,0.8,1.28; stroke-dashoffset: 0; stroke: #b0b0b0; stroke-width: 0.8"/>
     </g>
     <g id="line2d_4">
      <g>
       <use xlink:href="#mb8664b2fe7" x="241.059495" y="320.4" style="fill: #a9a9a9; stroke: #a9a9a9; stroke-width: 0.8"/>
      </g>
     </g>
     <g id="text_2">
      <!-- 2022-01 -->
      <g style="fill: #a9a9a9" transform="translate(220.168089 334.998438) scale(0.1 -0.1)">
       <use xlink:href="#DejaVuSans-32"/>
       <use xlink:href="#DejaVuSans-30" x="63.623047"/>
       <use xlink:href="#DejaVuSans-32" x="127.246094"/>
       <use xlink:href="#DejaVuSans-32" x="190.869141"/>
       <use xlink:href="#DejaVuSans-2d" x="254.492188"/>
       <use xlink:href="#DejaVuSans-30" x="290.576172"/>
       <use xlink:href="#DejaVuSans-31" x="354.199219"/>
      </g>
     </g>
    </g>
    <g id="xtick_3">
     <g id="line2d_5">
      <path d="M 317.548786 320.4 
L 317.548786 43.2 
" clip-path="url(#p61499bd020)" style="fill: none; stroke-dasharray: 5.12,1.28,0.8,1.28; stroke-dashoffset: 0; stroke: #b0b0b0; stroke-width: 0.8"/>
     </g>
     <g id="line2d_6">
      <g>
       <use xlink:href="#mb8664b2fe7" x="317.548786" y="320.4" style="fill: #a9a9a9; stroke: #a9a9a9; stroke-width: 0.8"/>
      </g>
     </g>
     <g id="text_3">
      <!-- 2022-05 -->
      <g style="fill: #a9a9a9" transform="translate(296.65738 334.998438) scale(0.1 -0.1)">
       <defs>
        <path id="DejaVuSans-35" d="M 691 4666 
L 3169 4666 
L 3169 4134 
L 1269 4134 
L 1269 2991 
Q 1406 3038 1543 3061 
Q 1681 3084 1819 3084 
Q 2600 3084 3056 2656 
Q 3513 2228 3513 1497 
Q 3513 744 3044 326 
Q 2575 -91 1722 -91 
Q 1428 -91 1123 -41 
Q 819 9 494 109 
L 494 744 
Q 775 591 1075 516 
Q 1375 441 1709 441 
Q 2250 441 2565 725 
Q 2881 1009 2881 1497 
Q 2881 1984 2565 2268 
Q 2250 2553 1709 2553 
Q 1456 2553 1204 2497 
Q 953 2441 691 2322 
L 691 4666 
z
" transform="scale(0.015625)"/>
       </defs>
       <use xlink:href="#DejaVuSans-32"/>
       <use xlink:href="#DejaVuSans-30" x="63.623047"/>
       <use xlink:href="#DejaVuSans-32" x="127.246094"/>
       <use xlink:href="#DejaVuSans-32" x="190.869141"/>
       <use xlink:href="#DejaVuSans-2d" x="254.492188"/>
       <use xlink:href="#DejaVuSans-30" x="290.576172"/>
       <use xlink:href="#DejaVuSans-35" x="354.199219"/>
      </g>
     </g>
    </g>
    <g id="xtick_4">
     <g id="line2d_7">
      <path d="M 395.950309 320.4 
L 395.950309 43.2 
" clip-path="url(#p61499bd020)" style="fill: none; stroke-dasharray: 5.12,1.28,0.8,1.28; stroke-dashoffset: 0; stroke: #b0b0b0; stroke-width: 0.8"/>
     </g>
     <g id="line2d_8">
      <g>
       <use xlink:href="#mb8664b2fe7" x="395.950309" y="320.4" style="fill: #a9a9a9; stroke: #a9a9a9; stroke-width: 0.8"/>
      </g>
     </g>
     <g id="text_4">
      <!-- 2022-09 -->
      <g style="fill: #a9a9a9" transform="translate(375.058903 334.998438) scale(0.1 -0.1)">
       <use xlink:href="#DejaVuSans-32"/>
       <use xlink:href="#DejaVuSans-30" x="63.623047"/>
       <use xlink:href="#DejaVuSans-32" x="127.246094"/>
       <use xlink:href="#DejaVuSans-32" x="190.869141"/>
       <use xlink:href="#DejaVuSans-2d" x="254.492188"/>
       <use xlink:href="#DejaVuSans-30" x="290.576172"/>
       <use xlink:href="#DejaVuSans-39" x="354.199219"/>
      </g>
     </g>
    </g>
    <g id="xtick_5">
     <g id="line2d_9">
      <path d="M 473.714422 320.4 
L 473.714422 43.2 
" clip-path="url(#p61499bd020)" style="fill: none; stroke-dasharray: 5.12,1.28,0.8,1.28; stroke-dashoffset: 0; stroke: #b0b0b0; stroke-width: 0.8"/>
     </g>
     <g id="line2d_10">
      <g>
       <use xlink:href="#mb8664b2fe7" x="473.714422" y="320.4" style="fill: #a9a9a9; stroke: #a9a9a9; stroke-width: 0.8"/>
      </g>
     </g>
     <g id="text_5">
      <!-- 2023-01 -->
      <g style="fill: #a9a9a9" transform="translate(452.823015 334.998438) scale(0.1 -0.1)">
       <defs>
        <path id="DejaVuSans-33" d="M 2597 2516 
Q 3050 2419 3304 2112 
Q 3559 1806 3559 1356 
Q 3559 666 3084 287 
Q 2609 -91 1734 -91 
Q 1441 -91 1130 -33 
Q 819 25 488 141 
L 488 750 
Q 750 597 1062 519 
Q 1375 441 1716 441 
Q 2309 441 2620 675 
Q 2931 909 2931 1356 
Q 2931 1769 2642 2001 
Q 2353 2234 1838 2234 
L 1294 2234 
L 1294 2753 
L 1863 2753 
Q 2328 2753 2575 2939 
Q 2822 3125 2822 3475 
Q 2822 3834 2567 4026 
Q 2313 4219 1838 4219 
Q 1578 4219 1281 4162 
Q 984 4106 628 3988 
L 628 4550 
Q 988 4650 1302 4700 
Q 1616 4750 1894 4750 
Q 2613 4750 3031 4423 
Q 3450 4097 3450 3541 
Q 3450 3153 3228 2886 
Q 3006 2619 2597 2516 
z
" transform="scale(0.015625)"/>
       </defs>
       <use xlink:href="#DejaVuSans-32"/>
       <use xlink:href="#DejaVuSans-30" x="63.623047"/>
       <use xlink:href="#DejaVuSans-32" x="127.246094"/>
       <use xlink:href="#DejaVuSans-33" x="190.869141"/>
       <use xlink:href="#DejaVuSans-2d" x="254.492188"/>
       <use xlink:href="#DejaVuSans-30" x="290.576172"/>
       <use xlink:href="#DejaVuSans-31" x="354.199219"/>
      </g>
     </g>
    </g>
    <g id="xtick_6">
     <g id="line2d_11">
      <path d="M 550.203713 320.4 
L 550.203713 43.2 
" clip-path="url(#p61499bd020)" style="fill: none; stroke-dasharray: 5.12,1.28,0.8,1.28; stroke-dashoffset: 0; stroke: #b0b0b0; stroke-width: 0.8"/>
     </g>
     <g id="line2d_12">
      <g>
       <use xlink:href="#mb8664b2fe7" x="550.203713" y="320.4" style="fill: #a9a9a9; stroke: #a9a9a9; stroke-width: 0.8"/>
      </g>
     </g>
     <g id="text_6">
      <!-- 2023-05 -->
      <g style="fill: #a9a9a9" transform="translate(529.312306 334.998438) scale(0.1 -0.1)">
       <use xlink:href="#DejaVuSans-32"/>
       <use xlink:href="#DejaVuSans-30" x="63.623047"/>
       <use xlink:href="#DejaVuSans-32" x="127.246094"/>
       <use xlink:href="#DejaVuSans-33" x="190.869141"/>
       <use xlink:href="#DejaVuSans-2d" x="254.492188"/>
       <use xlink:href="#DejaVuSans-30" x="290.576172"/>
       <use xlink:href="#DejaVuSans-35" x="354.199219"/>
      </g>
     </g>
    </g>
    <g id="xtick_7">
     <g id="line2d_13">
      <path d="M 628.605236 320.4 
L 628.605236 43.2 
" clip-path="url(#p61499bd020)" style="fill: none; stroke-dasharray: 5.12,1.28,0.8,1.28; stroke-dashoffset: 0; stroke: #b0b0b0; stroke-width: 0.8"/>
     </g>
     <g id="line2d_14">
      <g>
       <use xlink:href="#mb8664b2fe7" x="628.605236" y="320.4" style="fill: #a9a9a9; stroke: #a9a9a9; stroke-width: 0.8"/>
      </g>
     </g>
     <g id="text_7">
      <!-- 2023-09 -->
      <g style="fill: #a9a9a9" transform="translate(607.713829 334.998438) scale(0.1 -0.1)">
       <use xlink:href="#DejaVuSans-32"/>
       <use xlink:href="#DejaVuSans-30" x="63.623047"/>
       <use xlink:href="#DejaVuSans-32" x="127.246094"/>
       <use xlink:href="#DejaVuSans-33" x="190.869141"/>
       <use xlink:href="#DejaVuSans-2d" x="254.492188"/>
       <use xlink:href="#DejaVuSans-30" x="290.576172"/>
       <use xlink:href="#DejaVuSans-39" x="354.199219"/>
      </g>
     </g>
    </g>
    <g id="xtick_8">
     <g id="line2d_15">
      <path d="M 706.369348 320.4 
L 706.369348 43.2 
" clip-path="url(#p61499bd020)" style="fill: none; stroke-dasharray: 5.12,1.28,0.8,1.28; stroke-dashoffset: 0; stroke: #b0b0b0; stroke-width: 0.8"/>
     </g>
     <g id="line2d_16">
      <g>
       <use xlink:href="#mb8664b2fe7" x="706.369348" y="320.4" style="fill: #a9a9a9; stroke: #a9a9a9; stroke-width: 0.8"/>
      </g>
     </g>
     <g id="text_8">
      <!-- 2024-01 -->
      <g style="fill: #a9a9a9" transform="translate(685.477942 334.998438) scale(0.1 -0.1)">
       <defs>
        <path id="DejaVuSans-34" d="M 2419 4116 
L 825 1625 
L 2419 1625 
L 2419 4116 
z
M 2253 4666 
L 3047 4666 
L 3047 1625 
L 3713 1625 
L 3713 1100 
L 3047 1100 
L 3047 0 
L 2419 0 
L 2419 1100 
L 313 1100 
L 313 1709 
L 2253 4666 
z
" transform="scale(0.015625)"/>
       </defs>
       <use xlink:href="#DejaVuSans-32"/>
       <use xlink:href="#DejaVuSans-30" x="63.623047"/>
       <use xlink:href="#DejaVuSans-32" x="127.246094"/>
       <use xlink:href="#DejaVuSans-34" x="190.869141"/>
       <use xlink:href="#DejaVuSans-2d" x="254.492188"/>
       <use xlink:href="#DejaVuSans-30" x="290.576172"/>
       <use xlink:href="#DejaVuSans-31" x="354.199219"/>
      </g>
     </g>
    </g>
   </g>
   <g id="matplotlib.axis_2">
    <g id="ytick_1">
     <g id="line2d_17">
      <path d="M 108 307.844056 
L 777.6 307.844056 
" clip-path="url(#p61499bd020)" style="fill: none; stroke-dasharray: 5.12,1.28,0.8,1.28; stroke-dashoffset: 0; stroke: #b0b0b0; stroke-width: 0.8"/>
     </g>
     <g id="line2d_18">
      <defs>
       <path id="m065f43d2a7" d="M 0 0 
L -3.5 0 
" style="stroke: #a9a9a9; stroke-width: 0.8"/>
      </defs>
      <g>
       <use xlink:href="#m065f43d2a7" x="108" y="307.844056" style="fill: #a9a9a9; stroke: #a9a9a9; stroke-width: 0.8"/>
      </g>
     </g>
     <g id="text_9">
      <!-- 0 -->
      <g style="fill: #a9a9a9" transform="translate(94.6375 311.643275) scale(0.1 -0.1)">
       <use xlink:href="#DejaVuSans-30"/>
      </g>
     </g>
    </g>
    <g id="ytick_2">
     <g id="line2d_19">
      <path d="M 108 272.599301 
L 777.6 272.599301 
" clip-path="url(#p61499bd020)" style="fill: none; stroke-dasharray: 5.12,1.28,0.8,1.28; stroke-dashoffset: 0; stroke: #b0b0b0; stroke-width: 0.8"/>
     </g>
     <g id="line2d_20">
      <g>
       <use xlink:href="#m065f43d2a7" x="108" y="272.599301" style="fill: #a9a9a9; stroke: #a9a9a9; stroke-width: 0.8"/>
      </g>
     </g>
     <g id="text_10">
      <!-- 800 -->
      <g style="fill: #a9a9a9" transform="translate(81.9125 276.398519) scale(0.1 -0.1)">
       <defs>
        <path id="DejaVuSans-38" d="M 2034 2216 
Q 1584 2216 1326 1975 
Q 1069 1734 1069 1313 
Q 1069 891 1326 650 
Q 1584 409 2034 409 
Q 2484 409 2743 651 
Q 3003 894 3003 1313 
Q 3003 1734 2745 1975 
Q 2488 2216 2034 2216 
z
M 1403 2484 
Q 997 2584 770 2862 
Q 544 3141 544 3541 
Q 544 4100 942 4425 
Q 1341 4750 2034 4750 
Q 2731 4750 3128 4425 
Q 3525 4100 3525 3541 
Q 3525 3141 3298 2862 
Q 3072 2584 2669 2484 
Q 3125 2378 3379 2068 
Q 3634 1759 3634 1313 
Q 3634 634 3220 271 
Q 2806 -91 2034 -91 
Q 1263 -91 848 271 
Q 434 634 434 1313 
Q 434 1759 690 2068 
Q 947 2378 1403 2484 
z
M 1172 3481 
Q 1172 3119 1398 2916 
Q 1625 2713 2034 2713 
Q 2441 2713 2670 2916 
Q 2900 3119 2900 3481 
Q 2900 3844 2670 4047 
Q 2441 4250 2034 4250 
Q 1625 4250 1398 4047 
Q 1172 3844 1172 3481 
z
" transform="scale(0.015625)"/>
       </defs>
       <use xlink:href="#DejaVuSans-38"/>
       <use xlink:href="#DejaVuSans-30" x="63.623047"/>
       <use xlink:href="#DejaVuSans-30" x="127.246094"/>
      </g>
     </g>
    </g>
    <g id="ytick_3">
     <g id="line2d_21">
      <path d="M 108 237.354545 
L 777.6 237.354545 
" clip-path="url(#p61499bd020)" style="fill: none; stroke-dasharray: 5.12,1.28,0.8,1.28; stroke-dashoffset: 0; stroke: #b0b0b0; stroke-width: 0.8"/>
     </g>
     <g id="line2d_22">
      <g>
       <use xlink:href="#m065f43d2a7" x="108" y="237.354545" style="fill: #a9a9a9; stroke: #a9a9a9; stroke-width: 0.8"/>
      </g>
     </g>
     <g id="text_11">
      <!-- 1600 -->
      <g style="fill: #a9a9a9" transform="translate(75.55 241.153764) scale(0.1 -0.1)">
       <defs>
        <path id="DejaVuSans-36" d="M 2113 2584 
Q 1688 2584 1439 2293 
Q 1191 2003 1191 1497 
Q 1191 994 1439 701 
Q 1688 409 2113 409 
Q 2538 409 2786 701 
Q 3034 994 3034 1497 
Q 3034 2003 2786 2293 
Q 2538 2584 2113 2584 
z
M 3366 4563 
L 3366 3988 
Q 3128 4100 2886 4159 
Q 2644 4219 2406 4219 
Q 1781 4219 1451 3797 
Q 1122 3375 1075 2522 
Q 1259 2794 1537 2939 
Q 1816 3084 2150 3084 
Q 2853 3084 3261 2657 
Q 3669 2231 3669 1497 
Q 3669 778 3244 343 
Q 2819 -91 2113 -91 
Q 1303 -91 875 529 
Q 447 1150 447 2328 
Q 447 3434 972 4092 
Q 1497 4750 2381 4750 
Q 2619 4750 2861 4703 
Q 3103 4656 3366 4563 
z
" transform="scale(0.015625)"/>
       </defs>
       <use xlink:href="#DejaVuSans-31"/>
       <use xlink:href="#DejaVuSans-36" x="63.623047"/>
       <use xlink:href="#DejaVuSans-30" x="127.246094"/>
       <use xlink:href="#DejaVuSans-30" x="190.869141"/>
      </g>
     </g>
    </g>
    <g id="ytick_4">
     <g id="line2d_23">
      <path d="M 108 202.10979 
L 777.6 202.10979 
" clip-path="url(#p61499bd020)" style="fill: none; stroke-dasharray: 5.12,1.28,0.8,1.28; stroke-dashoffset: 0; stroke: #b0b0b0; stroke-width: 0.8"/>
     </g>
     <g id="line2d_24">
      <g>
       <use xlink:href="#m065f43d2a7" x="108" y="202.10979" style="fill: #a9a9a9; stroke: #a9a9a9; stroke-width: 0.8"/>
      </g>
     </g>
     <g id="text_12">
      <!-- 2400 -->
      <g style="fill: #a9a9a9" transform="translate(75.55 205.909009) scale(0.1 -0.1)">
       <use xlink:href="#DejaVuSans-32"/>
       <use xlink:href="#DejaVuSans-34" x="63.623047"/>
       <use xlink:href="#DejaVuSans-30" x="127.246094"/>
       <use xlink:href="#DejaVuSans-30" x="190.869141"/>
      </g>
     </g>
    </g>
    <g id="ytick_5">
     <g id="line2d_25">
      <path d="M 108 166.865035 
L 777.6 166.865035 
" clip-path="url(#p61499bd020)" style="fill: none; stroke-dasharray: 5.12,1.28,0.8,1.28; stroke-dashoffset: 0; stroke: #b0b0b0; stroke-width: 0.8"/>
     </g>
     <g id="line2d_26">
      <g>
       <use xlink:href="#m065f43d2a7" x="108" y="166.865035" style="fill: #a9a9a9; stroke: #a9a9a9; stroke-width: 0.8"/>
      </g>
     </g>
     <g id="text_13">
      <!-- 3200 -->
      <g style="fill: #a9a9a9" transform="translate(75.55 170.664254) scale(0.1 -0.1)">
       <use xlink:href="#DejaVuSans-33"/>
       <use xlink:href="#DejaVuSans-32" x="63.623047"/>
       <use xlink:href="#DejaVuSans-30" x="127.246094"/>
       <use xlink:href="#DejaVuSans-30" x="190.869141"/>
      </g>
     </g>
    </g>
    <g id="ytick_6">
     <g id="line2d_27">
      <path d="M 108 131.62028 
L 777.6 131.62028 
" clip-path="url(#p61499bd020)" style="fill: none; stroke-dasharray: 5.12,1.28,0.8,1.28; stroke-dashoffset: 0; stroke: #b0b0b0; stroke-width: 0.8"/>
     </g>
     <g id="line2d_28">
      <g>
       <use xlink:href="#m065f43d2a7" x="108" y="131.62028" style="fill: #a9a9a9; stroke: #a9a9a9; stroke-width: 0.8"/>
      </g>
     </g>
     <g id="text_14">
      <!-- 4000 -->
      <g style="fill: #a9a9a9" transform="translate(75.55 135.419498) scale(0.1 -0.1)">
       <use xlink:href="#DejaVuSans-34"/>
       <use xlink:href="#DejaVuSans-30" x="63.623047"/>
       <use xlink:href="#DejaVuSans-30" x="127.246094"/>
       <use xlink:href="#DejaVuSans-30" x="190.869141"/>
      </g>
     </g>
    </g>
    <g id="ytick_7">
     <g id="line2d_29">
      <path d="M 108 96.375524 
L 777.6 96.375524 
" clip-path="url(#p61499bd020)" style="fill: none; stroke-dasharray: 5.12,1.28,0.8,1.28; stroke-dashoffset: 0; stroke: #b0b0b0; stroke-width: 0.8"/>
     </g>
     <g id="line2d_30">
      <g>
       <use xlink:href="#m065f43d2a7" x="108" y="96.375524" style="fill: #a9a9a9; stroke: #a9a9a9; stroke-width: 0.8"/>
      </g>
     </g>
     <g id="text_15">
      <!-- 4800 -->
      <g style="fill: #a9a9a9" transform="translate(75.55 100.174743) scale(0.1 -0.1)">
       <use xlink:href="#DejaVuSans-34"/>
       <use xlink:href="#DejaVuSans-38" x="63.623047"/>
       <use xlink:href="#DejaVuSans-30" x="127.246094"/>
       <use xlink:href="#DejaVuSans-30" x="190.869141"/>
      </g>
     </g>
    </g>
    <g id="ytick_8">
     <g id="line2d_31">
      <path d="M 108 61.130769 
L 777.6 61.130769 
" clip-path="url(#p61499bd020)" style="fill: none; stroke-dasharray: 5.12,1.28,0.8,1.28; stroke-dashoffset: 0; stroke: #b0b0b0; stroke-width: 0.8"/>
     </g>
     <g id="line2d_32">
      <g>
       <use xlink:href="#m065f43d2a7" x="108" y="61.130769" style="fill: #a9a9a9; stroke: #a9a9a9; stroke-width: 0.8"/>
      </g>
     </g>
     <g id="text_16">
      <!-- 5600 -->
      <g style="fill: #a9a9a9" transform="translate(75.55 64.929988) scale(0.1 -0.1)">
       <use xlink:href="#DejaVuSans-35"/>
       <use xlink:href="#DejaVuSans-36" x="63.623047"/>
       <use xlink:href="#DejaVuSans-30" x="127.246094"/>
       <use xlink:href="#DejaVuSans-30" x="190.869141"/>
      </g>
     </g>
    </g>
   </g>
   <g id="line2d_33">
    <path d="M 138.436364 307.711888 
L 142.260828 307.403497 
L 142.898239 307.139161 
L 144.810471 306.918881 
L 148.634936 306.16993 
L 152.4594 305.861538 
L 153.096811 305.553147 
L 153.734222 305.376923 
L 154.371633 304.583916 
L 155.009043 304.143357 
L 155.646454 302.777622 
L 156.283865 302.68951 
L 156.921276 302.204895 
L 158.196097 301.588112 
L 160.74574 299.64965 
L 162.020562 299.120979 
L 162.657972 298.68042 
L 165.207615 297.579021 
L 165.845026 296.565734 
L 167.119848 295.640559 
L 167.757258 295.332168 
L 174.131366 294.451049 
L 174.768777 294.142657 
L 179.230652 293.79021 
L 181.142884 293.305594 
L 186.879581 292.556643 
L 187.516992 292.204196 
L 188.154403 292.116084 
L 188.791813 291.851748 
L 190.066635 291.631469 
L 190.704046 291.587413 
L 191.341456 291.367133 
L 193.891099 290.970629 
L 195.165921 290.618182 
L 197.078153 290.441958 
L 198.352975 290.30979 
L 198.990386 290.133566 
L 199.627796 290.08951 
L 201.540029 289.516783 
L 205.364493 288.944056 
L 206.001904 288.767832 
L 206.639315 287.886713 
L 208.551547 287.181818 
L 210.463779 286.653147 
L 211.10119 286.344755 
L 211.738601 286.300699 
L 214.925654 285.41958 
L 216.200476 285.331469 
L 216.837887 285.243357 
L 218.750119 284.670629 
L 221.299762 284.053846 
L 221.937173 283.78951 
L 222.574584 283.701399 
L 223.211994 283.393007 
L 229.586102 282.423776 
L 232.773156 281.542657 
L 233.410566 281.146154 
L 235.960209 280.485315 
L 237.235031 279.736364 
L 237.872442 279.295804 
L 239.784674 278.943357 
L 243.609139 277.797902 
L 244.88396 277.401399 
L 245.521371 277.313287 
L 246.796192 276.960839 
L 248.071014 276.652448 
L 248.708425 276.564336 
L 249.983246 276.035664 
L 250.620657 275.903497 
L 251.258068 275.639161 
L 251.895478 275.551049 
L 252.532889 275.242657 
L 253.1703 275.066434 
L 254.445121 274.978322 
L 255.719943 274.537762 
L 256.994764 274.44965 
L 257.632175 274.141259 
L 260.181818 273.700699 
L 262.731461 273.48042 
L 263.368872 273.348252 
L 264.643693 272.731469 
L 271.655212 269.77972 
L 272.292623 269.427273 
L 272.930033 268.722378 
L 273.567444 267.665035 
L 274.204855 266.827972 
L 274.842266 266.651748 
L 275.479676 266.651748 
L 276.754498 265.726573 
L 277.391909 265.55035 
L 278.029319 265.197902 
L 278.66673 265.065734 
L 279.304141 264.493007 
L 279.941552 264.316783 
L 281.853784 263.391608 
L 283.128605 261.629371 
L 283.766016 261.232867 
L 284.403427 260.175524 
L 285.040838 259.514685 
L 285.678248 259.206294 
L 286.315659 259.03007 
L 288.865302 257.532168 
L 290.140124 256.518881 
L 290.777535 256.122378 
L 291.414945 255.197203 
L 292.052356 253.743357 
L 292.689767 252.818182 
L 293.327178 252.333566 
L 293.964588 252.069231 
L 296.514231 249.866434 
L 297.789053 248.853147 
L 298.426464 248.324476 
L 299.063874 247.487413 
L 300.338696 246.386014 
L 302.888339 244.755944 
L 303.52575 244.183217 
L 304.16316 244.051049 
L 304.800571 243.786713 
L 306.075393 243.081818 
L 307.987625 242.112587 
L 309.262446 240.923077 
L 309.899857 240.174126 
L 311.174679 239.293007 
L 311.812089 239.116783 
L 312.4495 238.808392 
L 313.724322 237.971329 
L 314.361733 237.618881 
L 314.999143 237.530769 
L 316.273965 236.825874 
L 316.911376 236.473427 
L 317.548786 235.812587 
L 318.186197 235.416084 
L 318.823608 235.195804 
L 320.098429 234.446853 
L 320.73584 234.094406 
L 321.373251 233.874126 
L 323.285483 232.640559 
L 325.197715 232.067832 
L 325.835126 231.627273 
L 326.472537 231.495105 
L 327.747358 231.054545 
L 329.659591 230.305594 
L 331.571823 229.600699 
L 332.846644 229.38042 
L 334.121466 228.279021 
L 335.396287 227.662238 
L 337.30852 226.560839 
L 338.583341 226.208392 
L 339.220752 225.811888 
L 339.858163 225.635664 
L 341.770395 224.446154 
L 344.957449 223.697203 
L 346.869681 222.595804 
L 347.507092 222.507692 
L 348.144503 222.287413 
L 349.419324 222.023077 
L 351.331556 220.613287 
L 353.243789 220.172727 
L 353.881199 219.952448 
L 354.51861 219.467832 
L 358.343075 218.234266 
L 358.980485 218.19021 
L 363.442361 216.604196 
L 364.079772 216.295804 
L 365.992004 215.855245 
L 367.266825 215.546853 
L 367.904236 215.238462 
L 368.541647 215.106294 
L 370.453879 214.225175 
L 372.366111 213.3 
L 373.003522 212.859441 
L 373.640933 212.683217 
L 375.553165 211.66993 
L 376.827987 211.361538 
L 378.102808 210.700699 
L 379.37763 210.348252 
L 380.01504 210.26014 
L 381.289862 209.511189 
L 381.927273 209.379021 
L 383.202094 208.85035 
L 383.839505 208.718182 
L 384.476916 208.365734 
L 387.026559 207.969231 
L 388.30138 207.352448 
L 388.938791 206.823776 
L 389.576202 205.722378 
L 390.851023 205.458042 
L 391.488434 205.325874 
L 394.038077 204.004196 
L 394.675488 203.872028 
L 399.774774 201.448951 
L 401.687006 201.052448 
L 402.324417 200.7 
L 406.148881 199.378322 
L 407.423703 198.585315 
L 408.698525 197.836364 
L 409.335935 197.748252 
L 409.973346 197.527972 
L 410.610757 197.483916 
L 413.797811 196.646853 
L 414.435221 196.162238 
L 415.710043 195.721678 
L 417.622275 195.104895 
L 418.259686 194.708392 
L 418.897097 194.532168 
L 419.534507 194.091608 
L 420.171918 193.827273 
L 420.809329 193.430769 
L 422.08415 192.99021 
L 423.996383 192.373427 
L 424.633793 192.065035 
L 426.546026 190.611189 
L 427.183436 190.479021 
L 428.458258 189.50979 
L 429.095669 189.377622 
L 429.733079 188.408392 
L 430.37049 188.144056 
L 431.007901 187.659441 
L 431.645312 187.571329 
L 432.920133 186.822378 
L 433.557544 186.69021 
L 434.194955 186.425874 
L 434.832366 185.941259 
L 435.469776 185.720979 
L 437.382009 184.443357 
L 439.931652 183.165734 
L 440.569062 183.077622 
L 441.843884 182.504895 
L 442.481295 182.152448 
L 443.118705 181.095105 
L 443.756116 180.522378 
L 444.393527 180.16993 
L 445.030938 180.037762 
L 446.305759 179.244755 
L 446.94317 179.112587 
L 448.217991 178.495804 
L 450.130224 177.702797 
L 451.405045 176.821678 
L 452.679867 175.5 
L 455.866921 173.209091 
L 457.141742 172.151748 
L 457.779153 171.887413 
L 458.416564 171.182517 
L 459.053974 170.697902 
L 460.328796 170.257343 
L 460.966207 169.728671 
L 462.241028 169.067832 
L 462.878439 168.891608 
L 463.51585 168.451049 
L 464.15326 168.318881 
L 466.065493 167.305594 
L 467.340314 166.556643 
L 473.714422 164.30979 
L 474.351832 163.737063 
L 476.264065 163.032168 
L 477.538886 162.635664 
L 478.176297 162.151049 
L 480.72594 160.829371 
L 481.363351 160.476923 
L 482.638172 157.965734 
L 483.912994 156.467832 
L 485.187815 155.718881 
L 487.100048 154.96993 
L 487.737458 154.881818 
L 488.374869 154.529371 
L 490.287101 153.956643 
L 492.836744 152.811189 
L 493.474155 152.414685 
L 494.748977 151.974126 
L 498.573441 149.771329 
L 499.210852 149.11049 
L 500.485673 148.405594 
L 501.123084 148.053147 
L 501.760495 147.832867 
L 502.397906 147.392308 
L 503.672727 146.775524 
L 505.58496 145.762238 
L 506.22237 145.586014 
L 506.859781 145.101399 
L 507.497192 144.837063 
L 508.134603 144.704895 
L 509.409424 144.264336 
L 511.321656 143.559441 
L 511.959067 143.118881 
L 513.233889 142.766434 
L 514.50871 142.281818 
L 515.146121 141.797203 
L 516.420942 141.400699 
L 517.058353 141.092308 
L 517.695764 140.916084 
L 518.970585 140.034965 
L 520.245407 139.462238 
L 521.520228 138.493007 
L 522.79505 138.052448 
L 523.432461 137.523776 
L 524.069871 137.435664 
L 525.344693 136.51049 
L 526.619515 135.893706 
L 527.256925 135.629371 
L 527.894336 135.012587 
L 531.718801 133.646853 
L 533.631033 132.80979 
L 535.543265 132.237063 
L 536.818087 132.060839 
L 537.455497 131.796503 
L 538.092908 131.708392 
L 539.36773 131.17972 
L 540.00514 131.135664 
L 542.554783 130.21049 
L 544.467016 128.888811 
L 545.104426 128.624476 
L 545.741837 128.227972 
L 547.654069 127.390909 
L 549.566302 126.245455 
L 550.203713 125.848951 
L 551.478534 125.540559 
L 552.753356 124.659441 
L 555.302999 123.866434 
L 555.940409 123.602098 
L 557.215231 123.293706 
L 560.402285 122.28042 
L 562.314517 121.927972 
L 564.86416 121.134965 
L 565.501571 120.870629 
L 566.138981 120.782517 
L 566.776392 120.474126 
L 568.051214 120.20979 
L 568.688624 119.901399 
L 570.600857 119.460839 
L 571.875678 119.196503 
L 575.700143 118.491608 
L 576.974964 118.227273 
L 577.612375 118.095105 
L 578.249786 117.830769 
L 578.887197 117.786713 
L 580.799429 117.258042 
L 581.43684 116.905594 
L 584.623893 116.112587 
L 585.261304 115.98042 
L 586.536126 115.53986 
L 588.448358 114.879021 
L 589.085769 114.790909 
L 590.998001 114.13007 
L 591.635412 114.13007 
L 592.910233 113.68951 
L 593.547644 113.072727 
L 594.185055 112.764336 
L 595.459876 112.367832 
L 598.009519 111.398601 
L 598.64693 111.266434 
L 599.284341 110.86993 
L 599.921752 110.737762 
L 600.559162 110.341259 
L 603.746216 109.416084 
L 604.383627 109.01958 
L 605.021038 108.843357 
L 605.658448 108.314685 
L 607.570681 107.962238 
L 608.845502 107.257343 
L 609.482913 106.552448 
L 610.757734 106.288112 
L 615.21961 105.274825 
L 615.85702 105.098601 
L 617.131842 105.054545 
L 617.769253 104.746154 
L 620.318896 104.305594 
L 620.956307 103.997203 
L 622.868539 103.732867 
L 625.418182 102.93986 
L 627.330414 102.499301 
L 629.242646 102.014685 
L 631.792289 101.221678 
L 632.4297 101.08951 
L 633.067111 100.781119 
L 633.704522 100.693007 
L 634.341932 100.472727 
L 634.979343 100.076224 
L 636.891575 99.371329 
L 637.528986 98.886713 
L 638.803808 98.534266 
L 639.441218 98.26993 
L 640.71604 97.917483 
L 643.265683 96.772028 
L 645.177915 96.63986 
L 647.727558 95.846853 
L 648.364969 95.45035 
L 649.639791 95.053846 
L 651.552023 94.084615 
L 652.189434 93.952448 
L 652.826844 93.644056 
L 653.464255 93.555944 
L 660.475773 91.220979 
L 663.025416 90.604196 
L 663.662827 90.427972 
L 664.937649 89.855245 
L 665.575059 89.767133 
L 666.849881 89.414685 
L 667.487292 88.93007 
L 668.124703 88.621678 
L 668.762113 87.872727 
L 669.399524 87.432168 
L 670.674346 87.035664 
L 671.311756 86.506993 
L 678.323275 83.643357 
L 679.598096 83.334965 
L 680.872918 82.762238 
L 682.78515 81.660839 
L 683.422561 81.528671 
L 684.059971 81.044056 
L 685.334793 80.427273 
L 686.609614 79.634266 
L 688.521847 78.753147 
L 689.159257 78.312587 
L 690.434079 77.827972 
L 691.708901 77.079021 
L 692.346311 76.770629 
L 692.983722 76.33007 
L 694.258544 75.88951 
L 694.895954 75.757343 
L 697.445597 74.611888 
L 700.632651 73.51049 
L 701.270062 73.466434 
L 701.907473 73.29021 
L 702.544883 72.893706 
L 703.182294 72.805594 
L 703.819705 72.541259 
L 705.731937 72.188811 
L 708.918991 70.558741 
L 710.193812 69.853846 
L 710.831223 69.765734 
L 712.743455 68.752448 
L 714.655688 68.047552 
L 716.56792 67.21049 
L 719.117563 66.197203 
L 719.754974 66.020979 
L 720.392385 65.624476 
L 721.667206 65.448252 
L 722.304617 65.051748 
L 722.942028 65.007692 
L 724.216849 64.611189 
L 725.491671 63.994406 
L 726.129081 63.906294 
L 726.766492 63.641958 
L 727.403903 63.50979 
L 729.316135 62.672727 
L 729.953546 62.540559 
L 730.590957 62.276224 
L 733.77801 61.527273 
L 735.690243 60.778322 
L 737.602475 59.632867 
L 738.877297 59.104196 
L 739.514707 58.83986 
L 740.152118 58.443357 
L 741.42694 58.179021 
L 742.06435 57.826573 
L 742.701761 57.694406 
L 743.976583 56.98951 
L 746.526226 55.8 
L 747.163636 55.8 
L 747.163636 55.8 
" clip-path="url(#p61499bd020)" style="fill: none; stroke: #1f77b4; stroke-width: 1.5; stroke-linecap: square"/>
   </g>
   <g id="line2d_34">
    <path d="M 139.073774 307.8 
L 140.986007 307.711888 
L 142.898239 307.667832 
L 146.722703 307.57972 
L 149.909757 307.447552 
L 152.4594 307.447552 
L 153.096811 307.271329 
L 155.646454 307.183217 
L 157.558686 306.962937 
L 159.470919 306.786713 
L 163.295383 306.61049 
L 163.932794 306.61049 
L 164.570205 306.478322 
L 167.119848 306.39021 
L 168.394669 306.302098 
L 173.493955 306.213986 
L 176.681009 306.081818 
L 184.329938 305.993706 
L 187.516992 305.861538 
L 191.341456 305.773427 
L 193.891099 305.685315 
L 199.627796 305.597203 
L 201.540029 305.553147 
L 203.452261 305.509091 
L 205.364493 305.288811 
L 209.188958 305.244755 
L 210.463779 305.156643 
L 214.925654 305.068531 
L 221.937173 304.672028 
L 226.399048 304.583916 
L 227.67387 304.495804 
L 229.586102 304.407692 
L 233.410566 304.231469 
L 235.960209 304.187413 
L 237.872442 304.011189 
L 248.071014 303.394406 
L 250.620657 303.306294 
L 255.082532 303.086014 
L 256.994764 302.997902 
L 263.368872 302.645455 
L 270.38039 302.557343 
L 272.930033 302.293007 
L 274.204855 302.204895 
L 282.491195 301.544056 
L 286.315659 301.059441 
L 288.865302 300.971329 
L 293.964588 300.31049 
L 297.151642 300.222378 
L 305.437982 299.561538 
L 308.625036 299.209091 
L 311.174679 299.120979 
L 312.4495 299.032867 
L 314.999143 298.944755 
L 316.273965 298.856643 
L 319.461019 298.548252 
L 320.098429 298.372028 
L 323.922894 298.195804 
L 327.109948 298.107692 
L 335.396287 297.623077 
L 337.30852 297.534965 
L 345.59486 297.05035 
L 350.056735 296.962238 
L 350.694146 296.83007 
L 355.793432 296.741958 
L 360.255307 296.521678 
L 367.266825 296.433566 
L 371.728701 296.213287 
L 376.827987 296.125175 
L 381.927273 295.860839 
L 386.389148 295.772727 
L 398.499952 295.023776 
L 403.599238 294.935664 
L 420.171918 293.878322 
L 423.996383 293.79021 
L 425.908615 293.746154 
L 427.820847 293.702098 
L 429.733079 293.525874 
L 434.832366 293.437762 
L 436.107187 293.217483 
L 437.382009 293.129371 
L 440.569062 292.997203 
L 441.843884 292.909091 
L 443.118705 292.820979 
L 448.855402 292.732867 
L 450.130224 292.600699 
L 452.679867 292.556643 
L 453.317277 292.424476 
L 454.592099 292.336364 
L 455.22951 292.204196 
L 457.141742 292.116084 
L 467.977725 291.455245 
L 469.889957 291.367133 
L 473.077011 291.234965 
L 482.000762 291.146853 
L 486.462637 290.926573 
L 491.561923 290.838462 
L 494.111566 290.75035 
L 496.661209 290.706294 
L 497.93603 290.574126 
L 500.485673 290.486014 
L 506.859781 290.133566 
L 510.684246 290.08951 
L 512.596478 289.913287 
L 514.50871 289.869231 
L 518.970585 289.781119 
L 521.520228 289.693007 
L 529.169158 289.604895 
L 532.356211 289.472727 
L 536.180676 289.384615 
L 538.092908 289.164336 
L 541.917373 289.12028 
L 543.829605 288.944056 
L 546.379248 288.855944 
L 554.028177 288.767832 
L 557.215231 288.635664 
L 568.051214 288.591608 
L 569.326035 288.503497 
L 571.238267 288.459441 
L 579.524607 288.371329 
L 580.799429 288.283217 
L 587.810947 288.195105 
L 590.36059 288.106993 
L 598.009519 288.062937 
L 599.284341 287.974825 
L 608.845502 287.930769 
L 610.757734 287.754545 
L 621.593717 287.666434 
L 623.50595 287.622378 
L 640.078629 287.534266 
L 641.990861 287.49021 
L 654.101666 287.402098 
L 656.651309 287.313986 
L 661.113184 287.225874 
L 666.21247 286.961538 
L 668.762113 286.873427 
L 671.311756 286.785315 
L 675.136221 286.697203 
L 677.048453 286.653147 
L 679.598096 286.565035 
L 681.510328 286.520979 
L 684.697382 286.432867 
L 685.972204 286.344755 
L 689.796668 286.256643 
L 692.983722 286.124476 
L 694.258544 286.08042 
L 696.170776 285.904196 
L 699.99524 285.816084 
L 702.544883 285.727972 
L 708.918991 285.63986 
L 712.106045 285.507692 
L 718.480152 285.41958 
L 722.942028 285.199301 
L 728.678724 285.111189 
L 729.953546 285.023077 
L 737.602475 284.934965 
L 739.514707 284.890909 
L 747.163636 284.802797 
L 747.163636 284.802797 
" clip-path="url(#p61499bd020)" style="fill: none; stroke: #ff7f0e; stroke-width: 1.5; stroke-linecap: square"/>
   </g>
   <g id="patch_3">
    <path d="M 108 320.4 
L 108 43.2 
" style="fill: none; stroke: #a9a9a9; stroke-width: 0.8; stroke-linejoin: miter; stroke-linecap: square"/>
   </g>
   <g id="patch_4">
    <path d="M 777.6 320.4 
L 777.6 43.2 
" style="fill: none"/>
   </g>
   <g id="patch_5">
    <path d="M 108 320.4 
L 777.6 320.4 
" style="fill: none; stroke: #a9a9a9; stroke-width: 0.8; stroke-linejoin: miter; stroke-linecap: square"/>
   </g>
   <g id="patch_6">
    <path d="M 108 43.2 
L 777.6 43.2 
" style="fill: none"/>
   </g>
   <g id="text_17">
    <!-- get_subscribe history -->
    <g style="fill: #a9a9a9" transform="translate(378.6075 37.2) scale(0.12 -0.12)">
     <defs>
      <path id="DejaVuSans-67" d="M 2906 1791 
Q 2906 2416 2648 2759 
Q 2391 3103 1925 3103 
Q 1463 3103 1205 2759 
Q 947 2416 947 1791 
Q 947 1169 1205 825 
Q 1463 481 1925 481 
Q 2391 481 2648 825 
Q 2906 1169 2906 1791 
z
M 3481 434 
Q 3481 -459 3084 -895 
Q 2688 -1331 1869 -1331 
Q 1566 -1331 1297 -1286 
Q 1028 -1241 775 -1147 
L 775 -588 
Q 1028 -725 1275 -790 
Q 1522 -856 1778 -856 
Q 2344 -856 2625 -561 
Q 2906 -266 2906 331 
L 2906 616 
Q 2728 306 2450 153 
Q 2172 0 1784 0 
Q 1141 0 747 490 
Q 353 981 353 1791 
Q 353 2603 747 3093 
Q 1141 3584 1784 3584 
Q 2172 3584 2450 3431 
Q 2728 3278 2906 2969 
L 2906 3500 
L 3481 3500 
L 3481 434 
z
" transform="scale(0.015625)"/>
      <path id="DejaVuSans-65" d="M 3597 1894 
L 3597 1613 
L 953 1613 
Q 991 1019 1311 708 
Q 1631 397 2203 397 
Q 2534 397 2845 478 
Q 3156 559 3463 722 
L 3463 178 
Q 3153 47 2828 -22 
Q 2503 -91 2169 -91 
Q 1331 -91 842 396 
Q 353 884 353 1716 
Q 353 2575 817 3079 
Q 1281 3584 2069 3584 
Q 2775 3584 3186 3129 
Q 3597 2675 3597 1894 
z
M 3022 2063 
Q 3016 2534 2758 2815 
Q 2500 3097 2075 3097 
Q 1594 3097 1305 2825 
Q 1016 2553 972 2059 
L 3022 2063 
z
" transform="scale(0.015625)"/>
      <path id="DejaVuSans-74" d="M 1172 4494 
L 1172 3500 
L 2356 3500 
L 2356 3053 
L 1172 3053 
L 1172 1153 
Q 1172 725 1289 603 
Q 1406 481 1766 481 
L 2356 481 
L 2356 0 
L 1766 0 
Q 1100 0 847 248 
Q 594 497 594 1153 
L 594 3053 
L 172 3053 
L 172 3500 
L 594 3500 
L 594 4494 
L 1172 4494 
z
" transform="scale(0.015625)"/>
      <path id="DejaVuSans-5f" d="M 3263 -1063 
L 3263 -1509 
L -63 -1509 
L -63 -1063 
L 3263 -1063 
z
" transform="scale(0.015625)"/>
      <path id="DejaVuSans-73" d="M 2834 3397 
L 2834 2853 
Q 2591 2978 2328 3040 
Q 2066 3103 1784 3103 
Q 1356 3103 1142 2972 
Q 928 2841 928 2578 
Q 928 2378 1081 2264 
Q 1234 2150 1697 2047 
L 1894 2003 
Q 2506 1872 2764 1633 
Q 3022 1394 3022 966 
Q 3022 478 2636 193 
Q 2250 -91 1575 -91 
Q 1294 -91 989 -36 
Q 684 19 347 128 
L 347 722 
Q 666 556 975 473 
Q 1284 391 1588 391 
Q 1994 391 2212 530 
Q 2431 669 2431 922 
Q 2431 1156 2273 1281 
Q 2116 1406 1581 1522 
L 1381 1569 
Q 847 1681 609 1914 
Q 372 2147 372 2553 
Q 372 3047 722 3315 
Q 1072 3584 1716 3584 
Q 2034 3584 2315 3537 
Q 2597 3491 2834 3397 
z
" transform="scale(0.015625)"/>
      <path id="DejaVuSans-75" d="M 544 1381 
L 544 3500 
L 1119 3500 
L 1119 1403 
Q 1119 906 1312 657 
Q 1506 409 1894 409 
Q 2359 409 2629 706 
Q 2900 1003 2900 1516 
L 2900 3500 
L 3475 3500 
L 3475 0 
L 2900 0 
L 2900 538 
Q 2691 219 2414 64 
Q 2138 -91 1772 -91 
Q 1169 -91 856 284 
Q 544 659 544 1381 
z
M 1991 3584 
L 1991 3584 
z
" transform="scale(0.015625)"/>
      <path id="DejaVuSans-62" d="M 3116 1747 
Q 3116 2381 2855 2742 
Q 2594 3103 2138 3103 
Q 1681 3103 1420 2742 
Q 1159 2381 1159 1747 
Q 1159 1113 1420 752 
Q 1681 391 2138 391 
Q 2594 391 2855 752 
Q 3116 1113 3116 1747 
z
M 1159 2969 
Q 1341 3281 1617 3432 
Q 1894 3584 2278 3584 
Q 2916 3584 3314 3078 
Q 3713 2572 3713 1747 
Q 3713 922 3314 415 
Q 2916 -91 2278 -91 
Q 1894 -91 1617 61 
Q 1341 213 1159 525 
L 1159 0 
L 581 0 
L 581 4863 
L 1159 4863 
L 1159 2969 
z
" transform="scale(0.015625)"/>
      <path id="DejaVuSans-63" d="M 3122 3366 
L 3122 2828 
Q 2878 2963 2633 3030 
Q 2388 3097 2138 3097 
Q 1578 3097 1268 2742 
Q 959 2388 959 1747 
Q 959 1106 1268 751 
Q 1578 397 2138 397 
Q 2388 397 2633 464 
Q 2878 531 3122 666 
L 3122 134 
Q 2881 22 2623 -34 
Q 2366 -91 2075 -91 
Q 1284 -91 818 406 
Q 353 903 353 1747 
Q 353 2603 823 3093 
Q 1294 3584 2113 3584 
Q 2378 3584 2631 3529 
Q 2884 3475 3122 3366 
z
" transform="scale(0.015625)"/>
      <path id="DejaVuSans-72" d="M 2631 2963 
Q 2534 3019 2420 3045 
Q 2306 3072 2169 3072 
Q 1681 3072 1420 2755 
Q 1159 2438 1159 1844 
L 1159 0 
L 581 0 
L 581 3500 
L 1159 3500 
L 1159 2956 
Q 1341 3275 1631 3429 
Q 1922 3584 2338 3584 
Q 2397 3584 2469 3576 
Q 2541 3569 2628 3553 
L 2631 2963 
z
" transform="scale(0.015625)"/>
      <path id="DejaVuSans-69" d="M 603 3500 
L 1178 3500 
L 1178 0 
L 603 0 
L 603 3500 
z
M 603 4863 
L 1178 4863 
L 1178 4134 
L 603 4134 
L 603 4863 
z
" transform="scale(0.015625)"/>
      <path id="DejaVuSans-20" transform="scale(0.015625)"/>
      <path id="DejaVuSans-68" d="M 3513 2113 
L 3513 0 
L 2938 0 
L 2938 2094 
Q 2938 2591 2744 2837 
Q 2550 3084 2163 3084 
Q 1697 3084 1428 2787 
Q 1159 2491 1159 1978 
L 1159 0 
L 581 0 
L 581 4863 
L 1159 4863 
L 1159 2956 
Q 1366 3272 1645 3428 
Q 1925 3584 2291 3584 
Q 2894 3584 3203 3211 
Q 3513 2838 3513 2113 
z
" transform="scale(0.015625)"/>
      <path id="DejaVuSans-6f" d="M 1959 3097 
Q 1497 3097 1228 2736 
Q 959 2375 959 1747 
Q 959 1119 1226 758 
Q 1494 397 1959 397 
Q 2419 397 2687 759 
Q 2956 1122 2956 1747 
Q 2956 2369 2687 2733 
Q 2419 3097 1959 3097 
z
M 1959 3584 
Q 2709 3584 3137 3096 
Q 3566 2609 3566 1747 
Q 3566 888 3137 398 
Q 2709 -91 1959 -91 
Q 1206 -91 779 398 
Q 353 888 353 1747 
Q 353 2609 779 3096 
Q 1206 3584 1959 3584 
z
" transform="scale(0.015625)"/>
      <path id="DejaVuSans-79" d="M 2059 -325 
Q 1816 -950 1584 -1140 
Q 1353 -1331 966 -1331 
L 506 -1331 
L 506 -850 
L 844 -850 
Q 1081 -850 1212 -737 
Q 1344 -625 1503 -206 
L 1606 56 
L 191 3500 
L 800 3500 
L 1894 763 
L 2988 3500 
L 3597 3500 
L 2059 -325 
z
" transform="scale(0.015625)"/>
     </defs>
     <use xlink:href="#DejaVuSans-67"/>
     <use xlink:href="#DejaVuSans-65" x="63.476562"/>
     <use xlink:href="#DejaVuSans-74" x="125"/>
     <use xlink:href="#DejaVuSans-5f" x="164.208984"/>
     <use xlink:href="#DejaVuSans-73" x="214.208984"/>
     <use xlink:href="#DejaVuSans-75" x="266.308594"/>
     <use xlink:href="#DejaVuSans-62" x="329.6875"/>
     <use xlink:href="#DejaVuSans-73" x="393.164062"/>
     <use xlink:href="#DejaVuSans-63" x="445.263672"/>
     <use xlink:href="#DejaVuSans-72" x="500.244141"/>
     <use xlink:href="#DejaVuSans-69" x="541.357422"/>
     <use xlink:href="#DejaVuSans-62" x="569.140625"/>
     <use xlink:href="#DejaVuSans-65" x="632.617188"/>
     <use xlink:href="#DejaVuSans-20" x="694.140625"/>
     <use xlink:href="#DejaVuSans-68" x="725.927734"/>
     <use xlink:href="#DejaVuSans-69" x="789.306641"/>
     <use xlink:href="#DejaVuSans-73" x="817.089844"/>
     <use xlink:href="#DejaVuSans-74" x="869.189453"/>
     <use xlink:href="#DejaVuSans-6f" x="908.398438"/>
     <use xlink:href="#DejaVuSans-72" x="969.580078"/>
     <use xlink:href="#DejaVuSans-79" x="1010.693359"/>
    </g>
   </g>
   <g id="legend_1">
    <g id="line2d_35">
     <path d="M 815.08 328.498438 
L 825.08 328.498438 
L 835.08 328.498438 
" style="fill: none; stroke: #1f77b4; stroke-width: 1.5; stroke-linecap: square"/>
    </g>
    <g id="text_18">
     <!-- star -->
     <g style="fill: #a9a9a9" transform="translate(843.08 331.998438) scale(0.1 -0.1)">
      <defs>
       <path id="DejaVuSans-61" d="M 2194 1759 
Q 1497 1759 1228 1600 
Q 959 1441 959 1056 
Q 959 750 1161 570 
Q 1363 391 1709 391 
Q 2188 391 2477 730 
Q 2766 1069 2766 1631 
L 2766 1759 
L 2194 1759 
z
M 3341 1997 
L 3341 0 
L 2766 0 
L 2766 531 
Q 2569 213 2275 61 
Q 1981 -91 1556 -91 
Q 1019 -91 701 211 
Q 384 513 384 1019 
Q 384 1609 779 1909 
Q 1175 2209 1959 2209 
L 2766 2209 
L 2766 2266 
Q 2766 2663 2505 2880 
Q 2244 3097 1772 3097 
Q 1472 3097 1187 3025 
Q 903 2953 641 2809 
L 641 3341 
Q 956 3463 1253 3523 
Q 1550 3584 1831 3584 
Q 2591 3584 2966 3190 
Q 3341 2797 3341 1997 
z
" transform="scale(0.015625)"/>
      </defs>
      <use xlink:href="#DejaVuSans-73"/>
      <use xlink:href="#DejaVuSans-74" x="52.099609"/>
      <use xlink:href="#DejaVuSans-61" x="91.308594"/>
      <use xlink:href="#DejaVuSans-72" x="152.587891"/>
     </g>
    </g>
    <g id="line2d_36">
     <path d="M 815.08 343.176562 
L 825.08 343.176562 
L 835.08 343.176562 
" style="fill: none; stroke: #ff7f0e; stroke-width: 1.5; stroke-linecap: square"/>
    </g>
    <g id="text_19">
     <!-- fork -->
     <g style="fill: #a9a9a9" transform="translate(843.08 346.676562) scale(0.1 -0.1)">
      <defs>
       <path id="DejaVuSans-66" d="M 2375 4863 
L 2375 4384 
L 1825 4384 
Q 1516 4384 1395 4259 
Q 1275 4134 1275 3809 
L 1275 3500 
L 2222 3500 
L 2222 3053 
L 1275 3053 
L 1275 0 
L 697 0 
L 697 3053 
L 147 3053 
L 147 3500 
L 697 3500 
L 697 3744 
Q 697 4328 969 4595 
Q 1241 4863 1831 4863 
L 2375 4863 
z
" transform="scale(0.015625)"/>
       <path id="DejaVuSans-6b" d="M 581 4863 
L 1159 4863 
L 1159 1991 
L 2875 3500 
L 3609 3500 
L 1753 1863 
L 3688 0 
L 2938 0 
L 1159 1709 
L 1159 0 
L 581 0 
L 581 4863 
z
" transform="scale(0.015625)"/>
      </defs>
      <use xlink:href="#DejaVuSans-66"/>
      <use xlink:href="#DejaVuSans-6f" x="35.205078"/>
      <use xlink:href="#DejaVuSans-72" x="96.386719"/>
      <use xlink:href="#DejaVuSans-6b" x="137.5"/>
     </g>
    </g>
   </g>
  </g>
 </g>
 <defs>
  <clipPath id="p61499bd020">
   <rect x="108" y="43.2" width="669.6" height="277.2"/>
  </clipPath>
 </defs>
</svg>
