<?xml version="1.0" encoding="utf-8" standalone="no"?>
<!DOCTYPE svg PUBLIC "-//W3C//DTD SVG 1.1//EN"
  "http://www.w3.org/Graphics/SVG/1.1/DTD/svg11.dtd">
<svg xmlns:xlink="http://www.w3.org/1999/xlink" width="864pt" height="360pt" viewBox="0 0 864 360" xmlns="http://www.w3.org/2000/svg" version="1.1">
 <metadata>
  <rdf:RDF xmlns:dc="http://purl.org/dc/elements/1.1/" xmlns:cc="http://creativecommons.org/ns#" xmlns:rdf="http://www.w3.org/1999/02/22-rdf-syntax-ns#">
   <cc:Work>
    <dc:type rdf:resource="http://purl.org/dc/dcmitype/StillImage"/>
    <dc:date>2025-01-06T20:06:00.988620</dc:date>
    <dc:format>image/svg+xml</dc:format>
    <dc:creator>
     <cc:Agent>
      <dc:title>Matplotlib v3.10.0, https://matplotlib.org/</dc:title>
     </cc:Agent>
    </dc:creator>
   </cc:Work>
  </rdf:RDF>
 </metadata>
 <defs>
  <style type="text/css">*{stroke-linejoin: round; stroke-linecap: butt}</style>
 </defs>
 <g id="figure_1">
  <g id="patch_1">
   <path d="M 0 360 
L 864 360 
L 864 0 
L 0 0 
L 0 360 
z
" style="fill: none; opacity: 0"/>
  </g>
  <g id="axes_1">
   <g id="patch_2">
    <path d="M 108 320.4 
L 777.6 320.4 
L 777.6 43.2 
L 108 43.2 
L 108 320.4 
z
" style="fill: none; opacity: 0"/>
   </g>
   <g id="matplotlib.axis_1">
    <g id="xtick_1">
     <g id="line2d_1">
      <path d="M 127.342285 320.4 
L 127.342285 43.2 
" clip-path="url(#pd0a0e2afc6)" style="fill: none; stroke-dasharray: 5.12,1.28,0.8,1.28; stroke-dashoffset: 0; stroke: #b0b0b0; stroke-width: 0.8"/>
     </g>
     <g id="line2d_2">
      <defs>
       <path id="m7c85937a66" d="M 0 0 
L 0 3.5 
" style="stroke: #a9a9a9; stroke-width: 0.8"/>
      </defs>
      <g>
       <use xlink:href="#m7c85937a66" x="127.342285" y="320.4" style="fill: #a9a9a9; stroke: #a9a9a9; stroke-width: 0.8"/>
      </g>
     </g>
     <g id="text_1">
      <!-- 2021-07 -->
      <g style="fill: #a9a9a9" transform="translate(106.450879 334.998438) scale(0.1 -0.1)">
       <defs>
        <path id="DejaVuSans-32" d="M 1228 531 
L 3431 531 
L 3431 0 
L 469 0 
L 469 531 
Q 828 903 1448 1529 
Q 2069 2156 2228 2338 
Q 2531 2678 2651 2914 
Q 2772 3150 2772 3378 
Q 2772 3750 2511 3984 
Q 2250 4219 1831 4219 
Q 1534 4219 1204 4116 
Q 875 4013 500 3803 
L 500 4441 
Q 881 4594 1212 4672 
Q 1544 4750 1819 4750 
Q 2544 4750 2975 4387 
Q 3406 4025 3406 3419 
Q 3406 3131 3298 2873 
Q 3191 2616 2906 2266 
Q 2828 2175 2409 1742 
Q 1991 1309 1228 531 
z
" transform="scale(0.015625)"/>
        <path id="DejaVuSans-30" d="M 2034 4250 
Q 1547 4250 1301 3770 
Q 1056 3291 1056 2328 
Q 1056 1369 1301 889 
Q 1547 409 2034 409 
Q 2525 409 2770 889 
Q 3016 1369 3016 2328 
Q 3016 3291 2770 3770 
Q 2525 4250 2034 4250 
z
M 2034 4750 
Q 2819 4750 3233 4129 
Q 3647 3509 3647 2328 
Q 3647 1150 3233 529 
Q 2819 -91 2034 -91 
Q 1250 -91 836 529 
Q 422 1150 422 2328 
Q 422 3509 836 4129 
Q 1250 4750 2034 4750 
z
" transform="scale(0.015625)"/>
        <path id="DejaVuSans-31" d="M 794 531 
L 1825 531 
L 1825 4091 
L 703 3866 
L 703 4441 
L 1819 4666 
L 2450 4666 
L 2450 531 
L 3481 531 
L 3481 0 
L 794 0 
L 794 531 
z
" transform="scale(0.015625)"/>
        <path id="DejaVuSans-2d" d="M 313 2009 
L 1997 2009 
L 1997 1497 
L 313 1497 
L 313 2009 
z
" transform="scale(0.015625)"/>
        <path id="DejaVuSans-37" d="M 525 4666 
L 3525 4666 
L 3525 4397 
L 1831 0 
L 1172 0 
L 2766 4134 
L 525 4134 
L 525 4666 
z
" transform="scale(0.015625)"/>
       </defs>
       <use xlink:href="#DejaVuSans-32"/>
       <use xlink:href="#DejaVuSans-30" transform="translate(63.623047 0)"/>
       <use xlink:href="#DejaVuSans-32" transform="translate(127.246094 0)"/>
       <use xlink:href="#DejaVuSans-31" transform="translate(190.869141 0)"/>
       <use xlink:href="#DejaVuSans-2d" transform="translate(254.492188 0)"/>
       <use xlink:href="#DejaVuSans-30" transform="translate(290.576172 0)"/>
       <use xlink:href="#DejaVuSans-37" transform="translate(354.199219 0)"/>
      </g>
     </g>
    </g>
    <g id="xtick_2">
     <g id="line2d_3">
      <path d="M 216.094914 320.4 
L 216.094914 43.2 
" clip-path="url(#pd0a0e2afc6)" style="fill: none; stroke-dasharray: 5.12,1.28,0.8,1.28; stroke-dashoffset: 0; stroke: #b0b0b0; stroke-width: 0.8"/>
     </g>
     <g id="line2d_4">
      <g>
       <use xlink:href="#m7c85937a66" x="216.094914" y="320.4" style="fill: #a9a9a9; stroke: #a9a9a9; stroke-width: 0.8"/>
      </g>
     </g>
     <g id="text_2">
      <!-- 2022-01 -->
      <g style="fill: #a9a9a9" transform="translate(195.203508 334.998438) scale(0.1 -0.1)">
       <use xlink:href="#DejaVuSans-32"/>
       <use xlink:href="#DejaVuSans-30" transform="translate(63.623047 0)"/>
       <use xlink:href="#DejaVuSans-32" transform="translate(127.246094 0)"/>
       <use xlink:href="#DejaVuSans-32" transform="translate(190.869141 0)"/>
       <use xlink:href="#DejaVuSans-2d" transform="translate(254.492188 0)"/>
       <use xlink:href="#DejaVuSans-30" transform="translate(290.576172 0)"/>
       <use xlink:href="#DejaVuSans-31" transform="translate(354.199219 0)"/>
      </g>
     </g>
    </g>
    <g id="xtick_3">
     <g id="line2d_5">
      <path d="M 303.40049 320.4 
L 303.40049 43.2 
" clip-path="url(#pd0a0e2afc6)" style="fill: none; stroke-dasharray: 5.12,1.28,0.8,1.28; stroke-dashoffset: 0; stroke: #b0b0b0; stroke-width: 0.8"/>
     </g>
     <g id="line2d_6">
      <g>
       <use xlink:href="#m7c85937a66" x="303.40049" y="320.4" style="fill: #a9a9a9; stroke: #a9a9a9; stroke-width: 0.8"/>
      </g>
     </g>
     <g id="text_3">
      <!-- 2022-07 -->
      <g style="fill: #a9a9a9" transform="translate(282.509084 334.998438) scale(0.1 -0.1)">
       <use xlink:href="#DejaVuSans-32"/>
       <use xlink:href="#DejaVuSans-30" transform="translate(63.623047 0)"/>
       <use xlink:href="#DejaVuSans-32" transform="translate(127.246094 0)"/>
       <use xlink:href="#DejaVuSans-32" transform="translate(190.869141 0)"/>
       <use xlink:href="#DejaVuSans-2d" transform="translate(254.492188 0)"/>
       <use xlink:href="#DejaVuSans-30" transform="translate(290.576172 0)"/>
       <use xlink:href="#DejaVuSans-37" transform="translate(354.199219 0)"/>
      </g>
     </g>
    </g>
    <g id="xtick_4">
     <g id="line2d_7">
      <path d="M 392.153119 320.4 
L 392.153119 43.2 
" clip-path="url(#pd0a0e2afc6)" style="fill: none; stroke-dasharray: 5.12,1.28,0.8,1.28; stroke-dashoffset: 0; stroke: #b0b0b0; stroke-width: 0.8"/>
     </g>
     <g id="line2d_8">
      <g>
       <use xlink:href="#m7c85937a66" x="392.153119" y="320.4" style="fill: #a9a9a9; stroke: #a9a9a9; stroke-width: 0.8"/>
      </g>
     </g>
     <g id="text_4">
      <!-- 2023-01 -->
      <g style="fill: #a9a9a9" transform="translate(371.261713 334.998438) scale(0.1 -0.1)">
       <defs>
        <path id="DejaVuSans-33" d="M 2597 2516 
Q 3050 2419 3304 2112 
Q 3559 1806 3559 1356 
Q 3559 666 3084 287 
Q 2609 -91 1734 -91 
Q 1441 -91 1130 -33 
Q 819 25 488 141 
L 488 750 
Q 750 597 1062 519 
Q 1375 441 1716 441 
Q 2309 441 2620 675 
Q 2931 909 2931 1356 
Q 2931 1769 2642 2001 
Q 2353 2234 1838 2234 
L 1294 2234 
L 1294 2753 
L 1863 2753 
Q 2328 2753 2575 2939 
Q 2822 3125 2822 3475 
Q 2822 3834 2567 4026 
Q 2313 4219 1838 4219 
Q 1578 4219 1281 4162 
Q 984 4106 628 3988 
L 628 4550 
Q 988 4650 1302 4700 
Q 1616 4750 1894 4750 
Q 2613 4750 3031 4423 
Q 3450 4097 3450 3541 
Q 3450 3153 3228 2886 
Q 3006 2619 2597 2516 
z
" transform="scale(0.015625)"/>
       </defs>
       <use xlink:href="#DejaVuSans-32"/>
       <use xlink:href="#DejaVuSans-30" transform="translate(63.623047 0)"/>
       <use xlink:href="#DejaVuSans-32" transform="translate(127.246094 0)"/>
       <use xlink:href="#DejaVuSans-33" transform="translate(190.869141 0)"/>
       <use xlink:href="#DejaVuSans-2d" transform="translate(254.492188 0)"/>
       <use xlink:href="#DejaVuSans-30" transform="translate(290.576172 0)"/>
       <use xlink:href="#DejaVuSans-31" transform="translate(354.199219 0)"/>
      </g>
     </g>
    </g>
    <g id="xtick_5">
     <g id="line2d_9">
      <path d="M 479.458695 320.4 
L 479.458695 43.2 
" clip-path="url(#pd0a0e2afc6)" style="fill: none; stroke-dasharray: 5.12,1.28,0.8,1.28; stroke-dashoffset: 0; stroke: #b0b0b0; stroke-width: 0.8"/>
     </g>
     <g id="line2d_10">
      <g>
       <use xlink:href="#m7c85937a66" x="479.458695" y="320.4" style="fill: #a9a9a9; stroke: #a9a9a9; stroke-width: 0.8"/>
      </g>
     </g>
     <g id="text_5">
      <!-- 2023-07 -->
      <g style="fill: #a9a9a9" transform="translate(458.567288 334.998438) scale(0.1 -0.1)">
       <use xlink:href="#DejaVuSans-32"/>
       <use xlink:href="#DejaVuSans-30" transform="translate(63.623047 0)"/>
       <use xlink:href="#DejaVuSans-32" transform="translate(127.246094 0)"/>
       <use xlink:href="#DejaVuSans-33" transform="translate(190.869141 0)"/>
       <use xlink:href="#DejaVuSans-2d" transform="translate(254.492188 0)"/>
       <use xlink:href="#DejaVuSans-30" transform="translate(290.576172 0)"/>
       <use xlink:href="#DejaVuSans-37" transform="translate(354.199219 0)"/>
      </g>
     </g>
    </g>
    <g id="xtick_6">
     <g id="line2d_11">
      <path d="M 568.211324 320.4 
L 568.211324 43.2 
" clip-path="url(#pd0a0e2afc6)" style="fill: none; stroke-dasharray: 5.12,1.28,0.8,1.28; stroke-dashoffset: 0; stroke: #b0b0b0; stroke-width: 0.8"/>
     </g>
     <g id="line2d_12">
      <g>
       <use xlink:href="#m7c85937a66" x="568.211324" y="320.4" style="fill: #a9a9a9; stroke: #a9a9a9; stroke-width: 0.8"/>
      </g>
     </g>
     <g id="text_6">
      <!-- 2024-01 -->
      <g style="fill: #a9a9a9" transform="translate(547.319918 334.998438) scale(0.1 -0.1)">
       <defs>
        <path id="DejaVuSans-34" d="M 2419 4116 
L 825 1625 
L 2419 1625 
L 2419 4116 
z
M 2253 4666 
L 3047 4666 
L 3047 1625 
L 3713 1625 
L 3713 1100 
L 3047 1100 
L 3047 0 
L 2419 0 
L 2419 1100 
L 313 1100 
L 313 1709 
L 2253 4666 
z
" transform="scale(0.015625)"/>
       </defs>
       <use xlink:href="#DejaVuSans-32"/>
       <use xlink:href="#DejaVuSans-30" transform="translate(63.623047 0)"/>
       <use xlink:href="#DejaVuSans-32" transform="translate(127.246094 0)"/>
       <use xlink:href="#DejaVuSans-34" transform="translate(190.869141 0)"/>
       <use xlink:href="#DejaVuSans-2d" transform="translate(254.492188 0)"/>
       <use xlink:href="#DejaVuSans-30" transform="translate(290.576172 0)"/>
       <use xlink:href="#DejaVuSans-31" transform="translate(354.199219 0)"/>
      </g>
     </g>
    </g>
    <g id="xtick_7">
     <g id="line2d_13">
      <path d="M 655.999251 320.4 
L 655.999251 43.2 
" clip-path="url(#pd0a0e2afc6)" style="fill: none; stroke-dasharray: 5.12,1.28,0.8,1.28; stroke-dashoffset: 0; stroke: #b0b0b0; stroke-width: 0.8"/>
     </g>
     <g id="line2d_14">
      <g>
       <use xlink:href="#m7c85937a66" x="655.999251" y="320.4" style="fill: #a9a9a9; stroke: #a9a9a9; stroke-width: 0.8"/>
      </g>
     </g>
     <g id="text_7">
      <!-- 2024-07 -->
      <g style="fill: #a9a9a9" transform="translate(635.107845 334.998438) scale(0.1 -0.1)">
       <use xlink:href="#DejaVuSans-32"/>
       <use xlink:href="#DejaVuSans-30" transform="translate(63.623047 0)"/>
       <use xlink:href="#DejaVuSans-32" transform="translate(127.246094 0)"/>
       <use xlink:href="#DejaVuSans-34" transform="translate(190.869141 0)"/>
       <use xlink:href="#DejaVuSans-2d" transform="translate(254.492188 0)"/>
       <use xlink:href="#DejaVuSans-30" transform="translate(290.576172 0)"/>
       <use xlink:href="#DejaVuSans-37" transform="translate(354.199219 0)"/>
      </g>
     </g>
    </g>
    <g id="xtick_8">
     <g id="line2d_15">
      <path d="M 744.75188 320.4 
L 744.75188 43.2 
" clip-path="url(#pd0a0e2afc6)" style="fill: none; stroke-dasharray: 5.12,1.28,0.8,1.28; stroke-dashoffset: 0; stroke: #b0b0b0; stroke-width: 0.8"/>
     </g>
     <g id="line2d_16">
      <g>
       <use xlink:href="#m7c85937a66" x="744.75188" y="320.4" style="fill: #a9a9a9; stroke: #a9a9a9; stroke-width: 0.8"/>
      </g>
     </g>
     <g id="text_8">
      <!-- 2025-01 -->
      <g style="fill: #a9a9a9" transform="translate(723.860474 334.998438) scale(0.1 -0.1)">
       <defs>
        <path id="DejaVuSans-35" d="M 691 4666 
L 3169 4666 
L 3169 4134 
L 1269 4134 
L 1269 2991 
Q 1406 3038 1543 3061 
Q 1681 3084 1819 3084 
Q 2600 3084 3056 2656 
Q 3513 2228 3513 1497 
Q 3513 744 3044 326 
Q 2575 -91 1722 -91 
Q 1428 -91 1123 -41 
Q 819 9 494 109 
L 494 744 
Q 775 591 1075 516 
Q 1375 441 1709 441 
Q 2250 441 2565 725 
Q 2881 1009 2881 1497 
Q 2881 1984 2565 2268 
Q 2250 2553 1709 2553 
Q 1456 2553 1204 2497 
Q 953 2441 691 2322 
L 691 4666 
z
" transform="scale(0.015625)"/>
       </defs>
       <use xlink:href="#DejaVuSans-32"/>
       <use xlink:href="#DejaVuSans-30" transform="translate(63.623047 0)"/>
       <use xlink:href="#DejaVuSans-32" transform="translate(127.246094 0)"/>
       <use xlink:href="#DejaVuSans-35" transform="translate(190.869141 0)"/>
       <use xlink:href="#DejaVuSans-2d" transform="translate(254.492188 0)"/>
       <use xlink:href="#DejaVuSans-30" transform="translate(290.576172 0)"/>
       <use xlink:href="#DejaVuSans-31" transform="translate(354.199219 0)"/>
      </g>
     </g>
    </g>
   </g>
   <g id="matplotlib.axis_2">
    <g id="ytick_1">
     <g id="line2d_17">
      <path d="M 108 307.835146 
L 777.6 307.835146 
" clip-path="url(#pd0a0e2afc6)" style="fill: none; stroke-dasharray: 5.12,1.28,0.8,1.28; stroke-dashoffset: 0; stroke: #b0b0b0; stroke-width: 0.8"/>
     </g>
     <g id="line2d_18">
      <defs>
       <path id="ma659362925" d="M 0 0 
L -3.5 0 
" style="stroke: #a9a9a9; stroke-width: 0.8"/>
      </defs>
      <g>
       <use xlink:href="#ma659362925" x="108" y="307.835146" style="fill: #a9a9a9; stroke: #a9a9a9; stroke-width: 0.8"/>
      </g>
     </g>
     <g id="text_9">
      <!-- 0 -->
      <g style="fill: #a9a9a9" transform="translate(94.6375 311.634365) scale(0.1 -0.1)">
       <use xlink:href="#DejaVuSans-30"/>
      </g>
     </g>
    </g>
    <g id="ytick_2">
     <g id="line2d_19">
      <path d="M 108 279.717992 
L 777.6 279.717992 
" clip-path="url(#pd0a0e2afc6)" style="fill: none; stroke-dasharray: 5.12,1.28,0.8,1.28; stroke-dashoffset: 0; stroke: #b0b0b0; stroke-width: 0.8"/>
     </g>
     <g id="line2d_20">
      <g>
       <use xlink:href="#ma659362925" x="108" y="279.717992" style="fill: #a9a9a9; stroke: #a9a9a9; stroke-width: 0.8"/>
      </g>
     </g>
     <g id="text_10">
      <!-- 800 -->
      <g style="fill: #a9a9a9" transform="translate(81.9125 283.51721) scale(0.1 -0.1)">
       <defs>
        <path id="DejaVuSans-38" d="M 2034 2216 
Q 1584 2216 1326 1975 
Q 1069 1734 1069 1313 
Q 1069 891 1326 650 
Q 1584 409 2034 409 
Q 2484 409 2743 651 
Q 3003 894 3003 1313 
Q 3003 1734 2745 1975 
Q 2488 2216 2034 2216 
z
M 1403 2484 
Q 997 2584 770 2862 
Q 544 3141 544 3541 
Q 544 4100 942 4425 
Q 1341 4750 2034 4750 
Q 2731 4750 3128 4425 
Q 3525 4100 3525 3541 
Q 3525 3141 3298 2862 
Q 3072 2584 2669 2484 
Q 3125 2378 3379 2068 
Q 3634 1759 3634 1313 
Q 3634 634 3220 271 
Q 2806 -91 2034 -91 
Q 1263 -91 848 271 
Q 434 634 434 1313 
Q 434 1759 690 2068 
Q 947 2378 1403 2484 
z
M 1172 3481 
Q 1172 3119 1398 2916 
Q 1625 2713 2034 2713 
Q 2441 2713 2670 2916 
Q 2900 3119 2900 3481 
Q 2900 3844 2670 4047 
Q 2441 4250 2034 4250 
Q 1625 4250 1398 4047 
Q 1172 3844 1172 3481 
z
" transform="scale(0.015625)"/>
       </defs>
       <use xlink:href="#DejaVuSans-38"/>
       <use xlink:href="#DejaVuSans-30" transform="translate(63.623047 0)"/>
       <use xlink:href="#DejaVuSans-30" transform="translate(127.246094 0)"/>
      </g>
     </g>
    </g>
    <g id="ytick_3">
     <g id="line2d_21">
      <path d="M 108 251.600837 
L 777.6 251.600837 
" clip-path="url(#pd0a0e2afc6)" style="fill: none; stroke-dasharray: 5.12,1.28,0.8,1.28; stroke-dashoffset: 0; stroke: #b0b0b0; stroke-width: 0.8"/>
     </g>
     <g id="line2d_22">
      <g>
       <use xlink:href="#ma659362925" x="108" y="251.600837" style="fill: #a9a9a9; stroke: #a9a9a9; stroke-width: 0.8"/>
      </g>
     </g>
     <g id="text_11">
      <!-- 1600 -->
      <g style="fill: #a9a9a9" transform="translate(75.55 255.400056) scale(0.1 -0.1)">
       <defs>
        <path id="DejaVuSans-36" d="M 2113 2584 
Q 1688 2584 1439 2293 
Q 1191 2003 1191 1497 
Q 1191 994 1439 701 
Q 1688 409 2113 409 
Q 2538 409 2786 701 
Q 3034 994 3034 1497 
Q 3034 2003 2786 2293 
Q 2538 2584 2113 2584 
z
M 3366 4563 
L 3366 3988 
Q 3128 4100 2886 4159 
Q 2644 4219 2406 4219 
Q 1781 4219 1451 3797 
Q 1122 3375 1075 2522 
Q 1259 2794 1537 2939 
Q 1816 3084 2150 3084 
Q 2853 3084 3261 2657 
Q 3669 2231 3669 1497 
Q 3669 778 3244 343 
Q 2819 -91 2113 -91 
Q 1303 -91 875 529 
Q 447 1150 447 2328 
Q 447 3434 972 4092 
Q 1497 4750 2381 4750 
Q 2619 4750 2861 4703 
Q 3103 4656 3366 4563 
z
" transform="scale(0.015625)"/>
       </defs>
       <use xlink:href="#DejaVuSans-31"/>
       <use xlink:href="#DejaVuSans-36" transform="translate(63.623047 0)"/>
       <use xlink:href="#DejaVuSans-30" transform="translate(127.246094 0)"/>
       <use xlink:href="#DejaVuSans-30" transform="translate(190.869141 0)"/>
      </g>
     </g>
    </g>
    <g id="ytick_4">
     <g id="line2d_23">
      <path d="M 108 223.483682 
L 777.6 223.483682 
" clip-path="url(#pd0a0e2afc6)" style="fill: none; stroke-dasharray: 5.12,1.28,0.8,1.28; stroke-dashoffset: 0; stroke: #b0b0b0; stroke-width: 0.8"/>
     </g>
     <g id="line2d_24">
      <g>
       <use xlink:href="#ma659362925" x="108" y="223.483682" style="fill: #a9a9a9; stroke: #a9a9a9; stroke-width: 0.8"/>
      </g>
     </g>
     <g id="text_12">
      <!-- 2400 -->
      <g style="fill: #a9a9a9" transform="translate(75.55 227.282901) scale(0.1 -0.1)">
       <use xlink:href="#DejaVuSans-32"/>
       <use xlink:href="#DejaVuSans-34" transform="translate(63.623047 0)"/>
       <use xlink:href="#DejaVuSans-30" transform="translate(127.246094 0)"/>
       <use xlink:href="#DejaVuSans-30" transform="translate(190.869141 0)"/>
      </g>
     </g>
    </g>
    <g id="ytick_5">
     <g id="line2d_25">
      <path d="M 108 195.366527 
L 777.6 195.366527 
" clip-path="url(#pd0a0e2afc6)" style="fill: none; stroke-dasharray: 5.12,1.28,0.8,1.28; stroke-dashoffset: 0; stroke: #b0b0b0; stroke-width: 0.8"/>
     </g>
     <g id="line2d_26">
      <g>
       <use xlink:href="#ma659362925" x="108" y="195.366527" style="fill: #a9a9a9; stroke: #a9a9a9; stroke-width: 0.8"/>
      </g>
     </g>
     <g id="text_13">
      <!-- 3200 -->
      <g style="fill: #a9a9a9" transform="translate(75.55 199.165746) scale(0.1 -0.1)">
       <use xlink:href="#DejaVuSans-33"/>
       <use xlink:href="#DejaVuSans-32" transform="translate(63.623047 0)"/>
       <use xlink:href="#DejaVuSans-30" transform="translate(127.246094 0)"/>
       <use xlink:href="#DejaVuSans-30" transform="translate(190.869141 0)"/>
      </g>
     </g>
    </g>
    <g id="ytick_6">
     <g id="line2d_27">
      <path d="M 108 167.249372 
L 777.6 167.249372 
" clip-path="url(#pd0a0e2afc6)" style="fill: none; stroke-dasharray: 5.12,1.28,0.8,1.28; stroke-dashoffset: 0; stroke: #b0b0b0; stroke-width: 0.8"/>
     </g>
     <g id="line2d_28">
      <g>
       <use xlink:href="#ma659362925" x="108" y="167.249372" style="fill: #a9a9a9; stroke: #a9a9a9; stroke-width: 0.8"/>
      </g>
     </g>
     <g id="text_14">
      <!-- 4000 -->
      <g style="fill: #a9a9a9" transform="translate(75.55 171.048591) scale(0.1 -0.1)">
       <use xlink:href="#DejaVuSans-34"/>
       <use xlink:href="#DejaVuSans-30" transform="translate(63.623047 0)"/>
       <use xlink:href="#DejaVuSans-30" transform="translate(127.246094 0)"/>
       <use xlink:href="#DejaVuSans-30" transform="translate(190.869141 0)"/>
      </g>
     </g>
    </g>
    <g id="ytick_7">
     <g id="line2d_29">
      <path d="M 108 139.132218 
L 777.6 139.132218 
" clip-path="url(#pd0a0e2afc6)" style="fill: none; stroke-dasharray: 5.12,1.28,0.8,1.28; stroke-dashoffset: 0; stroke: #b0b0b0; stroke-width: 0.8"/>
     </g>
     <g id="line2d_30">
      <g>
       <use xlink:href="#ma659362925" x="108" y="139.132218" style="fill: #a9a9a9; stroke: #a9a9a9; stroke-width: 0.8"/>
      </g>
     </g>
     <g id="text_15">
      <!-- 4800 -->
      <g style="fill: #a9a9a9" transform="translate(75.55 142.931436) scale(0.1 -0.1)">
       <use xlink:href="#DejaVuSans-34"/>
       <use xlink:href="#DejaVuSans-38" transform="translate(63.623047 0)"/>
       <use xlink:href="#DejaVuSans-30" transform="translate(127.246094 0)"/>
       <use xlink:href="#DejaVuSans-30" transform="translate(190.869141 0)"/>
      </g>
     </g>
    </g>
    <g id="ytick_8">
     <g id="line2d_31">
      <path d="M 108 111.015063 
L 777.6 111.015063 
" clip-path="url(#pd0a0e2afc6)" style="fill: none; stroke-dasharray: 5.12,1.28,0.8,1.28; stroke-dashoffset: 0; stroke: #b0b0b0; stroke-width: 0.8"/>
     </g>
     <g id="line2d_32">
      <g>
       <use xlink:href="#ma659362925" x="108" y="111.015063" style="fill: #a9a9a9; stroke: #a9a9a9; stroke-width: 0.8"/>
      </g>
     </g>
     <g id="text_16">
      <!-- 5600 -->
      <g style="fill: #a9a9a9" transform="translate(75.55 114.814282) scale(0.1 -0.1)">
       <use xlink:href="#DejaVuSans-35"/>
       <use xlink:href="#DejaVuSans-36" transform="translate(63.623047 0)"/>
       <use xlink:href="#DejaVuSans-30" transform="translate(127.246094 0)"/>
       <use xlink:href="#DejaVuSans-30" transform="translate(190.869141 0)"/>
      </g>
     </g>
    </g>
    <g id="ytick_9">
     <g id="line2d_33">
      <path d="M 108 82.897908 
L 777.6 82.897908 
" clip-path="url(#pd0a0e2afc6)" style="fill: none; stroke-dasharray: 5.12,1.28,0.8,1.28; stroke-dashoffset: 0; stroke: #b0b0b0; stroke-width: 0.8"/>
     </g>
     <g id="line2d_34">
      <g>
       <use xlink:href="#ma659362925" x="108" y="82.897908" style="fill: #a9a9a9; stroke: #a9a9a9; stroke-width: 0.8"/>
      </g>
     </g>
     <g id="text_17">
      <!-- 6400 -->
      <g style="fill: #a9a9a9" transform="translate(75.55 86.697127) scale(0.1 -0.1)">
       <use xlink:href="#DejaVuSans-36"/>
       <use xlink:href="#DejaVuSans-34" transform="translate(63.623047 0)"/>
       <use xlink:href="#DejaVuSans-30" transform="translate(127.246094 0)"/>
       <use xlink:href="#DejaVuSans-30" transform="translate(190.869141 0)"/>
      </g>
     </g>
    </g>
    <g id="ytick_10">
     <g id="line2d_35">
      <path d="M 108 54.780753 
L 777.6 54.780753 
" clip-path="url(#pd0a0e2afc6)" style="fill: none; stroke-dasharray: 5.12,1.28,0.8,1.28; stroke-dashoffset: 0; stroke: #b0b0b0; stroke-width: 0.8"/>
     </g>
     <g id="line2d_36">
      <g>
       <use xlink:href="#ma659362925" x="108" y="54.780753" style="fill: #a9a9a9; stroke: #a9a9a9; stroke-width: 0.8"/>
      </g>
     </g>
     <g id="text_18">
      <!-- 7200 -->
      <g style="fill: #a9a9a9" transform="translate(75.55 58.579972) scale(0.1 -0.1)">
       <use xlink:href="#DejaVuSans-37"/>
       <use xlink:href="#DejaVuSans-32" transform="translate(63.623047 0)"/>
       <use xlink:href="#DejaVuSans-30" transform="translate(127.246094 0)"/>
       <use xlink:href="#DejaVuSans-30" transform="translate(190.869141 0)"/>
      </g>
     </g>
    </g>
   </g>
   <g id="line2d_37">
    <path d="M 138.436364 307.729707 
L 141.330471 307.483682 
L 141.812822 307.272803 
L 143.742227 307.026778 
L 145.671632 306.640167 
L 146.636335 306.499582 
L 149.048091 306.288703 
L 150.012794 305.902092 
L 150.495145 305.269456 
L 150.977496 304.917992 
L 151.459847 303.828452 
L 151.942199 303.758159 
L 152.42455 303.371548 
L 153.389252 302.879498 
L 155.318657 301.333054 
L 157.248062 300.3841 
L 158.695116 299.716318 
L 159.177467 298.943096 
L 160.14217 298.240167 
L 160.624521 298.029289 
L 165.448033 297.32636 
L 165.930385 297.115481 
L 169.306843 296.83431 
L 171.236248 296.377406 
L 175.095058 295.850209 
L 175.57741 295.604184 
L 176.059761 295.533891 
L 177.024463 295.217573 
L 180.400922 294.65523 
L 181.365625 294.374059 
L 185.706786 293.635983 
L 186.671488 293.425105 
L 187.636191 293.389958 
L 189.565596 292.933054 
L 190.047947 292.265272 
L 191.495001 291.702929 
L 192.942054 291.316318 
L 193.424406 291.070293 
L 194.389108 290.894561 
L 196.318513 290.332218 
L 197.283216 290.261925 
L 198.247918 290.0159 
L 200.177323 289.523849 
L 200.659674 289.488703 
L 201.624377 289.031799 
L 202.106728 288.961506 
L 202.589079 288.715481 
L 207.894943 287.83682 
L 209.824348 287.274477 
L 210.306699 286.958159 
L 212.718456 286.149791 
L 213.683158 285.482008 
L 215.130212 285.200837 
L 227.671344 281.651046 
L 228.153695 281.651046 
L 228.636047 281.440167 
L 229.600749 281.334728 
L 230.0831 281.158996 
L 232.012505 281.088703 
L 232.977208 280.912971 
L 233.94191 280.420921 
L 235.388964 279.893724 
L 235.871315 279.577406 
L 236.836018 279.155649 
L 237.318369 278.909623 
L 238.283072 278.593305 
L 238.765423 278.45272 
L 239.730125 277.85523 
L 240.212477 277.328033 
L 241.177179 275.851883 
L 241.65953 275.711297 
L 242.141882 275.711297 
L 243.588935 274.867782 
L 244.071287 274.621757 
L 244.553638 274.516318 
L 245.035989 274.059414 
L 246.000692 273.672803 
L 246.965394 273.2159 
L 249.37715 270.158159 
L 252.271258 268.611715 
L 253.23596 267.838494 
L 253.718311 267.522176 
L 254.200663 266.819247 
L 254.683014 265.729707 
L 255.165365 264.991632 
L 255.647716 264.605021 
L 256.130068 264.394142 
L 259.988878 260.879498 
L 260.95358 260.000837 
L 263.847688 258.208368 
L 264.330039 258.032636 
L 265.777093 257.189121 
L 267.224146 256.240167 
L 269.153551 254.517992 
L 270.118254 254.131381 
L 271.082956 253.463598 
L 271.565308 253.182427 
L 272.047659 253.112134 
L 273.494713 252.303766 
L 273.977064 251.776569 
L 276.38882 250.476151 
L 276.871171 250.300418 
L 278.318225 249.316318 
L 285.553494 246.785774 
L 286.518196 245.907113 
L 287.482899 245.450209 
L 288.447601 244.923013 
L 288.929952 244.641841 
L 289.894655 244.360669 
L 290.377006 244.044351 
L 290.859357 243.903766 
L 292.306411 242.954812 
L 294.718167 242.392469 
L 296.165221 241.548954 
L 297.612275 241.232636 
L 298.094626 241.09205 
L 299.54168 240.00251 
L 301.471085 239.475314 
L 301.953436 239.088703 
L 304.847544 238.104603 
L 305.812246 237.92887 
L 306.776949 237.542259 
L 310.153407 236.312134 
L 311.11811 236.171548 
L 312.565164 235.679498 
L 314.97692 234.519665 
L 316.906325 233.465272 
L 320.765135 231.883682 
L 321.247486 231.813389 
L 322.212188 231.2159 
L 322.69454 231.145607 
L 324.623945 230.372385 
L 326.55335 230.12636 
L 327.518052 229.63431 
L 328.000403 229.212552 
L 328.482755 228.333891 
L 330.41216 227.806695 
L 331.859213 227.068619 
L 332.341565 226.96318 
L 336.200375 225.100418 
L 337.647428 224.819247 
L 338.612131 224.327197 
L 339.094482 224.116318 
L 339.576833 224.046025 
L 341.506238 223.167364 
L 342.953292 222.253556 
L 344.400346 221.972385 
L 346.812102 221.374895 
L 347.294453 220.988285 
L 348.741507 220.461088 
L 350.670912 219.687866 
L 351.153263 219.336402 
L 351.635614 219.160669 
L 352.600317 218.633473 
L 355.012073 217.825105 
L 356.459127 216.665272 
L 356.941478 216.559833 
L 357.906181 215.786611 
L 358.388532 215.716318 
L 358.870883 214.943096 
L 359.353234 214.732218 
L 359.835586 214.345607 
L 360.317937 214.275314 
L 361.282639 213.677824 
L 362.247342 213.361506 
L 362.729693 213.010042 
L 363.212044 212.83431 
L 364.659098 211.815063 
L 366.588503 210.795816 
L 367.070854 210.725523 
L 368.517908 209.987448 
L 369.000259 209.179079 
L 369.964962 208.476151 
L 370.447313 208.370711 
L 371.412016 207.773222 
L 371.894367 207.667782 
L 372.859069 207.175732 
L 374.788474 206.226778 
L 375.270826 205.875314 
L 376.235528 204.92636 
L 377.200231 204.32887 
L 377.682582 204.012552 
L 378.164933 203.485356 
L 380.094338 202.149791 
L 380.576689 201.587448 
L 381.05904 201.200837 
L 382.023743 200.849372 
L 382.988445 200.216736 
L 384.435499 199.478661 
L 384.91785 199.408368 
L 386.364904 198.635146 
L 387.329607 198.037657 
L 392.153119 196.280335 
L 392.63547 195.893724 
L 394.564875 195.155649 
L 395.047227 195.015063 
L 396.011929 194.382427 
L 396.976632 193.960669 
L 397.941334 193.292887 
L 398.906037 191.359833 
L 399.870739 190.235146 
L 401.317793 189.497071 
L 402.282495 189.11046 
L 402.764847 189.040167 
L 403.247198 188.758996 
L 405.658954 187.985774 
L 406.141305 187.774895 
L 407.106008 187.107113 
L 408.553062 186.474477 
L 409.517764 185.94728 
L 410.000115 185.595816 
L 410.482467 185.384937 
L 410.964818 185.033473 
L 411.447169 184.506276 
L 412.411871 183.979079 
L 414.823628 182.678661 
L 417.717735 181.237657 
L 419.164789 180.8159 
L 420.611843 180.253556 
L 421.094194 179.902092 
L 422.058896 179.620921 
L 423.023599 179.23431 
L 423.50595 178.847699 
L 425.435355 178.179916 
L 426.400058 177.476987 
L 427.36476 177.05523 
L 428.329463 176.317155 
L 429.294165 175.96569 
L 429.776516 175.543933 
L 430.258868 175.47364 
L 431.22357 174.735565 
L 432.188273 174.243515 
L 432.670624 174.032636 
L 433.152975 173.540586 
L 436.529434 172.205021 
L 437.494136 171.783264 
L 438.94119 171.32636 
L 439.905893 171.185774 
L 440.388244 170.974895 
L 440.870595 170.904603 
L 441.835298 170.482845 
L 442.317649 170.447699 
L 444.247054 169.709623 
L 445.694107 168.690377 
L 446.176459 168.514644 
L 447.141161 167.987448 
L 447.623512 167.846862 
L 450.51762 166.230126 
L 450.999971 166.124686 
L 452.447025 165.281172 
L 453.894079 164.789121 
L 454.858781 164.472803 
L 456.788186 163.840167 
L 457.752889 163.523849 
L 459.682294 163.137238 
L 460.164645 162.92636 
L 460.646996 162.856067 
L 461.611699 162.43431 
L 462.09405 162.364017 
L 462.576401 162.117992 
L 463.541104 161.942259 
L 464.988157 161.415063 
L 465.95286 161.309623 
L 467.399914 160.993305 
L 469.81167 160.571548 
L 482.352802 156.916318 
L 482.835153 156.424268 
L 483.799856 156.037657 
L 487.658666 154.596653 
L 488.141017 154.315481 
L 489.588071 153.893724 
L 490.552773 153.647699 
L 491.035125 153.331381 
L 491.517476 153.225941 
L 491.999827 152.804184 
L 493.446881 152.523013 
L 494.411583 152.066109 
L 494.893935 151.503766 
L 496.82334 151.046862 
L 500.199798 150.343933 
L 500.68215 150.343933 
L 501.164501 150.133054 
L 503.093906 149.78159 
L 503.576257 149.570711 
L 505.505662 149.219247 
L 506.470365 148.79749 
L 507.435067 148.621757 
L 509.846823 148.024268 
L 511.776228 147.426778 
L 512.258579 147.321339 
L 512.740931 147.075314 
L 513.705633 146.829289 
L 514.187984 146.548117 
L 515.635038 146.056067 
L 516.117389 145.739749 
L 517.082092 145.458577 
L 520.940902 144.123013 
L 521.905604 144.05272 
L 523.835009 143.490377 
L 524.317361 143.209205 
L 525.282063 142.928033 
L 527.693819 141.838494 
L 528.176171 141.803347 
L 533.482034 139.940586 
L 535.893791 139.30795 
L 536.858493 138.851046 
L 538.305547 138.534728 
L 540.234952 136.953138 
L 541.199654 136.671967 
L 541.682005 136.285356 
L 544.576113 135.195816 
L 545.058464 134.879498 
L 546.023167 134.598326 
L 546.505518 134.282008 
L 548.917274 133.508787 
L 550.364328 132.665272 
L 550.846679 132.559833 
L 553.258435 131.259414 
L 554.705489 130.626778 
L 555.18784 130.275314 
L 556.152543 129.958996 
L 557.117245 129.396653 
L 557.599597 129.220921 
L 558.081948 128.869456 
L 564.352514 126.65523 
L 564.834865 126.549791 
L 565.317217 126.233473 
L 567.246622 125.846862 
L 568.211324 125.460251 
L 571.105431 124.054393 
L 571.587783 123.9841 
L 573.034836 123.175732 
L 574.48189 122.683682 
L 577.858349 121.312971 
L 578.3407 121.172385 
L 578.823051 120.856067 
L 579.787754 120.750628 
L 580.270105 120.43431 
L 581.234808 120.258577 
L 582.19951 119.801674 
L 582.681861 119.590795 
L 583.164213 119.520502 
L 585.575969 118.571548 
L 587.023023 118.184937 
L 587.987725 117.938912 
L 589.434779 117.517155 
L 590.399481 117.130544 
L 592.328886 116.076151 
L 593.293589 115.68954 
L 593.77594 115.373222 
L 594.740643 115.162343 
L 595.222994 114.881172 
L 595.705345 114.775732 
L 597.152399 113.967364 
L 598.117101 113.580753 
L 600.046506 112.842678 
L 602.458262 112.03431 
L 603.422965 111.542259 
L 605.834721 110.733891 
L 608.728829 109.574059 
L 610.658234 108.695397 
L 615.481746 106.832636 
L 615.964097 106.516318 
L 617.893502 105.848536 
L 618.375854 105.848536 
L 619.340556 105.426778 
L 621.269961 103.880335 
L 621.752312 103.739749 
L 622.234664 103.423431 
L 622.717015 103.317992 
L 623.199366 103.071967 
L 623.681717 103.001674 
L 624.164069 102.650209 
L 624.64642 102.54477 
L 625.611122 101.94728 
L 627.058176 101.209205 
L 628.022879 100.822594 
L 628.50523 100.576569 
L 629.952284 100.260251 
L 632.36404 99.451883 
L 633.328742 99.135565 
L 634.775796 98.39749 
L 635.740498 97.940586 
L 636.705201 97.694561 
L 638.152255 97.026778 
L 642.493416 95.445188 
L 643.94047 94.566527 
L 644.422821 94.461088 
L 645.387523 94.004184 
L 646.352226 93.65272 
L 646.834577 93.230962 
L 647.79928 92.844351 
L 650.693387 91.684519 
L 652.140441 91.262762 
L 652.622792 91.016736 
L 653.105143 90.946444 
L 654.552197 90.419247 
L 655.999251 89.89205 
L 656.963953 89.505439 
L 657.446305 89.118828 
L 658.893358 88.732218 
L 659.37571 88.451046 
L 660.340412 88.205021 
L 661.787466 87.396653 
L 662.269817 87.361506 
L 663.716871 86.904603 
L 664.681573 86.83431 
L 665.646276 86.447699 
L 668.540383 85.604184 
L 669.505086 85.569038 
L 673.363896 84.338912 
L 674.328598 83.811715 
L 674.810949 83.389958 
L 676.258003 82.546444 
L 676.740354 82.194979 
L 677.705057 81.843515 
L 680.116813 81.070293 
L 680.599164 80.683682 
L 683.493272 79.488703 
L 685.422677 78.961506 
L 686.387379 78.539749 
L 686.869731 78.293724 
L 687.834433 78.012552 
L 688.316784 77.731381 
L 689.281487 77.555649 
L 691.693243 76.430962 
L 692.175594 76.149791 
L 693.622648 75.798326 
L 694.104999 75.482008 
L 694.587351 75.306276 
L 695.069702 74.884519 
L 695.552053 74.814226 
L 697.481458 74.041004 
L 699.410863 73.5841 
L 699.893214 73.513808 
L 700.375565 73.302929 
L 700.857917 73.267782 
L 701.822619 72.951464 
L 702.30497 72.916318 
L 703.752024 72.353975 
L 705.681429 71.791632 
L 706.646132 71.053556 
L 708.575537 69.999163 
L 710.02259 69.507113 
L 712.916698 68.206695 
L 713.8814 67.679498 
L 714.363752 67.433473 
L 714.846103 66.976569 
L 717.74021 66.027615 
L 718.704913 65.641004 
L 719.669615 65.394979 
L 720.151967 65.148954 
L 720.634318 64.727197 
L 722.563723 64.235146 
L 723.046074 63.883682 
L 729.31664 61.599163 
L 730.281343 61.423431 
L 734.622504 59.912134 
L 735.587206 59.666109 
L 736.069558 59.45523 
L 736.551909 59.420084 
L 737.516611 59.033473 
L 738.481314 58.435983 
L 738.963665 58.260251 
L 739.446016 58.225105 
L 740.89307 57.592469 
L 742.340124 57.065272 
L 742.822475 56.994979 
L 743.787178 56.608368 
L 745.234231 56.29205 
L 746.681285 55.835146 
L 747.163636 55.8 
L 747.163636 55.8 
" clip-path="url(#pd0a0e2afc6)" style="fill: none; stroke: #1f77b4; stroke-width: 1.5; stroke-linecap: square"/>
   </g>
   <g id="line2d_38">
    <path d="M 138.918715 307.8 
L 143.259876 307.694561 
L 147.118686 307.518828 
L 149.048091 307.518828 
L 149.530442 307.378243 
L 151.942199 307.272803 
L 154.836306 306.956485 
L 157.730413 306.851046 
L 158.695116 306.745607 
L 162.071575 306.605021 
L 165.448033 306.499582 
L 167.85979 306.429289 
L 174.130356 306.323849 
L 176.542112 306.253556 
L 179.918571 306.148117 
L 182.330327 306.077824 
L 187.636191 305.972385 
L 189.565596 305.796653 
L 191.495001 305.761506 
L 194.389108 305.656067 
L 196.318513 305.620921 
L 198.730269 305.550628 
L 200.659674 305.374895 
L 205.000836 305.269456 
L 205.965538 305.199163 
L 207.894943 305.093724 
L 210.789051 304.988285 
L 212.718456 304.882845 
L 221.400778 304.355649 
L 224.777237 304.250209 
L 226.22429 304.109623 
L 228.636047 304.004184 
L 233.459559 303.758159 
L 238.283072 303.687866 
L 240.212477 303.476987 
L 242.141882 303.371548 
L 247.447745 302.879498 
L 250.824204 302.492887 
L 252.271258 302.422594 
L 256.130068 301.930544 
L 259.024175 301.860251 
L 260.471229 301.719665 
L 261.918283 301.614226 
L 275.424118 300.594979 
L 276.38882 300.419247 
L 279.282928 300.313808 
L 287.000547 299.856904 
L 290.377006 299.751464 
L 292.306411 299.540586 
L 294.718167 299.435146 
L 297.612275 299.329707 
L 300.024031 299.224268 
L 301.953436 299.189121 
L 304.365192 299.118828 
L 305.329895 298.978243 
L 312.082812 298.872803 
L 313.047515 298.767364 
L 318.83573 298.661925 
L 323.176891 298.451046 
L 326.55335 298.345607 
L 328.482755 298.134728 
L 331.859213 298.029289 
L 332.823916 297.853556 
L 335.235672 297.783264 
L 340.059185 297.712971 
L 341.98859 297.537238 
L 343.917995 297.502092 
L 345.365048 297.396653 
L 347.294453 297.220921 
L 352.117966 296.974895 
L 356.941478 296.869456 
L 361.282639 296.658577 
L 362.729693 296.623431 
L 363.694396 296.482845 
L 366.106152 296.377406 
L 367.070854 296.307113 
L 368.035557 296.23682 
L 369.000259 296.166527 
L 373.341421 296.096234 
L 374.788474 295.990795 
L 387.811958 295.14728 
L 390.223714 295.041841 
L 392.63547 294.971548 
L 399.388388 294.866109 
L 400.35309 294.725523 
L 407.106008 294.620084 
L 411.92952 294.374059 
L 412.894223 294.338912 
L 413.858925 294.233473 
L 416.270681 294.128033 
L 418.682438 294.057741 
L 421.094194 293.952301 
L 423.50595 293.882008 
L 427.847111 293.776569 
L 430.741219 293.67113 
L 437.494136 293.56569 
L 442.8 293.284519 
L 444.729405 293.214226 
L 446.176459 293.108787 
L 452.929376 293.003347 
L 455.823484 292.897908 
L 464.505806 292.792469 
L 466.435211 292.757322 
L 472.223426 292.687029 
L 473.188129 292.616736 
L 479.941046 292.511297 
L 481.870451 292.476151 
L 494.411583 292.370711 
L 495.858637 292.230126 
L 517.564443 292.124686 
L 519.976199 292.054393 
L 532.517332 291.9841 
L 533.482034 291.913808 
L 535.893791 291.843515 
L 537.340844 291.702929 
L 540.234952 291.59749 
L 543.61141 291.456904 
L 547.952572 291.351464 
L 550.364328 291.281172 
L 553.740787 291.175732 
L 557.599597 291 
L 560.011353 290.894561 
L 561.940758 290.859414 
L 566.281919 290.753975 
L 568.211324 290.718828 
L 574.48189 290.613389 
L 576.411295 290.578243 
L 578.823051 290.472803 
L 581.717159 290.367364 
L 585.093618 290.297071 
L 586.05832 290.226778 
L 597.63475 290.121339 
L 603.905316 289.769874 
L 606.317072 289.699582 
L 607.281775 289.594142 
L 608.246477 289.523849 
L 612.105287 289.41841 
L 614.999395 289.312971 
L 619.822907 289.207531 
L 622.234664 288.961506 
L 627.058176 288.856067 
L 628.022879 288.750628 
L 632.846391 288.645188 
L 635.258147 288.574895 
L 640.564011 288.539749 
L 641.528713 288.43431 
L 646.834577 288.32887 
L 647.79928 288.258577 
L 658.411007 288.153138 
L 661.305115 288.047699 
L 668.540383 287.942259 
L 670.469788 287.907113 
L 674.810949 287.83682 
L 675.775652 287.731381 
L 682.046218 287.625941 
L 684.457974 287.555649 
L 693.140297 287.450209 
L 694.587351 287.34477 
L 696.034404 287.239331 
L 697.481458 287.133891 
L 704.716727 287.028452 
L 707.610834 286.923013 
L 720.634318 286.817573 
L 724.975479 286.606695 
L 730.763694 286.501255 
L 731.728396 286.395816 
L 738.963665 286.325523 
L 739.928368 286.25523 
L 745.234231 286.149791 
L 747.163636 286.079498 
L 747.163636 286.079498 
" clip-path="url(#pd0a0e2afc6)" style="fill: none; stroke: #ff7f0e; stroke-width: 1.5; stroke-linecap: square"/>
   </g>
   <g id="patch_3">
    <path d="M 108 320.4 
L 108 43.2 
" style="fill: none; stroke: #a9a9a9; stroke-width: 0.8; stroke-linejoin: miter; stroke-linecap: square"/>
   </g>
   <g id="patch_4">
    <path d="M 777.6 320.4 
L 777.6 43.2 
" style="fill: none"/>
   </g>
   <g id="patch_5">
    <path d="M 108 320.4 
L 777.6 320.4 
" style="fill: none; stroke: #a9a9a9; stroke-width: 0.8; stroke-linejoin: miter; stroke-linecap: square"/>
   </g>
   <g id="patch_6">
    <path d="M 108 43.2 
L 777.6 43.2 
" style="fill: none"/>
   </g>
   <g id="text_19">
    <!-- get_subscribe history -->
    <g style="fill: #a9a9a9" transform="translate(378.6075 37.2) scale(0.12 -0.12)">
     <defs>
      <path id="DejaVuSans-67" d="M 2906 1791 
Q 2906 2416 2648 2759 
Q 2391 3103 1925 3103 
Q 1463 3103 1205 2759 
Q 947 2416 947 1791 
Q 947 1169 1205 825 
Q 1463 481 1925 481 
Q 2391 481 2648 825 
Q 2906 1169 2906 1791 
z
M 3481 434 
Q 3481 -459 3084 -895 
Q 2688 -1331 1869 -1331 
Q 1566 -1331 1297 -1286 
Q 1028 -1241 775 -1147 
L 775 -588 
Q 1028 -725 1275 -790 
Q 1522 -856 1778 -856 
Q 2344 -856 2625 -561 
Q 2906 -266 2906 331 
L 2906 616 
Q 2728 306 2450 153 
Q 2172 0 1784 0 
Q 1141 0 747 490 
Q 353 981 353 1791 
Q 353 2603 747 3093 
Q 1141 3584 1784 3584 
Q 2172 3584 2450 3431 
Q 2728 3278 2906 2969 
L 2906 3500 
L 3481 3500 
L 3481 434 
z
" transform="scale(0.015625)"/>
      <path id="DejaVuSans-65" d="M 3597 1894 
L 3597 1613 
L 953 1613 
Q 991 1019 1311 708 
Q 1631 397 2203 397 
Q 2534 397 2845 478 
Q 3156 559 3463 722 
L 3463 178 
Q 3153 47 2828 -22 
Q 2503 -91 2169 -91 
Q 1331 -91 842 396 
Q 353 884 353 1716 
Q 353 2575 817 3079 
Q 1281 3584 2069 3584 
Q 2775 3584 3186 3129 
Q 3597 2675 3597 1894 
z
M 3022 2063 
Q 3016 2534 2758 2815 
Q 2500 3097 2075 3097 
Q 1594 3097 1305 2825 
Q 1016 2553 972 2059 
L 3022 2063 
z
" transform="scale(0.015625)"/>
      <path id="DejaVuSans-74" d="M 1172 4494 
L 1172 3500 
L 2356 3500 
L 2356 3053 
L 1172 3053 
L 1172 1153 
Q 1172 725 1289 603 
Q 1406 481 1766 481 
L 2356 481 
L 2356 0 
L 1766 0 
Q 1100 0 847 248 
Q 594 497 594 1153 
L 594 3053 
L 172 3053 
L 172 3500 
L 594 3500 
L 594 4494 
L 1172 4494 
z
" transform="scale(0.015625)"/>
      <path id="DejaVuSans-5f" d="M 3263 -1063 
L 3263 -1509 
L -63 -1509 
L -63 -1063 
L 3263 -1063 
z
" transform="scale(0.015625)"/>
      <path id="DejaVuSans-73" d="M 2834 3397 
L 2834 2853 
Q 2591 2978 2328 3040 
Q 2066 3103 1784 3103 
Q 1356 3103 1142 2972 
Q 928 2841 928 2578 
Q 928 2378 1081 2264 
Q 1234 2150 1697 2047 
L 1894 2003 
Q 2506 1872 2764 1633 
Q 3022 1394 3022 966 
Q 3022 478 2636 193 
Q 2250 -91 1575 -91 
Q 1294 -91 989 -36 
Q 684 19 347 128 
L 347 722 
Q 666 556 975 473 
Q 1284 391 1588 391 
Q 1994 391 2212 530 
Q 2431 669 2431 922 
Q 2431 1156 2273 1281 
Q 2116 1406 1581 1522 
L 1381 1569 
Q 847 1681 609 1914 
Q 372 2147 372 2553 
Q 372 3047 722 3315 
Q 1072 3584 1716 3584 
Q 2034 3584 2315 3537 
Q 2597 3491 2834 3397 
z
" transform="scale(0.015625)"/>
      <path id="DejaVuSans-75" d="M 544 1381 
L 544 3500 
L 1119 3500 
L 1119 1403 
Q 1119 906 1312 657 
Q 1506 409 1894 409 
Q 2359 409 2629 706 
Q 2900 1003 2900 1516 
L 2900 3500 
L 3475 3500 
L 3475 0 
L 2900 0 
L 2900 538 
Q 2691 219 2414 64 
Q 2138 -91 1772 -91 
Q 1169 -91 856 284 
Q 544 659 544 1381 
z
M 1991 3584 
L 1991 3584 
z
" transform="scale(0.015625)"/>
      <path id="DejaVuSans-62" d="M 3116 1747 
Q 3116 2381 2855 2742 
Q 2594 3103 2138 3103 
Q 1681 3103 1420 2742 
Q 1159 2381 1159 1747 
Q 1159 1113 1420 752 
Q 1681 391 2138 391 
Q 2594 391 2855 752 
Q 3116 1113 3116 1747 
z
M 1159 2969 
Q 1341 3281 1617 3432 
Q 1894 3584 2278 3584 
Q 2916 3584 3314 3078 
Q 3713 2572 3713 1747 
Q 3713 922 3314 415 
Q 2916 -91 2278 -91 
Q 1894 -91 1617 61 
Q 1341 213 1159 525 
L 1159 0 
L 581 0 
L 581 4863 
L 1159 4863 
L 1159 2969 
z
" transform="scale(0.015625)"/>
      <path id="DejaVuSans-63" d="M 3122 3366 
L 3122 2828 
Q 2878 2963 2633 3030 
Q 2388 3097 2138 3097 
Q 1578 3097 1268 2742 
Q 959 2388 959 1747 
Q 959 1106 1268 751 
Q 1578 397 2138 397 
Q 2388 397 2633 464 
Q 2878 531 3122 666 
L 3122 134 
Q 2881 22 2623 -34 
Q 2366 -91 2075 -91 
Q 1284 -91 818 406 
Q 353 903 353 1747 
Q 353 2603 823 3093 
Q 1294 3584 2113 3584 
Q 2378 3584 2631 3529 
Q 2884 3475 3122 3366 
z
" transform="scale(0.015625)"/>
      <path id="DejaVuSans-72" d="M 2631 2963 
Q 2534 3019 2420 3045 
Q 2306 3072 2169 3072 
Q 1681 3072 1420 2755 
Q 1159 2438 1159 1844 
L 1159 0 
L 581 0 
L 581 3500 
L 1159 3500 
L 1159 2956 
Q 1341 3275 1631 3429 
Q 1922 3584 2338 3584 
Q 2397 3584 2469 3576 
Q 2541 3569 2628 3553 
L 2631 2963 
z
" transform="scale(0.015625)"/>
      <path id="DejaVuSans-69" d="M 603 3500 
L 1178 3500 
L 1178 0 
L 603 0 
L 603 3500 
z
M 603 4863 
L 1178 4863 
L 1178 4134 
L 603 4134 
L 603 4863 
z
" transform="scale(0.015625)"/>
      <path id="DejaVuSans-20" transform="scale(0.015625)"/>
      <path id="DejaVuSans-68" d="M 3513 2113 
L 3513 0 
L 2938 0 
L 2938 2094 
Q 2938 2591 2744 2837 
Q 2550 3084 2163 3084 
Q 1697 3084 1428 2787 
Q 1159 2491 1159 1978 
L 1159 0 
L 581 0 
L 581 4863 
L 1159 4863 
L 1159 2956 
Q 1366 3272 1645 3428 
Q 1925 3584 2291 3584 
Q 2894 3584 3203 3211 
Q 3513 2838 3513 2113 
z
" transform="scale(0.015625)"/>
      <path id="DejaVuSans-6f" d="M 1959 3097 
Q 1497 3097 1228 2736 
Q 959 2375 959 1747 
Q 959 1119 1226 758 
Q 1494 397 1959 397 
Q 2419 397 2687 759 
Q 2956 1122 2956 1747 
Q 2956 2369 2687 2733 
Q 2419 3097 1959 3097 
z
M 1959 3584 
Q 2709 3584 3137 3096 
Q 3566 2609 3566 1747 
Q 3566 888 3137 398 
Q 2709 -91 1959 -91 
Q 1206 -91 779 398 
Q 353 888 353 1747 
Q 353 2609 779 3096 
Q 1206 3584 1959 3584 
z
" transform="scale(0.015625)"/>
      <path id="DejaVuSans-79" d="M 2059 -325 
Q 1816 -950 1584 -1140 
Q 1353 -1331 966 -1331 
L 506 -1331 
L 506 -850 
L 844 -850 
Q 1081 -850 1212 -737 
Q 1344 -625 1503 -206 
L 1606 56 
L 191 3500 
L 800 3500 
L 1894 763 
L 2988 3500 
L 3597 3500 
L 2059 -325 
z
" transform="scale(0.015625)"/>
     </defs>
     <use xlink:href="#DejaVuSans-67"/>
     <use xlink:href="#DejaVuSans-65" transform="translate(63.476562 0)"/>
     <use xlink:href="#DejaVuSans-74" transform="translate(125 0)"/>
     <use xlink:href="#DejaVuSans-5f" transform="translate(164.208984 0)"/>
     <use xlink:href="#DejaVuSans-73" transform="translate(214.208984 0)"/>
     <use xlink:href="#DejaVuSans-75" transform="translate(266.308594 0)"/>
     <use xlink:href="#DejaVuSans-62" transform="translate(329.6875 0)"/>
     <use xlink:href="#DejaVuSans-73" transform="translate(393.164062 0)"/>
     <use xlink:href="#DejaVuSans-63" transform="translate(445.263672 0)"/>
     <use xlink:href="#DejaVuSans-72" transform="translate(500.244141 0)"/>
     <use xlink:href="#DejaVuSans-69" transform="translate(541.357422 0)"/>
     <use xlink:href="#DejaVuSans-62" transform="translate(569.140625 0)"/>
     <use xlink:href="#DejaVuSans-65" transform="translate(632.617188 0)"/>
     <use xlink:href="#DejaVuSans-20" transform="translate(694.140625 0)"/>
     <use xlink:href="#DejaVuSans-68" transform="translate(725.927734 0)"/>
     <use xlink:href="#DejaVuSans-69" transform="translate(789.306641 0)"/>
     <use xlink:href="#DejaVuSans-73" transform="translate(817.089844 0)"/>
     <use xlink:href="#DejaVuSans-74" transform="translate(869.189453 0)"/>
     <use xlink:href="#DejaVuSans-6f" transform="translate(908.398438 0)"/>
     <use xlink:href="#DejaVuSans-72" transform="translate(969.580078 0)"/>
     <use xlink:href="#DejaVuSans-79" transform="translate(1010.693359 0)"/>
    </g>
   </g>
   <g id="legend_1">
    <g id="line2d_39">
     <path d="M 815.08 328.498438 
L 825.08 328.498438 
L 835.08 328.498438 
" style="fill: none; stroke: #1f77b4; stroke-width: 1.5; stroke-linecap: square"/>
    </g>
    <g id="text_20">
     <!-- star -->
     <g style="fill: #a9a9a9" transform="translate(843.08 331.998438) scale(0.1 -0.1)">
      <defs>
       <path id="DejaVuSans-61" d="M 2194 1759 
Q 1497 1759 1228 1600 
Q 959 1441 959 1056 
Q 959 750 1161 570 
Q 1363 391 1709 391 
Q 2188 391 2477 730 
Q 2766 1069 2766 1631 
L 2766 1759 
L 2194 1759 
z
M 3341 1997 
L 3341 0 
L 2766 0 
L 2766 531 
Q 2569 213 2275 61 
Q 1981 -91 1556 -91 
Q 1019 -91 701 211 
Q 384 513 384 1019 
Q 384 1609 779 1909 
Q 1175 2209 1959 2209 
L 2766 2209 
L 2766 2266 
Q 2766 2663 2505 2880 
Q 2244 3097 1772 3097 
Q 1472 3097 1187 3025 
Q 903 2953 641 2809 
L 641 3341 
Q 956 3463 1253 3523 
Q 1550 3584 1831 3584 
Q 2591 3584 2966 3190 
Q 3341 2797 3341 1997 
z
" transform="scale(0.015625)"/>
      </defs>
      <use xlink:href="#DejaVuSans-73"/>
      <use xlink:href="#DejaVuSans-74" transform="translate(52.099609 0)"/>
      <use xlink:href="#DejaVuSans-61" transform="translate(91.308594 0)"/>
      <use xlink:href="#DejaVuSans-72" transform="translate(152.587891 0)"/>
     </g>
    </g>
    <g id="line2d_40">
     <path d="M 815.08 343.176562 
L 825.08 343.176562 
L 835.08 343.176562 
" style="fill: none; stroke: #ff7f0e; stroke-width: 1.5; stroke-linecap: square"/>
    </g>
    <g id="text_21">
     <!-- fork -->
     <g style="fill: #a9a9a9" transform="translate(843.08 346.676562) scale(0.1 -0.1)">
      <defs>
       <path id="DejaVuSans-66" d="M 2375 4863 
L 2375 4384 
L 1825 4384 
Q 1516 4384 1395 4259 
Q 1275 4134 1275 3809 
L 1275 3500 
L 2222 3500 
L 2222 3053 
L 1275 3053 
L 1275 0 
L 697 0 
L 697 3053 
L 147 3053 
L 147 3500 
L 697 3500 
L 697 3744 
Q 697 4328 969 4595 
Q 1241 4863 1831 4863 
L 2375 4863 
z
" transform="scale(0.015625)"/>
       <path id="DejaVuSans-6b" d="M 581 4863 
L 1159 4863 
L 1159 1991 
L 2875 3500 
L 3609 3500 
L 1753 1863 
L 3688 0 
L 2938 0 
L 1159 1709 
L 1159 0 
L 581 0 
L 581 4863 
z
" transform="scale(0.015625)"/>
      </defs>
      <use xlink:href="#DejaVuSans-66"/>
      <use xlink:href="#DejaVuSans-6f" transform="translate(35.205078 0)"/>
      <use xlink:href="#DejaVuSans-72" transform="translate(96.386719 0)"/>
      <use xlink:href="#DejaVuSans-6b" transform="translate(137.5 0)"/>
     </g>
    </g>
   </g>
  </g>
 </g>
 <defs>
  <clipPath id="pd0a0e2afc6">
   <rect x="108" y="43.2" width="669.6" height="277.2"/>
  </clipPath>
 </defs>
</svg>
