<?xml version="1.0" encoding="utf-8" standalone="no"?>
<!DOCTYPE svg PUBLIC "-//W3C//DTD SVG 1.1//EN"
  "http://www.w3.org/Graphics/SVG/1.1/DTD/svg11.dtd">
<svg xmlns:xlink="http://www.w3.org/1999/xlink" width="864pt" height="360pt" viewBox="0 0 864 360" xmlns="http://www.w3.org/2000/svg" version="1.1">
 <metadata>
  <rdf:RDF xmlns:dc="http://purl.org/dc/elements/1.1/" xmlns:cc="http://creativecommons.org/ns#" xmlns:rdf="http://www.w3.org/1999/02/22-rdf-syntax-ns#">
   <cc:Work>
    <dc:type rdf:resource="http://purl.org/dc/dcmitype/StillImage"/>
    <dc:date>2025-01-12T20:05:18.080610</dc:date>
    <dc:format>image/svg+xml</dc:format>
    <dc:creator>
     <cc:Agent>
      <dc:title>Matplotlib v3.10.0, https://matplotlib.org/</dc:title>
     </cc:Agent>
    </dc:creator>
   </cc:Work>
  </rdf:RDF>
 </metadata>
 <defs>
  <style type="text/css">*{stroke-linejoin: round; stroke-linecap: butt}</style>
 </defs>
 <g id="figure_1">
  <g id="patch_1">
   <path d="M 0 360 
L 864 360 
L 864 0 
L 0 0 
L 0 360 
z
" style="fill: none; opacity: 0"/>
  </g>
  <g id="axes_1">
   <g id="patch_2">
    <path d="M 108 320.4 
L 777.6 320.4 
L 777.6 43.2 
L 108 43.2 
L 108 320.4 
z
" style="fill: none; opacity: 0"/>
   </g>
   <g id="matplotlib.axis_1">
    <g id="xtick_1">
     <g id="line2d_1">
      <path d="M 127.394781 320.4 
L 127.394781 43.2 
" clip-path="url(#p3f25481c12)" style="fill: none; stroke-dasharray: 5.12,1.28,0.8,1.28; stroke-dashoffset: 0; stroke: #b0b0b0; stroke-width: 0.8"/>
     </g>
     <g id="line2d_2">
      <defs>
       <path id="m1d9af5d29c" d="M 0 0 
L 0 3.5 
" style="stroke: #a9a9a9; stroke-width: 0.8"/>
      </defs>
      <g>
       <use xlink:href="#m1d9af5d29c" x="127.394781" y="320.4" style="fill: #a9a9a9; stroke: #a9a9a9; stroke-width: 0.8"/>
      </g>
     </g>
     <g id="text_1">
      <!-- 2021-07 -->
      <g style="fill: #a9a9a9" transform="translate(106.503374 334.998438) scale(0.1 -0.1)">
       <defs>
        <path id="DejaVuSans-32" d="M 1228 531 
L 3431 531 
L 3431 0 
L 469 0 
L 469 531 
Q 828 903 1448 1529 
Q 2069 2156 2228 2338 
Q 2531 2678 2651 2914 
Q 2772 3150 2772 3378 
Q 2772 3750 2511 3984 
Q 2250 4219 1831 4219 
Q 1534 4219 1204 4116 
Q 875 4013 500 3803 
L 500 4441 
Q 881 4594 1212 4672 
Q 1544 4750 1819 4750 
Q 2544 4750 2975 4387 
Q 3406 4025 3406 3419 
Q 3406 3131 3298 2873 
Q 3191 2616 2906 2266 
Q 2828 2175 2409 1742 
Q 1991 1309 1228 531 
z
" transform="scale(0.015625)"/>
        <path id="DejaVuSans-30" d="M 2034 4250 
Q 1547 4250 1301 3770 
Q 1056 3291 1056 2328 
Q 1056 1369 1301 889 
Q 1547 409 2034 409 
Q 2525 409 2770 889 
Q 3016 1369 3016 2328 
Q 3016 3291 2770 3770 
Q 2525 4250 2034 4250 
z
M 2034 4750 
Q 2819 4750 3233 4129 
Q 3647 3509 3647 2328 
Q 3647 1150 3233 529 
Q 2819 -91 2034 -91 
Q 1250 -91 836 529 
Q 422 1150 422 2328 
Q 422 3509 836 4129 
Q 1250 4750 2034 4750 
z
" transform="scale(0.015625)"/>
        <path id="DejaVuSans-31" d="M 794 531 
L 1825 531 
L 1825 4091 
L 703 3866 
L 703 4441 
L 1819 4666 
L 2450 4666 
L 2450 531 
L 3481 531 
L 3481 0 
L 794 0 
L 794 531 
z
" transform="scale(0.015625)"/>
        <path id="DejaVuSans-2d" d="M 313 2009 
L 1997 2009 
L 1997 1497 
L 313 1497 
L 313 2009 
z
" transform="scale(0.015625)"/>
        <path id="DejaVuSans-37" d="M 525 4666 
L 3525 4666 
L 3525 4397 
L 1831 0 
L 1172 0 
L 2766 4134 
L 525 4134 
L 525 4666 
z
" transform="scale(0.015625)"/>
       </defs>
       <use xlink:href="#DejaVuSans-32"/>
       <use xlink:href="#DejaVuSans-30" transform="translate(63.623047 0)"/>
       <use xlink:href="#DejaVuSans-32" transform="translate(127.246094 0)"/>
       <use xlink:href="#DejaVuSans-31" transform="translate(190.869141 0)"/>
       <use xlink:href="#DejaVuSans-2d" transform="translate(254.492188 0)"/>
       <use xlink:href="#DejaVuSans-30" transform="translate(290.576172 0)"/>
       <use xlink:href="#DejaVuSans-37" transform="translate(354.199219 0)"/>
      </g>
     </g>
    </g>
    <g id="xtick_2">
     <g id="line2d_3">
      <path d="M 215.727445 320.4 
L 215.727445 43.2 
" clip-path="url(#p3f25481c12)" style="fill: none; stroke-dasharray: 5.12,1.28,0.8,1.28; stroke-dashoffset: 0; stroke: #b0b0b0; stroke-width: 0.8"/>
     </g>
     <g id="line2d_4">
      <g>
       <use xlink:href="#m1d9af5d29c" x="215.727445" y="320.4" style="fill: #a9a9a9; stroke: #a9a9a9; stroke-width: 0.8"/>
      </g>
     </g>
     <g id="text_2">
      <!-- 2022-01 -->
      <g style="fill: #a9a9a9" transform="translate(194.836039 334.998438) scale(0.1 -0.1)">
       <use xlink:href="#DejaVuSans-32"/>
       <use xlink:href="#DejaVuSans-30" transform="translate(63.623047 0)"/>
       <use xlink:href="#DejaVuSans-32" transform="translate(127.246094 0)"/>
       <use xlink:href="#DejaVuSans-32" transform="translate(190.869141 0)"/>
       <use xlink:href="#DejaVuSans-2d" transform="translate(254.492188 0)"/>
       <use xlink:href="#DejaVuSans-30" transform="translate(290.576172 0)"/>
       <use xlink:href="#DejaVuSans-31" transform="translate(354.199219 0)"/>
      </g>
     </g>
    </g>
    <g id="xtick_3">
     <g id="line2d_5">
      <path d="M 302.619902 320.4 
L 302.619902 43.2 
" clip-path="url(#p3f25481c12)" style="fill: none; stroke-dasharray: 5.12,1.28,0.8,1.28; stroke-dashoffset: 0; stroke: #b0b0b0; stroke-width: 0.8"/>
     </g>
     <g id="line2d_6">
      <g>
       <use xlink:href="#m1d9af5d29c" x="302.619902" y="320.4" style="fill: #a9a9a9; stroke: #a9a9a9; stroke-width: 0.8"/>
      </g>
     </g>
     <g id="text_3">
      <!-- 2022-07 -->
      <g style="fill: #a9a9a9" transform="translate(281.728496 334.998438) scale(0.1 -0.1)">
       <use xlink:href="#DejaVuSans-32"/>
       <use xlink:href="#DejaVuSans-30" transform="translate(63.623047 0)"/>
       <use xlink:href="#DejaVuSans-32" transform="translate(127.246094 0)"/>
       <use xlink:href="#DejaVuSans-32" transform="translate(190.869141 0)"/>
       <use xlink:href="#DejaVuSans-2d" transform="translate(254.492188 0)"/>
       <use xlink:href="#DejaVuSans-30" transform="translate(290.576172 0)"/>
       <use xlink:href="#DejaVuSans-37" transform="translate(354.199219 0)"/>
      </g>
     </g>
    </g>
    <g id="xtick_4">
     <g id="line2d_7">
      <path d="M 390.952567 320.4 
L 390.952567 43.2 
" clip-path="url(#p3f25481c12)" style="fill: none; stroke-dasharray: 5.12,1.28,0.8,1.28; stroke-dashoffset: 0; stroke: #b0b0b0; stroke-width: 0.8"/>
     </g>
     <g id="line2d_8">
      <g>
       <use xlink:href="#m1d9af5d29c" x="390.952567" y="320.4" style="fill: #a9a9a9; stroke: #a9a9a9; stroke-width: 0.8"/>
      </g>
     </g>
     <g id="text_4">
      <!-- 2023-01 -->
      <g style="fill: #a9a9a9" transform="translate(370.06116 334.998438) scale(0.1 -0.1)">
       <defs>
        <path id="DejaVuSans-33" d="M 2597 2516 
Q 3050 2419 3304 2112 
Q 3559 1806 3559 1356 
Q 3559 666 3084 287 
Q 2609 -91 1734 -91 
Q 1441 -91 1130 -33 
Q 819 25 488 141 
L 488 750 
Q 750 597 1062 519 
Q 1375 441 1716 441 
Q 2309 441 2620 675 
Q 2931 909 2931 1356 
Q 2931 1769 2642 2001 
Q 2353 2234 1838 2234 
L 1294 2234 
L 1294 2753 
L 1863 2753 
Q 2328 2753 2575 2939 
Q 2822 3125 2822 3475 
Q 2822 3834 2567 4026 
Q 2313 4219 1838 4219 
Q 1578 4219 1281 4162 
Q 984 4106 628 3988 
L 628 4550 
Q 988 4650 1302 4700 
Q 1616 4750 1894 4750 
Q 2613 4750 3031 4423 
Q 3450 4097 3450 3541 
Q 3450 3153 3228 2886 
Q 3006 2619 2597 2516 
z
" transform="scale(0.015625)"/>
       </defs>
       <use xlink:href="#DejaVuSans-32"/>
       <use xlink:href="#DejaVuSans-30" transform="translate(63.623047 0)"/>
       <use xlink:href="#DejaVuSans-32" transform="translate(127.246094 0)"/>
       <use xlink:href="#DejaVuSans-33" transform="translate(190.869141 0)"/>
       <use xlink:href="#DejaVuSans-2d" transform="translate(254.492188 0)"/>
       <use xlink:href="#DejaVuSans-30" transform="translate(290.576172 0)"/>
       <use xlink:href="#DejaVuSans-31" transform="translate(354.199219 0)"/>
      </g>
     </g>
    </g>
    <g id="xtick_5">
     <g id="line2d_9">
      <path d="M 477.845024 320.4 
L 477.845024 43.2 
" clip-path="url(#p3f25481c12)" style="fill: none; stroke-dasharray: 5.12,1.28,0.8,1.28; stroke-dashoffset: 0; stroke: #b0b0b0; stroke-width: 0.8"/>
     </g>
     <g id="line2d_10">
      <g>
       <use xlink:href="#m1d9af5d29c" x="477.845024" y="320.4" style="fill: #a9a9a9; stroke: #a9a9a9; stroke-width: 0.8"/>
      </g>
     </g>
     <g id="text_5">
      <!-- 2023-07 -->
      <g style="fill: #a9a9a9" transform="translate(456.953618 334.998438) scale(0.1 -0.1)">
       <use xlink:href="#DejaVuSans-32"/>
       <use xlink:href="#DejaVuSans-30" transform="translate(63.623047 0)"/>
       <use xlink:href="#DejaVuSans-32" transform="translate(127.246094 0)"/>
       <use xlink:href="#DejaVuSans-33" transform="translate(190.869141 0)"/>
       <use xlink:href="#DejaVuSans-2d" transform="translate(254.492188 0)"/>
       <use xlink:href="#DejaVuSans-30" transform="translate(290.576172 0)"/>
       <use xlink:href="#DejaVuSans-37" transform="translate(354.199219 0)"/>
      </g>
     </g>
    </g>
    <g id="xtick_6">
     <g id="line2d_11">
      <path d="M 566.177689 320.4 
L 566.177689 43.2 
" clip-path="url(#p3f25481c12)" style="fill: none; stroke-dasharray: 5.12,1.28,0.8,1.28; stroke-dashoffset: 0; stroke: #b0b0b0; stroke-width: 0.8"/>
     </g>
     <g id="line2d_12">
      <g>
       <use xlink:href="#m1d9af5d29c" x="566.177689" y="320.4" style="fill: #a9a9a9; stroke: #a9a9a9; stroke-width: 0.8"/>
      </g>
     </g>
     <g id="text_6">
      <!-- 2024-01 -->
      <g style="fill: #a9a9a9" transform="translate(545.286282 334.998438) scale(0.1 -0.1)">
       <defs>
        <path id="DejaVuSans-34" d="M 2419 4116 
L 825 1625 
L 2419 1625 
L 2419 4116 
z
M 2253 4666 
L 3047 4666 
L 3047 1625 
L 3713 1625 
L 3713 1100 
L 3047 1100 
L 3047 0 
L 2419 0 
L 2419 1100 
L 313 1100 
L 313 1709 
L 2253 4666 
z
" transform="scale(0.015625)"/>
       </defs>
       <use xlink:href="#DejaVuSans-32"/>
       <use xlink:href="#DejaVuSans-30" transform="translate(63.623047 0)"/>
       <use xlink:href="#DejaVuSans-32" transform="translate(127.246094 0)"/>
       <use xlink:href="#DejaVuSans-34" transform="translate(190.869141 0)"/>
       <use xlink:href="#DejaVuSans-2d" transform="translate(254.492188 0)"/>
       <use xlink:href="#DejaVuSans-30" transform="translate(290.576172 0)"/>
       <use xlink:href="#DejaVuSans-31" transform="translate(354.199219 0)"/>
      </g>
     </g>
    </g>
    <g id="xtick_7">
     <g id="line2d_13">
      <path d="M 653.550215 320.4 
L 653.550215 43.2 
" clip-path="url(#p3f25481c12)" style="fill: none; stroke-dasharray: 5.12,1.28,0.8,1.28; stroke-dashoffset: 0; stroke: #b0b0b0; stroke-width: 0.8"/>
     </g>
     <g id="line2d_14">
      <g>
       <use xlink:href="#m1d9af5d29c" x="653.550215" y="320.4" style="fill: #a9a9a9; stroke: #a9a9a9; stroke-width: 0.8"/>
      </g>
     </g>
     <g id="text_7">
      <!-- 2024-07 -->
      <g style="fill: #a9a9a9" transform="translate(632.658809 334.998438) scale(0.1 -0.1)">
       <use xlink:href="#DejaVuSans-32"/>
       <use xlink:href="#DejaVuSans-30" transform="translate(63.623047 0)"/>
       <use xlink:href="#DejaVuSans-32" transform="translate(127.246094 0)"/>
       <use xlink:href="#DejaVuSans-34" transform="translate(190.869141 0)"/>
       <use xlink:href="#DejaVuSans-2d" transform="translate(254.492188 0)"/>
       <use xlink:href="#DejaVuSans-30" transform="translate(290.576172 0)"/>
       <use xlink:href="#DejaVuSans-37" transform="translate(354.199219 0)"/>
      </g>
     </g>
    </g>
    <g id="xtick_8">
     <g id="line2d_15">
      <path d="M 741.882879 320.4 
L 741.882879 43.2 
" clip-path="url(#p3f25481c12)" style="fill: none; stroke-dasharray: 5.12,1.28,0.8,1.28; stroke-dashoffset: 0; stroke: #b0b0b0; stroke-width: 0.8"/>
     </g>
     <g id="line2d_16">
      <g>
       <use xlink:href="#m1d9af5d29c" x="741.882879" y="320.4" style="fill: #a9a9a9; stroke: #a9a9a9; stroke-width: 0.8"/>
      </g>
     </g>
     <g id="text_8">
      <!-- 2025-01 -->
      <g style="fill: #a9a9a9" transform="translate(720.991473 334.998438) scale(0.1 -0.1)">
       <defs>
        <path id="DejaVuSans-35" d="M 691 4666 
L 3169 4666 
L 3169 4134 
L 1269 4134 
L 1269 2991 
Q 1406 3038 1543 3061 
Q 1681 3084 1819 3084 
Q 2600 3084 3056 2656 
Q 3513 2228 3513 1497 
Q 3513 744 3044 326 
Q 2575 -91 1722 -91 
Q 1428 -91 1123 -41 
Q 819 9 494 109 
L 494 744 
Q 775 591 1075 516 
Q 1375 441 1709 441 
Q 2250 441 2565 725 
Q 2881 1009 2881 1497 
Q 2881 1984 2565 2268 
Q 2250 2553 1709 2553 
Q 1456 2553 1204 2497 
Q 953 2441 691 2322 
L 691 4666 
z
" transform="scale(0.015625)"/>
       </defs>
       <use xlink:href="#DejaVuSans-32"/>
       <use xlink:href="#DejaVuSans-30" transform="translate(63.623047 0)"/>
       <use xlink:href="#DejaVuSans-32" transform="translate(127.246094 0)"/>
       <use xlink:href="#DejaVuSans-35" transform="translate(190.869141 0)"/>
       <use xlink:href="#DejaVuSans-2d" transform="translate(254.492188 0)"/>
       <use xlink:href="#DejaVuSans-30" transform="translate(290.576172 0)"/>
       <use xlink:href="#DejaVuSans-31" transform="translate(354.199219 0)"/>
      </g>
     </g>
    </g>
   </g>
   <g id="matplotlib.axis_2">
    <g id="ytick_1">
     <g id="line2d_17">
      <path d="M 108 307.835019 
L 777.6 307.835019 
" clip-path="url(#p3f25481c12)" style="fill: none; stroke-dasharray: 5.12,1.28,0.8,1.28; stroke-dashoffset: 0; stroke: #b0b0b0; stroke-width: 0.8"/>
     </g>
     <g id="line2d_18">
      <defs>
       <path id="m9aea09ca7e" d="M 0 0 
L -3.5 0 
" style="stroke: #a9a9a9; stroke-width: 0.8"/>
      </defs>
      <g>
       <use xlink:href="#m9aea09ca7e" x="108" y="307.835019" style="fill: #a9a9a9; stroke: #a9a9a9; stroke-width: 0.8"/>
      </g>
     </g>
     <g id="text_9">
      <!-- 0 -->
      <g style="fill: #a9a9a9" transform="translate(94.6375 311.634238) scale(0.1 -0.1)">
       <use xlink:href="#DejaVuSans-30"/>
      </g>
     </g>
    </g>
    <g id="ytick_2">
     <g id="line2d_19">
      <path d="M 108 279.819455 
L 777.6 279.819455 
" clip-path="url(#p3f25481c12)" style="fill: none; stroke-dasharray: 5.12,1.28,0.8,1.28; stroke-dashoffset: 0; stroke: #b0b0b0; stroke-width: 0.8"/>
     </g>
     <g id="line2d_20">
      <g>
       <use xlink:href="#m9aea09ca7e" x="108" y="279.819455" style="fill: #a9a9a9; stroke: #a9a9a9; stroke-width: 0.8"/>
      </g>
     </g>
     <g id="text_10">
      <!-- 800 -->
      <g style="fill: #a9a9a9" transform="translate(81.9125 283.618674) scale(0.1 -0.1)">
       <defs>
        <path id="DejaVuSans-38" d="M 2034 2216 
Q 1584 2216 1326 1975 
Q 1069 1734 1069 1313 
Q 1069 891 1326 650 
Q 1584 409 2034 409 
Q 2484 409 2743 651 
Q 3003 894 3003 1313 
Q 3003 1734 2745 1975 
Q 2488 2216 2034 2216 
z
M 1403 2484 
Q 997 2584 770 2862 
Q 544 3141 544 3541 
Q 544 4100 942 4425 
Q 1341 4750 2034 4750 
Q 2731 4750 3128 4425 
Q 3525 4100 3525 3541 
Q 3525 3141 3298 2862 
Q 3072 2584 2669 2484 
Q 3125 2378 3379 2068 
Q 3634 1759 3634 1313 
Q 3634 634 3220 271 
Q 2806 -91 2034 -91 
Q 1263 -91 848 271 
Q 434 634 434 1313 
Q 434 1759 690 2068 
Q 947 2378 1403 2484 
z
M 1172 3481 
Q 1172 3119 1398 2916 
Q 1625 2713 2034 2713 
Q 2441 2713 2670 2916 
Q 2900 3119 2900 3481 
Q 2900 3844 2670 4047 
Q 2441 4250 2034 4250 
Q 1625 4250 1398 4047 
Q 1172 3844 1172 3481 
z
" transform="scale(0.015625)"/>
       </defs>
       <use xlink:href="#DejaVuSans-38"/>
       <use xlink:href="#DejaVuSans-30" transform="translate(63.623047 0)"/>
       <use xlink:href="#DejaVuSans-30" transform="translate(127.246094 0)"/>
      </g>
     </g>
    </g>
    <g id="ytick_3">
     <g id="line2d_21">
      <path d="M 108 251.803891 
L 777.6 251.803891 
" clip-path="url(#p3f25481c12)" style="fill: none; stroke-dasharray: 5.12,1.28,0.8,1.28; stroke-dashoffset: 0; stroke: #b0b0b0; stroke-width: 0.8"/>
     </g>
     <g id="line2d_22">
      <g>
       <use xlink:href="#m9aea09ca7e" x="108" y="251.803891" style="fill: #a9a9a9; stroke: #a9a9a9; stroke-width: 0.8"/>
      </g>
     </g>
     <g id="text_11">
      <!-- 1600 -->
      <g style="fill: #a9a9a9" transform="translate(75.55 255.60311) scale(0.1 -0.1)">
       <defs>
        <path id="DejaVuSans-36" d="M 2113 2584 
Q 1688 2584 1439 2293 
Q 1191 2003 1191 1497 
Q 1191 994 1439 701 
Q 1688 409 2113 409 
Q 2538 409 2786 701 
Q 3034 994 3034 1497 
Q 3034 2003 2786 2293 
Q 2538 2584 2113 2584 
z
M 3366 4563 
L 3366 3988 
Q 3128 4100 2886 4159 
Q 2644 4219 2406 4219 
Q 1781 4219 1451 3797 
Q 1122 3375 1075 2522 
Q 1259 2794 1537 2939 
Q 1816 3084 2150 3084 
Q 2853 3084 3261 2657 
Q 3669 2231 3669 1497 
Q 3669 778 3244 343 
Q 2819 -91 2113 -91 
Q 1303 -91 875 529 
Q 447 1150 447 2328 
Q 447 3434 972 4092 
Q 1497 4750 2381 4750 
Q 2619 4750 2861 4703 
Q 3103 4656 3366 4563 
z
" transform="scale(0.015625)"/>
       </defs>
       <use xlink:href="#DejaVuSans-31"/>
       <use xlink:href="#DejaVuSans-36" transform="translate(63.623047 0)"/>
       <use xlink:href="#DejaVuSans-30" transform="translate(127.246094 0)"/>
       <use xlink:href="#DejaVuSans-30" transform="translate(190.869141 0)"/>
      </g>
     </g>
    </g>
    <g id="ytick_4">
     <g id="line2d_23">
      <path d="M 108 223.788327 
L 777.6 223.788327 
" clip-path="url(#p3f25481c12)" style="fill: none; stroke-dasharray: 5.12,1.28,0.8,1.28; stroke-dashoffset: 0; stroke: #b0b0b0; stroke-width: 0.8"/>
     </g>
     <g id="line2d_24">
      <g>
       <use xlink:href="#m9aea09ca7e" x="108" y="223.788327" style="fill: #a9a9a9; stroke: #a9a9a9; stroke-width: 0.8"/>
      </g>
     </g>
     <g id="text_12">
      <!-- 2400 -->
      <g style="fill: #a9a9a9" transform="translate(75.55 227.587546) scale(0.1 -0.1)">
       <use xlink:href="#DejaVuSans-32"/>
       <use xlink:href="#DejaVuSans-34" transform="translate(63.623047 0)"/>
       <use xlink:href="#DejaVuSans-30" transform="translate(127.246094 0)"/>
       <use xlink:href="#DejaVuSans-30" transform="translate(190.869141 0)"/>
      </g>
     </g>
    </g>
    <g id="ytick_5">
     <g id="line2d_25">
      <path d="M 108 195.772763 
L 777.6 195.772763 
" clip-path="url(#p3f25481c12)" style="fill: none; stroke-dasharray: 5.12,1.28,0.8,1.28; stroke-dashoffset: 0; stroke: #b0b0b0; stroke-width: 0.8"/>
     </g>
     <g id="line2d_26">
      <g>
       <use xlink:href="#m9aea09ca7e" x="108" y="195.772763" style="fill: #a9a9a9; stroke: #a9a9a9; stroke-width: 0.8"/>
      </g>
     </g>
     <g id="text_13">
      <!-- 3200 -->
      <g style="fill: #a9a9a9" transform="translate(75.55 199.571981) scale(0.1 -0.1)">
       <use xlink:href="#DejaVuSans-33"/>
       <use xlink:href="#DejaVuSans-32" transform="translate(63.623047 0)"/>
       <use xlink:href="#DejaVuSans-30" transform="translate(127.246094 0)"/>
       <use xlink:href="#DejaVuSans-30" transform="translate(190.869141 0)"/>
      </g>
     </g>
    </g>
    <g id="ytick_6">
     <g id="line2d_27">
      <path d="M 108 167.757198 
L 777.6 167.757198 
" clip-path="url(#p3f25481c12)" style="fill: none; stroke-dasharray: 5.12,1.28,0.8,1.28; stroke-dashoffset: 0; stroke: #b0b0b0; stroke-width: 0.8"/>
     </g>
     <g id="line2d_28">
      <g>
       <use xlink:href="#m9aea09ca7e" x="108" y="167.757198" style="fill: #a9a9a9; stroke: #a9a9a9; stroke-width: 0.8"/>
      </g>
     </g>
     <g id="text_14">
      <!-- 4000 -->
      <g style="fill: #a9a9a9" transform="translate(75.55 171.556417) scale(0.1 -0.1)">
       <use xlink:href="#DejaVuSans-34"/>
       <use xlink:href="#DejaVuSans-30" transform="translate(63.623047 0)"/>
       <use xlink:href="#DejaVuSans-30" transform="translate(127.246094 0)"/>
       <use xlink:href="#DejaVuSans-30" transform="translate(190.869141 0)"/>
      </g>
     </g>
    </g>
    <g id="ytick_7">
     <g id="line2d_29">
      <path d="M 108 139.741634 
L 777.6 139.741634 
" clip-path="url(#p3f25481c12)" style="fill: none; stroke-dasharray: 5.12,1.28,0.8,1.28; stroke-dashoffset: 0; stroke: #b0b0b0; stroke-width: 0.8"/>
     </g>
     <g id="line2d_30">
      <g>
       <use xlink:href="#m9aea09ca7e" x="108" y="139.741634" style="fill: #a9a9a9; stroke: #a9a9a9; stroke-width: 0.8"/>
      </g>
     </g>
     <g id="text_15">
      <!-- 4800 -->
      <g style="fill: #a9a9a9" transform="translate(75.55 143.540853) scale(0.1 -0.1)">
       <use xlink:href="#DejaVuSans-34"/>
       <use xlink:href="#DejaVuSans-38" transform="translate(63.623047 0)"/>
       <use xlink:href="#DejaVuSans-30" transform="translate(127.246094 0)"/>
       <use xlink:href="#DejaVuSans-30" transform="translate(190.869141 0)"/>
      </g>
     </g>
    </g>
    <g id="ytick_8">
     <g id="line2d_31">
      <path d="M 108 111.72607 
L 777.6 111.72607 
" clip-path="url(#p3f25481c12)" style="fill: none; stroke-dasharray: 5.12,1.28,0.8,1.28; stroke-dashoffset: 0; stroke: #b0b0b0; stroke-width: 0.8"/>
     </g>
     <g id="line2d_32">
      <g>
       <use xlink:href="#m9aea09ca7e" x="108" y="111.72607" style="fill: #a9a9a9; stroke: #a9a9a9; stroke-width: 0.8"/>
      </g>
     </g>
     <g id="text_16">
      <!-- 5600 -->
      <g style="fill: #a9a9a9" transform="translate(75.55 115.525289) scale(0.1 -0.1)">
       <use xlink:href="#DejaVuSans-35"/>
       <use xlink:href="#DejaVuSans-36" transform="translate(63.623047 0)"/>
       <use xlink:href="#DejaVuSans-30" transform="translate(127.246094 0)"/>
       <use xlink:href="#DejaVuSans-30" transform="translate(190.869141 0)"/>
      </g>
     </g>
    </g>
    <g id="ytick_9">
     <g id="line2d_33">
      <path d="M 108 83.710506 
L 777.6 83.710506 
" clip-path="url(#p3f25481c12)" style="fill: none; stroke-dasharray: 5.12,1.28,0.8,1.28; stroke-dashoffset: 0; stroke: #b0b0b0; stroke-width: 0.8"/>
     </g>
     <g id="line2d_34">
      <g>
       <use xlink:href="#m9aea09ca7e" x="108" y="83.710506" style="fill: #a9a9a9; stroke: #a9a9a9; stroke-width: 0.8"/>
      </g>
     </g>
     <g id="text_17">
      <!-- 6400 -->
      <g style="fill: #a9a9a9" transform="translate(75.55 87.509725) scale(0.1 -0.1)">
       <use xlink:href="#DejaVuSans-36"/>
       <use xlink:href="#DejaVuSans-34" transform="translate(63.623047 0)"/>
       <use xlink:href="#DejaVuSans-30" transform="translate(127.246094 0)"/>
       <use xlink:href="#DejaVuSans-30" transform="translate(190.869141 0)"/>
      </g>
     </g>
    </g>
    <g id="ytick_10">
     <g id="line2d_35">
      <path d="M 108 55.694942 
L 777.6 55.694942 
" clip-path="url(#p3f25481c12)" style="fill: none; stroke-dasharray: 5.12,1.28,0.8,1.28; stroke-dashoffset: 0; stroke: #b0b0b0; stroke-width: 0.8"/>
     </g>
     <g id="line2d_36">
      <g>
       <use xlink:href="#m9aea09ca7e" x="108" y="55.694942" style="fill: #a9a9a9; stroke: #a9a9a9; stroke-width: 0.8"/>
      </g>
     </g>
     <g id="text_18">
      <!-- 7200 -->
      <g style="fill: #a9a9a9" transform="translate(75.55 59.49416) scale(0.1 -0.1)">
       <use xlink:href="#DejaVuSans-37"/>
       <use xlink:href="#DejaVuSans-32" transform="translate(63.623047 0)"/>
       <use xlink:href="#DejaVuSans-30" transform="translate(127.246094 0)"/>
       <use xlink:href="#DejaVuSans-30" transform="translate(190.869141 0)"/>
      </g>
     </g>
    </g>
   </g>
   <g id="line2d_37">
    <path d="M 138.436364 307.729961 
L 141.316777 307.484825 
L 141.796845 307.274708 
L 143.717121 307.029572 
L 145.637396 306.644358 
L 146.597534 306.50428 
L 148.997878 306.294163 
L 149.958015 305.908949 
L 150.438084 305.278599 
L 150.918153 304.963424 
L 151.398222 303.877821 
L 151.878291 303.807782 
L 152.35836 303.422568 
L 153.318497 302.932296 
L 155.238773 301.39144 
L 157.159048 300.445914 
L 158.599254 299.780545 
L 159.079323 299.010117 
L 160.039461 298.309728 
L 160.51953 298.099611 
L 165.320218 297.399222 
L 165.800287 297.189105 
L 169.160769 296.908949 
L 171.081044 296.453696 
L 174.921594 295.928405 
L 175.401663 295.683268 
L 175.881732 295.61323 
L 176.84187 295.298054 
L 180.202352 294.737743 
L 181.162489 294.457588 
L 185.483109 293.722179 
L 186.443246 293.512062 
L 187.403384 293.477043 
L 189.323659 293.02179 
L 189.803728 292.35642 
L 191.243935 291.796109 
L 192.684141 291.410895 
L 193.16421 291.165759 
L 194.124348 290.990661 
L 196.044623 290.43035 
L 197.004761 290.360311 
L 197.964898 290.115175 
L 199.885174 289.624903 
L 200.365242 289.589883 
L 201.32538 289.13463 
L 201.805449 289.064591 
L 202.285518 288.819455 
L 207.566275 287.943969 
L 209.48655 287.383658 
L 209.966619 287.068482 
L 212.366963 286.263035 
L 213.327101 285.597665 
L 214.767307 285.31751 
L 227.249097 281.780545 
L 227.729165 281.780545 
L 228.209234 281.570428 
L 229.169372 281.46537 
L 229.649441 281.290272 
L 231.569716 281.220233 
L 232.529854 281.045136 
L 233.489991 280.554864 
L 234.930198 280.029572 
L 235.410267 279.714397 
L 236.370404 279.294163 
L 236.850473 279.049027 
L 237.810611 278.733852 
L 238.29068 278.593774 
L 239.250817 277.998444 
L 239.730886 277.473152 
L 240.691024 276.002335 
L 241.171093 275.862257 
L 241.651161 275.862257 
L 243.091368 275.02179 
L 243.571437 274.776654 
L 244.051506 274.671595 
L 244.531574 274.216342 
L 245.491712 273.831128 
L 246.45185 273.375875 
L 248.852194 270.329183 
L 251.732607 268.788327 
L 252.692744 268.017899 
L 253.172813 267.702724 
L 253.652882 267.002335 
L 254.132951 265.916732 
L 254.61302 265.181323 
L 255.093089 264.796109 
L 255.573157 264.585992 
L 259.413708 261.084047 
L 260.373846 260.20856 
L 263.254259 258.422568 
L 263.734328 258.247471 
L 265.174534 257.407004 
L 266.61474 256.461479 
L 268.535016 254.745525 
L 269.495153 254.360311 
L 270.455291 253.694942 
L 270.93536 253.414786 
L 271.415429 253.344747 
L 272.855635 252.5393 
L 273.335704 252.014008 
L 275.736048 250.718288 
L 276.216117 250.543191 
L 277.656323 249.562646 
L 284.857356 247.041245 
L 285.817494 246.165759 
L 286.777631 245.710506 
L 287.737769 245.185214 
L 288.217838 244.905058 
L 289.177975 244.624903 
L 289.658044 244.309728 
L 290.138113 244.16965 
L 291.578319 243.224125 
L 293.978664 242.663813 
L 295.41887 241.823346 
L 296.859077 241.508171 
L 297.339145 241.368093 
L 298.779352 240.28249 
L 300.699627 239.757198 
L 301.179696 239.371984 
L 304.060109 238.39144 
L 305.020247 238.216342 
L 305.980384 237.831128 
L 309.340866 236.605447 
L 310.301004 236.46537 
L 311.74121 235.975097 
L 314.141554 234.819455 
L 316.06183 233.768872 
L 319.90238 232.192996 
L 320.382449 232.122957 
L 321.342587 231.527626 
L 321.822656 231.457588 
L 323.742931 230.68716 
L 325.663206 230.442023 
L 326.623344 229.951751 
L 327.103413 229.531518 
L 327.583482 228.656031 
L 329.503757 228.130739 
L 330.943963 227.395331 
L 331.424032 227.290272 
L 334.784514 225.644358 
L 335.744652 225.399222 
L 336.704789 225.189105 
L 337.664927 224.698833 
L 338.144996 224.488716 
L 338.625065 224.418677 
L 340.54534 223.543191 
L 341.985546 222.632685 
L 343.425753 222.352529 
L 345.826097 221.757198 
L 346.306166 221.371984 
L 347.746372 220.846693 
L 349.666648 220.076265 
L 350.146716 219.72607 
L 350.626785 219.550973 
L 351.586923 219.025681 
L 353.507198 218.43035 
L 353.987267 218.185214 
L 355.427473 217.029572 
L 355.907542 216.924514 
L 356.86768 216.154086 
L 357.347749 216.084047 
L 357.827818 215.313619 
L 358.307886 215.103502 
L 358.787955 214.718288 
L 359.268024 214.648249 
L 360.228162 214.052918 
L 361.188299 213.737743 
L 361.668368 213.387549 
L 362.148437 213.212451 
L 363.588644 212.196887 
L 365.508919 211.181323 
L 365.988988 211.111284 
L 367.429194 210.375875 
L 367.909263 209.570428 
L 368.869401 208.870039 
L 369.349469 208.764981 
L 370.309607 208.16965 
L 370.789676 208.064591 
L 371.749814 207.574319 
L 373.670089 206.628794 
L 374.150158 206.278599 
L 375.110295 205.333074 
L 376.070433 204.737743 
L 376.550502 204.422568 
L 377.030571 203.897276 
L 378.950846 202.566537 
L 379.430915 202.006226 
L 379.910984 201.621012 
L 380.871121 201.270817 
L 381.831259 200.640467 
L 383.271465 199.905058 
L 383.751534 199.835019 
L 385.191741 199.064591 
L 386.151878 198.469261 
L 390.952567 196.718288 
L 391.432636 196.333074 
L 393.352911 195.597665 
L 393.83298 195.457588 
L 394.793117 194.827237 
L 395.753255 194.407004 
L 396.713393 193.741634 
L 397.67353 191.815564 
L 398.633668 190.694942 
L 400.073874 189.959533 
L 401.034012 189.574319 
L 401.514081 189.50428 
L 401.99415 189.224125 
L 404.394494 188.453696 
L 404.874563 188.24358 
L 405.8347 187.57821 
L 407.274907 186.94786 
L 408.235044 186.422568 
L 408.715113 186.072374 
L 409.195182 185.862257 
L 409.675251 185.512062 
L 410.15532 184.98677 
L 411.115457 184.461479 
L 413.515802 183.165759 
L 416.396215 181.729961 
L 417.836421 181.309728 
L 419.276627 180.749416 
L 419.756696 180.399222 
L 420.716834 180.119066 
L 421.676972 179.733852 
L 422.15704 179.348638 
L 424.077316 178.683268 
L 425.037453 177.982879 
L 425.997591 177.597665 
L 426.957729 176.862257 
L 427.917866 176.512062 
L 428.397935 176.091829 
L 428.878004 176.02179 
L 429.838142 175.286381 
L 430.798279 174.796109 
L 431.278348 174.585992 
L 431.758417 174.09572 
L 435.118899 172.764981 
L 436.079036 172.344747 
L 437.519243 171.889494 
L 438.479381 171.749416 
L 438.959449 171.5393 
L 439.439518 171.469261 
L 440.399656 171.049027 
L 440.879725 171.014008 
L 442.8 170.278599 
L 444.240206 169.263035 
L 444.720275 169.087938 
L 445.680413 168.562646 
L 446.160482 168.422568 
L 449.040895 166.811673 
L 449.520964 166.706615 
L 450.96117 165.866148 
L 452.401377 165.375875 
L 453.361514 165.0607 
L 455.28179 164.43035 
L 456.241927 164.115175 
L 458.162202 163.729961 
L 458.642271 163.519844 
L 459.12234 163.449805 
L 460.082478 163.029572 
L 460.562547 162.959533 
L 461.042615 162.714397 
L 462.002753 162.5393 
L 463.44296 162.014008 
L 464.403097 161.908949 
L 465.843304 161.593774 
L 468.243648 161.173541 
L 480.725437 157.531518 
L 481.205506 157.041245 
L 482.165644 156.656031 
L 486.006194 155.220233 
L 486.486263 154.940078 
L 487.92647 154.519844 
L 488.886607 154.274708 
L 489.366676 153.959533 
L 489.846745 153.854475 
L 490.326814 153.434241 
L 491.76702 153.154086 
L 492.727158 152.698833 
L 493.207227 152.138521 
L 495.127502 151.683268 
L 498.487984 150.982879 
L 498.968053 150.982879 
L 499.448122 150.772763 
L 501.368397 150.422568 
L 501.848466 150.212451 
L 503.768741 149.862257 
L 504.728879 149.442023 
L 505.689016 149.266926 
L 508.08936 148.671595 
L 510.009636 148.076265 
L 510.489705 147.971206 
L 510.969773 147.72607 
L 511.929911 147.480934 
L 512.40998 147.200778 
L 513.850186 146.710506 
L 514.330255 146.395331 
L 515.290393 146.115175 
L 519.130944 144.784436 
L 520.091081 144.714397 
L 522.011356 144.154086 
L 522.491425 143.87393 
L 523.451563 143.593774 
L 525.851907 142.508171 
L 526.331976 142.473152 
L 531.612733 140.617121 
L 534.013077 139.98677 
L 534.973215 139.531518 
L 536.413421 139.216342 
L 538.333697 137.640467 
L 539.293834 137.360311 
L 539.773903 136.975097 
L 542.654316 135.889494 
L 543.134385 135.574319 
L 544.094523 135.294163 
L 544.574591 134.978988 
L 546.974935 134.20856 
L 548.415142 133.368093 
L 548.895211 133.263035 
L 551.295555 131.967315 
L 552.735761 131.336965 
L 553.21583 130.98677 
L 554.175968 130.671595 
L 555.136106 130.111284 
L 555.616174 129.936187 
L 556.096243 129.585992 
L 562.337138 127.379767 
L 562.817207 127.274708 
L 563.297276 126.959533 
L 565.217551 126.574319 
L 566.177689 126.189105 
L 569.058102 124.788327 
L 569.53817 124.718288 
L 570.978377 123.91284 
L 572.418583 123.422568 
L 575.779065 122.056809 
L 576.259134 121.916732 
L 576.739203 121.601556 
L 577.69934 121.496498 
L 578.179409 121.181323 
L 579.139547 121.006226 
L 580.099685 120.550973 
L 580.579753 120.340856 
L 581.059822 120.270817 
L 583.460166 119.325292 
L 584.900373 118.940078 
L 585.86051 118.694942 
L 587.300717 118.274708 
L 588.260855 117.889494 
L 590.18113 116.838911 
L 591.141268 116.453696 
L 591.621336 116.138521 
L 592.581474 115.928405 
L 593.061543 115.648249 
L 593.541612 115.543191 
L 594.981818 114.737743 
L 595.941956 114.352529 
L 597.862231 113.617121 
L 600.262575 112.811673 
L 601.222713 112.321401 
L 603.623057 111.515953 
L 606.50347 110.360311 
L 608.423745 109.484825 
L 613.224434 107.628794 
L 613.704502 107.313619 
L 615.624778 106.648249 
L 616.104847 106.648249 
L 617.064984 106.228016 
L 618.98526 104.68716 
L 619.465328 104.547082 
L 619.945397 104.231907 
L 620.425466 104.126848 
L 620.905535 103.881712 
L 621.385604 103.811673 
L 621.865672 103.461479 
L 622.345741 103.35642 
L 623.305879 102.761089 
L 624.746085 102.025681 
L 625.706223 101.640467 
L 626.186292 101.395331 
L 627.626498 101.080156 
L 630.026843 100.274708 
L 630.98698 99.959533 
L 632.427187 99.224125 
L 633.387324 98.768872 
L 634.347462 98.523735 
L 635.787668 97.858366 
L 640.108288 96.28249 
L 641.548494 95.407004 
L 642.028563 95.301946 
L 642.988701 94.846693 
L 643.948839 94.496498 
L 644.428907 94.076265 
L 645.389045 93.691051 
L 648.269458 92.535409 
L 649.709664 92.115175 
L 650.189733 91.870039 
L 650.669802 91.8 
L 652.110009 91.274708 
L 653.550215 90.749416 
L 654.510353 90.364202 
L 654.990422 89.978988 
L 656.430628 89.593774 
L 656.910697 89.313619 
L 657.870835 89.068482 
L 659.311041 88.263035 
L 659.79111 88.228016 
L 661.231316 87.772763 
L 662.191454 87.702724 
L 663.151592 87.31751 
L 666.032005 86.477043 
L 666.992142 86.442023 
L 670.832693 85.216342 
L 671.792831 84.691051 
L 672.272899 84.270817 
L 673.713106 83.43035 
L 674.193175 83.080156 
L 675.153312 82.729961 
L 677.553656 81.959533 
L 678.033725 81.574319 
L 680.914138 80.383658 
L 682.834414 79.858366 
L 683.794551 79.438132 
L 684.27462 79.192996 
L 685.234758 78.91284 
L 685.714826 78.632685 
L 686.674964 78.457588 
L 689.075308 77.336965 
L 689.555377 77.056809 
L 690.995584 76.706615 
L 691.475652 76.39144 
L 691.955721 76.216342 
L 692.43579 75.796109 
L 692.915859 75.72607 
L 694.836134 74.955642 
L 696.75641 74.500389 
L 697.236478 74.43035 
L 697.716547 74.220233 
L 698.196616 74.185214 
L 699.156754 73.870039 
L 699.636822 73.835019 
L 701.077029 73.274708 
L 702.997304 72.714397 
L 703.957442 71.978988 
L 705.877717 70.928405 
L 707.317924 70.438132 
L 710.198337 69.142412 
L 711.158474 68.617121 
L 711.638543 68.371984 
L 712.118612 67.916732 
L 714.999025 66.971206 
L 715.959163 66.585992 
L 716.9193 66.340856 
L 717.399369 66.09572 
L 717.879438 65.675486 
L 719.799713 65.185214 
L 720.279782 64.835019 
L 726.520677 62.593774 
L 727.480814 62.418677 
L 731.801434 60.91284 
L 732.761572 60.667704 
L 733.24164 60.457588 
L 733.721709 60.422568 
L 734.681847 60.037354 
L 735.641985 59.442023 
L 736.122053 59.266926 
L 736.602122 59.231907 
L 738.042329 58.601556 
L 739.482535 58.076265 
L 739.962604 58.006226 
L 740.922742 57.621012 
L 742.362948 57.305837 
L 743.803155 56.850584 
L 744.283223 56.745525 
L 744.763292 56.395331 
L 745.72343 56.185214 
L 747.163636 55.8 
L 747.163636 55.8 
" clip-path="url(#p3f25481c12)" style="fill: none; stroke: #1f77b4; stroke-width: 1.5; stroke-linecap: square"/>
   </g>
   <g id="line2d_38">
    <path d="M 138.916432 307.8 
L 143.237052 307.694942 
L 147.077603 307.519844 
L 148.997878 307.519844 
L 149.477947 307.379767 
L 151.878291 307.274708 
L 154.758704 306.959533 
L 157.639117 306.854475 
L 158.599254 306.749416 
L 161.959736 306.609339 
L 165.320218 306.50428 
L 167.720562 306.434241 
L 173.961457 306.329183 
L 176.361801 306.259144 
L 179.722283 306.154086 
L 182.122627 306.084047 
L 187.403384 305.978988 
L 189.323659 305.803891 
L 191.243935 305.768872 
L 194.124348 305.663813 
L 196.044623 305.628794 
L 198.444967 305.558755 
L 200.365242 305.383658 
L 204.685862 305.278599 
L 205.645999 305.20856 
L 207.566275 305.103502 
L 210.446688 304.998444 
L 212.366963 304.893385 
L 221.008202 304.368093 
L 224.368684 304.263035 
L 225.80889 304.122957 
L 228.209234 304.017899 
L 233.009923 303.772763 
L 237.810611 303.702724 
L 239.730886 303.492607 
L 241.651161 303.387549 
L 246.931919 302.897276 
L 250.2924 302.512062 
L 251.732607 302.442023 
L 255.573157 301.951751 
L 258.45357 301.881712 
L 259.893777 301.741634 
L 261.333983 301.636576 
L 274.775911 300.621012 
L 275.736048 300.445914 
L 278.616461 300.340856 
L 286.297562 299.885603 
L 289.658044 299.780545 
L 291.578319 299.570428 
L 293.978664 299.46537 
L 296.859077 299.360311 
L 299.259421 299.255253 
L 301.179696 299.220233 
L 303.58004 299.150195 
L 304.540178 299.010117 
L 311.261141 298.905058 
L 312.221279 298.8 
L 317.982105 298.694942 
L 322.302724 298.484825 
L 325.663206 298.379767 
L 327.583482 298.16965 
L 330.943963 298.064591 
L 331.904101 297.889494 
L 334.304445 297.819455 
L 339.105133 297.749416 
L 341.025409 297.574319 
L 342.945684 297.5393 
L 344.38589 297.434241 
L 346.306166 297.259144 
L 351.106854 297.014008 
L 355.907542 296.908949 
L 360.228162 296.698833 
L 361.668368 296.663813 
L 362.628506 296.523735 
L 365.02885 296.418677 
L 365.988988 296.348638 
L 366.949125 296.278599 
L 367.909263 296.20856 
L 372.229882 296.138521 
L 373.670089 296.033463 
L 386.631947 295.192996 
L 389.032291 295.087938 
L 391.432636 295.017899 
L 398.153599 294.91284 
L 399.113737 294.772763 
L 405.8347 294.667704 
L 410.635389 294.422568 
L 411.595526 294.387549 
L 412.555664 294.28249 
L 414.956008 294.177432 
L 417.356352 294.107393 
L 419.756696 294.002335 
L 422.15704 293.932296 
L 426.47766 293.827237 
L 429.358073 293.722179 
L 436.079036 293.617121 
L 441.359794 293.336965 
L 443.280069 293.266926 
L 444.720275 293.161868 
L 451.441239 293.056809 
L 454.321652 292.951751 
L 462.962891 292.846693 
L 464.883166 292.811673 
L 470.643992 292.741634 
L 471.60413 292.671595 
L 478.325093 292.566537 
L 480.245369 292.531518 
L 492.727158 292.426459 
L 494.167364 292.286381 
L 515.770462 292.181323 
L 518.170806 292.111284 
L 530.652595 292.041245 
L 531.612733 291.971206 
L 534.013077 291.901167 
L 535.453284 291.761089 
L 538.333697 291.656031 
L 541.694178 291.515953 
L 546.014798 291.410895 
L 548.415142 291.340856 
L 551.775624 291.235798 
L 555.616174 291.0607 
L 558.016518 290.955642 
L 559.936794 290.920623 
L 564.257413 290.815564 
L 566.177689 290.780545 
L 572.418583 290.675486 
L 574.338859 290.640467 
L 576.739203 290.535409 
L 579.619616 290.43035 
L 582.980098 290.360311 
L 583.940235 290.290272 
L 595.461887 290.185214 
L 601.702782 289.835019 
L 604.103126 289.764981 
L 605.063264 289.659922 
L 606.023401 289.589883 
L 609.863952 289.484825 
L 612.744365 289.379767 
L 617.545053 289.274708 
L 619.945397 289.029572 
L 624.746085 288.924514 
L 625.706223 288.819455 
L 630.506911 288.714397 
L 632.907256 288.644358 
L 638.188013 288.609339 
L 639.14815 288.50428 
L 644.428907 288.399222 
L 645.389045 288.329183 
L 655.950559 288.224125 
L 658.830972 288.119066 
L 666.032005 288.014008 
L 667.95228 287.978988 
L 672.272899 287.908949 
L 673.233037 287.803891 
L 679.473932 287.698833 
L 681.874276 287.628794 
L 690.515515 287.523735 
L 691.955721 287.418677 
L 693.395928 287.313619 
L 694.836134 287.20856 
L 702.037167 287.103502 
L 704.91758 286.998444 
L 717.879438 286.893385 
L 722.200057 286.683268 
L 727.960883 286.57821 
L 728.921021 286.508171 
L 736.122053 286.438132 
L 737.082191 286.368093 
L 742.362948 286.263035 
L 744.763292 286.192996 
L 747.163636 286.192996 
L 747.163636 286.192996 
" clip-path="url(#p3f25481c12)" style="fill: none; stroke: #ff7f0e; stroke-width: 1.5; stroke-linecap: square"/>
   </g>
   <g id="patch_3">
    <path d="M 108 320.4 
L 108 43.2 
" style="fill: none; stroke: #a9a9a9; stroke-width: 0.8; stroke-linejoin: miter; stroke-linecap: square"/>
   </g>
   <g id="patch_4">
    <path d="M 777.6 320.4 
L 777.6 43.2 
" style="fill: none"/>
   </g>
   <g id="patch_5">
    <path d="M 108 320.4 
L 777.6 320.4 
" style="fill: none; stroke: #a9a9a9; stroke-width: 0.8; stroke-linejoin: miter; stroke-linecap: square"/>
   </g>
   <g id="patch_6">
    <path d="M 108 43.2 
L 777.6 43.2 
" style="fill: none"/>
   </g>
   <g id="text_19">
    <!-- get_subscribe history -->
    <g style="fill: #a9a9a9" transform="translate(378.6075 37.2) scale(0.12 -0.12)">
     <defs>
      <path id="DejaVuSans-67" d="M 2906 1791 
Q 2906 2416 2648 2759 
Q 2391 3103 1925 3103 
Q 1463 3103 1205 2759 
Q 947 2416 947 1791 
Q 947 1169 1205 825 
Q 1463 481 1925 481 
Q 2391 481 2648 825 
Q 2906 1169 2906 1791 
z
M 3481 434 
Q 3481 -459 3084 -895 
Q 2688 -1331 1869 -1331 
Q 1566 -1331 1297 -1286 
Q 1028 -1241 775 -1147 
L 775 -588 
Q 1028 -725 1275 -790 
Q 1522 -856 1778 -856 
Q 2344 -856 2625 -561 
Q 2906 -266 2906 331 
L 2906 616 
Q 2728 306 2450 153 
Q 2172 0 1784 0 
Q 1141 0 747 490 
Q 353 981 353 1791 
Q 353 2603 747 3093 
Q 1141 3584 1784 3584 
Q 2172 3584 2450 3431 
Q 2728 3278 2906 2969 
L 2906 3500 
L 3481 3500 
L 3481 434 
z
" transform="scale(0.015625)"/>
      <path id="DejaVuSans-65" d="M 3597 1894 
L 3597 1613 
L 953 1613 
Q 991 1019 1311 708 
Q 1631 397 2203 397 
Q 2534 397 2845 478 
Q 3156 559 3463 722 
L 3463 178 
Q 3153 47 2828 -22 
Q 2503 -91 2169 -91 
Q 1331 -91 842 396 
Q 353 884 353 1716 
Q 353 2575 817 3079 
Q 1281 3584 2069 3584 
Q 2775 3584 3186 3129 
Q 3597 2675 3597 1894 
z
M 3022 2063 
Q 3016 2534 2758 2815 
Q 2500 3097 2075 3097 
Q 1594 3097 1305 2825 
Q 1016 2553 972 2059 
L 3022 2063 
z
" transform="scale(0.015625)"/>
      <path id="DejaVuSans-74" d="M 1172 4494 
L 1172 3500 
L 2356 3500 
L 2356 3053 
L 1172 3053 
L 1172 1153 
Q 1172 725 1289 603 
Q 1406 481 1766 481 
L 2356 481 
L 2356 0 
L 1766 0 
Q 1100 0 847 248 
Q 594 497 594 1153 
L 594 3053 
L 172 3053 
L 172 3500 
L 594 3500 
L 594 4494 
L 1172 4494 
z
" transform="scale(0.015625)"/>
      <path id="DejaVuSans-5f" d="M 3263 -1063 
L 3263 -1509 
L -63 -1509 
L -63 -1063 
L 3263 -1063 
z
" transform="scale(0.015625)"/>
      <path id="DejaVuSans-73" d="M 2834 3397 
L 2834 2853 
Q 2591 2978 2328 3040 
Q 2066 3103 1784 3103 
Q 1356 3103 1142 2972 
Q 928 2841 928 2578 
Q 928 2378 1081 2264 
Q 1234 2150 1697 2047 
L 1894 2003 
Q 2506 1872 2764 1633 
Q 3022 1394 3022 966 
Q 3022 478 2636 193 
Q 2250 -91 1575 -91 
Q 1294 -91 989 -36 
Q 684 19 347 128 
L 347 722 
Q 666 556 975 473 
Q 1284 391 1588 391 
Q 1994 391 2212 530 
Q 2431 669 2431 922 
Q 2431 1156 2273 1281 
Q 2116 1406 1581 1522 
L 1381 1569 
Q 847 1681 609 1914 
Q 372 2147 372 2553 
Q 372 3047 722 3315 
Q 1072 3584 1716 3584 
Q 2034 3584 2315 3537 
Q 2597 3491 2834 3397 
z
" transform="scale(0.015625)"/>
      <path id="DejaVuSans-75" d="M 544 1381 
L 544 3500 
L 1119 3500 
L 1119 1403 
Q 1119 906 1312 657 
Q 1506 409 1894 409 
Q 2359 409 2629 706 
Q 2900 1003 2900 1516 
L 2900 3500 
L 3475 3500 
L 3475 0 
L 2900 0 
L 2900 538 
Q 2691 219 2414 64 
Q 2138 -91 1772 -91 
Q 1169 -91 856 284 
Q 544 659 544 1381 
z
M 1991 3584 
L 1991 3584 
z
" transform="scale(0.015625)"/>
      <path id="DejaVuSans-62" d="M 3116 1747 
Q 3116 2381 2855 2742 
Q 2594 3103 2138 3103 
Q 1681 3103 1420 2742 
Q 1159 2381 1159 1747 
Q 1159 1113 1420 752 
Q 1681 391 2138 391 
Q 2594 391 2855 752 
Q 3116 1113 3116 1747 
z
M 1159 2969 
Q 1341 3281 1617 3432 
Q 1894 3584 2278 3584 
Q 2916 3584 3314 3078 
Q 3713 2572 3713 1747 
Q 3713 922 3314 415 
Q 2916 -91 2278 -91 
Q 1894 -91 1617 61 
Q 1341 213 1159 525 
L 1159 0 
L 581 0 
L 581 4863 
L 1159 4863 
L 1159 2969 
z
" transform="scale(0.015625)"/>
      <path id="DejaVuSans-63" d="M 3122 3366 
L 3122 2828 
Q 2878 2963 2633 3030 
Q 2388 3097 2138 3097 
Q 1578 3097 1268 2742 
Q 959 2388 959 1747 
Q 959 1106 1268 751 
Q 1578 397 2138 397 
Q 2388 397 2633 464 
Q 2878 531 3122 666 
L 3122 134 
Q 2881 22 2623 -34 
Q 2366 -91 2075 -91 
Q 1284 -91 818 406 
Q 353 903 353 1747 
Q 353 2603 823 3093 
Q 1294 3584 2113 3584 
Q 2378 3584 2631 3529 
Q 2884 3475 3122 3366 
z
" transform="scale(0.015625)"/>
      <path id="DejaVuSans-72" d="M 2631 2963 
Q 2534 3019 2420 3045 
Q 2306 3072 2169 3072 
Q 1681 3072 1420 2755 
Q 1159 2438 1159 1844 
L 1159 0 
L 581 0 
L 581 3500 
L 1159 3500 
L 1159 2956 
Q 1341 3275 1631 3429 
Q 1922 3584 2338 3584 
Q 2397 3584 2469 3576 
Q 2541 3569 2628 3553 
L 2631 2963 
z
" transform="scale(0.015625)"/>
      <path id="DejaVuSans-69" d="M 603 3500 
L 1178 3500 
L 1178 0 
L 603 0 
L 603 3500 
z
M 603 4863 
L 1178 4863 
L 1178 4134 
L 603 4134 
L 603 4863 
z
" transform="scale(0.015625)"/>
      <path id="DejaVuSans-20" transform="scale(0.015625)"/>
      <path id="DejaVuSans-68" d="M 3513 2113 
L 3513 0 
L 2938 0 
L 2938 2094 
Q 2938 2591 2744 2837 
Q 2550 3084 2163 3084 
Q 1697 3084 1428 2787 
Q 1159 2491 1159 1978 
L 1159 0 
L 581 0 
L 581 4863 
L 1159 4863 
L 1159 2956 
Q 1366 3272 1645 3428 
Q 1925 3584 2291 3584 
Q 2894 3584 3203 3211 
Q 3513 2838 3513 2113 
z
" transform="scale(0.015625)"/>
      <path id="DejaVuSans-6f" d="M 1959 3097 
Q 1497 3097 1228 2736 
Q 959 2375 959 1747 
Q 959 1119 1226 758 
Q 1494 397 1959 397 
Q 2419 397 2687 759 
Q 2956 1122 2956 1747 
Q 2956 2369 2687 2733 
Q 2419 3097 1959 3097 
z
M 1959 3584 
Q 2709 3584 3137 3096 
Q 3566 2609 3566 1747 
Q 3566 888 3137 398 
Q 2709 -91 1959 -91 
Q 1206 -91 779 398 
Q 353 888 353 1747 
Q 353 2609 779 3096 
Q 1206 3584 1959 3584 
z
" transform="scale(0.015625)"/>
      <path id="DejaVuSans-79" d="M 2059 -325 
Q 1816 -950 1584 -1140 
Q 1353 -1331 966 -1331 
L 506 -1331 
L 506 -850 
L 844 -850 
Q 1081 -850 1212 -737 
Q 1344 -625 1503 -206 
L 1606 56 
L 191 3500 
L 800 3500 
L 1894 763 
L 2988 3500 
L 3597 3500 
L 2059 -325 
z
" transform="scale(0.015625)"/>
     </defs>
     <use xlink:href="#DejaVuSans-67"/>
     <use xlink:href="#DejaVuSans-65" transform="translate(63.476562 0)"/>
     <use xlink:href="#DejaVuSans-74" transform="translate(125 0)"/>
     <use xlink:href="#DejaVuSans-5f" transform="translate(164.208984 0)"/>
     <use xlink:href="#DejaVuSans-73" transform="translate(214.208984 0)"/>
     <use xlink:href="#DejaVuSans-75" transform="translate(266.308594 0)"/>
     <use xlink:href="#DejaVuSans-62" transform="translate(329.6875 0)"/>
     <use xlink:href="#DejaVuSans-73" transform="translate(393.164062 0)"/>
     <use xlink:href="#DejaVuSans-63" transform="translate(445.263672 0)"/>
     <use xlink:href="#DejaVuSans-72" transform="translate(500.244141 0)"/>
     <use xlink:href="#DejaVuSans-69" transform="translate(541.357422 0)"/>
     <use xlink:href="#DejaVuSans-62" transform="translate(569.140625 0)"/>
     <use xlink:href="#DejaVuSans-65" transform="translate(632.617188 0)"/>
     <use xlink:href="#DejaVuSans-20" transform="translate(694.140625 0)"/>
     <use xlink:href="#DejaVuSans-68" transform="translate(725.927734 0)"/>
     <use xlink:href="#DejaVuSans-69" transform="translate(789.306641 0)"/>
     <use xlink:href="#DejaVuSans-73" transform="translate(817.089844 0)"/>
     <use xlink:href="#DejaVuSans-74" transform="translate(869.189453 0)"/>
     <use xlink:href="#DejaVuSans-6f" transform="translate(908.398438 0)"/>
     <use xlink:href="#DejaVuSans-72" transform="translate(969.580078 0)"/>
     <use xlink:href="#DejaVuSans-79" transform="translate(1010.693359 0)"/>
    </g>
   </g>
   <g id="legend_1">
    <g id="line2d_39">
     <path d="M 815.08 328.498438 
L 825.08 328.498438 
L 835.08 328.498438 
" style="fill: none; stroke: #1f77b4; stroke-width: 1.5; stroke-linecap: square"/>
    </g>
    <g id="text_20">
     <!-- star -->
     <g style="fill: #a9a9a9" transform="translate(843.08 331.998438) scale(0.1 -0.1)">
      <defs>
       <path id="DejaVuSans-61" d="M 2194 1759 
Q 1497 1759 1228 1600 
Q 959 1441 959 1056 
Q 959 750 1161 570 
Q 1363 391 1709 391 
Q 2188 391 2477 730 
Q 2766 1069 2766 1631 
L 2766 1759 
L 2194 1759 
z
M 3341 1997 
L 3341 0 
L 2766 0 
L 2766 531 
Q 2569 213 2275 61 
Q 1981 -91 1556 -91 
Q 1019 -91 701 211 
Q 384 513 384 1019 
Q 384 1609 779 1909 
Q 1175 2209 1959 2209 
L 2766 2209 
L 2766 2266 
Q 2766 2663 2505 2880 
Q 2244 3097 1772 3097 
Q 1472 3097 1187 3025 
Q 903 2953 641 2809 
L 641 3341 
Q 956 3463 1253 3523 
Q 1550 3584 1831 3584 
Q 2591 3584 2966 3190 
Q 3341 2797 3341 1997 
z
" transform="scale(0.015625)"/>
      </defs>
      <use xlink:href="#DejaVuSans-73"/>
      <use xlink:href="#DejaVuSans-74" transform="translate(52.099609 0)"/>
      <use xlink:href="#DejaVuSans-61" transform="translate(91.308594 0)"/>
      <use xlink:href="#DejaVuSans-72" transform="translate(152.587891 0)"/>
     </g>
    </g>
    <g id="line2d_40">
     <path d="M 815.08 343.176562 
L 825.08 343.176562 
L 835.08 343.176562 
" style="fill: none; stroke: #ff7f0e; stroke-width: 1.5; stroke-linecap: square"/>
    </g>
    <g id="text_21">
     <!-- fork -->
     <g style="fill: #a9a9a9" transform="translate(843.08 346.676562) scale(0.1 -0.1)">
      <defs>
       <path id="DejaVuSans-66" d="M 2375 4863 
L 2375 4384 
L 1825 4384 
Q 1516 4384 1395 4259 
Q 1275 4134 1275 3809 
L 1275 3500 
L 2222 3500 
L 2222 3053 
L 1275 3053 
L 1275 0 
L 697 0 
L 697 3053 
L 147 3053 
L 147 3500 
L 697 3500 
L 697 3744 
Q 697 4328 969 4595 
Q 1241 4863 1831 4863 
L 2375 4863 
z
" transform="scale(0.015625)"/>
       <path id="DejaVuSans-6b" d="M 581 4863 
L 1159 4863 
L 1159 1991 
L 2875 3500 
L 3609 3500 
L 1753 1863 
L 3688 0 
L 2938 0 
L 1159 1709 
L 1159 0 
L 581 0 
L 581 4863 
z
" transform="scale(0.015625)"/>
      </defs>
      <use xlink:href="#DejaVuSans-66"/>
      <use xlink:href="#DejaVuSans-6f" transform="translate(35.205078 0)"/>
      <use xlink:href="#DejaVuSans-72" transform="translate(96.386719 0)"/>
      <use xlink:href="#DejaVuSans-6b" transform="translate(137.5 0)"/>
     </g>
    </g>
   </g>
  </g>
 </g>
 <defs>
  <clipPath id="p3f25481c12">
   <rect x="108" y="43.2" width="669.6" height="277.2"/>
  </clipPath>
 </defs>
</svg>
