<?xml version="1.0" encoding="utf-8" standalone="no"?>
<!DOCTYPE svg PUBLIC "-//W3C//DTD SVG 1.1//EN"
  "http://www.w3.org/Graphics/SVG/1.1/DTD/svg11.dtd">
<svg xmlns:xlink="http://www.w3.org/1999/xlink" width="864pt" height="360pt" viewBox="0 0 864 360" xmlns="http://www.w3.org/2000/svg" version="1.1">
 <metadata>
  <rdf:RDF xmlns:dc="http://purl.org/dc/elements/1.1/" xmlns:cc="http://creativecommons.org/ns#" xmlns:rdf="http://www.w3.org/1999/02/22-rdf-syntax-ns#">
   <cc:Work>
    <dc:type rdf:resource="http://purl.org/dc/dcmitype/StillImage"/>
    <dc:date>2024-03-06T08:11:12.941692</dc:date>
    <dc:format>image/svg+xml</dc:format>
    <dc:creator>
     <cc:Agent>
      <dc:title>Matplotlib v3.8.3, https://matplotlib.org/</dc:title>
     </cc:Agent>
    </dc:creator>
   </cc:Work>
  </rdf:RDF>
 </metadata>
 <defs>
  <style type="text/css">*{stroke-linejoin: round; stroke-linecap: butt}</style>
 </defs>
 <g id="figure_1">
  <g id="patch_1">
   <path d="M 0 360 
L 864 360 
L 864 0 
L 0 0 
L 0 360 
z
" style="fill: none; opacity: 0"/>
  </g>
  <g id="axes_1">
   <g id="patch_2">
    <path d="M 108 320.4 
L 777.6 320.4 
L 777.6 43.2 
L 108 43.2 
L 108 320.4 
z
" style="fill: none; opacity: 0"/>
   </g>
   <g id="matplotlib.axis_1">
    <g id="xtick_1">
     <g id="line2d_1">
      <path d="M 163.26938 320.4 
L 163.26938 43.2 
" clip-path="url(#p73319fdfcc)" style="fill: none; stroke-dasharray: 5.12,1.28,0.8,1.28; stroke-dashoffset: 0; stroke: #b0b0b0; stroke-width: 0.8"/>
     </g>
     <g id="line2d_2">
      <defs>
       <path id="m8408db1150" d="M 0 0 
L 0 3.5 
" style="stroke: #a9a9a9; stroke-width: 0.8"/>
      </defs>
      <g>
       <use xlink:href="#m8408db1150" x="163.26938" y="320.4" style="fill: #a9a9a9; stroke: #a9a9a9; stroke-width: 0.8"/>
      </g>
     </g>
     <g id="text_1">
      <!-- 2021-09 -->
      <g style="fill: #a9a9a9" transform="translate(142.377974 334.998438) scale(0.1 -0.1)">
       <defs>
        <path id="DejaVuSans-32" d="M 1228 531 
L 3431 531 
L 3431 0 
L 469 0 
L 469 531 
Q 828 903 1448 1529 
Q 2069 2156 2228 2338 
Q 2531 2678 2651 2914 
Q 2772 3150 2772 3378 
Q 2772 3750 2511 3984 
Q 2250 4219 1831 4219 
Q 1534 4219 1204 4116 
Q 875 4013 500 3803 
L 500 4441 
Q 881 4594 1212 4672 
Q 1544 4750 1819 4750 
Q 2544 4750 2975 4387 
Q 3406 4025 3406 3419 
Q 3406 3131 3298 2873 
Q 3191 2616 2906 2266 
Q 2828 2175 2409 1742 
Q 1991 1309 1228 531 
z
" transform="scale(0.015625)"/>
        <path id="DejaVuSans-30" d="M 2034 4250 
Q 1547 4250 1301 3770 
Q 1056 3291 1056 2328 
Q 1056 1369 1301 889 
Q 1547 409 2034 409 
Q 2525 409 2770 889 
Q 3016 1369 3016 2328 
Q 3016 3291 2770 3770 
Q 2525 4250 2034 4250 
z
M 2034 4750 
Q 2819 4750 3233 4129 
Q 3647 3509 3647 2328 
Q 3647 1150 3233 529 
Q 2819 -91 2034 -91 
Q 1250 -91 836 529 
Q 422 1150 422 2328 
Q 422 3509 836 4129 
Q 1250 4750 2034 4750 
z
" transform="scale(0.015625)"/>
        <path id="DejaVuSans-31" d="M 794 531 
L 1825 531 
L 1825 4091 
L 703 3866 
L 703 4441 
L 1819 4666 
L 2450 4666 
L 2450 531 
L 3481 531 
L 3481 0 
L 794 0 
L 794 531 
z
" transform="scale(0.015625)"/>
        <path id="DejaVuSans-2d" d="M 313 2009 
L 1997 2009 
L 1997 1497 
L 313 1497 
L 313 2009 
z
" transform="scale(0.015625)"/>
        <path id="DejaVuSans-39" d="M 703 97 
L 703 672 
Q 941 559 1184 500 
Q 1428 441 1663 441 
Q 2288 441 2617 861 
Q 2947 1281 2994 2138 
Q 2813 1869 2534 1725 
Q 2256 1581 1919 1581 
Q 1219 1581 811 2004 
Q 403 2428 403 3163 
Q 403 3881 828 4315 
Q 1253 4750 1959 4750 
Q 2769 4750 3195 4129 
Q 3622 3509 3622 2328 
Q 3622 1225 3098 567 
Q 2575 -91 1691 -91 
Q 1453 -91 1209 -44 
Q 966 3 703 97 
z
M 1959 2075 
Q 2384 2075 2632 2365 
Q 2881 2656 2881 3163 
Q 2881 3666 2632 3958 
Q 2384 4250 1959 4250 
Q 1534 4250 1286 3958 
Q 1038 3666 1038 3163 
Q 1038 2656 1286 2365 
Q 1534 2075 1959 2075 
z
" transform="scale(0.015625)"/>
       </defs>
       <use xlink:href="#DejaVuSans-32"/>
       <use xlink:href="#DejaVuSans-30" x="63.623047"/>
       <use xlink:href="#DejaVuSans-32" x="127.246094"/>
       <use xlink:href="#DejaVuSans-31" x="190.869141"/>
       <use xlink:href="#DejaVuSans-2d" x="254.492188"/>
       <use xlink:href="#DejaVuSans-30" x="290.576172"/>
       <use xlink:href="#DejaVuSans-39" x="354.199219"/>
      </g>
     </g>
    </g>
    <g id="xtick_2">
     <g id="line2d_3">
      <path d="M 240.952149 320.4 
L 240.952149 43.2 
" clip-path="url(#p73319fdfcc)" style="fill: none; stroke-dasharray: 5.12,1.28,0.8,1.28; stroke-dashoffset: 0; stroke: #b0b0b0; stroke-width: 0.8"/>
     </g>
     <g id="line2d_4">
      <g>
       <use xlink:href="#m8408db1150" x="240.952149" y="320.4" style="fill: #a9a9a9; stroke: #a9a9a9; stroke-width: 0.8"/>
      </g>
     </g>
     <g id="text_2">
      <!-- 2022-01 -->
      <g style="fill: #a9a9a9" transform="translate(220.060743 334.998438) scale(0.1 -0.1)">
       <use xlink:href="#DejaVuSans-32"/>
       <use xlink:href="#DejaVuSans-30" x="63.623047"/>
       <use xlink:href="#DejaVuSans-32" x="127.246094"/>
       <use xlink:href="#DejaVuSans-32" x="190.869141"/>
       <use xlink:href="#DejaVuSans-2d" x="254.492188"/>
       <use xlink:href="#DejaVuSans-30" x="290.576172"/>
       <use xlink:href="#DejaVuSans-31" x="354.199219"/>
      </g>
     </g>
    </g>
    <g id="xtick_3">
     <g id="line2d_5">
      <path d="M 317.36143 320.4 
L 317.36143 43.2 
" clip-path="url(#p73319fdfcc)" style="fill: none; stroke-dasharray: 5.12,1.28,0.8,1.28; stroke-dashoffset: 0; stroke: #b0b0b0; stroke-width: 0.8"/>
     </g>
     <g id="line2d_6">
      <g>
       <use xlink:href="#m8408db1150" x="317.36143" y="320.4" style="fill: #a9a9a9; stroke: #a9a9a9; stroke-width: 0.8"/>
      </g>
     </g>
     <g id="text_3">
      <!-- 2022-05 -->
      <g style="fill: #a9a9a9" transform="translate(296.470024 334.998438) scale(0.1 -0.1)">
       <defs>
        <path id="DejaVuSans-35" d="M 691 4666 
L 3169 4666 
L 3169 4134 
L 1269 4134 
L 1269 2991 
Q 1406 3038 1543 3061 
Q 1681 3084 1819 3084 
Q 2600 3084 3056 2656 
Q 3513 2228 3513 1497 
Q 3513 744 3044 326 
Q 2575 -91 1722 -91 
Q 1428 -91 1123 -41 
Q 819 9 494 109 
L 494 744 
Q 775 591 1075 516 
Q 1375 441 1709 441 
Q 2250 441 2565 725 
Q 2881 1009 2881 1497 
Q 2881 1984 2565 2268 
Q 2250 2553 1709 2553 
Q 1456 2553 1204 2497 
Q 953 2441 691 2322 
L 691 4666 
z
" transform="scale(0.015625)"/>
       </defs>
       <use xlink:href="#DejaVuSans-32"/>
       <use xlink:href="#DejaVuSans-30" x="63.623047"/>
       <use xlink:href="#DejaVuSans-32" x="127.246094"/>
       <use xlink:href="#DejaVuSans-32" x="190.869141"/>
       <use xlink:href="#DejaVuSans-2d" x="254.492188"/>
       <use xlink:href="#DejaVuSans-30" x="290.576172"/>
       <use xlink:href="#DejaVuSans-35" x="354.199219"/>
      </g>
     </g>
    </g>
    <g id="xtick_4">
     <g id="line2d_7">
      <path d="M 395.680943 320.4 
L 395.680943 43.2 
" clip-path="url(#p73319fdfcc)" style="fill: none; stroke-dasharray: 5.12,1.28,0.8,1.28; stroke-dashoffset: 0; stroke: #b0b0b0; stroke-width: 0.8"/>
     </g>
     <g id="line2d_8">
      <g>
       <use xlink:href="#m8408db1150" x="395.680943" y="320.4" style="fill: #a9a9a9; stroke: #a9a9a9; stroke-width: 0.8"/>
      </g>
     </g>
     <g id="text_4">
      <!-- 2022-09 -->
      <g style="fill: #a9a9a9" transform="translate(374.789537 334.998438) scale(0.1 -0.1)">
       <use xlink:href="#DejaVuSans-32"/>
       <use xlink:href="#DejaVuSans-30" x="63.623047"/>
       <use xlink:href="#DejaVuSans-32" x="127.246094"/>
       <use xlink:href="#DejaVuSans-32" x="190.869141"/>
       <use xlink:href="#DejaVuSans-2d" x="254.492188"/>
       <use xlink:href="#DejaVuSans-30" x="290.576172"/>
       <use xlink:href="#DejaVuSans-39" x="354.199219"/>
      </g>
     </g>
    </g>
    <g id="xtick_5">
     <g id="line2d_9">
      <path d="M 473.363712 320.4 
L 473.363712 43.2 
" clip-path="url(#p73319fdfcc)" style="fill: none; stroke-dasharray: 5.12,1.28,0.8,1.28; stroke-dashoffset: 0; stroke: #b0b0b0; stroke-width: 0.8"/>
     </g>
     <g id="line2d_10">
      <g>
       <use xlink:href="#m8408db1150" x="473.363712" y="320.4" style="fill: #a9a9a9; stroke: #a9a9a9; stroke-width: 0.8"/>
      </g>
     </g>
     <g id="text_5">
      <!-- 2023-01 -->
      <g style="fill: #a9a9a9" transform="translate(452.472306 334.998438) scale(0.1 -0.1)">
       <defs>
        <path id="DejaVuSans-33" d="M 2597 2516 
Q 3050 2419 3304 2112 
Q 3559 1806 3559 1356 
Q 3559 666 3084 287 
Q 2609 -91 1734 -91 
Q 1441 -91 1130 -33 
Q 819 25 488 141 
L 488 750 
Q 750 597 1062 519 
Q 1375 441 1716 441 
Q 2309 441 2620 675 
Q 2931 909 2931 1356 
Q 2931 1769 2642 2001 
Q 2353 2234 1838 2234 
L 1294 2234 
L 1294 2753 
L 1863 2753 
Q 2328 2753 2575 2939 
Q 2822 3125 2822 3475 
Q 2822 3834 2567 4026 
Q 2313 4219 1838 4219 
Q 1578 4219 1281 4162 
Q 984 4106 628 3988 
L 628 4550 
Q 988 4650 1302 4700 
Q 1616 4750 1894 4750 
Q 2613 4750 3031 4423 
Q 3450 4097 3450 3541 
Q 3450 3153 3228 2886 
Q 3006 2619 2597 2516 
z
" transform="scale(0.015625)"/>
       </defs>
       <use xlink:href="#DejaVuSans-32"/>
       <use xlink:href="#DejaVuSans-30" x="63.623047"/>
       <use xlink:href="#DejaVuSans-32" x="127.246094"/>
       <use xlink:href="#DejaVuSans-33" x="190.869141"/>
       <use xlink:href="#DejaVuSans-2d" x="254.492188"/>
       <use xlink:href="#DejaVuSans-30" x="290.576172"/>
       <use xlink:href="#DejaVuSans-31" x="354.199219"/>
      </g>
     </g>
    </g>
    <g id="xtick_6">
     <g id="line2d_11">
      <path d="M 549.772994 320.4 
L 549.772994 43.2 
" clip-path="url(#p73319fdfcc)" style="fill: none; stroke-dasharray: 5.12,1.28,0.8,1.28; stroke-dashoffset: 0; stroke: #b0b0b0; stroke-width: 0.8"/>
     </g>
     <g id="line2d_12">
      <g>
       <use xlink:href="#m8408db1150" x="549.772994" y="320.4" style="fill: #a9a9a9; stroke: #a9a9a9; stroke-width: 0.8"/>
      </g>
     </g>
     <g id="text_6">
      <!-- 2023-05 -->
      <g style="fill: #a9a9a9" transform="translate(528.881587 334.998438) scale(0.1 -0.1)">
       <use xlink:href="#DejaVuSans-32"/>
       <use xlink:href="#DejaVuSans-30" x="63.623047"/>
       <use xlink:href="#DejaVuSans-32" x="127.246094"/>
       <use xlink:href="#DejaVuSans-33" x="190.869141"/>
       <use xlink:href="#DejaVuSans-2d" x="254.492188"/>
       <use xlink:href="#DejaVuSans-30" x="290.576172"/>
       <use xlink:href="#DejaVuSans-35" x="354.199219"/>
      </g>
     </g>
    </g>
    <g id="xtick_7">
     <g id="line2d_13">
      <path d="M 628.092507 320.4 
L 628.092507 43.2 
" clip-path="url(#p73319fdfcc)" style="fill: none; stroke-dasharray: 5.12,1.28,0.8,1.28; stroke-dashoffset: 0; stroke: #b0b0b0; stroke-width: 0.8"/>
     </g>
     <g id="line2d_14">
      <g>
       <use xlink:href="#m8408db1150" x="628.092507" y="320.4" style="fill: #a9a9a9; stroke: #a9a9a9; stroke-width: 0.8"/>
      </g>
     </g>
     <g id="text_7">
      <!-- 2023-09 -->
      <g style="fill: #a9a9a9" transform="translate(607.2011 334.998438) scale(0.1 -0.1)">
       <use xlink:href="#DejaVuSans-32"/>
       <use xlink:href="#DejaVuSans-30" x="63.623047"/>
       <use xlink:href="#DejaVuSans-32" x="127.246094"/>
       <use xlink:href="#DejaVuSans-33" x="190.869141"/>
       <use xlink:href="#DejaVuSans-2d" x="254.492188"/>
       <use xlink:href="#DejaVuSans-30" x="290.576172"/>
       <use xlink:href="#DejaVuSans-39" x="354.199219"/>
      </g>
     </g>
    </g>
    <g id="xtick_8">
     <g id="line2d_15">
      <path d="M 705.775276 320.4 
L 705.775276 43.2 
" clip-path="url(#p73319fdfcc)" style="fill: none; stroke-dasharray: 5.12,1.28,0.8,1.28; stroke-dashoffset: 0; stroke: #b0b0b0; stroke-width: 0.8"/>
     </g>
     <g id="line2d_16">
      <g>
       <use xlink:href="#m8408db1150" x="705.775276" y="320.4" style="fill: #a9a9a9; stroke: #a9a9a9; stroke-width: 0.8"/>
      </g>
     </g>
     <g id="text_8">
      <!-- 2024-01 -->
      <g style="fill: #a9a9a9" transform="translate(684.88387 334.998438) scale(0.1 -0.1)">
       <defs>
        <path id="DejaVuSans-34" d="M 2419 4116 
L 825 1625 
L 2419 1625 
L 2419 4116 
z
M 2253 4666 
L 3047 4666 
L 3047 1625 
L 3713 1625 
L 3713 1100 
L 3047 1100 
L 3047 0 
L 2419 0 
L 2419 1100 
L 313 1100 
L 313 1709 
L 2253 4666 
z
" transform="scale(0.015625)"/>
       </defs>
       <use xlink:href="#DejaVuSans-32"/>
       <use xlink:href="#DejaVuSans-30" x="63.623047"/>
       <use xlink:href="#DejaVuSans-32" x="127.246094"/>
       <use xlink:href="#DejaVuSans-34" x="190.869141"/>
       <use xlink:href="#DejaVuSans-2d" x="254.492188"/>
       <use xlink:href="#DejaVuSans-30" x="290.576172"/>
       <use xlink:href="#DejaVuSans-31" x="354.199219"/>
      </g>
     </g>
    </g>
   </g>
   <g id="matplotlib.axis_2">
    <g id="ytick_1">
     <g id="line2d_17">
      <path d="M 108 307.84401 
L 777.6 307.84401 
" clip-path="url(#p73319fdfcc)" style="fill: none; stroke-dasharray: 5.12,1.28,0.8,1.28; stroke-dashoffset: 0; stroke: #b0b0b0; stroke-width: 0.8"/>
     </g>
     <g id="line2d_18">
      <defs>
       <path id="m7eb2d576ed" d="M 0 0 
L -3.5 0 
" style="stroke: #a9a9a9; stroke-width: 0.8"/>
      </defs>
      <g>
       <use xlink:href="#m7eb2d576ed" x="108" y="307.84401" style="fill: #a9a9a9; stroke: #a9a9a9; stroke-width: 0.8"/>
      </g>
     </g>
     <g id="text_9">
      <!-- 0 -->
      <g style="fill: #a9a9a9" transform="translate(94.6375 311.643229) scale(0.1 -0.1)">
       <use xlink:href="#DejaVuSans-30"/>
      </g>
     </g>
    </g>
    <g id="ytick_2">
     <g id="line2d_19">
      <path d="M 108 272.636186 
L 777.6 272.636186 
" clip-path="url(#p73319fdfcc)" style="fill: none; stroke-dasharray: 5.12,1.28,0.8,1.28; stroke-dashoffset: 0; stroke: #b0b0b0; stroke-width: 0.8"/>
     </g>
     <g id="line2d_20">
      <g>
       <use xlink:href="#m7eb2d576ed" x="108" y="272.636186" style="fill: #a9a9a9; stroke: #a9a9a9; stroke-width: 0.8"/>
      </g>
     </g>
     <g id="text_10">
      <!-- 800 -->
      <g style="fill: #a9a9a9" transform="translate(81.9125 276.435405) scale(0.1 -0.1)">
       <defs>
        <path id="DejaVuSans-38" d="M 2034 2216 
Q 1584 2216 1326 1975 
Q 1069 1734 1069 1313 
Q 1069 891 1326 650 
Q 1584 409 2034 409 
Q 2484 409 2743 651 
Q 3003 894 3003 1313 
Q 3003 1734 2745 1975 
Q 2488 2216 2034 2216 
z
M 1403 2484 
Q 997 2584 770 2862 
Q 544 3141 544 3541 
Q 544 4100 942 4425 
Q 1341 4750 2034 4750 
Q 2731 4750 3128 4425 
Q 3525 4100 3525 3541 
Q 3525 3141 3298 2862 
Q 3072 2584 2669 2484 
Q 3125 2378 3379 2068 
Q 3634 1759 3634 1313 
Q 3634 634 3220 271 
Q 2806 -91 2034 -91 
Q 1263 -91 848 271 
Q 434 634 434 1313 
Q 434 1759 690 2068 
Q 947 2378 1403 2484 
z
M 1172 3481 
Q 1172 3119 1398 2916 
Q 1625 2713 2034 2713 
Q 2441 2713 2670 2916 
Q 2900 3119 2900 3481 
Q 2900 3844 2670 4047 
Q 2441 4250 2034 4250 
Q 1625 4250 1398 4047 
Q 1172 3844 1172 3481 
z
" transform="scale(0.015625)"/>
       </defs>
       <use xlink:href="#DejaVuSans-38"/>
       <use xlink:href="#DejaVuSans-30" x="63.623047"/>
       <use xlink:href="#DejaVuSans-30" x="127.246094"/>
      </g>
     </g>
    </g>
    <g id="ytick_3">
     <g id="line2d_21">
      <path d="M 108 237.428362 
L 777.6 237.428362 
" clip-path="url(#p73319fdfcc)" style="fill: none; stroke-dasharray: 5.12,1.28,0.8,1.28; stroke-dashoffset: 0; stroke: #b0b0b0; stroke-width: 0.8"/>
     </g>
     <g id="line2d_22">
      <g>
       <use xlink:href="#m7eb2d576ed" x="108" y="237.428362" style="fill: #a9a9a9; stroke: #a9a9a9; stroke-width: 0.8"/>
      </g>
     </g>
     <g id="text_11">
      <!-- 1600 -->
      <g style="fill: #a9a9a9" transform="translate(75.55 241.227581) scale(0.1 -0.1)">
       <defs>
        <path id="DejaVuSans-36" d="M 2113 2584 
Q 1688 2584 1439 2293 
Q 1191 2003 1191 1497 
Q 1191 994 1439 701 
Q 1688 409 2113 409 
Q 2538 409 2786 701 
Q 3034 994 3034 1497 
Q 3034 2003 2786 2293 
Q 2538 2584 2113 2584 
z
M 3366 4563 
L 3366 3988 
Q 3128 4100 2886 4159 
Q 2644 4219 2406 4219 
Q 1781 4219 1451 3797 
Q 1122 3375 1075 2522 
Q 1259 2794 1537 2939 
Q 1816 3084 2150 3084 
Q 2853 3084 3261 2657 
Q 3669 2231 3669 1497 
Q 3669 778 3244 343 
Q 2819 -91 2113 -91 
Q 1303 -91 875 529 
Q 447 1150 447 2328 
Q 447 3434 972 4092 
Q 1497 4750 2381 4750 
Q 2619 4750 2861 4703 
Q 3103 4656 3366 4563 
z
" transform="scale(0.015625)"/>
       </defs>
       <use xlink:href="#DejaVuSans-31"/>
       <use xlink:href="#DejaVuSans-36" x="63.623047"/>
       <use xlink:href="#DejaVuSans-30" x="127.246094"/>
       <use xlink:href="#DejaVuSans-30" x="190.869141"/>
      </g>
     </g>
    </g>
    <g id="ytick_4">
     <g id="line2d_23">
      <path d="M 108 202.220538 
L 777.6 202.220538 
" clip-path="url(#p73319fdfcc)" style="fill: none; stroke-dasharray: 5.12,1.28,0.8,1.28; stroke-dashoffset: 0; stroke: #b0b0b0; stroke-width: 0.8"/>
     </g>
     <g id="line2d_24">
      <g>
       <use xlink:href="#m7eb2d576ed" x="108" y="202.220538" style="fill: #a9a9a9; stroke: #a9a9a9; stroke-width: 0.8"/>
      </g>
     </g>
     <g id="text_12">
      <!-- 2400 -->
      <g style="fill: #a9a9a9" transform="translate(75.55 206.019757) scale(0.1 -0.1)">
       <use xlink:href="#DejaVuSans-32"/>
       <use xlink:href="#DejaVuSans-34" x="63.623047"/>
       <use xlink:href="#DejaVuSans-30" x="127.246094"/>
       <use xlink:href="#DejaVuSans-30" x="190.869141"/>
      </g>
     </g>
    </g>
    <g id="ytick_5">
     <g id="line2d_25">
      <path d="M 108 167.012714 
L 777.6 167.012714 
" clip-path="url(#p73319fdfcc)" style="fill: none; stroke-dasharray: 5.12,1.28,0.8,1.28; stroke-dashoffset: 0; stroke: #b0b0b0; stroke-width: 0.8"/>
     </g>
     <g id="line2d_26">
      <g>
       <use xlink:href="#m7eb2d576ed" x="108" y="167.012714" style="fill: #a9a9a9; stroke: #a9a9a9; stroke-width: 0.8"/>
      </g>
     </g>
     <g id="text_13">
      <!-- 3200 -->
      <g style="fill: #a9a9a9" transform="translate(75.55 170.811933) scale(0.1 -0.1)">
       <use xlink:href="#DejaVuSans-33"/>
       <use xlink:href="#DejaVuSans-32" x="63.623047"/>
       <use xlink:href="#DejaVuSans-30" x="127.246094"/>
       <use xlink:href="#DejaVuSans-30" x="190.869141"/>
      </g>
     </g>
    </g>
    <g id="ytick_6">
     <g id="line2d_27">
      <path d="M 108 131.80489 
L 777.6 131.80489 
" clip-path="url(#p73319fdfcc)" style="fill: none; stroke-dasharray: 5.12,1.28,0.8,1.28; stroke-dashoffset: 0; stroke: #b0b0b0; stroke-width: 0.8"/>
     </g>
     <g id="line2d_28">
      <g>
       <use xlink:href="#m7eb2d576ed" x="108" y="131.80489" style="fill: #a9a9a9; stroke: #a9a9a9; stroke-width: 0.8"/>
      </g>
     </g>
     <g id="text_14">
      <!-- 4000 -->
      <g style="fill: #a9a9a9" transform="translate(75.55 135.604109) scale(0.1 -0.1)">
       <use xlink:href="#DejaVuSans-34"/>
       <use xlink:href="#DejaVuSans-30" x="63.623047"/>
       <use xlink:href="#DejaVuSans-30" x="127.246094"/>
       <use xlink:href="#DejaVuSans-30" x="190.869141"/>
      </g>
     </g>
    </g>
    <g id="ytick_7">
     <g id="line2d_29">
      <path d="M 108 96.597066 
L 777.6 96.597066 
" clip-path="url(#p73319fdfcc)" style="fill: none; stroke-dasharray: 5.12,1.28,0.8,1.28; stroke-dashoffset: 0; stroke: #b0b0b0; stroke-width: 0.8"/>
     </g>
     <g id="line2d_30">
      <g>
       <use xlink:href="#m7eb2d576ed" x="108" y="96.597066" style="fill: #a9a9a9; stroke: #a9a9a9; stroke-width: 0.8"/>
      </g>
     </g>
     <g id="text_15">
      <!-- 4800 -->
      <g style="fill: #a9a9a9" transform="translate(75.55 100.396285) scale(0.1 -0.1)">
       <use xlink:href="#DejaVuSans-34"/>
       <use xlink:href="#DejaVuSans-38" x="63.623047"/>
       <use xlink:href="#DejaVuSans-30" x="127.246094"/>
       <use xlink:href="#DejaVuSans-30" x="190.869141"/>
      </g>
     </g>
    </g>
    <g id="ytick_8">
     <g id="line2d_31">
      <path d="M 108 61.389242 
L 777.6 61.389242 
" clip-path="url(#p73319fdfcc)" style="fill: none; stroke-dasharray: 5.12,1.28,0.8,1.28; stroke-dashoffset: 0; stroke: #b0b0b0; stroke-width: 0.8"/>
     </g>
     <g id="line2d_32">
      <g>
       <use xlink:href="#m7eb2d576ed" x="108" y="61.389242" style="fill: #a9a9a9; stroke: #a9a9a9; stroke-width: 0.8"/>
      </g>
     </g>
     <g id="text_16">
      <!-- 5600 -->
      <g style="fill: #a9a9a9" transform="translate(75.55 65.188461) scale(0.1 -0.1)">
       <use xlink:href="#DejaVuSans-35"/>
       <use xlink:href="#DejaVuSans-36" x="63.623047"/>
       <use xlink:href="#DejaVuSans-30" x="127.246094"/>
       <use xlink:href="#DejaVuSans-30" x="190.869141"/>
      </g>
     </g>
    </g>
   </g>
   <g id="line2d_33">
    <path d="M 138.436364 307.71198 
L 142.256828 307.403912 
L 142.893572 307.139853 
L 144.803804 306.919804 
L 148.624268 306.171638 
L 152.444732 305.86357 
L 153.081476 305.555501 
L 153.71822 305.379462 
L 154.354964 304.587286 
L 154.991708 304.147188 
L 155.628452 302.782885 
L 156.265196 302.694866 
L 156.90194 302.210758 
L 158.175428 301.594621 
L 160.722404 299.658191 
L 161.995892 299.130073 
L 162.632636 298.689976 
L 165.179612 297.589731 
L 165.816356 296.577506 
L 167.089844 295.653301 
L 167.726588 295.345232 
L 174.094028 294.465037 
L 174.730772 294.156968 
L 179.18798 293.80489 
L 181.098212 293.320782 
L 186.828908 292.572616 
L 187.465652 292.220538 
L 188.102396 292.132518 
L 188.73914 291.86846 
L 190.012628 291.648411 
L 190.649372 291.604401 
L 191.286116 291.384352 
L 193.833092 290.988264 
L 195.10658 290.636186 
L 197.016812 290.460147 
L 198.2903 290.328117 
L 198.927045 290.152078 
L 199.563789 290.108068 
L 201.474021 289.535941 
L 205.294485 288.963814 
L 205.931229 288.787775 
L 206.567973 287.907579 
L 208.478205 287.203423 
L 210.388437 286.675306 
L 211.025181 286.367237 
L 211.661925 286.323227 
L 214.845645 285.443032 
L 216.119133 285.355012 
L 216.755877 285.266993 
L 218.666109 284.694866 
L 221.213085 284.078729 
L 221.849829 283.81467 
L 222.486573 283.72665 
L 223.123317 283.418582 
L 229.490757 282.450367 
L 232.674477 281.570171 
L 233.311221 281.174083 
L 235.858197 280.513936 
L 237.131685 279.76577 
L 237.768429 279.325672 
L 239.678661 278.973594 
L 243.499125 277.82934 
L 244.772613 277.433252 
L 245.409357 277.345232 
L 246.682845 276.993154 
L 247.956333 276.685086 
L 248.593077 276.597066 
L 249.866565 276.068949 
L 250.503309 275.936919 
L 251.140053 275.672861 
L 251.776797 275.584841 
L 252.413541 275.276773 
L 253.050285 275.100733 
L 254.323773 275.012714 
L 255.597261 274.572616 
L 256.870749 274.484597 
L 257.507493 274.176528 
L 260.054469 273.73643 
L 262.601445 273.516381 
L 263.238189 273.384352 
L 264.511677 272.768215 
L 271.515862 269.81956 
L 272.152606 269.467482 
L 272.78935 268.763325 
L 273.426094 267.70709 
L 274.062838 266.870905 
L 274.699582 266.694866 
L 275.336326 266.694866 
L 276.609814 265.77066 
L 277.246558 265.594621 
L 277.883302 265.242543 
L 278.520046 265.110513 
L 279.15679 264.538386 
L 279.793534 264.362347 
L 281.703766 263.438142 
L 282.977254 261.677751 
L 283.613998 261.281663 
L 284.250742 260.225428 
L 284.887486 259.565281 
L 285.52423 259.257213 
L 286.160974 259.081174 
L 288.70795 257.584841 
L 289.981438 256.572616 
L 290.618182 256.176528 
L 291.254926 255.252323 
L 291.89167 253.8 
L 292.528414 252.875795 
L 293.165158 252.391687 
L 293.801902 252.127628 
L 296.348878 249.927139 
L 297.622366 248.914914 
L 298.25911 248.386797 
L 298.895854 247.550611 
L 300.169342 246.450367 
L 302.716318 244.822005 
L 303.353062 244.249878 
L 303.989806 244.117848 
L 304.62655 243.85379 
L 305.900038 243.149633 
L 307.81027 242.181418 
L 309.083758 240.993154 
L 309.720502 240.244988 
L 310.99399 239.364792 
L 311.630734 239.188753 
L 312.267478 238.880685 
L 313.540966 238.044499 
L 314.17771 237.692421 
L 314.814454 237.604401 
L 316.087942 236.900244 
L 316.724686 236.548166 
L 317.36143 235.88802 
L 317.998174 235.491932 
L 318.634918 235.271883 
L 319.908406 234.523716 
L 320.54515 234.171638 
L 321.181894 233.951589 
L 323.092126 232.719315 
L 325.002358 232.147188 
L 325.639102 231.70709 
L 326.275846 231.575061 
L 327.549334 231.134963 
L 329.459566 230.386797 
L 331.369798 229.682641 
L 332.643286 229.462592 
L 333.916774 228.362347 
L 335.190262 227.74621 
L 336.46375 227.042054 
L 337.100494 226.689976 
L 338.373983 226.337897 
L 339.010727 225.941809 
L 339.647471 225.76577 
L 341.557703 224.577506 
L 344.741423 223.82934 
L 346.651655 222.729095 
L 347.288399 222.641076 
L 347.925143 222.421027 
L 349.198631 222.156968 
L 351.108863 220.748655 
L 353.019095 220.308557 
L 353.655839 220.088509 
L 354.292583 219.604401 
L 358.113047 218.372127 
L 358.749791 218.328117 
L 363.206999 216.743765 
L 363.843743 216.435697 
L 365.753975 215.995599 
L 367.027463 215.687531 
L 367.664207 215.379462 
L 368.300951 215.247433 
L 370.211183 214.367237 
L 372.121415 213.443032 
L 372.758159 213.002934 
L 373.394903 212.826895 
L 375.305135 211.81467 
L 376.578623 211.506601 
L 377.852111 210.846455 
L 379.125599 210.494377 
L 379.762343 210.406357 
L 381.035831 209.658191 
L 381.672575 209.526161 
L 382.946063 208.998044 
L 383.582807 208.866015 
L 384.219551 208.513936 
L 386.766527 208.117848 
L 388.040015 207.501711 
L 388.676759 206.973594 
L 389.313503 205.87335 
L 390.586991 205.609291 
L 391.223735 205.477262 
L 393.770711 204.156968 
L 394.407455 204.024939 
L 399.501407 201.604401 
L 401.411639 201.208313 
L 402.048383 200.856235 
L 405.868847 199.535941 
L 407.142335 198.743765 
L 408.415824 197.995599 
L 409.052568 197.907579 
L 409.689312 197.687531 
L 410.326056 197.643521 
L 413.509776 196.807335 
L 414.14652 196.323227 
L 415.420008 195.88313 
L 417.33024 195.266993 
L 417.966984 194.870905 
L 418.603728 194.694866 
L 419.240472 194.254768 
L 419.877216 193.990709 
L 420.51396 193.594621 
L 421.787448 193.154523 
L 423.69768 192.538386 
L 424.334424 192.230318 
L 426.244656 190.777995 
L 426.8814 190.645966 
L 428.154888 189.677751 
L 428.791632 189.545721 
L 429.428376 188.577506 
L 430.06512 188.313447 
L 430.701864 187.82934 
L 431.338608 187.74132 
L 432.612096 186.993154 
L 433.24884 186.861125 
L 433.885584 186.597066 
L 434.522328 186.112958 
L 435.159072 185.89291 
L 437.069304 184.616626 
L 439.61628 183.340342 
L 440.253024 183.252323 
L 441.526512 182.680196 
L 442.163256 182.328117 
L 442.8 181.271883 
L 443.436744 180.699756 
L 444.073488 180.347677 
L 444.710232 180.215648 
L 445.98372 179.423472 
L 446.620464 179.291443 
L 447.893952 178.675306 
L 449.804184 177.88313 
L 451.077672 177.002934 
L 452.35116 175.682641 
L 455.53488 173.394132 
L 456.808368 172.337897 
L 457.445112 172.073839 
L 458.081856 171.369682 
L 458.7186 170.885575 
L 459.992088 170.445477 
L 460.628832 169.917359 
L 461.90232 169.257213 
L 462.539064 169.081174 
L 463.175808 168.641076 
L 463.812552 168.509046 
L 465.722784 167.496822 
L 466.996272 166.748655 
L 473.363712 164.504156 
L 474.000456 163.932029 
L 475.910688 163.227873 
L 477.184176 162.831785 
L 477.820921 162.347677 
L 480.367897 161.027384 
L 481.004641 160.675306 
L 482.278129 158.166748 
L 483.551617 156.670416 
L 484.825105 155.922249 
L 486.735337 155.174083 
L 487.372081 155.086064 
L 488.008825 154.733985 
L 489.919057 154.161858 
L 492.466033 153.017604 
L 493.102777 152.621516 
L 494.376265 152.181418 
L 498.196729 149.980929 
L 498.833473 149.320782 
L 500.106961 148.616626 
L 500.743705 148.264548 
L 501.380449 148.044499 
L 502.017193 147.604401 
L 503.290681 146.988264 
L 505.200913 145.976039 
L 505.837657 145.8 
L 506.474401 145.315892 
L 507.111145 145.051834 
L 507.747889 144.919804 
L 509.021377 144.479707 
L 510.931609 143.77555 
L 511.568353 143.335452 
L 512.841841 142.983374 
L 514.115329 142.499267 
L 514.752073 142.015159 
L 516.025561 141.619071 
L 516.662305 141.311002 
L 517.299049 141.134963 
L 518.572537 140.254768 
L 519.846025 139.682641 
L 521.119513 138.714425 
L 522.393001 138.274328 
L 523.029745 137.74621 
L 523.666489 137.658191 
L 524.939977 136.733985 
L 526.213465 136.117848 
L 526.850209 135.85379 
L 527.486953 135.237653 
L 531.307417 133.87335 
L 533.217649 133.037164 
L 535.127881 132.465037 
L 536.401369 132.288998 
L 537.038113 132.024939 
L 537.674857 131.936919 
L 538.948345 131.408802 
L 539.585089 131.364792 
L 542.132065 130.440587 
L 544.042297 129.120293 
L 544.679041 128.856235 
L 545.315785 128.460147 
L 547.226017 127.623961 
L 549.13625 126.479707 
L 549.772994 126.083619 
L 551.046482 125.77555 
L 552.31997 124.895355 
L 554.866946 124.103178 
L 555.50369 123.83912 
L 556.777178 123.531051 
L 559.960898 122.518826 
L 561.87113 122.166748 
L 564.418106 121.374572 
L 565.05485 121.110513 
L 565.691594 121.022494 
L 566.328338 120.714425 
L 567.601826 120.450367 
L 568.23857 120.142298 
L 570.148802 119.7022 
L 571.42229 119.438142 
L 575.242754 118.733985 
L 576.516242 118.469927 
L 577.152986 118.337897 
L 577.78973 118.073839 
L 578.426474 118.029829 
L 580.336706 117.501711 
L 580.97345 117.149633 
L 584.15717 116.357457 
L 584.793914 116.225428 
L 586.067402 115.78533 
L 587.977634 115.125183 
L 588.614378 115.037164 
L 590.52461 114.377017 
L 591.161354 114.377017 
L 592.434842 113.936919 
L 593.071586 113.320782 
L 593.70833 113.012714 
L 594.981818 112.616626 
L 597.528794 111.648411 
L 598.165538 111.516381 
L 598.802282 111.120293 
L 599.439026 110.988264 
L 600.07577 110.592176 
L 603.25949 109.667971 
L 603.896234 109.271883 
L 604.532978 109.095844 
L 605.169722 108.567726 
L 607.079954 108.215648 
L 608.353442 107.511491 
L 608.990186 106.807335 
L 610.263674 106.543276 
L 614.720882 105.531051 
L 615.357626 105.355012 
L 616.631114 105.311002 
L 617.267859 105.002934 
L 619.814835 104.562836 
L 620.451579 104.254768 
L 622.361811 103.990709 
L 624.908787 103.198533 
L 626.819019 102.758435 
L 628.729251 102.274328 
L 631.276227 101.482152 
L 631.912971 101.350122 
L 632.549715 101.042054 
L 633.186459 100.954034 
L 633.823203 100.733985 
L 634.459947 100.337897 
L 636.370179 99.633741 
L 637.006923 99.149633 
L 638.280411 98.797555 
L 638.917155 98.533496 
L 640.190643 98.181418 
L 642.737619 97.037164 
L 644.647851 96.905134 
L 647.194827 96.112958 
L 647.831571 95.71687 
L 649.105059 95.320782 
L 651.015291 94.352567 
L 651.652035 94.220538 
L 652.288779 93.912469 
L 652.925523 93.82445 
L 659.929707 91.491932 
L 662.476683 90.875795 
L 663.113427 90.699756 
L 664.386915 90.127628 
L 665.023659 90.039609 
L 666.297147 89.687531 
L 666.933891 89.203423 
L 667.570635 88.895355 
L 668.207379 88.147188 
L 668.844123 87.70709 
L 670.117611 87.311002 
L 670.754355 86.782885 
L 677.758539 83.922249 
L 679.032027 83.614181 
L 680.305515 83.042054 
L 682.215747 81.941809 
L 682.852491 81.80978 
L 683.489235 81.325672 
L 684.762723 80.709535 
L 686.036211 79.917359 
L 687.946444 79.037164 
L 688.583188 78.597066 
L 689.856676 78.112958 
L 691.130164 77.364792 
L 691.766908 77.056724 
L 692.403652 76.616626 
L 693.67714 76.176528 
L 694.313884 76.044499 
L 696.86086 74.900244 
L 700.04458 73.8 
L 700.681324 73.75599 
L 701.318068 73.579951 
L 701.954812 73.183863 
L 702.591556 73.095844 
L 703.2283 72.875795 
L 705.138532 72.523716 
L 708.322252 70.895355 
L 709.59574 70.191198 
L 710.232484 70.103178 
L 712.142716 69.090954 
L 714.052948 68.386797 
L 715.96318 67.550611 
L 718.510156 66.538386 
L 719.1469 66.362347 
L 719.783644 65.966259 
L 721.057132 65.79022 
L 721.693876 65.394132 
L 722.33062 65.350122 
L 723.604108 64.954034 
L 724.877596 64.337897 
L 725.51434 64.249878 
L 726.151084 63.985819 
L 726.787828 63.85379 
L 728.69806 63.017604 
L 729.334804 62.885575 
L 729.971548 62.621516 
L 733.155268 61.87335 
L 735.0655 61.125183 
L 736.975732 59.980929 
L 738.24922 59.452812 
L 738.885964 59.188753 
L 739.522708 58.792665 
L 740.796196 58.528606 
L 741.43294 58.176528 
L 742.069684 58.044499 
L 743.343172 57.340342 
L 746.526892 55.8 
L 747.163636 55.8 
L 747.163636 55.8 
" clip-path="url(#p73319fdfcc)" style="fill: none; stroke: #1f77b4; stroke-width: 1.5; stroke-linecap: square"/>
   </g>
   <g id="line2d_34">
    <path d="M 139.073108 307.8 
L 140.98334 307.71198 
L 142.893572 307.667971 
L 146.714036 307.579951 
L 149.897756 307.447922 
L 152.444732 307.447922 
L 153.081476 307.271883 
L 155.628452 307.183863 
L 157.538684 306.963814 
L 159.448916 306.787775 
L 163.26938 306.611736 
L 163.906124 306.611736 
L 164.542868 306.479707 
L 167.089844 306.391687 
L 168.363332 306.303667 
L 173.457284 306.215648 
L 176.641004 306.083619 
L 184.281932 305.995599 
L 187.465652 305.86357 
L 191.286116 305.77555 
L 193.833092 305.687531 
L 199.563789 305.599511 
L 201.474021 305.555501 
L 203.384253 305.511491 
L 205.294485 305.291443 
L 209.114949 305.247433 
L 210.388437 305.159413 
L 214.845645 305.071394 
L 221.849829 304.675306 
L 226.307037 304.587286 
L 227.580525 304.499267 
L 229.490757 304.411247 
L 233.311221 304.235208 
L 235.858197 304.191198 
L 237.768429 304.015159 
L 247.956333 303.399022 
L 250.503309 303.311002 
L 254.960517 303.090954 
L 256.870749 303.002934 
L 263.238189 302.650856 
L 270.242374 302.562836 
L 272.78935 302.298778 
L 274.062838 302.210758 
L 282.34051 301.550611 
L 286.160974 301.066504 
L 288.70795 300.978484 
L 293.801902 300.318337 
L 296.985622 300.230318 
L 305.263294 299.570171 
L 308.447014 299.218093 
L 310.99399 299.130073 
L 312.267478 299.042054 
L 314.814454 298.954034 
L 316.087942 298.866015 
L 319.271662 298.557946 
L 319.908406 298.381907 
L 323.72887 298.205868 
L 326.91259 298.117848 
L 335.190262 297.633741 
L 337.100494 297.545721 
L 345.378167 297.061614 
L 349.835375 296.973594 
L 350.472119 296.841565 
L 355.566071 296.753545 
L 360.023279 296.533496 
L 367.027463 296.445477 
L 371.484671 296.225428 
L 376.578623 296.137408 
L 381.672575 295.87335 
L 386.129783 295.78533 
L 398.227919 295.037164 
L 403.321871 294.949144 
L 419.877216 293.89291 
L 423.69768 293.80489 
L 425.607912 293.76088 
L 427.518144 293.71687 
L 429.428376 293.540831 
L 434.522328 293.452812 
L 435.795816 293.232763 
L 437.069304 293.144743 
L 440.253024 293.012714 
L 441.526512 292.924694 
L 442.8 292.836675 
L 448.530696 292.748655 
L 449.804184 292.616626 
L 452.35116 292.572616 
L 452.987904 292.440587 
L 454.261392 292.352567 
L 454.898136 292.220538 
L 456.808368 292.132518 
L 467.633016 291.472372 
L 469.543248 291.384352 
L 472.726968 291.252323 
L 481.641385 291.164303 
L 486.098593 290.944254 
L 491.192545 290.856235 
L 493.739521 290.768215 
L 496.286497 290.724205 
L 497.559985 290.592176 
L 500.106961 290.504156 
L 506.474401 290.152078 
L 510.294865 290.108068 
L 512.205097 289.932029 
L 514.115329 289.88802 
L 518.572537 289.8 
L 521.119513 289.71198 
L 528.760441 289.623961 
L 531.944161 289.491932 
L 535.764625 289.403912 
L 537.674857 289.183863 
L 541.495321 289.139853 
L 543.405553 288.963814 
L 545.952529 288.875795 
L 553.593458 288.787775 
L 556.777178 288.655746 
L 567.601826 288.611736 
L 568.875314 288.523716 
L 570.785546 288.479707 
L 579.063218 288.391687 
L 580.336706 288.303667 
L 587.34089 288.215648 
L 589.887866 288.127628 
L 597.528794 288.083619 
L 598.802282 287.995599 
L 608.353442 287.951589 
L 610.263674 287.77555 
L 621.088323 287.687531 
L 622.998555 287.643521 
L 639.553899 287.555501 
L 641.464131 287.511491 
L 653.562267 287.423472 
L 656.109243 287.335452 
L 660.566451 287.247433 
L 665.660403 286.983374 
L 668.207379 286.895355 
L 670.754355 286.807335 
L 674.574819 286.719315 
L 676.485051 286.675306 
L 679.032027 286.587286 
L 680.942259 286.543276 
L 684.125979 286.455257 
L 685.399467 286.367237 
L 689.219932 286.279218 
L 692.403652 286.147188 
L 693.67714 286.103178 
L 695.587372 285.927139 
L 699.407836 285.83912 
L 701.954812 285.7511 
L 708.322252 285.663081 
L 711.505972 285.531051 
L 717.873412 285.443032 
L 722.33062 285.222983 
L 728.061316 285.134963 
L 729.334804 285.046944 
L 736.975732 284.958924 
L 738.885964 284.914914 
L 745.890148 284.826895 
L 747.163636 284.738875 
L 747.163636 284.738875 
" clip-path="url(#p73319fdfcc)" style="fill: none; stroke: #ff7f0e; stroke-width: 1.5; stroke-linecap: square"/>
   </g>
   <g id="patch_3">
    <path d="M 108 320.4 
L 108 43.2 
" style="fill: none; stroke: #a9a9a9; stroke-width: 0.8; stroke-linejoin: miter; stroke-linecap: square"/>
   </g>
   <g id="patch_4">
    <path d="M 777.6 320.4 
L 777.6 43.2 
" style="fill: none"/>
   </g>
   <g id="patch_5">
    <path d="M 108 320.4 
L 777.6 320.4 
" style="fill: none; stroke: #a9a9a9; stroke-width: 0.8; stroke-linejoin: miter; stroke-linecap: square"/>
   </g>
   <g id="patch_6">
    <path d="M 108 43.2 
L 777.6 43.2 
" style="fill: none"/>
   </g>
   <g id="text_17">
    <!-- get_subscribe history -->
    <g style="fill: #a9a9a9" transform="translate(378.6075 37.2) scale(0.12 -0.12)">
     <defs>
      <path id="DejaVuSans-67" d="M 2906 1791 
Q 2906 2416 2648 2759 
Q 2391 3103 1925 3103 
Q 1463 3103 1205 2759 
Q 947 2416 947 1791 
Q 947 1169 1205 825 
Q 1463 481 1925 481 
Q 2391 481 2648 825 
Q 2906 1169 2906 1791 
z
M 3481 434 
Q 3481 -459 3084 -895 
Q 2688 -1331 1869 -1331 
Q 1566 -1331 1297 -1286 
Q 1028 -1241 775 -1147 
L 775 -588 
Q 1028 -725 1275 -790 
Q 1522 -856 1778 -856 
Q 2344 -856 2625 -561 
Q 2906 -266 2906 331 
L 2906 616 
Q 2728 306 2450 153 
Q 2172 0 1784 0 
Q 1141 0 747 490 
Q 353 981 353 1791 
Q 353 2603 747 3093 
Q 1141 3584 1784 3584 
Q 2172 3584 2450 3431 
Q 2728 3278 2906 2969 
L 2906 3500 
L 3481 3500 
L 3481 434 
z
" transform="scale(0.015625)"/>
      <path id="DejaVuSans-65" d="M 3597 1894 
L 3597 1613 
L 953 1613 
Q 991 1019 1311 708 
Q 1631 397 2203 397 
Q 2534 397 2845 478 
Q 3156 559 3463 722 
L 3463 178 
Q 3153 47 2828 -22 
Q 2503 -91 2169 -91 
Q 1331 -91 842 396 
Q 353 884 353 1716 
Q 353 2575 817 3079 
Q 1281 3584 2069 3584 
Q 2775 3584 3186 3129 
Q 3597 2675 3597 1894 
z
M 3022 2063 
Q 3016 2534 2758 2815 
Q 2500 3097 2075 3097 
Q 1594 3097 1305 2825 
Q 1016 2553 972 2059 
L 3022 2063 
z
" transform="scale(0.015625)"/>
      <path id="DejaVuSans-74" d="M 1172 4494 
L 1172 3500 
L 2356 3500 
L 2356 3053 
L 1172 3053 
L 1172 1153 
Q 1172 725 1289 603 
Q 1406 481 1766 481 
L 2356 481 
L 2356 0 
L 1766 0 
Q 1100 0 847 248 
Q 594 497 594 1153 
L 594 3053 
L 172 3053 
L 172 3500 
L 594 3500 
L 594 4494 
L 1172 4494 
z
" transform="scale(0.015625)"/>
      <path id="DejaVuSans-5f" d="M 3263 -1063 
L 3263 -1509 
L -63 -1509 
L -63 -1063 
L 3263 -1063 
z
" transform="scale(0.015625)"/>
      <path id="DejaVuSans-73" d="M 2834 3397 
L 2834 2853 
Q 2591 2978 2328 3040 
Q 2066 3103 1784 3103 
Q 1356 3103 1142 2972 
Q 928 2841 928 2578 
Q 928 2378 1081 2264 
Q 1234 2150 1697 2047 
L 1894 2003 
Q 2506 1872 2764 1633 
Q 3022 1394 3022 966 
Q 3022 478 2636 193 
Q 2250 -91 1575 -91 
Q 1294 -91 989 -36 
Q 684 19 347 128 
L 347 722 
Q 666 556 975 473 
Q 1284 391 1588 391 
Q 1994 391 2212 530 
Q 2431 669 2431 922 
Q 2431 1156 2273 1281 
Q 2116 1406 1581 1522 
L 1381 1569 
Q 847 1681 609 1914 
Q 372 2147 372 2553 
Q 372 3047 722 3315 
Q 1072 3584 1716 3584 
Q 2034 3584 2315 3537 
Q 2597 3491 2834 3397 
z
" transform="scale(0.015625)"/>
      <path id="DejaVuSans-75" d="M 544 1381 
L 544 3500 
L 1119 3500 
L 1119 1403 
Q 1119 906 1312 657 
Q 1506 409 1894 409 
Q 2359 409 2629 706 
Q 2900 1003 2900 1516 
L 2900 3500 
L 3475 3500 
L 3475 0 
L 2900 0 
L 2900 538 
Q 2691 219 2414 64 
Q 2138 -91 1772 -91 
Q 1169 -91 856 284 
Q 544 659 544 1381 
z
M 1991 3584 
L 1991 3584 
z
" transform="scale(0.015625)"/>
      <path id="DejaVuSans-62" d="M 3116 1747 
Q 3116 2381 2855 2742 
Q 2594 3103 2138 3103 
Q 1681 3103 1420 2742 
Q 1159 2381 1159 1747 
Q 1159 1113 1420 752 
Q 1681 391 2138 391 
Q 2594 391 2855 752 
Q 3116 1113 3116 1747 
z
M 1159 2969 
Q 1341 3281 1617 3432 
Q 1894 3584 2278 3584 
Q 2916 3584 3314 3078 
Q 3713 2572 3713 1747 
Q 3713 922 3314 415 
Q 2916 -91 2278 -91 
Q 1894 -91 1617 61 
Q 1341 213 1159 525 
L 1159 0 
L 581 0 
L 581 4863 
L 1159 4863 
L 1159 2969 
z
" transform="scale(0.015625)"/>
      <path id="DejaVuSans-63" d="M 3122 3366 
L 3122 2828 
Q 2878 2963 2633 3030 
Q 2388 3097 2138 3097 
Q 1578 3097 1268 2742 
Q 959 2388 959 1747 
Q 959 1106 1268 751 
Q 1578 397 2138 397 
Q 2388 397 2633 464 
Q 2878 531 3122 666 
L 3122 134 
Q 2881 22 2623 -34 
Q 2366 -91 2075 -91 
Q 1284 -91 818 406 
Q 353 903 353 1747 
Q 353 2603 823 3093 
Q 1294 3584 2113 3584 
Q 2378 3584 2631 3529 
Q 2884 3475 3122 3366 
z
" transform="scale(0.015625)"/>
      <path id="DejaVuSans-72" d="M 2631 2963 
Q 2534 3019 2420 3045 
Q 2306 3072 2169 3072 
Q 1681 3072 1420 2755 
Q 1159 2438 1159 1844 
L 1159 0 
L 581 0 
L 581 3500 
L 1159 3500 
L 1159 2956 
Q 1341 3275 1631 3429 
Q 1922 3584 2338 3584 
Q 2397 3584 2469 3576 
Q 2541 3569 2628 3553 
L 2631 2963 
z
" transform="scale(0.015625)"/>
      <path id="DejaVuSans-69" d="M 603 3500 
L 1178 3500 
L 1178 0 
L 603 0 
L 603 3500 
z
M 603 4863 
L 1178 4863 
L 1178 4134 
L 603 4134 
L 603 4863 
z
" transform="scale(0.015625)"/>
      <path id="DejaVuSans-20" transform="scale(0.015625)"/>
      <path id="DejaVuSans-68" d="M 3513 2113 
L 3513 0 
L 2938 0 
L 2938 2094 
Q 2938 2591 2744 2837 
Q 2550 3084 2163 3084 
Q 1697 3084 1428 2787 
Q 1159 2491 1159 1978 
L 1159 0 
L 581 0 
L 581 4863 
L 1159 4863 
L 1159 2956 
Q 1366 3272 1645 3428 
Q 1925 3584 2291 3584 
Q 2894 3584 3203 3211 
Q 3513 2838 3513 2113 
z
" transform="scale(0.015625)"/>
      <path id="DejaVuSans-6f" d="M 1959 3097 
Q 1497 3097 1228 2736 
Q 959 2375 959 1747 
Q 959 1119 1226 758 
Q 1494 397 1959 397 
Q 2419 397 2687 759 
Q 2956 1122 2956 1747 
Q 2956 2369 2687 2733 
Q 2419 3097 1959 3097 
z
M 1959 3584 
Q 2709 3584 3137 3096 
Q 3566 2609 3566 1747 
Q 3566 888 3137 398 
Q 2709 -91 1959 -91 
Q 1206 -91 779 398 
Q 353 888 353 1747 
Q 353 2609 779 3096 
Q 1206 3584 1959 3584 
z
" transform="scale(0.015625)"/>
      <path id="DejaVuSans-79" d="M 2059 -325 
Q 1816 -950 1584 -1140 
Q 1353 -1331 966 -1331 
L 506 -1331 
L 506 -850 
L 844 -850 
Q 1081 -850 1212 -737 
Q 1344 -625 1503 -206 
L 1606 56 
L 191 3500 
L 800 3500 
L 1894 763 
L 2988 3500 
L 3597 3500 
L 2059 -325 
z
" transform="scale(0.015625)"/>
     </defs>
     <use xlink:href="#DejaVuSans-67"/>
     <use xlink:href="#DejaVuSans-65" x="63.476562"/>
     <use xlink:href="#DejaVuSans-74" x="125"/>
     <use xlink:href="#DejaVuSans-5f" x="164.208984"/>
     <use xlink:href="#DejaVuSans-73" x="214.208984"/>
     <use xlink:href="#DejaVuSans-75" x="266.308594"/>
     <use xlink:href="#DejaVuSans-62" x="329.6875"/>
     <use xlink:href="#DejaVuSans-73" x="393.164062"/>
     <use xlink:href="#DejaVuSans-63" x="445.263672"/>
     <use xlink:href="#DejaVuSans-72" x="500.244141"/>
     <use xlink:href="#DejaVuSans-69" x="541.357422"/>
     <use xlink:href="#DejaVuSans-62" x="569.140625"/>
     <use xlink:href="#DejaVuSans-65" x="632.617188"/>
     <use xlink:href="#DejaVuSans-20" x="694.140625"/>
     <use xlink:href="#DejaVuSans-68" x="725.927734"/>
     <use xlink:href="#DejaVuSans-69" x="789.306641"/>
     <use xlink:href="#DejaVuSans-73" x="817.089844"/>
     <use xlink:href="#DejaVuSans-74" x="869.189453"/>
     <use xlink:href="#DejaVuSans-6f" x="908.398438"/>
     <use xlink:href="#DejaVuSans-72" x="969.580078"/>
     <use xlink:href="#DejaVuSans-79" x="1010.693359"/>
    </g>
   </g>
   <g id="legend_1">
    <g id="line2d_35">
     <path d="M 815.08 328.498438 
L 825.08 328.498438 
L 835.08 328.498438 
" style="fill: none; stroke: #1f77b4; stroke-width: 1.5; stroke-linecap: square"/>
    </g>
    <g id="text_18">
     <!-- star -->
     <g style="fill: #a9a9a9" transform="translate(843.08 331.998438) scale(0.1 -0.1)">
      <defs>
       <path id="DejaVuSans-61" d="M 2194 1759 
Q 1497 1759 1228 1600 
Q 959 1441 959 1056 
Q 959 750 1161 570 
Q 1363 391 1709 391 
Q 2188 391 2477 730 
Q 2766 1069 2766 1631 
L 2766 1759 
L 2194 1759 
z
M 3341 1997 
L 3341 0 
L 2766 0 
L 2766 531 
Q 2569 213 2275 61 
Q 1981 -91 1556 -91 
Q 1019 -91 701 211 
Q 384 513 384 1019 
Q 384 1609 779 1909 
Q 1175 2209 1959 2209 
L 2766 2209 
L 2766 2266 
Q 2766 2663 2505 2880 
Q 2244 3097 1772 3097 
Q 1472 3097 1187 3025 
Q 903 2953 641 2809 
L 641 3341 
Q 956 3463 1253 3523 
Q 1550 3584 1831 3584 
Q 2591 3584 2966 3190 
Q 3341 2797 3341 1997 
z
" transform="scale(0.015625)"/>
      </defs>
      <use xlink:href="#DejaVuSans-73"/>
      <use xlink:href="#DejaVuSans-74" x="52.099609"/>
      <use xlink:href="#DejaVuSans-61" x="91.308594"/>
      <use xlink:href="#DejaVuSans-72" x="152.587891"/>
     </g>
    </g>
    <g id="line2d_36">
     <path d="M 815.08 343.176562 
L 825.08 343.176562 
L 835.08 343.176562 
" style="fill: none; stroke: #ff7f0e; stroke-width: 1.5; stroke-linecap: square"/>
    </g>
    <g id="text_19">
     <!-- fork -->
     <g style="fill: #a9a9a9" transform="translate(843.08 346.676562) scale(0.1 -0.1)">
      <defs>
       <path id="DejaVuSans-66" d="M 2375 4863 
L 2375 4384 
L 1825 4384 
Q 1516 4384 1395 4259 
Q 1275 4134 1275 3809 
L 1275 3500 
L 2222 3500 
L 2222 3053 
L 1275 3053 
L 1275 0 
L 697 0 
L 697 3053 
L 147 3053 
L 147 3500 
L 697 3500 
L 697 3744 
Q 697 4328 969 4595 
Q 1241 4863 1831 4863 
L 2375 4863 
z
" transform="scale(0.015625)"/>
       <path id="DejaVuSans-6b" d="M 581 4863 
L 1159 4863 
L 1159 1991 
L 2875 3500 
L 3609 3500 
L 1753 1863 
L 3688 0 
L 2938 0 
L 1159 1709 
L 1159 0 
L 581 0 
L 581 4863 
z
" transform="scale(0.015625)"/>
      </defs>
      <use xlink:href="#DejaVuSans-66"/>
      <use xlink:href="#DejaVuSans-6f" x="35.205078"/>
      <use xlink:href="#DejaVuSans-72" x="96.386719"/>
      <use xlink:href="#DejaVuSans-6b" x="137.5"/>
     </g>
    </g>
   </g>
  </g>
 </g>
 <defs>
  <clipPath id="p73319fdfcc">
   <rect x="108" y="43.2" width="669.6" height="277.2"/>
  </clipPath>
 </defs>
</svg>
