<?xml version="1.0" encoding="utf-8" standalone="no"?>
<!DOCTYPE svg PUBLIC "-//W3C//DTD SVG 1.1//EN"
  "http://www.w3.org/Graphics/SVG/1.1/DTD/svg11.dtd">
<svg xmlns:xlink="http://www.w3.org/1999/xlink" width="864pt" height="360pt" viewBox="0 0 864 360" xmlns="http://www.w3.org/2000/svg" version="1.1">
 <metadata>
  <rdf:RDF xmlns:dc="http://purl.org/dc/elements/1.1/" xmlns:cc="http://creativecommons.org/ns#" xmlns:rdf="http://www.w3.org/1999/02/22-rdf-syntax-ns#">
   <cc:Work>
    <dc:type rdf:resource="http://purl.org/dc/dcmitype/StillImage"/>
    <dc:date>2025-01-09T08:13:36.037583</dc:date>
    <dc:format>image/svg+xml</dc:format>
    <dc:creator>
     <cc:Agent>
      <dc:title>Matplotlib v3.10.0, https://matplotlib.org/</dc:title>
     </cc:Agent>
    </dc:creator>
   </cc:Work>
  </rdf:RDF>
 </metadata>
 <defs>
  <style type="text/css">*{stroke-linejoin: round; stroke-linecap: butt}</style>
 </defs>
 <g id="figure_1">
  <g id="patch_1">
   <path d="M 0 360 
L 864 360 
L 864 0 
L 0 0 
L 0 360 
z
" style="fill: none; opacity: 0"/>
  </g>
  <g id="axes_1">
   <g id="patch_2">
    <path d="M 108 320.4 
L 777.6 320.4 
L 777.6 43.2 
L 108 43.2 
L 108 320.4 
z
" style="fill: none; opacity: 0"/>
   </g>
   <g id="matplotlib.axis_1">
    <g id="xtick_1">
     <g id="line2d_1">
      <path d="M 127.368595 320.4 
L 127.368595 43.2 
" clip-path="url(#p21793a51f2)" style="fill: none; stroke-dasharray: 5.12,1.28,0.8,1.28; stroke-dashoffset: 0; stroke: #b0b0b0; stroke-width: 0.8"/>
     </g>
     <g id="line2d_2">
      <defs>
       <path id="m3d77636bcf" d="M 0 0 
L 0 3.5 
" style="stroke: #a9a9a9; stroke-width: 0.8"/>
      </defs>
      <g>
       <use xlink:href="#m3d77636bcf" x="127.368595" y="320.4" style="fill: #a9a9a9; stroke: #a9a9a9; stroke-width: 0.8"/>
      </g>
     </g>
     <g id="text_1">
      <!-- 2021-07 -->
      <g style="fill: #a9a9a9" transform="translate(106.477189 334.998438) scale(0.1 -0.1)">
       <defs>
        <path id="DejaVuSans-32" d="M 1228 531 
L 3431 531 
L 3431 0 
L 469 0 
L 469 531 
Q 828 903 1448 1529 
Q 2069 2156 2228 2338 
Q 2531 2678 2651 2914 
Q 2772 3150 2772 3378 
Q 2772 3750 2511 3984 
Q 2250 4219 1831 4219 
Q 1534 4219 1204 4116 
Q 875 4013 500 3803 
L 500 4441 
Q 881 4594 1212 4672 
Q 1544 4750 1819 4750 
Q 2544 4750 2975 4387 
Q 3406 4025 3406 3419 
Q 3406 3131 3298 2873 
Q 3191 2616 2906 2266 
Q 2828 2175 2409 1742 
Q 1991 1309 1228 531 
z
" transform="scale(0.015625)"/>
        <path id="DejaVuSans-30" d="M 2034 4250 
Q 1547 4250 1301 3770 
Q 1056 3291 1056 2328 
Q 1056 1369 1301 889 
Q 1547 409 2034 409 
Q 2525 409 2770 889 
Q 3016 1369 3016 2328 
Q 3016 3291 2770 3770 
Q 2525 4250 2034 4250 
z
M 2034 4750 
Q 2819 4750 3233 4129 
Q 3647 3509 3647 2328 
Q 3647 1150 3233 529 
Q 2819 -91 2034 -91 
Q 1250 -91 836 529 
Q 422 1150 422 2328 
Q 422 3509 836 4129 
Q 1250 4750 2034 4750 
z
" transform="scale(0.015625)"/>
        <path id="DejaVuSans-31" d="M 794 531 
L 1825 531 
L 1825 4091 
L 703 3866 
L 703 4441 
L 1819 4666 
L 2450 4666 
L 2450 531 
L 3481 531 
L 3481 0 
L 794 0 
L 794 531 
z
" transform="scale(0.015625)"/>
        <path id="DejaVuSans-2d" d="M 313 2009 
L 1997 2009 
L 1997 1497 
L 313 1497 
L 313 2009 
z
" transform="scale(0.015625)"/>
        <path id="DejaVuSans-37" d="M 525 4666 
L 3525 4666 
L 3525 4397 
L 1831 0 
L 1172 0 
L 2766 4134 
L 525 4134 
L 525 4666 
z
" transform="scale(0.015625)"/>
       </defs>
       <use xlink:href="#DejaVuSans-32"/>
       <use xlink:href="#DejaVuSans-30" transform="translate(63.623047 0)"/>
       <use xlink:href="#DejaVuSans-32" transform="translate(127.246094 0)"/>
       <use xlink:href="#DejaVuSans-31" transform="translate(190.869141 0)"/>
       <use xlink:href="#DejaVuSans-2d" transform="translate(254.492188 0)"/>
       <use xlink:href="#DejaVuSans-30" transform="translate(290.576172 0)"/>
       <use xlink:href="#DejaVuSans-37" transform="translate(354.199219 0)"/>
      </g>
     </g>
    </g>
    <g id="xtick_2">
     <g id="line2d_3">
      <path d="M 215.910744 320.4 
L 215.910744 43.2 
" clip-path="url(#p21793a51f2)" style="fill: none; stroke-dasharray: 5.12,1.28,0.8,1.28; stroke-dashoffset: 0; stroke: #b0b0b0; stroke-width: 0.8"/>
     </g>
     <g id="line2d_4">
      <g>
       <use xlink:href="#m3d77636bcf" x="215.910744" y="320.4" style="fill: #a9a9a9; stroke: #a9a9a9; stroke-width: 0.8"/>
      </g>
     </g>
     <g id="text_2">
      <!-- 2022-01 -->
      <g style="fill: #a9a9a9" transform="translate(195.019338 334.998438) scale(0.1 -0.1)">
       <use xlink:href="#DejaVuSans-32"/>
       <use xlink:href="#DejaVuSans-30" transform="translate(63.623047 0)"/>
       <use xlink:href="#DejaVuSans-32" transform="translate(127.246094 0)"/>
       <use xlink:href="#DejaVuSans-32" transform="translate(190.869141 0)"/>
       <use xlink:href="#DejaVuSans-2d" transform="translate(254.492188 0)"/>
       <use xlink:href="#DejaVuSans-30" transform="translate(290.576172 0)"/>
       <use xlink:href="#DejaVuSans-31" transform="translate(354.199219 0)"/>
      </g>
     </g>
    </g>
    <g id="xtick_3">
     <g id="line2d_5">
      <path d="M 303.009271 320.4 
L 303.009271 43.2 
" clip-path="url(#p21793a51f2)" style="fill: none; stroke-dasharray: 5.12,1.28,0.8,1.28; stroke-dashoffset: 0; stroke: #b0b0b0; stroke-width: 0.8"/>
     </g>
     <g id="line2d_6">
      <g>
       <use xlink:href="#m3d77636bcf" x="303.009271" y="320.4" style="fill: #a9a9a9; stroke: #a9a9a9; stroke-width: 0.8"/>
      </g>
     </g>
     <g id="text_3">
      <!-- 2022-07 -->
      <g style="fill: #a9a9a9" transform="translate(282.117864 334.998438) scale(0.1 -0.1)">
       <use xlink:href="#DejaVuSans-32"/>
       <use xlink:href="#DejaVuSans-30" transform="translate(63.623047 0)"/>
       <use xlink:href="#DejaVuSans-32" transform="translate(127.246094 0)"/>
       <use xlink:href="#DejaVuSans-32" transform="translate(190.869141 0)"/>
       <use xlink:href="#DejaVuSans-2d" transform="translate(254.492188 0)"/>
       <use xlink:href="#DejaVuSans-30" transform="translate(290.576172 0)"/>
       <use xlink:href="#DejaVuSans-37" transform="translate(354.199219 0)"/>
      </g>
     </g>
    </g>
    <g id="xtick_4">
     <g id="line2d_7">
      <path d="M 391.551419 320.4 
L 391.551419 43.2 
" clip-path="url(#p21793a51f2)" style="fill: none; stroke-dasharray: 5.12,1.28,0.8,1.28; stroke-dashoffset: 0; stroke: #b0b0b0; stroke-width: 0.8"/>
     </g>
     <g id="line2d_8">
      <g>
       <use xlink:href="#m3d77636bcf" x="391.551419" y="320.4" style="fill: #a9a9a9; stroke: #a9a9a9; stroke-width: 0.8"/>
      </g>
     </g>
     <g id="text_4">
      <!-- 2023-01 -->
      <g style="fill: #a9a9a9" transform="translate(370.660013 334.998438) scale(0.1 -0.1)">
       <defs>
        <path id="DejaVuSans-33" d="M 2597 2516 
Q 3050 2419 3304 2112 
Q 3559 1806 3559 1356 
Q 3559 666 3084 287 
Q 2609 -91 1734 -91 
Q 1441 -91 1130 -33 
Q 819 25 488 141 
L 488 750 
Q 750 597 1062 519 
Q 1375 441 1716 441 
Q 2309 441 2620 675 
Q 2931 909 2931 1356 
Q 2931 1769 2642 2001 
Q 2353 2234 1838 2234 
L 1294 2234 
L 1294 2753 
L 1863 2753 
Q 2328 2753 2575 2939 
Q 2822 3125 2822 3475 
Q 2822 3834 2567 4026 
Q 2313 4219 1838 4219 
Q 1578 4219 1281 4162 
Q 984 4106 628 3988 
L 628 4550 
Q 988 4650 1302 4700 
Q 1616 4750 1894 4750 
Q 2613 4750 3031 4423 
Q 3450 4097 3450 3541 
Q 3450 3153 3228 2886 
Q 3006 2619 2597 2516 
z
" transform="scale(0.015625)"/>
       </defs>
       <use xlink:href="#DejaVuSans-32"/>
       <use xlink:href="#DejaVuSans-30" transform="translate(63.623047 0)"/>
       <use xlink:href="#DejaVuSans-32" transform="translate(127.246094 0)"/>
       <use xlink:href="#DejaVuSans-33" transform="translate(190.869141 0)"/>
       <use xlink:href="#DejaVuSans-2d" transform="translate(254.492188 0)"/>
       <use xlink:href="#DejaVuSans-30" transform="translate(290.576172 0)"/>
       <use xlink:href="#DejaVuSans-31" transform="translate(354.199219 0)"/>
      </g>
     </g>
    </g>
    <g id="xtick_5">
     <g id="line2d_9">
      <path d="M 478.649946 320.4 
L 478.649946 43.2 
" clip-path="url(#p21793a51f2)" style="fill: none; stroke-dasharray: 5.12,1.28,0.8,1.28; stroke-dashoffset: 0; stroke: #b0b0b0; stroke-width: 0.8"/>
     </g>
     <g id="line2d_10">
      <g>
       <use xlink:href="#m3d77636bcf" x="478.649946" y="320.4" style="fill: #a9a9a9; stroke: #a9a9a9; stroke-width: 0.8"/>
      </g>
     </g>
     <g id="text_5">
      <!-- 2023-07 -->
      <g style="fill: #a9a9a9" transform="translate(457.75854 334.998438) scale(0.1 -0.1)">
       <use xlink:href="#DejaVuSans-32"/>
       <use xlink:href="#DejaVuSans-30" transform="translate(63.623047 0)"/>
       <use xlink:href="#DejaVuSans-32" transform="translate(127.246094 0)"/>
       <use xlink:href="#DejaVuSans-33" transform="translate(190.869141 0)"/>
       <use xlink:href="#DejaVuSans-2d" transform="translate(254.492188 0)"/>
       <use xlink:href="#DejaVuSans-30" transform="translate(290.576172 0)"/>
       <use xlink:href="#DejaVuSans-37" transform="translate(354.199219 0)"/>
      </g>
     </g>
    </g>
    <g id="xtick_6">
     <g id="line2d_11">
      <path d="M 567.192095 320.4 
L 567.192095 43.2 
" clip-path="url(#p21793a51f2)" style="fill: none; stroke-dasharray: 5.12,1.28,0.8,1.28; stroke-dashoffset: 0; stroke: #b0b0b0; stroke-width: 0.8"/>
     </g>
     <g id="line2d_12">
      <g>
       <use xlink:href="#m3d77636bcf" x="567.192095" y="320.4" style="fill: #a9a9a9; stroke: #a9a9a9; stroke-width: 0.8"/>
      </g>
     </g>
     <g id="text_6">
      <!-- 2024-01 -->
      <g style="fill: #a9a9a9" transform="translate(546.300689 334.998438) scale(0.1 -0.1)">
       <defs>
        <path id="DejaVuSans-34" d="M 2419 4116 
L 825 1625 
L 2419 1625 
L 2419 4116 
z
M 2253 4666 
L 3047 4666 
L 3047 1625 
L 3713 1625 
L 3713 1100 
L 3047 1100 
L 3047 0 
L 2419 0 
L 2419 1100 
L 313 1100 
L 313 1709 
L 2253 4666 
z
" transform="scale(0.015625)"/>
       </defs>
       <use xlink:href="#DejaVuSans-32"/>
       <use xlink:href="#DejaVuSans-30" transform="translate(63.623047 0)"/>
       <use xlink:href="#DejaVuSans-32" transform="translate(127.246094 0)"/>
       <use xlink:href="#DejaVuSans-34" transform="translate(190.869141 0)"/>
       <use xlink:href="#DejaVuSans-2d" transform="translate(254.492188 0)"/>
       <use xlink:href="#DejaVuSans-30" transform="translate(290.576172 0)"/>
       <use xlink:href="#DejaVuSans-31" transform="translate(354.199219 0)"/>
      </g>
     </g>
    </g>
    <g id="xtick_7">
     <g id="line2d_13">
      <path d="M 654.771829 320.4 
L 654.771829 43.2 
" clip-path="url(#p21793a51f2)" style="fill: none; stroke-dasharray: 5.12,1.28,0.8,1.28; stroke-dashoffset: 0; stroke: #b0b0b0; stroke-width: 0.8"/>
     </g>
     <g id="line2d_14">
      <g>
       <use xlink:href="#m3d77636bcf" x="654.771829" y="320.4" style="fill: #a9a9a9; stroke: #a9a9a9; stroke-width: 0.8"/>
      </g>
     </g>
     <g id="text_7">
      <!-- 2024-07 -->
      <g style="fill: #a9a9a9" transform="translate(633.880423 334.998438) scale(0.1 -0.1)">
       <use xlink:href="#DejaVuSans-32"/>
       <use xlink:href="#DejaVuSans-30" transform="translate(63.623047 0)"/>
       <use xlink:href="#DejaVuSans-32" transform="translate(127.246094 0)"/>
       <use xlink:href="#DejaVuSans-34" transform="translate(190.869141 0)"/>
       <use xlink:href="#DejaVuSans-2d" transform="translate(254.492188 0)"/>
       <use xlink:href="#DejaVuSans-30" transform="translate(290.576172 0)"/>
       <use xlink:href="#DejaVuSans-37" transform="translate(354.199219 0)"/>
      </g>
     </g>
    </g>
    <g id="xtick_8">
     <g id="line2d_15">
      <path d="M 743.313978 320.4 
L 743.313978 43.2 
" clip-path="url(#p21793a51f2)" style="fill: none; stroke-dasharray: 5.12,1.28,0.8,1.28; stroke-dashoffset: 0; stroke: #b0b0b0; stroke-width: 0.8"/>
     </g>
     <g id="line2d_16">
      <g>
       <use xlink:href="#m3d77636bcf" x="743.313978" y="320.4" style="fill: #a9a9a9; stroke: #a9a9a9; stroke-width: 0.8"/>
      </g>
     </g>
     <g id="text_8">
      <!-- 2025-01 -->
      <g style="fill: #a9a9a9" transform="translate(722.422571 334.998438) scale(0.1 -0.1)">
       <defs>
        <path id="DejaVuSans-35" d="M 691 4666 
L 3169 4666 
L 3169 4134 
L 1269 4134 
L 1269 2991 
Q 1406 3038 1543 3061 
Q 1681 3084 1819 3084 
Q 2600 3084 3056 2656 
Q 3513 2228 3513 1497 
Q 3513 744 3044 326 
Q 2575 -91 1722 -91 
Q 1428 -91 1123 -41 
Q 819 9 494 109 
L 494 744 
Q 775 591 1075 516 
Q 1375 441 1709 441 
Q 2250 441 2565 725 
Q 2881 1009 2881 1497 
Q 2881 1984 2565 2268 
Q 2250 2553 1709 2553 
Q 1456 2553 1204 2497 
Q 953 2441 691 2322 
L 691 4666 
z
" transform="scale(0.015625)"/>
       </defs>
       <use xlink:href="#DejaVuSans-32"/>
       <use xlink:href="#DejaVuSans-30" transform="translate(63.623047 0)"/>
       <use xlink:href="#DejaVuSans-32" transform="translate(127.246094 0)"/>
       <use xlink:href="#DejaVuSans-35" transform="translate(190.869141 0)"/>
       <use xlink:href="#DejaVuSans-2d" transform="translate(254.492188 0)"/>
       <use xlink:href="#DejaVuSans-30" transform="translate(290.576172 0)"/>
       <use xlink:href="#DejaVuSans-31" transform="translate(354.199219 0)"/>
      </g>
     </g>
    </g>
   </g>
   <g id="matplotlib.axis_2">
    <g id="ytick_1">
     <g id="line2d_17">
      <path d="M 108 307.835083 
L 777.6 307.835083 
" clip-path="url(#p21793a51f2)" style="fill: none; stroke-dasharray: 5.12,1.28,0.8,1.28; stroke-dashoffset: 0; stroke: #b0b0b0; stroke-width: 0.8"/>
     </g>
     <g id="line2d_18">
      <defs>
       <path id="m0a258bd8a6" d="M 0 0 
L -3.5 0 
" style="stroke: #a9a9a9; stroke-width: 0.8"/>
      </defs>
      <g>
       <use xlink:href="#m0a258bd8a6" x="108" y="307.835083" style="fill: #a9a9a9; stroke: #a9a9a9; stroke-width: 0.8"/>
      </g>
     </g>
     <g id="text_9">
      <!-- 0 -->
      <g style="fill: #a9a9a9" transform="translate(94.6375 311.634302) scale(0.1 -0.1)">
       <use xlink:href="#DejaVuSans-30"/>
      </g>
     </g>
    </g>
    <g id="ytick_2">
     <g id="line2d_19">
      <path d="M 108 279.768815 
L 777.6 279.768815 
" clip-path="url(#p21793a51f2)" style="fill: none; stroke-dasharray: 5.12,1.28,0.8,1.28; stroke-dashoffset: 0; stroke: #b0b0b0; stroke-width: 0.8"/>
     </g>
     <g id="line2d_20">
      <g>
       <use xlink:href="#m0a258bd8a6" x="108" y="279.768815" style="fill: #a9a9a9; stroke: #a9a9a9; stroke-width: 0.8"/>
      </g>
     </g>
     <g id="text_10">
      <!-- 800 -->
      <g style="fill: #a9a9a9" transform="translate(81.9125 283.568034) scale(0.1 -0.1)">
       <defs>
        <path id="DejaVuSans-38" d="M 2034 2216 
Q 1584 2216 1326 1975 
Q 1069 1734 1069 1313 
Q 1069 891 1326 650 
Q 1584 409 2034 409 
Q 2484 409 2743 651 
Q 3003 894 3003 1313 
Q 3003 1734 2745 1975 
Q 2488 2216 2034 2216 
z
M 1403 2484 
Q 997 2584 770 2862 
Q 544 3141 544 3541 
Q 544 4100 942 4425 
Q 1341 4750 2034 4750 
Q 2731 4750 3128 4425 
Q 3525 4100 3525 3541 
Q 3525 3141 3298 2862 
Q 3072 2584 2669 2484 
Q 3125 2378 3379 2068 
Q 3634 1759 3634 1313 
Q 3634 634 3220 271 
Q 2806 -91 2034 -91 
Q 1263 -91 848 271 
Q 434 634 434 1313 
Q 434 1759 690 2068 
Q 947 2378 1403 2484 
z
M 1172 3481 
Q 1172 3119 1398 2916 
Q 1625 2713 2034 2713 
Q 2441 2713 2670 2916 
Q 2900 3119 2900 3481 
Q 2900 3844 2670 4047 
Q 2441 4250 2034 4250 
Q 1625 4250 1398 4047 
Q 1172 3844 1172 3481 
z
" transform="scale(0.015625)"/>
       </defs>
       <use xlink:href="#DejaVuSans-38"/>
       <use xlink:href="#DejaVuSans-30" transform="translate(63.623047 0)"/>
       <use xlink:href="#DejaVuSans-30" transform="translate(127.246094 0)"/>
      </g>
     </g>
    </g>
    <g id="ytick_3">
     <g id="line2d_21">
      <path d="M 108 251.702548 
L 777.6 251.702548 
" clip-path="url(#p21793a51f2)" style="fill: none; stroke-dasharray: 5.12,1.28,0.8,1.28; stroke-dashoffset: 0; stroke: #b0b0b0; stroke-width: 0.8"/>
     </g>
     <g id="line2d_22">
      <g>
       <use xlink:href="#m0a258bd8a6" x="108" y="251.702548" style="fill: #a9a9a9; stroke: #a9a9a9; stroke-width: 0.8"/>
      </g>
     </g>
     <g id="text_11">
      <!-- 1600 -->
      <g style="fill: #a9a9a9" transform="translate(75.55 255.501766) scale(0.1 -0.1)">
       <defs>
        <path id="DejaVuSans-36" d="M 2113 2584 
Q 1688 2584 1439 2293 
Q 1191 2003 1191 1497 
Q 1191 994 1439 701 
Q 1688 409 2113 409 
Q 2538 409 2786 701 
Q 3034 994 3034 1497 
Q 3034 2003 2786 2293 
Q 2538 2584 2113 2584 
z
M 3366 4563 
L 3366 3988 
Q 3128 4100 2886 4159 
Q 2644 4219 2406 4219 
Q 1781 4219 1451 3797 
Q 1122 3375 1075 2522 
Q 1259 2794 1537 2939 
Q 1816 3084 2150 3084 
Q 2853 3084 3261 2657 
Q 3669 2231 3669 1497 
Q 3669 778 3244 343 
Q 2819 -91 2113 -91 
Q 1303 -91 875 529 
Q 447 1150 447 2328 
Q 447 3434 972 4092 
Q 1497 4750 2381 4750 
Q 2619 4750 2861 4703 
Q 3103 4656 3366 4563 
z
" transform="scale(0.015625)"/>
       </defs>
       <use xlink:href="#DejaVuSans-31"/>
       <use xlink:href="#DejaVuSans-36" transform="translate(63.623047 0)"/>
       <use xlink:href="#DejaVuSans-30" transform="translate(127.246094 0)"/>
       <use xlink:href="#DejaVuSans-30" transform="translate(190.869141 0)"/>
      </g>
     </g>
    </g>
    <g id="ytick_4">
     <g id="line2d_23">
      <path d="M 108 223.63628 
L 777.6 223.63628 
" clip-path="url(#p21793a51f2)" style="fill: none; stroke-dasharray: 5.12,1.28,0.8,1.28; stroke-dashoffset: 0; stroke: #b0b0b0; stroke-width: 0.8"/>
     </g>
     <g id="line2d_24">
      <g>
       <use xlink:href="#m0a258bd8a6" x="108" y="223.63628" style="fill: #a9a9a9; stroke: #a9a9a9; stroke-width: 0.8"/>
      </g>
     </g>
     <g id="text_12">
      <!-- 2400 -->
      <g style="fill: #a9a9a9" transform="translate(75.55 227.435499) scale(0.1 -0.1)">
       <use xlink:href="#DejaVuSans-32"/>
       <use xlink:href="#DejaVuSans-34" transform="translate(63.623047 0)"/>
       <use xlink:href="#DejaVuSans-30" transform="translate(127.246094 0)"/>
       <use xlink:href="#DejaVuSans-30" transform="translate(190.869141 0)"/>
      </g>
     </g>
    </g>
    <g id="ytick_5">
     <g id="line2d_25">
      <path d="M 108 195.570013 
L 777.6 195.570013 
" clip-path="url(#p21793a51f2)" style="fill: none; stroke-dasharray: 5.12,1.28,0.8,1.28; stroke-dashoffset: 0; stroke: #b0b0b0; stroke-width: 0.8"/>
     </g>
     <g id="line2d_26">
      <g>
       <use xlink:href="#m0a258bd8a6" x="108" y="195.570013" style="fill: #a9a9a9; stroke: #a9a9a9; stroke-width: 0.8"/>
      </g>
     </g>
     <g id="text_13">
      <!-- 3200 -->
      <g style="fill: #a9a9a9" transform="translate(75.55 199.369231) scale(0.1 -0.1)">
       <use xlink:href="#DejaVuSans-33"/>
       <use xlink:href="#DejaVuSans-32" transform="translate(63.623047 0)"/>
       <use xlink:href="#DejaVuSans-30" transform="translate(127.246094 0)"/>
       <use xlink:href="#DejaVuSans-30" transform="translate(190.869141 0)"/>
      </g>
     </g>
    </g>
    <g id="ytick_6">
     <g id="line2d_27">
      <path d="M 108 167.503745 
L 777.6 167.503745 
" clip-path="url(#p21793a51f2)" style="fill: none; stroke-dasharray: 5.12,1.28,0.8,1.28; stroke-dashoffset: 0; stroke: #b0b0b0; stroke-width: 0.8"/>
     </g>
     <g id="line2d_28">
      <g>
       <use xlink:href="#m0a258bd8a6" x="108" y="167.503745" style="fill: #a9a9a9; stroke: #a9a9a9; stroke-width: 0.8"/>
      </g>
     </g>
     <g id="text_14">
      <!-- 4000 -->
      <g style="fill: #a9a9a9" transform="translate(75.55 171.302964) scale(0.1 -0.1)">
       <use xlink:href="#DejaVuSans-34"/>
       <use xlink:href="#DejaVuSans-30" transform="translate(63.623047 0)"/>
       <use xlink:href="#DejaVuSans-30" transform="translate(127.246094 0)"/>
       <use xlink:href="#DejaVuSans-30" transform="translate(190.869141 0)"/>
      </g>
     </g>
    </g>
    <g id="ytick_7">
     <g id="line2d_29">
      <path d="M 108 139.437477 
L 777.6 139.437477 
" clip-path="url(#p21793a51f2)" style="fill: none; stroke-dasharray: 5.12,1.28,0.8,1.28; stroke-dashoffset: 0; stroke: #b0b0b0; stroke-width: 0.8"/>
     </g>
     <g id="line2d_30">
      <g>
       <use xlink:href="#m0a258bd8a6" x="108" y="139.437477" style="fill: #a9a9a9; stroke: #a9a9a9; stroke-width: 0.8"/>
      </g>
     </g>
     <g id="text_15">
      <!-- 4800 -->
      <g style="fill: #a9a9a9" transform="translate(75.55 143.236696) scale(0.1 -0.1)">
       <use xlink:href="#DejaVuSans-34"/>
       <use xlink:href="#DejaVuSans-38" transform="translate(63.623047 0)"/>
       <use xlink:href="#DejaVuSans-30" transform="translate(127.246094 0)"/>
       <use xlink:href="#DejaVuSans-30" transform="translate(190.869141 0)"/>
      </g>
     </g>
    </g>
    <g id="ytick_8">
     <g id="line2d_31">
      <path d="M 108 111.37121 
L 777.6 111.37121 
" clip-path="url(#p21793a51f2)" style="fill: none; stroke-dasharray: 5.12,1.28,0.8,1.28; stroke-dashoffset: 0; stroke: #b0b0b0; stroke-width: 0.8"/>
     </g>
     <g id="line2d_32">
      <g>
       <use xlink:href="#m0a258bd8a6" x="108" y="111.37121" style="fill: #a9a9a9; stroke: #a9a9a9; stroke-width: 0.8"/>
      </g>
     </g>
     <g id="text_16">
      <!-- 5600 -->
      <g style="fill: #a9a9a9" transform="translate(75.55 115.170429) scale(0.1 -0.1)">
       <use xlink:href="#DejaVuSans-35"/>
       <use xlink:href="#DejaVuSans-36" transform="translate(63.623047 0)"/>
       <use xlink:href="#DejaVuSans-30" transform="translate(127.246094 0)"/>
       <use xlink:href="#DejaVuSans-30" transform="translate(190.869141 0)"/>
      </g>
     </g>
    </g>
    <g id="ytick_9">
     <g id="line2d_33">
      <path d="M 108 83.304942 
L 777.6 83.304942 
" clip-path="url(#p21793a51f2)" style="fill: none; stroke-dasharray: 5.12,1.28,0.8,1.28; stroke-dashoffset: 0; stroke: #b0b0b0; stroke-width: 0.8"/>
     </g>
     <g id="line2d_34">
      <g>
       <use xlink:href="#m0a258bd8a6" x="108" y="83.304942" style="fill: #a9a9a9; stroke: #a9a9a9; stroke-width: 0.8"/>
      </g>
     </g>
     <g id="text_17">
      <!-- 6400 -->
      <g style="fill: #a9a9a9" transform="translate(75.55 87.104161) scale(0.1 -0.1)">
       <use xlink:href="#DejaVuSans-36"/>
       <use xlink:href="#DejaVuSans-34" transform="translate(63.623047 0)"/>
       <use xlink:href="#DejaVuSans-30" transform="translate(127.246094 0)"/>
       <use xlink:href="#DejaVuSans-30" transform="translate(190.869141 0)"/>
      </g>
     </g>
    </g>
    <g id="ytick_10">
     <g id="line2d_35">
      <path d="M 108 55.238675 
L 777.6 55.238675 
" clip-path="url(#p21793a51f2)" style="fill: none; stroke-dasharray: 5.12,1.28,0.8,1.28; stroke-dashoffset: 0; stroke: #b0b0b0; stroke-width: 0.8"/>
     </g>
     <g id="line2d_36">
      <g>
       <use xlink:href="#m0a258bd8a6" x="108" y="55.238675" style="fill: #a9a9a9; stroke: #a9a9a9; stroke-width: 0.8"/>
      </g>
     </g>
     <g id="text_18">
      <!-- 7200 -->
      <g style="fill: #a9a9a9" transform="translate(75.55 59.037893) scale(0.1 -0.1)">
       <use xlink:href="#DejaVuSans-37"/>
       <use xlink:href="#DejaVuSans-32" transform="translate(63.623047 0)"/>
       <use xlink:href="#DejaVuSans-30" transform="translate(127.246094 0)"/>
       <use xlink:href="#DejaVuSans-30" transform="translate(190.869141 0)"/>
      </g>
     </g>
    </g>
   </g>
   <g id="line2d_37">
    <path d="M 138.436364 307.729834 
L 141.323608 307.484254 
L 141.804815 307.273757 
L 143.729644 307.028178 
L 145.654474 306.642266 
L 146.616888 306.501935 
L 149.022925 306.291438 
L 149.98534 305.905527 
L 150.466547 305.274036 
L 150.947754 304.923208 
L 151.428962 303.83564 
L 151.910169 303.765474 
L 152.391376 303.379563 
L 153.353791 302.888403 
L 155.27862 301.344758 
L 157.20345 300.397522 
L 158.647072 299.730948 
L 159.128279 298.959126 
L 160.090693 298.257469 
L 160.571901 298.046972 
L 165.383974 297.345315 
L 165.865181 297.134818 
L 169.233633 296.854156 
L 171.158462 296.398079 
L 175.008121 295.871836 
L 175.489328 295.626256 
L 175.970535 295.556091 
L 176.93295 295.240345 
L 180.301401 294.67902 
L 181.263816 294.398357 
L 185.594682 293.661618 
L 186.557097 293.451121 
L 187.519511 293.416038 
L 189.444341 292.959961 
L 189.925548 292.293387 
L 191.36917 291.732062 
L 192.812792 291.346151 
L 193.293999 291.100571 
L 194.256414 290.925157 
L 196.181243 290.363831 
L 197.143658 290.293666 
L 198.106073 290.048086 
L 200.030902 289.556926 
L 200.512109 289.521843 
L 201.474524 289.065766 
L 201.955731 288.995601 
L 202.436939 288.750021 
L 207.730219 287.87295 
L 209.655049 287.311625 
L 210.136256 286.995879 
L 212.542292 286.188974 
L 213.504707 285.5224 
L 214.948329 285.241737 
L 227.45972 281.698371 
L 227.940927 281.698371 
L 228.422134 281.487874 
L 229.384549 281.382626 
L 229.865756 281.207211 
L 231.790586 281.137046 
L 232.753 280.961632 
L 233.715415 280.470472 
L 235.159037 279.944229 
L 235.640244 279.628484 
L 236.602659 279.20749 
L 237.083866 278.96191 
L 238.046281 278.646165 
L 238.527488 278.505833 
L 239.489903 277.909425 
L 239.97111 277.383183 
L 240.933525 275.909703 
L 241.414732 275.769372 
L 241.89594 275.769372 
L 243.339562 274.927384 
L 243.820769 274.681804 
L 244.301976 274.576556 
L 244.783184 274.120479 
L 245.745598 273.734568 
L 246.708013 273.278491 
L 249.11405 270.226284 
L 252.001294 268.68264 
L 252.963708 267.910817 
L 253.444916 267.595072 
L 253.926123 266.893415 
L 254.40733 265.805847 
L 254.888538 265.069108 
L 255.369745 264.683196 
L 255.850952 264.472699 
L 259.700611 260.964416 
L 260.663026 260.087345 
L 263.550269 258.298121 
L 264.031477 258.122706 
L 265.475099 257.280718 
L 266.918721 256.333482 
L 268.84355 254.614423 
L 269.805965 254.228512 
L 270.768379 253.561938 
L 271.249587 253.281275 
L 271.730794 253.21111 
L 273.174416 252.404204 
L 273.655623 251.877962 
L 276.06166 250.579897 
L 276.542867 250.404483 
L 277.986489 249.422163 
L 285.204599 246.896199 
L 286.167014 246.019128 
L 287.129429 245.563052 
L 288.091843 245.036809 
L 288.573051 244.756146 
L 289.535465 244.475484 
L 290.016673 244.159738 
L 290.49788 244.019407 
L 291.941502 243.07217 
L 294.347539 242.510845 
L 295.791161 241.668857 
L 297.234783 241.353112 
L 297.71599 241.21278 
L 299.159612 240.125212 
L 301.084441 239.59897 
L 301.565649 239.213059 
L 304.452893 238.230739 
L 305.415307 238.055325 
L 306.377722 237.669414 
L 309.746173 236.441515 
L 310.708588 236.301183 
L 312.15221 235.810024 
L 314.558246 234.65229 
L 316.483076 233.599805 
L 320.332734 232.021078 
L 320.813942 231.950912 
L 321.776356 231.354504 
L 322.257564 231.284338 
L 324.182393 230.512516 
L 326.107222 230.266936 
L 327.069637 229.775776 
L 327.550844 229.354782 
L 328.032052 228.477711 
L 329.956881 227.951469 
L 331.400503 227.214729 
L 331.88171 227.109481 
L 335.250162 225.460587 
L 336.212576 225.215008 
L 337.174991 225.004511 
L 338.137406 224.513351 
L 338.618613 224.302854 
L 339.09982 224.232688 
L 341.02465 223.355617 
L 342.468272 222.443464 
L 343.911894 222.162801 
L 346.31793 221.566393 
L 346.799138 221.180482 
L 348.24276 220.654239 
L 350.167589 219.882417 
L 350.648796 219.531588 
L 351.130004 219.356174 
L 352.092418 218.829932 
L 354.017248 218.233524 
L 354.498455 217.987944 
L 355.942077 216.83021 
L 356.423284 216.724962 
L 357.385699 215.953139 
L 357.866906 215.882974 
L 358.348114 215.111151 
L 358.829321 214.900654 
L 359.310528 214.514743 
L 359.791736 214.444577 
L 360.75415 213.848169 
L 361.716565 213.532424 
L 362.197772 213.181595 
L 362.67898 213.006181 
L 364.122602 211.988779 
L 366.047431 210.971377 
L 366.528638 210.901211 
L 367.97226 210.164472 
L 368.453467 209.357566 
L 369.415882 208.65591 
L 369.897089 208.550661 
L 370.859504 207.954253 
L 371.340711 207.849005 
L 372.303126 207.357845 
L 374.227955 206.410608 
L 374.709163 206.05978 
L 375.671577 205.112544 
L 376.633992 204.516135 
L 377.115199 204.20039 
L 377.596407 203.674147 
L 379.521236 202.341 
L 380.002443 201.779674 
L 380.483651 201.393763 
L 381.446065 201.042935 
L 382.40848 200.411444 
L 383.852102 199.674704 
L 384.333309 199.604538 
L 385.776931 198.832716 
L 386.739346 198.236308 
L 391.551419 196.482166 
L 392.032627 196.096255 
L 393.957456 195.359516 
L 394.438663 195.219184 
L 395.401078 194.587693 
L 396.363493 194.166699 
L 397.325907 193.500125 
L 398.288322 191.570569 
L 399.250737 190.447919 
L 400.694359 189.711179 
L 401.656773 189.325268 
L 402.137981 189.255102 
L 402.619188 188.97444 
L 405.025225 188.202617 
L 405.506432 187.99212 
L 406.468847 187.325546 
L 407.912469 186.694055 
L 408.874883 186.167813 
L 409.356091 185.816985 
L 409.837298 185.606488 
L 410.318505 185.255659 
L 410.799713 184.729417 
L 411.762127 184.203174 
L 414.168164 182.905109 
L 417.055408 181.466713 
L 418.49903 181.045719 
L 419.942652 180.484394 
L 420.423859 180.133565 
L 421.386274 179.852903 
L 422.348688 179.466992 
L 422.829896 179.08108 
L 424.754725 178.414506 
L 425.71714 177.71285 
L 426.679554 177.326939 
L 427.641969 176.590199 
L 428.604384 176.239371 
L 429.085591 175.818377 
L 429.566798 175.748211 
L 430.529213 175.011472 
L 431.491628 174.520312 
L 431.972835 174.309815 
L 432.454042 173.818655 
L 435.822494 172.485507 
L 436.784908 172.064513 
L 438.22853 171.608437 
L 439.190945 171.468105 
L 439.672152 171.257608 
L 440.15336 171.187443 
L 441.115774 170.766449 
L 441.596982 170.731366 
L 443.521811 169.994626 
L 444.965433 168.977224 
L 445.44664 168.80181 
L 446.409055 168.275567 
L 446.890262 168.135236 
L 449.777506 166.521426 
L 450.258714 166.416177 
L 451.702336 165.574189 
L 453.145958 165.083029 
L 454.108372 164.767284 
L 456.033202 164.135793 
L 456.995616 163.820047 
L 458.920446 163.434136 
L 459.401653 163.223639 
L 459.88286 163.153473 
L 460.845275 162.732479 
L 461.326482 162.662314 
L 461.80769 162.416734 
L 462.770104 162.24132 
L 464.213726 161.715077 
L 465.176141 161.609829 
L 466.619763 161.294083 
L 469.025799 160.873089 
L 481.53719 157.224474 
L 482.018397 156.733315 
L 482.980812 156.347404 
L 486.830471 154.909007 
L 487.311678 154.628345 
L 488.7553 154.207351 
L 489.717715 153.961771 
L 490.198922 153.646025 
L 490.680129 153.540777 
L 491.161337 153.119783 
L 492.604959 152.83912 
L 493.567373 152.383043 
L 494.048581 151.821718 
L 495.97341 151.365641 
L 499.341861 150.663984 
L 499.823069 150.663984 
L 500.304276 150.453487 
L 502.229105 150.102659 
L 502.710313 149.892162 
L 504.635142 149.541334 
L 505.597557 149.12034 
L 506.559971 148.944926 
L 508.966008 148.348517 
L 510.890837 147.752109 
L 511.372045 147.646861 
L 511.853252 147.401281 
L 512.815667 147.155701 
L 513.296874 146.875038 
L 514.740496 146.383879 
L 515.221703 146.068133 
L 516.184118 145.78747 
L 520.033777 144.454323 
L 520.996191 144.384157 
L 522.92102 143.822832 
L 523.402228 143.542169 
L 524.364642 143.261506 
L 526.770679 142.173938 
L 527.251886 142.138856 
L 532.545167 140.279465 
L 534.951204 139.647974 
L 535.913618 139.191898 
L 537.35724 138.876152 
L 539.28207 137.297424 
L 540.244484 137.016762 
L 540.725692 136.630851 
L 543.612936 135.543283 
L 544.094143 135.227537 
L 545.056558 134.946875 
L 545.537765 134.631129 
L 547.943802 133.859307 
L 549.387424 133.017319 
L 549.868631 132.91207 
L 552.274668 131.614005 
L 553.71829 130.982514 
L 554.199497 130.631686 
L 555.161912 130.31594 
L 556.124326 129.754615 
L 556.605534 129.579201 
L 557.086741 129.228373 
L 563.342436 127.018154 
L 563.823644 126.912905 
L 564.304851 126.59716 
L 566.22968 126.211249 
L 567.192095 125.825338 
L 570.079339 124.422024 
L 570.560546 124.351859 
L 572.004168 123.544953 
L 573.44779 123.053794 
L 576.816241 121.685563 
L 577.297449 121.545232 
L 577.778656 121.229486 
L 578.741071 121.124238 
L 579.222278 120.808492 
L 580.184693 120.633078 
L 581.147107 120.177001 
L 581.628315 119.966504 
L 582.109522 119.896339 
L 584.515559 118.949102 
L 585.959181 118.563191 
L 586.921595 118.317611 
L 588.365217 117.896617 
L 589.327632 117.510706 
L 591.252461 116.458221 
L 592.214876 116.07231 
L 592.696083 115.756564 
L 593.658498 115.546067 
L 594.139705 115.265404 
L 594.620913 115.160156 
L 596.064535 114.353251 
L 597.026949 113.96734 
L 598.951779 113.2306 
L 601.357815 112.423695 
L 602.32023 111.932535 
L 604.726267 111.12563 
L 607.613511 109.967896 
L 609.53834 109.090826 
L 614.350413 107.231435 
L 614.831621 106.91569 
L 616.75645 106.249116 
L 617.237657 106.249116 
L 618.200072 105.828122 
L 620.124901 104.284477 
L 620.606109 104.144146 
L 621.087316 103.8284 
L 621.568523 103.723152 
L 622.049731 103.477572 
L 622.530938 103.407406 
L 623.012145 103.056578 
L 623.493352 102.95133 
L 624.455767 102.354921 
L 625.899389 101.618182 
L 626.861804 101.232271 
L 627.343011 100.986691 
L 628.786633 100.670945 
L 631.19267 99.86404 
L 632.155084 99.548295 
L 633.598706 98.811555 
L 634.561121 98.355478 
L 635.523536 98.109898 
L 636.967158 97.443325 
L 641.298024 95.864597 
L 642.741646 94.987526 
L 643.222853 94.882278 
L 644.185268 94.426201 
L 645.147682 94.075372 
L 645.62889 93.654378 
L 646.591304 93.268467 
L 649.478548 92.110734 
L 650.92217 91.68974 
L 651.403378 91.44416 
L 651.884585 91.373994 
L 653.328207 90.847752 
L 654.771829 90.321509 
L 655.734244 89.935598 
L 656.215451 89.549687 
L 657.659073 89.163776 
L 658.14028 88.883113 
L 659.102695 88.637533 
L 660.546317 87.830628 
L 661.027524 87.795545 
L 662.471146 87.339468 
L 663.433561 87.269303 
L 664.395976 86.883391 
L 667.28322 86.041403 
L 668.245634 86.00632 
L 672.095293 84.778421 
L 673.057708 84.252179 
L 673.538915 83.831185 
L 674.982537 82.989197 
L 675.463744 82.638368 
L 676.426159 82.28754 
L 678.832195 81.515718 
L 679.313403 81.129806 
L 682.200647 79.93699 
L 684.125476 79.410748 
L 685.087891 78.989754 
L 685.569098 78.744174 
L 686.531513 78.463511 
L 687.01272 78.182848 
L 687.975135 78.007434 
L 690.381171 76.884784 
L 690.862379 76.604121 
L 692.306001 76.253292 
L 692.787208 75.937547 
L 693.268415 75.762133 
L 693.749623 75.341139 
L 694.23083 75.270973 
L 696.155659 74.499151 
L 698.080489 74.043074 
L 698.561696 73.972908 
L 699.042903 73.762411 
L 699.524111 73.727328 
L 700.486525 73.411583 
L 700.967733 73.3765 
L 702.411355 72.815175 
L 704.336184 72.253849 
L 705.298599 71.51711 
L 707.223428 70.464625 
L 708.66705 69.973465 
L 711.554294 68.6754 
L 712.516709 68.149158 
L 712.997916 67.903578 
L 713.479123 67.447501 
L 716.366367 66.500265 
L 717.328782 66.114353 
L 718.291197 65.868773 
L 718.772404 65.623194 
L 719.253611 65.2022 
L 721.178441 64.71104 
L 721.659648 64.360212 
L 727.915343 62.079827 
L 728.877758 61.904413 
L 733.208624 60.395851 
L 734.171038 60.150271 
L 734.652246 59.939774 
L 735.133453 59.904692 
L 736.095868 59.51878 
L 737.058282 58.922372 
L 737.53949 58.746958 
L 738.020697 58.711875 
L 739.464319 58.080384 
L 740.907941 57.554142 
L 741.389148 57.483976 
L 742.351563 57.098065 
L 743.795185 56.782319 
L 745.238807 56.326243 
L 745.720014 56.220994 
L 746.201222 55.870166 
L 747.163636 55.8 
L 747.163636 55.8 
" clip-path="url(#p21793a51f2)" style="fill: none; stroke: #1f77b4; stroke-width: 1.5; stroke-linecap: square"/>
   </g>
   <g id="line2d_38">
    <path d="M 138.917571 307.8 
L 143.248437 307.694751 
L 147.098096 307.519337 
L 149.022925 307.519337 
L 149.504132 307.379006 
L 151.910169 307.273757 
L 154.797413 306.958012 
L 157.684657 306.852763 
L 158.647072 306.747515 
L 162.015523 306.607184 
L 165.383974 306.501935 
L 167.790011 306.431769 
L 174.045706 306.326521 
L 176.451743 306.256355 
L 179.820194 306.151107 
L 182.226231 306.080941 
L 187.519511 305.975693 
L 189.444341 305.800278 
L 191.36917 305.765196 
L 194.256414 305.659947 
L 196.181243 305.624864 
L 198.58728 305.554699 
L 200.512109 305.379284 
L 204.842975 305.274036 
L 205.80539 305.20387 
L 207.730219 305.098622 
L 210.617463 304.993373 
L 212.542292 304.888125 
L 221.204024 304.361882 
L 224.572476 304.256634 
L 226.016098 304.116302 
L 228.422134 304.011054 
L 233.234208 303.765474 
L 238.046281 303.695308 
L 239.97111 303.484811 
L 241.89594 303.379563 
L 247.18922 302.888403 
L 250.557672 302.502492 
L 252.001294 302.432326 
L 255.850952 301.941167 
L 258.738196 301.871001 
L 260.181818 301.73067 
L 261.62544 301.625421 
L 275.099245 300.608019 
L 276.06166 300.432605 
L 278.948904 300.327356 
L 286.648221 299.871279 
L 290.016673 299.766031 
L 291.941502 299.555534 
L 294.347539 299.450285 
L 297.234783 299.345037 
L 299.640819 299.239788 
L 301.565649 299.204706 
L 303.971685 299.13454 
L 304.9341 298.994209 
L 311.671003 298.88896 
L 312.633417 298.783712 
L 318.407905 298.678463 
L 322.738771 298.467966 
L 326.107222 298.362718 
L 328.032052 298.152221 
L 331.400503 298.046972 
L 332.362918 297.871558 
L 334.768954 297.801392 
L 339.581028 297.731227 
L 341.505857 297.555812 
L 343.430686 297.52073 
L 344.874308 297.415481 
L 346.799138 297.240067 
L 351.611211 296.994487 
L 356.423284 296.889238 
L 360.75415 296.678741 
L 362.197772 296.643659 
L 363.160187 296.503327 
L 365.566223 296.398079 
L 366.528638 296.327913 
L 367.491053 296.257747 
L 368.453467 296.187582 
L 372.784333 296.117416 
L 374.227955 296.012168 
L 387.220553 295.17018 
L 389.62659 295.064931 
L 392.032627 294.994765 
L 398.769529 294.889517 
L 399.731944 294.749186 
L 406.468847 294.643937 
L 411.28092 294.398357 
L 412.243335 294.363274 
L 413.205749 294.258026 
L 415.611786 294.152777 
L 418.017822 294.082612 
L 420.423859 293.977363 
L 422.829896 293.907198 
L 427.160762 293.801949 
L 430.048006 293.696701 
L 436.784908 293.591452 
L 442.078189 293.310789 
L 444.003018 293.240624 
L 445.44664 293.135375 
L 452.183543 293.030127 
L 455.070787 292.924878 
L 463.732519 292.81963 
L 465.657348 292.784547 
L 471.431836 292.714381 
L 472.394251 292.644216 
L 479.131153 292.538967 
L 481.055983 292.503884 
L 493.567373 292.398636 
L 495.010995 292.258304 
L 516.665325 292.153056 
L 519.071362 292.08289 
L 531.582752 292.012724 
L 532.545167 291.942559 
L 534.951204 291.872393 
L 536.394826 291.732062 
L 539.28207 291.626813 
L 542.650521 291.486482 
L 546.981387 291.381233 
L 549.387424 291.311068 
L 552.755875 291.205819 
L 556.605534 291.030405 
L 559.01157 290.925157 
L 560.9364 290.890074 
L 565.267266 290.784825 
L 567.192095 290.749742 
L 573.44779 290.644494 
L 575.372619 290.609411 
L 577.778656 290.504163 
L 580.6659 290.398914 
L 584.034351 290.328748 
L 584.996766 290.258583 
L 596.545742 290.153334 
L 602.801437 289.802506 
L 605.207474 289.73234 
L 606.169889 289.627092 
L 607.132303 289.556926 
L 610.981962 289.451678 
L 613.869206 289.346429 
L 618.681279 289.241181 
L 621.087316 288.995601 
L 625.899389 288.890352 
L 626.861804 288.785104 
L 631.673877 288.679855 
L 634.079914 288.60969 
L 639.373194 288.574607 
L 640.335609 288.469358 
L 645.62889 288.36411 
L 646.591304 288.293944 
L 657.177866 288.188696 
L 660.06511 288.083447 
L 667.28322 287.978199 
L 669.208049 287.943116 
L 673.538915 287.87295 
L 674.50133 287.767702 
L 680.757025 287.662453 
L 683.163061 287.592287 
L 691.824793 287.487039 
L 693.268415 287.38179 
L 694.712037 287.276542 
L 696.155659 287.171293 
L 703.373769 287.066045 
L 706.261013 286.960796 
L 719.253611 286.855548 
L 723.584477 286.645051 
L 729.358965 286.539802 
L 730.32138 286.434554 
L 737.53949 286.364388 
L 738.501904 286.294222 
L 743.795185 286.188974 
L 746.201222 286.118808 
L 747.163636 286.118808 
L 747.163636 286.118808 
" clip-path="url(#p21793a51f2)" style="fill: none; stroke: #ff7f0e; stroke-width: 1.5; stroke-linecap: square"/>
   </g>
   <g id="patch_3">
    <path d="M 108 320.4 
L 108 43.2 
" style="fill: none; stroke: #a9a9a9; stroke-width: 0.8; stroke-linejoin: miter; stroke-linecap: square"/>
   </g>
   <g id="patch_4">
    <path d="M 777.6 320.4 
L 777.6 43.2 
" style="fill: none"/>
   </g>
   <g id="patch_5">
    <path d="M 108 320.4 
L 777.6 320.4 
" style="fill: none; stroke: #a9a9a9; stroke-width: 0.8; stroke-linejoin: miter; stroke-linecap: square"/>
   </g>
   <g id="patch_6">
    <path d="M 108 43.2 
L 777.6 43.2 
" style="fill: none"/>
   </g>
   <g id="text_19">
    <!-- get_subscribe history -->
    <g style="fill: #a9a9a9" transform="translate(378.6075 37.2) scale(0.12 -0.12)">
     <defs>
      <path id="DejaVuSans-67" d="M 2906 1791 
Q 2906 2416 2648 2759 
Q 2391 3103 1925 3103 
Q 1463 3103 1205 2759 
Q 947 2416 947 1791 
Q 947 1169 1205 825 
Q 1463 481 1925 481 
Q 2391 481 2648 825 
Q 2906 1169 2906 1791 
z
M 3481 434 
Q 3481 -459 3084 -895 
Q 2688 -1331 1869 -1331 
Q 1566 -1331 1297 -1286 
Q 1028 -1241 775 -1147 
L 775 -588 
Q 1028 -725 1275 -790 
Q 1522 -856 1778 -856 
Q 2344 -856 2625 -561 
Q 2906 -266 2906 331 
L 2906 616 
Q 2728 306 2450 153 
Q 2172 0 1784 0 
Q 1141 0 747 490 
Q 353 981 353 1791 
Q 353 2603 747 3093 
Q 1141 3584 1784 3584 
Q 2172 3584 2450 3431 
Q 2728 3278 2906 2969 
L 2906 3500 
L 3481 3500 
L 3481 434 
z
" transform="scale(0.015625)"/>
      <path id="DejaVuSans-65" d="M 3597 1894 
L 3597 1613 
L 953 1613 
Q 991 1019 1311 708 
Q 1631 397 2203 397 
Q 2534 397 2845 478 
Q 3156 559 3463 722 
L 3463 178 
Q 3153 47 2828 -22 
Q 2503 -91 2169 -91 
Q 1331 -91 842 396 
Q 353 884 353 1716 
Q 353 2575 817 3079 
Q 1281 3584 2069 3584 
Q 2775 3584 3186 3129 
Q 3597 2675 3597 1894 
z
M 3022 2063 
Q 3016 2534 2758 2815 
Q 2500 3097 2075 3097 
Q 1594 3097 1305 2825 
Q 1016 2553 972 2059 
L 3022 2063 
z
" transform="scale(0.015625)"/>
      <path id="DejaVuSans-74" d="M 1172 4494 
L 1172 3500 
L 2356 3500 
L 2356 3053 
L 1172 3053 
L 1172 1153 
Q 1172 725 1289 603 
Q 1406 481 1766 481 
L 2356 481 
L 2356 0 
L 1766 0 
Q 1100 0 847 248 
Q 594 497 594 1153 
L 594 3053 
L 172 3053 
L 172 3500 
L 594 3500 
L 594 4494 
L 1172 4494 
z
" transform="scale(0.015625)"/>
      <path id="DejaVuSans-5f" d="M 3263 -1063 
L 3263 -1509 
L -63 -1509 
L -63 -1063 
L 3263 -1063 
z
" transform="scale(0.015625)"/>
      <path id="DejaVuSans-73" d="M 2834 3397 
L 2834 2853 
Q 2591 2978 2328 3040 
Q 2066 3103 1784 3103 
Q 1356 3103 1142 2972 
Q 928 2841 928 2578 
Q 928 2378 1081 2264 
Q 1234 2150 1697 2047 
L 1894 2003 
Q 2506 1872 2764 1633 
Q 3022 1394 3022 966 
Q 3022 478 2636 193 
Q 2250 -91 1575 -91 
Q 1294 -91 989 -36 
Q 684 19 347 128 
L 347 722 
Q 666 556 975 473 
Q 1284 391 1588 391 
Q 1994 391 2212 530 
Q 2431 669 2431 922 
Q 2431 1156 2273 1281 
Q 2116 1406 1581 1522 
L 1381 1569 
Q 847 1681 609 1914 
Q 372 2147 372 2553 
Q 372 3047 722 3315 
Q 1072 3584 1716 3584 
Q 2034 3584 2315 3537 
Q 2597 3491 2834 3397 
z
" transform="scale(0.015625)"/>
      <path id="DejaVuSans-75" d="M 544 1381 
L 544 3500 
L 1119 3500 
L 1119 1403 
Q 1119 906 1312 657 
Q 1506 409 1894 409 
Q 2359 409 2629 706 
Q 2900 1003 2900 1516 
L 2900 3500 
L 3475 3500 
L 3475 0 
L 2900 0 
L 2900 538 
Q 2691 219 2414 64 
Q 2138 -91 1772 -91 
Q 1169 -91 856 284 
Q 544 659 544 1381 
z
M 1991 3584 
L 1991 3584 
z
" transform="scale(0.015625)"/>
      <path id="DejaVuSans-62" d="M 3116 1747 
Q 3116 2381 2855 2742 
Q 2594 3103 2138 3103 
Q 1681 3103 1420 2742 
Q 1159 2381 1159 1747 
Q 1159 1113 1420 752 
Q 1681 391 2138 391 
Q 2594 391 2855 752 
Q 3116 1113 3116 1747 
z
M 1159 2969 
Q 1341 3281 1617 3432 
Q 1894 3584 2278 3584 
Q 2916 3584 3314 3078 
Q 3713 2572 3713 1747 
Q 3713 922 3314 415 
Q 2916 -91 2278 -91 
Q 1894 -91 1617 61 
Q 1341 213 1159 525 
L 1159 0 
L 581 0 
L 581 4863 
L 1159 4863 
L 1159 2969 
z
" transform="scale(0.015625)"/>
      <path id="DejaVuSans-63" d="M 3122 3366 
L 3122 2828 
Q 2878 2963 2633 3030 
Q 2388 3097 2138 3097 
Q 1578 3097 1268 2742 
Q 959 2388 959 1747 
Q 959 1106 1268 751 
Q 1578 397 2138 397 
Q 2388 397 2633 464 
Q 2878 531 3122 666 
L 3122 134 
Q 2881 22 2623 -34 
Q 2366 -91 2075 -91 
Q 1284 -91 818 406 
Q 353 903 353 1747 
Q 353 2603 823 3093 
Q 1294 3584 2113 3584 
Q 2378 3584 2631 3529 
Q 2884 3475 3122 3366 
z
" transform="scale(0.015625)"/>
      <path id="DejaVuSans-72" d="M 2631 2963 
Q 2534 3019 2420 3045 
Q 2306 3072 2169 3072 
Q 1681 3072 1420 2755 
Q 1159 2438 1159 1844 
L 1159 0 
L 581 0 
L 581 3500 
L 1159 3500 
L 1159 2956 
Q 1341 3275 1631 3429 
Q 1922 3584 2338 3584 
Q 2397 3584 2469 3576 
Q 2541 3569 2628 3553 
L 2631 2963 
z
" transform="scale(0.015625)"/>
      <path id="DejaVuSans-69" d="M 603 3500 
L 1178 3500 
L 1178 0 
L 603 0 
L 603 3500 
z
M 603 4863 
L 1178 4863 
L 1178 4134 
L 603 4134 
L 603 4863 
z
" transform="scale(0.015625)"/>
      <path id="DejaVuSans-20" transform="scale(0.015625)"/>
      <path id="DejaVuSans-68" d="M 3513 2113 
L 3513 0 
L 2938 0 
L 2938 2094 
Q 2938 2591 2744 2837 
Q 2550 3084 2163 3084 
Q 1697 3084 1428 2787 
Q 1159 2491 1159 1978 
L 1159 0 
L 581 0 
L 581 4863 
L 1159 4863 
L 1159 2956 
Q 1366 3272 1645 3428 
Q 1925 3584 2291 3584 
Q 2894 3584 3203 3211 
Q 3513 2838 3513 2113 
z
" transform="scale(0.015625)"/>
      <path id="DejaVuSans-6f" d="M 1959 3097 
Q 1497 3097 1228 2736 
Q 959 2375 959 1747 
Q 959 1119 1226 758 
Q 1494 397 1959 397 
Q 2419 397 2687 759 
Q 2956 1122 2956 1747 
Q 2956 2369 2687 2733 
Q 2419 3097 1959 3097 
z
M 1959 3584 
Q 2709 3584 3137 3096 
Q 3566 2609 3566 1747 
Q 3566 888 3137 398 
Q 2709 -91 1959 -91 
Q 1206 -91 779 398 
Q 353 888 353 1747 
Q 353 2609 779 3096 
Q 1206 3584 1959 3584 
z
" transform="scale(0.015625)"/>
      <path id="DejaVuSans-79" d="M 2059 -325 
Q 1816 -950 1584 -1140 
Q 1353 -1331 966 -1331 
L 506 -1331 
L 506 -850 
L 844 -850 
Q 1081 -850 1212 -737 
Q 1344 -625 1503 -206 
L 1606 56 
L 191 3500 
L 800 3500 
L 1894 763 
L 2988 3500 
L 3597 3500 
L 2059 -325 
z
" transform="scale(0.015625)"/>
     </defs>
     <use xlink:href="#DejaVuSans-67"/>
     <use xlink:href="#DejaVuSans-65" transform="translate(63.476562 0)"/>
     <use xlink:href="#DejaVuSans-74" transform="translate(125 0)"/>
     <use xlink:href="#DejaVuSans-5f" transform="translate(164.208984 0)"/>
     <use xlink:href="#DejaVuSans-73" transform="translate(214.208984 0)"/>
     <use xlink:href="#DejaVuSans-75" transform="translate(266.308594 0)"/>
     <use xlink:href="#DejaVuSans-62" transform="translate(329.6875 0)"/>
     <use xlink:href="#DejaVuSans-73" transform="translate(393.164062 0)"/>
     <use xlink:href="#DejaVuSans-63" transform="translate(445.263672 0)"/>
     <use xlink:href="#DejaVuSans-72" transform="translate(500.244141 0)"/>
     <use xlink:href="#DejaVuSans-69" transform="translate(541.357422 0)"/>
     <use xlink:href="#DejaVuSans-62" transform="translate(569.140625 0)"/>
     <use xlink:href="#DejaVuSans-65" transform="translate(632.617188 0)"/>
     <use xlink:href="#DejaVuSans-20" transform="translate(694.140625 0)"/>
     <use xlink:href="#DejaVuSans-68" transform="translate(725.927734 0)"/>
     <use xlink:href="#DejaVuSans-69" transform="translate(789.306641 0)"/>
     <use xlink:href="#DejaVuSans-73" transform="translate(817.089844 0)"/>
     <use xlink:href="#DejaVuSans-74" transform="translate(869.189453 0)"/>
     <use xlink:href="#DejaVuSans-6f" transform="translate(908.398438 0)"/>
     <use xlink:href="#DejaVuSans-72" transform="translate(969.580078 0)"/>
     <use xlink:href="#DejaVuSans-79" transform="translate(1010.693359 0)"/>
    </g>
   </g>
   <g id="legend_1">
    <g id="line2d_39">
     <path d="M 815.08 328.498438 
L 825.08 328.498438 
L 835.08 328.498438 
" style="fill: none; stroke: #1f77b4; stroke-width: 1.5; stroke-linecap: square"/>
    </g>
    <g id="text_20">
     <!-- star -->
     <g style="fill: #a9a9a9" transform="translate(843.08 331.998438) scale(0.1 -0.1)">
      <defs>
       <path id="DejaVuSans-61" d="M 2194 1759 
Q 1497 1759 1228 1600 
Q 959 1441 959 1056 
Q 959 750 1161 570 
Q 1363 391 1709 391 
Q 2188 391 2477 730 
Q 2766 1069 2766 1631 
L 2766 1759 
L 2194 1759 
z
M 3341 1997 
L 3341 0 
L 2766 0 
L 2766 531 
Q 2569 213 2275 61 
Q 1981 -91 1556 -91 
Q 1019 -91 701 211 
Q 384 513 384 1019 
Q 384 1609 779 1909 
Q 1175 2209 1959 2209 
L 2766 2209 
L 2766 2266 
Q 2766 2663 2505 2880 
Q 2244 3097 1772 3097 
Q 1472 3097 1187 3025 
Q 903 2953 641 2809 
L 641 3341 
Q 956 3463 1253 3523 
Q 1550 3584 1831 3584 
Q 2591 3584 2966 3190 
Q 3341 2797 3341 1997 
z
" transform="scale(0.015625)"/>
      </defs>
      <use xlink:href="#DejaVuSans-73"/>
      <use xlink:href="#DejaVuSans-74" transform="translate(52.099609 0)"/>
      <use xlink:href="#DejaVuSans-61" transform="translate(91.308594 0)"/>
      <use xlink:href="#DejaVuSans-72" transform="translate(152.587891 0)"/>
     </g>
    </g>
    <g id="line2d_40">
     <path d="M 815.08 343.176562 
L 825.08 343.176562 
L 835.08 343.176562 
" style="fill: none; stroke: #ff7f0e; stroke-width: 1.5; stroke-linecap: square"/>
    </g>
    <g id="text_21">
     <!-- fork -->
     <g style="fill: #a9a9a9" transform="translate(843.08 346.676562) scale(0.1 -0.1)">
      <defs>
       <path id="DejaVuSans-66" d="M 2375 4863 
L 2375 4384 
L 1825 4384 
Q 1516 4384 1395 4259 
Q 1275 4134 1275 3809 
L 1275 3500 
L 2222 3500 
L 2222 3053 
L 1275 3053 
L 1275 0 
L 697 0 
L 697 3053 
L 147 3053 
L 147 3500 
L 697 3500 
L 697 3744 
Q 697 4328 969 4595 
Q 1241 4863 1831 4863 
L 2375 4863 
z
" transform="scale(0.015625)"/>
       <path id="DejaVuSans-6b" d="M 581 4863 
L 1159 4863 
L 1159 1991 
L 2875 3500 
L 3609 3500 
L 1753 1863 
L 3688 0 
L 2938 0 
L 1159 1709 
L 1159 0 
L 581 0 
L 581 4863 
z
" transform="scale(0.015625)"/>
      </defs>
      <use xlink:href="#DejaVuSans-66"/>
      <use xlink:href="#DejaVuSans-6f" transform="translate(35.205078 0)"/>
      <use xlink:href="#DejaVuSans-72" transform="translate(96.386719 0)"/>
      <use xlink:href="#DejaVuSans-6b" transform="translate(137.5 0)"/>
     </g>
    </g>
   </g>
  </g>
 </g>
 <defs>
  <clipPath id="p21793a51f2">
   <rect x="108" y="43.2" width="669.6" height="277.2"/>
  </clipPath>
 </defs>
</svg>
