<?xml version="1.0" encoding="utf-8" standalone="no"?>
<!DOCTYPE svg PUBLIC "-//W3C//DTD SVG 1.1//EN"
  "http://www.w3.org/Graphics/SVG/1.1/DTD/svg11.dtd">
<svg xmlns:xlink="http://www.w3.org/1999/xlink" width="864pt" height="360pt" viewBox="0 0 864 360" xmlns="http://www.w3.org/2000/svg" version="1.1">
 <metadata>
  <rdf:RDF xmlns:dc="http://purl.org/dc/elements/1.1/" xmlns:cc="http://creativecommons.org/ns#" xmlns:rdf="http://www.w3.org/1999/02/22-rdf-syntax-ns#">
   <cc:Work>
    <dc:type rdf:resource="http://purl.org/dc/dcmitype/StillImage"/>
    <dc:date>2024-03-08T20:04:23.173932</dc:date>
    <dc:format>image/svg+xml</dc:format>
    <dc:creator>
     <cc:Agent>
      <dc:title>Matplotlib v3.8.3, https://matplotlib.org/</dc:title>
     </cc:Agent>
    </dc:creator>
   </cc:Work>
  </rdf:RDF>
 </metadata>
 <defs>
  <style type="text/css">*{stroke-linejoin: round; stroke-linecap: butt}</style>
 </defs>
 <g id="figure_1">
  <g id="patch_1">
   <path d="M 0 360 
L 864 360 
L 864 0 
L 0 0 
L 0 360 
z
" style="fill: none; opacity: 0"/>
  </g>
  <g id="axes_1">
   <g id="patch_2">
    <path d="M 108 320.4 
L 777.6 320.4 
L 777.6 43.2 
L 108 43.2 
L 108 320.4 
z
" style="fill: none; opacity: 0"/>
   </g>
   <g id="matplotlib.axis_1">
    <g id="xtick_1">
     <g id="line2d_1">
      <path d="M 163.217537 320.4 
L 163.217537 43.2 
" clip-path="url(#p3a68ca2de3)" style="fill: none; stroke-dasharray: 5.12,1.28,0.8,1.28; stroke-dashoffset: 0; stroke: #b0b0b0; stroke-width: 0.8"/>
     </g>
     <g id="line2d_2">
      <defs>
       <path id="m06ffced0a3" d="M 0 0 
L 0 3.5 
" style="stroke: #a9a9a9; stroke-width: 0.8"/>
      </defs>
      <g>
       <use xlink:href="#m06ffced0a3" x="163.217537" y="320.4" style="fill: #a9a9a9; stroke: #a9a9a9; stroke-width: 0.8"/>
      </g>
     </g>
     <g id="text_1">
      <!-- 2021-09 -->
      <g style="fill: #a9a9a9" transform="translate(142.32613 334.998438) scale(0.1 -0.1)">
       <defs>
        <path id="DejaVuSans-32" d="M 1228 531 
L 3431 531 
L 3431 0 
L 469 0 
L 469 531 
Q 828 903 1448 1529 
Q 2069 2156 2228 2338 
Q 2531 2678 2651 2914 
Q 2772 3150 2772 3378 
Q 2772 3750 2511 3984 
Q 2250 4219 1831 4219 
Q 1534 4219 1204 4116 
Q 875 4013 500 3803 
L 500 4441 
Q 881 4594 1212 4672 
Q 1544 4750 1819 4750 
Q 2544 4750 2975 4387 
Q 3406 4025 3406 3419 
Q 3406 3131 3298 2873 
Q 3191 2616 2906 2266 
Q 2828 2175 2409 1742 
Q 1991 1309 1228 531 
z
" transform="scale(0.015625)"/>
        <path id="DejaVuSans-30" d="M 2034 4250 
Q 1547 4250 1301 3770 
Q 1056 3291 1056 2328 
Q 1056 1369 1301 889 
Q 1547 409 2034 409 
Q 2525 409 2770 889 
Q 3016 1369 3016 2328 
Q 3016 3291 2770 3770 
Q 2525 4250 2034 4250 
z
M 2034 4750 
Q 2819 4750 3233 4129 
Q 3647 3509 3647 2328 
Q 3647 1150 3233 529 
Q 2819 -91 2034 -91 
Q 1250 -91 836 529 
Q 422 1150 422 2328 
Q 422 3509 836 4129 
Q 1250 4750 2034 4750 
z
" transform="scale(0.015625)"/>
        <path id="DejaVuSans-31" d="M 794 531 
L 1825 531 
L 1825 4091 
L 703 3866 
L 703 4441 
L 1819 4666 
L 2450 4666 
L 2450 531 
L 3481 531 
L 3481 0 
L 794 0 
L 794 531 
z
" transform="scale(0.015625)"/>
        <path id="DejaVuSans-2d" d="M 313 2009 
L 1997 2009 
L 1997 1497 
L 313 1497 
L 313 2009 
z
" transform="scale(0.015625)"/>
        <path id="DejaVuSans-39" d="M 703 97 
L 703 672 
Q 941 559 1184 500 
Q 1428 441 1663 441 
Q 2288 441 2617 861 
Q 2947 1281 2994 2138 
Q 2813 1869 2534 1725 
Q 2256 1581 1919 1581 
Q 1219 1581 811 2004 
Q 403 2428 403 3163 
Q 403 3881 828 4315 
Q 1253 4750 1959 4750 
Q 2769 4750 3195 4129 
Q 3622 3509 3622 2328 
Q 3622 1225 3098 567 
Q 2575 -91 1691 -91 
Q 1453 -91 1209 -44 
Q 966 3 703 97 
z
M 1959 2075 
Q 2384 2075 2632 2365 
Q 2881 2656 2881 3163 
Q 2881 3666 2632 3958 
Q 2384 4250 1959 4250 
Q 1534 4250 1286 3958 
Q 1038 3666 1038 3163 
Q 1038 2656 1286 2365 
Q 1534 2075 1959 2075 
z
" transform="scale(0.015625)"/>
       </defs>
       <use xlink:href="#DejaVuSans-32"/>
       <use xlink:href="#DejaVuSans-30" x="63.623047"/>
       <use xlink:href="#DejaVuSans-32" x="127.246094"/>
       <use xlink:href="#DejaVuSans-31" x="190.869141"/>
       <use xlink:href="#DejaVuSans-2d" x="254.492188"/>
       <use xlink:href="#DejaVuSans-30" x="290.576172"/>
       <use xlink:href="#DejaVuSans-39" x="354.199219"/>
      </g>
     </g>
    </g>
    <g id="xtick_2">
     <g id="line2d_3">
      <path d="M 240.738129 320.4 
L 240.738129 43.2 
" clip-path="url(#p3a68ca2de3)" style="fill: none; stroke-dasharray: 5.12,1.28,0.8,1.28; stroke-dashoffset: 0; stroke: #b0b0b0; stroke-width: 0.8"/>
     </g>
     <g id="line2d_4">
      <g>
       <use xlink:href="#m06ffced0a3" x="240.738129" y="320.4" style="fill: #a9a9a9; stroke: #a9a9a9; stroke-width: 0.8"/>
      </g>
     </g>
     <g id="text_2">
      <!-- 2022-01 -->
      <g style="fill: #a9a9a9" transform="translate(219.846722 334.998438) scale(0.1 -0.1)">
       <use xlink:href="#DejaVuSans-32"/>
       <use xlink:href="#DejaVuSans-30" x="63.623047"/>
       <use xlink:href="#DejaVuSans-32" x="127.246094"/>
       <use xlink:href="#DejaVuSans-32" x="190.869141"/>
       <use xlink:href="#DejaVuSans-2d" x="254.492188"/>
       <use xlink:href="#DejaVuSans-30" x="290.576172"/>
       <use xlink:href="#DejaVuSans-31" x="354.199219"/>
      </g>
     </g>
    </g>
    <g id="xtick_3">
     <g id="line2d_5">
      <path d="M 316.987891 320.4 
L 316.987891 43.2 
" clip-path="url(#p3a68ca2de3)" style="fill: none; stroke-dasharray: 5.12,1.28,0.8,1.28; stroke-dashoffset: 0; stroke: #b0b0b0; stroke-width: 0.8"/>
     </g>
     <g id="line2d_6">
      <g>
       <use xlink:href="#m06ffced0a3" x="316.987891" y="320.4" style="fill: #a9a9a9; stroke: #a9a9a9; stroke-width: 0.8"/>
      </g>
     </g>
     <g id="text_3">
      <!-- 2022-05 -->
      <g style="fill: #a9a9a9" transform="translate(296.096485 334.998438) scale(0.1 -0.1)">
       <defs>
        <path id="DejaVuSans-35" d="M 691 4666 
L 3169 4666 
L 3169 4134 
L 1269 4134 
L 1269 2991 
Q 1406 3038 1543 3061 
Q 1681 3084 1819 3084 
Q 2600 3084 3056 2656 
Q 3513 2228 3513 1497 
Q 3513 744 3044 326 
Q 2575 -91 1722 -91 
Q 1428 -91 1123 -41 
Q 819 9 494 109 
L 494 744 
Q 775 591 1075 516 
Q 1375 441 1709 441 
Q 2250 441 2565 725 
Q 2881 1009 2881 1497 
Q 2881 1984 2565 2268 
Q 2250 2553 1709 2553 
Q 1456 2553 1204 2497 
Q 953 2441 691 2322 
L 691 4666 
z
" transform="scale(0.015625)"/>
       </defs>
       <use xlink:href="#DejaVuSans-32"/>
       <use xlink:href="#DejaVuSans-30" x="63.623047"/>
       <use xlink:href="#DejaVuSans-32" x="127.246094"/>
       <use xlink:href="#DejaVuSans-32" x="190.869141"/>
       <use xlink:href="#DejaVuSans-2d" x="254.492188"/>
       <use xlink:href="#DejaVuSans-30" x="290.576172"/>
       <use xlink:href="#DejaVuSans-35" x="354.199219"/>
      </g>
     </g>
    </g>
    <g id="xtick_4">
     <g id="line2d_7">
      <path d="M 395.143898 320.4 
L 395.143898 43.2 
" clip-path="url(#p3a68ca2de3)" style="fill: none; stroke-dasharray: 5.12,1.28,0.8,1.28; stroke-dashoffset: 0; stroke: #b0b0b0; stroke-width: 0.8"/>
     </g>
     <g id="line2d_8">
      <g>
       <use xlink:href="#m06ffced0a3" x="395.143898" y="320.4" style="fill: #a9a9a9; stroke: #a9a9a9; stroke-width: 0.8"/>
      </g>
     </g>
     <g id="text_4">
      <!-- 2022-09 -->
      <g style="fill: #a9a9a9" transform="translate(374.252492 334.998438) scale(0.1 -0.1)">
       <use xlink:href="#DejaVuSans-32"/>
       <use xlink:href="#DejaVuSans-30" x="63.623047"/>
       <use xlink:href="#DejaVuSans-32" x="127.246094"/>
       <use xlink:href="#DejaVuSans-32" x="190.869141"/>
       <use xlink:href="#DejaVuSans-2d" x="254.492188"/>
       <use xlink:href="#DejaVuSans-30" x="290.576172"/>
       <use xlink:href="#DejaVuSans-39" x="354.199219"/>
      </g>
     </g>
    </g>
    <g id="xtick_5">
     <g id="line2d_9">
      <path d="M 472.66449 320.4 
L 472.66449 43.2 
" clip-path="url(#p3a68ca2de3)" style="fill: none; stroke-dasharray: 5.12,1.28,0.8,1.28; stroke-dashoffset: 0; stroke: #b0b0b0; stroke-width: 0.8"/>
     </g>
     <g id="line2d_10">
      <g>
       <use xlink:href="#m06ffced0a3" x="472.66449" y="320.4" style="fill: #a9a9a9; stroke: #a9a9a9; stroke-width: 0.8"/>
      </g>
     </g>
     <g id="text_5">
      <!-- 2023-01 -->
      <g style="fill: #a9a9a9" transform="translate(451.773084 334.998438) scale(0.1 -0.1)">
       <defs>
        <path id="DejaVuSans-33" d="M 2597 2516 
Q 3050 2419 3304 2112 
Q 3559 1806 3559 1356 
Q 3559 666 3084 287 
Q 2609 -91 1734 -91 
Q 1441 -91 1130 -33 
Q 819 25 488 141 
L 488 750 
Q 750 597 1062 519 
Q 1375 441 1716 441 
Q 2309 441 2620 675 
Q 2931 909 2931 1356 
Q 2931 1769 2642 2001 
Q 2353 2234 1838 2234 
L 1294 2234 
L 1294 2753 
L 1863 2753 
Q 2328 2753 2575 2939 
Q 2822 3125 2822 3475 
Q 2822 3834 2567 4026 
Q 2313 4219 1838 4219 
Q 1578 4219 1281 4162 
Q 984 4106 628 3988 
L 628 4550 
Q 988 4650 1302 4700 
Q 1616 4750 1894 4750 
Q 2613 4750 3031 4423 
Q 3450 4097 3450 3541 
Q 3450 3153 3228 2886 
Q 3006 2619 2597 2516 
z
" transform="scale(0.015625)"/>
       </defs>
       <use xlink:href="#DejaVuSans-32"/>
       <use xlink:href="#DejaVuSans-30" x="63.623047"/>
       <use xlink:href="#DejaVuSans-32" x="127.246094"/>
       <use xlink:href="#DejaVuSans-33" x="190.869141"/>
       <use xlink:href="#DejaVuSans-2d" x="254.492188"/>
       <use xlink:href="#DejaVuSans-30" x="290.576172"/>
       <use xlink:href="#DejaVuSans-31" x="354.199219"/>
      </g>
     </g>
    </g>
    <g id="xtick_6">
     <g id="line2d_11">
      <path d="M 548.914253 320.4 
L 548.914253 43.2 
" clip-path="url(#p3a68ca2de3)" style="fill: none; stroke-dasharray: 5.12,1.28,0.8,1.28; stroke-dashoffset: 0; stroke: #b0b0b0; stroke-width: 0.8"/>
     </g>
     <g id="line2d_12">
      <g>
       <use xlink:href="#m06ffced0a3" x="548.914253" y="320.4" style="fill: #a9a9a9; stroke: #a9a9a9; stroke-width: 0.8"/>
      </g>
     </g>
     <g id="text_6">
      <!-- 2023-05 -->
      <g style="fill: #a9a9a9" transform="translate(528.022847 334.998438) scale(0.1 -0.1)">
       <use xlink:href="#DejaVuSans-32"/>
       <use xlink:href="#DejaVuSans-30" x="63.623047"/>
       <use xlink:href="#DejaVuSans-32" x="127.246094"/>
       <use xlink:href="#DejaVuSans-33" x="190.869141"/>
       <use xlink:href="#DejaVuSans-2d" x="254.492188"/>
       <use xlink:href="#DejaVuSans-30" x="290.576172"/>
       <use xlink:href="#DejaVuSans-35" x="354.199219"/>
      </g>
     </g>
    </g>
    <g id="xtick_7">
     <g id="line2d_13">
      <path d="M 627.07026 320.4 
L 627.07026 43.2 
" clip-path="url(#p3a68ca2de3)" style="fill: none; stroke-dasharray: 5.12,1.28,0.8,1.28; stroke-dashoffset: 0; stroke: #b0b0b0; stroke-width: 0.8"/>
     </g>
     <g id="line2d_14">
      <g>
       <use xlink:href="#m06ffced0a3" x="627.07026" y="320.4" style="fill: #a9a9a9; stroke: #a9a9a9; stroke-width: 0.8"/>
      </g>
     </g>
     <g id="text_7">
      <!-- 2023-09 -->
      <g style="fill: #a9a9a9" transform="translate(606.178854 334.998438) scale(0.1 -0.1)">
       <use xlink:href="#DejaVuSans-32"/>
       <use xlink:href="#DejaVuSans-30" x="63.623047"/>
       <use xlink:href="#DejaVuSans-32" x="127.246094"/>
       <use xlink:href="#DejaVuSans-33" x="190.869141"/>
       <use xlink:href="#DejaVuSans-2d" x="254.492188"/>
       <use xlink:href="#DejaVuSans-30" x="290.576172"/>
       <use xlink:href="#DejaVuSans-39" x="354.199219"/>
      </g>
     </g>
    </g>
    <g id="xtick_8">
     <g id="line2d_15">
      <path d="M 704.590852 320.4 
L 704.590852 43.2 
" clip-path="url(#p3a68ca2de3)" style="fill: none; stroke-dasharray: 5.12,1.28,0.8,1.28; stroke-dashoffset: 0; stroke: #b0b0b0; stroke-width: 0.8"/>
     </g>
     <g id="line2d_16">
      <g>
       <use xlink:href="#m06ffced0a3" x="704.590852" y="320.4" style="fill: #a9a9a9; stroke: #a9a9a9; stroke-width: 0.8"/>
      </g>
     </g>
     <g id="text_8">
      <!-- 2024-01 -->
      <g style="fill: #a9a9a9" transform="translate(683.699446 334.998438) scale(0.1 -0.1)">
       <defs>
        <path id="DejaVuSans-34" d="M 2419 4116 
L 825 1625 
L 2419 1625 
L 2419 4116 
z
M 2253 4666 
L 3047 4666 
L 3047 1625 
L 3713 1625 
L 3713 1100 
L 3047 1100 
L 3047 0 
L 2419 0 
L 2419 1100 
L 313 1100 
L 313 1709 
L 2253 4666 
z
" transform="scale(0.015625)"/>
       </defs>
       <use xlink:href="#DejaVuSans-32"/>
       <use xlink:href="#DejaVuSans-30" x="63.623047"/>
       <use xlink:href="#DejaVuSans-32" x="127.246094"/>
       <use xlink:href="#DejaVuSans-34" x="190.869141"/>
       <use xlink:href="#DejaVuSans-2d" x="254.492188"/>
       <use xlink:href="#DejaVuSans-30" x="290.576172"/>
       <use xlink:href="#DejaVuSans-31" x="354.199219"/>
      </g>
     </g>
    </g>
   </g>
   <g id="matplotlib.axis_2">
    <g id="ytick_1">
     <g id="line2d_17">
      <path d="M 108 307.843895 
L 777.6 307.843895 
" clip-path="url(#p3a68ca2de3)" style="fill: none; stroke-dasharray: 5.12,1.28,0.8,1.28; stroke-dashoffset: 0; stroke: #b0b0b0; stroke-width: 0.8"/>
     </g>
     <g id="line2d_18">
      <defs>
       <path id="m041af49529" d="M 0 0 
L -3.5 0 
" style="stroke: #a9a9a9; stroke-width: 0.8"/>
      </defs>
      <g>
       <use xlink:href="#m041af49529" x="108" y="307.843895" style="fill: #a9a9a9; stroke: #a9a9a9; stroke-width: 0.8"/>
      </g>
     </g>
     <g id="text_9">
      <!-- 0 -->
      <g style="fill: #a9a9a9" transform="translate(94.6375 311.643114) scale(0.1 -0.1)">
       <use xlink:href="#DejaVuSans-30"/>
      </g>
     </g>
    </g>
    <g id="ytick_2">
     <g id="line2d_19">
      <path d="M 108 272.728061 
L 777.6 272.728061 
" clip-path="url(#p3a68ca2de3)" style="fill: none; stroke-dasharray: 5.12,1.28,0.8,1.28; stroke-dashoffset: 0; stroke: #b0b0b0; stroke-width: 0.8"/>
     </g>
     <g id="line2d_20">
      <g>
       <use xlink:href="#m041af49529" x="108" y="272.728061" style="fill: #a9a9a9; stroke: #a9a9a9; stroke-width: 0.8"/>
      </g>
     </g>
     <g id="text_10">
      <!-- 800 -->
      <g style="fill: #a9a9a9" transform="translate(81.9125 276.52728) scale(0.1 -0.1)">
       <defs>
        <path id="DejaVuSans-38" d="M 2034 2216 
Q 1584 2216 1326 1975 
Q 1069 1734 1069 1313 
Q 1069 891 1326 650 
Q 1584 409 2034 409 
Q 2484 409 2743 651 
Q 3003 894 3003 1313 
Q 3003 1734 2745 1975 
Q 2488 2216 2034 2216 
z
M 1403 2484 
Q 997 2584 770 2862 
Q 544 3141 544 3541 
Q 544 4100 942 4425 
Q 1341 4750 2034 4750 
Q 2731 4750 3128 4425 
Q 3525 4100 3525 3541 
Q 3525 3141 3298 2862 
Q 3072 2584 2669 2484 
Q 3125 2378 3379 2068 
Q 3634 1759 3634 1313 
Q 3634 634 3220 271 
Q 2806 -91 2034 -91 
Q 1263 -91 848 271 
Q 434 634 434 1313 
Q 434 1759 690 2068 
Q 947 2378 1403 2484 
z
M 1172 3481 
Q 1172 3119 1398 2916 
Q 1625 2713 2034 2713 
Q 2441 2713 2670 2916 
Q 2900 3119 2900 3481 
Q 2900 3844 2670 4047 
Q 2441 4250 2034 4250 
Q 1625 4250 1398 4047 
Q 1172 3844 1172 3481 
z
" transform="scale(0.015625)"/>
       </defs>
       <use xlink:href="#DejaVuSans-38"/>
       <use xlink:href="#DejaVuSans-30" x="63.623047"/>
       <use xlink:href="#DejaVuSans-30" x="127.246094"/>
      </g>
     </g>
    </g>
    <g id="ytick_3">
     <g id="line2d_21">
      <path d="M 108 237.612228 
L 777.6 237.612228 
" clip-path="url(#p3a68ca2de3)" style="fill: none; stroke-dasharray: 5.12,1.28,0.8,1.28; stroke-dashoffset: 0; stroke: #b0b0b0; stroke-width: 0.8"/>
     </g>
     <g id="line2d_22">
      <g>
       <use xlink:href="#m041af49529" x="108" y="237.612228" style="fill: #a9a9a9; stroke: #a9a9a9; stroke-width: 0.8"/>
      </g>
     </g>
     <g id="text_11">
      <!-- 1600 -->
      <g style="fill: #a9a9a9" transform="translate(75.55 241.411447) scale(0.1 -0.1)">
       <defs>
        <path id="DejaVuSans-36" d="M 2113 2584 
Q 1688 2584 1439 2293 
Q 1191 2003 1191 1497 
Q 1191 994 1439 701 
Q 1688 409 2113 409 
Q 2538 409 2786 701 
Q 3034 994 3034 1497 
Q 3034 2003 2786 2293 
Q 2538 2584 2113 2584 
z
M 3366 4563 
L 3366 3988 
Q 3128 4100 2886 4159 
Q 2644 4219 2406 4219 
Q 1781 4219 1451 3797 
Q 1122 3375 1075 2522 
Q 1259 2794 1537 2939 
Q 1816 3084 2150 3084 
Q 2853 3084 3261 2657 
Q 3669 2231 3669 1497 
Q 3669 778 3244 343 
Q 2819 -91 2113 -91 
Q 1303 -91 875 529 
Q 447 1150 447 2328 
Q 447 3434 972 4092 
Q 1497 4750 2381 4750 
Q 2619 4750 2861 4703 
Q 3103 4656 3366 4563 
z
" transform="scale(0.015625)"/>
       </defs>
       <use xlink:href="#DejaVuSans-31"/>
       <use xlink:href="#DejaVuSans-36" x="63.623047"/>
       <use xlink:href="#DejaVuSans-30" x="127.246094"/>
       <use xlink:href="#DejaVuSans-30" x="190.869141"/>
      </g>
     </g>
    </g>
    <g id="ytick_4">
     <g id="line2d_23">
      <path d="M 108 202.496394 
L 777.6 202.496394 
" clip-path="url(#p3a68ca2de3)" style="fill: none; stroke-dasharray: 5.12,1.28,0.8,1.28; stroke-dashoffset: 0; stroke: #b0b0b0; stroke-width: 0.8"/>
     </g>
     <g id="line2d_24">
      <g>
       <use xlink:href="#m041af49529" x="108" y="202.496394" style="fill: #a9a9a9; stroke: #a9a9a9; stroke-width: 0.8"/>
      </g>
     </g>
     <g id="text_12">
      <!-- 2400 -->
      <g style="fill: #a9a9a9" transform="translate(75.55 206.295613) scale(0.1 -0.1)">
       <use xlink:href="#DejaVuSans-32"/>
       <use xlink:href="#DejaVuSans-34" x="63.623047"/>
       <use xlink:href="#DejaVuSans-30" x="127.246094"/>
       <use xlink:href="#DejaVuSans-30" x="190.869141"/>
      </g>
     </g>
    </g>
    <g id="ytick_5">
     <g id="line2d_25">
      <path d="M 108 167.380561 
L 777.6 167.380561 
" clip-path="url(#p3a68ca2de3)" style="fill: none; stroke-dasharray: 5.12,1.28,0.8,1.28; stroke-dashoffset: 0; stroke: #b0b0b0; stroke-width: 0.8"/>
     </g>
     <g id="line2d_26">
      <g>
       <use xlink:href="#m041af49529" x="108" y="167.380561" style="fill: #a9a9a9; stroke: #a9a9a9; stroke-width: 0.8"/>
      </g>
     </g>
     <g id="text_13">
      <!-- 3200 -->
      <g style="fill: #a9a9a9" transform="translate(75.55 171.17978) scale(0.1 -0.1)">
       <use xlink:href="#DejaVuSans-33"/>
       <use xlink:href="#DejaVuSans-32" x="63.623047"/>
       <use xlink:href="#DejaVuSans-30" x="127.246094"/>
       <use xlink:href="#DejaVuSans-30" x="190.869141"/>
      </g>
     </g>
    </g>
    <g id="ytick_6">
     <g id="line2d_27">
      <path d="M 108 132.264727 
L 777.6 132.264727 
" clip-path="url(#p3a68ca2de3)" style="fill: none; stroke-dasharray: 5.12,1.28,0.8,1.28; stroke-dashoffset: 0; stroke: #b0b0b0; stroke-width: 0.8"/>
     </g>
     <g id="line2d_28">
      <g>
       <use xlink:href="#m041af49529" x="108" y="132.264727" style="fill: #a9a9a9; stroke: #a9a9a9; stroke-width: 0.8"/>
      </g>
     </g>
     <g id="text_14">
      <!-- 4000 -->
      <g style="fill: #a9a9a9" transform="translate(75.55 136.063946) scale(0.1 -0.1)">
       <use xlink:href="#DejaVuSans-34"/>
       <use xlink:href="#DejaVuSans-30" x="63.623047"/>
       <use xlink:href="#DejaVuSans-30" x="127.246094"/>
       <use xlink:href="#DejaVuSans-30" x="190.869141"/>
      </g>
     </g>
    </g>
    <g id="ytick_7">
     <g id="line2d_29">
      <path d="M 108 97.148894 
L 777.6 97.148894 
" clip-path="url(#p3a68ca2de3)" style="fill: none; stroke-dasharray: 5.12,1.28,0.8,1.28; stroke-dashoffset: 0; stroke: #b0b0b0; stroke-width: 0.8"/>
     </g>
     <g id="line2d_30">
      <g>
       <use xlink:href="#m041af49529" x="108" y="97.148894" style="fill: #a9a9a9; stroke: #a9a9a9; stroke-width: 0.8"/>
      </g>
     </g>
     <g id="text_15">
      <!-- 4800 -->
      <g style="fill: #a9a9a9" transform="translate(75.55 100.948113) scale(0.1 -0.1)">
       <use xlink:href="#DejaVuSans-34"/>
       <use xlink:href="#DejaVuSans-38" x="63.623047"/>
       <use xlink:href="#DejaVuSans-30" x="127.246094"/>
       <use xlink:href="#DejaVuSans-30" x="190.869141"/>
      </g>
     </g>
    </g>
    <g id="ytick_8">
     <g id="line2d_31">
      <path d="M 108 62.03306 
L 777.6 62.03306 
" clip-path="url(#p3a68ca2de3)" style="fill: none; stroke-dasharray: 5.12,1.28,0.8,1.28; stroke-dashoffset: 0; stroke: #b0b0b0; stroke-width: 0.8"/>
     </g>
     <g id="line2d_32">
      <g>
       <use xlink:href="#m041af49529" x="108" y="62.03306" style="fill: #a9a9a9; stroke: #a9a9a9; stroke-width: 0.8"/>
      </g>
     </g>
     <g id="text_16">
      <!-- 5600 -->
      <g style="fill: #a9a9a9" transform="translate(75.55 65.832279) scale(0.1 -0.1)">
       <use xlink:href="#DejaVuSans-35"/>
       <use xlink:href="#DejaVuSans-36" x="63.623047"/>
       <use xlink:href="#DejaVuSans-30" x="127.246094"/>
       <use xlink:href="#DejaVuSans-30" x="190.869141"/>
      </g>
     </g>
    </g>
   </g>
   <g id="line2d_33">
    <path d="M 138.436364 307.71221 
L 142.248852 307.404947 
L 142.884266 307.141578 
L 144.790511 306.922104 
L 148.602999 306.175893 
L 152.415487 305.868629 
L 153.050901 305.561366 
L 153.686316 305.385786 
L 154.321731 304.59568 
L 154.957146 304.156732 
L 155.59256 302.795994 
L 156.227975 302.708204 
L 156.86339 302.225361 
L 158.134219 301.610834 
L 160.675878 299.679464 
L 161.946707 299.152726 
L 162.582122 298.713778 
L 165.123781 297.616408 
L 165.759195 296.606828 
L 167.030025 295.685037 
L 167.665439 295.377774 
L 174.019586 294.499878 
L 174.655001 294.192615 
L 179.102904 293.841456 
L 181.009148 293.358613 
L 186.72788 292.612402 
L 187.363295 292.261244 
L 187.998709 292.173454 
L 188.634124 291.910085 
L 189.904954 291.690611 
L 190.540368 291.646717 
L 191.175783 291.427243 
L 193.717442 291.03219 
L 194.988271 290.681031 
L 196.894515 290.505452 
L 198.165344 290.373768 
L 198.800759 290.198188 
L 199.436174 290.154294 
L 201.342418 289.583661 
L 205.154906 289.013029 
L 205.790321 288.83745 
L 206.425735 287.959554 
L 208.33198 287.257237 
L 210.238224 286.7305 
L 210.873638 286.423236 
L 211.509053 286.379342 
L 214.686126 285.501446 
L 215.956956 285.413656 
L 216.59237 285.325867 
L 218.498615 284.755234 
L 221.040273 284.140707 
L 221.675688 283.877338 
L 222.311103 283.789549 
L 222.946517 283.482285 
L 229.300664 282.5166 
L 232.477738 281.638704 
L 233.113152 281.243651 
L 235.654811 280.585229 
L 236.925641 279.839018 
L 237.561055 279.40007 
L 239.467299 279.048911 
L 243.279787 277.907647 
L 244.550617 277.512594 
L 245.186032 277.424804 
L 246.456861 277.073646 
L 247.72769 276.766382 
L 248.363105 276.678593 
L 249.633934 276.151855 
L 250.269349 276.020171 
L 250.904764 275.756802 
L 251.540178 275.669012 
L 252.175593 275.361749 
L 252.811008 275.18617 
L 254.081837 275.09838 
L 255.352667 274.659432 
L 256.623496 274.571643 
L 257.258911 274.264379 
L 259.800569 273.825431 
L 262.342228 273.605957 
L 262.977643 273.474273 
L 264.248472 272.859746 
L 271.238034 269.918795 
L 271.873448 269.567636 
L 272.508863 268.86532 
L 273.144278 267.811845 
L 273.779693 266.977844 
L 274.415107 266.802264 
L 275.050522 266.802264 
L 276.321351 265.880474 
L 276.956766 265.704895 
L 277.592181 265.353736 
L 278.227595 265.222052 
L 278.86301 264.65142 
L 279.498425 264.47584 
L 281.404669 263.55405 
L 282.675498 261.798258 
L 283.310913 261.403205 
L 283.946328 260.34973 
L 284.581742 259.691308 
L 285.217157 259.384045 
L 285.852572 259.208465 
L 288.39423 257.716043 
L 289.66506 256.706462 
L 290.300474 256.311409 
L 290.935889 255.389619 
L 291.571304 253.94109 
L 292.206719 253.0193 
L 292.842133 252.536457 
L 293.477548 252.273088 
L 296.019207 250.078349 
L 297.290036 249.068769 
L 297.925451 248.542031 
L 298.560865 247.70803 
L 299.831695 246.61066 
L 302.373354 244.986553 
L 303.008768 244.415921 
L 303.644183 244.284236 
L 304.279598 244.020867 
L 305.550427 243.318551 
L 307.456671 242.352865 
L 308.7275 241.167706 
L 309.362915 240.421495 
L 310.633745 239.543599 
L 311.269159 239.36802 
L 311.904574 239.060756 
L 313.175403 238.226755 
L 313.810818 237.875597 
L 314.446233 237.787807 
L 315.717062 237.08549 
L 316.352477 236.734332 
L 316.987891 236.07591 
L 317.623306 235.680857 
L 318.258721 235.461383 
L 319.52955 234.715172 
L 320.164965 234.364013 
L 320.80038 234.144539 
L 322.706624 232.915485 
L 324.612868 232.344853 
L 325.248282 231.905905 
L 325.883697 231.774221 
L 327.154526 231.335273 
L 329.060771 230.589061 
L 330.967015 229.886744 
L 332.237844 229.667271 
L 333.508673 228.569901 
L 334.779503 227.955374 
L 336.050332 227.253057 
L 336.685747 226.901899 
L 337.956576 226.55074 
L 338.591991 226.155687 
L 339.227406 225.980108 
L 341.13365 224.794949 
L 344.310723 224.048737 
L 346.216967 222.951367 
L 346.852382 222.863578 
L 347.487797 222.644104 
L 348.758626 222.380735 
L 350.66487 220.976102 
L 352.571114 220.537154 
L 353.206529 220.31768 
L 353.841943 219.834837 
L 357.654432 218.605783 
L 358.289846 218.561888 
L 362.737749 216.981676 
L 363.373164 216.674412 
L 365.279408 216.235464 
L 366.550237 215.928201 
L 367.185652 215.620937 
L 367.821067 215.489253 
L 369.727311 214.611357 
L 371.633555 213.689566 
L 372.268969 213.250618 
L 372.904384 213.075039 
L 374.810628 212.065459 
L 376.081458 211.758195 
L 377.352287 211.099774 
L 378.623116 210.748615 
L 379.258531 210.660826 
L 380.52936 209.914614 
L 381.164775 209.78293 
L 382.435604 209.256192 
L 383.071019 209.124508 
L 383.706434 208.77335 
L 386.248093 208.378296 
L 387.518922 207.763769 
L 388.154337 207.237032 
L 388.789751 206.139662 
L 390.060581 205.876293 
L 390.695995 205.744609 
L 393.237654 204.427765 
L 393.873069 204.296081 
L 398.956386 201.881867 
L 400.86263 201.486814 
L 401.498045 201.135656 
L 405.310533 199.818812 
L 406.581363 199.028706 
L 407.852192 198.282494 
L 408.487607 198.194705 
L 409.123021 197.975231 
L 409.758436 197.931336 
L 412.93551 197.097335 
L 413.570924 196.614492 
L 414.841754 196.175544 
L 416.747998 195.561017 
L 417.383412 195.165964 
L 418.018827 194.990385 
L 418.654242 194.551437 
L 419.289656 194.288068 
L 419.925071 193.893015 
L 421.195901 193.454067 
L 423.102145 192.83954 
L 423.737559 192.532277 
L 425.643803 191.083748 
L 426.279218 190.952064 
L 427.550047 189.986379 
L 428.185462 189.854694 
L 428.820877 188.889009 
L 429.456292 188.62564 
L 430.091706 188.142797 
L 430.727121 188.055008 
L 431.99795 187.308796 
L 432.633365 187.177112 
L 433.26878 186.913743 
L 433.904194 186.430901 
L 434.539609 186.211427 
L 436.445853 184.938478 
L 438.987512 183.665529 
L 439.622927 183.577739 
L 440.893756 183.007107 
L 441.529171 182.655948 
L 442.164585 181.602473 
L 442.8 181.031841 
L 443.435415 180.680683 
L 444.070829 180.548998 
L 445.341659 179.758892 
L 445.977073 179.627208 
L 447.247903 179.012681 
L 449.154147 178.222574 
L 450.424976 177.344679 
L 451.695806 176.027835 
L 454.872879 173.745306 
L 456.143708 172.691831 
L 456.779123 172.428462 
L 457.414538 171.726145 
L 458.049953 171.243303 
L 459.320782 170.804355 
L 459.956197 170.277617 
L 461.227026 169.619195 
L 461.862441 169.443616 
L 462.497855 169.004668 
L 463.13327 168.872984 
L 465.039514 167.863404 
L 466.310344 167.117192 
L 472.66449 164.878558 
L 473.299905 164.307925 
L 475.206149 163.605609 
L 476.476979 163.210556 
L 477.112393 162.727713 
L 479.654052 161.410869 
L 480.289467 161.059711 
L 481.560296 158.557708 
L 482.831125 157.065285 
L 484.101955 156.319073 
L 486.008199 155.572862 
L 486.643614 155.485072 
L 487.279028 155.133914 
L 489.185272 154.563282 
L 491.726931 153.422017 
L 492.362346 153.026964 
L 493.633175 152.588016 
L 497.445663 150.393276 
L 498.081078 149.734855 
L 499.351907 149.032538 
L 499.987322 148.68138 
L 500.622737 148.461906 
L 501.258151 148.022958 
L 502.528981 147.408431 
L 504.435225 146.39885 
L 505.07064 146.223271 
L 505.706054 145.740428 
L 506.341469 145.47706 
L 506.976884 145.345375 
L 508.247713 144.906427 
L 510.153957 144.204111 
L 510.789372 143.765163 
L 512.060201 143.414005 
L 513.331031 142.931162 
L 513.966445 142.448319 
L 515.237275 142.053266 
L 515.872689 141.746002 
L 516.508104 141.570423 
L 517.778933 140.692527 
L 519.049763 140.121895 
L 520.320592 139.15621 
L 521.591422 138.717262 
L 522.226836 138.190524 
L 522.862251 138.102735 
L 524.13308 137.180944 
L 525.40391 136.566417 
L 526.039324 136.303048 
L 526.674739 135.688521 
L 530.487227 134.327783 
L 532.393471 133.493782 
L 534.299715 132.923149 
L 535.570545 132.74757 
L 536.205959 132.484201 
L 536.841374 132.396412 
L 538.112203 131.869674 
L 538.747618 131.825779 
L 541.289277 130.903989 
L 543.195521 129.587145 
L 543.830936 129.323776 
L 544.46635 128.928723 
L 546.372594 128.094722 
L 548.278838 126.953458 
L 548.914253 126.558404 
L 550.185083 126.251141 
L 551.455912 125.373245 
L 553.997571 124.583139 
L 554.632985 124.31977 
L 555.903815 124.012507 
L 559.080888 123.002926 
L 560.987132 122.651768 
L 563.528791 121.861662 
L 564.164206 121.598293 
L 564.79962 121.510503 
L 565.435035 121.20324 
L 566.705864 120.939871 
L 567.341279 120.632608 
L 569.247523 120.19366 
L 570.518353 119.930291 
L 574.330841 119.227974 
L 575.60167 118.964605 
L 576.237085 118.832921 
L 576.8725 118.569552 
L 577.507914 118.525658 
L 579.414158 117.99892 
L 580.049573 117.647762 
L 583.226646 116.857655 
L 583.862061 116.725971 
L 585.13289 116.287023 
L 587.039135 115.628601 
L 587.674549 115.540812 
L 589.580793 114.88239 
L 590.216208 114.88239 
L 591.487037 114.443442 
L 592.122452 113.828915 
L 592.757867 113.521651 
L 594.028696 113.126598 
L 596.570355 112.160913 
L 597.20577 112.029228 
L 597.841184 111.634175 
L 598.476599 111.502491 
L 599.112014 111.107438 
L 602.289087 110.185647 
L 602.924502 109.790594 
L 603.559916 109.615015 
L 604.195331 109.088277 
L 606.101575 108.737119 
L 607.372405 108.034802 
L 608.007819 107.332486 
L 609.278649 107.069117 
L 613.726552 106.059537 
L 614.361966 105.883957 
L 615.632796 105.840063 
L 616.26821 105.532799 
L 618.809869 105.093851 
L 619.445284 104.786588 
L 621.351528 104.523219 
L 623.893187 103.733113 
L 625.799431 103.294165 
L 627.705675 102.811322 
L 630.247333 102.021216 
L 630.882748 101.889531 
L 631.518163 101.582268 
L 632.153578 101.494478 
L 632.788992 101.275004 
L 633.424407 100.879951 
L 635.330651 100.177635 
L 635.966066 99.694792 
L 637.236895 99.343634 
L 637.87231 99.080265 
L 639.143139 98.729106 
L 641.684798 97.587842 
L 643.591042 97.456157 
L 646.132701 96.666051 
L 646.768115 96.270998 
L 648.038945 95.875945 
L 649.945189 94.91026 
L 650.580604 94.778575 
L 651.216018 94.471312 
L 651.851433 94.383522 
L 658.840994 92.057098 
L 661.382653 91.442571 
L 662.018068 91.266992 
L 663.288897 90.69636 
L 663.924312 90.60857 
L 665.195141 90.257412 
L 665.830556 89.774569 
L 666.465971 89.467305 
L 667.101385 88.721094 
L 667.7368 88.282146 
L 669.00763 87.887093 
L 669.643044 87.360355 
L 676.632606 84.507194 
L 677.903435 84.19993 
L 679.174265 83.629298 
L 681.080509 82.531928 
L 681.715923 82.400244 
L 682.351338 81.917401 
L 683.622167 81.302874 
L 684.892997 80.512768 
L 686.799241 79.634872 
L 687.434656 79.195924 
L 688.705485 78.713081 
L 689.976314 77.96687 
L 690.611729 77.659606 
L 691.247144 77.220658 
L 692.517973 76.781711 
L 693.153388 76.650026 
L 695.695046 75.508762 
L 698.87212 74.411392 
L 699.507535 74.367497 
L 700.142949 74.191918 
L 700.778364 73.796865 
L 701.413779 73.709075 
L 702.049193 73.489601 
L 703.955437 73.138443 
L 707.132511 71.514335 
L 708.40334 70.812019 
L 709.038755 70.724229 
L 710.944999 69.714649 
L 712.851243 69.012332 
L 714.757487 68.178331 
L 717.299146 67.168751 
L 717.934561 66.993172 
L 718.569975 66.598119 
L 719.840805 66.42254 
L 720.476219 66.027487 
L 721.111634 65.983592 
L 722.382463 65.588539 
L 723.653293 64.974011 
L 724.288708 64.886222 
L 724.924122 64.622853 
L 725.559537 64.491169 
L 727.465781 63.657168 
L 728.101196 63.525483 
L 728.73661 63.262115 
L 731.913684 62.515903 
L 733.819928 61.769692 
L 735.726172 60.628427 
L 736.997001 60.10169 
L 737.632416 59.838321 
L 738.267831 59.443268 
L 739.53866 59.179899 
L 740.174075 58.828741 
L 740.809489 58.697056 
L 742.080319 57.99474 
L 745.892807 56.238948 
L 747.163636 55.8 
L 747.163636 55.8 
" clip-path="url(#p3a68ca2de3)" style="fill: none; stroke: #1f77b4; stroke-width: 1.5; stroke-linecap: square"/>
   </g>
   <g id="line2d_34">
    <path d="M 139.071778 307.8 
L 140.978022 307.71221 
L 142.884266 307.668316 
L 146.696755 307.580526 
L 149.873828 307.448842 
L 152.415487 307.448842 
L 153.050901 307.273262 
L 155.59256 307.185473 
L 157.498804 306.965999 
L 159.405048 306.79042 
L 163.217537 306.614841 
L 163.852951 306.614841 
L 164.488366 306.483156 
L 167.030025 306.395367 
L 168.300854 306.307577 
L 173.384172 306.219787 
L 176.561245 306.088103 
L 184.186221 306.000314 
L 187.363295 305.868629 
L 191.175783 305.78084 
L 193.717442 305.69305 
L 199.436174 305.60526 
L 201.342418 305.561366 
L 203.248662 305.517471 
L 205.154906 305.297997 
L 208.967394 305.254102 
L 210.238224 305.166312 
L 214.686126 305.078523 
L 221.675688 304.68347 
L 226.123591 304.59568 
L 227.39442 304.507891 
L 229.300664 304.420101 
L 233.113152 304.244522 
L 235.654811 304.200627 
L 237.561055 304.025048 
L 247.72769 303.410521 
L 250.269349 303.322731 
L 254.717252 303.103257 
L 256.623496 303.015468 
L 262.977643 302.664309 
L 269.967204 302.57652 
L 272.508863 302.313151 
L 273.779693 302.225361 
L 282.040084 301.56694 
L 285.852572 301.084097 
L 288.39423 300.996307 
L 293.477548 300.337885 
L 296.654621 300.250096 
L 304.915012 299.591674 
L 308.092086 299.240516 
L 310.633745 299.152726 
L 311.904574 299.064936 
L 314.446233 298.977147 
L 315.717062 298.889357 
L 318.894136 298.582094 
L 319.52955 298.406515 
L 323.342038 298.230935 
L 326.519112 298.143146 
L 334.779503 297.660303 
L 336.685747 297.572513 
L 344.946138 297.089671 
L 349.394041 297.001881 
L 350.029455 296.870197 
L 355.112773 296.782407 
L 359.560676 296.562933 
L 366.550237 296.475144 
L 370.99814 296.25567 
L 376.081458 296.16788 
L 381.164775 295.904511 
L 385.612678 295.816722 
L 397.685557 295.07051 
L 402.768875 294.982721 
L 419.289656 293.929246 
L 423.102145 293.841456 
L 425.008389 293.797561 
L 426.914633 293.753667 
L 428.820877 293.578087 
L 433.904194 293.490298 
L 435.175024 293.270824 
L 436.445853 293.183034 
L 439.622927 293.05135 
L 440.893756 292.96356 
L 442.164585 292.875771 
L 447.883318 292.787981 
L 449.154147 292.656297 
L 451.695806 292.612402 
L 452.33122 292.480718 
L 453.60205 292.392928 
L 454.237464 292.261244 
L 456.143708 292.173454 
L 466.945758 291.515032 
L 468.852002 291.427243 
L 472.029076 291.295558 
L 480.924881 291.207769 
L 485.372784 290.988295 
L 490.456102 290.900505 
L 492.99776 290.812716 
L 495.539419 290.768821 
L 496.810249 290.637136 
L 499.351907 290.549347 
L 505.706054 290.198188 
L 509.518542 290.154294 
L 511.424786 289.978715 
L 513.331031 289.93482 
L 517.778933 289.84703 
L 520.320592 289.759241 
L 527.945568 289.671451 
L 531.122642 289.539767 
L 534.93513 289.451977 
L 536.841374 289.232503 
L 540.653862 289.188608 
L 542.560106 289.013029 
L 545.101765 288.92524 
L 552.726741 288.83745 
L 555.903815 288.705766 
L 566.705864 288.661871 
L 567.976694 288.574081 
L 569.882938 288.530186 
L 578.143329 288.442397 
L 579.414158 288.354607 
L 586.40372 288.266818 
L 588.945379 288.179028 
L 596.570355 288.135133 
L 597.841184 288.047344 
L 607.372405 288.003449 
L 609.278649 287.82787 
L 620.080698 287.74008 
L 621.986942 287.696185 
L 638.507724 287.608396 
L 640.413968 287.564501 
L 652.486848 287.476711 
L 655.028506 287.388922 
L 659.476409 287.301132 
L 664.559727 287.037763 
L 667.101385 286.949974 
L 669.643044 286.862184 
L 673.455532 286.774395 
L 675.361776 286.7305 
L 677.903435 286.64271 
L 679.809679 286.598816 
L 682.986753 286.511026 
L 684.257582 286.423236 
L 688.07007 286.335447 
L 691.247144 286.203762 
L 692.517973 286.159868 
L 694.424217 285.984288 
L 698.236705 285.896499 
L 700.778364 285.808709 
L 707.132511 285.72092 
L 710.309584 285.589235 
L 716.663731 285.501446 
L 721.111634 285.281972 
L 726.830366 285.194182 
L 728.101196 285.106393 
L 735.726172 285.018603 
L 737.632416 284.974708 
L 744.621978 284.886919 
L 747.163636 284.62355 
L 747.163636 284.62355 
" clip-path="url(#p3a68ca2de3)" style="fill: none; stroke: #ff7f0e; stroke-width: 1.5; stroke-linecap: square"/>
   </g>
   <g id="patch_3">
    <path d="M 108 320.4 
L 108 43.2 
" style="fill: none; stroke: #a9a9a9; stroke-width: 0.8; stroke-linejoin: miter; stroke-linecap: square"/>
   </g>
   <g id="patch_4">
    <path d="M 777.6 320.4 
L 777.6 43.2 
" style="fill: none"/>
   </g>
   <g id="patch_5">
    <path d="M 108 320.4 
L 777.6 320.4 
" style="fill: none; stroke: #a9a9a9; stroke-width: 0.8; stroke-linejoin: miter; stroke-linecap: square"/>
   </g>
   <g id="patch_6">
    <path d="M 108 43.2 
L 777.6 43.2 
" style="fill: none"/>
   </g>
   <g id="text_17">
    <!-- get_subscribe history -->
    <g style="fill: #a9a9a9" transform="translate(378.6075 37.2) scale(0.12 -0.12)">
     <defs>
      <path id="DejaVuSans-67" d="M 2906 1791 
Q 2906 2416 2648 2759 
Q 2391 3103 1925 3103 
Q 1463 3103 1205 2759 
Q 947 2416 947 1791 
Q 947 1169 1205 825 
Q 1463 481 1925 481 
Q 2391 481 2648 825 
Q 2906 1169 2906 1791 
z
M 3481 434 
Q 3481 -459 3084 -895 
Q 2688 -1331 1869 -1331 
Q 1566 -1331 1297 -1286 
Q 1028 -1241 775 -1147 
L 775 -588 
Q 1028 -725 1275 -790 
Q 1522 -856 1778 -856 
Q 2344 -856 2625 -561 
Q 2906 -266 2906 331 
L 2906 616 
Q 2728 306 2450 153 
Q 2172 0 1784 0 
Q 1141 0 747 490 
Q 353 981 353 1791 
Q 353 2603 747 3093 
Q 1141 3584 1784 3584 
Q 2172 3584 2450 3431 
Q 2728 3278 2906 2969 
L 2906 3500 
L 3481 3500 
L 3481 434 
z
" transform="scale(0.015625)"/>
      <path id="DejaVuSans-65" d="M 3597 1894 
L 3597 1613 
L 953 1613 
Q 991 1019 1311 708 
Q 1631 397 2203 397 
Q 2534 397 2845 478 
Q 3156 559 3463 722 
L 3463 178 
Q 3153 47 2828 -22 
Q 2503 -91 2169 -91 
Q 1331 -91 842 396 
Q 353 884 353 1716 
Q 353 2575 817 3079 
Q 1281 3584 2069 3584 
Q 2775 3584 3186 3129 
Q 3597 2675 3597 1894 
z
M 3022 2063 
Q 3016 2534 2758 2815 
Q 2500 3097 2075 3097 
Q 1594 3097 1305 2825 
Q 1016 2553 972 2059 
L 3022 2063 
z
" transform="scale(0.015625)"/>
      <path id="DejaVuSans-74" d="M 1172 4494 
L 1172 3500 
L 2356 3500 
L 2356 3053 
L 1172 3053 
L 1172 1153 
Q 1172 725 1289 603 
Q 1406 481 1766 481 
L 2356 481 
L 2356 0 
L 1766 0 
Q 1100 0 847 248 
Q 594 497 594 1153 
L 594 3053 
L 172 3053 
L 172 3500 
L 594 3500 
L 594 4494 
L 1172 4494 
z
" transform="scale(0.015625)"/>
      <path id="DejaVuSans-5f" d="M 3263 -1063 
L 3263 -1509 
L -63 -1509 
L -63 -1063 
L 3263 -1063 
z
" transform="scale(0.015625)"/>
      <path id="DejaVuSans-73" d="M 2834 3397 
L 2834 2853 
Q 2591 2978 2328 3040 
Q 2066 3103 1784 3103 
Q 1356 3103 1142 2972 
Q 928 2841 928 2578 
Q 928 2378 1081 2264 
Q 1234 2150 1697 2047 
L 1894 2003 
Q 2506 1872 2764 1633 
Q 3022 1394 3022 966 
Q 3022 478 2636 193 
Q 2250 -91 1575 -91 
Q 1294 -91 989 -36 
Q 684 19 347 128 
L 347 722 
Q 666 556 975 473 
Q 1284 391 1588 391 
Q 1994 391 2212 530 
Q 2431 669 2431 922 
Q 2431 1156 2273 1281 
Q 2116 1406 1581 1522 
L 1381 1569 
Q 847 1681 609 1914 
Q 372 2147 372 2553 
Q 372 3047 722 3315 
Q 1072 3584 1716 3584 
Q 2034 3584 2315 3537 
Q 2597 3491 2834 3397 
z
" transform="scale(0.015625)"/>
      <path id="DejaVuSans-75" d="M 544 1381 
L 544 3500 
L 1119 3500 
L 1119 1403 
Q 1119 906 1312 657 
Q 1506 409 1894 409 
Q 2359 409 2629 706 
Q 2900 1003 2900 1516 
L 2900 3500 
L 3475 3500 
L 3475 0 
L 2900 0 
L 2900 538 
Q 2691 219 2414 64 
Q 2138 -91 1772 -91 
Q 1169 -91 856 284 
Q 544 659 544 1381 
z
M 1991 3584 
L 1991 3584 
z
" transform="scale(0.015625)"/>
      <path id="DejaVuSans-62" d="M 3116 1747 
Q 3116 2381 2855 2742 
Q 2594 3103 2138 3103 
Q 1681 3103 1420 2742 
Q 1159 2381 1159 1747 
Q 1159 1113 1420 752 
Q 1681 391 2138 391 
Q 2594 391 2855 752 
Q 3116 1113 3116 1747 
z
M 1159 2969 
Q 1341 3281 1617 3432 
Q 1894 3584 2278 3584 
Q 2916 3584 3314 3078 
Q 3713 2572 3713 1747 
Q 3713 922 3314 415 
Q 2916 -91 2278 -91 
Q 1894 -91 1617 61 
Q 1341 213 1159 525 
L 1159 0 
L 581 0 
L 581 4863 
L 1159 4863 
L 1159 2969 
z
" transform="scale(0.015625)"/>
      <path id="DejaVuSans-63" d="M 3122 3366 
L 3122 2828 
Q 2878 2963 2633 3030 
Q 2388 3097 2138 3097 
Q 1578 3097 1268 2742 
Q 959 2388 959 1747 
Q 959 1106 1268 751 
Q 1578 397 2138 397 
Q 2388 397 2633 464 
Q 2878 531 3122 666 
L 3122 134 
Q 2881 22 2623 -34 
Q 2366 -91 2075 -91 
Q 1284 -91 818 406 
Q 353 903 353 1747 
Q 353 2603 823 3093 
Q 1294 3584 2113 3584 
Q 2378 3584 2631 3529 
Q 2884 3475 3122 3366 
z
" transform="scale(0.015625)"/>
      <path id="DejaVuSans-72" d="M 2631 2963 
Q 2534 3019 2420 3045 
Q 2306 3072 2169 3072 
Q 1681 3072 1420 2755 
Q 1159 2438 1159 1844 
L 1159 0 
L 581 0 
L 581 3500 
L 1159 3500 
L 1159 2956 
Q 1341 3275 1631 3429 
Q 1922 3584 2338 3584 
Q 2397 3584 2469 3576 
Q 2541 3569 2628 3553 
L 2631 2963 
z
" transform="scale(0.015625)"/>
      <path id="DejaVuSans-69" d="M 603 3500 
L 1178 3500 
L 1178 0 
L 603 0 
L 603 3500 
z
M 603 4863 
L 1178 4863 
L 1178 4134 
L 603 4134 
L 603 4863 
z
" transform="scale(0.015625)"/>
      <path id="DejaVuSans-20" transform="scale(0.015625)"/>
      <path id="DejaVuSans-68" d="M 3513 2113 
L 3513 0 
L 2938 0 
L 2938 2094 
Q 2938 2591 2744 2837 
Q 2550 3084 2163 3084 
Q 1697 3084 1428 2787 
Q 1159 2491 1159 1978 
L 1159 0 
L 581 0 
L 581 4863 
L 1159 4863 
L 1159 2956 
Q 1366 3272 1645 3428 
Q 1925 3584 2291 3584 
Q 2894 3584 3203 3211 
Q 3513 2838 3513 2113 
z
" transform="scale(0.015625)"/>
      <path id="DejaVuSans-6f" d="M 1959 3097 
Q 1497 3097 1228 2736 
Q 959 2375 959 1747 
Q 959 1119 1226 758 
Q 1494 397 1959 397 
Q 2419 397 2687 759 
Q 2956 1122 2956 1747 
Q 2956 2369 2687 2733 
Q 2419 3097 1959 3097 
z
M 1959 3584 
Q 2709 3584 3137 3096 
Q 3566 2609 3566 1747 
Q 3566 888 3137 398 
Q 2709 -91 1959 -91 
Q 1206 -91 779 398 
Q 353 888 353 1747 
Q 353 2609 779 3096 
Q 1206 3584 1959 3584 
z
" transform="scale(0.015625)"/>
      <path id="DejaVuSans-79" d="M 2059 -325 
Q 1816 -950 1584 -1140 
Q 1353 -1331 966 -1331 
L 506 -1331 
L 506 -850 
L 844 -850 
Q 1081 -850 1212 -737 
Q 1344 -625 1503 -206 
L 1606 56 
L 191 3500 
L 800 3500 
L 1894 763 
L 2988 3500 
L 3597 3500 
L 2059 -325 
z
" transform="scale(0.015625)"/>
     </defs>
     <use xlink:href="#DejaVuSans-67"/>
     <use xlink:href="#DejaVuSans-65" x="63.476562"/>
     <use xlink:href="#DejaVuSans-74" x="125"/>
     <use xlink:href="#DejaVuSans-5f" x="164.208984"/>
     <use xlink:href="#DejaVuSans-73" x="214.208984"/>
     <use xlink:href="#DejaVuSans-75" x="266.308594"/>
     <use xlink:href="#DejaVuSans-62" x="329.6875"/>
     <use xlink:href="#DejaVuSans-73" x="393.164062"/>
     <use xlink:href="#DejaVuSans-63" x="445.263672"/>
     <use xlink:href="#DejaVuSans-72" x="500.244141"/>
     <use xlink:href="#DejaVuSans-69" x="541.357422"/>
     <use xlink:href="#DejaVuSans-62" x="569.140625"/>
     <use xlink:href="#DejaVuSans-65" x="632.617188"/>
     <use xlink:href="#DejaVuSans-20" x="694.140625"/>
     <use xlink:href="#DejaVuSans-68" x="725.927734"/>
     <use xlink:href="#DejaVuSans-69" x="789.306641"/>
     <use xlink:href="#DejaVuSans-73" x="817.089844"/>
     <use xlink:href="#DejaVuSans-74" x="869.189453"/>
     <use xlink:href="#DejaVuSans-6f" x="908.398438"/>
     <use xlink:href="#DejaVuSans-72" x="969.580078"/>
     <use xlink:href="#DejaVuSans-79" x="1010.693359"/>
    </g>
   </g>
   <g id="legend_1">
    <g id="line2d_35">
     <path d="M 815.08 328.498438 
L 825.08 328.498438 
L 835.08 328.498438 
" style="fill: none; stroke: #1f77b4; stroke-width: 1.5; stroke-linecap: square"/>
    </g>
    <g id="text_18">
     <!-- star -->
     <g style="fill: #a9a9a9" transform="translate(843.08 331.998438) scale(0.1 -0.1)">
      <defs>
       <path id="DejaVuSans-61" d="M 2194 1759 
Q 1497 1759 1228 1600 
Q 959 1441 959 1056 
Q 959 750 1161 570 
Q 1363 391 1709 391 
Q 2188 391 2477 730 
Q 2766 1069 2766 1631 
L 2766 1759 
L 2194 1759 
z
M 3341 1997 
L 3341 0 
L 2766 0 
L 2766 531 
Q 2569 213 2275 61 
Q 1981 -91 1556 -91 
Q 1019 -91 701 211 
Q 384 513 384 1019 
Q 384 1609 779 1909 
Q 1175 2209 1959 2209 
L 2766 2209 
L 2766 2266 
Q 2766 2663 2505 2880 
Q 2244 3097 1772 3097 
Q 1472 3097 1187 3025 
Q 903 2953 641 2809 
L 641 3341 
Q 956 3463 1253 3523 
Q 1550 3584 1831 3584 
Q 2591 3584 2966 3190 
Q 3341 2797 3341 1997 
z
" transform="scale(0.015625)"/>
      </defs>
      <use xlink:href="#DejaVuSans-73"/>
      <use xlink:href="#DejaVuSans-74" x="52.099609"/>
      <use xlink:href="#DejaVuSans-61" x="91.308594"/>
      <use xlink:href="#DejaVuSans-72" x="152.587891"/>
     </g>
    </g>
    <g id="line2d_36">
     <path d="M 815.08 343.176562 
L 825.08 343.176562 
L 835.08 343.176562 
" style="fill: none; stroke: #ff7f0e; stroke-width: 1.5; stroke-linecap: square"/>
    </g>
    <g id="text_19">
     <!-- fork -->
     <g style="fill: #a9a9a9" transform="translate(843.08 346.676562) scale(0.1 -0.1)">
      <defs>
       <path id="DejaVuSans-66" d="M 2375 4863 
L 2375 4384 
L 1825 4384 
Q 1516 4384 1395 4259 
Q 1275 4134 1275 3809 
L 1275 3500 
L 2222 3500 
L 2222 3053 
L 1275 3053 
L 1275 0 
L 697 0 
L 697 3053 
L 147 3053 
L 147 3500 
L 697 3500 
L 697 3744 
Q 697 4328 969 4595 
Q 1241 4863 1831 4863 
L 2375 4863 
z
" transform="scale(0.015625)"/>
       <path id="DejaVuSans-6b" d="M 581 4863 
L 1159 4863 
L 1159 1991 
L 2875 3500 
L 3609 3500 
L 1753 1863 
L 3688 0 
L 2938 0 
L 1159 1709 
L 1159 0 
L 581 0 
L 581 4863 
z
" transform="scale(0.015625)"/>
      </defs>
      <use xlink:href="#DejaVuSans-66"/>
      <use xlink:href="#DejaVuSans-6f" x="35.205078"/>
      <use xlink:href="#DejaVuSans-72" x="96.386719"/>
      <use xlink:href="#DejaVuSans-6b" x="137.5"/>
     </g>
    </g>
   </g>
  </g>
 </g>
 <defs>
  <clipPath id="p3a68ca2de3">
   <rect x="108" y="43.2" width="669.6" height="277.2"/>
  </clipPath>
 </defs>
</svg>
