<?xml version="1.0" encoding="utf-8" standalone="no"?>
<!DOCTYPE svg PUBLIC "-//W3C//DTD SVG 1.1//EN"
  "http://www.w3.org/Graphics/SVG/1.1/DTD/svg11.dtd">
<svg xmlns:xlink="http://www.w3.org/1999/xlink" width="864pt" height="360pt" viewBox="0 0 864 360" xmlns="http://www.w3.org/2000/svg" version="1.1">
 <metadata>
  <rdf:RDF xmlns:dc="http://purl.org/dc/elements/1.1/" xmlns:cc="http://creativecommons.org/ns#" xmlns:rdf="http://www.w3.org/1999/02/22-rdf-syntax-ns#">
   <cc:Work>
    <dc:type rdf:resource="http://purl.org/dc/dcmitype/StillImage"/>
    <dc:date>2025-01-10T20:06:42.786776</dc:date>
    <dc:format>image/svg+xml</dc:format>
    <dc:creator>
     <cc:Agent>
      <dc:title>Matplotlib v3.10.0, https://matplotlib.org/</dc:title>
     </cc:Agent>
    </dc:creator>
   </cc:Work>
  </rdf:RDF>
 </metadata>
 <defs>
  <style type="text/css">*{stroke-linejoin: round; stroke-linecap: butt}</style>
 </defs>
 <g id="figure_1">
  <g id="patch_1">
   <path d="M 0 360 
L 864 360 
L 864 0 
L 0 0 
L 0 360 
z
" style="fill: none; opacity: 0"/>
  </g>
  <g id="axes_1">
   <g id="patch_2">
    <path d="M 108 320.4 
L 777.6 320.4 
L 777.6 43.2 
L 108 43.2 
L 108 320.4 
z
" style="fill: none; opacity: 0"/>
   </g>
   <g id="matplotlib.axis_1">
    <g id="xtick_1">
     <g id="line2d_1">
      <path d="M 127.377337 320.4 
L 127.377337 43.2 
" clip-path="url(#p11b6e5e413)" style="fill: none; stroke-dasharray: 5.12,1.28,0.8,1.28; stroke-dashoffset: 0; stroke: #b0b0b0; stroke-width: 0.8"/>
     </g>
     <g id="line2d_2">
      <defs>
       <path id="m586509f8c5" d="M 0 0 
L 0 3.5 
" style="stroke: #a9a9a9; stroke-width: 0.8"/>
      </defs>
      <g>
       <use xlink:href="#m586509f8c5" x="127.377337" y="320.4" style="fill: #a9a9a9; stroke: #a9a9a9; stroke-width: 0.8"/>
      </g>
     </g>
     <g id="text_1">
      <!-- 2021-07 -->
      <g style="fill: #a9a9a9" transform="translate(106.485931 334.998438) scale(0.1 -0.1)">
       <defs>
        <path id="DejaVuSans-32" d="M 1228 531 
L 3431 531 
L 3431 0 
L 469 0 
L 469 531 
Q 828 903 1448 1529 
Q 2069 2156 2228 2338 
Q 2531 2678 2651 2914 
Q 2772 3150 2772 3378 
Q 2772 3750 2511 3984 
Q 2250 4219 1831 4219 
Q 1534 4219 1204 4116 
Q 875 4013 500 3803 
L 500 4441 
Q 881 4594 1212 4672 
Q 1544 4750 1819 4750 
Q 2544 4750 2975 4387 
Q 3406 4025 3406 3419 
Q 3406 3131 3298 2873 
Q 3191 2616 2906 2266 
Q 2828 2175 2409 1742 
Q 1991 1309 1228 531 
z
" transform="scale(0.015625)"/>
        <path id="DejaVuSans-30" d="M 2034 4250 
Q 1547 4250 1301 3770 
Q 1056 3291 1056 2328 
Q 1056 1369 1301 889 
Q 1547 409 2034 409 
Q 2525 409 2770 889 
Q 3016 1369 3016 2328 
Q 3016 3291 2770 3770 
Q 2525 4250 2034 4250 
z
M 2034 4750 
Q 2819 4750 3233 4129 
Q 3647 3509 3647 2328 
Q 3647 1150 3233 529 
Q 2819 -91 2034 -91 
Q 1250 -91 836 529 
Q 422 1150 422 2328 
Q 422 3509 836 4129 
Q 1250 4750 2034 4750 
z
" transform="scale(0.015625)"/>
        <path id="DejaVuSans-31" d="M 794 531 
L 1825 531 
L 1825 4091 
L 703 3866 
L 703 4441 
L 1819 4666 
L 2450 4666 
L 2450 531 
L 3481 531 
L 3481 0 
L 794 0 
L 794 531 
z
" transform="scale(0.015625)"/>
        <path id="DejaVuSans-2d" d="M 313 2009 
L 1997 2009 
L 1997 1497 
L 313 1497 
L 313 2009 
z
" transform="scale(0.015625)"/>
        <path id="DejaVuSans-37" d="M 525 4666 
L 3525 4666 
L 3525 4397 
L 1831 0 
L 1172 0 
L 2766 4134 
L 525 4134 
L 525 4666 
z
" transform="scale(0.015625)"/>
       </defs>
       <use xlink:href="#DejaVuSans-32"/>
       <use xlink:href="#DejaVuSans-30" transform="translate(63.623047 0)"/>
       <use xlink:href="#DejaVuSans-32" transform="translate(127.246094 0)"/>
       <use xlink:href="#DejaVuSans-31" transform="translate(190.869141 0)"/>
       <use xlink:href="#DejaVuSans-2d" transform="translate(254.492188 0)"/>
       <use xlink:href="#DejaVuSans-30" transform="translate(290.576172 0)"/>
       <use xlink:href="#DejaVuSans-37" transform="translate(354.199219 0)"/>
      </g>
     </g>
    </g>
    <g id="xtick_2">
     <g id="line2d_3">
      <path d="M 215.849548 320.4 
L 215.849548 43.2 
" clip-path="url(#p11b6e5e413)" style="fill: none; stroke-dasharray: 5.12,1.28,0.8,1.28; stroke-dashoffset: 0; stroke: #b0b0b0; stroke-width: 0.8"/>
     </g>
     <g id="line2d_4">
      <g>
       <use xlink:href="#m586509f8c5" x="215.849548" y="320.4" style="fill: #a9a9a9; stroke: #a9a9a9; stroke-width: 0.8"/>
      </g>
     </g>
     <g id="text_2">
      <!-- 2022-01 -->
      <g style="fill: #a9a9a9" transform="translate(194.958141 334.998438) scale(0.1 -0.1)">
       <use xlink:href="#DejaVuSans-32"/>
       <use xlink:href="#DejaVuSans-30" transform="translate(63.623047 0)"/>
       <use xlink:href="#DejaVuSans-32" transform="translate(127.246094 0)"/>
       <use xlink:href="#DejaVuSans-32" transform="translate(190.869141 0)"/>
       <use xlink:href="#DejaVuSans-2d" transform="translate(254.492188 0)"/>
       <use xlink:href="#DejaVuSans-30" transform="translate(290.576172 0)"/>
       <use xlink:href="#DejaVuSans-31" transform="translate(354.199219 0)"/>
      </g>
     </g>
    </g>
    <g id="xtick_3">
     <g id="line2d_5">
      <path d="M 302.879276 320.4 
L 302.879276 43.2 
" clip-path="url(#p11b6e5e413)" style="fill: none; stroke-dasharray: 5.12,1.28,0.8,1.28; stroke-dashoffset: 0; stroke: #b0b0b0; stroke-width: 0.8"/>
     </g>
     <g id="line2d_6">
      <g>
       <use xlink:href="#m586509f8c5" x="302.879276" y="320.4" style="fill: #a9a9a9; stroke: #a9a9a9; stroke-width: 0.8"/>
      </g>
     </g>
     <g id="text_3">
      <!-- 2022-07 -->
      <g style="fill: #a9a9a9" transform="translate(281.98787 334.998438) scale(0.1 -0.1)">
       <use xlink:href="#DejaVuSans-32"/>
       <use xlink:href="#DejaVuSans-30" transform="translate(63.623047 0)"/>
       <use xlink:href="#DejaVuSans-32" transform="translate(127.246094 0)"/>
       <use xlink:href="#DejaVuSans-32" transform="translate(190.869141 0)"/>
       <use xlink:href="#DejaVuSans-2d" transform="translate(254.492188 0)"/>
       <use xlink:href="#DejaVuSans-30" transform="translate(290.576172 0)"/>
       <use xlink:href="#DejaVuSans-37" transform="translate(354.199219 0)"/>
      </g>
     </g>
    </g>
    <g id="xtick_4">
     <g id="line2d_7">
      <path d="M 391.351486 320.4 
L 391.351486 43.2 
" clip-path="url(#p11b6e5e413)" style="fill: none; stroke-dasharray: 5.12,1.28,0.8,1.28; stroke-dashoffset: 0; stroke: #b0b0b0; stroke-width: 0.8"/>
     </g>
     <g id="line2d_8">
      <g>
       <use xlink:href="#m586509f8c5" x="391.351486" y="320.4" style="fill: #a9a9a9; stroke: #a9a9a9; stroke-width: 0.8"/>
      </g>
     </g>
     <g id="text_4">
      <!-- 2023-01 -->
      <g style="fill: #a9a9a9" transform="translate(370.46008 334.998438) scale(0.1 -0.1)">
       <defs>
        <path id="DejaVuSans-33" d="M 2597 2516 
Q 3050 2419 3304 2112 
Q 3559 1806 3559 1356 
Q 3559 666 3084 287 
Q 2609 -91 1734 -91 
Q 1441 -91 1130 -33 
Q 819 25 488 141 
L 488 750 
Q 750 597 1062 519 
Q 1375 441 1716 441 
Q 2309 441 2620 675 
Q 2931 909 2931 1356 
Q 2931 1769 2642 2001 
Q 2353 2234 1838 2234 
L 1294 2234 
L 1294 2753 
L 1863 2753 
Q 2328 2753 2575 2939 
Q 2822 3125 2822 3475 
Q 2822 3834 2567 4026 
Q 2313 4219 1838 4219 
Q 1578 4219 1281 4162 
Q 984 4106 628 3988 
L 628 4550 
Q 988 4650 1302 4700 
Q 1616 4750 1894 4750 
Q 2613 4750 3031 4423 
Q 3450 4097 3450 3541 
Q 3450 3153 3228 2886 
Q 3006 2619 2597 2516 
z
" transform="scale(0.015625)"/>
       </defs>
       <use xlink:href="#DejaVuSans-32"/>
       <use xlink:href="#DejaVuSans-30" transform="translate(63.623047 0)"/>
       <use xlink:href="#DejaVuSans-32" transform="translate(127.246094 0)"/>
       <use xlink:href="#DejaVuSans-33" transform="translate(190.869141 0)"/>
       <use xlink:href="#DejaVuSans-2d" transform="translate(254.492188 0)"/>
       <use xlink:href="#DejaVuSans-30" transform="translate(290.576172 0)"/>
       <use xlink:href="#DejaVuSans-31" transform="translate(354.199219 0)"/>
      </g>
     </g>
    </g>
    <g id="xtick_5">
     <g id="line2d_9">
      <path d="M 478.381215 320.4 
L 478.381215 43.2 
" clip-path="url(#p11b6e5e413)" style="fill: none; stroke-dasharray: 5.12,1.28,0.8,1.28; stroke-dashoffset: 0; stroke: #b0b0b0; stroke-width: 0.8"/>
     </g>
     <g id="line2d_10">
      <g>
       <use xlink:href="#m586509f8c5" x="478.381215" y="320.4" style="fill: #a9a9a9; stroke: #a9a9a9; stroke-width: 0.8"/>
      </g>
     </g>
     <g id="text_5">
      <!-- 2023-07 -->
      <g style="fill: #a9a9a9" transform="translate(457.489809 334.998438) scale(0.1 -0.1)">
       <use xlink:href="#DejaVuSans-32"/>
       <use xlink:href="#DejaVuSans-30" transform="translate(63.623047 0)"/>
       <use xlink:href="#DejaVuSans-32" transform="translate(127.246094 0)"/>
       <use xlink:href="#DejaVuSans-33" transform="translate(190.869141 0)"/>
       <use xlink:href="#DejaVuSans-2d" transform="translate(254.492188 0)"/>
       <use xlink:href="#DejaVuSans-30" transform="translate(290.576172 0)"/>
       <use xlink:href="#DejaVuSans-37" transform="translate(354.199219 0)"/>
      </g>
     </g>
    </g>
    <g id="xtick_6">
     <g id="line2d_11">
      <path d="M 566.853425 320.4 
L 566.853425 43.2 
" clip-path="url(#p11b6e5e413)" style="fill: none; stroke-dasharray: 5.12,1.28,0.8,1.28; stroke-dashoffset: 0; stroke: #b0b0b0; stroke-width: 0.8"/>
     </g>
     <g id="line2d_12">
      <g>
       <use xlink:href="#m586509f8c5" x="566.853425" y="320.4" style="fill: #a9a9a9; stroke: #a9a9a9; stroke-width: 0.8"/>
      </g>
     </g>
     <g id="text_6">
      <!-- 2024-01 -->
      <g style="fill: #a9a9a9" transform="translate(545.962019 334.998438) scale(0.1 -0.1)">
       <defs>
        <path id="DejaVuSans-34" d="M 2419 4116 
L 825 1625 
L 2419 1625 
L 2419 4116 
z
M 2253 4666 
L 3047 4666 
L 3047 1625 
L 3713 1625 
L 3713 1100 
L 3047 1100 
L 3047 0 
L 2419 0 
L 2419 1100 
L 313 1100 
L 313 1709 
L 2253 4666 
z
" transform="scale(0.015625)"/>
       </defs>
       <use xlink:href="#DejaVuSans-32"/>
       <use xlink:href="#DejaVuSans-30" transform="translate(63.623047 0)"/>
       <use xlink:href="#DejaVuSans-32" transform="translate(127.246094 0)"/>
       <use xlink:href="#DejaVuSans-34" transform="translate(190.869141 0)"/>
       <use xlink:href="#DejaVuSans-2d" transform="translate(254.492188 0)"/>
       <use xlink:href="#DejaVuSans-30" transform="translate(290.576172 0)"/>
       <use xlink:href="#DejaVuSans-31" transform="translate(354.199219 0)"/>
      </g>
     </g>
    </g>
    <g id="xtick_7">
     <g id="line2d_13">
      <path d="M 654.363981 320.4 
L 654.363981 43.2 
" clip-path="url(#p11b6e5e413)" style="fill: none; stroke-dasharray: 5.12,1.28,0.8,1.28; stroke-dashoffset: 0; stroke: #b0b0b0; stroke-width: 0.8"/>
     </g>
     <g id="line2d_14">
      <g>
       <use xlink:href="#m586509f8c5" x="654.363981" y="320.4" style="fill: #a9a9a9; stroke: #a9a9a9; stroke-width: 0.8"/>
      </g>
     </g>
     <g id="text_7">
      <!-- 2024-07 -->
      <g style="fill: #a9a9a9" transform="translate(633.472575 334.998438) scale(0.1 -0.1)">
       <use xlink:href="#DejaVuSans-32"/>
       <use xlink:href="#DejaVuSans-30" transform="translate(63.623047 0)"/>
       <use xlink:href="#DejaVuSans-32" transform="translate(127.246094 0)"/>
       <use xlink:href="#DejaVuSans-34" transform="translate(190.869141 0)"/>
       <use xlink:href="#DejaVuSans-2d" transform="translate(254.492188 0)"/>
       <use xlink:href="#DejaVuSans-30" transform="translate(290.576172 0)"/>
       <use xlink:href="#DejaVuSans-37" transform="translate(354.199219 0)"/>
      </g>
     </g>
    </g>
    <g id="xtick_8">
     <g id="line2d_15">
      <path d="M 742.836191 320.4 
L 742.836191 43.2 
" clip-path="url(#p11b6e5e413)" style="fill: none; stroke-dasharray: 5.12,1.28,0.8,1.28; stroke-dashoffset: 0; stroke: #b0b0b0; stroke-width: 0.8"/>
     </g>
     <g id="line2d_16">
      <g>
       <use xlink:href="#m586509f8c5" x="742.836191" y="320.4" style="fill: #a9a9a9; stroke: #a9a9a9; stroke-width: 0.8"/>
      </g>
     </g>
     <g id="text_8">
      <!-- 2025-01 -->
      <g style="fill: #a9a9a9" transform="translate(721.944785 334.998438) scale(0.1 -0.1)">
       <defs>
        <path id="DejaVuSans-35" d="M 691 4666 
L 3169 4666 
L 3169 4134 
L 1269 4134 
L 1269 2991 
Q 1406 3038 1543 3061 
Q 1681 3084 1819 3084 
Q 2600 3084 3056 2656 
Q 3513 2228 3513 1497 
Q 3513 744 3044 326 
Q 2575 -91 1722 -91 
Q 1428 -91 1123 -41 
Q 819 9 494 109 
L 494 744 
Q 775 591 1075 516 
Q 1375 441 1709 441 
Q 2250 441 2565 725 
Q 2881 1009 2881 1497 
Q 2881 1984 2565 2268 
Q 2250 2553 1709 2553 
Q 1456 2553 1204 2497 
Q 953 2441 691 2322 
L 691 4666 
z
" transform="scale(0.015625)"/>
       </defs>
       <use xlink:href="#DejaVuSans-32"/>
       <use xlink:href="#DejaVuSans-30" transform="translate(63.623047 0)"/>
       <use xlink:href="#DejaVuSans-32" transform="translate(127.246094 0)"/>
       <use xlink:href="#DejaVuSans-35" transform="translate(190.869141 0)"/>
       <use xlink:href="#DejaVuSans-2d" transform="translate(254.492188 0)"/>
       <use xlink:href="#DejaVuSans-30" transform="translate(290.576172 0)"/>
       <use xlink:href="#DejaVuSans-31" transform="translate(354.199219 0)"/>
      </g>
     </g>
    </g>
   </g>
   <g id="matplotlib.axis_2">
    <g id="ytick_1">
     <g id="line2d_17">
      <path d="M 108 307.835049 
L 777.6 307.835049 
" clip-path="url(#p11b6e5e413)" style="fill: none; stroke-dasharray: 5.12,1.28,0.8,1.28; stroke-dashoffset: 0; stroke: #b0b0b0; stroke-width: 0.8"/>
     </g>
     <g id="line2d_18">
      <defs>
       <path id="m687919e27c" d="M 0 0 
L -3.5 0 
" style="stroke: #a9a9a9; stroke-width: 0.8"/>
      </defs>
      <g>
       <use xlink:href="#m687919e27c" x="108" y="307.835049" style="fill: #a9a9a9; stroke: #a9a9a9; stroke-width: 0.8"/>
      </g>
     </g>
     <g id="text_9">
      <!-- 0 -->
      <g style="fill: #a9a9a9" transform="translate(94.6375 311.634267) scale(0.1 -0.1)">
       <use xlink:href="#DejaVuSans-30"/>
      </g>
     </g>
    </g>
    <g id="ytick_2">
     <g id="line2d_19">
      <path d="M 108 279.796106 
L 777.6 279.796106 
" clip-path="url(#p11b6e5e413)" style="fill: none; stroke-dasharray: 5.12,1.28,0.8,1.28; stroke-dashoffset: 0; stroke: #b0b0b0; stroke-width: 0.8"/>
     </g>
     <g id="line2d_20">
      <g>
       <use xlink:href="#m687919e27c" x="108" y="279.796106" style="fill: #a9a9a9; stroke: #a9a9a9; stroke-width: 0.8"/>
      </g>
     </g>
     <g id="text_10">
      <!-- 800 -->
      <g style="fill: #a9a9a9" transform="translate(81.9125 283.595324) scale(0.1 -0.1)">
       <defs>
        <path id="DejaVuSans-38" d="M 2034 2216 
Q 1584 2216 1326 1975 
Q 1069 1734 1069 1313 
Q 1069 891 1326 650 
Q 1584 409 2034 409 
Q 2484 409 2743 651 
Q 3003 894 3003 1313 
Q 3003 1734 2745 1975 
Q 2488 2216 2034 2216 
z
M 1403 2484 
Q 997 2584 770 2862 
Q 544 3141 544 3541 
Q 544 4100 942 4425 
Q 1341 4750 2034 4750 
Q 2731 4750 3128 4425 
Q 3525 4100 3525 3541 
Q 3525 3141 3298 2862 
Q 3072 2584 2669 2484 
Q 3125 2378 3379 2068 
Q 3634 1759 3634 1313 
Q 3634 634 3220 271 
Q 2806 -91 2034 -91 
Q 1263 -91 848 271 
Q 434 634 434 1313 
Q 434 1759 690 2068 
Q 947 2378 1403 2484 
z
M 1172 3481 
Q 1172 3119 1398 2916 
Q 1625 2713 2034 2713 
Q 2441 2713 2670 2916 
Q 2900 3119 2900 3481 
Q 2900 3844 2670 4047 
Q 2441 4250 2034 4250 
Q 1625 4250 1398 4047 
Q 1172 3844 1172 3481 
z
" transform="scale(0.015625)"/>
       </defs>
       <use xlink:href="#DejaVuSans-38"/>
       <use xlink:href="#DejaVuSans-30" transform="translate(63.623047 0)"/>
       <use xlink:href="#DejaVuSans-30" transform="translate(127.246094 0)"/>
      </g>
     </g>
    </g>
    <g id="ytick_3">
     <g id="line2d_21">
      <path d="M 108 251.757163 
L 777.6 251.757163 
" clip-path="url(#p11b6e5e413)" style="fill: none; stroke-dasharray: 5.12,1.28,0.8,1.28; stroke-dashoffset: 0; stroke: #b0b0b0; stroke-width: 0.8"/>
     </g>
     <g id="line2d_22">
      <g>
       <use xlink:href="#m687919e27c" x="108" y="251.757163" style="fill: #a9a9a9; stroke: #a9a9a9; stroke-width: 0.8"/>
      </g>
     </g>
     <g id="text_11">
      <!-- 1600 -->
      <g style="fill: #a9a9a9" transform="translate(75.55 255.556381) scale(0.1 -0.1)">
       <defs>
        <path id="DejaVuSans-36" d="M 2113 2584 
Q 1688 2584 1439 2293 
Q 1191 2003 1191 1497 
Q 1191 994 1439 701 
Q 1688 409 2113 409 
Q 2538 409 2786 701 
Q 3034 994 3034 1497 
Q 3034 2003 2786 2293 
Q 2538 2584 2113 2584 
z
M 3366 4563 
L 3366 3988 
Q 3128 4100 2886 4159 
Q 2644 4219 2406 4219 
Q 1781 4219 1451 3797 
Q 1122 3375 1075 2522 
Q 1259 2794 1537 2939 
Q 1816 3084 2150 3084 
Q 2853 3084 3261 2657 
Q 3669 2231 3669 1497 
Q 3669 778 3244 343 
Q 2819 -91 2113 -91 
Q 1303 -91 875 529 
Q 447 1150 447 2328 
Q 447 3434 972 4092 
Q 1497 4750 2381 4750 
Q 2619 4750 2861 4703 
Q 3103 4656 3366 4563 
z
" transform="scale(0.015625)"/>
       </defs>
       <use xlink:href="#DejaVuSans-31"/>
       <use xlink:href="#DejaVuSans-36" transform="translate(63.623047 0)"/>
       <use xlink:href="#DejaVuSans-30" transform="translate(127.246094 0)"/>
       <use xlink:href="#DejaVuSans-30" transform="translate(190.869141 0)"/>
      </g>
     </g>
    </g>
    <g id="ytick_4">
     <g id="line2d_23">
      <path d="M 108 223.71822 
L 777.6 223.71822 
" clip-path="url(#p11b6e5e413)" style="fill: none; stroke-dasharray: 5.12,1.28,0.8,1.28; stroke-dashoffset: 0; stroke: #b0b0b0; stroke-width: 0.8"/>
     </g>
     <g id="line2d_24">
      <g>
       <use xlink:href="#m687919e27c" x="108" y="223.71822" style="fill: #a9a9a9; stroke: #a9a9a9; stroke-width: 0.8"/>
      </g>
     </g>
     <g id="text_12">
      <!-- 2400 -->
      <g style="fill: #a9a9a9" transform="translate(75.55 227.517438) scale(0.1 -0.1)">
       <use xlink:href="#DejaVuSans-32"/>
       <use xlink:href="#DejaVuSans-34" transform="translate(63.623047 0)"/>
       <use xlink:href="#DejaVuSans-30" transform="translate(127.246094 0)"/>
       <use xlink:href="#DejaVuSans-30" transform="translate(190.869141 0)"/>
      </g>
     </g>
    </g>
    <g id="ytick_5">
     <g id="line2d_25">
      <path d="M 108 195.679277 
L 777.6 195.679277 
" clip-path="url(#p11b6e5e413)" style="fill: none; stroke-dasharray: 5.12,1.28,0.8,1.28; stroke-dashoffset: 0; stroke: #b0b0b0; stroke-width: 0.8"/>
     </g>
     <g id="line2d_26">
      <g>
       <use xlink:href="#m687919e27c" x="108" y="195.679277" style="fill: #a9a9a9; stroke: #a9a9a9; stroke-width: 0.8"/>
      </g>
     </g>
     <g id="text_13">
      <!-- 3200 -->
      <g style="fill: #a9a9a9" transform="translate(75.55 199.478496) scale(0.1 -0.1)">
       <use xlink:href="#DejaVuSans-33"/>
       <use xlink:href="#DejaVuSans-32" transform="translate(63.623047 0)"/>
       <use xlink:href="#DejaVuSans-30" transform="translate(127.246094 0)"/>
       <use xlink:href="#DejaVuSans-30" transform="translate(190.869141 0)"/>
      </g>
     </g>
    </g>
    <g id="ytick_6">
     <g id="line2d_27">
      <path d="M 108 167.640334 
L 777.6 167.640334 
" clip-path="url(#p11b6e5e413)" style="fill: none; stroke-dasharray: 5.12,1.28,0.8,1.28; stroke-dashoffset: 0; stroke: #b0b0b0; stroke-width: 0.8"/>
     </g>
     <g id="line2d_28">
      <g>
       <use xlink:href="#m687919e27c" x="108" y="167.640334" style="fill: #a9a9a9; stroke: #a9a9a9; stroke-width: 0.8"/>
      </g>
     </g>
     <g id="text_14">
      <!-- 4000 -->
      <g style="fill: #a9a9a9" transform="translate(75.55 171.439553) scale(0.1 -0.1)">
       <use xlink:href="#DejaVuSans-34"/>
       <use xlink:href="#DejaVuSans-30" transform="translate(63.623047 0)"/>
       <use xlink:href="#DejaVuSans-30" transform="translate(127.246094 0)"/>
       <use xlink:href="#DejaVuSans-30" transform="translate(190.869141 0)"/>
      </g>
     </g>
    </g>
    <g id="ytick_7">
     <g id="line2d_29">
      <path d="M 108 139.601391 
L 777.6 139.601391 
" clip-path="url(#p11b6e5e413)" style="fill: none; stroke-dasharray: 5.12,1.28,0.8,1.28; stroke-dashoffset: 0; stroke: #b0b0b0; stroke-width: 0.8"/>
     </g>
     <g id="line2d_30">
      <g>
       <use xlink:href="#m687919e27c" x="108" y="139.601391" style="fill: #a9a9a9; stroke: #a9a9a9; stroke-width: 0.8"/>
      </g>
     </g>
     <g id="text_15">
      <!-- 4800 -->
      <g style="fill: #a9a9a9" transform="translate(75.55 143.40061) scale(0.1 -0.1)">
       <use xlink:href="#DejaVuSans-34"/>
       <use xlink:href="#DejaVuSans-38" transform="translate(63.623047 0)"/>
       <use xlink:href="#DejaVuSans-30" transform="translate(127.246094 0)"/>
       <use xlink:href="#DejaVuSans-30" transform="translate(190.869141 0)"/>
      </g>
     </g>
    </g>
    <g id="ytick_8">
     <g id="line2d_31">
      <path d="M 108 111.562448 
L 777.6 111.562448 
" clip-path="url(#p11b6e5e413)" style="fill: none; stroke-dasharray: 5.12,1.28,0.8,1.28; stroke-dashoffset: 0; stroke: #b0b0b0; stroke-width: 0.8"/>
     </g>
     <g id="line2d_32">
      <g>
       <use xlink:href="#m687919e27c" x="108" y="111.562448" style="fill: #a9a9a9; stroke: #a9a9a9; stroke-width: 0.8"/>
      </g>
     </g>
     <g id="text_16">
      <!-- 5600 -->
      <g style="fill: #a9a9a9" transform="translate(75.55 115.361667) scale(0.1 -0.1)">
       <use xlink:href="#DejaVuSans-35"/>
       <use xlink:href="#DejaVuSans-36" transform="translate(63.623047 0)"/>
       <use xlink:href="#DejaVuSans-30" transform="translate(127.246094 0)"/>
       <use xlink:href="#DejaVuSans-30" transform="translate(190.869141 0)"/>
      </g>
     </g>
    </g>
    <g id="ytick_9">
     <g id="line2d_33">
      <path d="M 108 83.523505 
L 777.6 83.523505 
" clip-path="url(#p11b6e5e413)" style="fill: none; stroke-dasharray: 5.12,1.28,0.8,1.28; stroke-dashoffset: 0; stroke: #b0b0b0; stroke-width: 0.8"/>
     </g>
     <g id="line2d_34">
      <g>
       <use xlink:href="#m687919e27c" x="108" y="83.523505" style="fill: #a9a9a9; stroke: #a9a9a9; stroke-width: 0.8"/>
      </g>
     </g>
     <g id="text_17">
      <!-- 6400 -->
      <g style="fill: #a9a9a9" transform="translate(75.55 87.322724) scale(0.1 -0.1)">
       <use xlink:href="#DejaVuSans-36"/>
       <use xlink:href="#DejaVuSans-34" transform="translate(63.623047 0)"/>
       <use xlink:href="#DejaVuSans-30" transform="translate(127.246094 0)"/>
       <use xlink:href="#DejaVuSans-30" transform="translate(190.869141 0)"/>
      </g>
     </g>
    </g>
    <g id="ytick_10">
     <g id="line2d_35">
      <path d="M 108 55.484562 
L 777.6 55.484562 
" clip-path="url(#p11b6e5e413)" style="fill: none; stroke-dasharray: 5.12,1.28,0.8,1.28; stroke-dashoffset: 0; stroke: #b0b0b0; stroke-width: 0.8"/>
     </g>
     <g id="line2d_36">
      <g>
       <use xlink:href="#m687919e27c" x="108" y="55.484562" style="fill: #a9a9a9; stroke: #a9a9a9; stroke-width: 0.8"/>
      </g>
     </g>
     <g id="text_18">
      <!-- 7200 -->
      <g style="fill: #a9a9a9" transform="translate(75.55 59.283781) scale(0.1 -0.1)">
       <use xlink:href="#DejaVuSans-37"/>
       <use xlink:href="#DejaVuSans-32" transform="translate(63.623047 0)"/>
       <use xlink:href="#DejaVuSans-30" transform="translate(127.246094 0)"/>
       <use xlink:href="#DejaVuSans-30" transform="translate(190.869141 0)"/>
      </g>
     </g>
    </g>
   </g>
   <g id="line2d_37">
    <path d="M 138.436364 307.729903 
L 141.321327 307.484562 
L 141.802154 307.27427 
L 143.725463 307.028929 
L 145.648772 306.643394 
L 146.610427 306.503199 
L 149.014563 306.292907 
L 149.976217 305.907371 
L 150.457044 305.276495 
L 150.937872 304.926008 
L 151.418699 303.839499 
L 151.899526 303.769402 
L 152.380353 303.383866 
L 153.342008 302.893185 
L 155.265317 301.351043 
L 157.188626 300.404729 
L 158.631107 299.738804 
L 159.111935 298.967733 
L 160.073589 298.266759 
L 160.554416 298.056467 
L 165.362688 297.355494 
L 165.843516 297.145202 
L 169.209306 296.864812 
L 171.132615 296.409179 
L 174.979233 295.883449 
L 175.46006 295.638108 
L 175.940888 295.568011 
L 176.902542 295.252573 
L 180.268333 294.691794 
L 181.229987 294.411405 
L 185.557432 293.675382 
L 186.519087 293.46509 
L 187.480741 293.430042 
L 189.40405 292.974409 
L 189.884877 292.308484 
L 191.327359 291.747705 
L 192.769841 291.36217 
L 193.250668 291.116829 
L 194.212322 290.941586 
L 196.135631 290.380807 
L 197.097286 290.310709 
L 198.05894 290.065369 
L 199.982249 289.574687 
L 200.463076 289.539638 
L 201.424731 289.084006 
L 201.905558 289.013908 
L 202.386385 288.768567 
L 207.675485 287.89235 
L 209.598794 287.331572 
L 210.079621 287.016134 
L 212.483757 286.210014 
L 213.445411 285.544089 
L 214.887893 285.2637 
L 227.389401 281.723783 
L 227.870228 281.723783 
L 228.351056 281.513491 
L 229.31271 281.408345 
L 229.793537 281.233102 
L 231.716846 281.163004 
L 232.678501 280.987761 
L 233.640155 280.497079 
L 235.082637 279.971349 
L 235.563464 279.655911 
L 236.525118 279.235327 
L 237.005946 278.989986 
L 237.9676 278.674548 
L 238.448427 278.534353 
L 239.410082 277.938526 
L 239.890909 277.412796 
L 240.852564 275.940751 
L 241.333391 275.800556 
L 241.814218 275.800556 
L 243.2567 274.959388 
L 243.737527 274.714047 
L 244.218354 274.608901 
L 244.699181 274.153268 
L 245.660836 273.767733 
L 246.62249 273.3121 
L 249.026626 270.262865 
L 251.91159 268.720723 
L 252.873244 267.949652 
L 253.354072 267.634214 
L 253.834899 266.933241 
L 254.315726 265.846732 
L 254.796553 265.110709 
L 255.27738 264.725174 
L 255.758208 264.514882 
L 259.604826 261.010014 
L 260.56648 260.133797 
L 263.451443 258.346314 
L 263.932271 258.171071 
L 265.374752 257.329903 
L 266.817234 256.383588 
L 268.740543 254.666203 
L 269.702197 254.280668 
L 270.663852 253.614743 
L 271.144679 253.334353 
L 271.625506 253.264256 
L 273.067988 252.458136 
L 273.548815 251.932406 
L 275.952951 250.635605 
L 276.433779 250.460362 
L 277.87626 249.478999 
L 285.088669 246.955494 
L 286.050323 246.079277 
L 287.011978 245.623644 
L 287.973632 245.097914 
L 288.454459 244.817524 
L 289.416114 244.537135 
L 289.896941 244.221697 
L 290.377768 244.081502 
L 291.82025 243.135188 
L 294.224386 242.574409 
L 295.666868 241.733241 
L 297.109349 241.417803 
L 297.590177 241.277608 
L 299.032658 240.191099 
L 300.955967 239.665369 
L 301.436794 239.279833 
L 304.321758 238.29847 
L 305.283412 238.123227 
L 306.245067 237.737691 
L 309.610857 236.510987 
L 310.572512 236.370793 
L 312.014994 235.880111 
L 314.41913 234.723505 
L 316.342439 233.672045 
L 320.189056 232.094854 
L 320.669884 232.024757 
L 321.631538 231.428929 
L 322.112365 231.358832 
L 324.035674 230.587761 
L 325.958983 230.34242 
L 326.920638 229.851739 
L 327.401465 229.431154 
L 327.882292 228.554937 
L 329.805601 228.029207 
L 331.248083 227.293185 
L 331.72891 227.188039 
L 335.094701 225.540751 
L 336.056355 225.29541 
L 337.018009 225.085118 
L 337.979664 224.594437 
L 338.460491 224.384145 
L 338.941318 224.314047 
L 340.864627 223.43783 
L 342.307109 222.526565 
L 343.749591 222.246175 
L 346.153727 221.650348 
L 346.634554 221.264812 
L 348.077036 220.739082 
L 350.000345 219.968011 
L 350.481172 219.617524 
L 350.961999 219.442281 
L 351.923654 218.916551 
L 353.846963 218.320723 
L 354.32779 218.075382 
L 355.770271 216.918776 
L 356.251099 216.81363 
L 357.212753 216.042559 
L 357.69358 215.972462 
L 358.174408 215.201391 
L 358.655235 214.991099 
L 359.136062 214.605563 
L 359.616889 214.535466 
L 360.578544 213.939638 
L 361.540198 213.6242 
L 362.021025 213.273713 
L 362.501853 213.09847 
L 363.944334 212.082058 
L 365.867643 211.065647 
L 366.34847 210.995549 
L 367.790952 210.259527 
L 368.271779 209.453408 
L 369.233434 208.752434 
L 369.714261 208.647288 
L 370.675916 208.05146 
L 371.156743 207.946314 
L 372.118397 207.455633 
L 374.041706 206.509318 
L 374.522533 206.158832 
L 375.484188 205.212517 
L 376.445842 204.61669 
L 376.92667 204.301252 
L 377.407497 203.775522 
L 379.330806 202.443672 
L 379.811633 201.882893 
L 380.29246 201.497357 
L 381.254115 201.146871 
L 382.215769 200.515994 
L 383.658251 199.779972 
L 384.139078 199.709875 
L 385.58156 198.938804 
L 386.543214 198.342976 
L 391.351486 196.590542 
L 391.832314 196.205007 
L 393.755623 195.468985 
L 394.23645 195.32879 
L 395.198104 194.697914 
L 396.159759 194.27733 
L 397.121413 193.611405 
L 398.083068 191.683727 
L 399.044722 190.56217 
L 400.487204 189.826147 
L 401.448858 189.440612 
L 401.929685 189.370515 
L 402.410513 189.090125 
L 404.814649 188.319054 
L 405.295476 188.108762 
L 406.257131 187.442837 
L 407.699612 186.811961 
L 408.661267 186.286231 
L 409.142094 185.935744 
L 409.622921 185.725452 
L 410.103748 185.374965 
L 410.584576 184.849235 
L 411.54623 184.323505 
L 413.950366 183.026704 
L 416.83533 181.589708 
L 418.277811 181.169124 
L 419.720293 180.608345 
L 420.20112 180.257858 
L 421.162775 179.977469 
L 422.124429 179.591933 
L 422.605256 179.206398 
L 424.528565 178.540473 
L 425.49022 177.839499 
L 426.451874 177.453964 
L 427.413529 176.717942 
L 428.375183 176.367455 
L 428.85601 175.946871 
L 429.336838 175.876773 
L 430.298492 175.140751 
L 431.260146 174.65007 
L 431.740974 174.439777 
L 432.221801 173.949096 
L 435.587592 172.617246 
L 436.549246 172.196662 
L 437.991728 171.741029 
L 438.953382 171.600834 
L 439.434209 171.390542 
L 439.915037 171.320445 
L 440.876691 170.899861 
L 441.357518 170.864812 
L 443.280827 170.12879 
L 444.723309 169.112378 
L 445.204136 168.937135 
L 446.165791 168.411405 
L 446.646618 168.27121 
L 449.531581 166.658971 
L 450.012408 166.553825 
L 451.45489 165.712656 
L 452.897372 165.221975 
L 453.859026 164.906537 
L 455.782335 164.275661 
L 456.74399 163.960223 
L 458.667299 163.574687 
L 459.148126 163.364395 
L 459.628953 163.294298 
L 460.590607 162.873713 
L 461.071435 162.803616 
L 461.552262 162.558275 
L 462.513916 162.383032 
L 463.956398 161.857302 
L 464.918053 161.752156 
L 466.360534 161.436718 
L 468.76467 161.016134 
L 481.266178 157.371071 
L 481.747006 156.880389 
L 482.70866 156.494854 
L 486.555278 155.057858 
L 487.036105 154.777469 
L 488.478587 154.356885 
L 489.440241 154.111544 
L 489.921069 153.796106 
L 490.401896 153.69096 
L 490.882723 153.270376 
L 492.325205 152.989986 
L 493.286859 152.534353 
L 493.767686 151.973574 
L 495.690995 151.517942 
L 499.056786 150.816968 
L 499.537613 150.816968 
L 500.01844 150.606676 
L 501.941749 150.256189 
L 502.422576 150.045897 
L 504.345885 149.69541 
L 505.30754 149.274826 
L 506.269194 149.099583 
L 508.67333 148.503755 
L 510.596639 147.907928 
L 511.077467 147.802782 
L 511.558294 147.557441 
L 512.519948 147.3121 
L 513.000776 147.031711 
L 514.443257 146.541029 
L 514.924084 146.225591 
L 515.885739 145.945202 
L 519.732357 144.613352 
L 520.694011 144.543255 
L 522.61732 143.982476 
L 523.098147 143.702086 
L 524.059802 143.421697 
L 526.463938 142.335188 
L 526.944765 142.300139 
L 532.233865 140.442559 
L 534.638001 139.811683 
L 535.599655 139.35605 
L 537.042137 139.040612 
L 538.965446 137.463421 
L 539.9271 137.183032 
L 540.407928 136.797497 
L 543.292891 135.710987 
L 543.773718 135.395549 
L 544.735373 135.11516 
L 545.2162 134.799722 
L 547.620336 134.028651 
L 549.062818 133.187483 
L 549.543645 133.082337 
L 551.947781 131.785535 
L 553.390263 131.154659 
L 553.87109 130.804172 
L 554.832745 130.488734 
L 555.794399 129.927955 
L 556.275226 129.752712 
L 556.756053 129.402225 
L 563.006807 127.194159 
L 563.487635 127.089013 
L 563.968462 126.773574 
L 565.891771 126.388039 
L 566.853425 126.002503 
L 569.738389 124.600556 
L 570.219216 124.530459 
L 571.661698 123.724339 
L 573.104179 123.233658 
L 576.46997 121.866759 
L 576.950797 121.726565 
L 577.431624 121.411127 
L 578.393279 121.305981 
L 578.874106 120.990542 
L 579.83576 120.815299 
L 580.797415 120.359666 
L 581.278242 120.149374 
L 581.759069 120.079277 
L 584.163206 119.132962 
L 585.605687 118.747427 
L 586.567342 118.502086 
L 588.009823 118.081502 
L 588.971478 117.695967 
L 590.894787 116.644506 
L 591.856441 116.258971 
L 592.337268 115.943533 
L 593.298923 115.733241 
L 593.77975 115.452851 
L 594.260577 115.347705 
L 595.703059 114.541586 
L 596.664713 114.15605 
L 598.588022 113.420028 
L 600.992159 112.613908 
L 601.953813 112.123227 
L 604.357949 111.317107 
L 607.242913 110.160501 
L 609.166221 109.284284 
L 613.974494 107.426704 
L 614.455321 107.111266 
L 616.37863 106.445341 
L 616.859457 106.445341 
L 617.821112 106.024757 
L 619.744421 104.482615 
L 620.225248 104.34242 
L 620.706075 104.026982 
L 621.186902 103.921836 
L 621.667729 103.676495 
L 622.148557 103.606398 
L 622.629384 103.255911 
L 623.110211 103.150765 
L 624.071866 102.554937 
L 625.514347 101.818915 
L 626.476002 101.43338 
L 626.956829 101.188039 
L 628.399311 100.872601 
L 630.803447 100.066481 
L 631.765101 99.751043 
L 633.207583 99.015021 
L 634.169237 98.559388 
L 635.130892 98.314047 
L 636.573374 97.648122 
L 640.900819 96.070932 
L 642.3433 95.194715 
L 642.824128 95.089569 
L 643.785782 94.633936 
L 644.747436 94.283449 
L 645.228264 93.862865 
L 646.189918 93.47733 
L 649.074882 92.320723 
L 650.517363 91.900139 
L 650.99819 91.654798 
L 651.479018 91.584701 
L 652.921499 91.058971 
L 654.363981 90.533241 
L 655.325636 90.147705 
L 655.806463 89.76217 
L 657.248944 89.376634 
L 657.729772 89.096245 
L 658.691426 88.850904 
L 660.133908 88.044784 
L 660.614735 88.009736 
L 662.057217 87.554103 
L 663.018871 87.484006 
L 663.980526 87.09847 
L 666.865489 86.257302 
L 667.827143 86.222253 
L 671.673761 84.995549 
L 672.635416 84.469819 
L 673.116243 84.049235 
L 674.558725 83.208067 
L 675.039552 82.85758 
L 676.001206 82.507093 
L 678.405343 81.736022 
L 678.88617 81.350487 
L 681.771133 80.158832 
L 683.694442 79.633102 
L 684.656097 79.212517 
L 685.136924 78.967177 
L 686.098578 78.686787 
L 686.579405 78.406398 
L 687.54106 78.231154 
L 689.945196 77.109597 
L 690.426023 76.829207 
L 691.868505 76.47872 
L 692.349332 76.163282 
L 692.830159 75.988039 
L 693.310987 75.567455 
L 693.791814 75.497357 
L 695.715123 74.726287 
L 697.638432 74.270654 
L 698.119259 74.200556 
L 698.600086 73.990264 
L 699.080913 73.955216 
L 700.042568 73.639777 
L 700.523395 73.604729 
L 701.965877 73.04395 
L 703.889186 72.483171 
L 704.85084 71.747149 
L 706.774149 70.695688 
L 708.216631 70.205007 
L 711.101594 68.908206 
L 712.063249 68.382476 
L 712.544076 68.137135 
L 713.024903 67.681502 
L 715.909866 66.735188 
L 716.871521 66.349652 
L 717.833175 66.104312 
L 718.314003 65.858971 
L 718.79483 65.438387 
L 720.718139 64.947705 
L 721.198966 64.597218 
L 727.44972 62.354103 
L 728.411374 62.17886 
L 732.738819 60.671766 
L 733.700474 60.426426 
L 734.181301 60.216134 
L 734.662128 60.181085 
L 735.623783 59.795549 
L 736.585437 59.199722 
L 737.066265 59.024478 
L 737.547092 58.98943 
L 738.989573 58.358554 
L 740.432055 57.832823 
L 740.912882 57.762726 
L 741.874537 57.377191 
L 743.317019 57.061752 
L 744.7595 56.60612 
L 745.240327 56.500974 
L 745.721155 56.150487 
L 746.682809 55.940195 
L 747.163636 55.8 
L 747.163636 55.8 
" clip-path="url(#p11b6e5e413)" style="fill: none; stroke: #1f77b4; stroke-width: 1.5; stroke-linecap: square"/>
   </g>
   <g id="line2d_38">
    <path d="M 138.917191 307.8 
L 143.244636 307.694854 
L 147.091254 307.519611 
L 149.014563 307.519611 
L 149.49539 307.379416 
L 151.899526 307.27427 
L 154.784489 306.958832 
L 157.669453 306.853686 
L 158.631107 306.74854 
L 161.996898 306.608345 
L 165.362688 306.503199 
L 167.766825 306.433102 
L 174.017579 306.327955 
L 176.421715 306.257858 
L 179.787505 306.152712 
L 182.191642 306.082615 
L 187.480741 305.977469 
L 189.40405 305.802225 
L 191.327359 305.767177 
L 194.212322 305.662031 
L 196.135631 305.626982 
L 198.539767 305.556885 
L 200.463076 305.381641 
L 204.790521 305.276495 
L 205.752176 305.206398 
L 207.675485 305.101252 
L 210.560448 304.996106 
L 212.483757 304.89096 
L 221.138647 304.365229 
L 224.504438 304.260083 
L 225.946919 304.119889 
L 228.351056 304.014743 
L 233.159328 303.769402 
L 237.9676 303.699305 
L 239.890909 303.489013 
L 241.814218 303.383866 
L 247.103318 302.893185 
L 250.469108 302.50765 
L 251.91159 302.437552 
L 255.758208 301.946871 
L 258.643171 301.876773 
L 260.085653 301.736579 
L 261.528134 301.631433 
L 274.991297 300.615021 
L 275.952951 300.439777 
L 278.837915 300.334631 
L 286.53115 299.878999 
L 289.896941 299.773853 
L 291.82025 299.563561 
L 294.224386 299.458414 
L 297.109349 299.353268 
L 299.513486 299.248122 
L 301.436794 299.213074 
L 303.840931 299.142976 
L 304.802585 299.002782 
L 311.534166 298.897636 
L 312.495821 298.79249 
L 318.265748 298.687344 
L 322.593193 298.477051 
L 325.958983 298.371905 
L 327.882292 298.161613 
L 331.248083 298.056467 
L 332.209737 297.881224 
L 334.613873 297.811127 
L 339.422146 297.741029 
L 341.345455 297.565786 
L 343.268763 297.530737 
L 344.711245 297.425591 
L 346.634554 297.250348 
L 351.442826 297.005007 
L 356.251099 296.899861 
L 360.578544 296.689569 
L 362.021025 296.65452 
L 362.98268 296.514325 
L 365.386816 296.409179 
L 366.34847 296.339082 
L 367.310125 296.268985 
L 368.271779 296.198887 
L 372.599224 296.12879 
L 374.041706 296.023644 
L 387.024041 295.182476 
L 389.428178 295.07733 
L 391.832314 295.007232 
L 398.563895 294.902086 
L 399.525549 294.761892 
L 406.257131 294.656745 
L 411.065403 294.411405 
L 412.027057 294.376356 
L 412.988712 294.27121 
L 415.392848 294.166064 
L 417.796984 294.095967 
L 420.20112 293.990821 
L 422.605256 293.920723 
L 426.932701 293.815577 
L 429.817665 293.710431 
L 436.549246 293.605285 
L 441.838346 293.324896 
L 443.761654 293.254798 
L 445.204136 293.149652 
L 451.935717 293.044506 
L 454.820681 292.93936 
L 463.475571 292.834214 
L 465.39888 292.799166 
L 471.168807 292.729068 
L 472.130461 292.658971 
L 478.862042 292.553825 
L 480.785351 292.518776 
L 493.286859 292.41363 
L 494.729341 292.273435 
L 516.366566 292.168289 
L 518.770702 292.098192 
L 531.27221 292.028095 
L 532.233865 291.957997 
L 534.638001 291.8879 
L 536.080483 291.747705 
L 538.965446 291.642559 
L 542.331237 291.502364 
L 546.658682 291.397218 
L 549.062818 291.327121 
L 552.428608 291.221975 
L 556.275226 291.046732 
L 558.679362 290.941586 
L 560.602671 290.906537 
L 564.930116 290.801391 
L 566.853425 290.766342 
L 573.104179 290.661196 
L 575.027488 290.626147 
L 577.431624 290.521001 
L 580.316588 290.415855 
L 583.682378 290.345758 
L 584.644033 290.275661 
L 596.183886 290.170515 
L 602.43464 289.820028 
L 604.838776 289.74993 
L 605.800431 289.644784 
L 606.762085 289.574687 
L 610.608703 289.469541 
L 613.493667 289.364395 
L 618.301939 289.259249 
L 620.706075 289.013908 
L 625.514347 288.908762 
L 626.476002 288.803616 
L 631.284274 288.69847 
L 633.68841 288.628373 
L 638.97751 288.593324 
L 639.939164 288.488178 
L 645.228264 288.383032 
L 646.189918 288.312935 
L 656.768117 288.207789 
L 659.653081 288.102643 
L 666.865489 287.997497 
L 668.788798 287.962448 
L 673.116243 287.89235 
L 674.077897 287.787204 
L 680.328651 287.682058 
L 682.732788 287.611961 
L 691.387678 287.506815 
L 692.830159 287.401669 
L 694.272641 287.296523 
L 695.715123 287.191377 
L 702.927531 287.086231 
L 705.812495 286.981085 
L 718.79483 286.875939 
L 723.122275 286.665647 
L 728.892202 286.560501 
L 729.853856 286.455355 
L 737.066265 286.385257 
L 738.027919 286.31516 
L 743.317019 286.210014 
L 745.721155 286.139917 
L 747.163636 286.139917 
L 747.163636 286.139917 
" clip-path="url(#p11b6e5e413)" style="fill: none; stroke: #ff7f0e; stroke-width: 1.5; stroke-linecap: square"/>
   </g>
   <g id="patch_3">
    <path d="M 108 320.4 
L 108 43.2 
" style="fill: none; stroke: #a9a9a9; stroke-width: 0.8; stroke-linejoin: miter; stroke-linecap: square"/>
   </g>
   <g id="patch_4">
    <path d="M 777.6 320.4 
L 777.6 43.2 
" style="fill: none"/>
   </g>
   <g id="patch_5">
    <path d="M 108 320.4 
L 777.6 320.4 
" style="fill: none; stroke: #a9a9a9; stroke-width: 0.8; stroke-linejoin: miter; stroke-linecap: square"/>
   </g>
   <g id="patch_6">
    <path d="M 108 43.2 
L 777.6 43.2 
" style="fill: none"/>
   </g>
   <g id="text_19">
    <!-- get_subscribe history -->
    <g style="fill: #a9a9a9" transform="translate(378.6075 37.2) scale(0.12 -0.12)">
     <defs>
      <path id="DejaVuSans-67" d="M 2906 1791 
Q 2906 2416 2648 2759 
Q 2391 3103 1925 3103 
Q 1463 3103 1205 2759 
Q 947 2416 947 1791 
Q 947 1169 1205 825 
Q 1463 481 1925 481 
Q 2391 481 2648 825 
Q 2906 1169 2906 1791 
z
M 3481 434 
Q 3481 -459 3084 -895 
Q 2688 -1331 1869 -1331 
Q 1566 -1331 1297 -1286 
Q 1028 -1241 775 -1147 
L 775 -588 
Q 1028 -725 1275 -790 
Q 1522 -856 1778 -856 
Q 2344 -856 2625 -561 
Q 2906 -266 2906 331 
L 2906 616 
Q 2728 306 2450 153 
Q 2172 0 1784 0 
Q 1141 0 747 490 
Q 353 981 353 1791 
Q 353 2603 747 3093 
Q 1141 3584 1784 3584 
Q 2172 3584 2450 3431 
Q 2728 3278 2906 2969 
L 2906 3500 
L 3481 3500 
L 3481 434 
z
" transform="scale(0.015625)"/>
      <path id="DejaVuSans-65" d="M 3597 1894 
L 3597 1613 
L 953 1613 
Q 991 1019 1311 708 
Q 1631 397 2203 397 
Q 2534 397 2845 478 
Q 3156 559 3463 722 
L 3463 178 
Q 3153 47 2828 -22 
Q 2503 -91 2169 -91 
Q 1331 -91 842 396 
Q 353 884 353 1716 
Q 353 2575 817 3079 
Q 1281 3584 2069 3584 
Q 2775 3584 3186 3129 
Q 3597 2675 3597 1894 
z
M 3022 2063 
Q 3016 2534 2758 2815 
Q 2500 3097 2075 3097 
Q 1594 3097 1305 2825 
Q 1016 2553 972 2059 
L 3022 2063 
z
" transform="scale(0.015625)"/>
      <path id="DejaVuSans-74" d="M 1172 4494 
L 1172 3500 
L 2356 3500 
L 2356 3053 
L 1172 3053 
L 1172 1153 
Q 1172 725 1289 603 
Q 1406 481 1766 481 
L 2356 481 
L 2356 0 
L 1766 0 
Q 1100 0 847 248 
Q 594 497 594 1153 
L 594 3053 
L 172 3053 
L 172 3500 
L 594 3500 
L 594 4494 
L 1172 4494 
z
" transform="scale(0.015625)"/>
      <path id="DejaVuSans-5f" d="M 3263 -1063 
L 3263 -1509 
L -63 -1509 
L -63 -1063 
L 3263 -1063 
z
" transform="scale(0.015625)"/>
      <path id="DejaVuSans-73" d="M 2834 3397 
L 2834 2853 
Q 2591 2978 2328 3040 
Q 2066 3103 1784 3103 
Q 1356 3103 1142 2972 
Q 928 2841 928 2578 
Q 928 2378 1081 2264 
Q 1234 2150 1697 2047 
L 1894 2003 
Q 2506 1872 2764 1633 
Q 3022 1394 3022 966 
Q 3022 478 2636 193 
Q 2250 -91 1575 -91 
Q 1294 -91 989 -36 
Q 684 19 347 128 
L 347 722 
Q 666 556 975 473 
Q 1284 391 1588 391 
Q 1994 391 2212 530 
Q 2431 669 2431 922 
Q 2431 1156 2273 1281 
Q 2116 1406 1581 1522 
L 1381 1569 
Q 847 1681 609 1914 
Q 372 2147 372 2553 
Q 372 3047 722 3315 
Q 1072 3584 1716 3584 
Q 2034 3584 2315 3537 
Q 2597 3491 2834 3397 
z
" transform="scale(0.015625)"/>
      <path id="DejaVuSans-75" d="M 544 1381 
L 544 3500 
L 1119 3500 
L 1119 1403 
Q 1119 906 1312 657 
Q 1506 409 1894 409 
Q 2359 409 2629 706 
Q 2900 1003 2900 1516 
L 2900 3500 
L 3475 3500 
L 3475 0 
L 2900 0 
L 2900 538 
Q 2691 219 2414 64 
Q 2138 -91 1772 -91 
Q 1169 -91 856 284 
Q 544 659 544 1381 
z
M 1991 3584 
L 1991 3584 
z
" transform="scale(0.015625)"/>
      <path id="DejaVuSans-62" d="M 3116 1747 
Q 3116 2381 2855 2742 
Q 2594 3103 2138 3103 
Q 1681 3103 1420 2742 
Q 1159 2381 1159 1747 
Q 1159 1113 1420 752 
Q 1681 391 2138 391 
Q 2594 391 2855 752 
Q 3116 1113 3116 1747 
z
M 1159 2969 
Q 1341 3281 1617 3432 
Q 1894 3584 2278 3584 
Q 2916 3584 3314 3078 
Q 3713 2572 3713 1747 
Q 3713 922 3314 415 
Q 2916 -91 2278 -91 
Q 1894 -91 1617 61 
Q 1341 213 1159 525 
L 1159 0 
L 581 0 
L 581 4863 
L 1159 4863 
L 1159 2969 
z
" transform="scale(0.015625)"/>
      <path id="DejaVuSans-63" d="M 3122 3366 
L 3122 2828 
Q 2878 2963 2633 3030 
Q 2388 3097 2138 3097 
Q 1578 3097 1268 2742 
Q 959 2388 959 1747 
Q 959 1106 1268 751 
Q 1578 397 2138 397 
Q 2388 397 2633 464 
Q 2878 531 3122 666 
L 3122 134 
Q 2881 22 2623 -34 
Q 2366 -91 2075 -91 
Q 1284 -91 818 406 
Q 353 903 353 1747 
Q 353 2603 823 3093 
Q 1294 3584 2113 3584 
Q 2378 3584 2631 3529 
Q 2884 3475 3122 3366 
z
" transform="scale(0.015625)"/>
      <path id="DejaVuSans-72" d="M 2631 2963 
Q 2534 3019 2420 3045 
Q 2306 3072 2169 3072 
Q 1681 3072 1420 2755 
Q 1159 2438 1159 1844 
L 1159 0 
L 581 0 
L 581 3500 
L 1159 3500 
L 1159 2956 
Q 1341 3275 1631 3429 
Q 1922 3584 2338 3584 
Q 2397 3584 2469 3576 
Q 2541 3569 2628 3553 
L 2631 2963 
z
" transform="scale(0.015625)"/>
      <path id="DejaVuSans-69" d="M 603 3500 
L 1178 3500 
L 1178 0 
L 603 0 
L 603 3500 
z
M 603 4863 
L 1178 4863 
L 1178 4134 
L 603 4134 
L 603 4863 
z
" transform="scale(0.015625)"/>
      <path id="DejaVuSans-20" transform="scale(0.015625)"/>
      <path id="DejaVuSans-68" d="M 3513 2113 
L 3513 0 
L 2938 0 
L 2938 2094 
Q 2938 2591 2744 2837 
Q 2550 3084 2163 3084 
Q 1697 3084 1428 2787 
Q 1159 2491 1159 1978 
L 1159 0 
L 581 0 
L 581 4863 
L 1159 4863 
L 1159 2956 
Q 1366 3272 1645 3428 
Q 1925 3584 2291 3584 
Q 2894 3584 3203 3211 
Q 3513 2838 3513 2113 
z
" transform="scale(0.015625)"/>
      <path id="DejaVuSans-6f" d="M 1959 3097 
Q 1497 3097 1228 2736 
Q 959 2375 959 1747 
Q 959 1119 1226 758 
Q 1494 397 1959 397 
Q 2419 397 2687 759 
Q 2956 1122 2956 1747 
Q 2956 2369 2687 2733 
Q 2419 3097 1959 3097 
z
M 1959 3584 
Q 2709 3584 3137 3096 
Q 3566 2609 3566 1747 
Q 3566 888 3137 398 
Q 2709 -91 1959 -91 
Q 1206 -91 779 398 
Q 353 888 353 1747 
Q 353 2609 779 3096 
Q 1206 3584 1959 3584 
z
" transform="scale(0.015625)"/>
      <path id="DejaVuSans-79" d="M 2059 -325 
Q 1816 -950 1584 -1140 
Q 1353 -1331 966 -1331 
L 506 -1331 
L 506 -850 
L 844 -850 
Q 1081 -850 1212 -737 
Q 1344 -625 1503 -206 
L 1606 56 
L 191 3500 
L 800 3500 
L 1894 763 
L 2988 3500 
L 3597 3500 
L 2059 -325 
z
" transform="scale(0.015625)"/>
     </defs>
     <use xlink:href="#DejaVuSans-67"/>
     <use xlink:href="#DejaVuSans-65" transform="translate(63.476562 0)"/>
     <use xlink:href="#DejaVuSans-74" transform="translate(125 0)"/>
     <use xlink:href="#DejaVuSans-5f" transform="translate(164.208984 0)"/>
     <use xlink:href="#DejaVuSans-73" transform="translate(214.208984 0)"/>
     <use xlink:href="#DejaVuSans-75" transform="translate(266.308594 0)"/>
     <use xlink:href="#DejaVuSans-62" transform="translate(329.6875 0)"/>
     <use xlink:href="#DejaVuSans-73" transform="translate(393.164062 0)"/>
     <use xlink:href="#DejaVuSans-63" transform="translate(445.263672 0)"/>
     <use xlink:href="#DejaVuSans-72" transform="translate(500.244141 0)"/>
     <use xlink:href="#DejaVuSans-69" transform="translate(541.357422 0)"/>
     <use xlink:href="#DejaVuSans-62" transform="translate(569.140625 0)"/>
     <use xlink:href="#DejaVuSans-65" transform="translate(632.617188 0)"/>
     <use xlink:href="#DejaVuSans-20" transform="translate(694.140625 0)"/>
     <use xlink:href="#DejaVuSans-68" transform="translate(725.927734 0)"/>
     <use xlink:href="#DejaVuSans-69" transform="translate(789.306641 0)"/>
     <use xlink:href="#DejaVuSans-73" transform="translate(817.089844 0)"/>
     <use xlink:href="#DejaVuSans-74" transform="translate(869.189453 0)"/>
     <use xlink:href="#DejaVuSans-6f" transform="translate(908.398438 0)"/>
     <use xlink:href="#DejaVuSans-72" transform="translate(969.580078 0)"/>
     <use xlink:href="#DejaVuSans-79" transform="translate(1010.693359 0)"/>
    </g>
   </g>
   <g id="legend_1">
    <g id="line2d_39">
     <path d="M 815.08 328.498438 
L 825.08 328.498438 
L 835.08 328.498438 
" style="fill: none; stroke: #1f77b4; stroke-width: 1.5; stroke-linecap: square"/>
    </g>
    <g id="text_20">
     <!-- star -->
     <g style="fill: #a9a9a9" transform="translate(843.08 331.998438) scale(0.1 -0.1)">
      <defs>
       <path id="DejaVuSans-61" d="M 2194 1759 
Q 1497 1759 1228 1600 
Q 959 1441 959 1056 
Q 959 750 1161 570 
Q 1363 391 1709 391 
Q 2188 391 2477 730 
Q 2766 1069 2766 1631 
L 2766 1759 
L 2194 1759 
z
M 3341 1997 
L 3341 0 
L 2766 0 
L 2766 531 
Q 2569 213 2275 61 
Q 1981 -91 1556 -91 
Q 1019 -91 701 211 
Q 384 513 384 1019 
Q 384 1609 779 1909 
Q 1175 2209 1959 2209 
L 2766 2209 
L 2766 2266 
Q 2766 2663 2505 2880 
Q 2244 3097 1772 3097 
Q 1472 3097 1187 3025 
Q 903 2953 641 2809 
L 641 3341 
Q 956 3463 1253 3523 
Q 1550 3584 1831 3584 
Q 2591 3584 2966 3190 
Q 3341 2797 3341 1997 
z
" transform="scale(0.015625)"/>
      </defs>
      <use xlink:href="#DejaVuSans-73"/>
      <use xlink:href="#DejaVuSans-74" transform="translate(52.099609 0)"/>
      <use xlink:href="#DejaVuSans-61" transform="translate(91.308594 0)"/>
      <use xlink:href="#DejaVuSans-72" transform="translate(152.587891 0)"/>
     </g>
    </g>
    <g id="line2d_40">
     <path d="M 815.08 343.176562 
L 825.08 343.176562 
L 835.08 343.176562 
" style="fill: none; stroke: #ff7f0e; stroke-width: 1.5; stroke-linecap: square"/>
    </g>
    <g id="text_21">
     <!-- fork -->
     <g style="fill: #a9a9a9" transform="translate(843.08 346.676562) scale(0.1 -0.1)">
      <defs>
       <path id="DejaVuSans-66" d="M 2375 4863 
L 2375 4384 
L 1825 4384 
Q 1516 4384 1395 4259 
Q 1275 4134 1275 3809 
L 1275 3500 
L 2222 3500 
L 2222 3053 
L 1275 3053 
L 1275 0 
L 697 0 
L 697 3053 
L 147 3053 
L 147 3500 
L 697 3500 
L 697 3744 
Q 697 4328 969 4595 
Q 1241 4863 1831 4863 
L 2375 4863 
z
" transform="scale(0.015625)"/>
       <path id="DejaVuSans-6b" d="M 581 4863 
L 1159 4863 
L 1159 1991 
L 2875 3500 
L 3609 3500 
L 1753 1863 
L 3688 0 
L 2938 0 
L 1159 1709 
L 1159 0 
L 581 0 
L 581 4863 
z
" transform="scale(0.015625)"/>
      </defs>
      <use xlink:href="#DejaVuSans-66"/>
      <use xlink:href="#DejaVuSans-6f" transform="translate(35.205078 0)"/>
      <use xlink:href="#DejaVuSans-72" transform="translate(96.386719 0)"/>
      <use xlink:href="#DejaVuSans-6b" transform="translate(137.5 0)"/>
     </g>
    </g>
   </g>
  </g>
 </g>
 <defs>
  <clipPath id="p11b6e5e413">
   <rect x="108" y="43.2" width="669.6" height="277.2"/>
  </clipPath>
 </defs>
</svg>
