<?xml version="1.0" encoding="utf-8" standalone="no"?>
<!DOCTYPE svg PUBLIC "-//W3C//DTD SVG 1.1//EN"
  "http://www.w3.org/Graphics/SVG/1.1/DTD/svg11.dtd">
<svg xmlns:xlink="http://www.w3.org/1999/xlink" width="864pt" height="360pt" viewBox="0 0 864 360" xmlns="http://www.w3.org/2000/svg" version="1.1">
 <metadata>
  <rdf:RDF xmlns:dc="http://purl.org/dc/elements/1.1/" xmlns:cc="http://creativecommons.org/ns#" xmlns:rdf="http://www.w3.org/1999/02/22-rdf-syntax-ns#">
   <cc:Work>
    <dc:type rdf:resource="http://purl.org/dc/dcmitype/StillImage"/>
    <dc:date>2025-01-08T20:07:04.697465</dc:date>
    <dc:format>image/svg+xml</dc:format>
    <dc:creator>
     <cc:Agent>
      <dc:title>Matplotlib v3.10.0, https://matplotlib.org/</dc:title>
     </cc:Agent>
    </dc:creator>
   </cc:Work>
  </rdf:RDF>
 </metadata>
 <defs>
  <style type="text/css">*{stroke-linejoin: round; stroke-linecap: butt}</style>
 </defs>
 <g id="figure_1">
  <g id="patch_1">
   <path d="M 0 360 
L 864 360 
L 864 0 
L 0 0 
L 0 360 
z
" style="fill: none; opacity: 0"/>
  </g>
  <g id="axes_1">
   <g id="patch_2">
    <path d="M 108 320.4 
L 777.6 320.4 
L 777.6 43.2 
L 108 43.2 
L 108 320.4 
z
" style="fill: none; opacity: 0"/>
   </g>
   <g id="matplotlib.axis_1">
    <g id="xtick_1">
     <g id="line2d_1">
      <path d="M 127.359839 320.4 
L 127.359839 43.2 
" clip-path="url(#p2945bbe89d)" style="fill: none; stroke-dasharray: 5.12,1.28,0.8,1.28; stroke-dashoffset: 0; stroke: #b0b0b0; stroke-width: 0.8"/>
     </g>
     <g id="line2d_2">
      <defs>
       <path id="md19b7c0eee" d="M 0 0 
L 0 3.5 
" style="stroke: #a9a9a9; stroke-width: 0.8"/>
      </defs>
      <g>
       <use xlink:href="#md19b7c0eee" x="127.359839" y="320.4" style="fill: #a9a9a9; stroke: #a9a9a9; stroke-width: 0.8"/>
      </g>
     </g>
     <g id="text_1">
      <!-- 2021-07 -->
      <g style="fill: #a9a9a9" transform="translate(106.468433 334.998438) scale(0.1 -0.1)">
       <defs>
        <path id="DejaVuSans-32" d="M 1228 531 
L 3431 531 
L 3431 0 
L 469 0 
L 469 531 
Q 828 903 1448 1529 
Q 2069 2156 2228 2338 
Q 2531 2678 2651 2914 
Q 2772 3150 2772 3378 
Q 2772 3750 2511 3984 
Q 2250 4219 1831 4219 
Q 1534 4219 1204 4116 
Q 875 4013 500 3803 
L 500 4441 
Q 881 4594 1212 4672 
Q 1544 4750 1819 4750 
Q 2544 4750 2975 4387 
Q 3406 4025 3406 3419 
Q 3406 3131 3298 2873 
Q 3191 2616 2906 2266 
Q 2828 2175 2409 1742 
Q 1991 1309 1228 531 
z
" transform="scale(0.015625)"/>
        <path id="DejaVuSans-30" d="M 2034 4250 
Q 1547 4250 1301 3770 
Q 1056 3291 1056 2328 
Q 1056 1369 1301 889 
Q 1547 409 2034 409 
Q 2525 409 2770 889 
Q 3016 1369 3016 2328 
Q 3016 3291 2770 3770 
Q 2525 4250 2034 4250 
z
M 2034 4750 
Q 2819 4750 3233 4129 
Q 3647 3509 3647 2328 
Q 3647 1150 3233 529 
Q 2819 -91 2034 -91 
Q 1250 -91 836 529 
Q 422 1150 422 2328 
Q 422 3509 836 4129 
Q 1250 4750 2034 4750 
z
" transform="scale(0.015625)"/>
        <path id="DejaVuSans-31" d="M 794 531 
L 1825 531 
L 1825 4091 
L 703 3866 
L 703 4441 
L 1819 4666 
L 2450 4666 
L 2450 531 
L 3481 531 
L 3481 0 
L 794 0 
L 794 531 
z
" transform="scale(0.015625)"/>
        <path id="DejaVuSans-2d" d="M 313 2009 
L 1997 2009 
L 1997 1497 
L 313 1497 
L 313 2009 
z
" transform="scale(0.015625)"/>
        <path id="DejaVuSans-37" d="M 525 4666 
L 3525 4666 
L 3525 4397 
L 1831 0 
L 1172 0 
L 2766 4134 
L 525 4134 
L 525 4666 
z
" transform="scale(0.015625)"/>
       </defs>
       <use xlink:href="#DejaVuSans-32"/>
       <use xlink:href="#DejaVuSans-30" transform="translate(63.623047 0)"/>
       <use xlink:href="#DejaVuSans-32" transform="translate(127.246094 0)"/>
       <use xlink:href="#DejaVuSans-31" transform="translate(190.869141 0)"/>
       <use xlink:href="#DejaVuSans-2d" transform="translate(254.492188 0)"/>
       <use xlink:href="#DejaVuSans-30" transform="translate(290.576172 0)"/>
       <use xlink:href="#DejaVuSans-37" transform="translate(354.199219 0)"/>
      </g>
     </g>
    </g>
    <g id="xtick_2">
     <g id="line2d_3">
      <path d="M 215.972037 320.4 
L 215.972037 43.2 
" clip-path="url(#p2945bbe89d)" style="fill: none; stroke-dasharray: 5.12,1.28,0.8,1.28; stroke-dashoffset: 0; stroke: #b0b0b0; stroke-width: 0.8"/>
     </g>
     <g id="line2d_4">
      <g>
       <use xlink:href="#md19b7c0eee" x="215.972037" y="320.4" style="fill: #a9a9a9; stroke: #a9a9a9; stroke-width: 0.8"/>
      </g>
     </g>
     <g id="text_2">
      <!-- 2022-01 -->
      <g style="fill: #a9a9a9" transform="translate(195.080631 334.998438) scale(0.1 -0.1)">
       <use xlink:href="#DejaVuSans-32"/>
       <use xlink:href="#DejaVuSans-30" transform="translate(63.623047 0)"/>
       <use xlink:href="#DejaVuSans-32" transform="translate(127.246094 0)"/>
       <use xlink:href="#DejaVuSans-32" transform="translate(190.869141 0)"/>
       <use xlink:href="#DejaVuSans-2d" transform="translate(254.492188 0)"/>
       <use xlink:href="#DejaVuSans-30" transform="translate(290.576172 0)"/>
       <use xlink:href="#DejaVuSans-31" transform="translate(354.199219 0)"/>
      </g>
     </g>
    </g>
    <g id="xtick_3">
     <g id="line2d_5">
      <path d="M 303.139471 320.4 
L 303.139471 43.2 
" clip-path="url(#p2945bbe89d)" style="fill: none; stroke-dasharray: 5.12,1.28,0.8,1.28; stroke-dashoffset: 0; stroke: #b0b0b0; stroke-width: 0.8"/>
     </g>
     <g id="line2d_6">
      <g>
       <use xlink:href="#md19b7c0eee" x="303.139471" y="320.4" style="fill: #a9a9a9; stroke: #a9a9a9; stroke-width: 0.8"/>
      </g>
     </g>
     <g id="text_3">
      <!-- 2022-07 -->
      <g style="fill: #a9a9a9" transform="translate(282.248064 334.998438) scale(0.1 -0.1)">
       <use xlink:href="#DejaVuSans-32"/>
       <use xlink:href="#DejaVuSans-30" transform="translate(63.623047 0)"/>
       <use xlink:href="#DejaVuSans-32" transform="translate(127.246094 0)"/>
       <use xlink:href="#DejaVuSans-32" transform="translate(190.869141 0)"/>
       <use xlink:href="#DejaVuSans-2d" transform="translate(254.492188 0)"/>
       <use xlink:href="#DejaVuSans-30" transform="translate(290.576172 0)"/>
       <use xlink:href="#DejaVuSans-37" transform="translate(354.199219 0)"/>
      </g>
     </g>
    </g>
    <g id="xtick_4">
     <g id="line2d_7">
      <path d="M 391.751669 320.4 
L 391.751669 43.2 
" clip-path="url(#p2945bbe89d)" style="fill: none; stroke-dasharray: 5.12,1.28,0.8,1.28; stroke-dashoffset: 0; stroke: #b0b0b0; stroke-width: 0.8"/>
     </g>
     <g id="line2d_8">
      <g>
       <use xlink:href="#md19b7c0eee" x="391.751669" y="320.4" style="fill: #a9a9a9; stroke: #a9a9a9; stroke-width: 0.8"/>
      </g>
     </g>
     <g id="text_4">
      <!-- 2023-01 -->
      <g style="fill: #a9a9a9" transform="translate(370.860262 334.998438) scale(0.1 -0.1)">
       <defs>
        <path id="DejaVuSans-33" d="M 2597 2516 
Q 3050 2419 3304 2112 
Q 3559 1806 3559 1356 
Q 3559 666 3084 287 
Q 2609 -91 1734 -91 
Q 1441 -91 1130 -33 
Q 819 25 488 141 
L 488 750 
Q 750 597 1062 519 
Q 1375 441 1716 441 
Q 2309 441 2620 675 
Q 2931 909 2931 1356 
Q 2931 1769 2642 2001 
Q 2353 2234 1838 2234 
L 1294 2234 
L 1294 2753 
L 1863 2753 
Q 2328 2753 2575 2939 
Q 2822 3125 2822 3475 
Q 2822 3834 2567 4026 
Q 2313 4219 1838 4219 
Q 1578 4219 1281 4162 
Q 984 4106 628 3988 
L 628 4550 
Q 988 4650 1302 4700 
Q 1616 4750 1894 4750 
Q 2613 4750 3031 4423 
Q 3450 4097 3450 3541 
Q 3450 3153 3228 2886 
Q 3006 2619 2597 2516 
z
" transform="scale(0.015625)"/>
       </defs>
       <use xlink:href="#DejaVuSans-32"/>
       <use xlink:href="#DejaVuSans-30" transform="translate(63.623047 0)"/>
       <use xlink:href="#DejaVuSans-32" transform="translate(127.246094 0)"/>
       <use xlink:href="#DejaVuSans-33" transform="translate(190.869141 0)"/>
       <use xlink:href="#DejaVuSans-2d" transform="translate(254.492188 0)"/>
       <use xlink:href="#DejaVuSans-30" transform="translate(290.576172 0)"/>
       <use xlink:href="#DejaVuSans-31" transform="translate(354.199219 0)"/>
      </g>
     </g>
    </g>
    <g id="xtick_5">
     <g id="line2d_9">
      <path d="M 478.919102 320.4 
L 478.919102 43.2 
" clip-path="url(#p2945bbe89d)" style="fill: none; stroke-dasharray: 5.12,1.28,0.8,1.28; stroke-dashoffset: 0; stroke: #b0b0b0; stroke-width: 0.8"/>
     </g>
     <g id="line2d_10">
      <g>
       <use xlink:href="#md19b7c0eee" x="478.919102" y="320.4" style="fill: #a9a9a9; stroke: #a9a9a9; stroke-width: 0.8"/>
      </g>
     </g>
     <g id="text_5">
      <!-- 2023-07 -->
      <g style="fill: #a9a9a9" transform="translate(458.027696 334.998438) scale(0.1 -0.1)">
       <use xlink:href="#DejaVuSans-32"/>
       <use xlink:href="#DejaVuSans-30" transform="translate(63.623047 0)"/>
       <use xlink:href="#DejaVuSans-32" transform="translate(127.246094 0)"/>
       <use xlink:href="#DejaVuSans-33" transform="translate(190.869141 0)"/>
       <use xlink:href="#DejaVuSans-2d" transform="translate(254.492188 0)"/>
       <use xlink:href="#DejaVuSans-30" transform="translate(290.576172 0)"/>
       <use xlink:href="#DejaVuSans-37" transform="translate(354.199219 0)"/>
      </g>
     </g>
    </g>
    <g id="xtick_6">
     <g id="line2d_11">
      <path d="M 567.5313 320.4 
L 567.5313 43.2 
" clip-path="url(#p2945bbe89d)" style="fill: none; stroke-dasharray: 5.12,1.28,0.8,1.28; stroke-dashoffset: 0; stroke: #b0b0b0; stroke-width: 0.8"/>
     </g>
     <g id="line2d_12">
      <g>
       <use xlink:href="#md19b7c0eee" x="567.5313" y="320.4" style="fill: #a9a9a9; stroke: #a9a9a9; stroke-width: 0.8"/>
      </g>
     </g>
     <g id="text_6">
      <!-- 2024-01 -->
      <g style="fill: #a9a9a9" transform="translate(546.639894 334.998438) scale(0.1 -0.1)">
       <defs>
        <path id="DejaVuSans-34" d="M 2419 4116 
L 825 1625 
L 2419 1625 
L 2419 4116 
z
M 2253 4666 
L 3047 4666 
L 3047 1625 
L 3713 1625 
L 3713 1100 
L 3047 1100 
L 3047 0 
L 2419 0 
L 2419 1100 
L 313 1100 
L 313 1709 
L 2253 4666 
z
" transform="scale(0.015625)"/>
       </defs>
       <use xlink:href="#DejaVuSans-32"/>
       <use xlink:href="#DejaVuSans-30" transform="translate(63.623047 0)"/>
       <use xlink:href="#DejaVuSans-32" transform="translate(127.246094 0)"/>
       <use xlink:href="#DejaVuSans-34" transform="translate(190.869141 0)"/>
       <use xlink:href="#DejaVuSans-2d" transform="translate(254.492188 0)"/>
       <use xlink:href="#DejaVuSans-30" transform="translate(290.576172 0)"/>
       <use xlink:href="#DejaVuSans-31" transform="translate(354.199219 0)"/>
      </g>
     </g>
    </g>
    <g id="xtick_7">
     <g id="line2d_13">
      <path d="M 655.180322 320.4 
L 655.180322 43.2 
" clip-path="url(#p2945bbe89d)" style="fill: none; stroke-dasharray: 5.12,1.28,0.8,1.28; stroke-dashoffset: 0; stroke: #b0b0b0; stroke-width: 0.8"/>
     </g>
     <g id="line2d_14">
      <g>
       <use xlink:href="#md19b7c0eee" x="655.180322" y="320.4" style="fill: #a9a9a9; stroke: #a9a9a9; stroke-width: 0.8"/>
      </g>
     </g>
     <g id="text_7">
      <!-- 2024-07 -->
      <g style="fill: #a9a9a9" transform="translate(634.288916 334.998438) scale(0.1 -0.1)">
       <use xlink:href="#DejaVuSans-32"/>
       <use xlink:href="#DejaVuSans-30" transform="translate(63.623047 0)"/>
       <use xlink:href="#DejaVuSans-32" transform="translate(127.246094 0)"/>
       <use xlink:href="#DejaVuSans-34" transform="translate(190.869141 0)"/>
       <use xlink:href="#DejaVuSans-2d" transform="translate(254.492188 0)"/>
       <use xlink:href="#DejaVuSans-30" transform="translate(290.576172 0)"/>
       <use xlink:href="#DejaVuSans-37" transform="translate(354.199219 0)"/>
      </g>
     </g>
    </g>
    <g id="xtick_8">
     <g id="line2d_15">
      <path d="M 743.79252 320.4 
L 743.79252 43.2 
" clip-path="url(#p2945bbe89d)" style="fill: none; stroke-dasharray: 5.12,1.28,0.8,1.28; stroke-dashoffset: 0; stroke: #b0b0b0; stroke-width: 0.8"/>
     </g>
     <g id="line2d_16">
      <g>
       <use xlink:href="#md19b7c0eee" x="743.79252" y="320.4" style="fill: #a9a9a9; stroke: #a9a9a9; stroke-width: 0.8"/>
      </g>
     </g>
     <g id="text_8">
      <!-- 2025-01 -->
      <g style="fill: #a9a9a9" transform="translate(722.901114 334.998438) scale(0.1 -0.1)">
       <defs>
        <path id="DejaVuSans-35" d="M 691 4666 
L 3169 4666 
L 3169 4134 
L 1269 4134 
L 1269 2991 
Q 1406 3038 1543 3061 
Q 1681 3084 1819 3084 
Q 2600 3084 3056 2656 
Q 3513 2228 3513 1497 
Q 3513 744 3044 326 
Q 2575 -91 1722 -91 
Q 1428 -91 1123 -41 
Q 819 9 494 109 
L 494 744 
Q 775 591 1075 516 
Q 1375 441 1709 441 
Q 2250 441 2565 725 
Q 2881 1009 2881 1497 
Q 2881 1984 2565 2268 
Q 2250 2553 1709 2553 
Q 1456 2553 1204 2497 
Q 953 2441 691 2322 
L 691 4666 
z
" transform="scale(0.015625)"/>
       </defs>
       <use xlink:href="#DejaVuSans-32"/>
       <use xlink:href="#DejaVuSans-30" transform="translate(63.623047 0)"/>
       <use xlink:href="#DejaVuSans-32" transform="translate(127.246094 0)"/>
       <use xlink:href="#DejaVuSans-35" transform="translate(190.869141 0)"/>
       <use xlink:href="#DejaVuSans-2d" transform="translate(254.492188 0)"/>
       <use xlink:href="#DejaVuSans-30" transform="translate(290.576172 0)"/>
       <use xlink:href="#DejaVuSans-31" transform="translate(354.199219 0)"/>
      </g>
     </g>
    </g>
   </g>
   <g id="matplotlib.axis_2">
    <g id="ytick_1">
     <g id="line2d_17">
      <path d="M 108 307.835088 
L 777.6 307.835088 
" clip-path="url(#p2945bbe89d)" style="fill: none; stroke-dasharray: 5.12,1.28,0.8,1.28; stroke-dashoffset: 0; stroke: #b0b0b0; stroke-width: 0.8"/>
     </g>
     <g id="line2d_18">
      <defs>
       <path id="mb2a8b45741" d="M 0 0 
L -3.5 0 
" style="stroke: #a9a9a9; stroke-width: 0.8"/>
      </defs>
      <g>
       <use xlink:href="#mb2a8b45741" x="108" y="307.835088" style="fill: #a9a9a9; stroke: #a9a9a9; stroke-width: 0.8"/>
      </g>
     </g>
     <g id="text_9">
      <!-- 0 -->
      <g style="fill: #a9a9a9" transform="translate(94.6375 311.634306) scale(0.1 -0.1)">
       <use xlink:href="#DejaVuSans-30"/>
      </g>
     </g>
    </g>
    <g id="ytick_2">
     <g id="line2d_19">
      <path d="M 108 279.764912 
L 777.6 279.764912 
" clip-path="url(#p2945bbe89d)" style="fill: none; stroke-dasharray: 5.12,1.28,0.8,1.28; stroke-dashoffset: 0; stroke: #b0b0b0; stroke-width: 0.8"/>
     </g>
     <g id="line2d_20">
      <g>
       <use xlink:href="#mb2a8b45741" x="108" y="279.764912" style="fill: #a9a9a9; stroke: #a9a9a9; stroke-width: 0.8"/>
      </g>
     </g>
     <g id="text_10">
      <!-- 800 -->
      <g style="fill: #a9a9a9" transform="translate(81.9125 283.564131) scale(0.1 -0.1)">
       <defs>
        <path id="DejaVuSans-38" d="M 2034 2216 
Q 1584 2216 1326 1975 
Q 1069 1734 1069 1313 
Q 1069 891 1326 650 
Q 1584 409 2034 409 
Q 2484 409 2743 651 
Q 3003 894 3003 1313 
Q 3003 1734 2745 1975 
Q 2488 2216 2034 2216 
z
M 1403 2484 
Q 997 2584 770 2862 
Q 544 3141 544 3541 
Q 544 4100 942 4425 
Q 1341 4750 2034 4750 
Q 2731 4750 3128 4425 
Q 3525 4100 3525 3541 
Q 3525 3141 3298 2862 
Q 3072 2584 2669 2484 
Q 3125 2378 3379 2068 
Q 3634 1759 3634 1313 
Q 3634 634 3220 271 
Q 2806 -91 2034 -91 
Q 1263 -91 848 271 
Q 434 634 434 1313 
Q 434 1759 690 2068 
Q 947 2378 1403 2484 
z
M 1172 3481 
Q 1172 3119 1398 2916 
Q 1625 2713 2034 2713 
Q 2441 2713 2670 2916 
Q 2900 3119 2900 3481 
Q 2900 3844 2670 4047 
Q 2441 4250 2034 4250 
Q 1625 4250 1398 4047 
Q 1172 3844 1172 3481 
z
" transform="scale(0.015625)"/>
       </defs>
       <use xlink:href="#DejaVuSans-38"/>
       <use xlink:href="#DejaVuSans-30" transform="translate(63.623047 0)"/>
       <use xlink:href="#DejaVuSans-30" transform="translate(127.246094 0)"/>
      </g>
     </g>
    </g>
    <g id="ytick_3">
     <g id="line2d_21">
      <path d="M 108 251.694737 
L 777.6 251.694737 
" clip-path="url(#p2945bbe89d)" style="fill: none; stroke-dasharray: 5.12,1.28,0.8,1.28; stroke-dashoffset: 0; stroke: #b0b0b0; stroke-width: 0.8"/>
     </g>
     <g id="line2d_22">
      <g>
       <use xlink:href="#mb2a8b45741" x="108" y="251.694737" style="fill: #a9a9a9; stroke: #a9a9a9; stroke-width: 0.8"/>
      </g>
     </g>
     <g id="text_11">
      <!-- 1600 -->
      <g style="fill: #a9a9a9" transform="translate(75.55 255.493956) scale(0.1 -0.1)">
       <defs>
        <path id="DejaVuSans-36" d="M 2113 2584 
Q 1688 2584 1439 2293 
Q 1191 2003 1191 1497 
Q 1191 994 1439 701 
Q 1688 409 2113 409 
Q 2538 409 2786 701 
Q 3034 994 3034 1497 
Q 3034 2003 2786 2293 
Q 2538 2584 2113 2584 
z
M 3366 4563 
L 3366 3988 
Q 3128 4100 2886 4159 
Q 2644 4219 2406 4219 
Q 1781 4219 1451 3797 
Q 1122 3375 1075 2522 
Q 1259 2794 1537 2939 
Q 1816 3084 2150 3084 
Q 2853 3084 3261 2657 
Q 3669 2231 3669 1497 
Q 3669 778 3244 343 
Q 2819 -91 2113 -91 
Q 1303 -91 875 529 
Q 447 1150 447 2328 
Q 447 3434 972 4092 
Q 1497 4750 2381 4750 
Q 2619 4750 2861 4703 
Q 3103 4656 3366 4563 
z
" transform="scale(0.015625)"/>
       </defs>
       <use xlink:href="#DejaVuSans-31"/>
       <use xlink:href="#DejaVuSans-36" transform="translate(63.623047 0)"/>
       <use xlink:href="#DejaVuSans-30" transform="translate(127.246094 0)"/>
       <use xlink:href="#DejaVuSans-30" transform="translate(190.869141 0)"/>
      </g>
     </g>
    </g>
    <g id="ytick_4">
     <g id="line2d_23">
      <path d="M 108 223.624561 
L 777.6 223.624561 
" clip-path="url(#p2945bbe89d)" style="fill: none; stroke-dasharray: 5.12,1.28,0.8,1.28; stroke-dashoffset: 0; stroke: #b0b0b0; stroke-width: 0.8"/>
     </g>
     <g id="line2d_24">
      <g>
       <use xlink:href="#mb2a8b45741" x="108" y="223.624561" style="fill: #a9a9a9; stroke: #a9a9a9; stroke-width: 0.8"/>
      </g>
     </g>
     <g id="text_12">
      <!-- 2400 -->
      <g style="fill: #a9a9a9" transform="translate(75.55 227.42378) scale(0.1 -0.1)">
       <use xlink:href="#DejaVuSans-32"/>
       <use xlink:href="#DejaVuSans-34" transform="translate(63.623047 0)"/>
       <use xlink:href="#DejaVuSans-30" transform="translate(127.246094 0)"/>
       <use xlink:href="#DejaVuSans-30" transform="translate(190.869141 0)"/>
      </g>
     </g>
    </g>
    <g id="ytick_5">
     <g id="line2d_25">
      <path d="M 108 195.554386 
L 777.6 195.554386 
" clip-path="url(#p2945bbe89d)" style="fill: none; stroke-dasharray: 5.12,1.28,0.8,1.28; stroke-dashoffset: 0; stroke: #b0b0b0; stroke-width: 0.8"/>
     </g>
     <g id="line2d_26">
      <g>
       <use xlink:href="#mb2a8b45741" x="108" y="195.554386" style="fill: #a9a9a9; stroke: #a9a9a9; stroke-width: 0.8"/>
      </g>
     </g>
     <g id="text_13">
      <!-- 3200 -->
      <g style="fill: #a9a9a9" transform="translate(75.55 199.353605) scale(0.1 -0.1)">
       <use xlink:href="#DejaVuSans-33"/>
       <use xlink:href="#DejaVuSans-32" transform="translate(63.623047 0)"/>
       <use xlink:href="#DejaVuSans-30" transform="translate(127.246094 0)"/>
       <use xlink:href="#DejaVuSans-30" transform="translate(190.869141 0)"/>
      </g>
     </g>
    </g>
    <g id="ytick_6">
     <g id="line2d_27">
      <path d="M 108 167.484211 
L 777.6 167.484211 
" clip-path="url(#p2945bbe89d)" style="fill: none; stroke-dasharray: 5.12,1.28,0.8,1.28; stroke-dashoffset: 0; stroke: #b0b0b0; stroke-width: 0.8"/>
     </g>
     <g id="line2d_28">
      <g>
       <use xlink:href="#mb2a8b45741" x="108" y="167.484211" style="fill: #a9a9a9; stroke: #a9a9a9; stroke-width: 0.8"/>
      </g>
     </g>
     <g id="text_14">
      <!-- 4000 -->
      <g style="fill: #a9a9a9" transform="translate(75.55 171.283429) scale(0.1 -0.1)">
       <use xlink:href="#DejaVuSans-34"/>
       <use xlink:href="#DejaVuSans-30" transform="translate(63.623047 0)"/>
       <use xlink:href="#DejaVuSans-30" transform="translate(127.246094 0)"/>
       <use xlink:href="#DejaVuSans-30" transform="translate(190.869141 0)"/>
      </g>
     </g>
    </g>
    <g id="ytick_7">
     <g id="line2d_29">
      <path d="M 108 139.414035 
L 777.6 139.414035 
" clip-path="url(#p2945bbe89d)" style="fill: none; stroke-dasharray: 5.12,1.28,0.8,1.28; stroke-dashoffset: 0; stroke: #b0b0b0; stroke-width: 0.8"/>
     </g>
     <g id="line2d_30">
      <g>
       <use xlink:href="#mb2a8b45741" x="108" y="139.414035" style="fill: #a9a9a9; stroke: #a9a9a9; stroke-width: 0.8"/>
      </g>
     </g>
     <g id="text_15">
      <!-- 4800 -->
      <g style="fill: #a9a9a9" transform="translate(75.55 143.213254) scale(0.1 -0.1)">
       <use xlink:href="#DejaVuSans-34"/>
       <use xlink:href="#DejaVuSans-38" transform="translate(63.623047 0)"/>
       <use xlink:href="#DejaVuSans-30" transform="translate(127.246094 0)"/>
       <use xlink:href="#DejaVuSans-30" transform="translate(190.869141 0)"/>
      </g>
     </g>
    </g>
    <g id="ytick_8">
     <g id="line2d_31">
      <path d="M 108 111.34386 
L 777.6 111.34386 
" clip-path="url(#p2945bbe89d)" style="fill: none; stroke-dasharray: 5.12,1.28,0.8,1.28; stroke-dashoffset: 0; stroke: #b0b0b0; stroke-width: 0.8"/>
     </g>
     <g id="line2d_32">
      <g>
       <use xlink:href="#mb2a8b45741" x="108" y="111.34386" style="fill: #a9a9a9; stroke: #a9a9a9; stroke-width: 0.8"/>
      </g>
     </g>
     <g id="text_16">
      <!-- 5600 -->
      <g style="fill: #a9a9a9" transform="translate(75.55 115.143078) scale(0.1 -0.1)">
       <use xlink:href="#DejaVuSans-35"/>
       <use xlink:href="#DejaVuSans-36" transform="translate(63.623047 0)"/>
       <use xlink:href="#DejaVuSans-30" transform="translate(127.246094 0)"/>
       <use xlink:href="#DejaVuSans-30" transform="translate(190.869141 0)"/>
      </g>
     </g>
    </g>
    <g id="ytick_9">
     <g id="line2d_33">
      <path d="M 108 83.273684 
L 777.6 83.273684 
" clip-path="url(#p2945bbe89d)" style="fill: none; stroke-dasharray: 5.12,1.28,0.8,1.28; stroke-dashoffset: 0; stroke: #b0b0b0; stroke-width: 0.8"/>
     </g>
     <g id="line2d_34">
      <g>
       <use xlink:href="#mb2a8b45741" x="108" y="83.273684" style="fill: #a9a9a9; stroke: #a9a9a9; stroke-width: 0.8"/>
      </g>
     </g>
     <g id="text_17">
      <!-- 6400 -->
      <g style="fill: #a9a9a9" transform="translate(75.55 87.072903) scale(0.1 -0.1)">
       <use xlink:href="#DejaVuSans-36"/>
       <use xlink:href="#DejaVuSans-34" transform="translate(63.623047 0)"/>
       <use xlink:href="#DejaVuSans-30" transform="translate(127.246094 0)"/>
       <use xlink:href="#DejaVuSans-30" transform="translate(190.869141 0)"/>
      </g>
     </g>
    </g>
    <g id="ytick_10">
     <g id="line2d_35">
      <path d="M 108 55.203509 
L 777.6 55.203509 
" clip-path="url(#p2945bbe89d)" style="fill: none; stroke-dasharray: 5.12,1.28,0.8,1.28; stroke-dashoffset: 0; stroke: #b0b0b0; stroke-width: 0.8"/>
     </g>
     <g id="line2d_36">
      <g>
       <use xlink:href="#mb2a8b45741" x="108" y="55.203509" style="fill: #a9a9a9; stroke: #a9a9a9; stroke-width: 0.8"/>
      </g>
     </g>
     <g id="text_18">
      <!-- 7200 -->
      <g style="fill: #a9a9a9" transform="translate(75.55 59.002728) scale(0.1 -0.1)">
       <use xlink:href="#DejaVuSans-37"/>
       <use xlink:href="#DejaVuSans-32" transform="translate(63.623047 0)"/>
       <use xlink:href="#DejaVuSans-30" transform="translate(127.246094 0)"/>
       <use xlink:href="#DejaVuSans-30" transform="translate(190.869141 0)"/>
      </g>
     </g>
    </g>
   </g>
   <g id="line2d_37">
    <path d="M 138.436364 307.729825 
L 141.325892 307.484211 
L 141.80748 307.273684 
L 143.733832 307.02807 
L 145.660184 306.642105 
L 146.62336 306.501754 
L 149.0313 306.291228 
L 149.994476 305.905263 
L 150.476064 305.273684 
L 150.957652 304.922807 
L 151.439241 303.835088 
L 151.920829 303.764912 
L 152.402417 303.378947 
L 153.365593 302.887719 
L 155.291945 301.34386 
L 157.218297 300.396491 
L 158.663061 299.729825 
L 159.144649 298.957895 
L 160.107825 298.25614 
L 160.589413 298.045614 
L 165.405293 297.34386 
L 165.886881 297.133333 
L 169.257998 296.852632 
L 171.18435 296.396491 
L 175.037054 295.870175 
L 175.518642 295.624561 
L 176.00023 295.554386 
L 176.963406 295.238596 
L 180.334522 294.677193 
L 181.297699 294.396491 
L 185.631991 293.659649 
L 186.595167 293.449123 
L 187.558343 293.414035 
L 189.484695 292.957895 
L 189.966283 292.291228 
L 191.411047 291.729825 
L 192.855811 291.34386 
L 193.337399 291.098246 
L 194.300575 290.922807 
L 196.226928 290.361404 
L 197.190104 290.291228 
L 198.15328 290.045614 
L 200.079632 289.554386 
L 200.56122 289.519298 
L 201.524396 289.063158 
L 202.005984 288.992982 
L 202.487572 288.747368 
L 207.78504 287.870175 
L 209.711392 287.308772 
L 210.19298 286.992982 
L 212.600921 286.185965 
L 213.564097 285.519298 
L 215.008861 285.238596 
L 227.53015 281.694737 
L 228.011738 281.694737 
L 228.493326 281.484211 
L 229.456502 281.378947 
L 229.93809 281.203509 
L 231.864442 281.133333 
L 232.827618 280.957895 
L 233.790794 280.466667 
L 235.235558 279.940351 
L 235.717146 279.624561 
L 236.680322 279.203509 
L 237.16191 278.957895 
L 238.125086 278.642105 
L 238.606674 278.501754 
L 239.56985 277.905263 
L 240.051438 277.378947 
L 241.014614 275.905263 
L 241.496203 275.764912 
L 241.977791 275.764912 
L 243.422555 274.922807 
L 243.904143 274.677193 
L 244.385731 274.57193 
L 244.867319 274.115789 
L 245.830495 273.729825 
L 246.793671 273.273684 
L 249.201611 270.221053 
L 252.091139 268.677193 
L 253.054315 267.905263 
L 253.535903 267.589474 
L 254.017491 266.887719 
L 254.499079 265.8 
L 254.980667 265.063158 
L 255.462255 264.677193 
L 255.943843 264.466667 
L 259.796548 260.957895 
L 260.759724 260.080702 
L 263.649252 258.291228 
L 264.13084 258.115789 
L 265.575604 257.273684 
L 267.020368 256.326316 
L 268.94672 254.607018 
L 269.909896 254.221053 
L 270.873072 253.554386 
L 271.354661 253.273684 
L 271.836249 253.203509 
L 273.281013 252.396491 
L 273.762601 251.870175 
L 276.170541 250.57193 
L 276.652129 250.396491 
L 278.096893 249.414035 
L 285.320713 246.887719 
L 286.28389 246.010526 
L 287.247066 245.554386 
L 288.210242 245.02807 
L 288.69183 244.747368 
L 289.655006 244.466667 
L 290.136594 244.150877 
L 290.618182 244.010526 
L 292.062946 243.063158 
L 294.470886 242.501754 
L 295.91565 241.659649 
L 297.360414 241.34386 
L 297.842002 241.203509 
L 299.286766 240.115789 
L 301.213119 239.589474 
L 301.694707 239.203509 
L 304.584235 238.221053 
L 305.547411 238.045614 
L 306.510587 237.659649 
L 309.881703 236.431579 
L 310.844879 236.291228 
L 312.289643 235.8 
L 314.697583 234.642105 
L 316.623936 233.589474 
L 320.47664 232.010526 
L 320.958228 231.940351 
L 321.921404 231.34386 
L 322.402992 231.273684 
L 324.329344 230.501754 
L 326.255696 230.25614 
L 327.218872 229.764912 
L 327.70046 229.34386 
L 328.182048 228.466667 
L 330.1084 227.940351 
L 331.553165 227.203509 
L 332.034753 227.098246 
L 335.405869 225.449123 
L 336.369045 225.203509 
L 337.332221 224.992982 
L 338.295397 224.501754 
L 338.776985 224.291228 
L 339.258573 224.221053 
L 341.184925 223.34386 
L 342.629689 222.431579 
L 344.074453 222.150877 
L 346.482394 221.554386 
L 346.963982 221.168421 
L 348.408746 220.642105 
L 350.335098 219.870175 
L 350.816686 219.519298 
L 351.298274 219.34386 
L 352.26145 218.817544 
L 354.66939 218.010526 
L 356.114154 216.852632 
L 356.595742 216.747368 
L 357.558918 215.975439 
L 358.040506 215.905263 
L 358.522094 215.133333 
L 359.003682 214.922807 
L 359.48527 214.536842 
L 359.966858 214.466667 
L 360.930035 213.870175 
L 361.893211 213.554386 
L 362.374799 213.203509 
L 362.856387 213.02807 
L 364.301151 212.010526 
L 366.227503 210.992982 
L 366.709091 210.922807 
L 368.153855 210.185965 
L 368.635443 209.378947 
L 369.598619 208.677193 
L 370.080207 208.57193 
L 371.043383 207.975439 
L 371.524971 207.870175 
L 372.488147 207.378947 
L 374.414499 206.431579 
L 374.896087 206.080702 
L 375.859264 205.133333 
L 376.82244 204.536842 
L 377.304028 204.221053 
L 377.785616 203.694737 
L 379.711968 202.361404 
L 380.193556 201.8 
L 380.675144 201.414035 
L 381.63832 201.063158 
L 382.601496 200.431579 
L 384.04626 199.694737 
L 384.527848 199.624561 
L 385.972612 198.852632 
L 386.935788 198.25614 
L 391.751669 196.501754 
L 392.233257 196.115789 
L 394.159609 195.378947 
L 394.641197 195.238596 
L 395.604373 194.607018 
L 396.567549 194.185965 
L 397.530725 193.519298 
L 398.493901 191.589474 
L 399.457077 190.466667 
L 400.901841 189.729825 
L 401.865017 189.34386 
L 402.346605 189.273684 
L 402.828193 188.992982 
L 405.236133 188.221053 
L 405.717722 188.010526 
L 406.680898 187.34386 
L 408.125662 186.712281 
L 409.088838 186.185965 
L 409.570426 185.835088 
L 410.052014 185.624561 
L 410.533602 185.273684 
L 411.01519 184.747368 
L 411.978366 184.221053 
L 414.386306 182.922807 
L 417.275834 181.484211 
L 418.720598 181.063158 
L 420.165362 180.501754 
L 420.646951 180.150877 
L 421.610127 179.870175 
L 422.573303 179.484211 
L 423.054891 179.098246 
L 424.981243 178.431579 
L 425.944419 177.729825 
L 426.907595 177.34386 
L 427.870771 176.607018 
L 428.833947 176.25614 
L 429.315535 175.835088 
L 429.797123 175.764912 
L 430.760299 175.02807 
L 431.723475 174.536842 
L 432.205063 174.326316 
L 432.686651 173.835088 
L 436.057768 172.501754 
L 437.020944 172.080702 
L 438.465708 171.624561 
L 439.428884 171.484211 
L 439.910472 171.273684 
L 440.39206 171.203509 
L 441.355236 170.782456 
L 441.836824 170.747368 
L 443.763176 170.010526 
L 445.20794 168.992982 
L 445.689528 168.817544 
L 446.652704 168.291228 
L 447.134292 168.150877 
L 450.02382 166.536842 
L 450.505409 166.431579 
L 451.950173 165.589474 
L 453.394937 165.098246 
L 454.358113 164.782456 
L 456.284465 164.150877 
L 457.247641 163.835088 
L 459.173993 163.449123 
L 459.655581 163.238596 
L 460.137169 163.168421 
L 461.100345 162.747368 
L 461.581933 162.677193 
L 462.063521 162.431579 
L 463.026697 162.25614 
L 464.471461 161.729825 
L 465.434638 161.624561 
L 466.879402 161.308772 
L 469.287342 160.887719 
L 481.808631 157.238596 
L 482.290219 156.747368 
L 483.253395 156.361404 
L 487.106099 154.922807 
L 487.587687 154.642105 
L 489.032451 154.221053 
L 489.995627 153.975439 
L 490.477215 153.659649 
L 490.958803 153.554386 
L 491.440391 153.133333 
L 492.885155 152.852632 
L 493.848331 152.396491 
L 494.329919 151.835088 
L 496.256272 151.378947 
L 499.627388 150.677193 
L 500.108976 150.677193 
L 500.590564 150.466667 
L 502.516916 150.115789 
L 502.998504 149.905263 
L 504.924856 149.554386 
L 505.888032 149.133333 
L 506.851208 148.957895 
L 509.259148 148.361404 
L 511.185501 147.764912 
L 511.667089 147.659649 
L 512.148677 147.414035 
L 513.111853 147.168421 
L 513.593441 146.887719 
L 515.038205 146.396491 
L 515.519793 146.080702 
L 516.482969 145.8 
L 520.335673 144.466667 
L 521.298849 144.396491 
L 523.225201 143.835088 
L 523.706789 143.554386 
L 524.669965 143.273684 
L 527.077906 142.185965 
L 527.559494 142.150877 
L 532.856962 140.291228 
L 535.264902 139.659649 
L 536.228078 139.203509 
L 537.672842 138.887719 
L 539.599194 137.308772 
L 540.562371 137.02807 
L 541.043959 136.642105 
L 543.933487 135.554386 
L 544.415075 135.238596 
L 545.378251 134.957895 
L 545.859839 134.642105 
L 548.267779 133.870175 
L 549.712543 133.02807 
L 550.194131 132.922807 
L 552.602071 131.624561 
L 554.046835 130.992982 
L 554.528423 130.642105 
L 555.4916 130.326316 
L 556.454776 129.764912 
L 556.936364 129.589474 
L 557.417952 129.238596 
L 563.678596 127.02807 
L 564.160184 126.922807 
L 564.641772 126.607018 
L 566.568124 126.221053 
L 567.5313 125.835088 
L 570.420829 124.431579 
L 570.902417 124.361404 
L 572.347181 123.554386 
L 573.791945 123.063158 
L 577.163061 121.694737 
L 577.644649 121.554386 
L 578.126237 121.238596 
L 579.089413 121.133333 
L 579.571001 120.817544 
L 580.534177 120.642105 
L 581.497353 120.185965 
L 581.978941 119.975439 
L 582.460529 119.905263 
L 584.86847 118.957895 
L 586.313234 118.57193 
L 587.27641 118.326316 
L 588.721174 117.905263 
L 589.68435 117.519298 
L 591.610702 116.466667 
L 592.573878 116.080702 
L 593.055466 115.764912 
L 594.018642 115.554386 
L 594.50023 115.273684 
L 594.981818 115.168421 
L 596.426582 114.361404 
L 597.389758 113.975439 
L 599.31611 113.238596 
L 601.724051 112.431579 
L 602.687227 111.940351 
L 605.095167 111.133333 
L 607.984695 109.975439 
L 609.911047 109.098246 
L 614.726928 107.238596 
L 615.208516 106.922807 
L 617.134868 106.25614 
L 617.616456 106.25614 
L 618.579632 105.835088 
L 620.505984 104.291228 
L 620.987572 104.150877 
L 621.46916 103.835088 
L 621.950748 103.729825 
L 622.432336 103.484211 
L 622.913924 103.414035 
L 623.395512 103.063158 
L 623.8771 102.957895 
L 624.840276 102.361404 
L 626.28504 101.624561 
L 627.248216 101.238596 
L 627.729804 100.992982 
L 629.174568 100.677193 
L 631.582509 99.870175 
L 632.545685 99.554386 
L 633.990449 98.817544 
L 634.953625 98.361404 
L 635.916801 98.115789 
L 637.361565 97.449123 
L 641.695857 95.870175 
L 643.140621 94.992982 
L 643.622209 94.887719 
L 644.585386 94.431579 
L 645.548562 94.080702 
L 646.03015 93.659649 
L 646.993326 93.273684 
L 649.882854 92.115789 
L 651.327618 91.694737 
L 651.809206 91.449123 
L 652.290794 91.378947 
L 653.735558 90.852632 
L 655.180322 90.326316 
L 656.143498 89.940351 
L 656.625086 89.554386 
L 658.06985 89.168421 
L 658.551438 88.887719 
L 659.514614 88.642105 
L 660.959379 87.835088 
L 661.440967 87.8 
L 662.885731 87.34386 
L 663.848907 87.273684 
L 664.812083 86.887719 
L 667.701611 86.045614 
L 668.664787 86.010526 
L 672.517491 84.782456 
L 673.480667 84.25614 
L 673.962255 83.835088 
L 675.40702 82.992982 
L 675.888608 82.642105 
L 676.851784 82.291228 
L 679.259724 81.519298 
L 679.741312 81.133333 
L 682.63084 79.940351 
L 684.557192 79.414035 
L 685.520368 78.992982 
L 686.001956 78.747368 
L 686.965132 78.466667 
L 687.44672 78.185965 
L 688.409896 78.010526 
L 690.817837 76.887719 
L 691.299425 76.607018 
L 692.744189 76.25614 
L 693.225777 75.940351 
L 693.707365 75.764912 
L 694.188953 75.34386 
L 694.670541 75.273684 
L 696.596893 74.501754 
L 698.523245 74.045614 
L 699.004833 73.975439 
L 699.486421 73.764912 
L 699.968009 73.729825 
L 700.931185 73.414035 
L 701.412773 73.378947 
L 702.857537 72.817544 
L 704.78389 72.25614 
L 705.747066 71.519298 
L 707.673418 70.466667 
L 709.118182 69.975439 
L 712.00771 68.677193 
L 712.970886 68.150877 
L 713.452474 67.905263 
L 713.934062 67.449123 
L 716.82359 66.501754 
L 717.786766 66.115789 
L 718.749942 65.870175 
L 719.23153 65.624561 
L 719.713119 65.203509 
L 721.639471 64.712281 
L 722.121059 64.361404 
L 728.381703 62.080702 
L 729.344879 61.905263 
L 733.679171 60.396491 
L 734.642348 60.150877 
L 735.123936 59.940351 
L 735.605524 59.905263 
L 736.5687 59.519298 
L 737.531876 58.922807 
L 738.013464 58.747368 
L 738.495052 58.712281 
L 739.939816 58.080702 
L 741.38458 57.554386 
L 741.866168 57.484211 
L 742.829344 57.098246 
L 744.274108 56.782456 
L 745.718872 56.326316 
L 746.20046 56.221053 
L 746.682048 55.870175 
L 747.163636 55.8 
L 747.163636 55.8 
" clip-path="url(#p2945bbe89d)" style="fill: none; stroke: #1f77b4; stroke-width: 1.5; stroke-linecap: square"/>
   </g>
   <g id="line2d_38">
    <path d="M 138.917952 307.8 
L 143.252244 307.694737 
L 147.104948 307.519298 
L 149.0313 307.519298 
L 149.512888 307.378947 
L 151.920829 307.273684 
L 154.810357 306.957895 
L 157.699885 306.852632 
L 158.663061 306.747368 
L 162.034177 306.607018 
L 165.405293 306.501754 
L 167.813234 306.431579 
L 174.073878 306.326316 
L 176.481818 306.25614 
L 179.852934 306.150877 
L 182.260875 306.080702 
L 187.558343 305.975439 
L 189.484695 305.8 
L 191.411047 305.764912 
L 194.300575 305.659649 
L 196.226928 305.624561 
L 198.634868 305.554386 
L 200.56122 305.378947 
L 204.895512 305.273684 
L 205.858688 305.203509 
L 207.78504 305.098246 
L 210.674568 304.992982 
L 212.600921 304.887719 
L 221.269505 304.361404 
L 224.640621 304.25614 
L 226.085386 304.115789 
L 228.493326 304.010526 
L 233.309206 303.764912 
L 238.125086 303.694737 
L 240.051438 303.484211 
L 241.977791 303.378947 
L 247.275259 302.887719 
L 250.646375 302.501754 
L 252.091139 302.431579 
L 255.943843 301.940351 
L 258.833372 301.870175 
L 260.278136 301.729825 
L 261.7229 301.624561 
L 275.207365 300.607018 
L 276.170541 300.431579 
L 279.060069 300.326316 
L 286.765478 299.870175 
L 290.136594 299.764912 
L 292.062946 299.554386 
L 294.470886 299.449123 
L 297.360414 299.34386 
L 299.768354 299.238596 
L 301.694707 299.203509 
L 304.102647 299.133333 
L 305.065823 298.992982 
L 311.808055 298.887719 
L 312.771231 298.782456 
L 318.550288 298.677193 
L 322.88458 298.466667 
L 326.255696 298.361404 
L 328.182048 298.150877 
L 331.553165 298.045614 
L 332.516341 297.870175 
L 334.924281 297.8 
L 339.740161 297.729825 
L 341.666513 297.554386 
L 343.592865 297.519298 
L 345.037629 297.414035 
L 346.963982 297.238596 
L 351.779862 296.992982 
L 356.595742 296.887719 
L 360.930035 296.677193 
L 362.374799 296.642105 
L 363.337975 296.501754 
L 365.745915 296.396491 
L 366.709091 296.326316 
L 367.672267 296.25614 
L 368.635443 296.185965 
L 372.969735 296.115789 
L 374.414499 296.010526 
L 387.417376 295.168421 
L 389.825316 295.063158 
L 392.233257 294.992982 
L 398.975489 294.887719 
L 399.938665 294.747368 
L 406.680898 294.642105 
L 411.496778 294.396491 
L 412.459954 294.361404 
L 413.42313 294.25614 
L 415.83107 294.150877 
L 418.23901 294.080702 
L 420.646951 293.975439 
L 423.054891 293.905263 
L 427.389183 293.8 
L 430.278711 293.694737 
L 437.020944 293.589474 
L 442.318412 293.308772 
L 444.244764 293.238596 
L 445.689528 293.133333 
L 452.431761 293.02807 
L 455.321289 292.922807 
L 463.989873 292.817544 
L 465.916226 292.782456 
L 471.695282 292.712281 
L 472.658458 292.642105 
L 479.40069 292.536842 
L 481.327043 292.501754 
L 493.848331 292.396491 
L 495.293096 292.25614 
L 516.964557 292.150877 
L 519.372497 292.080702 
L 531.893786 292.010526 
L 532.856962 291.940351 
L 535.264902 291.870175 
L 536.709666 291.729825 
L 539.599194 291.624561 
L 542.970311 291.484211 
L 547.304603 291.378947 
L 549.712543 291.308772 
L 553.083659 291.203509 
L 556.936364 291.02807 
L 559.344304 290.922807 
L 561.270656 290.887719 
L 565.604948 290.782456 
L 567.5313 290.747368 
L 573.791945 290.642105 
L 575.718297 290.607018 
L 578.126237 290.501754 
L 581.015765 290.396491 
L 584.386881 290.326316 
L 585.350058 290.25614 
L 596.90817 290.150877 
L 603.168815 289.8 
L 605.576755 289.729825 
L 606.539931 289.624561 
L 607.503107 289.554386 
L 611.355811 289.449123 
L 614.245339 289.34386 
L 619.06122 289.238596 
L 621.46916 288.992982 
L 626.28504 288.887719 
L 627.248216 288.782456 
L 632.064097 288.677193 
L 634.472037 288.607018 
L 639.769505 288.57193 
L 640.732681 288.466667 
L 646.03015 288.361404 
L 646.993326 288.291228 
L 657.588262 288.185965 
L 660.477791 288.080702 
L 667.701611 287.975439 
L 669.627963 287.940351 
L 673.962255 287.870175 
L 674.925432 287.764912 
L 681.186076 287.659649 
L 683.594016 287.589474 
L 692.262601 287.484211 
L 693.707365 287.378947 
L 695.152129 287.273684 
L 696.596893 287.168421 
L 703.820713 287.063158 
L 706.710242 286.957895 
L 719.713119 286.852632 
L 724.047411 286.642105 
L 729.826467 286.536842 
L 730.789643 286.431579 
L 738.013464 286.361404 
L 738.97664 286.291228 
L 744.274108 286.185965 
L 746.682048 286.115789 
L 747.163636 286.115789 
L 747.163636 286.115789 
" clip-path="url(#p2945bbe89d)" style="fill: none; stroke: #ff7f0e; stroke-width: 1.5; stroke-linecap: square"/>
   </g>
   <g id="patch_3">
    <path d="M 108 320.4 
L 108 43.2 
" style="fill: none; stroke: #a9a9a9; stroke-width: 0.8; stroke-linejoin: miter; stroke-linecap: square"/>
   </g>
   <g id="patch_4">
    <path d="M 777.6 320.4 
L 777.6 43.2 
" style="fill: none"/>
   </g>
   <g id="patch_5">
    <path d="M 108 320.4 
L 777.6 320.4 
" style="fill: none; stroke: #a9a9a9; stroke-width: 0.8; stroke-linejoin: miter; stroke-linecap: square"/>
   </g>
   <g id="patch_6">
    <path d="M 108 43.2 
L 777.6 43.2 
" style="fill: none"/>
   </g>
   <g id="text_19">
    <!-- get_subscribe history -->
    <g style="fill: #a9a9a9" transform="translate(378.6075 37.2) scale(0.12 -0.12)">
     <defs>
      <path id="DejaVuSans-67" d="M 2906 1791 
Q 2906 2416 2648 2759 
Q 2391 3103 1925 3103 
Q 1463 3103 1205 2759 
Q 947 2416 947 1791 
Q 947 1169 1205 825 
Q 1463 481 1925 481 
Q 2391 481 2648 825 
Q 2906 1169 2906 1791 
z
M 3481 434 
Q 3481 -459 3084 -895 
Q 2688 -1331 1869 -1331 
Q 1566 -1331 1297 -1286 
Q 1028 -1241 775 -1147 
L 775 -588 
Q 1028 -725 1275 -790 
Q 1522 -856 1778 -856 
Q 2344 -856 2625 -561 
Q 2906 -266 2906 331 
L 2906 616 
Q 2728 306 2450 153 
Q 2172 0 1784 0 
Q 1141 0 747 490 
Q 353 981 353 1791 
Q 353 2603 747 3093 
Q 1141 3584 1784 3584 
Q 2172 3584 2450 3431 
Q 2728 3278 2906 2969 
L 2906 3500 
L 3481 3500 
L 3481 434 
z
" transform="scale(0.015625)"/>
      <path id="DejaVuSans-65" d="M 3597 1894 
L 3597 1613 
L 953 1613 
Q 991 1019 1311 708 
Q 1631 397 2203 397 
Q 2534 397 2845 478 
Q 3156 559 3463 722 
L 3463 178 
Q 3153 47 2828 -22 
Q 2503 -91 2169 -91 
Q 1331 -91 842 396 
Q 353 884 353 1716 
Q 353 2575 817 3079 
Q 1281 3584 2069 3584 
Q 2775 3584 3186 3129 
Q 3597 2675 3597 1894 
z
M 3022 2063 
Q 3016 2534 2758 2815 
Q 2500 3097 2075 3097 
Q 1594 3097 1305 2825 
Q 1016 2553 972 2059 
L 3022 2063 
z
" transform="scale(0.015625)"/>
      <path id="DejaVuSans-74" d="M 1172 4494 
L 1172 3500 
L 2356 3500 
L 2356 3053 
L 1172 3053 
L 1172 1153 
Q 1172 725 1289 603 
Q 1406 481 1766 481 
L 2356 481 
L 2356 0 
L 1766 0 
Q 1100 0 847 248 
Q 594 497 594 1153 
L 594 3053 
L 172 3053 
L 172 3500 
L 594 3500 
L 594 4494 
L 1172 4494 
z
" transform="scale(0.015625)"/>
      <path id="DejaVuSans-5f" d="M 3263 -1063 
L 3263 -1509 
L -63 -1509 
L -63 -1063 
L 3263 -1063 
z
" transform="scale(0.015625)"/>
      <path id="DejaVuSans-73" d="M 2834 3397 
L 2834 2853 
Q 2591 2978 2328 3040 
Q 2066 3103 1784 3103 
Q 1356 3103 1142 2972 
Q 928 2841 928 2578 
Q 928 2378 1081 2264 
Q 1234 2150 1697 2047 
L 1894 2003 
Q 2506 1872 2764 1633 
Q 3022 1394 3022 966 
Q 3022 478 2636 193 
Q 2250 -91 1575 -91 
Q 1294 -91 989 -36 
Q 684 19 347 128 
L 347 722 
Q 666 556 975 473 
Q 1284 391 1588 391 
Q 1994 391 2212 530 
Q 2431 669 2431 922 
Q 2431 1156 2273 1281 
Q 2116 1406 1581 1522 
L 1381 1569 
Q 847 1681 609 1914 
Q 372 2147 372 2553 
Q 372 3047 722 3315 
Q 1072 3584 1716 3584 
Q 2034 3584 2315 3537 
Q 2597 3491 2834 3397 
z
" transform="scale(0.015625)"/>
      <path id="DejaVuSans-75" d="M 544 1381 
L 544 3500 
L 1119 3500 
L 1119 1403 
Q 1119 906 1312 657 
Q 1506 409 1894 409 
Q 2359 409 2629 706 
Q 2900 1003 2900 1516 
L 2900 3500 
L 3475 3500 
L 3475 0 
L 2900 0 
L 2900 538 
Q 2691 219 2414 64 
Q 2138 -91 1772 -91 
Q 1169 -91 856 284 
Q 544 659 544 1381 
z
M 1991 3584 
L 1991 3584 
z
" transform="scale(0.015625)"/>
      <path id="DejaVuSans-62" d="M 3116 1747 
Q 3116 2381 2855 2742 
Q 2594 3103 2138 3103 
Q 1681 3103 1420 2742 
Q 1159 2381 1159 1747 
Q 1159 1113 1420 752 
Q 1681 391 2138 391 
Q 2594 391 2855 752 
Q 3116 1113 3116 1747 
z
M 1159 2969 
Q 1341 3281 1617 3432 
Q 1894 3584 2278 3584 
Q 2916 3584 3314 3078 
Q 3713 2572 3713 1747 
Q 3713 922 3314 415 
Q 2916 -91 2278 -91 
Q 1894 -91 1617 61 
Q 1341 213 1159 525 
L 1159 0 
L 581 0 
L 581 4863 
L 1159 4863 
L 1159 2969 
z
" transform="scale(0.015625)"/>
      <path id="DejaVuSans-63" d="M 3122 3366 
L 3122 2828 
Q 2878 2963 2633 3030 
Q 2388 3097 2138 3097 
Q 1578 3097 1268 2742 
Q 959 2388 959 1747 
Q 959 1106 1268 751 
Q 1578 397 2138 397 
Q 2388 397 2633 464 
Q 2878 531 3122 666 
L 3122 134 
Q 2881 22 2623 -34 
Q 2366 -91 2075 -91 
Q 1284 -91 818 406 
Q 353 903 353 1747 
Q 353 2603 823 3093 
Q 1294 3584 2113 3584 
Q 2378 3584 2631 3529 
Q 2884 3475 3122 3366 
z
" transform="scale(0.015625)"/>
      <path id="DejaVuSans-72" d="M 2631 2963 
Q 2534 3019 2420 3045 
Q 2306 3072 2169 3072 
Q 1681 3072 1420 2755 
Q 1159 2438 1159 1844 
L 1159 0 
L 581 0 
L 581 3500 
L 1159 3500 
L 1159 2956 
Q 1341 3275 1631 3429 
Q 1922 3584 2338 3584 
Q 2397 3584 2469 3576 
Q 2541 3569 2628 3553 
L 2631 2963 
z
" transform="scale(0.015625)"/>
      <path id="DejaVuSans-69" d="M 603 3500 
L 1178 3500 
L 1178 0 
L 603 0 
L 603 3500 
z
M 603 4863 
L 1178 4863 
L 1178 4134 
L 603 4134 
L 603 4863 
z
" transform="scale(0.015625)"/>
      <path id="DejaVuSans-20" transform="scale(0.015625)"/>
      <path id="DejaVuSans-68" d="M 3513 2113 
L 3513 0 
L 2938 0 
L 2938 2094 
Q 2938 2591 2744 2837 
Q 2550 3084 2163 3084 
Q 1697 3084 1428 2787 
Q 1159 2491 1159 1978 
L 1159 0 
L 581 0 
L 581 4863 
L 1159 4863 
L 1159 2956 
Q 1366 3272 1645 3428 
Q 1925 3584 2291 3584 
Q 2894 3584 3203 3211 
Q 3513 2838 3513 2113 
z
" transform="scale(0.015625)"/>
      <path id="DejaVuSans-6f" d="M 1959 3097 
Q 1497 3097 1228 2736 
Q 959 2375 959 1747 
Q 959 1119 1226 758 
Q 1494 397 1959 397 
Q 2419 397 2687 759 
Q 2956 1122 2956 1747 
Q 2956 2369 2687 2733 
Q 2419 3097 1959 3097 
z
M 1959 3584 
Q 2709 3584 3137 3096 
Q 3566 2609 3566 1747 
Q 3566 888 3137 398 
Q 2709 -91 1959 -91 
Q 1206 -91 779 398 
Q 353 888 353 1747 
Q 353 2609 779 3096 
Q 1206 3584 1959 3584 
z
" transform="scale(0.015625)"/>
      <path id="DejaVuSans-79" d="M 2059 -325 
Q 1816 -950 1584 -1140 
Q 1353 -1331 966 -1331 
L 506 -1331 
L 506 -850 
L 844 -850 
Q 1081 -850 1212 -737 
Q 1344 -625 1503 -206 
L 1606 56 
L 191 3500 
L 800 3500 
L 1894 763 
L 2988 3500 
L 3597 3500 
L 2059 -325 
z
" transform="scale(0.015625)"/>
     </defs>
     <use xlink:href="#DejaVuSans-67"/>
     <use xlink:href="#DejaVuSans-65" transform="translate(63.476562 0)"/>
     <use xlink:href="#DejaVuSans-74" transform="translate(125 0)"/>
     <use xlink:href="#DejaVuSans-5f" transform="translate(164.208984 0)"/>
     <use xlink:href="#DejaVuSans-73" transform="translate(214.208984 0)"/>
     <use xlink:href="#DejaVuSans-75" transform="translate(266.308594 0)"/>
     <use xlink:href="#DejaVuSans-62" transform="translate(329.6875 0)"/>
     <use xlink:href="#DejaVuSans-73" transform="translate(393.164062 0)"/>
     <use xlink:href="#DejaVuSans-63" transform="translate(445.263672 0)"/>
     <use xlink:href="#DejaVuSans-72" transform="translate(500.244141 0)"/>
     <use xlink:href="#DejaVuSans-69" transform="translate(541.357422 0)"/>
     <use xlink:href="#DejaVuSans-62" transform="translate(569.140625 0)"/>
     <use xlink:href="#DejaVuSans-65" transform="translate(632.617188 0)"/>
     <use xlink:href="#DejaVuSans-20" transform="translate(694.140625 0)"/>
     <use xlink:href="#DejaVuSans-68" transform="translate(725.927734 0)"/>
     <use xlink:href="#DejaVuSans-69" transform="translate(789.306641 0)"/>
     <use xlink:href="#DejaVuSans-73" transform="translate(817.089844 0)"/>
     <use xlink:href="#DejaVuSans-74" transform="translate(869.189453 0)"/>
     <use xlink:href="#DejaVuSans-6f" transform="translate(908.398438 0)"/>
     <use xlink:href="#DejaVuSans-72" transform="translate(969.580078 0)"/>
     <use xlink:href="#DejaVuSans-79" transform="translate(1010.693359 0)"/>
    </g>
   </g>
   <g id="legend_1">
    <g id="line2d_39">
     <path d="M 815.08 328.498438 
L 825.08 328.498438 
L 835.08 328.498438 
" style="fill: none; stroke: #1f77b4; stroke-width: 1.5; stroke-linecap: square"/>
    </g>
    <g id="text_20">
     <!-- star -->
     <g style="fill: #a9a9a9" transform="translate(843.08 331.998438) scale(0.1 -0.1)">
      <defs>
       <path id="DejaVuSans-61" d="M 2194 1759 
Q 1497 1759 1228 1600 
Q 959 1441 959 1056 
Q 959 750 1161 570 
Q 1363 391 1709 391 
Q 2188 391 2477 730 
Q 2766 1069 2766 1631 
L 2766 1759 
L 2194 1759 
z
M 3341 1997 
L 3341 0 
L 2766 0 
L 2766 531 
Q 2569 213 2275 61 
Q 1981 -91 1556 -91 
Q 1019 -91 701 211 
Q 384 513 384 1019 
Q 384 1609 779 1909 
Q 1175 2209 1959 2209 
L 2766 2209 
L 2766 2266 
Q 2766 2663 2505 2880 
Q 2244 3097 1772 3097 
Q 1472 3097 1187 3025 
Q 903 2953 641 2809 
L 641 3341 
Q 956 3463 1253 3523 
Q 1550 3584 1831 3584 
Q 2591 3584 2966 3190 
Q 3341 2797 3341 1997 
z
" transform="scale(0.015625)"/>
      </defs>
      <use xlink:href="#DejaVuSans-73"/>
      <use xlink:href="#DejaVuSans-74" transform="translate(52.099609 0)"/>
      <use xlink:href="#DejaVuSans-61" transform="translate(91.308594 0)"/>
      <use xlink:href="#DejaVuSans-72" transform="translate(152.587891 0)"/>
     </g>
    </g>
    <g id="line2d_40">
     <path d="M 815.08 343.176562 
L 825.08 343.176562 
L 835.08 343.176562 
" style="fill: none; stroke: #ff7f0e; stroke-width: 1.5; stroke-linecap: square"/>
    </g>
    <g id="text_21">
     <!-- fork -->
     <g style="fill: #a9a9a9" transform="translate(843.08 346.676562) scale(0.1 -0.1)">
      <defs>
       <path id="DejaVuSans-66" d="M 2375 4863 
L 2375 4384 
L 1825 4384 
Q 1516 4384 1395 4259 
Q 1275 4134 1275 3809 
L 1275 3500 
L 2222 3500 
L 2222 3053 
L 1275 3053 
L 1275 0 
L 697 0 
L 697 3053 
L 147 3053 
L 147 3500 
L 697 3500 
L 697 3744 
Q 697 4328 969 4595 
Q 1241 4863 1831 4863 
L 2375 4863 
z
" transform="scale(0.015625)"/>
       <path id="DejaVuSans-6b" d="M 581 4863 
L 1159 4863 
L 1159 1991 
L 2875 3500 
L 3609 3500 
L 1753 1863 
L 3688 0 
L 2938 0 
L 1159 1709 
L 1159 0 
L 581 0 
L 581 4863 
z
" transform="scale(0.015625)"/>
      </defs>
      <use xlink:href="#DejaVuSans-66"/>
      <use xlink:href="#DejaVuSans-6f" transform="translate(35.205078 0)"/>
      <use xlink:href="#DejaVuSans-72" transform="translate(96.386719 0)"/>
      <use xlink:href="#DejaVuSans-6b" transform="translate(137.5 0)"/>
     </g>
    </g>
   </g>
  </g>
 </g>
 <defs>
  <clipPath id="p2945bbe89d">
   <rect x="108" y="43.2" width="669.6" height="277.2"/>
  </clipPath>
 </defs>
</svg>
