<?xml version="1.0" encoding="utf-8" standalone="no"?>
<!DOCTYPE svg PUBLIC "-//W3C//DTD SVG 1.1//EN"
  "http://www.w3.org/Graphics/SVG/1.1/DTD/svg11.dtd">
<svg xmlns:xlink="http://www.w3.org/1999/xlink" width="864pt" height="360pt" viewBox="0 0 864 360" xmlns="http://www.w3.org/2000/svg" version="1.1">
 <metadata>
  <rdf:RDF xmlns:dc="http://purl.org/dc/elements/1.1/" xmlns:cc="http://creativecommons.org/ns#" xmlns:rdf="http://www.w3.org/1999/02/22-rdf-syntax-ns#">
   <cc:Work>
    <dc:type rdf:resource="http://purl.org/dc/dcmitype/StillImage"/>
    <dc:date>2024-03-04T20:09:18.130563</dc:date>
    <dc:format>image/svg+xml</dc:format>
    <dc:creator>
     <cc:Agent>
      <dc:title>Matplotlib v3.8.3, https://matplotlib.org/</dc:title>
     </cc:Agent>
    </dc:creator>
   </cc:Work>
  </rdf:RDF>
 </metadata>
 <defs>
  <style type="text/css">*{stroke-linejoin: round; stroke-linecap: butt}</style>
 </defs>
 <g id="figure_1">
  <g id="patch_1">
   <path d="M 0 360 
L 864 360 
L 864 0 
L 0 0 
L 0 360 
z
" style="fill: none; opacity: 0"/>
  </g>
  <g id="axes_1">
   <g id="patch_2">
    <path d="M 108 320.4 
L 777.6 320.4 
L 777.6 43.2 
L 108 43.2 
L 108 320.4 
z
" style="fill: none; opacity: 0"/>
   </g>
   <g id="matplotlib.axis_1">
    <g id="xtick_1">
     <g id="line2d_1">
      <path d="M 163.321441 320.4 
L 163.321441 43.2 
" clip-path="url(#pe5c26e8414)" style="fill: none; stroke-dasharray: 5.12,1.28,0.8,1.28; stroke-dashoffset: 0; stroke: #b0b0b0; stroke-width: 0.8"/>
     </g>
     <g id="line2d_2">
      <defs>
       <path id="m7752e86e2b" d="M 0 0 
L 0 3.5 
" style="stroke: #a9a9a9; stroke-width: 0.8"/>
      </defs>
      <g>
       <use xlink:href="#m7752e86e2b" x="163.321441" y="320.4" style="fill: #a9a9a9; stroke: #a9a9a9; stroke-width: 0.8"/>
      </g>
     </g>
     <g id="text_1">
      <!-- 2021-09 -->
      <g style="fill: #a9a9a9" transform="translate(142.430035 334.998438) scale(0.1 -0.1)">
       <defs>
        <path id="DejaVuSans-32" d="M 1228 531 
L 3431 531 
L 3431 0 
L 469 0 
L 469 531 
Q 828 903 1448 1529 
Q 2069 2156 2228 2338 
Q 2531 2678 2651 2914 
Q 2772 3150 2772 3378 
Q 2772 3750 2511 3984 
Q 2250 4219 1831 4219 
Q 1534 4219 1204 4116 
Q 875 4013 500 3803 
L 500 4441 
Q 881 4594 1212 4672 
Q 1544 4750 1819 4750 
Q 2544 4750 2975 4387 
Q 3406 4025 3406 3419 
Q 3406 3131 3298 2873 
Q 3191 2616 2906 2266 
Q 2828 2175 2409 1742 
Q 1991 1309 1228 531 
z
" transform="scale(0.015625)"/>
        <path id="DejaVuSans-30" d="M 2034 4250 
Q 1547 4250 1301 3770 
Q 1056 3291 1056 2328 
Q 1056 1369 1301 889 
Q 1547 409 2034 409 
Q 2525 409 2770 889 
Q 3016 1369 3016 2328 
Q 3016 3291 2770 3770 
Q 2525 4250 2034 4250 
z
M 2034 4750 
Q 2819 4750 3233 4129 
Q 3647 3509 3647 2328 
Q 3647 1150 3233 529 
Q 2819 -91 2034 -91 
Q 1250 -91 836 529 
Q 422 1150 422 2328 
Q 422 3509 836 4129 
Q 1250 4750 2034 4750 
z
" transform="scale(0.015625)"/>
        <path id="DejaVuSans-31" d="M 794 531 
L 1825 531 
L 1825 4091 
L 703 3866 
L 703 4441 
L 1819 4666 
L 2450 4666 
L 2450 531 
L 3481 531 
L 3481 0 
L 794 0 
L 794 531 
z
" transform="scale(0.015625)"/>
        <path id="DejaVuSans-2d" d="M 313 2009 
L 1997 2009 
L 1997 1497 
L 313 1497 
L 313 2009 
z
" transform="scale(0.015625)"/>
        <path id="DejaVuSans-39" d="M 703 97 
L 703 672 
Q 941 559 1184 500 
Q 1428 441 1663 441 
Q 2288 441 2617 861 
Q 2947 1281 2994 2138 
Q 2813 1869 2534 1725 
Q 2256 1581 1919 1581 
Q 1219 1581 811 2004 
Q 403 2428 403 3163 
Q 403 3881 828 4315 
Q 1253 4750 1959 4750 
Q 2769 4750 3195 4129 
Q 3622 3509 3622 2328 
Q 3622 1225 3098 567 
Q 2575 -91 1691 -91 
Q 1453 -91 1209 -44 
Q 966 3 703 97 
z
M 1959 2075 
Q 2384 2075 2632 2365 
Q 2881 2656 2881 3163 
Q 2881 3666 2632 3958 
Q 2384 4250 1959 4250 
Q 1534 4250 1286 3958 
Q 1038 3666 1038 3163 
Q 1038 2656 1286 2365 
Q 1534 2075 1959 2075 
z
" transform="scale(0.015625)"/>
       </defs>
       <use xlink:href="#DejaVuSans-32"/>
       <use xlink:href="#DejaVuSans-30" x="63.623047"/>
       <use xlink:href="#DejaVuSans-32" x="127.246094"/>
       <use xlink:href="#DejaVuSans-31" x="190.869141"/>
       <use xlink:href="#DejaVuSans-2d" x="254.492188"/>
       <use xlink:href="#DejaVuSans-30" x="290.576172"/>
       <use xlink:href="#DejaVuSans-39" x="354.199219"/>
      </g>
     </g>
    </g>
    <g id="xtick_2">
     <g id="line2d_3">
      <path d="M 241.167067 320.4 
L 241.167067 43.2 
" clip-path="url(#pe5c26e8414)" style="fill: none; stroke-dasharray: 5.12,1.28,0.8,1.28; stroke-dashoffset: 0; stroke: #b0b0b0; stroke-width: 0.8"/>
     </g>
     <g id="line2d_4">
      <g>
       <use xlink:href="#m7752e86e2b" x="241.167067" y="320.4" style="fill: #a9a9a9; stroke: #a9a9a9; stroke-width: 0.8"/>
      </g>
     </g>
     <g id="text_2">
      <!-- 2022-01 -->
      <g style="fill: #a9a9a9" transform="translate(220.275661 334.998438) scale(0.1 -0.1)">
       <use xlink:href="#DejaVuSans-32"/>
       <use xlink:href="#DejaVuSans-30" x="63.623047"/>
       <use xlink:href="#DejaVuSans-32" x="127.246094"/>
       <use xlink:href="#DejaVuSans-32" x="190.869141"/>
       <use xlink:href="#DejaVuSans-2d" x="254.492188"/>
       <use xlink:href="#DejaVuSans-30" x="290.576172"/>
       <use xlink:href="#DejaVuSans-31" x="354.199219"/>
      </g>
     </g>
    </g>
    <g id="xtick_3">
     <g id="line2d_5">
      <path d="M 317.736535 320.4 
L 317.736535 43.2 
" clip-path="url(#pe5c26e8414)" style="fill: none; stroke-dasharray: 5.12,1.28,0.8,1.28; stroke-dashoffset: 0; stroke: #b0b0b0; stroke-width: 0.8"/>
     </g>
     <g id="line2d_6">
      <g>
       <use xlink:href="#m7752e86e2b" x="317.736535" y="320.4" style="fill: #a9a9a9; stroke: #a9a9a9; stroke-width: 0.8"/>
      </g>
     </g>
     <g id="text_3">
      <!-- 2022-05 -->
      <g style="fill: #a9a9a9" transform="translate(296.845129 334.998438) scale(0.1 -0.1)">
       <defs>
        <path id="DejaVuSans-35" d="M 691 4666 
L 3169 4666 
L 3169 4134 
L 1269 4134 
L 1269 2991 
Q 1406 3038 1543 3061 
Q 1681 3084 1819 3084 
Q 2600 3084 3056 2656 
Q 3513 2228 3513 1497 
Q 3513 744 3044 326 
Q 2575 -91 1722 -91 
Q 1428 -91 1123 -41 
Q 819 9 494 109 
L 494 744 
Q 775 591 1075 516 
Q 1375 441 1709 441 
Q 2250 441 2565 725 
Q 2881 1009 2881 1497 
Q 2881 1984 2565 2268 
Q 2250 2553 1709 2553 
Q 1456 2553 1204 2497 
Q 953 2441 691 2322 
L 691 4666 
z
" transform="scale(0.015625)"/>
       </defs>
       <use xlink:href="#DejaVuSans-32"/>
       <use xlink:href="#DejaVuSans-30" x="63.623047"/>
       <use xlink:href="#DejaVuSans-32" x="127.246094"/>
       <use xlink:href="#DejaVuSans-32" x="190.869141"/>
       <use xlink:href="#DejaVuSans-2d" x="254.492188"/>
       <use xlink:href="#DejaVuSans-30" x="290.576172"/>
       <use xlink:href="#DejaVuSans-35" x="354.199219"/>
      </g>
     </g>
    </g>
    <g id="xtick_4">
     <g id="line2d_7">
      <path d="M 396.22024 320.4 
L 396.22024 43.2 
" clip-path="url(#pe5c26e8414)" style="fill: none; stroke-dasharray: 5.12,1.28,0.8,1.28; stroke-dashoffset: 0; stroke: #b0b0b0; stroke-width: 0.8"/>
     </g>
     <g id="line2d_8">
      <g>
       <use xlink:href="#m7752e86e2b" x="396.22024" y="320.4" style="fill: #a9a9a9; stroke: #a9a9a9; stroke-width: 0.8"/>
      </g>
     </g>
     <g id="text_4">
      <!-- 2022-09 -->
      <g style="fill: #a9a9a9" transform="translate(375.328834 334.998438) scale(0.1 -0.1)">
       <use xlink:href="#DejaVuSans-32"/>
       <use xlink:href="#DejaVuSans-30" x="63.623047"/>
       <use xlink:href="#DejaVuSans-32" x="127.246094"/>
       <use xlink:href="#DejaVuSans-32" x="190.869141"/>
       <use xlink:href="#DejaVuSans-2d" x="254.492188"/>
       <use xlink:href="#DejaVuSans-30" x="290.576172"/>
       <use xlink:href="#DejaVuSans-39" x="354.199219"/>
      </g>
     </g>
    </g>
    <g id="xtick_5">
     <g id="line2d_9">
      <path d="M 474.065866 320.4 
L 474.065866 43.2 
" clip-path="url(#pe5c26e8414)" style="fill: none; stroke-dasharray: 5.12,1.28,0.8,1.28; stroke-dashoffset: 0; stroke: #b0b0b0; stroke-width: 0.8"/>
     </g>
     <g id="line2d_10">
      <g>
       <use xlink:href="#m7752e86e2b" x="474.065866" y="320.4" style="fill: #a9a9a9; stroke: #a9a9a9; stroke-width: 0.8"/>
      </g>
     </g>
     <g id="text_5">
      <!-- 2023-01 -->
      <g style="fill: #a9a9a9" transform="translate(453.17446 334.998438) scale(0.1 -0.1)">
       <defs>
        <path id="DejaVuSans-33" d="M 2597 2516 
Q 3050 2419 3304 2112 
Q 3559 1806 3559 1356 
Q 3559 666 3084 287 
Q 2609 -91 1734 -91 
Q 1441 -91 1130 -33 
Q 819 25 488 141 
L 488 750 
Q 750 597 1062 519 
Q 1375 441 1716 441 
Q 2309 441 2620 675 
Q 2931 909 2931 1356 
Q 2931 1769 2642 2001 
Q 2353 2234 1838 2234 
L 1294 2234 
L 1294 2753 
L 1863 2753 
Q 2328 2753 2575 2939 
Q 2822 3125 2822 3475 
Q 2822 3834 2567 4026 
Q 2313 4219 1838 4219 
Q 1578 4219 1281 4162 
Q 984 4106 628 3988 
L 628 4550 
Q 988 4650 1302 4700 
Q 1616 4750 1894 4750 
Q 2613 4750 3031 4423 
Q 3450 4097 3450 3541 
Q 3450 3153 3228 2886 
Q 3006 2619 2597 2516 
z
" transform="scale(0.015625)"/>
       </defs>
       <use xlink:href="#DejaVuSans-32"/>
       <use xlink:href="#DejaVuSans-30" x="63.623047"/>
       <use xlink:href="#DejaVuSans-32" x="127.246094"/>
       <use xlink:href="#DejaVuSans-33" x="190.869141"/>
       <use xlink:href="#DejaVuSans-2d" x="254.492188"/>
       <use xlink:href="#DejaVuSans-30" x="290.576172"/>
       <use xlink:href="#DejaVuSans-31" x="354.199219"/>
      </g>
     </g>
    </g>
    <g id="xtick_6">
     <g id="line2d_11">
      <path d="M 550.635334 320.4 
L 550.635334 43.2 
" clip-path="url(#pe5c26e8414)" style="fill: none; stroke-dasharray: 5.12,1.28,0.8,1.28; stroke-dashoffset: 0; stroke: #b0b0b0; stroke-width: 0.8"/>
     </g>
     <g id="line2d_12">
      <g>
       <use xlink:href="#m7752e86e2b" x="550.635334" y="320.4" style="fill: #a9a9a9; stroke: #a9a9a9; stroke-width: 0.8"/>
      </g>
     </g>
     <g id="text_6">
      <!-- 2023-05 -->
      <g style="fill: #a9a9a9" transform="translate(529.743928 334.998438) scale(0.1 -0.1)">
       <use xlink:href="#DejaVuSans-32"/>
       <use xlink:href="#DejaVuSans-30" x="63.623047"/>
       <use xlink:href="#DejaVuSans-32" x="127.246094"/>
       <use xlink:href="#DejaVuSans-33" x="190.869141"/>
       <use xlink:href="#DejaVuSans-2d" x="254.492188"/>
       <use xlink:href="#DejaVuSans-30" x="290.576172"/>
       <use xlink:href="#DejaVuSans-35" x="354.199219"/>
      </g>
     </g>
    </g>
    <g id="xtick_7">
     <g id="line2d_13">
      <path d="M 629.119039 320.4 
L 629.119039 43.2 
" clip-path="url(#pe5c26e8414)" style="fill: none; stroke-dasharray: 5.12,1.28,0.8,1.28; stroke-dashoffset: 0; stroke: #b0b0b0; stroke-width: 0.8"/>
     </g>
     <g id="line2d_14">
      <g>
       <use xlink:href="#m7752e86e2b" x="629.119039" y="320.4" style="fill: #a9a9a9; stroke: #a9a9a9; stroke-width: 0.8"/>
      </g>
     </g>
     <g id="text_7">
      <!-- 2023-09 -->
      <g style="fill: #a9a9a9" transform="translate(608.227633 334.998438) scale(0.1 -0.1)">
       <use xlink:href="#DejaVuSans-32"/>
       <use xlink:href="#DejaVuSans-30" x="63.623047"/>
       <use xlink:href="#DejaVuSans-32" x="127.246094"/>
       <use xlink:href="#DejaVuSans-33" x="190.869141"/>
       <use xlink:href="#DejaVuSans-2d" x="254.492188"/>
       <use xlink:href="#DejaVuSans-30" x="290.576172"/>
       <use xlink:href="#DejaVuSans-39" x="354.199219"/>
      </g>
     </g>
    </g>
    <g id="xtick_8">
     <g id="line2d_15">
      <path d="M 706.964666 320.4 
L 706.964666 43.2 
" clip-path="url(#pe5c26e8414)" style="fill: none; stroke-dasharray: 5.12,1.28,0.8,1.28; stroke-dashoffset: 0; stroke: #b0b0b0; stroke-width: 0.8"/>
     </g>
     <g id="line2d_16">
      <g>
       <use xlink:href="#m7752e86e2b" x="706.964666" y="320.4" style="fill: #a9a9a9; stroke: #a9a9a9; stroke-width: 0.8"/>
      </g>
     </g>
     <g id="text_8">
      <!-- 2024-01 -->
      <g style="fill: #a9a9a9" transform="translate(686.073259 334.998438) scale(0.1 -0.1)">
       <defs>
        <path id="DejaVuSans-34" d="M 2419 4116 
L 825 1625 
L 2419 1625 
L 2419 4116 
z
M 2253 4666 
L 3047 4666 
L 3047 1625 
L 3713 1625 
L 3713 1100 
L 3047 1100 
L 3047 0 
L 2419 0 
L 2419 1100 
L 313 1100 
L 313 1709 
L 2253 4666 
z
" transform="scale(0.015625)"/>
       </defs>
       <use xlink:href="#DejaVuSans-32"/>
       <use xlink:href="#DejaVuSans-30" x="63.623047"/>
       <use xlink:href="#DejaVuSans-32" x="127.246094"/>
       <use xlink:href="#DejaVuSans-34" x="190.869141"/>
       <use xlink:href="#DejaVuSans-2d" x="254.492188"/>
       <use xlink:href="#DejaVuSans-30" x="290.576172"/>
       <use xlink:href="#DejaVuSans-31" x="354.199219"/>
      </g>
     </g>
    </g>
   </g>
   <g id="matplotlib.axis_2">
    <g id="ytick_1">
     <g id="line2d_17">
      <path d="M 108 307.844071 
L 777.6 307.844071 
" clip-path="url(#pe5c26e8414)" style="fill: none; stroke-dasharray: 5.12,1.28,0.8,1.28; stroke-dashoffset: 0; stroke: #b0b0b0; stroke-width: 0.8"/>
     </g>
     <g id="line2d_18">
      <defs>
       <path id="m11fe6fe00c" d="M 0 0 
L -3.5 0 
" style="stroke: #a9a9a9; stroke-width: 0.8"/>
      </defs>
      <g>
       <use xlink:href="#m11fe6fe00c" x="108" y="307.844071" style="fill: #a9a9a9; stroke: #a9a9a9; stroke-width: 0.8"/>
      </g>
     </g>
     <g id="text_9">
      <!-- 0 -->
      <g style="fill: #a9a9a9" transform="translate(94.6375 311.64329) scale(0.1 -0.1)">
       <use xlink:href="#DejaVuSans-30"/>
      </g>
     </g>
    </g>
    <g id="ytick_2">
     <g id="line2d_19">
      <path d="M 108 272.586988 
L 777.6 272.586988 
" clip-path="url(#pe5c26e8414)" style="fill: none; stroke-dasharray: 5.12,1.28,0.8,1.28; stroke-dashoffset: 0; stroke: #b0b0b0; stroke-width: 0.8"/>
     </g>
     <g id="line2d_20">
      <g>
       <use xlink:href="#m11fe6fe00c" x="108" y="272.586988" style="fill: #a9a9a9; stroke: #a9a9a9; stroke-width: 0.8"/>
      </g>
     </g>
     <g id="text_10">
      <!-- 800 -->
      <g style="fill: #a9a9a9" transform="translate(81.9125 276.386207) scale(0.1 -0.1)">
       <defs>
        <path id="DejaVuSans-38" d="M 2034 2216 
Q 1584 2216 1326 1975 
Q 1069 1734 1069 1313 
Q 1069 891 1326 650 
Q 1584 409 2034 409 
Q 2484 409 2743 651 
Q 3003 894 3003 1313 
Q 3003 1734 2745 1975 
Q 2488 2216 2034 2216 
z
M 1403 2484 
Q 997 2584 770 2862 
Q 544 3141 544 3541 
Q 544 4100 942 4425 
Q 1341 4750 2034 4750 
Q 2731 4750 3128 4425 
Q 3525 4100 3525 3541 
Q 3525 3141 3298 2862 
Q 3072 2584 2669 2484 
Q 3125 2378 3379 2068 
Q 3634 1759 3634 1313 
Q 3634 634 3220 271 
Q 2806 -91 2034 -91 
Q 1263 -91 848 271 
Q 434 634 434 1313 
Q 434 1759 690 2068 
Q 947 2378 1403 2484 
z
M 1172 3481 
Q 1172 3119 1398 2916 
Q 1625 2713 2034 2713 
Q 2441 2713 2670 2916 
Q 2900 3119 2900 3481 
Q 2900 3844 2670 4047 
Q 2441 4250 2034 4250 
Q 1625 4250 1398 4047 
Q 1172 3844 1172 3481 
z
" transform="scale(0.015625)"/>
       </defs>
       <use xlink:href="#DejaVuSans-38"/>
       <use xlink:href="#DejaVuSans-30" x="63.623047"/>
       <use xlink:href="#DejaVuSans-30" x="127.246094"/>
      </g>
     </g>
    </g>
    <g id="ytick_3">
     <g id="line2d_21">
      <path d="M 108 237.329906 
L 777.6 237.329906 
" clip-path="url(#pe5c26e8414)" style="fill: none; stroke-dasharray: 5.12,1.28,0.8,1.28; stroke-dashoffset: 0; stroke: #b0b0b0; stroke-width: 0.8"/>
     </g>
     <g id="line2d_22">
      <g>
       <use xlink:href="#m11fe6fe00c" x="108" y="237.329906" style="fill: #a9a9a9; stroke: #a9a9a9; stroke-width: 0.8"/>
      </g>
     </g>
     <g id="text_11">
      <!-- 1600 -->
      <g style="fill: #a9a9a9" transform="translate(75.55 241.129124) scale(0.1 -0.1)">
       <defs>
        <path id="DejaVuSans-36" d="M 2113 2584 
Q 1688 2584 1439 2293 
Q 1191 2003 1191 1497 
Q 1191 994 1439 701 
Q 1688 409 2113 409 
Q 2538 409 2786 701 
Q 3034 994 3034 1497 
Q 3034 2003 2786 2293 
Q 2538 2584 2113 2584 
z
M 3366 4563 
L 3366 3988 
Q 3128 4100 2886 4159 
Q 2644 4219 2406 4219 
Q 1781 4219 1451 3797 
Q 1122 3375 1075 2522 
Q 1259 2794 1537 2939 
Q 1816 3084 2150 3084 
Q 2853 3084 3261 2657 
Q 3669 2231 3669 1497 
Q 3669 778 3244 343 
Q 2819 -91 2113 -91 
Q 1303 -91 875 529 
Q 447 1150 447 2328 
Q 447 3434 972 4092 
Q 1497 4750 2381 4750 
Q 2619 4750 2861 4703 
Q 3103 4656 3366 4563 
z
" transform="scale(0.015625)"/>
       </defs>
       <use xlink:href="#DejaVuSans-31"/>
       <use xlink:href="#DejaVuSans-36" x="63.623047"/>
       <use xlink:href="#DejaVuSans-30" x="127.246094"/>
       <use xlink:href="#DejaVuSans-30" x="190.869141"/>
      </g>
     </g>
    </g>
    <g id="ytick_4">
     <g id="line2d_23">
      <path d="M 108 202.072823 
L 777.6 202.072823 
" clip-path="url(#pe5c26e8414)" style="fill: none; stroke-dasharray: 5.12,1.28,0.8,1.28; stroke-dashoffset: 0; stroke: #b0b0b0; stroke-width: 0.8"/>
     </g>
     <g id="line2d_24">
      <g>
       <use xlink:href="#m11fe6fe00c" x="108" y="202.072823" style="fill: #a9a9a9; stroke: #a9a9a9; stroke-width: 0.8"/>
      </g>
     </g>
     <g id="text_12">
      <!-- 2400 -->
      <g style="fill: #a9a9a9" transform="translate(75.55 205.872041) scale(0.1 -0.1)">
       <use xlink:href="#DejaVuSans-32"/>
       <use xlink:href="#DejaVuSans-34" x="63.623047"/>
       <use xlink:href="#DejaVuSans-30" x="127.246094"/>
       <use xlink:href="#DejaVuSans-30" x="190.869141"/>
      </g>
     </g>
    </g>
    <g id="ytick_5">
     <g id="line2d_25">
      <path d="M 108 166.81574 
L 777.6 166.81574 
" clip-path="url(#pe5c26e8414)" style="fill: none; stroke-dasharray: 5.12,1.28,0.8,1.28; stroke-dashoffset: 0; stroke: #b0b0b0; stroke-width: 0.8"/>
     </g>
     <g id="line2d_26">
      <g>
       <use xlink:href="#m11fe6fe00c" x="108" y="166.81574" style="fill: #a9a9a9; stroke: #a9a9a9; stroke-width: 0.8"/>
      </g>
     </g>
     <g id="text_13">
      <!-- 3200 -->
      <g style="fill: #a9a9a9" transform="translate(75.55 170.614959) scale(0.1 -0.1)">
       <use xlink:href="#DejaVuSans-33"/>
       <use xlink:href="#DejaVuSans-32" x="63.623047"/>
       <use xlink:href="#DejaVuSans-30" x="127.246094"/>
       <use xlink:href="#DejaVuSans-30" x="190.869141"/>
      </g>
     </g>
    </g>
    <g id="ytick_6">
     <g id="line2d_27">
      <path d="M 108 131.558657 
L 777.6 131.558657 
" clip-path="url(#pe5c26e8414)" style="fill: none; stroke-dasharray: 5.12,1.28,0.8,1.28; stroke-dashoffset: 0; stroke: #b0b0b0; stroke-width: 0.8"/>
     </g>
     <g id="line2d_28">
      <g>
       <use xlink:href="#m11fe6fe00c" x="108" y="131.558657" style="fill: #a9a9a9; stroke: #a9a9a9; stroke-width: 0.8"/>
      </g>
     </g>
     <g id="text_14">
      <!-- 4000 -->
      <g style="fill: #a9a9a9" transform="translate(75.55 135.357876) scale(0.1 -0.1)">
       <use xlink:href="#DejaVuSans-34"/>
       <use xlink:href="#DejaVuSans-30" x="63.623047"/>
       <use xlink:href="#DejaVuSans-30" x="127.246094"/>
       <use xlink:href="#DejaVuSans-30" x="190.869141"/>
      </g>
     </g>
    </g>
    <g id="ytick_7">
     <g id="line2d_29">
      <path d="M 108 96.301574 
L 777.6 96.301574 
" clip-path="url(#pe5c26e8414)" style="fill: none; stroke-dasharray: 5.12,1.28,0.8,1.28; stroke-dashoffset: 0; stroke: #b0b0b0; stroke-width: 0.8"/>
     </g>
     <g id="line2d_30">
      <g>
       <use xlink:href="#m11fe6fe00c" x="108" y="96.301574" style="fill: #a9a9a9; stroke: #a9a9a9; stroke-width: 0.8"/>
      </g>
     </g>
     <g id="text_15">
      <!-- 4800 -->
      <g style="fill: #a9a9a9" transform="translate(75.55 100.100793) scale(0.1 -0.1)">
       <use xlink:href="#DejaVuSans-34"/>
       <use xlink:href="#DejaVuSans-38" x="63.623047"/>
       <use xlink:href="#DejaVuSans-30" x="127.246094"/>
       <use xlink:href="#DejaVuSans-30" x="190.869141"/>
      </g>
     </g>
    </g>
    <g id="ytick_8">
     <g id="line2d_31">
      <path d="M 108 61.044491 
L 777.6 61.044491 
" clip-path="url(#pe5c26e8414)" style="fill: none; stroke-dasharray: 5.12,1.28,0.8,1.28; stroke-dashoffset: 0; stroke: #b0b0b0; stroke-width: 0.8"/>
     </g>
     <g id="line2d_32">
      <g>
       <use xlink:href="#m11fe6fe00c" x="108" y="61.044491" style="fill: #a9a9a9; stroke: #a9a9a9; stroke-width: 0.8"/>
      </g>
     </g>
     <g id="text_16">
      <!-- 5600 -->
      <g style="fill: #a9a9a9" transform="translate(75.55 64.84371) scale(0.1 -0.1)">
       <use xlink:href="#DejaVuSans-35"/>
       <use xlink:href="#DejaVuSans-36" x="63.623047"/>
       <use xlink:href="#DejaVuSans-30" x="127.246094"/>
       <use xlink:href="#DejaVuSans-30" x="190.869141"/>
      </g>
     </g>
    </g>
   </g>
   <g id="line2d_33">
    <path d="M 138.436364 307.711857 
L 142.264837 307.403358 
L 142.902916 307.13893 
L 144.817153 306.918573 
L 148.645626 306.16936 
L 152.474099 305.86086 
L 153.112178 305.552361 
L 153.750257 305.376076 
L 154.388336 304.582791 
L 155.026415 304.142078 
L 155.664494 302.775866 
L 156.302573 302.687723 
L 156.940652 302.202938 
L 158.21681 301.585939 
L 160.769125 299.6468 
L 162.045283 299.117943 
L 162.683362 298.67723 
L 165.235678 297.575446 
L 165.873756 296.561805 
L 167.149914 295.636306 
L 167.787993 295.327807 
L 174.168782 294.44638 
L 174.806861 294.13788 
L 179.273413 293.78531 
L 181.18765 293.300525 
L 186.93036 292.551312 
L 187.568439 292.198741 
L 188.206518 292.110598 
L 188.844597 291.84617 
L 190.120755 291.625813 
L 190.758834 291.581742 
L 191.396913 291.361385 
L 193.949228 290.964743 
L 195.225386 290.612172 
L 197.139623 290.435887 
L 198.41578 290.303673 
L 199.053859 290.127387 
L 199.691938 290.083316 
L 201.606175 289.510388 
L 205.434648 288.937461 
L 206.072727 288.761175 
L 206.710806 287.879748 
L 208.625043 287.174607 
L 210.53928 286.64575 
L 211.177358 286.337251 
L 211.815437 286.293179 
L 215.005832 285.411752 
L 216.28199 285.32361 
L 216.920069 285.235467 
L 218.834305 284.662539 
L 221.386621 284.04554 
L 222.0247 283.781112 
L 222.662779 283.69297 
L 223.300858 283.38447 
L 229.681647 282.4149 
L 232.872041 281.533473 
L 233.51012 281.136831 
L 236.062436 280.475761 
L 237.338593 279.726548 
L 237.976672 279.285834 
L 239.890909 278.933263 
L 243.719383 277.787408 
L 244.99554 277.390766 
L 245.633619 277.302623 
L 246.909777 276.950052 
L 248.185935 276.641553 
L 248.824014 276.55341 
L 250.100172 276.024554 
L 250.73825 275.89234 
L 251.376329 275.627912 
L 252.014408 275.539769 
L 252.652487 275.23127 
L 253.290566 275.054984 
L 254.566724 274.966842 
L 255.842882 274.526128 
L 257.119039 274.437985 
L 257.757118 274.129486 
L 260.309434 273.688772 
L 262.86175 273.468416 
L 263.499828 273.336201 
L 264.775986 272.719203 
L 271.794854 269.766422 
L 272.432933 269.413851 
L 273.071012 268.708709 
L 273.709091 267.650997 
L 274.34717 266.813641 
L 274.985249 266.637356 
L 275.623328 266.637356 
L 276.899485 265.711857 
L 277.537564 265.535572 
L 278.175643 265.183001 
L 278.813722 265.050787 
L 279.451801 264.477859 
L 280.08988 264.301574 
L 282.004117 263.376076 
L 283.280274 261.613221 
L 283.918353 261.216579 
L 284.556432 260.158867 
L 285.194511 259.497796 
L 285.83259 259.189297 
L 286.470669 259.013012 
L 289.022985 257.514586 
L 290.299142 256.500944 
L 290.937221 256.104302 
L 291.5753 255.178804 
L 292.213379 253.724449 
L 292.851458 252.798951 
L 293.489537 252.314166 
L 294.127616 252.049738 
L 296.679931 249.84617 
L 297.956089 248.832529 
L 298.594168 248.303673 
L 299.232247 247.466317 
L 300.508405 246.364533 
L 303.06072 244.733893 
L 303.698799 244.160965 
L 304.336878 244.028751 
L 304.974957 243.764323 
L 306.251115 243.059182 
L 308.165352 242.089612 
L 309.441509 240.899685 
L 310.079588 240.150472 
L 311.355746 239.269045 
L 311.993825 239.09276 
L 312.631904 238.78426 
L 313.908062 237.946905 
L 314.546141 237.594334 
L 315.18422 237.506191 
L 316.460377 236.801049 
L 317.098456 236.448478 
L 317.736535 235.787408 
L 318.374614 235.390766 
L 319.012693 235.170409 
L 320.288851 234.421196 
L 320.92693 234.068625 
L 321.565009 233.848269 
L 323.479245 232.614271 
L 325.393482 232.041343 
L 326.031561 231.60063 
L 326.66964 231.468416 
L 327.945798 231.027702 
L 329.860034 230.278489 
L 331.774271 229.573347 
L 333.050429 229.352991 
L 334.326587 228.251207 
L 335.602744 227.634208 
L 337.516981 226.532424 
L 338.793139 226.179853 
L 339.431218 225.783211 
L 340.069297 225.606925 
L 341.983533 224.416999 
L 345.173928 223.667786 
L 347.088165 222.566002 
L 347.726244 222.477859 
L 348.364322 222.257503 
L 349.64048 221.993075 
L 351.554717 220.582791 
L 353.468954 220.142078 
L 354.107033 219.921721 
L 354.745111 219.436936 
L 358.573585 218.202938 
L 359.211664 218.158867 
L 363.678216 216.572298 
L 364.316295 216.263799 
L 366.230532 215.823085 
L 367.50669 215.514586 
L 368.144768 215.206086 
L 368.782847 215.073872 
L 370.697084 214.192445 
L 372.611321 213.266946 
L 373.2494 212.826233 
L 373.887479 212.649948 
L 375.801715 211.636306 
L 377.077873 211.327807 
L 378.354031 210.666737 
L 379.630189 210.314166 
L 380.268268 210.226023 
L 381.544425 209.47681 
L 382.182504 209.344596 
L 383.458662 208.81574 
L 384.096741 208.683526 
L 384.73482 208.330955 
L 387.287136 207.934313 
L 388.563293 207.317314 
L 389.201372 206.788458 
L 389.839451 205.686674 
L 391.115609 205.422246 
L 391.753688 205.290031 
L 394.306003 203.967891 
L 394.944082 203.835677 
L 400.048714 201.411752 
L 401.96295 201.01511 
L 402.601029 200.662539 
L 406.429503 199.340399 
L 407.70566 198.547114 
L 408.981818 197.797901 
L 409.619897 197.709759 
L 410.257976 197.489402 
L 410.896055 197.445331 
L 414.086449 196.607975 
L 414.724528 196.12319 
L 416.000686 195.682476 
L 417.914923 195.065477 
L 418.553002 194.668835 
L 419.191081 194.49255 
L 419.82916 194.051836 
L 420.467238 193.787408 
L 421.105317 193.390766 
L 422.381475 192.950052 
L 424.295712 192.333054 
L 424.933791 192.024554 
L 426.848027 190.570199 
L 427.486106 190.437985 
L 428.762264 189.468416 
L 429.400343 189.336201 
L 430.038422 188.366632 
L 430.676501 188.102204 
L 431.31458 187.617419 
L 431.952659 187.529276 
L 433.228816 186.780063 
L 433.866895 186.647849 
L 434.504974 186.383421 
L 435.143053 185.898636 
L 435.781132 185.678279 
L 437.695369 184.40021 
L 440.247684 183.122141 
L 440.885763 183.033998 
L 442.161921 182.46107 
L 442.8 182.108499 
L 443.438079 181.050787 
L 444.076158 180.477859 
L 444.714237 180.125289 
L 445.352316 179.993075 
L 446.628473 179.19979 
L 447.266552 179.067576 
L 448.54271 178.450577 
L 450.456947 177.657293 
L 451.733105 176.775866 
L 453.009262 175.453725 
L 456.199657 173.162015 
L 457.475815 172.104302 
L 458.113894 171.839874 
L 458.751973 171.134732 
L 459.390051 170.649948 
L 460.666209 170.209234 
L 461.304288 169.680378 
L 462.580446 169.019307 
L 463.218525 168.843022 
L 463.856604 168.402308 
L 464.494683 168.270094 
L 466.408919 167.256453 
L 467.685077 166.50724 
L 474.065866 164.259601 
L 474.703945 163.686674 
L 476.618182 162.981532 
L 477.89434 162.58489 
L 478.532419 162.100105 
L 481.084734 160.777964 
L 481.722813 160.425393 
L 482.998971 157.913326 
L 484.275129 156.4149 
L 485.551286 155.665687 
L 487.465523 154.916474 
L 488.103602 154.828332 
L 488.741681 154.475761 
L 490.655918 153.902833 
L 493.208233 152.756978 
L 493.846312 152.360336 
L 495.12247 151.919622 
L 498.950943 149.716055 
L 499.589022 149.054984 
L 500.86518 148.349843 
L 501.503259 147.997272 
L 502.141338 147.776915 
L 502.779417 147.336201 
L 504.055575 146.719203 
L 505.969811 145.705561 
L 506.60789 145.529276 
L 507.245969 145.044491 
L 507.884048 144.780063 
L 508.522127 144.647849 
L 509.798285 144.207135 
L 511.712521 143.501994 
L 512.3506 143.06128 
L 513.626758 142.708709 
L 514.902916 142.223924 
L 515.540995 141.73914 
L 516.817153 141.342497 
L 517.455232 141.033998 
L 518.09331 140.857712 
L 519.369468 139.976285 
L 520.645626 139.403358 
L 521.921784 138.433788 
L 523.197942 137.993075 
L 523.836021 137.464218 
L 524.474099 137.376076 
L 525.750257 136.450577 
L 527.026415 135.833578 
L 527.664494 135.56915 
L 528.302573 134.952151 
L 532.131046 133.585939 
L 534.045283 132.748583 
L 535.95952 132.175656 
L 537.235678 131.99937 
L 537.873756 131.734942 
L 538.511835 131.6468 
L 539.787993 131.117943 
L 540.426072 131.073872 
L 542.978388 130.148374 
L 544.892624 128.826233 
L 545.530703 128.561805 
L 546.168782 128.165163 
L 548.083019 127.327807 
L 549.997256 126.181952 
L 550.635334 125.78531 
L 551.911492 125.47681 
L 553.18765 124.595383 
L 555.739966 123.802099 
L 556.378045 123.537671 
L 557.654202 123.229171 
L 560.844597 122.21553 
L 562.758834 121.862959 
L 565.311149 121.069675 
L 565.949228 120.805247 
L 566.587307 120.717104 
L 567.225386 120.408604 
L 568.501544 120.144176 
L 569.139623 119.835677 
L 571.053859 119.394963 
L 572.330017 119.130535 
L 576.158491 118.425393 
L 577.434648 118.160965 
L 578.072727 118.028751 
L 578.710806 117.764323 
L 579.348885 117.720252 
L 581.263122 117.191396 
L 581.901201 116.838825 
L 585.091595 116.04554 
L 585.729674 115.913326 
L 587.005832 115.472613 
L 588.920069 114.811542 
L 589.558148 114.7234 
L 591.472384 114.062329 
L 592.110463 114.062329 
L 593.386621 113.621616 
L 594.0247 113.004617 
L 594.662779 112.696118 
L 595.938937 112.299475 
L 598.491252 111.329906 
L 599.129331 111.197692 
L 599.76741 110.801049 
L 600.405489 110.668835 
L 601.043568 110.272193 
L 604.233962 109.346695 
L 604.872041 108.950052 
L 605.51012 108.773767 
L 606.148199 108.244911 
L 608.062436 107.89234 
L 609.338593 107.187198 
L 609.976672 106.482057 
L 611.25283 106.217629 
L 615.719383 105.203987 
L 616.357461 105.027702 
L 617.633619 104.983631 
L 618.271698 104.675131 
L 620.824014 104.234418 
L 621.462093 103.925918 
L 623.376329 103.66149 
L 625.928645 102.868206 
L 627.842882 102.427492 
L 629.757118 101.942707 
L 632.309434 101.149423 
L 632.947513 101.017209 
L 633.585592 100.708709 
L 634.223671 100.620567 
L 634.86175 100.40021 
L 635.499828 100.003568 
L 637.414065 99.298426 
L 638.052144 98.813641 
L 639.328302 98.46107 
L 639.966381 98.196642 
L 641.242539 97.844071 
L 643.794854 96.698216 
L 645.709091 96.566002 
L 648.261407 95.772718 
L 648.899485 95.376076 
L 650.175643 94.979433 
L 652.08988 94.009864 
L 652.727959 93.87765 
L 653.366038 93.56915 
L 654.004117 93.481007 
L 661.022985 91.145226 
L 663.5753 90.528227 
L 664.213379 90.351941 
L 665.489537 89.779014 
L 666.127616 89.690871 
L 667.403774 89.3383 
L 668.041852 88.853515 
L 668.679931 88.545016 
L 669.31801 87.795803 
L 669.956089 87.355089 
L 671.232247 86.958447 
L 671.870326 86.429591 
L 678.889194 83.564953 
L 680.165352 83.256453 
L 681.441509 82.683526 
L 683.355746 81.581742 
L 683.993825 81.449528 
L 684.631904 80.964743 
L 685.908062 80.347744 
L 687.18422 79.55446 
L 689.098456 78.673033 
L 689.736535 78.232319 
L 691.012693 77.747534 
L 692.288851 76.998321 
L 692.92693 76.689822 
L 693.565009 76.249108 
L 694.841166 75.808395 
L 695.479245 75.67618 
L 698.031561 74.530325 
L 701.221955 73.428541 
L 701.860034 73.38447 
L 702.498113 73.208185 
L 703.136192 72.811542 
L 703.774271 72.7234 
L 704.41235 72.458972 
L 706.326587 72.106401 
L 709.516981 70.475761 
L 710.793139 69.770619 
L 711.431218 69.682476 
L 713.345455 68.668835 
L 715.259691 67.963694 
L 717.173928 67.126338 
L 719.726244 66.112697 
L 720.364322 65.936411 
L 721.002401 65.539769 
L 722.278559 65.363484 
L 722.916638 64.966842 
L 723.554717 64.92277 
L 724.830875 64.526128 
L 726.107033 63.909129 
L 726.745111 63.820986 
L 727.38319 63.556558 
L 728.021269 63.424344 
L 729.935506 62.586988 
L 730.573585 62.454774 
L 731.211664 62.190346 
L 734.402058 61.441133 
L 736.316295 60.69192 
L 738.230532 59.546065 
L 739.50669 59.017209 
L 740.144768 58.752781 
L 740.782847 58.356139 
L 742.059005 58.09171 
L 742.697084 57.73914 
L 743.335163 57.606925 
L 744.611321 56.901784 
L 746.525557 56.064428 
L 747.163636 55.8 
L 747.163636 55.8 
" clip-path="url(#pe5c26e8414)" style="fill: none; stroke: #1f77b4; stroke-width: 1.5; stroke-linecap: square"/>
   </g>
   <g id="line2d_34">
    <path d="M 139.074443 307.8 
L 140.988679 307.711857 
L 142.902916 307.667786 
L 146.731389 307.579643 
L 149.921784 307.447429 
L 152.474099 307.447429 
L 153.112178 307.271144 
L 155.664494 307.183001 
L 157.578731 306.962644 
L 159.492967 306.786359 
L 163.321441 306.610073 
L 163.95952 306.610073 
L 164.597599 306.477859 
L 167.149914 306.389717 
L 168.426072 306.301574 
L 173.530703 306.213431 
L 176.721098 306.081217 
L 184.378045 305.993075 
L 187.568439 305.86086 
L 191.396913 305.772718 
L 193.949228 305.684575 
L 199.691938 305.596432 
L 201.606175 305.552361 
L 203.520412 305.50829 
L 205.434648 305.287933 
L 209.263122 305.243861 
L 210.53928 305.155719 
L 215.005832 305.067576 
L 222.0247 304.670934 
L 226.491252 304.582791 
L 227.76741 304.494648 
L 229.681647 304.406506 
L 233.51012 304.23022 
L 236.062436 304.186149 
L 237.976672 304.009864 
L 248.185935 303.392865 
L 250.73825 303.304722 
L 255.204803 303.084365 
L 257.119039 302.996222 
L 263.499828 302.643652 
L 270.518696 302.555509 
L 273.071012 302.291081 
L 274.34717 302.202938 
L 282.642196 301.541868 
L 286.470669 301.057083 
L 289.022985 300.96894 
L 294.127616 300.30787 
L 297.31801 300.219727 
L 305.613036 299.558657 
L 308.803431 299.206086 
L 311.355746 299.117943 
L 312.631904 299.029801 
L 315.18422 298.941658 
L 316.460377 298.853515 
L 319.650772 298.545016 
L 320.288851 298.36873 
L 324.117324 298.192445 
L 327.307719 298.104302 
L 335.602744 297.619517 
L 337.516981 297.531375 
L 345.812007 297.04659 
L 350.278559 296.958447 
L 350.916638 296.826233 
L 356.021269 296.73809 
L 360.487822 296.517733 
L 367.50669 296.429591 
L 371.973242 296.209234 
L 377.077873 296.121091 
L 382.182504 295.856663 
L 386.649057 295.76852 
L 398.772556 295.019307 
L 403.877187 294.931165 
L 420.467238 293.873452 
L 424.295712 293.78531 
L 426.209949 293.741238 
L 428.124185 293.697167 
L 430.038422 293.520881 
L 435.143053 293.432739 
L 436.419211 293.212382 
L 437.695369 293.124239 
L 440.885763 292.992025 
L 442.161921 292.903882 
L 443.438079 292.81574 
L 449.180789 292.727597 
L 450.456947 292.595383 
L 453.009262 292.551312 
L 453.647341 292.419098 
L 454.923499 292.330955 
L 455.561578 292.198741 
L 457.475815 292.110598 
L 468.323156 291.449528 
L 470.237393 291.361385 
L 473.427787 291.229171 
L 482.360892 291.141028 
L 486.827444 290.920672 
L 491.932075 290.832529 
L 494.484391 290.744386 
L 497.036707 290.700315 
L 498.312864 290.568101 
L 500.86518 290.479958 
L 507.245969 290.127387 
L 511.074443 290.083316 
L 512.988679 289.90703 
L 514.902916 289.862959 
L 519.369468 289.774816 
L 521.921784 289.686674 
L 529.578731 289.598531 
L 532.769125 289.466317 
L 536.597599 289.378174 
L 538.511835 289.157817 
L 542.340309 289.113746 
L 544.254545 288.937461 
L 546.806861 288.849318 
L 554.463808 288.761175 
L 557.654202 288.628961 
L 568.501544 288.58489 
L 569.777702 288.496747 
L 571.691938 288.452676 
L 579.986964 288.364533 
L 581.263122 288.27639 
L 588.28199 288.188248 
L 590.834305 288.100105 
L 598.491252 288.056034 
L 599.76741 287.967891 
L 609.338593 287.92382 
L 611.25283 287.747534 
L 622.100172 287.659391 
L 624.014408 287.61532 
L 640.60446 287.527177 
L 642.518696 287.483106 
L 654.642196 287.394963 
L 657.194511 287.306821 
L 661.661063 287.218678 
L 666.765695 286.95425 
L 669.31801 286.866107 
L 671.870326 286.777964 
L 675.698799 286.689822 
L 677.613036 286.64575 
L 680.165352 286.557608 
L 682.079588 286.513536 
L 685.269983 286.425393 
L 686.546141 286.337251 
L 690.374614 286.249108 
L 693.565009 286.116894 
L 694.841166 286.072823 
L 696.755403 285.896537 
L 700.583877 285.808395 
L 703.136192 285.720252 
L 709.516981 285.632109 
L 712.707376 285.499895 
L 719.088165 285.411752 
L 723.554717 285.191396 
L 729.297427 285.103253 
L 730.573585 285.01511 
L 738.230532 284.926967 
L 740.144768 284.882896 
L 747.163636 284.794753 
L 747.163636 284.794753 
" clip-path="url(#pe5c26e8414)" style="fill: none; stroke: #ff7f0e; stroke-width: 1.5; stroke-linecap: square"/>
   </g>
   <g id="patch_3">
    <path d="M 108 320.4 
L 108 43.2 
" style="fill: none; stroke: #a9a9a9; stroke-width: 0.8; stroke-linejoin: miter; stroke-linecap: square"/>
   </g>
   <g id="patch_4">
    <path d="M 777.6 320.4 
L 777.6 43.2 
" style="fill: none"/>
   </g>
   <g id="patch_5">
    <path d="M 108 320.4 
L 777.6 320.4 
" style="fill: none; stroke: #a9a9a9; stroke-width: 0.8; stroke-linejoin: miter; stroke-linecap: square"/>
   </g>
   <g id="patch_6">
    <path d="M 108 43.2 
L 777.6 43.2 
" style="fill: none"/>
   </g>
   <g id="text_17">
    <!-- get_subscribe history -->
    <g style="fill: #a9a9a9" transform="translate(378.6075 37.2) scale(0.12 -0.12)">
     <defs>
      <path id="DejaVuSans-67" d="M 2906 1791 
Q 2906 2416 2648 2759 
Q 2391 3103 1925 3103 
Q 1463 3103 1205 2759 
Q 947 2416 947 1791 
Q 947 1169 1205 825 
Q 1463 481 1925 481 
Q 2391 481 2648 825 
Q 2906 1169 2906 1791 
z
M 3481 434 
Q 3481 -459 3084 -895 
Q 2688 -1331 1869 -1331 
Q 1566 -1331 1297 -1286 
Q 1028 -1241 775 -1147 
L 775 -588 
Q 1028 -725 1275 -790 
Q 1522 -856 1778 -856 
Q 2344 -856 2625 -561 
Q 2906 -266 2906 331 
L 2906 616 
Q 2728 306 2450 153 
Q 2172 0 1784 0 
Q 1141 0 747 490 
Q 353 981 353 1791 
Q 353 2603 747 3093 
Q 1141 3584 1784 3584 
Q 2172 3584 2450 3431 
Q 2728 3278 2906 2969 
L 2906 3500 
L 3481 3500 
L 3481 434 
z
" transform="scale(0.015625)"/>
      <path id="DejaVuSans-65" d="M 3597 1894 
L 3597 1613 
L 953 1613 
Q 991 1019 1311 708 
Q 1631 397 2203 397 
Q 2534 397 2845 478 
Q 3156 559 3463 722 
L 3463 178 
Q 3153 47 2828 -22 
Q 2503 -91 2169 -91 
Q 1331 -91 842 396 
Q 353 884 353 1716 
Q 353 2575 817 3079 
Q 1281 3584 2069 3584 
Q 2775 3584 3186 3129 
Q 3597 2675 3597 1894 
z
M 3022 2063 
Q 3016 2534 2758 2815 
Q 2500 3097 2075 3097 
Q 1594 3097 1305 2825 
Q 1016 2553 972 2059 
L 3022 2063 
z
" transform="scale(0.015625)"/>
      <path id="DejaVuSans-74" d="M 1172 4494 
L 1172 3500 
L 2356 3500 
L 2356 3053 
L 1172 3053 
L 1172 1153 
Q 1172 725 1289 603 
Q 1406 481 1766 481 
L 2356 481 
L 2356 0 
L 1766 0 
Q 1100 0 847 248 
Q 594 497 594 1153 
L 594 3053 
L 172 3053 
L 172 3500 
L 594 3500 
L 594 4494 
L 1172 4494 
z
" transform="scale(0.015625)"/>
      <path id="DejaVuSans-5f" d="M 3263 -1063 
L 3263 -1509 
L -63 -1509 
L -63 -1063 
L 3263 -1063 
z
" transform="scale(0.015625)"/>
      <path id="DejaVuSans-73" d="M 2834 3397 
L 2834 2853 
Q 2591 2978 2328 3040 
Q 2066 3103 1784 3103 
Q 1356 3103 1142 2972 
Q 928 2841 928 2578 
Q 928 2378 1081 2264 
Q 1234 2150 1697 2047 
L 1894 2003 
Q 2506 1872 2764 1633 
Q 3022 1394 3022 966 
Q 3022 478 2636 193 
Q 2250 -91 1575 -91 
Q 1294 -91 989 -36 
Q 684 19 347 128 
L 347 722 
Q 666 556 975 473 
Q 1284 391 1588 391 
Q 1994 391 2212 530 
Q 2431 669 2431 922 
Q 2431 1156 2273 1281 
Q 2116 1406 1581 1522 
L 1381 1569 
Q 847 1681 609 1914 
Q 372 2147 372 2553 
Q 372 3047 722 3315 
Q 1072 3584 1716 3584 
Q 2034 3584 2315 3537 
Q 2597 3491 2834 3397 
z
" transform="scale(0.015625)"/>
      <path id="DejaVuSans-75" d="M 544 1381 
L 544 3500 
L 1119 3500 
L 1119 1403 
Q 1119 906 1312 657 
Q 1506 409 1894 409 
Q 2359 409 2629 706 
Q 2900 1003 2900 1516 
L 2900 3500 
L 3475 3500 
L 3475 0 
L 2900 0 
L 2900 538 
Q 2691 219 2414 64 
Q 2138 -91 1772 -91 
Q 1169 -91 856 284 
Q 544 659 544 1381 
z
M 1991 3584 
L 1991 3584 
z
" transform="scale(0.015625)"/>
      <path id="DejaVuSans-62" d="M 3116 1747 
Q 3116 2381 2855 2742 
Q 2594 3103 2138 3103 
Q 1681 3103 1420 2742 
Q 1159 2381 1159 1747 
Q 1159 1113 1420 752 
Q 1681 391 2138 391 
Q 2594 391 2855 752 
Q 3116 1113 3116 1747 
z
M 1159 2969 
Q 1341 3281 1617 3432 
Q 1894 3584 2278 3584 
Q 2916 3584 3314 3078 
Q 3713 2572 3713 1747 
Q 3713 922 3314 415 
Q 2916 -91 2278 -91 
Q 1894 -91 1617 61 
Q 1341 213 1159 525 
L 1159 0 
L 581 0 
L 581 4863 
L 1159 4863 
L 1159 2969 
z
" transform="scale(0.015625)"/>
      <path id="DejaVuSans-63" d="M 3122 3366 
L 3122 2828 
Q 2878 2963 2633 3030 
Q 2388 3097 2138 3097 
Q 1578 3097 1268 2742 
Q 959 2388 959 1747 
Q 959 1106 1268 751 
Q 1578 397 2138 397 
Q 2388 397 2633 464 
Q 2878 531 3122 666 
L 3122 134 
Q 2881 22 2623 -34 
Q 2366 -91 2075 -91 
Q 1284 -91 818 406 
Q 353 903 353 1747 
Q 353 2603 823 3093 
Q 1294 3584 2113 3584 
Q 2378 3584 2631 3529 
Q 2884 3475 3122 3366 
z
" transform="scale(0.015625)"/>
      <path id="DejaVuSans-72" d="M 2631 2963 
Q 2534 3019 2420 3045 
Q 2306 3072 2169 3072 
Q 1681 3072 1420 2755 
Q 1159 2438 1159 1844 
L 1159 0 
L 581 0 
L 581 3500 
L 1159 3500 
L 1159 2956 
Q 1341 3275 1631 3429 
Q 1922 3584 2338 3584 
Q 2397 3584 2469 3576 
Q 2541 3569 2628 3553 
L 2631 2963 
z
" transform="scale(0.015625)"/>
      <path id="DejaVuSans-69" d="M 603 3500 
L 1178 3500 
L 1178 0 
L 603 0 
L 603 3500 
z
M 603 4863 
L 1178 4863 
L 1178 4134 
L 603 4134 
L 603 4863 
z
" transform="scale(0.015625)"/>
      <path id="DejaVuSans-20" transform="scale(0.015625)"/>
      <path id="DejaVuSans-68" d="M 3513 2113 
L 3513 0 
L 2938 0 
L 2938 2094 
Q 2938 2591 2744 2837 
Q 2550 3084 2163 3084 
Q 1697 3084 1428 2787 
Q 1159 2491 1159 1978 
L 1159 0 
L 581 0 
L 581 4863 
L 1159 4863 
L 1159 2956 
Q 1366 3272 1645 3428 
Q 1925 3584 2291 3584 
Q 2894 3584 3203 3211 
Q 3513 2838 3513 2113 
z
" transform="scale(0.015625)"/>
      <path id="DejaVuSans-6f" d="M 1959 3097 
Q 1497 3097 1228 2736 
Q 959 2375 959 1747 
Q 959 1119 1226 758 
Q 1494 397 1959 397 
Q 2419 397 2687 759 
Q 2956 1122 2956 1747 
Q 2956 2369 2687 2733 
Q 2419 3097 1959 3097 
z
M 1959 3584 
Q 2709 3584 3137 3096 
Q 3566 2609 3566 1747 
Q 3566 888 3137 398 
Q 2709 -91 1959 -91 
Q 1206 -91 779 398 
Q 353 888 353 1747 
Q 353 2609 779 3096 
Q 1206 3584 1959 3584 
z
" transform="scale(0.015625)"/>
      <path id="DejaVuSans-79" d="M 2059 -325 
Q 1816 -950 1584 -1140 
Q 1353 -1331 966 -1331 
L 506 -1331 
L 506 -850 
L 844 -850 
Q 1081 -850 1212 -737 
Q 1344 -625 1503 -206 
L 1606 56 
L 191 3500 
L 800 3500 
L 1894 763 
L 2988 3500 
L 3597 3500 
L 2059 -325 
z
" transform="scale(0.015625)"/>
     </defs>
     <use xlink:href="#DejaVuSans-67"/>
     <use xlink:href="#DejaVuSans-65" x="63.476562"/>
     <use xlink:href="#DejaVuSans-74" x="125"/>
     <use xlink:href="#DejaVuSans-5f" x="164.208984"/>
     <use xlink:href="#DejaVuSans-73" x="214.208984"/>
     <use xlink:href="#DejaVuSans-75" x="266.308594"/>
     <use xlink:href="#DejaVuSans-62" x="329.6875"/>
     <use xlink:href="#DejaVuSans-73" x="393.164062"/>
     <use xlink:href="#DejaVuSans-63" x="445.263672"/>
     <use xlink:href="#DejaVuSans-72" x="500.244141"/>
     <use xlink:href="#DejaVuSans-69" x="541.357422"/>
     <use xlink:href="#DejaVuSans-62" x="569.140625"/>
     <use xlink:href="#DejaVuSans-65" x="632.617188"/>
     <use xlink:href="#DejaVuSans-20" x="694.140625"/>
     <use xlink:href="#DejaVuSans-68" x="725.927734"/>
     <use xlink:href="#DejaVuSans-69" x="789.306641"/>
     <use xlink:href="#DejaVuSans-73" x="817.089844"/>
     <use xlink:href="#DejaVuSans-74" x="869.189453"/>
     <use xlink:href="#DejaVuSans-6f" x="908.398438"/>
     <use xlink:href="#DejaVuSans-72" x="969.580078"/>
     <use xlink:href="#DejaVuSans-79" x="1010.693359"/>
    </g>
   </g>
   <g id="legend_1">
    <g id="line2d_35">
     <path d="M 815.08 328.498438 
L 825.08 328.498438 
L 835.08 328.498438 
" style="fill: none; stroke: #1f77b4; stroke-width: 1.5; stroke-linecap: square"/>
    </g>
    <g id="text_18">
     <!-- star -->
     <g style="fill: #a9a9a9" transform="translate(843.08 331.998438) scale(0.1 -0.1)">
      <defs>
       <path id="DejaVuSans-61" d="M 2194 1759 
Q 1497 1759 1228 1600 
Q 959 1441 959 1056 
Q 959 750 1161 570 
Q 1363 391 1709 391 
Q 2188 391 2477 730 
Q 2766 1069 2766 1631 
L 2766 1759 
L 2194 1759 
z
M 3341 1997 
L 3341 0 
L 2766 0 
L 2766 531 
Q 2569 213 2275 61 
Q 1981 -91 1556 -91 
Q 1019 -91 701 211 
Q 384 513 384 1019 
Q 384 1609 779 1909 
Q 1175 2209 1959 2209 
L 2766 2209 
L 2766 2266 
Q 2766 2663 2505 2880 
Q 2244 3097 1772 3097 
Q 1472 3097 1187 3025 
Q 903 2953 641 2809 
L 641 3341 
Q 956 3463 1253 3523 
Q 1550 3584 1831 3584 
Q 2591 3584 2966 3190 
Q 3341 2797 3341 1997 
z
" transform="scale(0.015625)"/>
      </defs>
      <use xlink:href="#DejaVuSans-73"/>
      <use xlink:href="#DejaVuSans-74" x="52.099609"/>
      <use xlink:href="#DejaVuSans-61" x="91.308594"/>
      <use xlink:href="#DejaVuSans-72" x="152.587891"/>
     </g>
    </g>
    <g id="line2d_36">
     <path d="M 815.08 343.176562 
L 825.08 343.176562 
L 835.08 343.176562 
" style="fill: none; stroke: #ff7f0e; stroke-width: 1.5; stroke-linecap: square"/>
    </g>
    <g id="text_19">
     <!-- fork -->
     <g style="fill: #a9a9a9" transform="translate(843.08 346.676562) scale(0.1 -0.1)">
      <defs>
       <path id="DejaVuSans-66" d="M 2375 4863 
L 2375 4384 
L 1825 4384 
Q 1516 4384 1395 4259 
Q 1275 4134 1275 3809 
L 1275 3500 
L 2222 3500 
L 2222 3053 
L 1275 3053 
L 1275 0 
L 697 0 
L 697 3053 
L 147 3053 
L 147 3500 
L 697 3500 
L 697 3744 
Q 697 4328 969 4595 
Q 1241 4863 1831 4863 
L 2375 4863 
z
" transform="scale(0.015625)"/>
       <path id="DejaVuSans-6b" d="M 581 4863 
L 1159 4863 
L 1159 1991 
L 2875 3500 
L 3609 3500 
L 1753 1863 
L 3688 0 
L 2938 0 
L 1159 1709 
L 1159 0 
L 581 0 
L 581 4863 
z
" transform="scale(0.015625)"/>
      </defs>
      <use xlink:href="#DejaVuSans-66"/>
      <use xlink:href="#DejaVuSans-6f" x="35.205078"/>
      <use xlink:href="#DejaVuSans-72" x="96.386719"/>
      <use xlink:href="#DejaVuSans-6b" x="137.5"/>
     </g>
    </g>
   </g>
  </g>
 </g>
 <defs>
  <clipPath id="pe5c26e8414">
   <rect x="108" y="43.2" width="669.6" height="277.2"/>
  </clipPath>
 </defs>
</svg>
