<?xml version="1.0" encoding="utf-8" standalone="no"?>
<!DOCTYPE svg PUBLIC "-//W3C//DTD SVG 1.1//EN"
  "http://www.w3.org/Graphics/SVG/1.1/DTD/svg11.dtd">
<svg xmlns:xlink="http://www.w3.org/1999/xlink" width="864pt" height="360pt" viewBox="0 0 864 360" xmlns="http://www.w3.org/2000/svg" version="1.1">
 <metadata>
  <rdf:RDF xmlns:dc="http://purl.org/dc/elements/1.1/" xmlns:cc="http://creativecommons.org/ns#" xmlns:rdf="http://www.w3.org/1999/02/22-rdf-syntax-ns#">
   <cc:Work>
    <dc:type rdf:resource="http://purl.org/dc/dcmitype/StillImage"/>
    <dc:date>2024-03-10T08:11:57.950002</dc:date>
    <dc:format>image/svg+xml</dc:format>
    <dc:creator>
     <cc:Agent>
      <dc:title>Matplotlib v3.8.3, https://matplotlib.org/</dc:title>
     </cc:Agent>
    </dc:creator>
   </cc:Work>
  </rdf:RDF>
 </metadata>
 <defs>
  <style type="text/css">*{stroke-linejoin: round; stroke-linecap: butt}</style>
 </defs>
 <g id="figure_1">
  <g id="patch_1">
   <path d="M 0 360 
L 864 360 
L 864 0 
L 0 0 
L 0 360 
z
" style="fill: none; opacity: 0"/>
  </g>
  <g id="axes_1">
   <g id="patch_2">
    <path d="M 108 320.4 
L 777.6 320.4 
L 777.6 43.2 
L 108 43.2 
L 108 320.4 
z
" style="fill: none; opacity: 0"/>
   </g>
   <g id="matplotlib.axis_1">
    <g id="xtick_1">
     <g id="line2d_1">
      <path d="M 163.165909 320.4 
L 163.165909 43.2 
" clip-path="url(#pe9b571bcdb)" style="fill: none; stroke-dasharray: 5.12,1.28,0.8,1.28; stroke-dashoffset: 0; stroke: #b0b0b0; stroke-width: 0.8"/>
     </g>
     <g id="line2d_2">
      <defs>
       <path id="m5a52e5d4e5" d="M 0 0 
L 0 3.5 
" style="stroke: #a9a9a9; stroke-width: 0.8"/>
      </defs>
      <g>
       <use xlink:href="#m5a52e5d4e5" x="163.165909" y="320.4" style="fill: #a9a9a9; stroke: #a9a9a9; stroke-width: 0.8"/>
      </g>
     </g>
     <g id="text_1">
      <!-- 2021-09 -->
      <g style="fill: #a9a9a9" transform="translate(142.274503 334.998438) scale(0.1 -0.1)">
       <defs>
        <path id="DejaVuSans-32" d="M 1228 531 
L 3431 531 
L 3431 0 
L 469 0 
L 469 531 
Q 828 903 1448 1529 
Q 2069 2156 2228 2338 
Q 2531 2678 2651 2914 
Q 2772 3150 2772 3378 
Q 2772 3750 2511 3984 
Q 2250 4219 1831 4219 
Q 1534 4219 1204 4116 
Q 875 4013 500 3803 
L 500 4441 
Q 881 4594 1212 4672 
Q 1544 4750 1819 4750 
Q 2544 4750 2975 4387 
Q 3406 4025 3406 3419 
Q 3406 3131 3298 2873 
Q 3191 2616 2906 2266 
Q 2828 2175 2409 1742 
Q 1991 1309 1228 531 
z
" transform="scale(0.015625)"/>
        <path id="DejaVuSans-30" d="M 2034 4250 
Q 1547 4250 1301 3770 
Q 1056 3291 1056 2328 
Q 1056 1369 1301 889 
Q 1547 409 2034 409 
Q 2525 409 2770 889 
Q 3016 1369 3016 2328 
Q 3016 3291 2770 3770 
Q 2525 4250 2034 4250 
z
M 2034 4750 
Q 2819 4750 3233 4129 
Q 3647 3509 3647 2328 
Q 3647 1150 3233 529 
Q 2819 -91 2034 -91 
Q 1250 -91 836 529 
Q 422 1150 422 2328 
Q 422 3509 836 4129 
Q 1250 4750 2034 4750 
z
" transform="scale(0.015625)"/>
        <path id="DejaVuSans-31" d="M 794 531 
L 1825 531 
L 1825 4091 
L 703 3866 
L 703 4441 
L 1819 4666 
L 2450 4666 
L 2450 531 
L 3481 531 
L 3481 0 
L 794 0 
L 794 531 
z
" transform="scale(0.015625)"/>
        <path id="DejaVuSans-2d" d="M 313 2009 
L 1997 2009 
L 1997 1497 
L 313 1497 
L 313 2009 
z
" transform="scale(0.015625)"/>
        <path id="DejaVuSans-39" d="M 703 97 
L 703 672 
Q 941 559 1184 500 
Q 1428 441 1663 441 
Q 2288 441 2617 861 
Q 2947 1281 2994 2138 
Q 2813 1869 2534 1725 
Q 2256 1581 1919 1581 
Q 1219 1581 811 2004 
Q 403 2428 403 3163 
Q 403 3881 828 4315 
Q 1253 4750 1959 4750 
Q 2769 4750 3195 4129 
Q 3622 3509 3622 2328 
Q 3622 1225 3098 567 
Q 2575 -91 1691 -91 
Q 1453 -91 1209 -44 
Q 966 3 703 97 
z
M 1959 2075 
Q 2384 2075 2632 2365 
Q 2881 2656 2881 3163 
Q 2881 3666 2632 3958 
Q 2384 4250 1959 4250 
Q 1534 4250 1286 3958 
Q 1038 3666 1038 3163 
Q 1038 2656 1286 2365 
Q 1534 2075 1959 2075 
z
" transform="scale(0.015625)"/>
       </defs>
       <use xlink:href="#DejaVuSans-32"/>
       <use xlink:href="#DejaVuSans-30" x="63.623047"/>
       <use xlink:href="#DejaVuSans-32" x="127.246094"/>
       <use xlink:href="#DejaVuSans-31" x="190.869141"/>
       <use xlink:href="#DejaVuSans-2d" x="254.492188"/>
       <use xlink:href="#DejaVuSans-30" x="290.576172"/>
       <use xlink:href="#DejaVuSans-39" x="354.199219"/>
      </g>
     </g>
    </g>
    <g id="xtick_2">
     <g id="line2d_3">
      <path d="M 240.525 320.4 
L 240.525 43.2 
" clip-path="url(#pe9b571bcdb)" style="fill: none; stroke-dasharray: 5.12,1.28,0.8,1.28; stroke-dashoffset: 0; stroke: #b0b0b0; stroke-width: 0.8"/>
     </g>
     <g id="line2d_4">
      <g>
       <use xlink:href="#m5a52e5d4e5" x="240.525" y="320.4" style="fill: #a9a9a9; stroke: #a9a9a9; stroke-width: 0.8"/>
      </g>
     </g>
     <g id="text_2">
      <!-- 2022-01 -->
      <g style="fill: #a9a9a9" transform="translate(219.633594 334.998438) scale(0.1 -0.1)">
       <use xlink:href="#DejaVuSans-32"/>
       <use xlink:href="#DejaVuSans-30" x="63.623047"/>
       <use xlink:href="#DejaVuSans-32" x="127.246094"/>
       <use xlink:href="#DejaVuSans-32" x="190.869141"/>
       <use xlink:href="#DejaVuSans-2d" x="254.492188"/>
       <use xlink:href="#DejaVuSans-30" x="290.576172"/>
       <use xlink:href="#DejaVuSans-31" x="354.199219"/>
      </g>
     </g>
    </g>
    <g id="xtick_3">
     <g id="line2d_5">
      <path d="M 316.615909 320.4 
L 316.615909 43.2 
" clip-path="url(#pe9b571bcdb)" style="fill: none; stroke-dasharray: 5.12,1.28,0.8,1.28; stroke-dashoffset: 0; stroke: #b0b0b0; stroke-width: 0.8"/>
     </g>
     <g id="line2d_6">
      <g>
       <use xlink:href="#m5a52e5d4e5" x="316.615909" y="320.4" style="fill: #a9a9a9; stroke: #a9a9a9; stroke-width: 0.8"/>
      </g>
     </g>
     <g id="text_3">
      <!-- 2022-05 -->
      <g style="fill: #a9a9a9" transform="translate(295.724503 334.998438) scale(0.1 -0.1)">
       <defs>
        <path id="DejaVuSans-35" d="M 691 4666 
L 3169 4666 
L 3169 4134 
L 1269 4134 
L 1269 2991 
Q 1406 3038 1543 3061 
Q 1681 3084 1819 3084 
Q 2600 3084 3056 2656 
Q 3513 2228 3513 1497 
Q 3513 744 3044 326 
Q 2575 -91 1722 -91 
Q 1428 -91 1123 -41 
Q 819 9 494 109 
L 494 744 
Q 775 591 1075 516 
Q 1375 441 1709 441 
Q 2250 441 2565 725 
Q 2881 1009 2881 1497 
Q 2881 1984 2565 2268 
Q 2250 2553 1709 2553 
Q 1456 2553 1204 2497 
Q 953 2441 691 2322 
L 691 4666 
z
" transform="scale(0.015625)"/>
       </defs>
       <use xlink:href="#DejaVuSans-32"/>
       <use xlink:href="#DejaVuSans-30" x="63.623047"/>
       <use xlink:href="#DejaVuSans-32" x="127.246094"/>
       <use xlink:href="#DejaVuSans-32" x="190.869141"/>
       <use xlink:href="#DejaVuSans-2d" x="254.492188"/>
       <use xlink:href="#DejaVuSans-30" x="290.576172"/>
       <use xlink:href="#DejaVuSans-35" x="354.199219"/>
      </g>
     </g>
    </g>
    <g id="xtick_4">
     <g id="line2d_7">
      <path d="M 394.609091 320.4 
L 394.609091 43.2 
" clip-path="url(#pe9b571bcdb)" style="fill: none; stroke-dasharray: 5.12,1.28,0.8,1.28; stroke-dashoffset: 0; stroke: #b0b0b0; stroke-width: 0.8"/>
     </g>
     <g id="line2d_8">
      <g>
       <use xlink:href="#m5a52e5d4e5" x="394.609091" y="320.4" style="fill: #a9a9a9; stroke: #a9a9a9; stroke-width: 0.8"/>
      </g>
     </g>
     <g id="text_4">
      <!-- 2022-09 -->
      <g style="fill: #a9a9a9" transform="translate(373.717685 334.998438) scale(0.1 -0.1)">
       <use xlink:href="#DejaVuSans-32"/>
       <use xlink:href="#DejaVuSans-30" x="63.623047"/>
       <use xlink:href="#DejaVuSans-32" x="127.246094"/>
       <use xlink:href="#DejaVuSans-32" x="190.869141"/>
       <use xlink:href="#DejaVuSans-2d" x="254.492188"/>
       <use xlink:href="#DejaVuSans-30" x="290.576172"/>
       <use xlink:href="#DejaVuSans-39" x="354.199219"/>
      </g>
     </g>
    </g>
    <g id="xtick_5">
     <g id="line2d_9">
      <path d="M 471.968182 320.4 
L 471.968182 43.2 
" clip-path="url(#pe9b571bcdb)" style="fill: none; stroke-dasharray: 5.12,1.28,0.8,1.28; stroke-dashoffset: 0; stroke: #b0b0b0; stroke-width: 0.8"/>
     </g>
     <g id="line2d_10">
      <g>
       <use xlink:href="#m5a52e5d4e5" x="471.968182" y="320.4" style="fill: #a9a9a9; stroke: #a9a9a9; stroke-width: 0.8"/>
      </g>
     </g>
     <g id="text_5">
      <!-- 2023-01 -->
      <g style="fill: #a9a9a9" transform="translate(451.076776 334.998438) scale(0.1 -0.1)">
       <defs>
        <path id="DejaVuSans-33" d="M 2597 2516 
Q 3050 2419 3304 2112 
Q 3559 1806 3559 1356 
Q 3559 666 3084 287 
Q 2609 -91 1734 -91 
Q 1441 -91 1130 -33 
Q 819 25 488 141 
L 488 750 
Q 750 597 1062 519 
Q 1375 441 1716 441 
Q 2309 441 2620 675 
Q 2931 909 2931 1356 
Q 2931 1769 2642 2001 
Q 2353 2234 1838 2234 
L 1294 2234 
L 1294 2753 
L 1863 2753 
Q 2328 2753 2575 2939 
Q 2822 3125 2822 3475 
Q 2822 3834 2567 4026 
Q 2313 4219 1838 4219 
Q 1578 4219 1281 4162 
Q 984 4106 628 3988 
L 628 4550 
Q 988 4650 1302 4700 
Q 1616 4750 1894 4750 
Q 2613 4750 3031 4423 
Q 3450 4097 3450 3541 
Q 3450 3153 3228 2886 
Q 3006 2619 2597 2516 
z
" transform="scale(0.015625)"/>
       </defs>
       <use xlink:href="#DejaVuSans-32"/>
       <use xlink:href="#DejaVuSans-30" x="63.623047"/>
       <use xlink:href="#DejaVuSans-32" x="127.246094"/>
       <use xlink:href="#DejaVuSans-33" x="190.869141"/>
       <use xlink:href="#DejaVuSans-2d" x="254.492188"/>
       <use xlink:href="#DejaVuSans-30" x="290.576172"/>
       <use xlink:href="#DejaVuSans-31" x="354.199219"/>
      </g>
     </g>
    </g>
    <g id="xtick_6">
     <g id="line2d_11">
      <path d="M 548.059091 320.4 
L 548.059091 43.2 
" clip-path="url(#pe9b571bcdb)" style="fill: none; stroke-dasharray: 5.12,1.28,0.8,1.28; stroke-dashoffset: 0; stroke: #b0b0b0; stroke-width: 0.8"/>
     </g>
     <g id="line2d_12">
      <g>
       <use xlink:href="#m5a52e5d4e5" x="548.059091" y="320.4" style="fill: #a9a9a9; stroke: #a9a9a9; stroke-width: 0.8"/>
      </g>
     </g>
     <g id="text_6">
      <!-- 2023-05 -->
      <g style="fill: #a9a9a9" transform="translate(527.167685 334.998438) scale(0.1 -0.1)">
       <use xlink:href="#DejaVuSans-32"/>
       <use xlink:href="#DejaVuSans-30" x="63.623047"/>
       <use xlink:href="#DejaVuSans-32" x="127.246094"/>
       <use xlink:href="#DejaVuSans-33" x="190.869141"/>
       <use xlink:href="#DejaVuSans-2d" x="254.492188"/>
       <use xlink:href="#DejaVuSans-30" x="290.576172"/>
       <use xlink:href="#DejaVuSans-35" x="354.199219"/>
      </g>
     </g>
    </g>
    <g id="xtick_7">
     <g id="line2d_13">
      <path d="M 626.052273 320.4 
L 626.052273 43.2 
" clip-path="url(#pe9b571bcdb)" style="fill: none; stroke-dasharray: 5.12,1.28,0.8,1.28; stroke-dashoffset: 0; stroke: #b0b0b0; stroke-width: 0.8"/>
     </g>
     <g id="line2d_14">
      <g>
       <use xlink:href="#m5a52e5d4e5" x="626.052273" y="320.4" style="fill: #a9a9a9; stroke: #a9a9a9; stroke-width: 0.8"/>
      </g>
     </g>
     <g id="text_7">
      <!-- 2023-09 -->
      <g style="fill: #a9a9a9" transform="translate(605.160866 334.998438) scale(0.1 -0.1)">
       <use xlink:href="#DejaVuSans-32"/>
       <use xlink:href="#DejaVuSans-30" x="63.623047"/>
       <use xlink:href="#DejaVuSans-32" x="127.246094"/>
       <use xlink:href="#DejaVuSans-33" x="190.869141"/>
       <use xlink:href="#DejaVuSans-2d" x="254.492188"/>
       <use xlink:href="#DejaVuSans-30" x="290.576172"/>
       <use xlink:href="#DejaVuSans-39" x="354.199219"/>
      </g>
     </g>
    </g>
    <g id="xtick_8">
     <g id="line2d_15">
      <path d="M 703.411364 320.4 
L 703.411364 43.2 
" clip-path="url(#pe9b571bcdb)" style="fill: none; stroke-dasharray: 5.12,1.28,0.8,1.28; stroke-dashoffset: 0; stroke: #b0b0b0; stroke-width: 0.8"/>
     </g>
     <g id="line2d_16">
      <g>
       <use xlink:href="#m5a52e5d4e5" x="703.411364" y="320.4" style="fill: #a9a9a9; stroke: #a9a9a9; stroke-width: 0.8"/>
      </g>
     </g>
     <g id="text_8">
      <!-- 2024-01 -->
      <g style="fill: #a9a9a9" transform="translate(682.519957 334.998438) scale(0.1 -0.1)">
       <defs>
        <path id="DejaVuSans-34" d="M 2419 4116 
L 825 1625 
L 2419 1625 
L 2419 4116 
z
M 2253 4666 
L 3047 4666 
L 3047 1625 
L 3713 1625 
L 3713 1100 
L 3047 1100 
L 3047 0 
L 2419 0 
L 2419 1100 
L 313 1100 
L 313 1709 
L 2253 4666 
z
" transform="scale(0.015625)"/>
       </defs>
       <use xlink:href="#DejaVuSans-32"/>
       <use xlink:href="#DejaVuSans-30" x="63.623047"/>
       <use xlink:href="#DejaVuSans-32" x="127.246094"/>
       <use xlink:href="#DejaVuSans-34" x="190.869141"/>
       <use xlink:href="#DejaVuSans-2d" x="254.492188"/>
       <use xlink:href="#DejaVuSans-30" x="290.576172"/>
       <use xlink:href="#DejaVuSans-31" x="354.199219"/>
      </g>
     </g>
    </g>
   </g>
   <g id="matplotlib.axis_2">
    <g id="ytick_1">
     <g id="line2d_17">
      <path d="M 108 307.843872 
L 777.6 307.843872 
" clip-path="url(#pe9b571bcdb)" style="fill: none; stroke-dasharray: 5.12,1.28,0.8,1.28; stroke-dashoffset: 0; stroke: #b0b0b0; stroke-width: 0.8"/>
     </g>
     <g id="line2d_18">
      <defs>
       <path id="m3bc5a0cbd6" d="M 0 0 
L -3.5 0 
" style="stroke: #a9a9a9; stroke-width: 0.8"/>
      </defs>
      <g>
       <use xlink:href="#m3bc5a0cbd6" x="108" y="307.843872" style="fill: #a9a9a9; stroke: #a9a9a9; stroke-width: 0.8"/>
      </g>
     </g>
     <g id="text_9">
      <!-- 0 -->
      <g style="fill: #a9a9a9" transform="translate(94.6375 311.643091) scale(0.1 -0.1)">
       <use xlink:href="#DejaVuSans-30"/>
      </g>
     </g>
    </g>
    <g id="ytick_2">
     <g id="line2d_19">
      <path d="M 108 272.746379 
L 777.6 272.746379 
" clip-path="url(#pe9b571bcdb)" style="fill: none; stroke-dasharray: 5.12,1.28,0.8,1.28; stroke-dashoffset: 0; stroke: #b0b0b0; stroke-width: 0.8"/>
     </g>
     <g id="line2d_20">
      <g>
       <use xlink:href="#m3bc5a0cbd6" x="108" y="272.746379" style="fill: #a9a9a9; stroke: #a9a9a9; stroke-width: 0.8"/>
      </g>
     </g>
     <g id="text_10">
      <!-- 800 -->
      <g style="fill: #a9a9a9" transform="translate(81.9125 276.545598) scale(0.1 -0.1)">
       <defs>
        <path id="DejaVuSans-38" d="M 2034 2216 
Q 1584 2216 1326 1975 
Q 1069 1734 1069 1313 
Q 1069 891 1326 650 
Q 1584 409 2034 409 
Q 2484 409 2743 651 
Q 3003 894 3003 1313 
Q 3003 1734 2745 1975 
Q 2488 2216 2034 2216 
z
M 1403 2484 
Q 997 2584 770 2862 
Q 544 3141 544 3541 
Q 544 4100 942 4425 
Q 1341 4750 2034 4750 
Q 2731 4750 3128 4425 
Q 3525 4100 3525 3541 
Q 3525 3141 3298 2862 
Q 3072 2584 2669 2484 
Q 3125 2378 3379 2068 
Q 3634 1759 3634 1313 
Q 3634 634 3220 271 
Q 2806 -91 2034 -91 
Q 1263 -91 848 271 
Q 434 634 434 1313 
Q 434 1759 690 2068 
Q 947 2378 1403 2484 
z
M 1172 3481 
Q 1172 3119 1398 2916 
Q 1625 2713 2034 2713 
Q 2441 2713 2670 2916 
Q 2900 3119 2900 3481 
Q 2900 3844 2670 4047 
Q 2441 4250 2034 4250 
Q 1625 4250 1398 4047 
Q 1172 3844 1172 3481 
z
" transform="scale(0.015625)"/>
       </defs>
       <use xlink:href="#DejaVuSans-38"/>
       <use xlink:href="#DejaVuSans-30" x="63.623047"/>
       <use xlink:href="#DejaVuSans-30" x="127.246094"/>
      </g>
     </g>
    </g>
    <g id="ytick_3">
     <g id="line2d_21">
      <path d="M 108 237.648886 
L 777.6 237.648886 
" clip-path="url(#pe9b571bcdb)" style="fill: none; stroke-dasharray: 5.12,1.28,0.8,1.28; stroke-dashoffset: 0; stroke: #b0b0b0; stroke-width: 0.8"/>
     </g>
     <g id="line2d_22">
      <g>
       <use xlink:href="#m3bc5a0cbd6" x="108" y="237.648886" style="fill: #a9a9a9; stroke: #a9a9a9; stroke-width: 0.8"/>
      </g>
     </g>
     <g id="text_11">
      <!-- 1600 -->
      <g style="fill: #a9a9a9" transform="translate(75.55 241.448105) scale(0.1 -0.1)">
       <defs>
        <path id="DejaVuSans-36" d="M 2113 2584 
Q 1688 2584 1439 2293 
Q 1191 2003 1191 1497 
Q 1191 994 1439 701 
Q 1688 409 2113 409 
Q 2538 409 2786 701 
Q 3034 994 3034 1497 
Q 3034 2003 2786 2293 
Q 2538 2584 2113 2584 
z
M 3366 4563 
L 3366 3988 
Q 3128 4100 2886 4159 
Q 2644 4219 2406 4219 
Q 1781 4219 1451 3797 
Q 1122 3375 1075 2522 
Q 1259 2794 1537 2939 
Q 1816 3084 2150 3084 
Q 2853 3084 3261 2657 
Q 3669 2231 3669 1497 
Q 3669 778 3244 343 
Q 2819 -91 2113 -91 
Q 1303 -91 875 529 
Q 447 1150 447 2328 
Q 447 3434 972 4092 
Q 1497 4750 2381 4750 
Q 2619 4750 2861 4703 
Q 3103 4656 3366 4563 
z
" transform="scale(0.015625)"/>
       </defs>
       <use xlink:href="#DejaVuSans-31"/>
       <use xlink:href="#DejaVuSans-36" x="63.623047"/>
       <use xlink:href="#DejaVuSans-30" x="127.246094"/>
       <use xlink:href="#DejaVuSans-30" x="190.869141"/>
      </g>
     </g>
    </g>
    <g id="ytick_4">
     <g id="line2d_23">
      <path d="M 108 202.551393 
L 777.6 202.551393 
" clip-path="url(#pe9b571bcdb)" style="fill: none; stroke-dasharray: 5.12,1.28,0.8,1.28; stroke-dashoffset: 0; stroke: #b0b0b0; stroke-width: 0.8"/>
     </g>
     <g id="line2d_24">
      <g>
       <use xlink:href="#m3bc5a0cbd6" x="108" y="202.551393" style="fill: #a9a9a9; stroke: #a9a9a9; stroke-width: 0.8"/>
      </g>
     </g>
     <g id="text_12">
      <!-- 2400 -->
      <g style="fill: #a9a9a9" transform="translate(75.55 206.350612) scale(0.1 -0.1)">
       <use xlink:href="#DejaVuSans-32"/>
       <use xlink:href="#DejaVuSans-34" x="63.623047"/>
       <use xlink:href="#DejaVuSans-30" x="127.246094"/>
       <use xlink:href="#DejaVuSans-30" x="190.869141"/>
      </g>
     </g>
    </g>
    <g id="ytick_5">
     <g id="line2d_25">
      <path d="M 108 167.4539 
L 777.6 167.4539 
" clip-path="url(#pe9b571bcdb)" style="fill: none; stroke-dasharray: 5.12,1.28,0.8,1.28; stroke-dashoffset: 0; stroke: #b0b0b0; stroke-width: 0.8"/>
     </g>
     <g id="line2d_26">
      <g>
       <use xlink:href="#m3bc5a0cbd6" x="108" y="167.4539" style="fill: #a9a9a9; stroke: #a9a9a9; stroke-width: 0.8"/>
      </g>
     </g>
     <g id="text_13">
      <!-- 3200 -->
      <g style="fill: #a9a9a9" transform="translate(75.55 171.253118) scale(0.1 -0.1)">
       <use xlink:href="#DejaVuSans-33"/>
       <use xlink:href="#DejaVuSans-32" x="63.623047"/>
       <use xlink:href="#DejaVuSans-30" x="127.246094"/>
       <use xlink:href="#DejaVuSans-30" x="190.869141"/>
      </g>
     </g>
    </g>
    <g id="ytick_6">
     <g id="line2d_27">
      <path d="M 108 132.356407 
L 777.6 132.356407 
" clip-path="url(#pe9b571bcdb)" style="fill: none; stroke-dasharray: 5.12,1.28,0.8,1.28; stroke-dashoffset: 0; stroke: #b0b0b0; stroke-width: 0.8"/>
     </g>
     <g id="line2d_28">
      <g>
       <use xlink:href="#m3bc5a0cbd6" x="108" y="132.356407" style="fill: #a9a9a9; stroke: #a9a9a9; stroke-width: 0.8"/>
      </g>
     </g>
     <g id="text_14">
      <!-- 4000 -->
      <g style="fill: #a9a9a9" transform="translate(75.55 136.155625) scale(0.1 -0.1)">
       <use xlink:href="#DejaVuSans-34"/>
       <use xlink:href="#DejaVuSans-30" x="63.623047"/>
       <use xlink:href="#DejaVuSans-30" x="127.246094"/>
       <use xlink:href="#DejaVuSans-30" x="190.869141"/>
      </g>
     </g>
    </g>
    <g id="ytick_7">
     <g id="line2d_29">
      <path d="M 108 97.258914 
L 777.6 97.258914 
" clip-path="url(#pe9b571bcdb)" style="fill: none; stroke-dasharray: 5.12,1.28,0.8,1.28; stroke-dashoffset: 0; stroke: #b0b0b0; stroke-width: 0.8"/>
     </g>
     <g id="line2d_30">
      <g>
       <use xlink:href="#m3bc5a0cbd6" x="108" y="97.258914" style="fill: #a9a9a9; stroke: #a9a9a9; stroke-width: 0.8"/>
      </g>
     </g>
     <g id="text_15">
      <!-- 4800 -->
      <g style="fill: #a9a9a9" transform="translate(75.55 101.058132) scale(0.1 -0.1)">
       <use xlink:href="#DejaVuSans-34"/>
       <use xlink:href="#DejaVuSans-38" x="63.623047"/>
       <use xlink:href="#DejaVuSans-30" x="127.246094"/>
       <use xlink:href="#DejaVuSans-30" x="190.869141"/>
      </g>
     </g>
    </g>
    <g id="ytick_8">
     <g id="line2d_31">
      <path d="M 108 62.161421 
L 777.6 62.161421 
" clip-path="url(#pe9b571bcdb)" style="fill: none; stroke-dasharray: 5.12,1.28,0.8,1.28; stroke-dashoffset: 0; stroke: #b0b0b0; stroke-width: 0.8"/>
     </g>
     <g id="line2d_32">
      <g>
       <use xlink:href="#m3bc5a0cbd6" x="108" y="62.161421" style="fill: #a9a9a9; stroke: #a9a9a9; stroke-width: 0.8"/>
      </g>
     </g>
     <g id="text_16">
      <!-- 5600 -->
      <g style="fill: #a9a9a9" transform="translate(75.55 65.960639) scale(0.1 -0.1)">
       <use xlink:href="#DejaVuSans-35"/>
       <use xlink:href="#DejaVuSans-36" x="63.623047"/>
       <use xlink:href="#DejaVuSans-30" x="127.246094"/>
       <use xlink:href="#DejaVuSans-30" x="190.869141"/>
      </g>
     </g>
    </g>
   </g>
   <g id="line2d_33">
    <path d="M 138.436364 307.712256 
L 142.240909 307.405153 
L 142.875 307.141922 
L 144.777273 306.922563 
L 148.581818 306.176741 
L 152.386364 305.869638 
L 153.020455 305.562535 
L 153.654545 305.387047 
L 154.288636 304.597354 
L 154.922727 304.158635 
L 155.556818 302.798607 
L 156.190909 302.710864 
L 156.825 302.228273 
L 158.093182 301.614067 
L 160.629545 299.683705 
L 161.897727 299.157242 
L 162.531818 298.718524 
L 165.068182 297.621727 
L 165.702273 296.612674 
L 166.970455 295.691365 
L 167.604545 295.384262 
L 173.945455 294.506825 
L 174.579545 294.199721 
L 179.018182 293.848747 
L 180.920455 293.366156 
L 186.627273 292.620334 
L 187.261364 292.269359 
L 187.895455 292.181616 
L 188.529545 291.918384 
L 189.797727 291.699025 
L 190.431818 291.655153 
L 191.065909 291.435794 
L 193.602273 291.040947 
L 194.870455 290.689972 
L 196.772727 290.514485 
L 198.040909 290.382869 
L 198.675 290.207382 
L 199.309091 290.16351 
L 201.211364 289.593175 
L 205.015909 289.022841 
L 205.65 288.847354 
L 206.284091 287.969916 
L 208.186364 287.267967 
L 210.088636 286.741504 
L 210.722727 286.434401 
L 211.356818 286.390529 
L 214.527273 285.513092 
L 215.795455 285.425348 
L 216.429545 285.337604 
L 218.331818 284.76727 
L 220.868182 284.153064 
L 221.502273 283.889833 
L 222.136364 283.802089 
L 222.770455 283.494986 
L 229.111364 282.529805 
L 232.281818 281.652368 
L 232.915909 281.257521 
L 235.452273 280.599443 
L 236.720455 279.853621 
L 237.354545 279.414903 
L 239.256818 279.063928 
L 243.061364 277.923259 
L 244.329545 277.528412 
L 244.963636 277.440669 
L 246.231818 277.089694 
L 247.5 276.782591 
L 248.134091 276.694847 
L 249.402273 276.168384 
L 250.036364 276.036769 
L 250.670455 275.773538 
L 251.304545 275.685794 
L 251.938636 275.378691 
L 252.572727 275.203203 
L 253.840909 275.11546 
L 255.109091 274.676741 
L 256.377273 274.588997 
L 257.011364 274.281894 
L 259.547727 273.843175 
L 262.084091 273.623816 
L 262.718182 273.492201 
L 263.986364 272.877994 
L 270.961364 269.938579 
L 271.595455 269.587604 
L 272.229545 268.885655 
L 272.863636 267.83273 
L 273.497727 266.999164 
L 274.131818 266.823677 
L 274.765909 266.823677 
L 276.034091 265.902368 
L 276.668182 265.72688 
L 277.302273 265.375905 
L 277.936364 265.24429 
L 278.570455 264.673955 
L 279.204545 264.498468 
L 281.106818 263.577159 
L 282.375 261.822284 
L 283.009091 261.427437 
L 283.643182 260.374513 
L 284.277273 259.716435 
L 284.911364 259.409331 
L 285.545455 259.233844 
L 288.081818 257.742201 
L 289.35 256.733148 
L 289.984091 256.338301 
L 290.618182 255.416992 
L 291.252273 253.96922 
L 291.886364 253.047911 
L 292.520455 252.56532 
L 293.154545 252.302089 
L 295.690909 250.108496 
L 296.959091 249.099443 
L 297.593182 248.572981 
L 298.227273 247.739415 
L 299.495455 246.642618 
L 302.031818 245.019359 
L 302.665909 244.449025 
L 303.3 244.317409 
L 303.934091 244.054178 
L 305.202273 243.352228 
L 307.104545 242.387047 
L 308.372727 241.202507 
L 309.006818 240.456685 
L 310.275 239.579248 
L 310.909091 239.40376 
L 311.543182 239.096657 
L 312.811364 238.263092 
L 313.445455 237.912117 
L 314.079545 237.824373 
L 315.347727 237.122423 
L 315.981818 236.771448 
L 316.615909 236.11337 
L 317.25 235.718524 
L 317.884091 235.499164 
L 319.152273 234.753343 
L 319.786364 234.402368 
L 320.420455 234.183008 
L 322.322727 232.954596 
L 324.225 232.384262 
L 324.859091 231.945543 
L 325.493182 231.813928 
L 326.761364 231.375209 
L 328.663636 230.629387 
L 330.565909 229.927437 
L 331.834091 229.708078 
L 333.102273 228.611281 
L 334.370455 227.997075 
L 335.638636 227.295125 
L 336.272727 226.94415 
L 337.540909 226.593175 
L 338.175 226.198329 
L 338.809091 226.022841 
L 340.711364 224.838301 
L 343.881818 224.092479 
L 345.784091 222.995682 
L 346.418182 222.907939 
L 347.052273 222.688579 
L 348.320455 222.425348 
L 350.222727 221.021448 
L 352.125 220.58273 
L 352.759091 220.36337 
L 353.393182 219.88078 
L 357.197727 218.652368 
L 357.831818 218.608496 
L 362.270455 217.029109 
L 362.904545 216.722006 
L 364.806818 216.283287 
L 366.075 215.976184 
L 366.709091 215.669081 
L 367.343182 215.537465 
L 369.245455 214.660028 
L 371.147727 213.738719 
L 371.781818 213.3 
L 372.415909 213.124513 
L 374.318182 212.11546 
L 375.586364 211.808357 
L 376.854545 211.150279 
L 378.122727 210.799304 
L 378.756818 210.71156 
L 380.025 209.965738 
L 380.659091 209.834123 
L 381.927273 209.30766 
L 382.561364 209.176045 
L 383.195455 208.82507 
L 385.731818 208.430223 
L 387 207.816017 
L 387.634091 207.289554 
L 388.268182 206.192758 
L 389.536364 205.929526 
L 390.170455 205.797911 
L 392.706818 204.481755 
L 393.340909 204.350139 
L 398.413636 201.937187 
L 400.315909 201.54234 
L 400.95 201.191365 
L 404.754545 199.875209 
L 406.022727 199.085515 
L 407.290909 198.339694 
L 407.925 198.25195 
L 408.559091 198.032591 
L 409.193182 197.988719 
L 412.363636 197.155153 
L 412.997727 196.672563 
L 414.265909 196.233844 
L 416.168182 195.619638 
L 416.802273 195.224791 
L 417.436364 195.049304 
L 418.070455 194.610585 
L 418.704545 194.347354 
L 419.338636 193.952507 
L 420.606818 193.513788 
L 422.509091 192.899582 
L 423.143182 192.592479 
L 425.045455 191.144708 
L 425.679545 191.013092 
L 426.947727 190.047911 
L 427.581818 189.916295 
L 428.215909 188.951114 
L 428.85 188.687883 
L 429.484091 188.205292 
L 430.118182 188.117549 
L 431.386364 187.371727 
L 432.020455 187.240111 
L 432.654545 186.97688 
L 433.288636 186.49429 
L 433.922727 186.27493 
L 435.825 185.002646 
L 438.361364 183.730362 
L 438.995455 183.642618 
L 440.263636 183.072284 
L 440.897727 182.721309 
L 441.531818 181.668384 
L 442.165909 181.09805 
L 442.8 180.747075 
L 443.434091 180.61546 
L 444.702273 179.825766 
L 445.336364 179.69415 
L 446.604545 179.079944 
L 448.506818 178.290251 
L 449.775 177.412813 
L 451.043182 176.096657 
L 454.213636 173.81532 
L 455.481818 172.762396 
L 456.115909 172.499164 
L 456.75 171.797214 
L 457.384091 171.314624 
L 458.652273 170.875905 
L 459.286364 170.349443 
L 460.554545 169.691365 
L 461.188636 169.515877 
L 461.822727 169.077159 
L 462.456818 168.945543 
L 464.359091 167.93649 
L 465.627273 167.190669 
L 471.968182 164.953203 
L 472.602273 164.382869 
L 474.504545 163.680919 
L 475.772727 163.286072 
L 476.406818 162.803482 
L 478.943182 161.487326 
L 479.577273 161.136351 
L 480.845455 158.635655 
L 482.113636 157.144011 
L 483.381818 156.398189 
L 485.284091 155.652368 
L 485.918182 155.564624 
L 486.552273 155.213649 
L 488.454545 154.643315 
L 490.990909 153.502646 
L 491.625 153.107799 
L 492.893182 152.669081 
L 496.697727 150.475487 
L 497.331818 149.817409 
L 497.965909 149.422563 
L 499.868182 148.588997 
L 500.502273 148.150279 
L 501.770455 147.536072 
L 503.672727 146.527019 
L 504.306818 146.351532 
L 504.940909 145.868942 
L 505.575 145.60571 
L 506.209091 145.474095 
L 507.477273 145.035376 
L 509.379545 144.333426 
L 510.013636 143.894708 
L 511.281818 143.543733 
L 512.55 143.061142 
L 513.184091 142.578552 
L 514.452273 142.183705 
L 515.086364 141.876602 
L 515.720455 141.701114 
L 516.988636 140.823677 
L 518.256818 140.253343 
L 519.525 139.288162 
L 520.793182 138.849443 
L 521.427273 138.322981 
L 522.061364 138.235237 
L 523.329545 137.313928 
L 524.597727 136.699721 
L 525.231818 136.43649 
L 525.865909 135.822284 
L 529.670455 134.462256 
L 531.572727 133.628691 
L 533.475 133.058357 
L 534.743182 132.882869 
L 535.377273 132.619638 
L 536.011364 132.531894 
L 537.279545 132.005432 
L 537.913636 131.96156 
L 540.45 131.040251 
L 542.352273 129.724095 
L 542.986364 129.460864 
L 543.620455 129.066017 
L 545.522727 128.232451 
L 547.425 127.091783 
L 548.059091 126.696936 
L 549.327273 126.389833 
L 550.595455 125.512396 
L 553.131818 124.722702 
L 553.765909 124.459471 
L 555.034091 124.152368 
L 558.204545 123.143315 
L 560.106818 122.79234 
L 562.643182 122.002646 
L 563.277273 121.739415 
L 563.911364 121.651671 
L 564.545455 121.344568 
L 565.813636 121.081337 
L 566.447727 120.774234 
L 568.35 120.335515 
L 569.618182 120.072284 
L 573.422727 119.370334 
L 574.690909 119.107103 
L 575.325 118.975487 
L 575.959091 118.712256 
L 576.593182 118.668384 
L 578.495455 118.141922 
L 579.129545 117.790947 
L 582.3 117.001253 
L 582.934091 116.869638 
L 584.202273 116.430919 
L 586.104545 115.772841 
L 586.738636 115.685097 
L 588.640909 115.027019 
L 589.275 115.027019 
L 590.543182 114.588301 
L 591.177273 113.974095 
L 591.811364 113.666992 
L 593.079545 113.272145 
L 595.615909 112.306964 
L 596.25 112.175348 
L 596.884091 111.780501 
L 597.518182 111.648886 
L 598.152273 111.254039 
L 601.322727 110.33273 
L 601.956818 109.937883 
L 602.590909 109.762396 
L 603.225 109.235933 
L 605.127273 108.884958 
L 606.395455 108.183008 
L 607.029545 107.481058 
L 608.297727 107.217827 
L 612.736364 106.208774 
L 613.370455 106.033287 
L 614.638636 105.989415 
L 615.272727 105.682312 
L 617.809091 105.243593 
L 618.443182 104.93649 
L 620.345455 104.673259 
L 622.881818 103.883565 
L 624.784091 103.444847 
L 626.686364 102.962256 
L 629.222727 102.172563 
L 629.856818 102.040947 
L 630.490909 101.733844 
L 631.125 101.6461 
L 631.759091 101.426741 
L 632.393182 101.075766 
L 634.295455 100.417688 
L 634.929545 99.935097 
L 636.197727 99.584123 
L 636.831818 99.320891 
L 638.1 98.969916 
L 640.636364 97.829248 
L 642.538636 97.697632 
L 645.075 96.907939 
L 645.709091 96.513092 
L 646.977273 96.118245 
L 648.879545 95.153064 
L 649.513636 95.021448 
L 650.147727 94.714345 
L 650.781818 94.626602 
L 657.756818 92.301393 
L 660.293182 91.687187 
L 660.927273 91.511699 
L 662.195455 90.941365 
L 662.829545 90.853621 
L 664.097727 90.502646 
L 664.731818 90.020056 
L 665.365909 89.712953 
L 666 88.967131 
L 666.634091 88.528412 
L 667.902273 88.133565 
L 668.536364 87.607103 
L 675.511364 84.755432 
L 676.779545 84.448329 
L 678.047727 83.877994 
L 679.95 82.781198 
L 680.584091 82.649582 
L 681.218182 82.166992 
L 682.486364 81.552786 
L 683.754545 80.763092 
L 685.656818 79.885655 
L 686.290909 79.446936 
L 687.559091 78.964345 
L 688.827273 78.218524 
L 689.461364 77.911421 
L 690.095455 77.472702 
L 691.363636 77.033983 
L 691.997727 76.902368 
L 694.534091 75.761699 
L 697.704545 74.664903 
L 698.338636 74.621031 
L 698.972727 74.445543 
L 699.606818 74.050696 
L 700.240909 73.962953 
L 700.875 73.743593 
L 702.777273 73.392618 
L 705.947727 71.769359 
L 707.215909 71.067409 
L 707.85 70.979666 
L 709.752273 69.970613 
L 711.654545 69.268663 
L 713.556818 68.435097 
L 716.093182 67.426045 
L 716.727273 67.250557 
L 717.361364 66.85571 
L 718.629545 66.680223 
L 719.263636 66.285376 
L 719.897727 66.241504 
L 721.165909 65.846657 
L 722.434091 65.232451 
L 723.068182 65.144708 
L 723.702273 64.881476 
L 724.336364 64.749861 
L 726.238636 63.916295 
L 726.872727 63.78468 
L 727.506818 63.521448 
L 730.677273 62.775627 
L 732.579545 62.029805 
L 734.481818 60.889136 
L 735.75 60.362674 
L 736.384091 60.099443 
L 737.018182 59.704596 
L 738.286364 59.441365 
L 738.920455 59.09039 
L 739.554545 58.958774 
L 740.822727 58.256825 
L 744.627273 56.50195 
L 746.529545 55.8 
L 747.163636 55.8 
L 747.163636 55.8 
" clip-path="url(#pe9b571bcdb)" style="fill: none; stroke: #1f77b4; stroke-width: 1.5; stroke-linecap: square"/>
   </g>
   <g id="line2d_34">
    <path d="M 139.070455 307.8 
L 140.972727 307.712256 
L 142.875 307.668384 
L 146.679545 307.580641 
L 149.85 307.449025 
L 152.386364 307.449025 
L 153.020455 307.273538 
L 155.556818 307.185794 
L 157.459091 306.966435 
L 159.361364 306.790947 
L 163.165909 306.61546 
L 163.8 306.61546 
L 164.434091 306.483844 
L 166.970455 306.3961 
L 168.238636 306.308357 
L 173.311364 306.220613 
L 176.481818 306.088997 
L 184.090909 306.001253 
L 187.261364 305.869638 
L 191.065909 305.781894 
L 193.602273 305.69415 
L 199.309091 305.606407 
L 201.211364 305.562535 
L 203.113636 305.518663 
L 205.015909 305.299304 
L 208.820455 305.255432 
L 210.088636 305.167688 
L 214.527273 305.079944 
L 221.502273 304.685097 
L 225.940909 304.597354 
L 227.209091 304.50961 
L 229.111364 304.421866 
L 232.915909 304.246379 
L 235.452273 304.202507 
L 237.354545 304.027019 
L 247.5 303.412813 
L 250.036364 303.32507 
L 254.475 303.10571 
L 256.377273 303.017967 
L 262.718182 302.666992 
L 269.693182 302.579248 
L 272.229545 302.316017 
L 273.497727 302.228273 
L 281.740909 301.570195 
L 285.545455 301.087604 
L 288.081818 300.999861 
L 293.154545 300.341783 
L 296.325 300.254039 
L 304.568182 299.595961 
L 307.738636 299.244986 
L 310.275 299.157242 
L 311.543182 299.069499 
L 314.079545 298.981755 
L 315.347727 298.894011 
L 318.518182 298.586908 
L 319.152273 298.411421 
L 322.956818 298.235933 
L 326.127273 298.148189 
L 334.370455 297.665599 
L 336.272727 297.577855 
L 344.515909 297.095265 
L 348.954545 297.007521 
L 349.588636 296.875905 
L 354.661364 296.788162 
L 359.1 296.568802 
L 366.075 296.481058 
L 370.513636 296.261699 
L 375.586364 296.173955 
L 380.659091 295.910724 
L 385.097727 295.822981 
L 397.145455 295.077159 
L 402.218182 294.989415 
L 418.704545 293.93649 
L 422.509091 293.848747 
L 424.411364 293.804875 
L 426.313636 293.761003 
L 428.215909 293.585515 
L 433.288636 293.497772 
L 434.556818 293.278412 
L 435.825 293.190669 
L 438.995455 293.059053 
L 440.263636 292.971309 
L 441.531818 292.883565 
L 447.238636 292.795822 
L 448.506818 292.664206 
L 451.043182 292.620334 
L 451.677273 292.488719 
L 452.945455 292.400975 
L 453.579545 292.269359 
L 455.481818 292.181616 
L 466.261364 291.523538 
L 468.163636 291.435794 
L 471.334091 291.304178 
L 480.211364 291.216435 
L 484.65 290.997075 
L 489.722727 290.909331 
L 492.259091 290.821588 
L 494.795455 290.777716 
L 496.063636 290.6461 
L 498.6 290.558357 
L 504.940909 290.207382 
L 508.745455 290.16351 
L 510.647727 289.988022 
L 512.55 289.94415 
L 516.988636 289.856407 
L 519.525 289.768663 
L 527.134091 289.680919 
L 530.304545 289.549304 
L 534.109091 289.46156 
L 536.011364 289.242201 
L 539.815909 289.198329 
L 541.718182 289.022841 
L 544.254545 288.935097 
L 551.863636 288.847354 
L 555.034091 288.715738 
L 565.813636 288.671866 
L 567.081818 288.584123 
L 568.984091 288.540251 
L 577.227273 288.452507 
L 578.495455 288.364763 
L 585.470455 288.277019 
L 588.006818 288.189276 
L 595.615909 288.145404 
L 596.884091 288.05766 
L 606.395455 288.013788 
L 608.297727 287.838301 
L 619.077273 287.750557 
L 620.979545 287.706685 
L 637.465909 287.618942 
L 639.368182 287.57507 
L 651.415909 287.487326 
L 653.952273 287.399582 
L 658.390909 287.311838 
L 663.463636 287.048607 
L 666 286.960864 
L 668.536364 286.87312 
L 672.340909 286.785376 
L 674.243182 286.741504 
L 676.779545 286.65376 
L 678.681818 286.609889 
L 681.852273 286.522145 
L 683.120455 286.434401 
L 686.925 286.346657 
L 690.095455 286.215042 
L 691.363636 286.17117 
L 693.265909 285.995682 
L 697.070455 285.907939 
L 699.606818 285.820195 
L 705.947727 285.732451 
L 709.118182 285.600836 
L 715.459091 285.513092 
L 719.897727 285.293733 
L 725.604545 285.205989 
L 726.872727 285.118245 
L 734.481818 285.030501 
L 736.384091 284.98663 
L 743.359091 284.898886 
L 745.895455 284.635655 
L 747.163636 284.591783 
L 747.163636 284.591783 
" clip-path="url(#pe9b571bcdb)" style="fill: none; stroke: #ff7f0e; stroke-width: 1.5; stroke-linecap: square"/>
   </g>
   <g id="patch_3">
    <path d="M 108 320.4 
L 108 43.2 
" style="fill: none; stroke: #a9a9a9; stroke-width: 0.8; stroke-linejoin: miter; stroke-linecap: square"/>
   </g>
   <g id="patch_4">
    <path d="M 777.6 320.4 
L 777.6 43.2 
" style="fill: none"/>
   </g>
   <g id="patch_5">
    <path d="M 108 320.4 
L 777.6 320.4 
" style="fill: none; stroke: #a9a9a9; stroke-width: 0.8; stroke-linejoin: miter; stroke-linecap: square"/>
   </g>
   <g id="patch_6">
    <path d="M 108 43.2 
L 777.6 43.2 
" style="fill: none"/>
   </g>
   <g id="text_17">
    <!-- get_subscribe history -->
    <g style="fill: #a9a9a9" transform="translate(378.6075 37.2) scale(0.12 -0.12)">
     <defs>
      <path id="DejaVuSans-67" d="M 2906 1791 
Q 2906 2416 2648 2759 
Q 2391 3103 1925 3103 
Q 1463 3103 1205 2759 
Q 947 2416 947 1791 
Q 947 1169 1205 825 
Q 1463 481 1925 481 
Q 2391 481 2648 825 
Q 2906 1169 2906 1791 
z
M 3481 434 
Q 3481 -459 3084 -895 
Q 2688 -1331 1869 -1331 
Q 1566 -1331 1297 -1286 
Q 1028 -1241 775 -1147 
L 775 -588 
Q 1028 -725 1275 -790 
Q 1522 -856 1778 -856 
Q 2344 -856 2625 -561 
Q 2906 -266 2906 331 
L 2906 616 
Q 2728 306 2450 153 
Q 2172 0 1784 0 
Q 1141 0 747 490 
Q 353 981 353 1791 
Q 353 2603 747 3093 
Q 1141 3584 1784 3584 
Q 2172 3584 2450 3431 
Q 2728 3278 2906 2969 
L 2906 3500 
L 3481 3500 
L 3481 434 
z
" transform="scale(0.015625)"/>
      <path id="DejaVuSans-65" d="M 3597 1894 
L 3597 1613 
L 953 1613 
Q 991 1019 1311 708 
Q 1631 397 2203 397 
Q 2534 397 2845 478 
Q 3156 559 3463 722 
L 3463 178 
Q 3153 47 2828 -22 
Q 2503 -91 2169 -91 
Q 1331 -91 842 396 
Q 353 884 353 1716 
Q 353 2575 817 3079 
Q 1281 3584 2069 3584 
Q 2775 3584 3186 3129 
Q 3597 2675 3597 1894 
z
M 3022 2063 
Q 3016 2534 2758 2815 
Q 2500 3097 2075 3097 
Q 1594 3097 1305 2825 
Q 1016 2553 972 2059 
L 3022 2063 
z
" transform="scale(0.015625)"/>
      <path id="DejaVuSans-74" d="M 1172 4494 
L 1172 3500 
L 2356 3500 
L 2356 3053 
L 1172 3053 
L 1172 1153 
Q 1172 725 1289 603 
Q 1406 481 1766 481 
L 2356 481 
L 2356 0 
L 1766 0 
Q 1100 0 847 248 
Q 594 497 594 1153 
L 594 3053 
L 172 3053 
L 172 3500 
L 594 3500 
L 594 4494 
L 1172 4494 
z
" transform="scale(0.015625)"/>
      <path id="DejaVuSans-5f" d="M 3263 -1063 
L 3263 -1509 
L -63 -1509 
L -63 -1063 
L 3263 -1063 
z
" transform="scale(0.015625)"/>
      <path id="DejaVuSans-73" d="M 2834 3397 
L 2834 2853 
Q 2591 2978 2328 3040 
Q 2066 3103 1784 3103 
Q 1356 3103 1142 2972 
Q 928 2841 928 2578 
Q 928 2378 1081 2264 
Q 1234 2150 1697 2047 
L 1894 2003 
Q 2506 1872 2764 1633 
Q 3022 1394 3022 966 
Q 3022 478 2636 193 
Q 2250 -91 1575 -91 
Q 1294 -91 989 -36 
Q 684 19 347 128 
L 347 722 
Q 666 556 975 473 
Q 1284 391 1588 391 
Q 1994 391 2212 530 
Q 2431 669 2431 922 
Q 2431 1156 2273 1281 
Q 2116 1406 1581 1522 
L 1381 1569 
Q 847 1681 609 1914 
Q 372 2147 372 2553 
Q 372 3047 722 3315 
Q 1072 3584 1716 3584 
Q 2034 3584 2315 3537 
Q 2597 3491 2834 3397 
z
" transform="scale(0.015625)"/>
      <path id="DejaVuSans-75" d="M 544 1381 
L 544 3500 
L 1119 3500 
L 1119 1403 
Q 1119 906 1312 657 
Q 1506 409 1894 409 
Q 2359 409 2629 706 
Q 2900 1003 2900 1516 
L 2900 3500 
L 3475 3500 
L 3475 0 
L 2900 0 
L 2900 538 
Q 2691 219 2414 64 
Q 2138 -91 1772 -91 
Q 1169 -91 856 284 
Q 544 659 544 1381 
z
M 1991 3584 
L 1991 3584 
z
" transform="scale(0.015625)"/>
      <path id="DejaVuSans-62" d="M 3116 1747 
Q 3116 2381 2855 2742 
Q 2594 3103 2138 3103 
Q 1681 3103 1420 2742 
Q 1159 2381 1159 1747 
Q 1159 1113 1420 752 
Q 1681 391 2138 391 
Q 2594 391 2855 752 
Q 3116 1113 3116 1747 
z
M 1159 2969 
Q 1341 3281 1617 3432 
Q 1894 3584 2278 3584 
Q 2916 3584 3314 3078 
Q 3713 2572 3713 1747 
Q 3713 922 3314 415 
Q 2916 -91 2278 -91 
Q 1894 -91 1617 61 
Q 1341 213 1159 525 
L 1159 0 
L 581 0 
L 581 4863 
L 1159 4863 
L 1159 2969 
z
" transform="scale(0.015625)"/>
      <path id="DejaVuSans-63" d="M 3122 3366 
L 3122 2828 
Q 2878 2963 2633 3030 
Q 2388 3097 2138 3097 
Q 1578 3097 1268 2742 
Q 959 2388 959 1747 
Q 959 1106 1268 751 
Q 1578 397 2138 397 
Q 2388 397 2633 464 
Q 2878 531 3122 666 
L 3122 134 
Q 2881 22 2623 -34 
Q 2366 -91 2075 -91 
Q 1284 -91 818 406 
Q 353 903 353 1747 
Q 353 2603 823 3093 
Q 1294 3584 2113 3584 
Q 2378 3584 2631 3529 
Q 2884 3475 3122 3366 
z
" transform="scale(0.015625)"/>
      <path id="DejaVuSans-72" d="M 2631 2963 
Q 2534 3019 2420 3045 
Q 2306 3072 2169 3072 
Q 1681 3072 1420 2755 
Q 1159 2438 1159 1844 
L 1159 0 
L 581 0 
L 581 3500 
L 1159 3500 
L 1159 2956 
Q 1341 3275 1631 3429 
Q 1922 3584 2338 3584 
Q 2397 3584 2469 3576 
Q 2541 3569 2628 3553 
L 2631 2963 
z
" transform="scale(0.015625)"/>
      <path id="DejaVuSans-69" d="M 603 3500 
L 1178 3500 
L 1178 0 
L 603 0 
L 603 3500 
z
M 603 4863 
L 1178 4863 
L 1178 4134 
L 603 4134 
L 603 4863 
z
" transform="scale(0.015625)"/>
      <path id="DejaVuSans-20" transform="scale(0.015625)"/>
      <path id="DejaVuSans-68" d="M 3513 2113 
L 3513 0 
L 2938 0 
L 2938 2094 
Q 2938 2591 2744 2837 
Q 2550 3084 2163 3084 
Q 1697 3084 1428 2787 
Q 1159 2491 1159 1978 
L 1159 0 
L 581 0 
L 581 4863 
L 1159 4863 
L 1159 2956 
Q 1366 3272 1645 3428 
Q 1925 3584 2291 3584 
Q 2894 3584 3203 3211 
Q 3513 2838 3513 2113 
z
" transform="scale(0.015625)"/>
      <path id="DejaVuSans-6f" d="M 1959 3097 
Q 1497 3097 1228 2736 
Q 959 2375 959 1747 
Q 959 1119 1226 758 
Q 1494 397 1959 397 
Q 2419 397 2687 759 
Q 2956 1122 2956 1747 
Q 2956 2369 2687 2733 
Q 2419 3097 1959 3097 
z
M 1959 3584 
Q 2709 3584 3137 3096 
Q 3566 2609 3566 1747 
Q 3566 888 3137 398 
Q 2709 -91 1959 -91 
Q 1206 -91 779 398 
Q 353 888 353 1747 
Q 353 2609 779 3096 
Q 1206 3584 1959 3584 
z
" transform="scale(0.015625)"/>
      <path id="DejaVuSans-79" d="M 2059 -325 
Q 1816 -950 1584 -1140 
Q 1353 -1331 966 -1331 
L 506 -1331 
L 506 -850 
L 844 -850 
Q 1081 -850 1212 -737 
Q 1344 -625 1503 -206 
L 1606 56 
L 191 3500 
L 800 3500 
L 1894 763 
L 2988 3500 
L 3597 3500 
L 2059 -325 
z
" transform="scale(0.015625)"/>
     </defs>
     <use xlink:href="#DejaVuSans-67"/>
     <use xlink:href="#DejaVuSans-65" x="63.476562"/>
     <use xlink:href="#DejaVuSans-74" x="125"/>
     <use xlink:href="#DejaVuSans-5f" x="164.208984"/>
     <use xlink:href="#DejaVuSans-73" x="214.208984"/>
     <use xlink:href="#DejaVuSans-75" x="266.308594"/>
     <use xlink:href="#DejaVuSans-62" x="329.6875"/>
     <use xlink:href="#DejaVuSans-73" x="393.164062"/>
     <use xlink:href="#DejaVuSans-63" x="445.263672"/>
     <use xlink:href="#DejaVuSans-72" x="500.244141"/>
     <use xlink:href="#DejaVuSans-69" x="541.357422"/>
     <use xlink:href="#DejaVuSans-62" x="569.140625"/>
     <use xlink:href="#DejaVuSans-65" x="632.617188"/>
     <use xlink:href="#DejaVuSans-20" x="694.140625"/>
     <use xlink:href="#DejaVuSans-68" x="725.927734"/>
     <use xlink:href="#DejaVuSans-69" x="789.306641"/>
     <use xlink:href="#DejaVuSans-73" x="817.089844"/>
     <use xlink:href="#DejaVuSans-74" x="869.189453"/>
     <use xlink:href="#DejaVuSans-6f" x="908.398438"/>
     <use xlink:href="#DejaVuSans-72" x="969.580078"/>
     <use xlink:href="#DejaVuSans-79" x="1010.693359"/>
    </g>
   </g>
   <g id="legend_1">
    <g id="line2d_35">
     <path d="M 815.08 328.498438 
L 825.08 328.498438 
L 835.08 328.498438 
" style="fill: none; stroke: #1f77b4; stroke-width: 1.5; stroke-linecap: square"/>
    </g>
    <g id="text_18">
     <!-- star -->
     <g style="fill: #a9a9a9" transform="translate(843.08 331.998438) scale(0.1 -0.1)">
      <defs>
       <path id="DejaVuSans-61" d="M 2194 1759 
Q 1497 1759 1228 1600 
Q 959 1441 959 1056 
Q 959 750 1161 570 
Q 1363 391 1709 391 
Q 2188 391 2477 730 
Q 2766 1069 2766 1631 
L 2766 1759 
L 2194 1759 
z
M 3341 1997 
L 3341 0 
L 2766 0 
L 2766 531 
Q 2569 213 2275 61 
Q 1981 -91 1556 -91 
Q 1019 -91 701 211 
Q 384 513 384 1019 
Q 384 1609 779 1909 
Q 1175 2209 1959 2209 
L 2766 2209 
L 2766 2266 
Q 2766 2663 2505 2880 
Q 2244 3097 1772 3097 
Q 1472 3097 1187 3025 
Q 903 2953 641 2809 
L 641 3341 
Q 956 3463 1253 3523 
Q 1550 3584 1831 3584 
Q 2591 3584 2966 3190 
Q 3341 2797 3341 1997 
z
" transform="scale(0.015625)"/>
      </defs>
      <use xlink:href="#DejaVuSans-73"/>
      <use xlink:href="#DejaVuSans-74" x="52.099609"/>
      <use xlink:href="#DejaVuSans-61" x="91.308594"/>
      <use xlink:href="#DejaVuSans-72" x="152.587891"/>
     </g>
    </g>
    <g id="line2d_36">
     <path d="M 815.08 343.176562 
L 825.08 343.176562 
L 835.08 343.176562 
" style="fill: none; stroke: #ff7f0e; stroke-width: 1.5; stroke-linecap: square"/>
    </g>
    <g id="text_19">
     <!-- fork -->
     <g style="fill: #a9a9a9" transform="translate(843.08 346.676562) scale(0.1 -0.1)">
      <defs>
       <path id="DejaVuSans-66" d="M 2375 4863 
L 2375 4384 
L 1825 4384 
Q 1516 4384 1395 4259 
Q 1275 4134 1275 3809 
L 1275 3500 
L 2222 3500 
L 2222 3053 
L 1275 3053 
L 1275 0 
L 697 0 
L 697 3053 
L 147 3053 
L 147 3500 
L 697 3500 
L 697 3744 
Q 697 4328 969 4595 
Q 1241 4863 1831 4863 
L 2375 4863 
z
" transform="scale(0.015625)"/>
       <path id="DejaVuSans-6b" d="M 581 4863 
L 1159 4863 
L 1159 1991 
L 2875 3500 
L 3609 3500 
L 1753 1863 
L 3688 0 
L 2938 0 
L 1159 1709 
L 1159 0 
L 581 0 
L 581 4863 
z
" transform="scale(0.015625)"/>
      </defs>
      <use xlink:href="#DejaVuSans-66"/>
      <use xlink:href="#DejaVuSans-6f" x="35.205078"/>
      <use xlink:href="#DejaVuSans-72" x="96.386719"/>
      <use xlink:href="#DejaVuSans-6b" x="137.5"/>
     </g>
    </g>
   </g>
  </g>
 </g>
 <defs>
  <clipPath id="pe9b571bcdb">
   <rect x="108" y="43.2" width="669.6" height="277.2"/>
  </clipPath>
 </defs>
</svg>
