<?xml version="1.0" encoding="utf-8" standalone="no"?>
<!DOCTYPE svg PUBLIC "-//W3C//DTD SVG 1.1//EN"
  "http://www.w3.org/Graphics/SVG/1.1/DTD/svg11.dtd">
<svg xmlns:xlink="http://www.w3.org/1999/xlink" width="864pt" height="360pt" viewBox="0 0 864 360" xmlns="http://www.w3.org/2000/svg" version="1.1">
 <metadata>
  <rdf:RDF xmlns:dc="http://purl.org/dc/elements/1.1/" xmlns:cc="http://creativecommons.org/ns#" xmlns:rdf="http://www.w3.org/1999/02/22-rdf-syntax-ns#">
   <cc:Work>
    <dc:type rdf:resource="http://purl.org/dc/dcmitype/StillImage"/>
    <dc:date>2025-01-07T20:06:08.438378</dc:date>
    <dc:format>image/svg+xml</dc:format>
    <dc:creator>
     <cc:Agent>
      <dc:title>Matplotlib v3.10.0, https://matplotlib.org/</dc:title>
     </cc:Agent>
    </dc:creator>
   </cc:Work>
  </rdf:RDF>
 </metadata>
 <defs>
  <style type="text/css">*{stroke-linejoin: round; stroke-linecap: butt}</style>
 </defs>
 <g id="figure_1">
  <g id="patch_1">
   <path d="M 0 360 
L 864 360 
L 864 0 
L 0 0 
L 0 360 
z
" style="fill: none; opacity: 0"/>
  </g>
  <g id="axes_1">
   <g id="patch_2">
    <path d="M 108 320.4 
L 777.6 320.4 
L 777.6 43.2 
L 108 43.2 
L 108 320.4 
z
" style="fill: none; opacity: 0"/>
   </g>
   <g id="matplotlib.axis_1">
    <g id="xtick_1">
     <g id="line2d_1">
      <path d="M 127.351069 320.4 
L 127.351069 43.2 
" clip-path="url(#pc8fcc3683d)" style="fill: none; stroke-dasharray: 5.12,1.28,0.8,1.28; stroke-dashoffset: 0; stroke: #b0b0b0; stroke-width: 0.8"/>
     </g>
     <g id="line2d_2">
      <defs>
       <path id="m7be78a3e4e" d="M 0 0 
L 0 3.5 
" style="stroke: #a9a9a9; stroke-width: 0.8"/>
      </defs>
      <g>
       <use xlink:href="#m7be78a3e4e" x="127.351069" y="320.4" style="fill: #a9a9a9; stroke: #a9a9a9; stroke-width: 0.8"/>
      </g>
     </g>
     <g id="text_1">
      <!-- 2021-07 -->
      <g style="fill: #a9a9a9" transform="translate(106.459663 334.998438) scale(0.1 -0.1)">
       <defs>
        <path id="DejaVuSans-32" d="M 1228 531 
L 3431 531 
L 3431 0 
L 469 0 
L 469 531 
Q 828 903 1448 1529 
Q 2069 2156 2228 2338 
Q 2531 2678 2651 2914 
Q 2772 3150 2772 3378 
Q 2772 3750 2511 3984 
Q 2250 4219 1831 4219 
Q 1534 4219 1204 4116 
Q 875 4013 500 3803 
L 500 4441 
Q 881 4594 1212 4672 
Q 1544 4750 1819 4750 
Q 2544 4750 2975 4387 
Q 3406 4025 3406 3419 
Q 3406 3131 3298 2873 
Q 3191 2616 2906 2266 
Q 2828 2175 2409 1742 
Q 1991 1309 1228 531 
z
" transform="scale(0.015625)"/>
        <path id="DejaVuSans-30" d="M 2034 4250 
Q 1547 4250 1301 3770 
Q 1056 3291 1056 2328 
Q 1056 1369 1301 889 
Q 1547 409 2034 409 
Q 2525 409 2770 889 
Q 3016 1369 3016 2328 
Q 3016 3291 2770 3770 
Q 2525 4250 2034 4250 
z
M 2034 4750 
Q 2819 4750 3233 4129 
Q 3647 3509 3647 2328 
Q 3647 1150 3233 529 
Q 2819 -91 2034 -91 
Q 1250 -91 836 529 
Q 422 1150 422 2328 
Q 422 3509 836 4129 
Q 1250 4750 2034 4750 
z
" transform="scale(0.015625)"/>
        <path id="DejaVuSans-31" d="M 794 531 
L 1825 531 
L 1825 4091 
L 703 3866 
L 703 4441 
L 1819 4666 
L 2450 4666 
L 2450 531 
L 3481 531 
L 3481 0 
L 794 0 
L 794 531 
z
" transform="scale(0.015625)"/>
        <path id="DejaVuSans-2d" d="M 313 2009 
L 1997 2009 
L 1997 1497 
L 313 1497 
L 313 2009 
z
" transform="scale(0.015625)"/>
        <path id="DejaVuSans-37" d="M 525 4666 
L 3525 4666 
L 3525 4397 
L 1831 0 
L 1172 0 
L 2766 4134 
L 525 4134 
L 525 4666 
z
" transform="scale(0.015625)"/>
       </defs>
       <use xlink:href="#DejaVuSans-32"/>
       <use xlink:href="#DejaVuSans-30" transform="translate(63.623047 0)"/>
       <use xlink:href="#DejaVuSans-32" transform="translate(127.246094 0)"/>
       <use xlink:href="#DejaVuSans-31" transform="translate(190.869141 0)"/>
       <use xlink:href="#DejaVuSans-2d" transform="translate(254.492188 0)"/>
       <use xlink:href="#DejaVuSans-30" transform="translate(290.576172 0)"/>
       <use xlink:href="#DejaVuSans-37" transform="translate(354.199219 0)"/>
      </g>
     </g>
    </g>
    <g id="xtick_2">
     <g id="line2d_3">
      <path d="M 216.033427 320.4 
L 216.033427 43.2 
" clip-path="url(#pc8fcc3683d)" style="fill: none; stroke-dasharray: 5.12,1.28,0.8,1.28; stroke-dashoffset: 0; stroke: #b0b0b0; stroke-width: 0.8"/>
     </g>
     <g id="line2d_4">
      <g>
       <use xlink:href="#m7be78a3e4e" x="216.033427" y="320.4" style="fill: #a9a9a9; stroke: #a9a9a9; stroke-width: 0.8"/>
      </g>
     </g>
     <g id="text_2">
      <!-- 2022-01 -->
      <g style="fill: #a9a9a9" transform="translate(195.142021 334.998438) scale(0.1 -0.1)">
       <use xlink:href="#DejaVuSans-32"/>
       <use xlink:href="#DejaVuSans-30" transform="translate(63.623047 0)"/>
       <use xlink:href="#DejaVuSans-32" transform="translate(127.246094 0)"/>
       <use xlink:href="#DejaVuSans-32" transform="translate(190.869141 0)"/>
       <use xlink:href="#DejaVuSans-2d" transform="translate(254.492188 0)"/>
       <use xlink:href="#DejaVuSans-30" transform="translate(290.576172 0)"/>
       <use xlink:href="#DejaVuSans-31" transform="translate(354.199219 0)"/>
      </g>
     </g>
    </g>
    <g id="xtick_3">
     <g id="line2d_5">
      <path d="M 303.269877 320.4 
L 303.269877 43.2 
" clip-path="url(#pc8fcc3683d)" style="fill: none; stroke-dasharray: 5.12,1.28,0.8,1.28; stroke-dashoffset: 0; stroke: #b0b0b0; stroke-width: 0.8"/>
     </g>
     <g id="line2d_6">
      <g>
       <use xlink:href="#m7be78a3e4e" x="303.269877" y="320.4" style="fill: #a9a9a9; stroke: #a9a9a9; stroke-width: 0.8"/>
      </g>
     </g>
     <g id="text_3">
      <!-- 2022-07 -->
      <g style="fill: #a9a9a9" transform="translate(282.378471 334.998438) scale(0.1 -0.1)">
       <use xlink:href="#DejaVuSans-32"/>
       <use xlink:href="#DejaVuSans-30" transform="translate(63.623047 0)"/>
       <use xlink:href="#DejaVuSans-32" transform="translate(127.246094 0)"/>
       <use xlink:href="#DejaVuSans-32" transform="translate(190.869141 0)"/>
       <use xlink:href="#DejaVuSans-2d" transform="translate(254.492188 0)"/>
       <use xlink:href="#DejaVuSans-30" transform="translate(290.576172 0)"/>
       <use xlink:href="#DejaVuSans-37" transform="translate(354.199219 0)"/>
      </g>
     </g>
    </g>
    <g id="xtick_4">
     <g id="line2d_7">
      <path d="M 391.952235 320.4 
L 391.952235 43.2 
" clip-path="url(#pc8fcc3683d)" style="fill: none; stroke-dasharray: 5.12,1.28,0.8,1.28; stroke-dashoffset: 0; stroke: #b0b0b0; stroke-width: 0.8"/>
     </g>
     <g id="line2d_8">
      <g>
       <use xlink:href="#m7be78a3e4e" x="391.952235" y="320.4" style="fill: #a9a9a9; stroke: #a9a9a9; stroke-width: 0.8"/>
      </g>
     </g>
     <g id="text_4">
      <!-- 2023-01 -->
      <g style="fill: #a9a9a9" transform="translate(371.060829 334.998438) scale(0.1 -0.1)">
       <defs>
        <path id="DejaVuSans-33" d="M 2597 2516 
Q 3050 2419 3304 2112 
Q 3559 1806 3559 1356 
Q 3559 666 3084 287 
Q 2609 -91 1734 -91 
Q 1441 -91 1130 -33 
Q 819 25 488 141 
L 488 750 
Q 750 597 1062 519 
Q 1375 441 1716 441 
Q 2309 441 2620 675 
Q 2931 909 2931 1356 
Q 2931 1769 2642 2001 
Q 2353 2234 1838 2234 
L 1294 2234 
L 1294 2753 
L 1863 2753 
Q 2328 2753 2575 2939 
Q 2822 3125 2822 3475 
Q 2822 3834 2567 4026 
Q 2313 4219 1838 4219 
Q 1578 4219 1281 4162 
Q 984 4106 628 3988 
L 628 4550 
Q 988 4650 1302 4700 
Q 1616 4750 1894 4750 
Q 2613 4750 3031 4423 
Q 3450 4097 3450 3541 
Q 3450 3153 3228 2886 
Q 3006 2619 2597 2516 
z
" transform="scale(0.015625)"/>
       </defs>
       <use xlink:href="#DejaVuSans-32"/>
       <use xlink:href="#DejaVuSans-30" transform="translate(63.623047 0)"/>
       <use xlink:href="#DejaVuSans-32" transform="translate(127.246094 0)"/>
       <use xlink:href="#DejaVuSans-33" transform="translate(190.869141 0)"/>
       <use xlink:href="#DejaVuSans-2d" transform="translate(254.492188 0)"/>
       <use xlink:href="#DejaVuSans-30" transform="translate(290.576172 0)"/>
       <use xlink:href="#DejaVuSans-31" transform="translate(354.199219 0)"/>
      </g>
     </g>
    </g>
    <g id="xtick_5">
     <g id="line2d_9">
      <path d="M 479.188685 320.4 
L 479.188685 43.2 
" clip-path="url(#pc8fcc3683d)" style="fill: none; stroke-dasharray: 5.12,1.28,0.8,1.28; stroke-dashoffset: 0; stroke: #b0b0b0; stroke-width: 0.8"/>
     </g>
     <g id="line2d_10">
      <g>
       <use xlink:href="#m7be78a3e4e" x="479.188685" y="320.4" style="fill: #a9a9a9; stroke: #a9a9a9; stroke-width: 0.8"/>
      </g>
     </g>
     <g id="text_5">
      <!-- 2023-07 -->
      <g style="fill: #a9a9a9" transform="translate(458.297279 334.998438) scale(0.1 -0.1)">
       <use xlink:href="#DejaVuSans-32"/>
       <use xlink:href="#DejaVuSans-30" transform="translate(63.623047 0)"/>
       <use xlink:href="#DejaVuSans-32" transform="translate(127.246094 0)"/>
       <use xlink:href="#DejaVuSans-33" transform="translate(190.869141 0)"/>
       <use xlink:href="#DejaVuSans-2d" transform="translate(254.492188 0)"/>
       <use xlink:href="#DejaVuSans-30" transform="translate(290.576172 0)"/>
       <use xlink:href="#DejaVuSans-37" transform="translate(354.199219 0)"/>
      </g>
     </g>
    </g>
    <g id="xtick_6">
     <g id="line2d_11">
      <path d="M 567.871043 320.4 
L 567.871043 43.2 
" clip-path="url(#pc8fcc3683d)" style="fill: none; stroke-dasharray: 5.12,1.28,0.8,1.28; stroke-dashoffset: 0; stroke: #b0b0b0; stroke-width: 0.8"/>
     </g>
     <g id="line2d_12">
      <g>
       <use xlink:href="#m7be78a3e4e" x="567.871043" y="320.4" style="fill: #a9a9a9; stroke: #a9a9a9; stroke-width: 0.8"/>
      </g>
     </g>
     <g id="text_6">
      <!-- 2024-01 -->
      <g style="fill: #a9a9a9" transform="translate(546.979637 334.998438) scale(0.1 -0.1)">
       <defs>
        <path id="DejaVuSans-34" d="M 2419 4116 
L 825 1625 
L 2419 1625 
L 2419 4116 
z
M 2253 4666 
L 3047 4666 
L 3047 1625 
L 3713 1625 
L 3713 1100 
L 3047 1100 
L 3047 0 
L 2419 0 
L 2419 1100 
L 313 1100 
L 313 1709 
L 2253 4666 
z
" transform="scale(0.015625)"/>
       </defs>
       <use xlink:href="#DejaVuSans-32"/>
       <use xlink:href="#DejaVuSans-30" transform="translate(63.623047 0)"/>
       <use xlink:href="#DejaVuSans-32" transform="translate(127.246094 0)"/>
       <use xlink:href="#DejaVuSans-34" transform="translate(190.869141 0)"/>
       <use xlink:href="#DejaVuSans-2d" transform="translate(254.492188 0)"/>
       <use xlink:href="#DejaVuSans-30" transform="translate(290.576172 0)"/>
       <use xlink:href="#DejaVuSans-31" transform="translate(354.199219 0)"/>
      </g>
     </g>
    </g>
    <g id="xtick_7">
     <g id="line2d_13">
      <path d="M 655.589462 320.4 
L 655.589462 43.2 
" clip-path="url(#pc8fcc3683d)" style="fill: none; stroke-dasharray: 5.12,1.28,0.8,1.28; stroke-dashoffset: 0; stroke: #b0b0b0; stroke-width: 0.8"/>
     </g>
     <g id="line2d_14">
      <g>
       <use xlink:href="#m7be78a3e4e" x="655.589462" y="320.4" style="fill: #a9a9a9; stroke: #a9a9a9; stroke-width: 0.8"/>
      </g>
     </g>
     <g id="text_7">
      <!-- 2024-07 -->
      <g style="fill: #a9a9a9" transform="translate(634.698056 334.998438) scale(0.1 -0.1)">
       <use xlink:href="#DejaVuSans-32"/>
       <use xlink:href="#DejaVuSans-30" transform="translate(63.623047 0)"/>
       <use xlink:href="#DejaVuSans-32" transform="translate(127.246094 0)"/>
       <use xlink:href="#DejaVuSans-34" transform="translate(190.869141 0)"/>
       <use xlink:href="#DejaVuSans-2d" transform="translate(254.492188 0)"/>
       <use xlink:href="#DejaVuSans-30" transform="translate(290.576172 0)"/>
       <use xlink:href="#DejaVuSans-37" transform="translate(354.199219 0)"/>
      </g>
     </g>
    </g>
    <g id="xtick_8">
     <g id="line2d_15">
      <path d="M 744.27182 320.4 
L 744.27182 43.2 
" clip-path="url(#pc8fcc3683d)" style="fill: none; stroke-dasharray: 5.12,1.28,0.8,1.28; stroke-dashoffset: 0; stroke: #b0b0b0; stroke-width: 0.8"/>
     </g>
     <g id="line2d_16">
      <g>
       <use xlink:href="#m7be78a3e4e" x="744.27182" y="320.4" style="fill: #a9a9a9; stroke: #a9a9a9; stroke-width: 0.8"/>
      </g>
     </g>
     <g id="text_8">
      <!-- 2025-01 -->
      <g style="fill: #a9a9a9" transform="translate(723.380414 334.998438) scale(0.1 -0.1)">
       <defs>
        <path id="DejaVuSans-35" d="M 691 4666 
L 3169 4666 
L 3169 4134 
L 1269 4134 
L 1269 2991 
Q 1406 3038 1543 3061 
Q 1681 3084 1819 3084 
Q 2600 3084 3056 2656 
Q 3513 2228 3513 1497 
Q 3513 744 3044 326 
Q 2575 -91 1722 -91 
Q 1428 -91 1123 -41 
Q 819 9 494 109 
L 494 744 
Q 775 591 1075 516 
Q 1375 441 1709 441 
Q 2250 441 2565 725 
Q 2881 1009 2881 1497 
Q 2881 1984 2565 2268 
Q 2250 2553 1709 2553 
Q 1456 2553 1204 2497 
Q 953 2441 691 2322 
L 691 4666 
z
" transform="scale(0.015625)"/>
       </defs>
       <use xlink:href="#DejaVuSans-32"/>
       <use xlink:href="#DejaVuSans-30" transform="translate(63.623047 0)"/>
       <use xlink:href="#DejaVuSans-32" transform="translate(127.246094 0)"/>
       <use xlink:href="#DejaVuSans-35" transform="translate(190.869141 0)"/>
       <use xlink:href="#DejaVuSans-2d" transform="translate(254.492188 0)"/>
       <use xlink:href="#DejaVuSans-30" transform="translate(290.576172 0)"/>
       <use xlink:href="#DejaVuSans-31" transform="translate(354.199219 0)"/>
      </g>
     </g>
    </g>
   </g>
   <g id="matplotlib.axis_2">
    <g id="ytick_1">
     <g id="line2d_17">
      <path d="M 108 307.835127 
L 777.6 307.835127 
" clip-path="url(#pc8fcc3683d)" style="fill: none; stroke-dasharray: 5.12,1.28,0.8,1.28; stroke-dashoffset: 0; stroke: #b0b0b0; stroke-width: 0.8"/>
     </g>
     <g id="line2d_18">
      <defs>
       <path id="m34ce8339b3" d="M 0 0 
L -3.5 0 
" style="stroke: #a9a9a9; stroke-width: 0.8"/>
      </defs>
      <g>
       <use xlink:href="#m34ce8339b3" x="108" y="307.835127" style="fill: #a9a9a9; stroke: #a9a9a9; stroke-width: 0.8"/>
      </g>
     </g>
     <g id="text_9">
      <!-- 0 -->
      <g style="fill: #a9a9a9" transform="translate(94.6375 311.634346) scale(0.1 -0.1)">
       <use xlink:href="#DejaVuSans-30"/>
      </g>
     </g>
    </g>
    <g id="ytick_2">
     <g id="line2d_19">
      <path d="M 108 279.733649 
L 777.6 279.733649 
" clip-path="url(#pc8fcc3683d)" style="fill: none; stroke-dasharray: 5.12,1.28,0.8,1.28; stroke-dashoffset: 0; stroke: #b0b0b0; stroke-width: 0.8"/>
     </g>
     <g id="line2d_20">
      <g>
       <use xlink:href="#m34ce8339b3" x="108" y="279.733649" style="fill: #a9a9a9; stroke: #a9a9a9; stroke-width: 0.8"/>
      </g>
     </g>
     <g id="text_10">
      <!-- 800 -->
      <g style="fill: #a9a9a9" transform="translate(81.9125 283.532868) scale(0.1 -0.1)">
       <defs>
        <path id="DejaVuSans-38" d="M 2034 2216 
Q 1584 2216 1326 1975 
Q 1069 1734 1069 1313 
Q 1069 891 1326 650 
Q 1584 409 2034 409 
Q 2484 409 2743 651 
Q 3003 894 3003 1313 
Q 3003 1734 2745 1975 
Q 2488 2216 2034 2216 
z
M 1403 2484 
Q 997 2584 770 2862 
Q 544 3141 544 3541 
Q 544 4100 942 4425 
Q 1341 4750 2034 4750 
Q 2731 4750 3128 4425 
Q 3525 4100 3525 3541 
Q 3525 3141 3298 2862 
Q 3072 2584 2669 2484 
Q 3125 2378 3379 2068 
Q 3634 1759 3634 1313 
Q 3634 634 3220 271 
Q 2806 -91 2034 -91 
Q 1263 -91 848 271 
Q 434 634 434 1313 
Q 434 1759 690 2068 
Q 947 2378 1403 2484 
z
M 1172 3481 
Q 1172 3119 1398 2916 
Q 1625 2713 2034 2713 
Q 2441 2713 2670 2916 
Q 2900 3119 2900 3481 
Q 2900 3844 2670 4047 
Q 2441 4250 2034 4250 
Q 1625 4250 1398 4047 
Q 1172 3844 1172 3481 
z
" transform="scale(0.015625)"/>
       </defs>
       <use xlink:href="#DejaVuSans-38"/>
       <use xlink:href="#DejaVuSans-30" transform="translate(63.623047 0)"/>
       <use xlink:href="#DejaVuSans-30" transform="translate(127.246094 0)"/>
      </g>
     </g>
    </g>
    <g id="ytick_3">
     <g id="line2d_21">
      <path d="M 108 251.632172 
L 777.6 251.632172 
" clip-path="url(#pc8fcc3683d)" style="fill: none; stroke-dasharray: 5.12,1.28,0.8,1.28; stroke-dashoffset: 0; stroke: #b0b0b0; stroke-width: 0.8"/>
     </g>
     <g id="line2d_22">
      <g>
       <use xlink:href="#m34ce8339b3" x="108" y="251.632172" style="fill: #a9a9a9; stroke: #a9a9a9; stroke-width: 0.8"/>
      </g>
     </g>
     <g id="text_11">
      <!-- 1600 -->
      <g style="fill: #a9a9a9" transform="translate(75.55 255.43139) scale(0.1 -0.1)">
       <defs>
        <path id="DejaVuSans-36" d="M 2113 2584 
Q 1688 2584 1439 2293 
Q 1191 2003 1191 1497 
Q 1191 994 1439 701 
Q 1688 409 2113 409 
Q 2538 409 2786 701 
Q 3034 994 3034 1497 
Q 3034 2003 2786 2293 
Q 2538 2584 2113 2584 
z
M 3366 4563 
L 3366 3988 
Q 3128 4100 2886 4159 
Q 2644 4219 2406 4219 
Q 1781 4219 1451 3797 
Q 1122 3375 1075 2522 
Q 1259 2794 1537 2939 
Q 1816 3084 2150 3084 
Q 2853 3084 3261 2657 
Q 3669 2231 3669 1497 
Q 3669 778 3244 343 
Q 2819 -91 2113 -91 
Q 1303 -91 875 529 
Q 447 1150 447 2328 
Q 447 3434 972 4092 
Q 1497 4750 2381 4750 
Q 2619 4750 2861 4703 
Q 3103 4656 3366 4563 
z
" transform="scale(0.015625)"/>
       </defs>
       <use xlink:href="#DejaVuSans-31"/>
       <use xlink:href="#DejaVuSans-36" transform="translate(63.623047 0)"/>
       <use xlink:href="#DejaVuSans-30" transform="translate(127.246094 0)"/>
       <use xlink:href="#DejaVuSans-30" transform="translate(190.869141 0)"/>
      </g>
     </g>
    </g>
    <g id="ytick_4">
     <g id="line2d_23">
      <path d="M 108 223.530694 
L 777.6 223.530694 
" clip-path="url(#pc8fcc3683d)" style="fill: none; stroke-dasharray: 5.12,1.28,0.8,1.28; stroke-dashoffset: 0; stroke: #b0b0b0; stroke-width: 0.8"/>
     </g>
     <g id="line2d_24">
      <g>
       <use xlink:href="#m34ce8339b3" x="108" y="223.530694" style="fill: #a9a9a9; stroke: #a9a9a9; stroke-width: 0.8"/>
      </g>
     </g>
     <g id="text_12">
      <!-- 2400 -->
      <g style="fill: #a9a9a9" transform="translate(75.55 227.329913) scale(0.1 -0.1)">
       <use xlink:href="#DejaVuSans-32"/>
       <use xlink:href="#DejaVuSans-34" transform="translate(63.623047 0)"/>
       <use xlink:href="#DejaVuSans-30" transform="translate(127.246094 0)"/>
       <use xlink:href="#DejaVuSans-30" transform="translate(190.869141 0)"/>
      </g>
     </g>
    </g>
    <g id="ytick_5">
     <g id="line2d_25">
      <path d="M 108 195.429217 
L 777.6 195.429217 
" clip-path="url(#pc8fcc3683d)" style="fill: none; stroke-dasharray: 5.12,1.28,0.8,1.28; stroke-dashoffset: 0; stroke: #b0b0b0; stroke-width: 0.8"/>
     </g>
     <g id="line2d_26">
      <g>
       <use xlink:href="#m34ce8339b3" x="108" y="195.429217" style="fill: #a9a9a9; stroke: #a9a9a9; stroke-width: 0.8"/>
      </g>
     </g>
     <g id="text_13">
      <!-- 3200 -->
      <g style="fill: #a9a9a9" transform="translate(75.55 199.228435) scale(0.1 -0.1)">
       <use xlink:href="#DejaVuSans-33"/>
       <use xlink:href="#DejaVuSans-32" transform="translate(63.623047 0)"/>
       <use xlink:href="#DejaVuSans-30" transform="translate(127.246094 0)"/>
       <use xlink:href="#DejaVuSans-30" transform="translate(190.869141 0)"/>
      </g>
     </g>
    </g>
    <g id="ytick_6">
     <g id="line2d_27">
      <path d="M 108 167.327739 
L 777.6 167.327739 
" clip-path="url(#pc8fcc3683d)" style="fill: none; stroke-dasharray: 5.12,1.28,0.8,1.28; stroke-dashoffset: 0; stroke: #b0b0b0; stroke-width: 0.8"/>
     </g>
     <g id="line2d_28">
      <g>
       <use xlink:href="#m34ce8339b3" x="108" y="167.327739" style="fill: #a9a9a9; stroke: #a9a9a9; stroke-width: 0.8"/>
      </g>
     </g>
     <g id="text_14">
      <!-- 4000 -->
      <g style="fill: #a9a9a9" transform="translate(75.55 171.126958) scale(0.1 -0.1)">
       <use xlink:href="#DejaVuSans-34"/>
       <use xlink:href="#DejaVuSans-30" transform="translate(63.623047 0)"/>
       <use xlink:href="#DejaVuSans-30" transform="translate(127.246094 0)"/>
       <use xlink:href="#DejaVuSans-30" transform="translate(190.869141 0)"/>
      </g>
     </g>
    </g>
    <g id="ytick_7">
     <g id="line2d_29">
      <path d="M 108 139.226261 
L 777.6 139.226261 
" clip-path="url(#pc8fcc3683d)" style="fill: none; stroke-dasharray: 5.12,1.28,0.8,1.28; stroke-dashoffset: 0; stroke: #b0b0b0; stroke-width: 0.8"/>
     </g>
     <g id="line2d_30">
      <g>
       <use xlink:href="#m34ce8339b3" x="108" y="139.226261" style="fill: #a9a9a9; stroke: #a9a9a9; stroke-width: 0.8"/>
      </g>
     </g>
     <g id="text_15">
      <!-- 4800 -->
      <g style="fill: #a9a9a9" transform="translate(75.55 143.02548) scale(0.1 -0.1)">
       <use xlink:href="#DejaVuSans-34"/>
       <use xlink:href="#DejaVuSans-38" transform="translate(63.623047 0)"/>
       <use xlink:href="#DejaVuSans-30" transform="translate(127.246094 0)"/>
       <use xlink:href="#DejaVuSans-30" transform="translate(190.869141 0)"/>
      </g>
     </g>
    </g>
    <g id="ytick_8">
     <g id="line2d_31">
      <path d="M 108 111.124784 
L 777.6 111.124784 
" clip-path="url(#pc8fcc3683d)" style="fill: none; stroke-dasharray: 5.12,1.28,0.8,1.28; stroke-dashoffset: 0; stroke: #b0b0b0; stroke-width: 0.8"/>
     </g>
     <g id="line2d_32">
      <g>
       <use xlink:href="#m34ce8339b3" x="108" y="111.124784" style="fill: #a9a9a9; stroke: #a9a9a9; stroke-width: 0.8"/>
      </g>
     </g>
     <g id="text_16">
      <!-- 5600 -->
      <g style="fill: #a9a9a9" transform="translate(75.55 114.924003) scale(0.1 -0.1)">
       <use xlink:href="#DejaVuSans-35"/>
       <use xlink:href="#DejaVuSans-36" transform="translate(63.623047 0)"/>
       <use xlink:href="#DejaVuSans-30" transform="translate(127.246094 0)"/>
       <use xlink:href="#DejaVuSans-30" transform="translate(190.869141 0)"/>
      </g>
     </g>
    </g>
    <g id="ytick_9">
     <g id="line2d_33">
      <path d="M 108 83.023306 
L 777.6 83.023306 
" clip-path="url(#pc8fcc3683d)" style="fill: none; stroke-dasharray: 5.12,1.28,0.8,1.28; stroke-dashoffset: 0; stroke: #b0b0b0; stroke-width: 0.8"/>
     </g>
     <g id="line2d_34">
      <g>
       <use xlink:href="#m34ce8339b3" x="108" y="83.023306" style="fill: #a9a9a9; stroke: #a9a9a9; stroke-width: 0.8"/>
      </g>
     </g>
     <g id="text_17">
      <!-- 6400 -->
      <g style="fill: #a9a9a9" transform="translate(75.55 86.822525) scale(0.1 -0.1)">
       <use xlink:href="#DejaVuSans-36"/>
       <use xlink:href="#DejaVuSans-34" transform="translate(63.623047 0)"/>
       <use xlink:href="#DejaVuSans-30" transform="translate(127.246094 0)"/>
       <use xlink:href="#DejaVuSans-30" transform="translate(190.869141 0)"/>
      </g>
     </g>
    </g>
    <g id="ytick_10">
     <g id="line2d_35">
      <path d="M 108 54.921829 
L 777.6 54.921829 
" clip-path="url(#pc8fcc3683d)" style="fill: none; stroke-dasharray: 5.12,1.28,0.8,1.28; stroke-dashoffset: 0; stroke: #b0b0b0; stroke-width: 0.8"/>
     </g>
     <g id="line2d_36">
      <g>
       <use xlink:href="#m34ce8339b3" x="108" y="54.921829" style="fill: #a9a9a9; stroke: #a9a9a9; stroke-width: 0.8"/>
      </g>
     </g>
     <g id="text_18">
      <!-- 7200 -->
      <g style="fill: #a9a9a9" transform="translate(75.55 58.721048) scale(0.1 -0.1)">
       <use xlink:href="#DejaVuSans-37"/>
       <use xlink:href="#DejaVuSans-32" transform="translate(63.623047 0)"/>
       <use xlink:href="#DejaVuSans-30" transform="translate(127.246094 0)"/>
       <use xlink:href="#DejaVuSans-30" transform="translate(190.869141 0)"/>
      </g>
     </g>
    </g>
   </g>
   <g id="line2d_37">
    <path d="M 138.436364 307.729746 
L 141.32818 307.483858 
L 141.810149 307.273097 
L 143.738026 307.027209 
L 145.665904 306.640814 
L 146.629842 306.500307 
L 149.039689 306.289546 
L 150.003628 305.90315 
L 150.485597 305.270867 
L 150.967566 304.919599 
L 151.449536 303.830666 
L 151.931505 303.760413 
L 152.413474 303.374017 
L 153.377413 302.882241 
L 155.30529 301.33666 
L 157.233168 300.388235 
L 158.679076 299.720825 
L 159.161045 298.948035 
L 160.124984 298.245498 
L 160.606953 298.034737 
L 165.426647 297.3322 
L 165.908616 297.121439 
L 169.282401 296.840424 
L 171.210279 296.383775 
L 175.066033 295.856872 
L 175.548003 295.610984 
L 176.029972 295.54073 
L 176.993911 295.224589 
L 180.367696 294.662559 
L 181.331635 294.381544 
L 185.669359 293.643881 
L 186.633297 293.43312 
L 187.597236 293.397993 
L 189.525113 292.941344 
L 190.007083 292.273934 
L 191.452991 291.711904 
L 192.898899 291.325509 
L 193.380868 291.079621 
L 194.344807 290.903987 
L 196.272684 290.341957 
L 197.236623 290.271703 
L 198.200561 290.025815 
L 200.128439 289.53404 
L 200.610408 289.498913 
L 201.574347 289.042264 
L 202.056316 288.97201 
L 202.538285 288.726122 
L 207.839948 287.847951 
L 209.767826 287.285921 
L 210.249795 286.96978 
L 212.659642 286.161862 
L 213.62358 285.494452 
L 215.069488 285.213437 
L 227.600691 281.665626 
L 228.08266 281.665626 
L 228.56463 281.454865 
L 229.528568 281.349484 
L 230.010538 281.17385 
L 231.938415 281.103596 
L 232.902354 280.927962 
L 233.866292 280.436186 
L 235.3122 279.909284 
L 235.79417 279.593142 
L 236.758108 279.17162 
L 237.240078 278.925732 
L 238.204016 278.60959 
L 238.685986 278.469083 
L 239.649924 277.871926 
L 240.131894 277.345024 
L 241.095832 275.869696 
L 241.577802 275.729189 
L 242.059771 275.729189 
L 243.505679 274.886144 
L 243.987648 274.640256 
L 244.469618 274.534876 
L 244.951587 274.078227 
L 245.915526 273.691832 
L 246.879464 273.235183 
L 249.289311 270.179147 
L 252.181127 268.633566 
L 253.145066 267.860775 
L 253.627035 267.544633 
L 254.109005 266.842096 
L 254.590974 265.753164 
L 255.072943 265.0155 
L 255.554913 264.629105 
L 256.036882 264.418344 
L 259.892637 260.905659 
L 260.856575 260.027488 
L 263.748391 258.236019 
L 264.230361 258.060385 
L 265.676269 257.21734 
L 267.122177 256.268916 
L 269.050054 254.5477 
L 270.013993 254.161305 
L 270.977931 253.493895 
L 271.459901 253.21288 
L 271.94187 253.142626 
L 273.387778 252.334709 
L 273.869747 251.807806 
L 276.279594 250.508113 
L 276.761563 250.332478 
L 278.207471 249.348927 
L 285.437011 246.819794 
L 286.40095 245.941623 
L 287.364889 245.484974 
L 288.328827 244.958071 
L 288.810797 244.677056 
L 289.774735 244.396041 
L 290.256705 244.0799 
L 290.738674 243.939392 
L 292.184582 242.990967 
L 294.594429 242.428938 
L 296.040337 241.585894 
L 297.486245 241.269752 
L 297.968214 241.129244 
L 299.414122 240.040312 
L 301.342 239.51341 
L 301.823969 239.127014 
L 304.715785 238.143463 
L 305.679724 237.967828 
L 306.643662 237.581433 
L 310.017448 236.351993 
L 310.981386 236.211486 
L 312.427294 235.71971 
L 314.837141 234.560524 
L 316.765018 233.506719 
L 320.620773 231.926011 
L 321.102742 231.855757 
L 322.066681 231.258601 
L 322.54865 231.188347 
L 324.476528 230.415556 
L 326.404405 230.169668 
L 327.368344 229.677892 
L 327.850313 229.25637 
L 328.332282 228.378199 
L 330.26016 227.851296 
L 331.706068 227.113633 
L 332.188037 227.008252 
L 336.043792 225.146529 
L 337.4897 224.865514 
L 338.453639 224.373739 
L 338.935608 224.162977 
L 339.417577 224.092724 
L 341.345455 223.214553 
L 342.791363 222.301255 
L 344.237271 222.02024 
L 346.647117 221.423083 
L 347.129087 221.036688 
L 348.574995 220.509785 
L 350.502872 219.736995 
L 350.984841 219.385726 
L 351.466811 219.210092 
L 352.430749 218.683189 
L 354.840596 217.875272 
L 356.286504 216.716086 
L 356.768473 216.610705 
L 357.732412 215.837915 
L 358.214381 215.767661 
L 358.696351 214.99487 
L 359.17832 214.784109 
L 359.660289 214.397714 
L 360.142259 214.32746 
L 361.106197 213.730304 
L 362.070136 213.414162 
L 362.552105 213.062894 
L 363.034075 212.88726 
L 364.479983 211.868581 
L 366.40786 210.849902 
L 366.889829 210.779649 
L 368.335737 210.041985 
L 368.817707 209.234067 
L 369.781645 208.531531 
L 370.263615 208.42615 
L 371.227553 207.828994 
L 371.709523 207.723613 
L 372.673461 207.231837 
L 374.601339 206.283412 
L 375.083308 205.932144 
L 376.047247 204.983719 
L 377.011185 204.386563 
L 377.493155 204.070421 
L 377.975124 203.543518 
L 379.903002 202.208698 
L 380.384971 201.646669 
L 380.86694 201.260273 
L 381.830879 200.909005 
L 382.794818 200.276721 
L 384.240726 199.539058 
L 384.722695 199.468804 
L 386.168603 198.696013 
L 387.132542 198.098857 
L 391.952235 196.342515 
L 392.434204 195.956119 
L 394.362082 195.218456 
L 394.844051 195.077948 
L 395.80799 194.445665 
L 396.771928 194.024143 
L 397.735867 193.356733 
L 398.699806 191.424756 
L 399.663744 190.300697 
L 401.109652 189.563033 
L 402.073591 189.176638 
L 402.55556 189.106384 
L 403.03753 188.825369 
L 405.447376 188.052579 
L 405.929346 187.841818 
L 406.893284 187.174408 
L 408.339192 186.542124 
L 409.303131 186.015222 
L 409.7851 185.663953 
L 410.26707 185.453192 
L 410.749039 185.101924 
L 411.231008 184.575021 
L 412.194947 184.048118 
L 414.604794 182.748425 
L 417.49661 181.308224 
L 418.942518 180.886702 
L 420.388426 180.324672 
L 420.870395 179.973404 
L 421.834334 179.692389 
L 422.798273 179.305994 
L 423.280242 178.919599 
L 425.208119 178.252188 
L 426.172058 177.549652 
L 427.135997 177.128129 
L 428.099935 176.390466 
L 429.063874 176.039197 
L 429.545843 175.617675 
L 430.027813 175.547421 
L 430.991751 174.809757 
L 431.95569 174.317982 
L 432.437659 174.107221 
L 432.919629 173.615445 
L 436.293414 172.280624 
L 437.257353 171.859102 
L 438.703261 171.402453 
L 439.667199 171.261946 
L 440.149169 171.051185 
L 440.631138 170.980931 
L 441.595077 170.559409 
L 442.077046 170.524282 
L 444.004923 169.786618 
L 445.450831 168.76794 
L 445.932801 168.592306 
L 446.896739 168.065403 
L 447.378709 167.924895 
L 450.270525 166.30906 
L 450.752494 166.20368 
L 452.198402 165.360636 
L 453.64431 164.86886 
L 454.608249 164.552718 
L 456.536126 163.920435 
L 457.500065 163.604293 
L 459.427942 163.217898 
L 459.909911 163.007137 
L 460.391881 162.936883 
L 461.355819 162.515361 
L 461.837789 162.445107 
L 462.319758 162.199219 
L 463.283697 162.023585 
L 464.729605 161.496682 
L 465.693544 161.391302 
L 467.139452 161.07516 
L 469.549298 160.653638 
L 482.080501 157.000446 
L 482.56247 156.50867 
L 483.526409 156.122275 
L 487.382164 154.682074 
L 487.864133 154.401059 
L 489.310041 153.979537 
L 490.27398 153.733649 
L 490.755949 153.417508 
L 491.237918 153.312127 
L 491.719888 152.890605 
L 493.165796 152.60959 
L 494.129734 152.152941 
L 494.611704 151.590912 
L 496.539581 151.134263 
L 499.913366 150.431726 
L 500.395336 150.431726 
L 500.877305 150.220965 
L 502.805182 149.869696 
L 503.287152 149.658935 
L 505.215029 149.307667 
L 506.178968 148.886144 
L 507.142906 148.71051 
L 509.552753 148.113354 
L 511.480631 147.516197 
L 511.9626 147.410817 
L 512.444569 147.164929 
L 513.408508 146.919041 
L 513.890477 146.638026 
L 515.336385 146.14625 
L 515.818355 145.830109 
L 516.782293 145.549094 
L 520.638048 144.214274 
L 521.601987 144.14402 
L 523.529864 143.581991 
L 524.011833 143.300976 
L 524.975772 143.019961 
L 527.385619 141.931029 
L 527.867588 141.895902 
L 533.169251 140.034179 
L 535.579097 139.401896 
L 536.543036 138.945247 
L 537.988944 138.629105 
L 539.916821 137.048397 
L 540.88076 136.767382 
L 541.362729 136.380987 
L 544.254545 135.292055 
L 544.736515 134.975913 
L 545.700453 134.694898 
L 546.182423 134.378757 
L 548.592269 133.605966 
L 550.038177 132.762922 
L 550.520147 132.657541 
L 552.929994 131.357848 
L 554.375902 130.725565 
L 554.857871 130.374296 
L 555.82181 130.058154 
L 556.785748 129.496125 
L 557.267718 129.320491 
L 557.749687 128.969222 
L 564.015288 126.756231 
L 564.497258 126.65085 
L 564.979227 126.334709 
L 566.907104 125.948313 
L 567.871043 125.561918 
L 570.762859 124.156844 
L 571.244828 124.08659 
L 572.690736 123.278673 
L 574.136644 122.786897 
L 577.51043 121.41695 
L 577.992399 121.276443 
L 578.474368 120.960301 
L 579.438307 120.854921 
L 579.920276 120.538779 
L 580.884215 120.363145 
L 581.848154 119.906496 
L 582.330123 119.695735 
L 582.812092 119.625481 
L 585.221939 118.677056 
L 586.667847 118.290661 
L 587.631786 118.044773 
L 589.077694 117.623251 
L 590.041632 117.236855 
L 591.96951 116.18305 
L 592.933448 115.796655 
L 593.415418 115.480513 
L 594.379357 115.269752 
L 594.861326 114.988737 
L 595.343295 114.883357 
L 596.789203 114.075439 
L 597.753142 113.689044 
L 599.681019 112.95138 
L 602.090866 112.143463 
L 603.054805 111.651687 
L 605.464651 110.843769 
L 608.356467 109.684583 
L 610.284345 108.806412 
L 615.104038 106.944689 
L 615.586007 106.628548 
L 617.513885 105.961137 
L 617.995854 105.961137 
L 618.959793 105.539615 
L 620.88767 103.994034 
L 621.369639 103.853527 
L 621.851609 103.537385 
L 622.333578 103.432004 
L 622.815547 103.186117 
L 623.297517 103.115863 
L 623.779486 102.764594 
L 624.261455 102.659214 
L 625.225394 102.062057 
L 626.671302 101.324394 
L 627.635241 100.937998 
L 628.11721 100.69211 
L 629.563118 100.375969 
L 631.972965 99.568051 
L 632.936903 99.25191 
L 634.382811 98.514246 
L 635.34675 98.057597 
L 636.310689 97.811709 
L 637.756597 97.144299 
L 642.094321 95.563591 
L 643.540229 94.68542 
L 644.022198 94.580039 
L 644.986137 94.12339 
L 645.950076 93.772122 
L 646.432045 93.350599 
L 647.395984 92.964204 
L 650.2878 91.805018 
L 651.733708 91.383496 
L 652.215677 91.137608 
L 652.697646 91.067354 
L 654.143554 90.540452 
L 655.589462 90.013549 
L 656.553401 89.627154 
L 657.03537 89.240758 
L 658.481278 88.854363 
L 658.963248 88.573348 
L 659.927186 88.32746 
L 661.373094 87.519543 
L 661.855064 87.484416 
L 663.300972 87.027767 
L 664.26491 86.957513 
L 665.228849 86.571118 
L 668.120665 85.728074 
L 669.084604 85.692947 
L 672.940358 84.463507 
L 673.904297 83.936604 
L 674.386266 83.515082 
L 675.832174 82.672038 
L 676.314144 82.320769 
L 677.278082 81.969501 
L 679.687929 81.19671 
L 680.169899 80.810315 
L 683.061715 79.616002 
L 684.989592 79.0891 
L 685.953531 78.667577 
L 686.4355 78.421689 
L 687.399439 78.140675 
L 687.881408 77.85966 
L 688.845347 77.684026 
L 691.255193 76.559967 
L 691.737163 76.278952 
L 693.183071 75.927683 
L 693.66504 75.611542 
L 694.147009 75.435907 
L 694.628979 75.014385 
L 695.110948 74.944132 
L 697.038825 74.171341 
L 698.966703 73.714692 
L 699.448672 73.644438 
L 699.930641 73.433677 
L 700.412611 73.39855 
L 701.376549 73.082409 
L 701.858519 73.047282 
L 703.304427 72.485252 
L 705.232304 71.923223 
L 706.196243 71.185559 
L 708.12412 70.131754 
L 709.570028 69.639978 
L 712.461844 68.340284 
L 713.425783 67.813382 
L 713.907752 67.567494 
L 714.389721 67.110845 
L 717.281537 66.16242 
L 718.245476 65.776025 
L 719.209415 65.530137 
L 719.691384 65.284249 
L 720.173353 64.862727 
L 722.101231 64.370951 
L 722.5832 64.019682 
L 728.848802 61.736437 
L 729.81274 61.560803 
L 734.150464 60.050348 
L 735.114403 59.804461 
L 735.596372 59.593699 
L 736.078342 59.558573 
L 737.04228 59.172177 
L 738.006219 58.575021 
L 738.488188 58.399387 
L 738.970158 58.36426 
L 740.416066 57.731977 
L 741.861974 57.205074 
L 742.343943 57.13482 
L 743.307882 56.748425 
L 744.75379 56.432283 
L 746.199698 55.975634 
L 747.163636 55.8 
L 747.163636 55.8 
" clip-path="url(#pc8fcc3683d)" style="fill: none; stroke: #1f77b4; stroke-width: 1.5; stroke-linecap: square"/>
   </g>
   <g id="line2d_38">
    <path d="M 138.918333 307.8 
L 143.256057 307.694619 
L 147.111812 307.518985 
L 149.039689 307.518985 
L 149.521658 307.378478 
L 151.931505 307.273097 
L 154.823321 306.956956 
L 157.715137 306.851575 
L 158.679076 306.746195 
L 162.052861 306.605687 
L 165.426647 306.500307 
L 167.836493 306.430053 
L 174.102095 306.324672 
L 176.511941 306.254419 
L 179.885727 306.149038 
L 182.295573 306.078784 
L 187.597236 305.973404 
L 189.525113 305.79777 
L 191.452991 305.762643 
L 194.344807 305.657262 
L 196.272684 305.622135 
L 198.682531 305.551882 
L 200.610408 305.376248 
L 204.948132 305.270867 
L 205.912071 305.200613 
L 207.839948 305.095233 
L 210.731764 304.989852 
L 212.659642 304.884472 
L 221.33509 304.357569 
L 224.708875 304.252188 
L 226.154783 304.111681 
L 228.56463 304.006301 
L 233.384323 303.760413 
L 238.204016 303.690159 
L 240.131894 303.479398 
L 242.059771 303.374017 
L 247.361434 302.882241 
L 250.735219 302.495846 
L 252.181127 302.425592 
L 256.036882 301.933817 
L 258.928698 301.863563 
L 260.374606 301.723055 
L 261.820514 301.617675 
L 275.315655 300.598996 
L 276.279594 300.423362 
L 279.17141 300.317982 
L 286.882919 299.861333 
L 290.256705 299.755952 
L 292.184582 299.545191 
L 294.594429 299.43981 
L 297.486245 299.33443 
L 299.896092 299.229049 
L 301.823969 299.193922 
L 304.233816 299.123669 
L 305.197754 298.983161 
L 311.945325 298.877781 
L 312.909264 298.7724 
L 318.692896 298.66702 
L 323.03062 298.456259 
L 326.404405 298.350878 
L 328.332282 298.140117 
L 331.706068 298.034737 
L 332.670006 297.859102 
L 335.079853 297.788849 
L 339.899547 297.718595 
L 341.827424 297.542961 
L 343.755301 297.507834 
L 345.201209 297.402453 
L 347.129087 297.226819 
L 351.94878 296.980931 
L 356.768473 296.875551 
L 361.106197 296.66479 
L 362.552105 296.629663 
L 363.516044 296.489155 
L 365.925891 296.383775 
L 366.889829 296.313521 
L 367.853768 296.243267 
L 368.817707 296.173014 
L 373.155431 296.10276 
L 374.601339 295.997379 
L 387.614511 295.154335 
L 390.024358 295.048955 
L 392.434204 294.978701 
L 399.181775 294.87332 
L 400.145714 294.732813 
L 406.893284 294.627432 
L 411.712978 294.381544 
L 412.676916 294.346418 
L 413.640855 294.241037 
L 416.050702 294.135657 
L 418.460548 294.065403 
L 420.870395 293.960022 
L 423.280242 293.889769 
L 427.617966 293.784388 
L 430.509782 293.679008 
L 437.257353 293.573627 
L 442.559015 293.292612 
L 444.486893 293.222359 
L 445.932801 293.116978 
L 452.680371 293.011597 
L 455.572187 292.906217 
L 464.247635 292.800836 
L 466.175513 292.76571 
L 471.959145 292.695456 
L 472.923084 292.625202 
L 479.670654 292.519822 
L 481.598532 292.484695 
L 494.129734 292.379314 
L 495.575642 292.238807 
L 517.264263 292.133426 
L 519.674109 292.063173 
L 532.205312 291.992919 
L 533.169251 291.922665 
L 535.579097 291.852411 
L 537.025005 291.711904 
L 539.916821 291.606524 
L 543.290607 291.466016 
L 547.628331 291.360636 
L 550.038177 291.290382 
L 553.411963 291.185001 
L 557.267718 291.009367 
L 559.677564 290.903987 
L 561.605442 290.86886 
L 565.943166 290.763479 
L 567.871043 290.728352 
L 574.136644 290.622972 
L 576.064522 290.587845 
L 578.474368 290.482464 
L 581.366184 290.377084 
L 584.73997 290.30683 
L 585.703908 290.236577 
L 597.271173 290.131196 
L 603.536774 289.779928 
L 605.946621 289.709674 
L 606.910559 289.604293 
L 607.874498 289.53404 
L 611.730253 289.428659 
L 614.622069 289.323279 
L 619.441762 289.217898 
L 621.851609 288.97201 
L 626.671302 288.866629 
L 627.635241 288.761249 
L 632.454934 288.655868 
L 634.864781 288.585615 
L 640.166444 288.550488 
L 641.130382 288.445107 
L 646.432045 288.339727 
L 647.395984 288.269473 
L 657.999309 288.164093 
L 660.891125 288.058712 
L 668.120665 287.953331 
L 670.048542 287.918205 
L 674.386266 287.847951 
L 675.350205 287.74257 
L 681.615807 287.63719 
L 684.025653 287.566936 
L 692.701101 287.461556 
L 694.147009 287.356175 
L 695.592917 287.250795 
L 697.038825 287.145414 
L 704.268365 287.040033 
L 707.160181 286.934653 
L 720.173353 286.829272 
L 724.511078 286.618511 
L 730.29471 286.513131 
L 731.258648 286.40775 
L 738.488188 286.337497 
L 739.452127 286.267243 
L 744.75379 286.161862 
L 747.163636 286.091609 
L 747.163636 286.091609 
" clip-path="url(#pc8fcc3683d)" style="fill: none; stroke: #ff7f0e; stroke-width: 1.5; stroke-linecap: square"/>
   </g>
   <g id="patch_3">
    <path d="M 108 320.4 
L 108 43.2 
" style="fill: none; stroke: #a9a9a9; stroke-width: 0.8; stroke-linejoin: miter; stroke-linecap: square"/>
   </g>
   <g id="patch_4">
    <path d="M 777.6 320.4 
L 777.6 43.2 
" style="fill: none"/>
   </g>
   <g id="patch_5">
    <path d="M 108 320.4 
L 777.6 320.4 
" style="fill: none; stroke: #a9a9a9; stroke-width: 0.8; stroke-linejoin: miter; stroke-linecap: square"/>
   </g>
   <g id="patch_6">
    <path d="M 108 43.2 
L 777.6 43.2 
" style="fill: none"/>
   </g>
   <g id="text_19">
    <!-- get_subscribe history -->
    <g style="fill: #a9a9a9" transform="translate(378.6075 37.2) scale(0.12 -0.12)">
     <defs>
      <path id="DejaVuSans-67" d="M 2906 1791 
Q 2906 2416 2648 2759 
Q 2391 3103 1925 3103 
Q 1463 3103 1205 2759 
Q 947 2416 947 1791 
Q 947 1169 1205 825 
Q 1463 481 1925 481 
Q 2391 481 2648 825 
Q 2906 1169 2906 1791 
z
M 3481 434 
Q 3481 -459 3084 -895 
Q 2688 -1331 1869 -1331 
Q 1566 -1331 1297 -1286 
Q 1028 -1241 775 -1147 
L 775 -588 
Q 1028 -725 1275 -790 
Q 1522 -856 1778 -856 
Q 2344 -856 2625 -561 
Q 2906 -266 2906 331 
L 2906 616 
Q 2728 306 2450 153 
Q 2172 0 1784 0 
Q 1141 0 747 490 
Q 353 981 353 1791 
Q 353 2603 747 3093 
Q 1141 3584 1784 3584 
Q 2172 3584 2450 3431 
Q 2728 3278 2906 2969 
L 2906 3500 
L 3481 3500 
L 3481 434 
z
" transform="scale(0.015625)"/>
      <path id="DejaVuSans-65" d="M 3597 1894 
L 3597 1613 
L 953 1613 
Q 991 1019 1311 708 
Q 1631 397 2203 397 
Q 2534 397 2845 478 
Q 3156 559 3463 722 
L 3463 178 
Q 3153 47 2828 -22 
Q 2503 -91 2169 -91 
Q 1331 -91 842 396 
Q 353 884 353 1716 
Q 353 2575 817 3079 
Q 1281 3584 2069 3584 
Q 2775 3584 3186 3129 
Q 3597 2675 3597 1894 
z
M 3022 2063 
Q 3016 2534 2758 2815 
Q 2500 3097 2075 3097 
Q 1594 3097 1305 2825 
Q 1016 2553 972 2059 
L 3022 2063 
z
" transform="scale(0.015625)"/>
      <path id="DejaVuSans-74" d="M 1172 4494 
L 1172 3500 
L 2356 3500 
L 2356 3053 
L 1172 3053 
L 1172 1153 
Q 1172 725 1289 603 
Q 1406 481 1766 481 
L 2356 481 
L 2356 0 
L 1766 0 
Q 1100 0 847 248 
Q 594 497 594 1153 
L 594 3053 
L 172 3053 
L 172 3500 
L 594 3500 
L 594 4494 
L 1172 4494 
z
" transform="scale(0.015625)"/>
      <path id="DejaVuSans-5f" d="M 3263 -1063 
L 3263 -1509 
L -63 -1509 
L -63 -1063 
L 3263 -1063 
z
" transform="scale(0.015625)"/>
      <path id="DejaVuSans-73" d="M 2834 3397 
L 2834 2853 
Q 2591 2978 2328 3040 
Q 2066 3103 1784 3103 
Q 1356 3103 1142 2972 
Q 928 2841 928 2578 
Q 928 2378 1081 2264 
Q 1234 2150 1697 2047 
L 1894 2003 
Q 2506 1872 2764 1633 
Q 3022 1394 3022 966 
Q 3022 478 2636 193 
Q 2250 -91 1575 -91 
Q 1294 -91 989 -36 
Q 684 19 347 128 
L 347 722 
Q 666 556 975 473 
Q 1284 391 1588 391 
Q 1994 391 2212 530 
Q 2431 669 2431 922 
Q 2431 1156 2273 1281 
Q 2116 1406 1581 1522 
L 1381 1569 
Q 847 1681 609 1914 
Q 372 2147 372 2553 
Q 372 3047 722 3315 
Q 1072 3584 1716 3584 
Q 2034 3584 2315 3537 
Q 2597 3491 2834 3397 
z
" transform="scale(0.015625)"/>
      <path id="DejaVuSans-75" d="M 544 1381 
L 544 3500 
L 1119 3500 
L 1119 1403 
Q 1119 906 1312 657 
Q 1506 409 1894 409 
Q 2359 409 2629 706 
Q 2900 1003 2900 1516 
L 2900 3500 
L 3475 3500 
L 3475 0 
L 2900 0 
L 2900 538 
Q 2691 219 2414 64 
Q 2138 -91 1772 -91 
Q 1169 -91 856 284 
Q 544 659 544 1381 
z
M 1991 3584 
L 1991 3584 
z
" transform="scale(0.015625)"/>
      <path id="DejaVuSans-62" d="M 3116 1747 
Q 3116 2381 2855 2742 
Q 2594 3103 2138 3103 
Q 1681 3103 1420 2742 
Q 1159 2381 1159 1747 
Q 1159 1113 1420 752 
Q 1681 391 2138 391 
Q 2594 391 2855 752 
Q 3116 1113 3116 1747 
z
M 1159 2969 
Q 1341 3281 1617 3432 
Q 1894 3584 2278 3584 
Q 2916 3584 3314 3078 
Q 3713 2572 3713 1747 
Q 3713 922 3314 415 
Q 2916 -91 2278 -91 
Q 1894 -91 1617 61 
Q 1341 213 1159 525 
L 1159 0 
L 581 0 
L 581 4863 
L 1159 4863 
L 1159 2969 
z
" transform="scale(0.015625)"/>
      <path id="DejaVuSans-63" d="M 3122 3366 
L 3122 2828 
Q 2878 2963 2633 3030 
Q 2388 3097 2138 3097 
Q 1578 3097 1268 2742 
Q 959 2388 959 1747 
Q 959 1106 1268 751 
Q 1578 397 2138 397 
Q 2388 397 2633 464 
Q 2878 531 3122 666 
L 3122 134 
Q 2881 22 2623 -34 
Q 2366 -91 2075 -91 
Q 1284 -91 818 406 
Q 353 903 353 1747 
Q 353 2603 823 3093 
Q 1294 3584 2113 3584 
Q 2378 3584 2631 3529 
Q 2884 3475 3122 3366 
z
" transform="scale(0.015625)"/>
      <path id="DejaVuSans-72" d="M 2631 2963 
Q 2534 3019 2420 3045 
Q 2306 3072 2169 3072 
Q 1681 3072 1420 2755 
Q 1159 2438 1159 1844 
L 1159 0 
L 581 0 
L 581 3500 
L 1159 3500 
L 1159 2956 
Q 1341 3275 1631 3429 
Q 1922 3584 2338 3584 
Q 2397 3584 2469 3576 
Q 2541 3569 2628 3553 
L 2631 2963 
z
" transform="scale(0.015625)"/>
      <path id="DejaVuSans-69" d="M 603 3500 
L 1178 3500 
L 1178 0 
L 603 0 
L 603 3500 
z
M 603 4863 
L 1178 4863 
L 1178 4134 
L 603 4134 
L 603 4863 
z
" transform="scale(0.015625)"/>
      <path id="DejaVuSans-20" transform="scale(0.015625)"/>
      <path id="DejaVuSans-68" d="M 3513 2113 
L 3513 0 
L 2938 0 
L 2938 2094 
Q 2938 2591 2744 2837 
Q 2550 3084 2163 3084 
Q 1697 3084 1428 2787 
Q 1159 2491 1159 1978 
L 1159 0 
L 581 0 
L 581 4863 
L 1159 4863 
L 1159 2956 
Q 1366 3272 1645 3428 
Q 1925 3584 2291 3584 
Q 2894 3584 3203 3211 
Q 3513 2838 3513 2113 
z
" transform="scale(0.015625)"/>
      <path id="DejaVuSans-6f" d="M 1959 3097 
Q 1497 3097 1228 2736 
Q 959 2375 959 1747 
Q 959 1119 1226 758 
Q 1494 397 1959 397 
Q 2419 397 2687 759 
Q 2956 1122 2956 1747 
Q 2956 2369 2687 2733 
Q 2419 3097 1959 3097 
z
M 1959 3584 
Q 2709 3584 3137 3096 
Q 3566 2609 3566 1747 
Q 3566 888 3137 398 
Q 2709 -91 1959 -91 
Q 1206 -91 779 398 
Q 353 888 353 1747 
Q 353 2609 779 3096 
Q 1206 3584 1959 3584 
z
" transform="scale(0.015625)"/>
      <path id="DejaVuSans-79" d="M 2059 -325 
Q 1816 -950 1584 -1140 
Q 1353 -1331 966 -1331 
L 506 -1331 
L 506 -850 
L 844 -850 
Q 1081 -850 1212 -737 
Q 1344 -625 1503 -206 
L 1606 56 
L 191 3500 
L 800 3500 
L 1894 763 
L 2988 3500 
L 3597 3500 
L 2059 -325 
z
" transform="scale(0.015625)"/>
     </defs>
     <use xlink:href="#DejaVuSans-67"/>
     <use xlink:href="#DejaVuSans-65" transform="translate(63.476562 0)"/>
     <use xlink:href="#DejaVuSans-74" transform="translate(125 0)"/>
     <use xlink:href="#DejaVuSans-5f" transform="translate(164.208984 0)"/>
     <use xlink:href="#DejaVuSans-73" transform="translate(214.208984 0)"/>
     <use xlink:href="#DejaVuSans-75" transform="translate(266.308594 0)"/>
     <use xlink:href="#DejaVuSans-62" transform="translate(329.6875 0)"/>
     <use xlink:href="#DejaVuSans-73" transform="translate(393.164062 0)"/>
     <use xlink:href="#DejaVuSans-63" transform="translate(445.263672 0)"/>
     <use xlink:href="#DejaVuSans-72" transform="translate(500.244141 0)"/>
     <use xlink:href="#DejaVuSans-69" transform="translate(541.357422 0)"/>
     <use xlink:href="#DejaVuSans-62" transform="translate(569.140625 0)"/>
     <use xlink:href="#DejaVuSans-65" transform="translate(632.617188 0)"/>
     <use xlink:href="#DejaVuSans-20" transform="translate(694.140625 0)"/>
     <use xlink:href="#DejaVuSans-68" transform="translate(725.927734 0)"/>
     <use xlink:href="#DejaVuSans-69" transform="translate(789.306641 0)"/>
     <use xlink:href="#DejaVuSans-73" transform="translate(817.089844 0)"/>
     <use xlink:href="#DejaVuSans-74" transform="translate(869.189453 0)"/>
     <use xlink:href="#DejaVuSans-6f" transform="translate(908.398438 0)"/>
     <use xlink:href="#DejaVuSans-72" transform="translate(969.580078 0)"/>
     <use xlink:href="#DejaVuSans-79" transform="translate(1010.693359 0)"/>
    </g>
   </g>
   <g id="legend_1">
    <g id="line2d_39">
     <path d="M 815.08 328.498438 
L 825.08 328.498438 
L 835.08 328.498438 
" style="fill: none; stroke: #1f77b4; stroke-width: 1.5; stroke-linecap: square"/>
    </g>
    <g id="text_20">
     <!-- star -->
     <g style="fill: #a9a9a9" transform="translate(843.08 331.998438) scale(0.1 -0.1)">
      <defs>
       <path id="DejaVuSans-61" d="M 2194 1759 
Q 1497 1759 1228 1600 
Q 959 1441 959 1056 
Q 959 750 1161 570 
Q 1363 391 1709 391 
Q 2188 391 2477 730 
Q 2766 1069 2766 1631 
L 2766 1759 
L 2194 1759 
z
M 3341 1997 
L 3341 0 
L 2766 0 
L 2766 531 
Q 2569 213 2275 61 
Q 1981 -91 1556 -91 
Q 1019 -91 701 211 
Q 384 513 384 1019 
Q 384 1609 779 1909 
Q 1175 2209 1959 2209 
L 2766 2209 
L 2766 2266 
Q 2766 2663 2505 2880 
Q 2244 3097 1772 3097 
Q 1472 3097 1187 3025 
Q 903 2953 641 2809 
L 641 3341 
Q 956 3463 1253 3523 
Q 1550 3584 1831 3584 
Q 2591 3584 2966 3190 
Q 3341 2797 3341 1997 
z
" transform="scale(0.015625)"/>
      </defs>
      <use xlink:href="#DejaVuSans-73"/>
      <use xlink:href="#DejaVuSans-74" transform="translate(52.099609 0)"/>
      <use xlink:href="#DejaVuSans-61" transform="translate(91.308594 0)"/>
      <use xlink:href="#DejaVuSans-72" transform="translate(152.587891 0)"/>
     </g>
    </g>
    <g id="line2d_40">
     <path d="M 815.08 343.176562 
L 825.08 343.176562 
L 835.08 343.176562 
" style="fill: none; stroke: #ff7f0e; stroke-width: 1.5; stroke-linecap: square"/>
    </g>
    <g id="text_21">
     <!-- fork -->
     <g style="fill: #a9a9a9" transform="translate(843.08 346.676562) scale(0.1 -0.1)">
      <defs>
       <path id="DejaVuSans-66" d="M 2375 4863 
L 2375 4384 
L 1825 4384 
Q 1516 4384 1395 4259 
Q 1275 4134 1275 3809 
L 1275 3500 
L 2222 3500 
L 2222 3053 
L 1275 3053 
L 1275 0 
L 697 0 
L 697 3053 
L 147 3053 
L 147 3500 
L 697 3500 
L 697 3744 
Q 697 4328 969 4595 
Q 1241 4863 1831 4863 
L 2375 4863 
z
" transform="scale(0.015625)"/>
       <path id="DejaVuSans-6b" d="M 581 4863 
L 1159 4863 
L 1159 1991 
L 2875 3500 
L 3609 3500 
L 1753 1863 
L 3688 0 
L 2938 0 
L 1159 1709 
L 1159 0 
L 581 0 
L 581 4863 
z
" transform="scale(0.015625)"/>
      </defs>
      <use xlink:href="#DejaVuSans-66"/>
      <use xlink:href="#DejaVuSans-6f" transform="translate(35.205078 0)"/>
      <use xlink:href="#DejaVuSans-72" transform="translate(96.386719 0)"/>
      <use xlink:href="#DejaVuSans-6b" transform="translate(137.5 0)"/>
     </g>
    </g>
   </g>
  </g>
 </g>
 <defs>
  <clipPath id="pc8fcc3683d">
   <rect x="108" y="43.2" width="669.6" height="277.2"/>
  </clipPath>
 </defs>
</svg>
