<?xml version="1.0" encoding="utf-8" standalone="no"?>
<!DOCTYPE svg PUBLIC "-//W3C//DTD SVG 1.1//EN"
  "http://www.w3.org/Graphics/SVG/1.1/DTD/svg11.dtd">
<svg xmlns:xlink="http://www.w3.org/1999/xlink" width="864pt" height="360pt" viewBox="0 0 864 360" xmlns="http://www.w3.org/2000/svg" version="1.1">
 <metadata>
  <rdf:RDF xmlns:dc="http://purl.org/dc/elements/1.1/" xmlns:cc="http://creativecommons.org/ns#" xmlns:rdf="http://www.w3.org/1999/02/22-rdf-syntax-ns#">
   <cc:Work>
    <dc:type rdf:resource="http://purl.org/dc/dcmitype/StillImage"/>
    <dc:date>2024-03-07T20:05:07.895665</dc:date>
    <dc:format>image/svg+xml</dc:format>
    <dc:creator>
     <cc:Agent>
      <dc:title>Matplotlib v3.8.3, https://matplotlib.org/</dc:title>
     </cc:Agent>
    </dc:creator>
   </cc:Work>
  </rdf:RDF>
 </metadata>
 <defs>
  <style type="text/css">*{stroke-linejoin: round; stroke-linecap: butt}</style>
 </defs>
 <g id="figure_1">
  <g id="patch_1">
   <path d="M 0 360 
L 864 360 
L 864 0 
L 0 0 
L 0 360 
z
" style="fill: none; opacity: 0"/>
  </g>
  <g id="axes_1">
   <g id="patch_2">
    <path d="M 108 320.4 
L 777.6 320.4 
L 777.6 43.2 
L 108 43.2 
L 108 320.4 
z
" style="fill: none; opacity: 0"/>
   </g>
   <g id="matplotlib.axis_1">
    <g id="xtick_1">
     <g id="line2d_1">
      <path d="M 163.243431 320.4 
L 163.243431 43.2 
" clip-path="url(#pb4885c32a4)" style="fill: none; stroke-dasharray: 5.12,1.28,0.8,1.28; stroke-dashoffset: 0; stroke: #b0b0b0; stroke-width: 0.8"/>
     </g>
     <g id="line2d_2">
      <defs>
       <path id="m95091f198e" d="M 0 0 
L 0 3.5 
" style="stroke: #a9a9a9; stroke-width: 0.8"/>
      </defs>
      <g>
       <use xlink:href="#m95091f198e" x="163.243431" y="320.4" style="fill: #a9a9a9; stroke: #a9a9a9; stroke-width: 0.8"/>
      </g>
     </g>
     <g id="text_1">
      <!-- 2021-09 -->
      <g style="fill: #a9a9a9" transform="translate(142.352025 334.998438) scale(0.1 -0.1)">
       <defs>
        <path id="DejaVuSans-32" d="M 1228 531 
L 3431 531 
L 3431 0 
L 469 0 
L 469 531 
Q 828 903 1448 1529 
Q 2069 2156 2228 2338 
Q 2531 2678 2651 2914 
Q 2772 3150 2772 3378 
Q 2772 3750 2511 3984 
Q 2250 4219 1831 4219 
Q 1534 4219 1204 4116 
Q 875 4013 500 3803 
L 500 4441 
Q 881 4594 1212 4672 
Q 1544 4750 1819 4750 
Q 2544 4750 2975 4387 
Q 3406 4025 3406 3419 
Q 3406 3131 3298 2873 
Q 3191 2616 2906 2266 
Q 2828 2175 2409 1742 
Q 1991 1309 1228 531 
z
" transform="scale(0.015625)"/>
        <path id="DejaVuSans-30" d="M 2034 4250 
Q 1547 4250 1301 3770 
Q 1056 3291 1056 2328 
Q 1056 1369 1301 889 
Q 1547 409 2034 409 
Q 2525 409 2770 889 
Q 3016 1369 3016 2328 
Q 3016 3291 2770 3770 
Q 2525 4250 2034 4250 
z
M 2034 4750 
Q 2819 4750 3233 4129 
Q 3647 3509 3647 2328 
Q 3647 1150 3233 529 
Q 2819 -91 2034 -91 
Q 1250 -91 836 529 
Q 422 1150 422 2328 
Q 422 3509 836 4129 
Q 1250 4750 2034 4750 
z
" transform="scale(0.015625)"/>
        <path id="DejaVuSans-31" d="M 794 531 
L 1825 531 
L 1825 4091 
L 703 3866 
L 703 4441 
L 1819 4666 
L 2450 4666 
L 2450 531 
L 3481 531 
L 3481 0 
L 794 0 
L 794 531 
z
" transform="scale(0.015625)"/>
        <path id="DejaVuSans-2d" d="M 313 2009 
L 1997 2009 
L 1997 1497 
L 313 1497 
L 313 2009 
z
" transform="scale(0.015625)"/>
        <path id="DejaVuSans-39" d="M 703 97 
L 703 672 
Q 941 559 1184 500 
Q 1428 441 1663 441 
Q 2288 441 2617 861 
Q 2947 1281 2994 2138 
Q 2813 1869 2534 1725 
Q 2256 1581 1919 1581 
Q 1219 1581 811 2004 
Q 403 2428 403 3163 
Q 403 3881 828 4315 
Q 1253 4750 1959 4750 
Q 2769 4750 3195 4129 
Q 3622 3509 3622 2328 
Q 3622 1225 3098 567 
Q 2575 -91 1691 -91 
Q 1453 -91 1209 -44 
Q 966 3 703 97 
z
M 1959 2075 
Q 2384 2075 2632 2365 
Q 2881 2656 2881 3163 
Q 2881 3666 2632 3958 
Q 2384 4250 1959 4250 
Q 1534 4250 1286 3958 
Q 1038 3666 1038 3163 
Q 1038 2656 1286 2365 
Q 1534 2075 1959 2075 
z
" transform="scale(0.015625)"/>
       </defs>
       <use xlink:href="#DejaVuSans-32"/>
       <use xlink:href="#DejaVuSans-30" x="63.623047"/>
       <use xlink:href="#DejaVuSans-32" x="127.246094"/>
       <use xlink:href="#DejaVuSans-31" x="190.869141"/>
       <use xlink:href="#DejaVuSans-2d" x="254.492188"/>
       <use xlink:href="#DejaVuSans-30" x="290.576172"/>
       <use xlink:href="#DejaVuSans-39" x="354.199219"/>
      </g>
     </g>
    </g>
    <g id="xtick_2">
     <g id="line2d_3">
      <path d="M 240.845027 320.4 
L 240.845027 43.2 
" clip-path="url(#pb4885c32a4)" style="fill: none; stroke-dasharray: 5.12,1.28,0.8,1.28; stroke-dashoffset: 0; stroke: #b0b0b0; stroke-width: 0.8"/>
     </g>
     <g id="line2d_4">
      <g>
       <use xlink:href="#m95091f198e" x="240.845027" y="320.4" style="fill: #a9a9a9; stroke: #a9a9a9; stroke-width: 0.8"/>
      </g>
     </g>
     <g id="text_2">
      <!-- 2022-01 -->
      <g style="fill: #a9a9a9" transform="translate(219.953621 334.998438) scale(0.1 -0.1)">
       <use xlink:href="#DejaVuSans-32"/>
       <use xlink:href="#DejaVuSans-30" x="63.623047"/>
       <use xlink:href="#DejaVuSans-32" x="127.246094"/>
       <use xlink:href="#DejaVuSans-32" x="190.869141"/>
       <use xlink:href="#DejaVuSans-2d" x="254.492188"/>
       <use xlink:href="#DejaVuSans-30" x="290.576172"/>
       <use xlink:href="#DejaVuSans-31" x="354.199219"/>
      </g>
     </g>
    </g>
    <g id="xtick_3">
     <g id="line2d_5">
      <path d="M 317.174466 320.4 
L 317.174466 43.2 
" clip-path="url(#pb4885c32a4)" style="fill: none; stroke-dasharray: 5.12,1.28,0.8,1.28; stroke-dashoffset: 0; stroke: #b0b0b0; stroke-width: 0.8"/>
     </g>
     <g id="line2d_6">
      <g>
       <use xlink:href="#m95091f198e" x="317.174466" y="320.4" style="fill: #a9a9a9; stroke: #a9a9a9; stroke-width: 0.8"/>
      </g>
     </g>
     <g id="text_3">
      <!-- 2022-05 -->
      <g style="fill: #a9a9a9" transform="translate(296.283059 334.998438) scale(0.1 -0.1)">
       <defs>
        <path id="DejaVuSans-35" d="M 691 4666 
L 3169 4666 
L 3169 4134 
L 1269 4134 
L 1269 2991 
Q 1406 3038 1543 3061 
Q 1681 3084 1819 3084 
Q 2600 3084 3056 2656 
Q 3513 2228 3513 1497 
Q 3513 744 3044 326 
Q 2575 -91 1722 -91 
Q 1428 -91 1123 -41 
Q 819 9 494 109 
L 494 744 
Q 775 591 1075 516 
Q 1375 441 1709 441 
Q 2250 441 2565 725 
Q 2881 1009 2881 1497 
Q 2881 1984 2565 2268 
Q 2250 2553 1709 2553 
Q 1456 2553 1204 2497 
Q 953 2441 691 2322 
L 691 4666 
z
" transform="scale(0.015625)"/>
       </defs>
       <use xlink:href="#DejaVuSans-32"/>
       <use xlink:href="#DejaVuSans-30" x="63.623047"/>
       <use xlink:href="#DejaVuSans-32" x="127.246094"/>
       <use xlink:href="#DejaVuSans-32" x="190.869141"/>
       <use xlink:href="#DejaVuSans-2d" x="254.492188"/>
       <use xlink:href="#DejaVuSans-30" x="290.576172"/>
       <use xlink:href="#DejaVuSans-35" x="354.199219"/>
      </g>
     </g>
    </g>
    <g id="xtick_4">
     <g id="line2d_7">
      <path d="M 395.41214 320.4 
L 395.41214 43.2 
" clip-path="url(#pb4885c32a4)" style="fill: none; stroke-dasharray: 5.12,1.28,0.8,1.28; stroke-dashoffset: 0; stroke: #b0b0b0; stroke-width: 0.8"/>
     </g>
     <g id="line2d_8">
      <g>
       <use xlink:href="#m95091f198e" x="395.41214" y="320.4" style="fill: #a9a9a9; stroke: #a9a9a9; stroke-width: 0.8"/>
      </g>
     </g>
     <g id="text_4">
      <!-- 2022-09 -->
      <g style="fill: #a9a9a9" transform="translate(374.520734 334.998438) scale(0.1 -0.1)">
       <use xlink:href="#DejaVuSans-32"/>
       <use xlink:href="#DejaVuSans-30" x="63.623047"/>
       <use xlink:href="#DejaVuSans-32" x="127.246094"/>
       <use xlink:href="#DejaVuSans-32" x="190.869141"/>
       <use xlink:href="#DejaVuSans-2d" x="254.492188"/>
       <use xlink:href="#DejaVuSans-30" x="290.576172"/>
       <use xlink:href="#DejaVuSans-39" x="354.199219"/>
      </g>
     </g>
    </g>
    <g id="xtick_5">
     <g id="line2d_9">
      <path d="M 473.013736 320.4 
L 473.013736 43.2 
" clip-path="url(#pb4885c32a4)" style="fill: none; stroke-dasharray: 5.12,1.28,0.8,1.28; stroke-dashoffset: 0; stroke: #b0b0b0; stroke-width: 0.8"/>
     </g>
     <g id="line2d_10">
      <g>
       <use xlink:href="#m95091f198e" x="473.013736" y="320.4" style="fill: #a9a9a9; stroke: #a9a9a9; stroke-width: 0.8"/>
      </g>
     </g>
     <g id="text_5">
      <!-- 2023-01 -->
      <g style="fill: #a9a9a9" transform="translate(452.12233 334.998438) scale(0.1 -0.1)">
       <defs>
        <path id="DejaVuSans-33" d="M 2597 2516 
Q 3050 2419 3304 2112 
Q 3559 1806 3559 1356 
Q 3559 666 3084 287 
Q 2609 -91 1734 -91 
Q 1441 -91 1130 -33 
Q 819 25 488 141 
L 488 750 
Q 750 597 1062 519 
Q 1375 441 1716 441 
Q 2309 441 2620 675 
Q 2931 909 2931 1356 
Q 2931 1769 2642 2001 
Q 2353 2234 1838 2234 
L 1294 2234 
L 1294 2753 
L 1863 2753 
Q 2328 2753 2575 2939 
Q 2822 3125 2822 3475 
Q 2822 3834 2567 4026 
Q 2313 4219 1838 4219 
Q 1578 4219 1281 4162 
Q 984 4106 628 3988 
L 628 4550 
Q 988 4650 1302 4700 
Q 1616 4750 1894 4750 
Q 2613 4750 3031 4423 
Q 3450 4097 3450 3541 
Q 3450 3153 3228 2886 
Q 3006 2619 2597 2516 
z
" transform="scale(0.015625)"/>
       </defs>
       <use xlink:href="#DejaVuSans-32"/>
       <use xlink:href="#DejaVuSans-30" x="63.623047"/>
       <use xlink:href="#DejaVuSans-32" x="127.246094"/>
       <use xlink:href="#DejaVuSans-33" x="190.869141"/>
       <use xlink:href="#DejaVuSans-2d" x="254.492188"/>
       <use xlink:href="#DejaVuSans-30" x="290.576172"/>
       <use xlink:href="#DejaVuSans-31" x="354.199219"/>
      </g>
     </g>
    </g>
    <g id="xtick_6">
     <g id="line2d_11">
      <path d="M 549.343175 320.4 
L 549.343175 43.2 
" clip-path="url(#pb4885c32a4)" style="fill: none; stroke-dasharray: 5.12,1.28,0.8,1.28; stroke-dashoffset: 0; stroke: #b0b0b0; stroke-width: 0.8"/>
     </g>
     <g id="line2d_12">
      <g>
       <use xlink:href="#m95091f198e" x="549.343175" y="320.4" style="fill: #a9a9a9; stroke: #a9a9a9; stroke-width: 0.8"/>
      </g>
     </g>
     <g id="text_6">
      <!-- 2023-05 -->
      <g style="fill: #a9a9a9" transform="translate(528.451768 334.998438) scale(0.1 -0.1)">
       <use xlink:href="#DejaVuSans-32"/>
       <use xlink:href="#DejaVuSans-30" x="63.623047"/>
       <use xlink:href="#DejaVuSans-32" x="127.246094"/>
       <use xlink:href="#DejaVuSans-33" x="190.869141"/>
       <use xlink:href="#DejaVuSans-2d" x="254.492188"/>
       <use xlink:href="#DejaVuSans-30" x="290.576172"/>
       <use xlink:href="#DejaVuSans-35" x="354.199219"/>
      </g>
     </g>
    </g>
    <g id="xtick_7">
     <g id="line2d_13">
      <path d="M 627.580849 320.4 
L 627.580849 43.2 
" clip-path="url(#pb4885c32a4)" style="fill: none; stroke-dasharray: 5.12,1.28,0.8,1.28; stroke-dashoffset: 0; stroke: #b0b0b0; stroke-width: 0.8"/>
     </g>
     <g id="line2d_14">
      <g>
       <use xlink:href="#m95091f198e" x="627.580849" y="320.4" style="fill: #a9a9a9; stroke: #a9a9a9; stroke-width: 0.8"/>
      </g>
     </g>
     <g id="text_7">
      <!-- 2023-09 -->
      <g style="fill: #a9a9a9" transform="translate(606.689443 334.998438) scale(0.1 -0.1)">
       <use xlink:href="#DejaVuSans-32"/>
       <use xlink:href="#DejaVuSans-30" x="63.623047"/>
       <use xlink:href="#DejaVuSans-32" x="127.246094"/>
       <use xlink:href="#DejaVuSans-33" x="190.869141"/>
       <use xlink:href="#DejaVuSans-2d" x="254.492188"/>
       <use xlink:href="#DejaVuSans-30" x="290.576172"/>
       <use xlink:href="#DejaVuSans-39" x="354.199219"/>
      </g>
     </g>
    </g>
    <g id="xtick_8">
     <g id="line2d_15">
      <path d="M 705.182445 320.4 
L 705.182445 43.2 
" clip-path="url(#pb4885c32a4)" style="fill: none; stroke-dasharray: 5.12,1.28,0.8,1.28; stroke-dashoffset: 0; stroke: #b0b0b0; stroke-width: 0.8"/>
     </g>
     <g id="line2d_16">
      <g>
       <use xlink:href="#m95091f198e" x="705.182445" y="320.4" style="fill: #a9a9a9; stroke: #a9a9a9; stroke-width: 0.8"/>
      </g>
     </g>
     <g id="text_8">
      <!-- 2024-01 -->
      <g style="fill: #a9a9a9" transform="translate(684.291039 334.998438) scale(0.1 -0.1)">
       <defs>
        <path id="DejaVuSans-34" d="M 2419 4116 
L 825 1625 
L 2419 1625 
L 2419 4116 
z
M 2253 4666 
L 3047 4666 
L 3047 1625 
L 3713 1625 
L 3713 1100 
L 3047 1100 
L 3047 0 
L 2419 0 
L 2419 1100 
L 313 1100 
L 313 1709 
L 2253 4666 
z
" transform="scale(0.015625)"/>
       </defs>
       <use xlink:href="#DejaVuSans-32"/>
       <use xlink:href="#DejaVuSans-30" x="63.623047"/>
       <use xlink:href="#DejaVuSans-32" x="127.246094"/>
       <use xlink:href="#DejaVuSans-34" x="190.869141"/>
       <use xlink:href="#DejaVuSans-2d" x="254.492188"/>
       <use xlink:href="#DejaVuSans-30" x="290.576172"/>
       <use xlink:href="#DejaVuSans-31" x="354.199219"/>
      </g>
     </g>
    </g>
   </g>
   <g id="matplotlib.axis_2">
    <g id="ytick_1">
     <g id="line2d_17">
      <path d="M 108 307.843941 
L 777.6 307.843941 
" clip-path="url(#pb4885c32a4)" style="fill: none; stroke-dasharray: 5.12,1.28,0.8,1.28; stroke-dashoffset: 0; stroke: #b0b0b0; stroke-width: 0.8"/>
     </g>
     <g id="line2d_18">
      <defs>
       <path id="m5942f47436" d="M 0 0 
L -3.5 0 
" style="stroke: #a9a9a9; stroke-width: 0.8"/>
      </defs>
      <g>
       <use xlink:href="#m5942f47436" x="108" y="307.843941" style="fill: #a9a9a9; stroke: #a9a9a9; stroke-width: 0.8"/>
      </g>
     </g>
     <g id="text_9">
      <!-- 0 -->
      <g style="fill: #a9a9a9" transform="translate(94.6375 311.643159) scale(0.1 -0.1)">
       <use xlink:href="#DejaVuSans-30"/>
      </g>
     </g>
    </g>
    <g id="ytick_2">
     <g id="line2d_19">
      <path d="M 108 272.691369 
L 777.6 272.691369 
" clip-path="url(#pb4885c32a4)" style="fill: none; stroke-dasharray: 5.12,1.28,0.8,1.28; stroke-dashoffset: 0; stroke: #b0b0b0; stroke-width: 0.8"/>
     </g>
     <g id="line2d_20">
      <g>
       <use xlink:href="#m5942f47436" x="108" y="272.691369" style="fill: #a9a9a9; stroke: #a9a9a9; stroke-width: 0.8"/>
      </g>
     </g>
     <g id="text_10">
      <!-- 800 -->
      <g style="fill: #a9a9a9" transform="translate(81.9125 276.490588) scale(0.1 -0.1)">
       <defs>
        <path id="DejaVuSans-38" d="M 2034 2216 
Q 1584 2216 1326 1975 
Q 1069 1734 1069 1313 
Q 1069 891 1326 650 
Q 1584 409 2034 409 
Q 2484 409 2743 651 
Q 3003 894 3003 1313 
Q 3003 1734 2745 1975 
Q 2488 2216 2034 2216 
z
M 1403 2484 
Q 997 2584 770 2862 
Q 544 3141 544 3541 
Q 544 4100 942 4425 
Q 1341 4750 2034 4750 
Q 2731 4750 3128 4425 
Q 3525 4100 3525 3541 
Q 3525 3141 3298 2862 
Q 3072 2584 2669 2484 
Q 3125 2378 3379 2068 
Q 3634 1759 3634 1313 
Q 3634 634 3220 271 
Q 2806 -91 2034 -91 
Q 1263 -91 848 271 
Q 434 634 434 1313 
Q 434 1759 690 2068 
Q 947 2378 1403 2484 
z
M 1172 3481 
Q 1172 3119 1398 2916 
Q 1625 2713 2034 2713 
Q 2441 2713 2670 2916 
Q 2900 3119 2900 3481 
Q 2900 3844 2670 4047 
Q 2441 4250 2034 4250 
Q 1625 4250 1398 4047 
Q 1172 3844 1172 3481 
z
" transform="scale(0.015625)"/>
       </defs>
       <use xlink:href="#DejaVuSans-38"/>
       <use xlink:href="#DejaVuSans-30" x="63.623047"/>
       <use xlink:href="#DejaVuSans-30" x="127.246094"/>
      </g>
     </g>
    </g>
    <g id="ytick_3">
     <g id="line2d_21">
      <path d="M 108 237.538797 
L 777.6 237.538797 
" clip-path="url(#pb4885c32a4)" style="fill: none; stroke-dasharray: 5.12,1.28,0.8,1.28; stroke-dashoffset: 0; stroke: #b0b0b0; stroke-width: 0.8"/>
     </g>
     <g id="line2d_22">
      <g>
       <use xlink:href="#m5942f47436" x="108" y="237.538797" style="fill: #a9a9a9; stroke: #a9a9a9; stroke-width: 0.8"/>
      </g>
     </g>
     <g id="text_11">
      <!-- 1600 -->
      <g style="fill: #a9a9a9" transform="translate(75.55 241.338016) scale(0.1 -0.1)">
       <defs>
        <path id="DejaVuSans-36" d="M 2113 2584 
Q 1688 2584 1439 2293 
Q 1191 2003 1191 1497 
Q 1191 994 1439 701 
Q 1688 409 2113 409 
Q 2538 409 2786 701 
Q 3034 994 3034 1497 
Q 3034 2003 2786 2293 
Q 2538 2584 2113 2584 
z
M 3366 4563 
L 3366 3988 
Q 3128 4100 2886 4159 
Q 2644 4219 2406 4219 
Q 1781 4219 1451 3797 
Q 1122 3375 1075 2522 
Q 1259 2794 1537 2939 
Q 1816 3084 2150 3084 
Q 2853 3084 3261 2657 
Q 3669 2231 3669 1497 
Q 3669 778 3244 343 
Q 2819 -91 2113 -91 
Q 1303 -91 875 529 
Q 447 1150 447 2328 
Q 447 3434 972 4092 
Q 1497 4750 2381 4750 
Q 2619 4750 2861 4703 
Q 3103 4656 3366 4563 
z
" transform="scale(0.015625)"/>
       </defs>
       <use xlink:href="#DejaVuSans-31"/>
       <use xlink:href="#DejaVuSans-36" x="63.623047"/>
       <use xlink:href="#DejaVuSans-30" x="127.246094"/>
       <use xlink:href="#DejaVuSans-30" x="190.869141"/>
      </g>
     </g>
    </g>
    <g id="ytick_4">
     <g id="line2d_23">
      <path d="M 108 202.386225 
L 777.6 202.386225 
" clip-path="url(#pb4885c32a4)" style="fill: none; stroke-dasharray: 5.12,1.28,0.8,1.28; stroke-dashoffset: 0; stroke: #b0b0b0; stroke-width: 0.8"/>
     </g>
     <g id="line2d_24">
      <g>
       <use xlink:href="#m5942f47436" x="108" y="202.386225" style="fill: #a9a9a9; stroke: #a9a9a9; stroke-width: 0.8"/>
      </g>
     </g>
     <g id="text_12">
      <!-- 2400 -->
      <g style="fill: #a9a9a9" transform="translate(75.55 206.185444) scale(0.1 -0.1)">
       <use xlink:href="#DejaVuSans-32"/>
       <use xlink:href="#DejaVuSans-34" x="63.623047"/>
       <use xlink:href="#DejaVuSans-30" x="127.246094"/>
       <use xlink:href="#DejaVuSans-30" x="190.869141"/>
      </g>
     </g>
    </g>
    <g id="ytick_5">
     <g id="line2d_25">
      <path d="M 108 167.233653 
L 777.6 167.233653 
" clip-path="url(#pb4885c32a4)" style="fill: none; stroke-dasharray: 5.12,1.28,0.8,1.28; stroke-dashoffset: 0; stroke: #b0b0b0; stroke-width: 0.8"/>
     </g>
     <g id="line2d_26">
      <g>
       <use xlink:href="#m5942f47436" x="108" y="167.233653" style="fill: #a9a9a9; stroke: #a9a9a9; stroke-width: 0.8"/>
      </g>
     </g>
     <g id="text_13">
      <!-- 3200 -->
      <g style="fill: #a9a9a9" transform="translate(75.55 171.032872) scale(0.1 -0.1)">
       <use xlink:href="#DejaVuSans-33"/>
       <use xlink:href="#DejaVuSans-32" x="63.623047"/>
       <use xlink:href="#DejaVuSans-30" x="127.246094"/>
       <use xlink:href="#DejaVuSans-30" x="190.869141"/>
      </g>
     </g>
    </g>
    <g id="ytick_6">
     <g id="line2d_27">
      <path d="M 108 132.081081 
L 777.6 132.081081 
" clip-path="url(#pb4885c32a4)" style="fill: none; stroke-dasharray: 5.12,1.28,0.8,1.28; stroke-dashoffset: 0; stroke: #b0b0b0; stroke-width: 0.8"/>
     </g>
     <g id="line2d_28">
      <g>
       <use xlink:href="#m5942f47436" x="108" y="132.081081" style="fill: #a9a9a9; stroke: #a9a9a9; stroke-width: 0.8"/>
      </g>
     </g>
     <g id="text_14">
      <!-- 4000 -->
      <g style="fill: #a9a9a9" transform="translate(75.55 135.8803) scale(0.1 -0.1)">
       <use xlink:href="#DejaVuSans-34"/>
       <use xlink:href="#DejaVuSans-30" x="63.623047"/>
       <use xlink:href="#DejaVuSans-30" x="127.246094"/>
       <use xlink:href="#DejaVuSans-30" x="190.869141"/>
      </g>
     </g>
    </g>
    <g id="ytick_7">
     <g id="line2d_29">
      <path d="M 108 96.928509 
L 777.6 96.928509 
" clip-path="url(#pb4885c32a4)" style="fill: none; stroke-dasharray: 5.12,1.28,0.8,1.28; stroke-dashoffset: 0; stroke: #b0b0b0; stroke-width: 0.8"/>
     </g>
     <g id="line2d_30">
      <g>
       <use xlink:href="#m5942f47436" x="108" y="96.928509" style="fill: #a9a9a9; stroke: #a9a9a9; stroke-width: 0.8"/>
      </g>
     </g>
     <g id="text_15">
      <!-- 4800 -->
      <g style="fill: #a9a9a9" transform="translate(75.55 100.727728) scale(0.1 -0.1)">
       <use xlink:href="#DejaVuSans-34"/>
       <use xlink:href="#DejaVuSans-38" x="63.623047"/>
       <use xlink:href="#DejaVuSans-30" x="127.246094"/>
       <use xlink:href="#DejaVuSans-30" x="190.869141"/>
      </g>
     </g>
    </g>
    <g id="ytick_8">
     <g id="line2d_31">
      <path d="M 108 61.775937 
L 777.6 61.775937 
" clip-path="url(#pb4885c32a4)" style="fill: none; stroke-dasharray: 5.12,1.28,0.8,1.28; stroke-dashoffset: 0; stroke: #b0b0b0; stroke-width: 0.8"/>
     </g>
     <g id="line2d_32">
      <g>
       <use xlink:href="#m5942f47436" x="108" y="61.775937" style="fill: #a9a9a9; stroke: #a9a9a9; stroke-width: 0.8"/>
      </g>
     </g>
     <g id="text_16">
      <!-- 5600 -->
      <g style="fill: #a9a9a9" transform="translate(75.55 65.575156) scale(0.1 -0.1)">
       <use xlink:href="#DejaVuSans-35"/>
       <use xlink:href="#DejaVuSans-36" x="63.623047"/>
       <use xlink:href="#DejaVuSans-30" x="127.246094"/>
       <use xlink:href="#DejaVuSans-30" x="190.869141"/>
      </g>
     </g>
    </g>
   </g>
   <g id="line2d_33">
    <path d="M 138.436364 307.712119 
L 142.252836 307.404534 
L 142.888914 307.140889 
L 144.79715 306.921186 
L 148.613622 306.174194 
L 152.430094 305.866609 
L 153.066173 305.559024 
L 153.702251 305.383261 
L 154.33833 304.592328 
L 154.974409 304.152921 
L 155.610487 302.790759 
L 156.246566 302.702877 
L 156.882645 302.219529 
L 158.154802 301.604359 
L 160.699117 299.670968 
L 161.971274 299.143679 
L 162.607353 298.704272 
L 165.151667 297.605754 
L 165.787746 296.595118 
L 167.059903 295.672363 
L 167.695982 295.364778 
L 174.056768 294.485963 
L 174.692847 294.178378 
L 179.145398 293.826853 
L 181.053634 293.343505 
L 186.778341 292.596513 
L 187.41442 292.244987 
L 188.050499 292.157105 
L 188.686577 291.893461 
L 189.958735 291.673758 
L 190.594813 291.629817 
L 191.230892 291.410113 
L 193.775207 291.014647 
L 195.047364 290.663121 
L 196.9556 290.487358 
L 198.227757 290.355536 
L 198.863836 290.179773 
L 199.499915 290.135833 
L 201.40815 289.564603 
L 205.224622 288.993374 
L 205.860701 288.817611 
L 206.49678 287.938797 
L 208.405016 287.235745 
L 210.313252 286.708457 
L 210.94933 286.400872 
L 211.585409 286.356931 
L 214.765802 285.478117 
L 216.03796 285.390235 
L 216.674038 285.302354 
L 218.582274 284.731125 
L 221.126589 284.115955 
L 221.762667 283.85231 
L 222.398746 283.764429 
L 223.034825 283.456844 
L 229.395611 282.490148 
L 232.576005 281.611334 
L 233.212083 281.215867 
L 235.756398 280.556757 
L 237.028555 279.809765 
L 237.664634 279.370357 
L 239.57287 279.018832 
L 243.389342 277.876373 
L 244.661499 277.480907 
L 245.297578 277.393025 
L 246.569735 277.0415 
L 247.841892 276.733915 
L 248.477971 276.646033 
L 249.750128 276.118745 
L 250.386207 275.986922 
L 251.022286 275.723278 
L 251.658364 275.635397 
L 252.294443 275.327812 
L 252.930522 275.152049 
L 254.202679 275.064167 
L 255.474836 274.62476 
L 256.746993 274.536879 
L 257.383072 274.229294 
L 259.927387 273.789887 
L 262.471701 273.570183 
L 263.10778 273.438361 
L 264.379937 272.823191 
L 271.376803 269.879163 
L 272.012881 269.527637 
L 272.64896 268.824586 
L 273.285038 267.770009 
L 273.921117 266.935135 
L 274.557196 266.759372 
L 275.193274 266.759372 
L 276.465432 265.836617 
L 277.10151 265.660854 
L 277.737589 265.309329 
L 278.373668 265.177507 
L 279.009746 264.606277 
L 279.645825 264.430514 
L 281.554061 263.507759 
L 282.826218 261.750131 
L 283.462297 261.354664 
L 284.098376 260.300087 
L 284.734454 259.640976 
L 285.370533 259.333391 
L 286.006612 259.157629 
L 288.550926 257.663644 
L 289.823083 256.653008 
L 290.459162 256.257541 
L 291.095241 255.334786 
L 291.731319 253.884743 
L 292.367398 252.961988 
L 293.003477 252.47864 
L 293.639555 252.214996 
L 296.18387 250.01796 
L 297.456027 249.007323 
L 298.092106 248.480035 
L 298.728185 247.645161 
L 300.000342 246.546643 
L 302.544657 244.920837 
L 303.180735 244.349608 
L 303.816814 244.217786 
L 304.452893 243.954141 
L 305.72505 243.25109 
L 307.633286 242.284394 
L 308.905443 241.097995 
L 309.541522 240.351003 
L 310.813679 239.472188 
L 311.449758 239.296425 
L 312.085836 238.98884 
L 313.357994 238.153967 
L 313.994072 237.802441 
L 314.630151 237.71456 
L 315.902308 237.011508 
L 316.538387 236.659983 
L 317.174466 236.000872 
L 317.810544 235.605405 
L 318.446623 235.385702 
L 319.71878 234.63871 
L 320.354859 234.287184 
L 320.990938 234.06748 
L 322.899174 232.83714 
L 324.80741 232.265911 
L 325.443488 231.826504 
L 326.079567 231.694682 
L 327.351724 231.255275 
L 329.25996 230.508282 
L 331.168196 229.805231 
L 332.440353 229.585527 
L 333.712511 228.48701 
L 334.984668 227.87184 
L 336.256825 227.168788 
L 336.892904 226.817262 
L 338.165061 226.465737 
L 338.80114 226.07027 
L 339.437219 225.894507 
L 341.345455 224.708108 
L 344.525848 223.961116 
L 346.434084 222.862598 
L 347.070162 222.774717 
L 347.706241 222.555013 
L 348.978398 222.291369 
L 350.886634 220.885266 
L 352.79487 220.445859 
L 353.430949 220.226155 
L 354.067028 219.742807 
L 357.8835 218.512467 
L 358.519578 218.468527 
L 362.972129 216.886661 
L 363.608207 216.579076 
L 365.516443 216.139669 
L 366.788601 215.832084 
L 367.424679 215.524499 
L 368.060758 215.392677 
L 369.968994 214.513862 
L 371.87723 213.591107 
L 372.513309 213.1517 
L 373.149387 212.975937 
L 375.057623 211.965301 
L 376.329781 211.657716 
L 377.601938 210.998605 
L 378.874095 210.647079 
L 379.510174 210.559198 
L 380.782331 209.812206 
L 381.41841 209.680384 
L 382.690567 209.153095 
L 383.326646 209.021273 
L 383.962724 208.669747 
L 386.507039 208.274281 
L 387.779196 207.659111 
L 388.415275 207.131822 
L 389.051354 206.033304 
L 390.323511 205.76966 
L 390.95959 205.637838 
L 393.503904 204.319616 
L 394.139983 204.187794 
L 399.228612 201.771055 
L 401.136848 201.375588 
L 401.772927 201.024063 
L 405.589399 199.705841 
L 406.861556 198.914908 
L 408.133713 198.167916 
L 408.769792 198.080035 
L 409.405871 197.860331 
L 410.041949 197.816391 
L 413.222343 196.981517 
L 413.858421 196.498169 
L 415.130579 196.058762 
L 417.038814 195.443592 
L 417.674893 195.048126 
L 418.310972 194.872363 
L 418.94705 194.432956 
L 419.583129 194.169311 
L 420.219208 193.773845 
L 421.491365 193.334438 
L 423.399601 192.719268 
L 424.03568 192.411683 
L 425.943916 190.961639 
L 426.579994 190.829817 
L 427.852152 189.863121 
L 428.48823 189.731299 
L 429.124309 188.764603 
L 429.760388 188.500959 
L 430.396466 188.017611 
L 431.032545 187.92973 
L 432.304702 187.182738 
L 432.940781 187.050915 
L 433.57686 186.787271 
L 434.212938 186.303923 
L 434.849017 186.08422 
L 436.757253 184.809939 
L 439.301567 183.535658 
L 439.937646 183.447777 
L 441.209803 182.876548 
L 441.845882 182.525022 
L 442.481961 181.470445 
L 443.118039 180.899215 
L 443.754118 180.54769 
L 444.390197 180.415867 
L 445.662354 179.624935 
L 446.298433 179.493112 
L 447.57059 178.877942 
L 449.478826 178.08701 
L 450.750983 177.208195 
L 452.02314 175.889974 
L 455.203534 173.605057 
L 456.475691 172.55048 
L 457.11177 172.286835 
L 457.747848 171.583784 
L 458.383927 171.100436 
L 459.656084 170.661029 
L 460.292163 170.13374 
L 461.56432 169.474629 
L 462.200399 169.298867 
L 462.836478 168.859459 
L 463.472556 168.727637 
L 465.380792 167.717001 
L 466.65295 166.970009 
L 473.013736 164.729032 
L 473.649815 164.157803 
L 475.558051 163.454752 
L 476.830208 163.059285 
L 477.466287 162.575937 
L 480.010601 161.257716 
L 480.64668 160.90619 
L 481.918837 158.401569 
L 483.190995 156.907585 
L 484.463152 156.160593 
L 486.371388 155.413601 
L 487.007467 155.325719 
L 487.643545 154.974194 
L 489.551781 154.402964 
L 492.096096 153.260506 
L 492.732174 152.865039 
L 494.004332 152.425632 
L 497.820804 150.228596 
L 498.456882 149.569486 
L 499.72904 148.866434 
L 500.365118 148.514908 
L 501.001197 148.295205 
L 501.637276 147.855798 
L 502.909433 147.240628 
L 504.817669 146.229991 
L 505.453748 146.054228 
L 506.089826 145.570881 
L 506.725905 145.307236 
L 507.361983 145.175414 
L 508.634141 144.736007 
L 510.542377 144.032956 
L 511.178455 143.593548 
L 512.450613 143.242023 
L 513.72277 142.758675 
L 514.358849 142.275327 
L 515.631006 141.879861 
L 516.267085 141.572276 
L 516.903163 141.396513 
L 518.175321 140.517698 
L 519.447478 139.946469 
L 520.719635 138.979773 
L 521.991793 138.540366 
L 522.627871 138.013078 
L 523.26395 137.925196 
L 524.536107 137.002441 
L 525.808264 136.387271 
L 526.444343 136.123627 
L 527.080422 135.508457 
L 530.896894 134.146295 
L 532.80513 133.311421 
L 534.713366 132.740192 
L 535.985523 132.564429 
L 536.621602 132.300785 
L 537.25768 132.212903 
L 538.529838 131.685615 
L 539.165916 131.641674 
L 541.710231 130.718919 
L 543.618467 129.400697 
L 544.254545 129.137053 
L 544.890624 128.741587 
L 546.79886 127.906713 
L 548.707096 126.764255 
L 549.343175 126.368788 
L 550.615332 126.061203 
L 551.887489 125.182389 
L 554.431804 124.391456 
L 555.067883 124.127812 
L 556.34004 123.820227 
L 559.520433 122.80959 
L 561.428669 122.458065 
L 563.972984 121.667132 
L 564.609062 121.403487 
L 565.245141 121.315606 
L 565.88122 121.008021 
L 567.153377 120.744377 
L 567.789456 120.436792 
L 569.697692 119.997384 
L 570.969849 119.73374 
L 574.786321 119.030689 
L 576.058478 118.767044 
L 576.694557 118.635222 
L 577.330636 118.371578 
L 577.966714 118.327637 
L 579.87495 117.800349 
L 580.511029 117.448823 
L 583.691422 116.65789 
L 584.327501 116.526068 
L 585.599658 116.086661 
L 587.507894 115.42755 
L 588.143973 115.339669 
L 590.052209 114.680558 
L 590.688287 114.680558 
L 591.960445 114.241151 
L 592.596523 113.625981 
L 593.232602 113.318396 
L 594.504759 112.922929 
L 597.049074 111.956234 
L 597.685152 111.824412 
L 598.321231 111.428945 
L 598.95731 111.297123 
L 599.593388 110.901656 
L 602.773782 109.978901 
L 603.40986 109.583435 
L 604.045939 109.407672 
L 604.682018 108.880384 
L 606.590254 108.528858 
L 607.862411 107.825806 
L 608.49849 107.122755 
L 609.770647 106.859111 
L 614.223197 105.848474 
L 614.859276 105.672711 
L 616.131433 105.628771 
L 616.767512 105.321186 
L 619.311827 104.881779 
L 619.947905 104.574194 
L 621.856141 104.310549 
L 624.400456 103.519616 
L 626.308692 103.080209 
L 628.216928 102.596861 
L 630.761243 101.805929 
L 631.397321 101.674106 
L 632.0334 101.366521 
L 632.669478 101.27864 
L 633.305557 101.058936 
L 633.941636 100.66347 
L 635.849872 99.960418 
L 636.48595 99.477071 
L 637.758108 99.125545 
L 638.394186 98.861901 
L 639.666344 98.510375 
L 642.210658 97.367916 
L 644.118894 97.236094 
L 646.663209 96.445161 
L 647.299288 96.049695 
L 648.571445 95.654228 
L 650.479681 94.687533 
L 651.115759 94.555711 
L 651.751838 94.248126 
L 652.387917 94.160244 
L 659.384782 91.831386 
L 661.929097 91.216216 
L 662.565175 91.040453 
L 663.837333 90.469224 
L 664.473411 90.381343 
L 665.745569 90.029817 
L 666.381647 89.546469 
L 667.017726 89.238884 
L 667.653805 88.491892 
L 668.289883 88.052485 
L 669.56204 87.657018 
L 670.198119 87.12973 
L 677.194984 84.273583 
L 678.467142 83.965998 
L 679.739299 83.394769 
L 681.647535 82.296251 
L 682.283614 82.164429 
L 682.919692 81.681081 
L 684.19185 81.065911 
L 685.464007 80.274978 
L 687.372243 79.396164 
L 688.008321 78.956757 
L 689.280479 78.473409 
L 690.552636 77.726417 
L 691.188715 77.418832 
L 691.824793 76.979425 
L 693.096951 76.540017 
L 693.733029 76.408195 
L 696.277344 75.265737 
L 699.457737 74.167219 
L 700.093816 74.123278 
L 700.729895 73.947515 
L 701.365973 73.552049 
L 702.002052 73.464167 
L 702.638131 73.244464 
L 704.546366 72.892938 
L 707.72676 71.267132 
L 708.998917 70.56408 
L 709.634996 70.476199 
L 711.543232 69.465562 
L 713.451468 68.762511 
L 715.359704 67.927637 
L 717.904018 66.917001 
L 718.540097 66.741238 
L 719.176176 66.345772 
L 720.448333 66.170009 
L 721.084412 65.774542 
L 721.72049 65.730602 
L 722.992647 65.335135 
L 724.264805 64.719965 
L 724.900883 64.632084 
L 725.536962 64.368439 
L 726.173041 64.236617 
L 728.081277 63.401744 
L 728.717355 63.269922 
L 729.353434 63.006277 
L 732.533827 62.259285 
L 734.442063 61.512293 
L 736.350299 60.369834 
L 737.622457 59.842546 
L 738.258535 59.578901 
L 738.894614 59.183435 
L 740.166771 58.919791 
L 740.80285 58.568265 
L 741.438928 58.436443 
L 742.711086 57.733391 
L 746.527558 55.931822 
L 747.163636 55.8 
L 747.163636 55.8 
" clip-path="url(#pb4885c32a4)" style="fill: none; stroke: #1f77b4; stroke-width: 1.5; stroke-linecap: square"/>
   </g>
   <g id="line2d_34">
    <path d="M 139.072442 307.8 
L 140.980678 307.712119 
L 142.888914 307.668178 
L 146.705386 307.580296 
L 149.885779 307.448474 
L 152.430094 307.448474 
L 153.066173 307.272711 
L 155.610487 307.18483 
L 157.518723 306.965126 
L 159.426959 306.789364 
L 163.243431 306.613601 
L 163.87951 306.613601 
L 164.515588 306.481779 
L 167.059903 306.393897 
L 168.33206 306.306016 
L 173.42069 306.218134 
L 176.601083 306.086312 
L 184.234027 305.998431 
L 187.41442 305.866609 
L 191.230892 305.778727 
L 193.775207 305.690846 
L 199.499915 305.602964 
L 201.40815 305.559024 
L 203.316386 305.515083 
L 205.224622 305.295379 
L 209.041094 305.251439 
L 210.313252 305.163557 
L 214.765802 305.075676 
L 221.762667 304.680209 
L 226.215218 304.592328 
L 227.487375 304.504446 
L 229.395611 304.416565 
L 233.212083 304.240802 
L 235.756398 304.196861 
L 237.664634 304.021099 
L 247.841892 303.405929 
L 250.386207 303.318047 
L 254.838757 303.098344 
L 256.746993 303.010462 
L 263.10778 302.658936 
L 270.104645 302.571055 
L 272.64896 302.307411 
L 273.921117 302.219529 
L 282.19014 301.560418 
L 286.006612 301.077071 
L 288.550926 300.989189 
L 293.639555 300.330078 
L 296.819949 300.242197 
L 305.088971 299.583086 
L 308.269364 299.231561 
L 310.813679 299.143679 
L 312.085836 299.055798 
L 314.630151 298.967916 
L 315.902308 298.880035 
L 319.082702 298.57245 
L 319.71878 298.396687 
L 323.535252 298.220924 
L 326.715645 298.133043 
L 334.984668 297.649695 
L 336.892904 297.561813 
L 345.161926 297.078466 
L 349.614477 296.990584 
L 350.250556 296.858762 
L 355.339185 296.770881 
L 359.791736 296.551177 
L 366.788601 296.463296 
L 371.241151 296.243592 
L 376.329781 296.155711 
L 381.41841 295.892066 
L 385.87096 295.804185 
L 397.956455 295.057193 
L 403.045084 294.969311 
L 419.583129 293.914734 
L 423.399601 293.826853 
L 425.307837 293.782912 
L 427.216073 293.738971 
L 429.124309 293.563208 
L 434.212938 293.475327 
L 435.485095 293.255623 
L 436.757253 293.167742 
L 439.937646 293.03592 
L 441.209803 292.948038 
L 442.481961 292.860157 
L 448.206669 292.772276 
L 449.478826 292.640453 
L 452.02314 292.596513 
L 452.659219 292.46469 
L 453.931376 292.376809 
L 454.567455 292.244987 
L 456.475691 292.157105 
L 467.289028 291.497995 
L 469.197264 291.410113 
L 472.377657 291.278291 
L 481.282759 291.19041 
L 485.735309 290.970706 
L 490.823938 290.882825 
L 493.368253 290.794943 
L 495.912568 290.751003 
L 497.184725 290.61918 
L 499.72904 290.531299 
L 506.089826 290.179773 
L 509.906298 290.135833 
L 511.814534 289.96007 
L 513.72277 289.916129 
L 518.175321 289.828248 
L 520.719635 289.740366 
L 528.352579 289.652485 
L 531.532972 289.520663 
L 535.349444 289.432781 
L 537.25768 289.213078 
L 541.074152 289.169137 
L 542.982388 288.993374 
L 545.526703 288.905493 
L 553.159647 288.817611 
L 556.34004 288.685789 
L 567.153377 288.641848 
L 568.425534 288.553967 
L 570.33377 288.510026 
L 578.602793 288.422145 
L 579.87495 288.334263 
L 586.871815 288.246382 
L 589.41613 288.1585 
L 597.049074 288.11456 
L 598.321231 288.026678 
L 607.862411 287.982738 
L 609.770647 287.806975 
L 620.583984 287.719093 
L 622.49222 287.675153 
L 639.030265 287.587271 
L 640.938501 287.54333 
L 653.023995 287.455449 
L 655.56831 287.367568 
L 660.020861 287.279686 
L 665.10949 287.016042 
L 667.653805 286.92816 
L 670.198119 286.840279 
L 674.014591 286.752398 
L 675.922827 286.708457 
L 678.467142 286.620575 
L 680.375378 286.576635 
L 683.555771 286.488753 
L 684.827928 286.400872 
L 688.6444 286.31299 
L 691.824793 286.181168 
L 693.096951 286.137228 
L 695.005187 285.961465 
L 698.821659 285.873583 
L 701.365973 285.785702 
L 707.72676 285.69782 
L 710.907153 285.565998 
L 717.26794 285.478117 
L 721.72049 285.258413 
L 727.445198 285.170532 
L 728.717355 285.08265 
L 736.350299 284.994769 
L 738.258535 284.950828 
L 745.2554 284.862947 
L 747.163636 284.599303 
L 747.163636 284.599303 
" clip-path="url(#pb4885c32a4)" style="fill: none; stroke: #ff7f0e; stroke-width: 1.5; stroke-linecap: square"/>
   </g>
   <g id="patch_3">
    <path d="M 108 320.4 
L 108 43.2 
" style="fill: none; stroke: #a9a9a9; stroke-width: 0.8; stroke-linejoin: miter; stroke-linecap: square"/>
   </g>
   <g id="patch_4">
    <path d="M 777.6 320.4 
L 777.6 43.2 
" style="fill: none"/>
   </g>
   <g id="patch_5">
    <path d="M 108 320.4 
L 777.6 320.4 
" style="fill: none; stroke: #a9a9a9; stroke-width: 0.8; stroke-linejoin: miter; stroke-linecap: square"/>
   </g>
   <g id="patch_6">
    <path d="M 108 43.2 
L 777.6 43.2 
" style="fill: none"/>
   </g>
   <g id="text_17">
    <!-- get_subscribe history -->
    <g style="fill: #a9a9a9" transform="translate(378.6075 37.2) scale(0.12 -0.12)">
     <defs>
      <path id="DejaVuSans-67" d="M 2906 1791 
Q 2906 2416 2648 2759 
Q 2391 3103 1925 3103 
Q 1463 3103 1205 2759 
Q 947 2416 947 1791 
Q 947 1169 1205 825 
Q 1463 481 1925 481 
Q 2391 481 2648 825 
Q 2906 1169 2906 1791 
z
M 3481 434 
Q 3481 -459 3084 -895 
Q 2688 -1331 1869 -1331 
Q 1566 -1331 1297 -1286 
Q 1028 -1241 775 -1147 
L 775 -588 
Q 1028 -725 1275 -790 
Q 1522 -856 1778 -856 
Q 2344 -856 2625 -561 
Q 2906 -266 2906 331 
L 2906 616 
Q 2728 306 2450 153 
Q 2172 0 1784 0 
Q 1141 0 747 490 
Q 353 981 353 1791 
Q 353 2603 747 3093 
Q 1141 3584 1784 3584 
Q 2172 3584 2450 3431 
Q 2728 3278 2906 2969 
L 2906 3500 
L 3481 3500 
L 3481 434 
z
" transform="scale(0.015625)"/>
      <path id="DejaVuSans-65" d="M 3597 1894 
L 3597 1613 
L 953 1613 
Q 991 1019 1311 708 
Q 1631 397 2203 397 
Q 2534 397 2845 478 
Q 3156 559 3463 722 
L 3463 178 
Q 3153 47 2828 -22 
Q 2503 -91 2169 -91 
Q 1331 -91 842 396 
Q 353 884 353 1716 
Q 353 2575 817 3079 
Q 1281 3584 2069 3584 
Q 2775 3584 3186 3129 
Q 3597 2675 3597 1894 
z
M 3022 2063 
Q 3016 2534 2758 2815 
Q 2500 3097 2075 3097 
Q 1594 3097 1305 2825 
Q 1016 2553 972 2059 
L 3022 2063 
z
" transform="scale(0.015625)"/>
      <path id="DejaVuSans-74" d="M 1172 4494 
L 1172 3500 
L 2356 3500 
L 2356 3053 
L 1172 3053 
L 1172 1153 
Q 1172 725 1289 603 
Q 1406 481 1766 481 
L 2356 481 
L 2356 0 
L 1766 0 
Q 1100 0 847 248 
Q 594 497 594 1153 
L 594 3053 
L 172 3053 
L 172 3500 
L 594 3500 
L 594 4494 
L 1172 4494 
z
" transform="scale(0.015625)"/>
      <path id="DejaVuSans-5f" d="M 3263 -1063 
L 3263 -1509 
L -63 -1509 
L -63 -1063 
L 3263 -1063 
z
" transform="scale(0.015625)"/>
      <path id="DejaVuSans-73" d="M 2834 3397 
L 2834 2853 
Q 2591 2978 2328 3040 
Q 2066 3103 1784 3103 
Q 1356 3103 1142 2972 
Q 928 2841 928 2578 
Q 928 2378 1081 2264 
Q 1234 2150 1697 2047 
L 1894 2003 
Q 2506 1872 2764 1633 
Q 3022 1394 3022 966 
Q 3022 478 2636 193 
Q 2250 -91 1575 -91 
Q 1294 -91 989 -36 
Q 684 19 347 128 
L 347 722 
Q 666 556 975 473 
Q 1284 391 1588 391 
Q 1994 391 2212 530 
Q 2431 669 2431 922 
Q 2431 1156 2273 1281 
Q 2116 1406 1581 1522 
L 1381 1569 
Q 847 1681 609 1914 
Q 372 2147 372 2553 
Q 372 3047 722 3315 
Q 1072 3584 1716 3584 
Q 2034 3584 2315 3537 
Q 2597 3491 2834 3397 
z
" transform="scale(0.015625)"/>
      <path id="DejaVuSans-75" d="M 544 1381 
L 544 3500 
L 1119 3500 
L 1119 1403 
Q 1119 906 1312 657 
Q 1506 409 1894 409 
Q 2359 409 2629 706 
Q 2900 1003 2900 1516 
L 2900 3500 
L 3475 3500 
L 3475 0 
L 2900 0 
L 2900 538 
Q 2691 219 2414 64 
Q 2138 -91 1772 -91 
Q 1169 -91 856 284 
Q 544 659 544 1381 
z
M 1991 3584 
L 1991 3584 
z
" transform="scale(0.015625)"/>
      <path id="DejaVuSans-62" d="M 3116 1747 
Q 3116 2381 2855 2742 
Q 2594 3103 2138 3103 
Q 1681 3103 1420 2742 
Q 1159 2381 1159 1747 
Q 1159 1113 1420 752 
Q 1681 391 2138 391 
Q 2594 391 2855 752 
Q 3116 1113 3116 1747 
z
M 1159 2969 
Q 1341 3281 1617 3432 
Q 1894 3584 2278 3584 
Q 2916 3584 3314 3078 
Q 3713 2572 3713 1747 
Q 3713 922 3314 415 
Q 2916 -91 2278 -91 
Q 1894 -91 1617 61 
Q 1341 213 1159 525 
L 1159 0 
L 581 0 
L 581 4863 
L 1159 4863 
L 1159 2969 
z
" transform="scale(0.015625)"/>
      <path id="DejaVuSans-63" d="M 3122 3366 
L 3122 2828 
Q 2878 2963 2633 3030 
Q 2388 3097 2138 3097 
Q 1578 3097 1268 2742 
Q 959 2388 959 1747 
Q 959 1106 1268 751 
Q 1578 397 2138 397 
Q 2388 397 2633 464 
Q 2878 531 3122 666 
L 3122 134 
Q 2881 22 2623 -34 
Q 2366 -91 2075 -91 
Q 1284 -91 818 406 
Q 353 903 353 1747 
Q 353 2603 823 3093 
Q 1294 3584 2113 3584 
Q 2378 3584 2631 3529 
Q 2884 3475 3122 3366 
z
" transform="scale(0.015625)"/>
      <path id="DejaVuSans-72" d="M 2631 2963 
Q 2534 3019 2420 3045 
Q 2306 3072 2169 3072 
Q 1681 3072 1420 2755 
Q 1159 2438 1159 1844 
L 1159 0 
L 581 0 
L 581 3500 
L 1159 3500 
L 1159 2956 
Q 1341 3275 1631 3429 
Q 1922 3584 2338 3584 
Q 2397 3584 2469 3576 
Q 2541 3569 2628 3553 
L 2631 2963 
z
" transform="scale(0.015625)"/>
      <path id="DejaVuSans-69" d="M 603 3500 
L 1178 3500 
L 1178 0 
L 603 0 
L 603 3500 
z
M 603 4863 
L 1178 4863 
L 1178 4134 
L 603 4134 
L 603 4863 
z
" transform="scale(0.015625)"/>
      <path id="DejaVuSans-20" transform="scale(0.015625)"/>
      <path id="DejaVuSans-68" d="M 3513 2113 
L 3513 0 
L 2938 0 
L 2938 2094 
Q 2938 2591 2744 2837 
Q 2550 3084 2163 3084 
Q 1697 3084 1428 2787 
Q 1159 2491 1159 1978 
L 1159 0 
L 581 0 
L 581 4863 
L 1159 4863 
L 1159 2956 
Q 1366 3272 1645 3428 
Q 1925 3584 2291 3584 
Q 2894 3584 3203 3211 
Q 3513 2838 3513 2113 
z
" transform="scale(0.015625)"/>
      <path id="DejaVuSans-6f" d="M 1959 3097 
Q 1497 3097 1228 2736 
Q 959 2375 959 1747 
Q 959 1119 1226 758 
Q 1494 397 1959 397 
Q 2419 397 2687 759 
Q 2956 1122 2956 1747 
Q 2956 2369 2687 2733 
Q 2419 3097 1959 3097 
z
M 1959 3584 
Q 2709 3584 3137 3096 
Q 3566 2609 3566 1747 
Q 3566 888 3137 398 
Q 2709 -91 1959 -91 
Q 1206 -91 779 398 
Q 353 888 353 1747 
Q 353 2609 779 3096 
Q 1206 3584 1959 3584 
z
" transform="scale(0.015625)"/>
      <path id="DejaVuSans-79" d="M 2059 -325 
Q 1816 -950 1584 -1140 
Q 1353 -1331 966 -1331 
L 506 -1331 
L 506 -850 
L 844 -850 
Q 1081 -850 1212 -737 
Q 1344 -625 1503 -206 
L 1606 56 
L 191 3500 
L 800 3500 
L 1894 763 
L 2988 3500 
L 3597 3500 
L 2059 -325 
z
" transform="scale(0.015625)"/>
     </defs>
     <use xlink:href="#DejaVuSans-67"/>
     <use xlink:href="#DejaVuSans-65" x="63.476562"/>
     <use xlink:href="#DejaVuSans-74" x="125"/>
     <use xlink:href="#DejaVuSans-5f" x="164.208984"/>
     <use xlink:href="#DejaVuSans-73" x="214.208984"/>
     <use xlink:href="#DejaVuSans-75" x="266.308594"/>
     <use xlink:href="#DejaVuSans-62" x="329.6875"/>
     <use xlink:href="#DejaVuSans-73" x="393.164062"/>
     <use xlink:href="#DejaVuSans-63" x="445.263672"/>
     <use xlink:href="#DejaVuSans-72" x="500.244141"/>
     <use xlink:href="#DejaVuSans-69" x="541.357422"/>
     <use xlink:href="#DejaVuSans-62" x="569.140625"/>
     <use xlink:href="#DejaVuSans-65" x="632.617188"/>
     <use xlink:href="#DejaVuSans-20" x="694.140625"/>
     <use xlink:href="#DejaVuSans-68" x="725.927734"/>
     <use xlink:href="#DejaVuSans-69" x="789.306641"/>
     <use xlink:href="#DejaVuSans-73" x="817.089844"/>
     <use xlink:href="#DejaVuSans-74" x="869.189453"/>
     <use xlink:href="#DejaVuSans-6f" x="908.398438"/>
     <use xlink:href="#DejaVuSans-72" x="969.580078"/>
     <use xlink:href="#DejaVuSans-79" x="1010.693359"/>
    </g>
   </g>
   <g id="legend_1">
    <g id="line2d_35">
     <path d="M 815.08 328.498438 
L 825.08 328.498438 
L 835.08 328.498438 
" style="fill: none; stroke: #1f77b4; stroke-width: 1.5; stroke-linecap: square"/>
    </g>
    <g id="text_18">
     <!-- star -->
     <g style="fill: #a9a9a9" transform="translate(843.08 331.998438) scale(0.1 -0.1)">
      <defs>
       <path id="DejaVuSans-61" d="M 2194 1759 
Q 1497 1759 1228 1600 
Q 959 1441 959 1056 
Q 959 750 1161 570 
Q 1363 391 1709 391 
Q 2188 391 2477 730 
Q 2766 1069 2766 1631 
L 2766 1759 
L 2194 1759 
z
M 3341 1997 
L 3341 0 
L 2766 0 
L 2766 531 
Q 2569 213 2275 61 
Q 1981 -91 1556 -91 
Q 1019 -91 701 211 
Q 384 513 384 1019 
Q 384 1609 779 1909 
Q 1175 2209 1959 2209 
L 2766 2209 
L 2766 2266 
Q 2766 2663 2505 2880 
Q 2244 3097 1772 3097 
Q 1472 3097 1187 3025 
Q 903 2953 641 2809 
L 641 3341 
Q 956 3463 1253 3523 
Q 1550 3584 1831 3584 
Q 2591 3584 2966 3190 
Q 3341 2797 3341 1997 
z
" transform="scale(0.015625)"/>
      </defs>
      <use xlink:href="#DejaVuSans-73"/>
      <use xlink:href="#DejaVuSans-74" x="52.099609"/>
      <use xlink:href="#DejaVuSans-61" x="91.308594"/>
      <use xlink:href="#DejaVuSans-72" x="152.587891"/>
     </g>
    </g>
    <g id="line2d_36">
     <path d="M 815.08 343.176562 
L 825.08 343.176562 
L 835.08 343.176562 
" style="fill: none; stroke: #ff7f0e; stroke-width: 1.5; stroke-linecap: square"/>
    </g>
    <g id="text_19">
     <!-- fork -->
     <g style="fill: #a9a9a9" transform="translate(843.08 346.676562) scale(0.1 -0.1)">
      <defs>
       <path id="DejaVuSans-66" d="M 2375 4863 
L 2375 4384 
L 1825 4384 
Q 1516 4384 1395 4259 
Q 1275 4134 1275 3809 
L 1275 3500 
L 2222 3500 
L 2222 3053 
L 1275 3053 
L 1275 0 
L 697 0 
L 697 3053 
L 147 3053 
L 147 3500 
L 697 3500 
L 697 3744 
Q 697 4328 969 4595 
Q 1241 4863 1831 4863 
L 2375 4863 
z
" transform="scale(0.015625)"/>
       <path id="DejaVuSans-6b" d="M 581 4863 
L 1159 4863 
L 1159 1991 
L 2875 3500 
L 3609 3500 
L 1753 1863 
L 3688 0 
L 2938 0 
L 1159 1709 
L 1159 0 
L 581 0 
L 581 4863 
z
" transform="scale(0.015625)"/>
      </defs>
      <use xlink:href="#DejaVuSans-66"/>
      <use xlink:href="#DejaVuSans-6f" x="35.205078"/>
      <use xlink:href="#DejaVuSans-72" x="96.386719"/>
      <use xlink:href="#DejaVuSans-6b" x="137.5"/>
     </g>
    </g>
   </g>
  </g>
 </g>
 <defs>
  <clipPath id="pb4885c32a4">
   <rect x="108" y="43.2" width="669.6" height="277.2"/>
  </clipPath>
 </defs>
</svg>
