<?xml version="1.0" encoding="utf-8" standalone="no"?>
<!DOCTYPE svg PUBLIC "-//W3C//DTD SVG 1.1//EN"
  "http://www.w3.org/Graphics/SVG/1.1/DTD/svg11.dtd">
<svg xmlns:xlink="http://www.w3.org/1999/xlink" width="864pt" height="360pt" viewBox="0 0 864 360" xmlns="http://www.w3.org/2000/svg" version="1.1">
 <metadata>
  <rdf:RDF xmlns:dc="http://purl.org/dc/elements/1.1/" xmlns:cc="http://creativecommons.org/ns#" xmlns:rdf="http://www.w3.org/1999/02/22-rdf-syntax-ns#">
   <cc:Work>
    <dc:type rdf:resource="http://purl.org/dc/dcmitype/StillImage"/>
    <dc:date>2024-03-09T20:04:05.433076</dc:date>
    <dc:format>image/svg+xml</dc:format>
    <dc:creator>
     <cc:Agent>
      <dc:title>Matplotlib v3.8.3, https://matplotlib.org/</dc:title>
     </cc:Agent>
    </dc:creator>
   </cc:Work>
  </rdf:RDF>
 </metadata>
 <defs>
  <style type="text/css">*{stroke-linejoin: round; stroke-linecap: butt}</style>
 </defs>
 <g id="figure_1">
  <g id="patch_1">
   <path d="M 0 360 
L 864 360 
L 864 0 
L 0 0 
L 0 360 
z
" style="fill: none; opacity: 0"/>
  </g>
  <g id="axes_1">
   <g id="patch_2">
    <path d="M 108 320.4 
L 777.6 320.4 
L 777.6 43.2 
L 108 43.2 
L 108 320.4 
z
" style="fill: none; opacity: 0"/>
   </g>
   <g id="matplotlib.axis_1">
    <g id="xtick_1">
     <g id="line2d_1">
      <path d="M 163.191696 320.4 
L 163.191696 43.2 
" clip-path="url(#p44aab8caee)" style="fill: none; stroke-dasharray: 5.12,1.28,0.8,1.28; stroke-dashoffset: 0; stroke: #b0b0b0; stroke-width: 0.8"/>
     </g>
     <g id="line2d_2">
      <defs>
       <path id="m76fb29b07b" d="M 0 0 
L 0 3.5 
" style="stroke: #a9a9a9; stroke-width: 0.8"/>
      </defs>
      <g>
       <use xlink:href="#m76fb29b07b" x="163.191696" y="320.4" style="fill: #a9a9a9; stroke: #a9a9a9; stroke-width: 0.8"/>
      </g>
     </g>
     <g id="text_1">
      <!-- 2021-09 -->
      <g style="fill: #a9a9a9" transform="translate(142.30029 334.998438) scale(0.1 -0.1)">
       <defs>
        <path id="DejaVuSans-32" d="M 1228 531 
L 3431 531 
L 3431 0 
L 469 0 
L 469 531 
Q 828 903 1448 1529 
Q 2069 2156 2228 2338 
Q 2531 2678 2651 2914 
Q 2772 3150 2772 3378 
Q 2772 3750 2511 3984 
Q 2250 4219 1831 4219 
Q 1534 4219 1204 4116 
Q 875 4013 500 3803 
L 500 4441 
Q 881 4594 1212 4672 
Q 1544 4750 1819 4750 
Q 2544 4750 2975 4387 
Q 3406 4025 3406 3419 
Q 3406 3131 3298 2873 
Q 3191 2616 2906 2266 
Q 2828 2175 2409 1742 
Q 1991 1309 1228 531 
z
" transform="scale(0.015625)"/>
        <path id="DejaVuSans-30" d="M 2034 4250 
Q 1547 4250 1301 3770 
Q 1056 3291 1056 2328 
Q 1056 1369 1301 889 
Q 1547 409 2034 409 
Q 2525 409 2770 889 
Q 3016 1369 3016 2328 
Q 3016 3291 2770 3770 
Q 2525 4250 2034 4250 
z
M 2034 4750 
Q 2819 4750 3233 4129 
Q 3647 3509 3647 2328 
Q 3647 1150 3233 529 
Q 2819 -91 2034 -91 
Q 1250 -91 836 529 
Q 422 1150 422 2328 
Q 422 3509 836 4129 
Q 1250 4750 2034 4750 
z
" transform="scale(0.015625)"/>
        <path id="DejaVuSans-31" d="M 794 531 
L 1825 531 
L 1825 4091 
L 703 3866 
L 703 4441 
L 1819 4666 
L 2450 4666 
L 2450 531 
L 3481 531 
L 3481 0 
L 794 0 
L 794 531 
z
" transform="scale(0.015625)"/>
        <path id="DejaVuSans-2d" d="M 313 2009 
L 1997 2009 
L 1997 1497 
L 313 1497 
L 313 2009 
z
" transform="scale(0.015625)"/>
        <path id="DejaVuSans-39" d="M 703 97 
L 703 672 
Q 941 559 1184 500 
Q 1428 441 1663 441 
Q 2288 441 2617 861 
Q 2947 1281 2994 2138 
Q 2813 1869 2534 1725 
Q 2256 1581 1919 1581 
Q 1219 1581 811 2004 
Q 403 2428 403 3163 
Q 403 3881 828 4315 
Q 1253 4750 1959 4750 
Q 2769 4750 3195 4129 
Q 3622 3509 3622 2328 
Q 3622 1225 3098 567 
Q 2575 -91 1691 -91 
Q 1453 -91 1209 -44 
Q 966 3 703 97 
z
M 1959 2075 
Q 2384 2075 2632 2365 
Q 2881 2656 2881 3163 
Q 2881 3666 2632 3958 
Q 2384 4250 1959 4250 
Q 1534 4250 1286 3958 
Q 1038 3666 1038 3163 
Q 1038 2656 1286 2365 
Q 1534 2075 1959 2075 
z
" transform="scale(0.015625)"/>
       </defs>
       <use xlink:href="#DejaVuSans-32"/>
       <use xlink:href="#DejaVuSans-30" x="63.623047"/>
       <use xlink:href="#DejaVuSans-32" x="127.246094"/>
       <use xlink:href="#DejaVuSans-31" x="190.869141"/>
       <use xlink:href="#DejaVuSans-2d" x="254.492188"/>
       <use xlink:href="#DejaVuSans-30" x="290.576172"/>
       <use xlink:href="#DejaVuSans-39" x="354.199219"/>
      </g>
     </g>
    </g>
    <g id="xtick_2">
     <g id="line2d_3">
      <path d="M 240.631453 320.4 
L 240.631453 43.2 
" clip-path="url(#p44aab8caee)" style="fill: none; stroke-dasharray: 5.12,1.28,0.8,1.28; stroke-dashoffset: 0; stroke: #b0b0b0; stroke-width: 0.8"/>
     </g>
     <g id="line2d_4">
      <g>
       <use xlink:href="#m76fb29b07b" x="240.631453" y="320.4" style="fill: #a9a9a9; stroke: #a9a9a9; stroke-width: 0.8"/>
      </g>
     </g>
     <g id="text_2">
      <!-- 2022-01 -->
      <g style="fill: #a9a9a9" transform="translate(219.740047 334.998438) scale(0.1 -0.1)">
       <use xlink:href="#DejaVuSans-32"/>
       <use xlink:href="#DejaVuSans-30" x="63.623047"/>
       <use xlink:href="#DejaVuSans-32" x="127.246094"/>
       <use xlink:href="#DejaVuSans-32" x="190.869141"/>
       <use xlink:href="#DejaVuSans-2d" x="254.492188"/>
       <use xlink:href="#DejaVuSans-30" x="290.576172"/>
       <use xlink:href="#DejaVuSans-31" x="354.199219"/>
      </g>
     </g>
    </g>
    <g id="xtick_3">
     <g id="line2d_5">
      <path d="M 316.801706 320.4 
L 316.801706 43.2 
" clip-path="url(#p44aab8caee)" style="fill: none; stroke-dasharray: 5.12,1.28,0.8,1.28; stroke-dashoffset: 0; stroke: #b0b0b0; stroke-width: 0.8"/>
     </g>
     <g id="line2d_6">
      <g>
       <use xlink:href="#m76fb29b07b" x="316.801706" y="320.4" style="fill: #a9a9a9; stroke: #a9a9a9; stroke-width: 0.8"/>
      </g>
     </g>
     <g id="text_3">
      <!-- 2022-05 -->
      <g style="fill: #a9a9a9" transform="translate(295.9103 334.998438) scale(0.1 -0.1)">
       <defs>
        <path id="DejaVuSans-35" d="M 691 4666 
L 3169 4666 
L 3169 4134 
L 1269 4134 
L 1269 2991 
Q 1406 3038 1543 3061 
Q 1681 3084 1819 3084 
Q 2600 3084 3056 2656 
Q 3513 2228 3513 1497 
Q 3513 744 3044 326 
Q 2575 -91 1722 -91 
Q 1428 -91 1123 -41 
Q 819 9 494 109 
L 494 744 
Q 775 591 1075 516 
Q 1375 441 1709 441 
Q 2250 441 2565 725 
Q 2881 1009 2881 1497 
Q 2881 1984 2565 2268 
Q 2250 2553 1709 2553 
Q 1456 2553 1204 2497 
Q 953 2441 691 2322 
L 691 4666 
z
" transform="scale(0.015625)"/>
       </defs>
       <use xlink:href="#DejaVuSans-32"/>
       <use xlink:href="#DejaVuSans-30" x="63.623047"/>
       <use xlink:href="#DejaVuSans-32" x="127.246094"/>
       <use xlink:href="#DejaVuSans-32" x="190.869141"/>
       <use xlink:href="#DejaVuSans-2d" x="254.492188"/>
       <use xlink:href="#DejaVuSans-30" x="290.576172"/>
       <use xlink:href="#DejaVuSans-35" x="354.199219"/>
      </g>
     </g>
    </g>
    <g id="xtick_4">
     <g id="line2d_7">
      <path d="M 394.876216 320.4 
L 394.876216 43.2 
" clip-path="url(#p44aab8caee)" style="fill: none; stroke-dasharray: 5.12,1.28,0.8,1.28; stroke-dashoffset: 0; stroke: #b0b0b0; stroke-width: 0.8"/>
     </g>
     <g id="line2d_8">
      <g>
       <use xlink:href="#m76fb29b07b" x="394.876216" y="320.4" style="fill: #a9a9a9; stroke: #a9a9a9; stroke-width: 0.8"/>
      </g>
     </g>
     <g id="text_4">
      <!-- 2022-09 -->
      <g style="fill: #a9a9a9" transform="translate(373.98481 334.998438) scale(0.1 -0.1)">
       <use xlink:href="#DejaVuSans-32"/>
       <use xlink:href="#DejaVuSans-30" x="63.623047"/>
       <use xlink:href="#DejaVuSans-32" x="127.246094"/>
       <use xlink:href="#DejaVuSans-32" x="190.869141"/>
       <use xlink:href="#DejaVuSans-2d" x="254.492188"/>
       <use xlink:href="#DejaVuSans-30" x="290.576172"/>
       <use xlink:href="#DejaVuSans-39" x="354.199219"/>
      </g>
     </g>
    </g>
    <g id="xtick_5">
     <g id="line2d_9">
      <path d="M 472.315973 320.4 
L 472.315973 43.2 
" clip-path="url(#p44aab8caee)" style="fill: none; stroke-dasharray: 5.12,1.28,0.8,1.28; stroke-dashoffset: 0; stroke: #b0b0b0; stroke-width: 0.8"/>
     </g>
     <g id="line2d_10">
      <g>
       <use xlink:href="#m76fb29b07b" x="472.315973" y="320.4" style="fill: #a9a9a9; stroke: #a9a9a9; stroke-width: 0.8"/>
      </g>
     </g>
     <g id="text_5">
      <!-- 2023-01 -->
      <g style="fill: #a9a9a9" transform="translate(451.424567 334.998438) scale(0.1 -0.1)">
       <defs>
        <path id="DejaVuSans-33" d="M 2597 2516 
Q 3050 2419 3304 2112 
Q 3559 1806 3559 1356 
Q 3559 666 3084 287 
Q 2609 -91 1734 -91 
Q 1441 -91 1130 -33 
Q 819 25 488 141 
L 488 750 
Q 750 597 1062 519 
Q 1375 441 1716 441 
Q 2309 441 2620 675 
Q 2931 909 2931 1356 
Q 2931 1769 2642 2001 
Q 2353 2234 1838 2234 
L 1294 2234 
L 1294 2753 
L 1863 2753 
Q 2328 2753 2575 2939 
Q 2822 3125 2822 3475 
Q 2822 3834 2567 4026 
Q 2313 4219 1838 4219 
Q 1578 4219 1281 4162 
Q 984 4106 628 3988 
L 628 4550 
Q 988 4650 1302 4700 
Q 1616 4750 1894 4750 
Q 2613 4750 3031 4423 
Q 3450 4097 3450 3541 
Q 3450 3153 3228 2886 
Q 3006 2619 2597 2516 
z
" transform="scale(0.015625)"/>
       </defs>
       <use xlink:href="#DejaVuSans-32"/>
       <use xlink:href="#DejaVuSans-30" x="63.623047"/>
       <use xlink:href="#DejaVuSans-32" x="127.246094"/>
       <use xlink:href="#DejaVuSans-33" x="190.869141"/>
       <use xlink:href="#DejaVuSans-2d" x="254.492188"/>
       <use xlink:href="#DejaVuSans-30" x="290.576172"/>
       <use xlink:href="#DejaVuSans-31" x="354.199219"/>
      </g>
     </g>
    </g>
    <g id="xtick_6">
     <g id="line2d_11">
      <path d="M 548.486226 320.4 
L 548.486226 43.2 
" clip-path="url(#p44aab8caee)" style="fill: none; stroke-dasharray: 5.12,1.28,0.8,1.28; stroke-dashoffset: 0; stroke: #b0b0b0; stroke-width: 0.8"/>
     </g>
     <g id="line2d_12">
      <g>
       <use xlink:href="#m76fb29b07b" x="548.486226" y="320.4" style="fill: #a9a9a9; stroke: #a9a9a9; stroke-width: 0.8"/>
      </g>
     </g>
     <g id="text_6">
      <!-- 2023-05 -->
      <g style="fill: #a9a9a9" transform="translate(527.59482 334.998438) scale(0.1 -0.1)">
       <use xlink:href="#DejaVuSans-32"/>
       <use xlink:href="#DejaVuSans-30" x="63.623047"/>
       <use xlink:href="#DejaVuSans-32" x="127.246094"/>
       <use xlink:href="#DejaVuSans-33" x="190.869141"/>
       <use xlink:href="#DejaVuSans-2d" x="254.492188"/>
       <use xlink:href="#DejaVuSans-30" x="290.576172"/>
       <use xlink:href="#DejaVuSans-35" x="354.199219"/>
      </g>
     </g>
    </g>
    <g id="xtick_7">
     <g id="line2d_13">
      <path d="M 626.560736 320.4 
L 626.560736 43.2 
" clip-path="url(#p44aab8caee)" style="fill: none; stroke-dasharray: 5.12,1.28,0.8,1.28; stroke-dashoffset: 0; stroke: #b0b0b0; stroke-width: 0.8"/>
     </g>
     <g id="line2d_14">
      <g>
       <use xlink:href="#m76fb29b07b" x="626.560736" y="320.4" style="fill: #a9a9a9; stroke: #a9a9a9; stroke-width: 0.8"/>
      </g>
     </g>
     <g id="text_7">
      <!-- 2023-09 -->
      <g style="fill: #a9a9a9" transform="translate(605.669329 334.998438) scale(0.1 -0.1)">
       <use xlink:href="#DejaVuSans-32"/>
       <use xlink:href="#DejaVuSans-30" x="63.623047"/>
       <use xlink:href="#DejaVuSans-32" x="127.246094"/>
       <use xlink:href="#DejaVuSans-33" x="190.869141"/>
       <use xlink:href="#DejaVuSans-2d" x="254.492188"/>
       <use xlink:href="#DejaVuSans-30" x="290.576172"/>
       <use xlink:href="#DejaVuSans-39" x="354.199219"/>
      </g>
     </g>
    </g>
    <g id="xtick_8">
     <g id="line2d_15">
      <path d="M 704.000493 320.4 
L 704.000493 43.2 
" clip-path="url(#p44aab8caee)" style="fill: none; stroke-dasharray: 5.12,1.28,0.8,1.28; stroke-dashoffset: 0; stroke: #b0b0b0; stroke-width: 0.8"/>
     </g>
     <g id="line2d_16">
      <g>
       <use xlink:href="#m76fb29b07b" x="704.000493" y="320.4" style="fill: #a9a9a9; stroke: #a9a9a9; stroke-width: 0.8"/>
      </g>
     </g>
     <g id="text_8">
      <!-- 2024-01 -->
      <g style="fill: #a9a9a9" transform="translate(683.109087 334.998438) scale(0.1 -0.1)">
       <defs>
        <path id="DejaVuSans-34" d="M 2419 4116 
L 825 1625 
L 2419 1625 
L 2419 4116 
z
M 2253 4666 
L 3047 4666 
L 3047 1625 
L 3713 1625 
L 3713 1100 
L 3047 1100 
L 3047 0 
L 2419 0 
L 2419 1100 
L 313 1100 
L 313 1709 
L 2253 4666 
z
" transform="scale(0.015625)"/>
       </defs>
       <use xlink:href="#DejaVuSans-32"/>
       <use xlink:href="#DejaVuSans-30" x="63.623047"/>
       <use xlink:href="#DejaVuSans-32" x="127.246094"/>
       <use xlink:href="#DejaVuSans-34" x="190.869141"/>
       <use xlink:href="#DejaVuSans-2d" x="254.492188"/>
       <use xlink:href="#DejaVuSans-30" x="290.576172"/>
       <use xlink:href="#DejaVuSans-31" x="354.199219"/>
      </g>
     </g>
    </g>
   </g>
   <g id="matplotlib.axis_2">
    <g id="ytick_1">
     <g id="line2d_17">
      <path d="M 108 307.843895 
L 777.6 307.843895 
" clip-path="url(#p44aab8caee)" style="fill: none; stroke-dasharray: 5.12,1.28,0.8,1.28; stroke-dashoffset: 0; stroke: #b0b0b0; stroke-width: 0.8"/>
     </g>
     <g id="line2d_18">
      <defs>
       <path id="m4a5e832584" d="M 0 0 
L -3.5 0 
" style="stroke: #a9a9a9; stroke-width: 0.8"/>
      </defs>
      <g>
       <use xlink:href="#m4a5e832584" x="108" y="307.843895" style="fill: #a9a9a9; stroke: #a9a9a9; stroke-width: 0.8"/>
      </g>
     </g>
     <g id="text_9">
      <!-- 0 -->
      <g style="fill: #a9a9a9" transform="translate(94.6375 311.643114) scale(0.1 -0.1)">
       <use xlink:href="#DejaVuSans-30"/>
      </g>
     </g>
    </g>
    <g id="ytick_2">
     <g id="line2d_19">
      <path d="M 108 272.728061 
L 777.6 272.728061 
" clip-path="url(#p44aab8caee)" style="fill: none; stroke-dasharray: 5.12,1.28,0.8,1.28; stroke-dashoffset: 0; stroke: #b0b0b0; stroke-width: 0.8"/>
     </g>
     <g id="line2d_20">
      <g>
       <use xlink:href="#m4a5e832584" x="108" y="272.728061" style="fill: #a9a9a9; stroke: #a9a9a9; stroke-width: 0.8"/>
      </g>
     </g>
     <g id="text_10">
      <!-- 800 -->
      <g style="fill: #a9a9a9" transform="translate(81.9125 276.52728) scale(0.1 -0.1)">
       <defs>
        <path id="DejaVuSans-38" d="M 2034 2216 
Q 1584 2216 1326 1975 
Q 1069 1734 1069 1313 
Q 1069 891 1326 650 
Q 1584 409 2034 409 
Q 2484 409 2743 651 
Q 3003 894 3003 1313 
Q 3003 1734 2745 1975 
Q 2488 2216 2034 2216 
z
M 1403 2484 
Q 997 2584 770 2862 
Q 544 3141 544 3541 
Q 544 4100 942 4425 
Q 1341 4750 2034 4750 
Q 2731 4750 3128 4425 
Q 3525 4100 3525 3541 
Q 3525 3141 3298 2862 
Q 3072 2584 2669 2484 
Q 3125 2378 3379 2068 
Q 3634 1759 3634 1313 
Q 3634 634 3220 271 
Q 2806 -91 2034 -91 
Q 1263 -91 848 271 
Q 434 634 434 1313 
Q 434 1759 690 2068 
Q 947 2378 1403 2484 
z
M 1172 3481 
Q 1172 3119 1398 2916 
Q 1625 2713 2034 2713 
Q 2441 2713 2670 2916 
Q 2900 3119 2900 3481 
Q 2900 3844 2670 4047 
Q 2441 4250 2034 4250 
Q 1625 4250 1398 4047 
Q 1172 3844 1172 3481 
z
" transform="scale(0.015625)"/>
       </defs>
       <use xlink:href="#DejaVuSans-38"/>
       <use xlink:href="#DejaVuSans-30" x="63.623047"/>
       <use xlink:href="#DejaVuSans-30" x="127.246094"/>
      </g>
     </g>
    </g>
    <g id="ytick_3">
     <g id="line2d_21">
      <path d="M 108 237.612228 
L 777.6 237.612228 
" clip-path="url(#p44aab8caee)" style="fill: none; stroke-dasharray: 5.12,1.28,0.8,1.28; stroke-dashoffset: 0; stroke: #b0b0b0; stroke-width: 0.8"/>
     </g>
     <g id="line2d_22">
      <g>
       <use xlink:href="#m4a5e832584" x="108" y="237.612228" style="fill: #a9a9a9; stroke: #a9a9a9; stroke-width: 0.8"/>
      </g>
     </g>
     <g id="text_11">
      <!-- 1600 -->
      <g style="fill: #a9a9a9" transform="translate(75.55 241.411447) scale(0.1 -0.1)">
       <defs>
        <path id="DejaVuSans-36" d="M 2113 2584 
Q 1688 2584 1439 2293 
Q 1191 2003 1191 1497 
Q 1191 994 1439 701 
Q 1688 409 2113 409 
Q 2538 409 2786 701 
Q 3034 994 3034 1497 
Q 3034 2003 2786 2293 
Q 2538 2584 2113 2584 
z
M 3366 4563 
L 3366 3988 
Q 3128 4100 2886 4159 
Q 2644 4219 2406 4219 
Q 1781 4219 1451 3797 
Q 1122 3375 1075 2522 
Q 1259 2794 1537 2939 
Q 1816 3084 2150 3084 
Q 2853 3084 3261 2657 
Q 3669 2231 3669 1497 
Q 3669 778 3244 343 
Q 2819 -91 2113 -91 
Q 1303 -91 875 529 
Q 447 1150 447 2328 
Q 447 3434 972 4092 
Q 1497 4750 2381 4750 
Q 2619 4750 2861 4703 
Q 3103 4656 3366 4563 
z
" transform="scale(0.015625)"/>
       </defs>
       <use xlink:href="#DejaVuSans-31"/>
       <use xlink:href="#DejaVuSans-36" x="63.623047"/>
       <use xlink:href="#DejaVuSans-30" x="127.246094"/>
       <use xlink:href="#DejaVuSans-30" x="190.869141"/>
      </g>
     </g>
    </g>
    <g id="ytick_4">
     <g id="line2d_23">
      <path d="M 108 202.496394 
L 777.6 202.496394 
" clip-path="url(#p44aab8caee)" style="fill: none; stroke-dasharray: 5.12,1.28,0.8,1.28; stroke-dashoffset: 0; stroke: #b0b0b0; stroke-width: 0.8"/>
     </g>
     <g id="line2d_24">
      <g>
       <use xlink:href="#m4a5e832584" x="108" y="202.496394" style="fill: #a9a9a9; stroke: #a9a9a9; stroke-width: 0.8"/>
      </g>
     </g>
     <g id="text_12">
      <!-- 2400 -->
      <g style="fill: #a9a9a9" transform="translate(75.55 206.295613) scale(0.1 -0.1)">
       <use xlink:href="#DejaVuSans-32"/>
       <use xlink:href="#DejaVuSans-34" x="63.623047"/>
       <use xlink:href="#DejaVuSans-30" x="127.246094"/>
       <use xlink:href="#DejaVuSans-30" x="190.869141"/>
      </g>
     </g>
    </g>
    <g id="ytick_5">
     <g id="line2d_25">
      <path d="M 108 167.380561 
L 777.6 167.380561 
" clip-path="url(#p44aab8caee)" style="fill: none; stroke-dasharray: 5.12,1.28,0.8,1.28; stroke-dashoffset: 0; stroke: #b0b0b0; stroke-width: 0.8"/>
     </g>
     <g id="line2d_26">
      <g>
       <use xlink:href="#m4a5e832584" x="108" y="167.380561" style="fill: #a9a9a9; stroke: #a9a9a9; stroke-width: 0.8"/>
      </g>
     </g>
     <g id="text_13">
      <!-- 3200 -->
      <g style="fill: #a9a9a9" transform="translate(75.55 171.17978) scale(0.1 -0.1)">
       <use xlink:href="#DejaVuSans-33"/>
       <use xlink:href="#DejaVuSans-32" x="63.623047"/>
       <use xlink:href="#DejaVuSans-30" x="127.246094"/>
       <use xlink:href="#DejaVuSans-30" x="190.869141"/>
      </g>
     </g>
    </g>
    <g id="ytick_6">
     <g id="line2d_27">
      <path d="M 108 132.264727 
L 777.6 132.264727 
" clip-path="url(#p44aab8caee)" style="fill: none; stroke-dasharray: 5.12,1.28,0.8,1.28; stroke-dashoffset: 0; stroke: #b0b0b0; stroke-width: 0.8"/>
     </g>
     <g id="line2d_28">
      <g>
       <use xlink:href="#m4a5e832584" x="108" y="132.264727" style="fill: #a9a9a9; stroke: #a9a9a9; stroke-width: 0.8"/>
      </g>
     </g>
     <g id="text_14">
      <!-- 4000 -->
      <g style="fill: #a9a9a9" transform="translate(75.55 136.063946) scale(0.1 -0.1)">
       <use xlink:href="#DejaVuSans-34"/>
       <use xlink:href="#DejaVuSans-30" x="63.623047"/>
       <use xlink:href="#DejaVuSans-30" x="127.246094"/>
       <use xlink:href="#DejaVuSans-30" x="190.869141"/>
      </g>
     </g>
    </g>
    <g id="ytick_7">
     <g id="line2d_29">
      <path d="M 108 97.148894 
L 777.6 97.148894 
" clip-path="url(#p44aab8caee)" style="fill: none; stroke-dasharray: 5.12,1.28,0.8,1.28; stroke-dashoffset: 0; stroke: #b0b0b0; stroke-width: 0.8"/>
     </g>
     <g id="line2d_30">
      <g>
       <use xlink:href="#m4a5e832584" x="108" y="97.148894" style="fill: #a9a9a9; stroke: #a9a9a9; stroke-width: 0.8"/>
      </g>
     </g>
     <g id="text_15">
      <!-- 4800 -->
      <g style="fill: #a9a9a9" transform="translate(75.55 100.948113) scale(0.1 -0.1)">
       <use xlink:href="#DejaVuSans-34"/>
       <use xlink:href="#DejaVuSans-38" x="63.623047"/>
       <use xlink:href="#DejaVuSans-30" x="127.246094"/>
       <use xlink:href="#DejaVuSans-30" x="190.869141"/>
      </g>
     </g>
    </g>
    <g id="ytick_8">
     <g id="line2d_31">
      <path d="M 108 62.03306 
L 777.6 62.03306 
" clip-path="url(#p44aab8caee)" style="fill: none; stroke-dasharray: 5.12,1.28,0.8,1.28; stroke-dashoffset: 0; stroke: #b0b0b0; stroke-width: 0.8"/>
     </g>
     <g id="line2d_32">
      <g>
       <use xlink:href="#m4a5e832584" x="108" y="62.03306" style="fill: #a9a9a9; stroke: #a9a9a9; stroke-width: 0.8"/>
      </g>
     </g>
     <g id="text_16">
      <!-- 5600 -->
      <g style="fill: #a9a9a9" transform="translate(75.55 65.832279) scale(0.1 -0.1)">
       <use xlink:href="#DejaVuSans-35"/>
       <use xlink:href="#DejaVuSans-36" x="63.623047"/>
       <use xlink:href="#DejaVuSans-30" x="127.246094"/>
       <use xlink:href="#DejaVuSans-30" x="190.869141"/>
      </g>
     </g>
    </g>
   </g>
   <g id="line2d_33">
    <path d="M 138.436364 307.71221 
L 142.244876 307.404947 
L 142.879628 307.141578 
L 144.783885 306.922104 
L 148.592397 306.175893 
L 152.40091 305.868629 
L 153.035662 305.561366 
L 153.670414 305.385786 
L 154.305166 304.59568 
L 154.939918 304.156732 
L 155.574671 302.795994 
L 156.209423 302.708204 
L 156.844175 302.225361 
L 158.113679 301.610834 
L 160.652687 299.679464 
L 161.922192 299.152726 
L 162.556944 298.713778 
L 165.095952 297.616408 
L 165.730704 296.606828 
L 167.000209 295.685037 
L 167.634961 295.377774 
L 173.982482 294.499878 
L 174.617234 294.192615 
L 179.060499 293.841456 
L 180.964755 293.358613 
L 186.677524 292.612402 
L 187.312276 292.261244 
L 187.947028 292.173454 
L 188.58178 291.910085 
L 189.851284 291.690611 
L 190.486037 291.646717 
L 191.120789 291.427243 
L 193.659797 291.03219 
L 194.929301 290.681031 
L 196.833558 290.505452 
L 198.103062 290.373768 
L 198.737814 290.198188 
L 199.372566 290.154294 
L 201.276822 289.583661 
L 205.085335 289.013029 
L 205.720087 288.83745 
L 206.354839 287.959554 
L 208.259096 287.257237 
L 210.163352 286.7305 
L 210.798104 286.423236 
L 211.432856 286.379342 
L 214.606617 285.501446 
L 215.876121 285.413656 
L 216.510873 285.325867 
L 218.415129 284.755234 
L 220.954138 284.140707 
L 221.58889 283.877338 
L 222.223642 283.789549 
L 222.858394 283.482285 
L 229.205915 282.5166 
L 232.379676 281.638704 
L 233.014428 281.243651 
L 235.553436 280.585229 
L 236.822941 279.839018 
L 237.457693 279.40007 
L 239.361949 279.048911 
L 243.170462 277.907647 
L 244.439966 277.512594 
L 245.074718 277.424804 
L 246.344222 277.073646 
L 247.613726 276.766382 
L 248.248479 276.678593 
L 249.517983 276.151855 
L 250.152735 276.020171 
L 250.787487 275.756802 
L 251.422239 275.669012 
L 252.056991 275.361749 
L 252.691743 275.18617 
L 253.961248 275.09838 
L 255.230752 274.659432 
L 256.500256 274.571643 
L 257.135008 274.264379 
L 259.674016 273.825431 
L 262.213025 273.605957 
L 262.847777 273.474273 
L 264.117281 272.859746 
L 271.099554 269.918795 
L 271.734307 269.567636 
L 272.369059 268.86532 
L 273.003811 267.811845 
L 273.638563 266.977844 
L 274.273315 266.802264 
L 274.908067 266.802264 
L 276.177571 265.880474 
L 276.812323 265.704895 
L 277.447076 265.353736 
L 278.081828 265.222052 
L 278.71658 264.65142 
L 279.351332 264.47584 
L 281.255588 263.55405 
L 282.525092 261.798258 
L 283.159845 261.403205 
L 283.794597 260.34973 
L 284.429349 259.691308 
L 285.064101 259.384045 
L 285.698853 259.208465 
L 288.237861 257.716043 
L 289.507366 256.706462 
L 290.142118 256.311409 
L 290.77687 255.389619 
L 291.411622 253.94109 
L 292.046374 253.0193 
L 292.681126 252.536457 
L 293.315878 252.273088 
L 295.854887 250.078349 
L 297.124391 249.068769 
L 297.759143 248.542031 
L 298.393895 247.70803 
L 299.663399 246.61066 
L 302.202408 244.986553 
L 302.83716 244.415921 
L 303.471912 244.284236 
L 304.106664 244.020867 
L 305.376168 243.318551 
L 307.280425 242.352865 
L 308.549929 241.167706 
L 309.184681 240.421495 
L 310.454185 239.543599 
L 311.088937 239.36802 
L 311.723689 239.060756 
L 312.993194 238.226755 
L 313.627946 237.875597 
L 314.262698 237.787807 
L 315.532202 237.08549 
L 316.166954 236.734332 
L 316.801706 236.07591 
L 317.436458 235.680857 
L 318.071211 235.461383 
L 319.340715 234.715172 
L 319.975467 234.364013 
L 320.610219 234.144539 
L 322.514475 232.915485 
L 324.418732 232.344853 
L 325.053484 231.905905 
L 325.688236 231.774221 
L 326.95774 231.335273 
L 328.861996 230.589061 
L 330.766253 229.886744 
L 332.035757 229.667271 
L 333.305261 228.569901 
L 334.574765 227.955374 
L 335.84427 227.253057 
L 336.479022 226.901899 
L 337.748526 226.55074 
L 338.383278 226.155687 
L 339.01803 225.980108 
L 340.922286 224.794949 
L 344.096047 224.048737 
L 346.000303 222.951367 
L 346.635055 222.863578 
L 347.269808 222.644104 
L 348.539312 222.380735 
L 350.443568 220.976102 
L 352.347824 220.537154 
L 352.982577 220.31768 
L 353.617329 219.834837 
L 357.425841 218.605783 
L 358.060593 218.561888 
L 362.503858 216.981676 
L 363.13861 216.674412 
L 365.042867 216.235464 
L 366.312371 215.928201 
L 366.947123 215.620937 
L 367.581875 215.489253 
L 369.486131 214.611357 
L 371.390388 213.689566 
L 372.02514 213.250618 
L 372.659892 213.075039 
L 374.564148 212.065459 
L 375.833652 211.758195 
L 377.103157 211.099774 
L 378.372661 210.748615 
L 379.007413 210.660826 
L 380.276917 209.914614 
L 380.911669 209.78293 
L 382.181174 209.256192 
L 382.815926 209.124508 
L 383.450678 208.77335 
L 385.989686 208.378296 
L 387.25919 207.763769 
L 387.893943 207.237032 
L 388.528695 206.139662 
L 389.798199 205.876293 
L 390.432951 205.744609 
L 392.971959 204.427765 
L 393.606712 204.296081 
L 398.684728 201.881867 
L 400.588985 201.486814 
L 401.223737 201.135656 
L 405.03225 199.818812 
L 406.301754 199.028706 
L 407.571258 198.282494 
L 408.20601 198.194705 
L 408.840762 197.975231 
L 409.475514 197.931336 
L 412.649275 197.097335 
L 413.284027 196.614492 
L 414.553531 196.175544 
L 416.457787 195.561017 
L 417.09254 195.165964 
L 417.727292 194.990385 
L 418.362044 194.551437 
L 418.996796 194.288068 
L 419.631548 193.893015 
L 420.901052 193.454067 
L 422.805309 192.83954 
L 423.440061 192.532277 
L 425.344317 191.083748 
L 425.979069 190.952064 
L 427.248573 189.986379 
L 427.883325 189.854694 
L 428.518078 188.889009 
L 429.15283 188.62564 
L 429.787582 188.142797 
L 430.422334 188.055008 
L 431.691838 187.308796 
L 432.32659 187.177112 
L 432.961342 186.913743 
L 433.596094 186.430901 
L 434.230847 186.211427 
L 436.135103 184.938478 
L 438.674111 183.665529 
L 439.308863 183.577739 
L 440.578368 183.007107 
L 441.21312 182.655948 
L 441.847872 181.602473 
L 442.482624 181.031841 
L 443.117376 180.680683 
L 443.752128 180.548998 
L 445.021632 179.758892 
L 445.656384 179.627208 
L 446.925889 179.012681 
L 448.830145 178.222574 
L 450.099649 177.344679 
L 451.369153 176.027835 
L 454.542914 173.745306 
L 455.812418 172.691831 
L 456.44717 172.428462 
L 457.081922 171.726145 
L 457.716675 171.243303 
L 458.986179 170.804355 
L 459.620931 170.277617 
L 460.890435 169.619195 
L 461.525187 169.443616 
L 462.159939 169.004668 
L 462.794691 168.872984 
L 464.698948 167.863404 
L 465.968452 167.117192 
L 472.315973 164.878558 
L 472.950725 164.307925 
L 474.854982 163.605609 
L 476.124486 163.210556 
L 476.759238 162.727713 
L 479.298246 161.410869 
L 479.932998 161.059711 
L 481.202503 158.557708 
L 482.472007 157.065285 
L 483.741511 156.319073 
L 485.645767 155.572862 
L 486.280519 155.485072 
L 486.915272 155.133914 
L 488.819528 154.563282 
L 491.358536 153.422017 
L 491.993288 153.026964 
L 493.262793 152.588016 
L 497.071305 150.393276 
L 497.706057 149.734855 
L 498.34081 149.339801 
L 500.245066 148.5058 
L 500.879818 148.066852 
L 502.149322 147.452325 
L 504.053579 146.442745 
L 504.688331 146.267166 
L 505.323083 145.784323 
L 505.957835 145.520955 
L 506.592587 145.38927 
L 507.862091 144.950322 
L 509.766348 144.248006 
L 510.4011 143.809058 
L 511.670604 143.457899 
L 512.940108 142.975057 
L 513.57486 142.492214 
L 514.844364 142.097161 
L 515.479117 141.789897 
L 516.113869 141.614318 
L 517.383373 140.736422 
L 518.652877 140.16579 
L 519.922381 139.200105 
L 521.191885 138.761157 
L 521.826638 138.234419 
L 522.46139 138.14663 
L 523.730894 137.224839 
L 525.000398 136.610312 
L 525.63515 136.346943 
L 526.269902 135.732416 
L 530.078415 134.371677 
L 531.982671 133.537676 
L 533.886928 132.967044 
L 535.156432 132.791465 
L 535.791184 132.528096 
L 536.425936 132.440307 
L 537.69544 131.913569 
L 538.330192 131.869674 
L 540.869201 130.947884 
L 542.773457 129.63104 
L 543.408209 129.367671 
L 544.042961 128.972618 
L 545.947218 128.138617 
L 547.851474 126.997352 
L 548.486226 126.602299 
L 549.75573 126.295036 
L 551.025235 125.41714 
L 553.564243 124.627034 
L 554.198995 124.363665 
L 555.468499 124.056401 
L 558.64226 123.046821 
L 560.546516 122.695663 
L 563.085525 121.905557 
L 563.720277 121.642188 
L 564.355029 121.554398 
L 564.989781 121.247135 
L 566.259285 120.983766 
L 566.894037 120.676502 
L 568.798294 120.237554 
L 570.067798 119.974186 
L 573.876311 119.271869 
L 575.145815 119.0085 
L 575.780567 118.876816 
L 576.415319 118.613447 
L 577.050071 118.569552 
L 578.954327 118.042815 
L 579.58908 117.691657 
L 582.76284 116.90155 
L 583.397592 116.769866 
L 584.667096 116.330918 
L 586.571353 115.672496 
L 587.206105 115.584706 
L 589.110361 114.926285 
L 589.745113 114.926285 
L 591.014617 114.487337 
L 591.64937 113.87281 
L 592.284122 113.565546 
L 593.553626 113.170493 
L 596.092634 112.204808 
L 596.727386 112.073123 
L 597.362139 111.67807 
L 597.996891 111.546386 
L 598.631643 111.151333 
L 601.805403 110.229542 
L 602.440155 109.834489 
L 603.074908 109.65891 
L 603.70966 109.132172 
L 605.613916 108.781014 
L 606.88342 108.078697 
L 607.518172 107.37638 
L 608.787677 107.113012 
L 613.230941 106.103431 
L 613.865693 105.927852 
L 615.135198 105.883957 
L 615.76995 105.576694 
L 618.308958 105.137746 
L 618.94371 104.830482 
L 620.847967 104.567114 
L 623.386975 103.777007 
L 625.291231 103.33806 
L 627.195488 102.855217 
L 629.734496 102.065111 
L 630.369248 101.933426 
L 631.004 101.626163 
L 631.638752 101.538373 
L 632.273505 101.318899 
L 632.908257 100.967741 
L 634.812513 100.309319 
L 635.447265 99.826476 
L 636.716769 99.475318 
L 637.351521 99.211949 
L 638.621026 98.860791 
L 641.160034 97.719526 
L 643.06429 97.587842 
L 645.603299 96.797736 
L 646.238051 96.402682 
L 647.507555 96.007629 
L 649.411812 95.041944 
L 650.046564 94.91026 
L 650.681316 94.602996 
L 651.316068 94.515206 
L 658.298341 92.188782 
L 660.83735 91.574255 
L 661.472102 91.398676 
L 662.741606 90.828044 
L 663.376358 90.740254 
L 664.645862 90.389096 
L 665.280614 89.906253 
L 665.915366 89.59899 
L 666.550118 88.852778 
L 667.184871 88.41383 
L 668.454375 88.018777 
L 669.089127 87.49204 
L 676.0714 84.638878 
L 677.340904 84.331615 
L 678.610409 83.760982 
L 680.514665 82.663613 
L 681.149417 82.531928 
L 681.784169 82.049086 
L 683.053673 81.434558 
L 684.323178 80.644452 
L 686.227434 79.766556 
L 686.862186 79.327608 
L 688.13169 78.844766 
L 689.401194 78.098554 
L 690.035947 77.791291 
L 690.670699 77.352343 
L 691.940203 76.913395 
L 692.574955 76.781711 
L 695.113963 75.640446 
L 698.287724 74.543076 
L 698.922476 74.499181 
L 699.557228 74.323602 
L 700.19198 73.928549 
L 700.826732 73.840759 
L 701.461485 73.621285 
L 703.365741 73.270127 
L 706.539501 71.64602 
L 707.809006 70.943703 
L 708.443758 70.855914 
L 710.348014 69.846333 
L 712.25227 69.144017 
L 714.156527 68.310016 
L 716.695535 67.300435 
L 717.330287 67.124856 
L 717.965039 66.729803 
L 719.234544 66.554224 
L 719.869296 66.159171 
L 720.504048 66.115276 
L 721.773552 65.720223 
L 723.043056 65.105696 
L 723.677808 65.017906 
L 724.31256 64.754538 
L 724.947313 64.622853 
L 726.851569 63.788852 
L 727.486321 63.657168 
L 728.121073 63.393799 
L 731.294834 62.647588 
L 733.19909 61.901376 
L 735.103346 60.760111 
L 736.372851 60.233374 
L 737.007603 59.970005 
L 737.642355 59.574952 
L 738.911859 59.311583 
L 739.546611 58.960425 
L 740.181363 58.828741 
L 741.450867 58.126424 
L 745.25938 56.370632 
L 747.163636 55.8 
L 747.163636 55.8 
" clip-path="url(#p44aab8caee)" style="fill: none; stroke: #1f77b4; stroke-width: 1.5; stroke-linecap: square"/>
   </g>
   <g id="line2d_34">
    <path d="M 139.071116 307.8 
L 140.975372 307.71221 
L 142.879628 307.668316 
L 146.688141 307.580526 
L 149.861902 307.448842 
L 152.40091 307.448842 
L 153.035662 307.273262 
L 155.574671 307.185473 
L 157.478927 306.965999 
L 159.383183 306.79042 
L 163.191696 306.614841 
L 163.826448 306.614841 
L 164.4612 306.483156 
L 167.000209 306.395367 
L 168.269713 306.307577 
L 173.34773 306.219787 
L 176.52149 306.088103 
L 184.138515 306.000314 
L 187.312276 305.868629 
L 191.120789 305.78084 
L 193.659797 305.69305 
L 199.372566 305.60526 
L 201.276822 305.561366 
L 203.181079 305.517471 
L 205.085335 305.297997 
L 208.893848 305.254102 
L 210.163352 305.166312 
L 214.606617 305.078523 
L 221.58889 304.68347 
L 226.032155 304.59568 
L 227.301659 304.507891 
L 229.205915 304.420101 
L 233.014428 304.244522 
L 235.553436 304.200627 
L 237.457693 304.025048 
L 247.613726 303.410521 
L 250.152735 303.322731 
L 254.596 303.103257 
L 256.500256 303.015468 
L 262.847777 302.664309 
L 269.83005 302.57652 
L 272.369059 302.313151 
L 273.638563 302.225361 
L 281.89034 301.56694 
L 285.698853 301.084097 
L 288.237861 300.996307 
L 293.315878 300.337885 
L 296.489639 300.250096 
L 304.741416 299.591674 
L 307.915177 299.240516 
L 310.454185 299.152726 
L 311.723689 299.064936 
L 314.262698 298.977147 
L 315.532202 298.889357 
L 318.705963 298.582094 
L 319.340715 298.406515 
L 323.149227 298.230935 
L 326.322988 298.143146 
L 334.574765 297.660303 
L 336.479022 297.572513 
L 344.730799 297.089671 
L 349.174064 297.001881 
L 349.808816 296.870197 
L 354.886833 296.782407 
L 359.330098 296.562933 
L 366.312371 296.475144 
L 370.755636 296.25567 
L 375.833652 296.16788 
L 380.911669 295.904511 
L 385.354934 295.816722 
L 397.415224 295.07051 
L 402.493241 294.982721 
L 418.996796 293.929246 
L 422.805309 293.841456 
L 424.709565 293.797561 
L 426.613821 293.753667 
L 428.518078 293.578087 
L 433.596094 293.490298 
L 434.865599 293.270824 
L 436.135103 293.183034 
L 439.308863 293.05135 
L 440.578368 292.96356 
L 441.847872 292.875771 
L 447.560641 292.787981 
L 448.830145 292.656297 
L 451.369153 292.612402 
L 452.003906 292.480718 
L 453.27341 292.392928 
L 453.908162 292.261244 
L 455.812418 292.173454 
L 466.603204 291.515032 
L 468.50746 291.427243 
L 471.681221 291.295558 
L 480.56775 291.207769 
L 485.011015 290.988295 
L 490.089032 290.900505 
L 492.628041 290.812716 
L 495.167049 290.768821 
L 496.436553 290.637136 
L 498.975562 290.549347 
L 505.323083 290.198188 
L 509.131595 290.154294 
L 511.035852 289.978715 
L 512.940108 289.93482 
L 517.383373 289.84703 
L 519.922381 289.759241 
L 527.539407 289.671451 
L 530.713167 289.539767 
L 534.52168 289.451977 
L 536.425936 289.232503 
L 540.234449 289.188608 
L 542.138705 289.013029 
L 544.677714 288.92524 
L 552.294739 288.83745 
L 555.468499 288.705766 
L 566.259285 288.661871 
L 567.528789 288.574081 
L 569.433046 288.530186 
L 577.684823 288.442397 
L 578.954327 288.354607 
L 585.936601 288.266818 
L 588.475609 288.179028 
L 596.092634 288.135133 
L 597.362139 288.047344 
L 606.88342 288.003449 
L 608.787677 287.82787 
L 619.578462 287.74008 
L 621.482719 287.696185 
L 637.986274 287.608396 
L 639.89053 287.564501 
L 651.95082 287.476711 
L 654.489828 287.388922 
L 658.933093 287.301132 
L 664.01111 287.037763 
L 666.550118 286.949974 
L 669.089127 286.862184 
L 672.89764 286.774395 
L 674.801896 286.7305 
L 677.340904 286.64271 
L 679.245161 286.598816 
L 682.418921 286.511026 
L 683.688425 286.423236 
L 687.496938 286.335447 
L 690.670699 286.203762 
L 691.940203 286.159868 
L 693.844459 285.984288 
L 697.652972 285.896499 
L 700.19198 285.808709 
L 706.539501 285.72092 
L 709.713262 285.589235 
L 716.060783 285.501446 
L 720.504048 285.281972 
L 726.216817 285.194182 
L 727.486321 285.106393 
L 735.103346 285.018603 
L 737.007603 284.974708 
L 743.989876 284.886919 
L 746.528884 284.62355 
L 747.163636 284.579655 
L 747.163636 284.579655 
" clip-path="url(#p44aab8caee)" style="fill: none; stroke: #ff7f0e; stroke-width: 1.5; stroke-linecap: square"/>
   </g>
   <g id="patch_3">
    <path d="M 108 320.4 
L 108 43.2 
" style="fill: none; stroke: #a9a9a9; stroke-width: 0.8; stroke-linejoin: miter; stroke-linecap: square"/>
   </g>
   <g id="patch_4">
    <path d="M 777.6 320.4 
L 777.6 43.2 
" style="fill: none"/>
   </g>
   <g id="patch_5">
    <path d="M 108 320.4 
L 777.6 320.4 
" style="fill: none; stroke: #a9a9a9; stroke-width: 0.8; stroke-linejoin: miter; stroke-linecap: square"/>
   </g>
   <g id="patch_6">
    <path d="M 108 43.2 
L 777.6 43.2 
" style="fill: none"/>
   </g>
   <g id="text_17">
    <!-- get_subscribe history -->
    <g style="fill: #a9a9a9" transform="translate(378.6075 37.2) scale(0.12 -0.12)">
     <defs>
      <path id="DejaVuSans-67" d="M 2906 1791 
Q 2906 2416 2648 2759 
Q 2391 3103 1925 3103 
Q 1463 3103 1205 2759 
Q 947 2416 947 1791 
Q 947 1169 1205 825 
Q 1463 481 1925 481 
Q 2391 481 2648 825 
Q 2906 1169 2906 1791 
z
M 3481 434 
Q 3481 -459 3084 -895 
Q 2688 -1331 1869 -1331 
Q 1566 -1331 1297 -1286 
Q 1028 -1241 775 -1147 
L 775 -588 
Q 1028 -725 1275 -790 
Q 1522 -856 1778 -856 
Q 2344 -856 2625 -561 
Q 2906 -266 2906 331 
L 2906 616 
Q 2728 306 2450 153 
Q 2172 0 1784 0 
Q 1141 0 747 490 
Q 353 981 353 1791 
Q 353 2603 747 3093 
Q 1141 3584 1784 3584 
Q 2172 3584 2450 3431 
Q 2728 3278 2906 2969 
L 2906 3500 
L 3481 3500 
L 3481 434 
z
" transform="scale(0.015625)"/>
      <path id="DejaVuSans-65" d="M 3597 1894 
L 3597 1613 
L 953 1613 
Q 991 1019 1311 708 
Q 1631 397 2203 397 
Q 2534 397 2845 478 
Q 3156 559 3463 722 
L 3463 178 
Q 3153 47 2828 -22 
Q 2503 -91 2169 -91 
Q 1331 -91 842 396 
Q 353 884 353 1716 
Q 353 2575 817 3079 
Q 1281 3584 2069 3584 
Q 2775 3584 3186 3129 
Q 3597 2675 3597 1894 
z
M 3022 2063 
Q 3016 2534 2758 2815 
Q 2500 3097 2075 3097 
Q 1594 3097 1305 2825 
Q 1016 2553 972 2059 
L 3022 2063 
z
" transform="scale(0.015625)"/>
      <path id="DejaVuSans-74" d="M 1172 4494 
L 1172 3500 
L 2356 3500 
L 2356 3053 
L 1172 3053 
L 1172 1153 
Q 1172 725 1289 603 
Q 1406 481 1766 481 
L 2356 481 
L 2356 0 
L 1766 0 
Q 1100 0 847 248 
Q 594 497 594 1153 
L 594 3053 
L 172 3053 
L 172 3500 
L 594 3500 
L 594 4494 
L 1172 4494 
z
" transform="scale(0.015625)"/>
      <path id="DejaVuSans-5f" d="M 3263 -1063 
L 3263 -1509 
L -63 -1509 
L -63 -1063 
L 3263 -1063 
z
" transform="scale(0.015625)"/>
      <path id="DejaVuSans-73" d="M 2834 3397 
L 2834 2853 
Q 2591 2978 2328 3040 
Q 2066 3103 1784 3103 
Q 1356 3103 1142 2972 
Q 928 2841 928 2578 
Q 928 2378 1081 2264 
Q 1234 2150 1697 2047 
L 1894 2003 
Q 2506 1872 2764 1633 
Q 3022 1394 3022 966 
Q 3022 478 2636 193 
Q 2250 -91 1575 -91 
Q 1294 -91 989 -36 
Q 684 19 347 128 
L 347 722 
Q 666 556 975 473 
Q 1284 391 1588 391 
Q 1994 391 2212 530 
Q 2431 669 2431 922 
Q 2431 1156 2273 1281 
Q 2116 1406 1581 1522 
L 1381 1569 
Q 847 1681 609 1914 
Q 372 2147 372 2553 
Q 372 3047 722 3315 
Q 1072 3584 1716 3584 
Q 2034 3584 2315 3537 
Q 2597 3491 2834 3397 
z
" transform="scale(0.015625)"/>
      <path id="DejaVuSans-75" d="M 544 1381 
L 544 3500 
L 1119 3500 
L 1119 1403 
Q 1119 906 1312 657 
Q 1506 409 1894 409 
Q 2359 409 2629 706 
Q 2900 1003 2900 1516 
L 2900 3500 
L 3475 3500 
L 3475 0 
L 2900 0 
L 2900 538 
Q 2691 219 2414 64 
Q 2138 -91 1772 -91 
Q 1169 -91 856 284 
Q 544 659 544 1381 
z
M 1991 3584 
L 1991 3584 
z
" transform="scale(0.015625)"/>
      <path id="DejaVuSans-62" d="M 3116 1747 
Q 3116 2381 2855 2742 
Q 2594 3103 2138 3103 
Q 1681 3103 1420 2742 
Q 1159 2381 1159 1747 
Q 1159 1113 1420 752 
Q 1681 391 2138 391 
Q 2594 391 2855 752 
Q 3116 1113 3116 1747 
z
M 1159 2969 
Q 1341 3281 1617 3432 
Q 1894 3584 2278 3584 
Q 2916 3584 3314 3078 
Q 3713 2572 3713 1747 
Q 3713 922 3314 415 
Q 2916 -91 2278 -91 
Q 1894 -91 1617 61 
Q 1341 213 1159 525 
L 1159 0 
L 581 0 
L 581 4863 
L 1159 4863 
L 1159 2969 
z
" transform="scale(0.015625)"/>
      <path id="DejaVuSans-63" d="M 3122 3366 
L 3122 2828 
Q 2878 2963 2633 3030 
Q 2388 3097 2138 3097 
Q 1578 3097 1268 2742 
Q 959 2388 959 1747 
Q 959 1106 1268 751 
Q 1578 397 2138 397 
Q 2388 397 2633 464 
Q 2878 531 3122 666 
L 3122 134 
Q 2881 22 2623 -34 
Q 2366 -91 2075 -91 
Q 1284 -91 818 406 
Q 353 903 353 1747 
Q 353 2603 823 3093 
Q 1294 3584 2113 3584 
Q 2378 3584 2631 3529 
Q 2884 3475 3122 3366 
z
" transform="scale(0.015625)"/>
      <path id="DejaVuSans-72" d="M 2631 2963 
Q 2534 3019 2420 3045 
Q 2306 3072 2169 3072 
Q 1681 3072 1420 2755 
Q 1159 2438 1159 1844 
L 1159 0 
L 581 0 
L 581 3500 
L 1159 3500 
L 1159 2956 
Q 1341 3275 1631 3429 
Q 1922 3584 2338 3584 
Q 2397 3584 2469 3576 
Q 2541 3569 2628 3553 
L 2631 2963 
z
" transform="scale(0.015625)"/>
      <path id="DejaVuSans-69" d="M 603 3500 
L 1178 3500 
L 1178 0 
L 603 0 
L 603 3500 
z
M 603 4863 
L 1178 4863 
L 1178 4134 
L 603 4134 
L 603 4863 
z
" transform="scale(0.015625)"/>
      <path id="DejaVuSans-20" transform="scale(0.015625)"/>
      <path id="DejaVuSans-68" d="M 3513 2113 
L 3513 0 
L 2938 0 
L 2938 2094 
Q 2938 2591 2744 2837 
Q 2550 3084 2163 3084 
Q 1697 3084 1428 2787 
Q 1159 2491 1159 1978 
L 1159 0 
L 581 0 
L 581 4863 
L 1159 4863 
L 1159 2956 
Q 1366 3272 1645 3428 
Q 1925 3584 2291 3584 
Q 2894 3584 3203 3211 
Q 3513 2838 3513 2113 
z
" transform="scale(0.015625)"/>
      <path id="DejaVuSans-6f" d="M 1959 3097 
Q 1497 3097 1228 2736 
Q 959 2375 959 1747 
Q 959 1119 1226 758 
Q 1494 397 1959 397 
Q 2419 397 2687 759 
Q 2956 1122 2956 1747 
Q 2956 2369 2687 2733 
Q 2419 3097 1959 3097 
z
M 1959 3584 
Q 2709 3584 3137 3096 
Q 3566 2609 3566 1747 
Q 3566 888 3137 398 
Q 2709 -91 1959 -91 
Q 1206 -91 779 398 
Q 353 888 353 1747 
Q 353 2609 779 3096 
Q 1206 3584 1959 3584 
z
" transform="scale(0.015625)"/>
      <path id="DejaVuSans-79" d="M 2059 -325 
Q 1816 -950 1584 -1140 
Q 1353 -1331 966 -1331 
L 506 -1331 
L 506 -850 
L 844 -850 
Q 1081 -850 1212 -737 
Q 1344 -625 1503 -206 
L 1606 56 
L 191 3500 
L 800 3500 
L 1894 763 
L 2988 3500 
L 3597 3500 
L 2059 -325 
z
" transform="scale(0.015625)"/>
     </defs>
     <use xlink:href="#DejaVuSans-67"/>
     <use xlink:href="#DejaVuSans-65" x="63.476562"/>
     <use xlink:href="#DejaVuSans-74" x="125"/>
     <use xlink:href="#DejaVuSans-5f" x="164.208984"/>
     <use xlink:href="#DejaVuSans-73" x="214.208984"/>
     <use xlink:href="#DejaVuSans-75" x="266.308594"/>
     <use xlink:href="#DejaVuSans-62" x="329.6875"/>
     <use xlink:href="#DejaVuSans-73" x="393.164062"/>
     <use xlink:href="#DejaVuSans-63" x="445.263672"/>
     <use xlink:href="#DejaVuSans-72" x="500.244141"/>
     <use xlink:href="#DejaVuSans-69" x="541.357422"/>
     <use xlink:href="#DejaVuSans-62" x="569.140625"/>
     <use xlink:href="#DejaVuSans-65" x="632.617188"/>
     <use xlink:href="#DejaVuSans-20" x="694.140625"/>
     <use xlink:href="#DejaVuSans-68" x="725.927734"/>
     <use xlink:href="#DejaVuSans-69" x="789.306641"/>
     <use xlink:href="#DejaVuSans-73" x="817.089844"/>
     <use xlink:href="#DejaVuSans-74" x="869.189453"/>
     <use xlink:href="#DejaVuSans-6f" x="908.398438"/>
     <use xlink:href="#DejaVuSans-72" x="969.580078"/>
     <use xlink:href="#DejaVuSans-79" x="1010.693359"/>
    </g>
   </g>
   <g id="legend_1">
    <g id="line2d_35">
     <path d="M 815.08 328.498438 
L 825.08 328.498438 
L 835.08 328.498438 
" style="fill: none; stroke: #1f77b4; stroke-width: 1.5; stroke-linecap: square"/>
    </g>
    <g id="text_18">
     <!-- star -->
     <g style="fill: #a9a9a9" transform="translate(843.08 331.998438) scale(0.1 -0.1)">
      <defs>
       <path id="DejaVuSans-61" d="M 2194 1759 
Q 1497 1759 1228 1600 
Q 959 1441 959 1056 
Q 959 750 1161 570 
Q 1363 391 1709 391 
Q 2188 391 2477 730 
Q 2766 1069 2766 1631 
L 2766 1759 
L 2194 1759 
z
M 3341 1997 
L 3341 0 
L 2766 0 
L 2766 531 
Q 2569 213 2275 61 
Q 1981 -91 1556 -91 
Q 1019 -91 701 211 
Q 384 513 384 1019 
Q 384 1609 779 1909 
Q 1175 2209 1959 2209 
L 2766 2209 
L 2766 2266 
Q 2766 2663 2505 2880 
Q 2244 3097 1772 3097 
Q 1472 3097 1187 3025 
Q 903 2953 641 2809 
L 641 3341 
Q 956 3463 1253 3523 
Q 1550 3584 1831 3584 
Q 2591 3584 2966 3190 
Q 3341 2797 3341 1997 
z
" transform="scale(0.015625)"/>
      </defs>
      <use xlink:href="#DejaVuSans-73"/>
      <use xlink:href="#DejaVuSans-74" x="52.099609"/>
      <use xlink:href="#DejaVuSans-61" x="91.308594"/>
      <use xlink:href="#DejaVuSans-72" x="152.587891"/>
     </g>
    </g>
    <g id="line2d_36">
     <path d="M 815.08 343.176562 
L 825.08 343.176562 
L 835.08 343.176562 
" style="fill: none; stroke: #ff7f0e; stroke-width: 1.5; stroke-linecap: square"/>
    </g>
    <g id="text_19">
     <!-- fork -->
     <g style="fill: #a9a9a9" transform="translate(843.08 346.676562) scale(0.1 -0.1)">
      <defs>
       <path id="DejaVuSans-66" d="M 2375 4863 
L 2375 4384 
L 1825 4384 
Q 1516 4384 1395 4259 
Q 1275 4134 1275 3809 
L 1275 3500 
L 2222 3500 
L 2222 3053 
L 1275 3053 
L 1275 0 
L 697 0 
L 697 3053 
L 147 3053 
L 147 3500 
L 697 3500 
L 697 3744 
Q 697 4328 969 4595 
Q 1241 4863 1831 4863 
L 2375 4863 
z
" transform="scale(0.015625)"/>
       <path id="DejaVuSans-6b" d="M 581 4863 
L 1159 4863 
L 1159 1991 
L 2875 3500 
L 3609 3500 
L 1753 1863 
L 3688 0 
L 2938 0 
L 1159 1709 
L 1159 0 
L 581 0 
L 581 4863 
z
" transform="scale(0.015625)"/>
      </defs>
      <use xlink:href="#DejaVuSans-66"/>
      <use xlink:href="#DejaVuSans-6f" x="35.205078"/>
      <use xlink:href="#DejaVuSans-72" x="96.386719"/>
      <use xlink:href="#DejaVuSans-6b" x="137.5"/>
     </g>
    </g>
   </g>
  </g>
 </g>
 <defs>
  <clipPath id="p44aab8caee">
   <rect x="108" y="43.2" width="669.6" height="277.2"/>
  </clipPath>
 </defs>
</svg>
