<?xml version="1.0" encoding="utf-8" standalone="no"?>
<!DOCTYPE svg PUBLIC "-//W3C//DTD SVG 1.1//EN"
  "http://www.w3.org/Graphics/SVG/1.1/DTD/svg11.dtd">
<svg xmlns:xlink="http://www.w3.org/1999/xlink" width="864pt" height="360pt" viewBox="0 0 864 360" xmlns="http://www.w3.org/2000/svg" version="1.1">
 <metadata>
  <rdf:RDF xmlns:dc="http://purl.org/dc/elements/1.1/" xmlns:cc="http://creativecommons.org/ns#" xmlns:rdf="http://www.w3.org/1999/02/22-rdf-syntax-ns#">
   <cc:Work>
    <dc:type rdf:resource="http://purl.org/dc/dcmitype/StillImage"/>
    <dc:date>2024-03-06T20:05:31.008764</dc:date>
    <dc:format>image/svg+xml</dc:format>
    <dc:creator>
     <cc:Agent>
      <dc:title>Matplotlib v3.8.3, https://matplotlib.org/</dc:title>
     </cc:Agent>
    </dc:creator>
   </cc:Work>
  </rdf:RDF>
 </metadata>
 <defs>
  <style type="text/css">*{stroke-linejoin: round; stroke-linecap: butt}</style>
 </defs>
 <g id="figure_1">
  <g id="patch_1">
   <path d="M 0 360 
L 864 360 
L 864 0 
L 0 0 
L 0 360 
z
" style="fill: none; opacity: 0"/>
  </g>
  <g id="axes_1">
   <g id="patch_2">
    <path d="M 108 320.4 
L 777.6 320.4 
L 777.6 43.2 
L 108 43.2 
L 108 320.4 
z
" style="fill: none; opacity: 0"/>
   </g>
   <g id="matplotlib.axis_1">
    <g id="xtick_1">
     <g id="line2d_1">
      <path d="M 163.26938 320.4 
L 163.26938 43.2 
" clip-path="url(#pbe86be881d)" style="fill: none; stroke-dasharray: 5.12,1.28,0.8,1.28; stroke-dashoffset: 0; stroke: #b0b0b0; stroke-width: 0.8"/>
     </g>
     <g id="line2d_2">
      <defs>
       <path id="mfa55217b59" d="M 0 0 
L 0 3.5 
" style="stroke: #a9a9a9; stroke-width: 0.8"/>
      </defs>
      <g>
       <use xlink:href="#mfa55217b59" x="163.26938" y="320.4" style="fill: #a9a9a9; stroke: #a9a9a9; stroke-width: 0.8"/>
      </g>
     </g>
     <g id="text_1">
      <!-- 2021-09 -->
      <g style="fill: #a9a9a9" transform="translate(142.377974 334.998438) scale(0.1 -0.1)">
       <defs>
        <path id="DejaVuSans-32" d="M 1228 531 
L 3431 531 
L 3431 0 
L 469 0 
L 469 531 
Q 828 903 1448 1529 
Q 2069 2156 2228 2338 
Q 2531 2678 2651 2914 
Q 2772 3150 2772 3378 
Q 2772 3750 2511 3984 
Q 2250 4219 1831 4219 
Q 1534 4219 1204 4116 
Q 875 4013 500 3803 
L 500 4441 
Q 881 4594 1212 4672 
Q 1544 4750 1819 4750 
Q 2544 4750 2975 4387 
Q 3406 4025 3406 3419 
Q 3406 3131 3298 2873 
Q 3191 2616 2906 2266 
Q 2828 2175 2409 1742 
Q 1991 1309 1228 531 
z
" transform="scale(0.015625)"/>
        <path id="DejaVuSans-30" d="M 2034 4250 
Q 1547 4250 1301 3770 
Q 1056 3291 1056 2328 
Q 1056 1369 1301 889 
Q 1547 409 2034 409 
Q 2525 409 2770 889 
Q 3016 1369 3016 2328 
Q 3016 3291 2770 3770 
Q 2525 4250 2034 4250 
z
M 2034 4750 
Q 2819 4750 3233 4129 
Q 3647 3509 3647 2328 
Q 3647 1150 3233 529 
Q 2819 -91 2034 -91 
Q 1250 -91 836 529 
Q 422 1150 422 2328 
Q 422 3509 836 4129 
Q 1250 4750 2034 4750 
z
" transform="scale(0.015625)"/>
        <path id="DejaVuSans-31" d="M 794 531 
L 1825 531 
L 1825 4091 
L 703 3866 
L 703 4441 
L 1819 4666 
L 2450 4666 
L 2450 531 
L 3481 531 
L 3481 0 
L 794 0 
L 794 531 
z
" transform="scale(0.015625)"/>
        <path id="DejaVuSans-2d" d="M 313 2009 
L 1997 2009 
L 1997 1497 
L 313 1497 
L 313 2009 
z
" transform="scale(0.015625)"/>
        <path id="DejaVuSans-39" d="M 703 97 
L 703 672 
Q 941 559 1184 500 
Q 1428 441 1663 441 
Q 2288 441 2617 861 
Q 2947 1281 2994 2138 
Q 2813 1869 2534 1725 
Q 2256 1581 1919 1581 
Q 1219 1581 811 2004 
Q 403 2428 403 3163 
Q 403 3881 828 4315 
Q 1253 4750 1959 4750 
Q 2769 4750 3195 4129 
Q 3622 3509 3622 2328 
Q 3622 1225 3098 567 
Q 2575 -91 1691 -91 
Q 1453 -91 1209 -44 
Q 966 3 703 97 
z
M 1959 2075 
Q 2384 2075 2632 2365 
Q 2881 2656 2881 3163 
Q 2881 3666 2632 3958 
Q 2384 4250 1959 4250 
Q 1534 4250 1286 3958 
Q 1038 3666 1038 3163 
Q 1038 2656 1286 2365 
Q 1534 2075 1959 2075 
z
" transform="scale(0.015625)"/>
       </defs>
       <use xlink:href="#DejaVuSans-32"/>
       <use xlink:href="#DejaVuSans-30" x="63.623047"/>
       <use xlink:href="#DejaVuSans-32" x="127.246094"/>
       <use xlink:href="#DejaVuSans-31" x="190.869141"/>
       <use xlink:href="#DejaVuSans-2d" x="254.492188"/>
       <use xlink:href="#DejaVuSans-30" x="290.576172"/>
       <use xlink:href="#DejaVuSans-39" x="354.199219"/>
      </g>
     </g>
    </g>
    <g id="xtick_2">
     <g id="line2d_3">
      <path d="M 240.952149 320.4 
L 240.952149 43.2 
" clip-path="url(#pbe86be881d)" style="fill: none; stroke-dasharray: 5.12,1.28,0.8,1.28; stroke-dashoffset: 0; stroke: #b0b0b0; stroke-width: 0.8"/>
     </g>
     <g id="line2d_4">
      <g>
       <use xlink:href="#mfa55217b59" x="240.952149" y="320.4" style="fill: #a9a9a9; stroke: #a9a9a9; stroke-width: 0.8"/>
      </g>
     </g>
     <g id="text_2">
      <!-- 2022-01 -->
      <g style="fill: #a9a9a9" transform="translate(220.060743 334.998438) scale(0.1 -0.1)">
       <use xlink:href="#DejaVuSans-32"/>
       <use xlink:href="#DejaVuSans-30" x="63.623047"/>
       <use xlink:href="#DejaVuSans-32" x="127.246094"/>
       <use xlink:href="#DejaVuSans-32" x="190.869141"/>
       <use xlink:href="#DejaVuSans-2d" x="254.492188"/>
       <use xlink:href="#DejaVuSans-30" x="290.576172"/>
       <use xlink:href="#DejaVuSans-31" x="354.199219"/>
      </g>
     </g>
    </g>
    <g id="xtick_3">
     <g id="line2d_5">
      <path d="M 317.36143 320.4 
L 317.36143 43.2 
" clip-path="url(#pbe86be881d)" style="fill: none; stroke-dasharray: 5.12,1.28,0.8,1.28; stroke-dashoffset: 0; stroke: #b0b0b0; stroke-width: 0.8"/>
     </g>
     <g id="line2d_6">
      <g>
       <use xlink:href="#mfa55217b59" x="317.36143" y="320.4" style="fill: #a9a9a9; stroke: #a9a9a9; stroke-width: 0.8"/>
      </g>
     </g>
     <g id="text_3">
      <!-- 2022-05 -->
      <g style="fill: #a9a9a9" transform="translate(296.470024 334.998438) scale(0.1 -0.1)">
       <defs>
        <path id="DejaVuSans-35" d="M 691 4666 
L 3169 4666 
L 3169 4134 
L 1269 4134 
L 1269 2991 
Q 1406 3038 1543 3061 
Q 1681 3084 1819 3084 
Q 2600 3084 3056 2656 
Q 3513 2228 3513 1497 
Q 3513 744 3044 326 
Q 2575 -91 1722 -91 
Q 1428 -91 1123 -41 
Q 819 9 494 109 
L 494 744 
Q 775 591 1075 516 
Q 1375 441 1709 441 
Q 2250 441 2565 725 
Q 2881 1009 2881 1497 
Q 2881 1984 2565 2268 
Q 2250 2553 1709 2553 
Q 1456 2553 1204 2497 
Q 953 2441 691 2322 
L 691 4666 
z
" transform="scale(0.015625)"/>
       </defs>
       <use xlink:href="#DejaVuSans-32"/>
       <use xlink:href="#DejaVuSans-30" x="63.623047"/>
       <use xlink:href="#DejaVuSans-32" x="127.246094"/>
       <use xlink:href="#DejaVuSans-32" x="190.869141"/>
       <use xlink:href="#DejaVuSans-2d" x="254.492188"/>
       <use xlink:href="#DejaVuSans-30" x="290.576172"/>
       <use xlink:href="#DejaVuSans-35" x="354.199219"/>
      </g>
     </g>
    </g>
    <g id="xtick_4">
     <g id="line2d_7">
      <path d="M 395.680943 320.4 
L 395.680943 43.2 
" clip-path="url(#pbe86be881d)" style="fill: none; stroke-dasharray: 5.12,1.28,0.8,1.28; stroke-dashoffset: 0; stroke: #b0b0b0; stroke-width: 0.8"/>
     </g>
     <g id="line2d_8">
      <g>
       <use xlink:href="#mfa55217b59" x="395.680943" y="320.4" style="fill: #a9a9a9; stroke: #a9a9a9; stroke-width: 0.8"/>
      </g>
     </g>
     <g id="text_4">
      <!-- 2022-09 -->
      <g style="fill: #a9a9a9" transform="translate(374.789537 334.998438) scale(0.1 -0.1)">
       <use xlink:href="#DejaVuSans-32"/>
       <use xlink:href="#DejaVuSans-30" x="63.623047"/>
       <use xlink:href="#DejaVuSans-32" x="127.246094"/>
       <use xlink:href="#DejaVuSans-32" x="190.869141"/>
       <use xlink:href="#DejaVuSans-2d" x="254.492188"/>
       <use xlink:href="#DejaVuSans-30" x="290.576172"/>
       <use xlink:href="#DejaVuSans-39" x="354.199219"/>
      </g>
     </g>
    </g>
    <g id="xtick_5">
     <g id="line2d_9">
      <path d="M 473.363712 320.4 
L 473.363712 43.2 
" clip-path="url(#pbe86be881d)" style="fill: none; stroke-dasharray: 5.12,1.28,0.8,1.28; stroke-dashoffset: 0; stroke: #b0b0b0; stroke-width: 0.8"/>
     </g>
     <g id="line2d_10">
      <g>
       <use xlink:href="#mfa55217b59" x="473.363712" y="320.4" style="fill: #a9a9a9; stroke: #a9a9a9; stroke-width: 0.8"/>
      </g>
     </g>
     <g id="text_5">
      <!-- 2023-01 -->
      <g style="fill: #a9a9a9" transform="translate(452.472306 334.998438) scale(0.1 -0.1)">
       <defs>
        <path id="DejaVuSans-33" d="M 2597 2516 
Q 3050 2419 3304 2112 
Q 3559 1806 3559 1356 
Q 3559 666 3084 287 
Q 2609 -91 1734 -91 
Q 1441 -91 1130 -33 
Q 819 25 488 141 
L 488 750 
Q 750 597 1062 519 
Q 1375 441 1716 441 
Q 2309 441 2620 675 
Q 2931 909 2931 1356 
Q 2931 1769 2642 2001 
Q 2353 2234 1838 2234 
L 1294 2234 
L 1294 2753 
L 1863 2753 
Q 2328 2753 2575 2939 
Q 2822 3125 2822 3475 
Q 2822 3834 2567 4026 
Q 2313 4219 1838 4219 
Q 1578 4219 1281 4162 
Q 984 4106 628 3988 
L 628 4550 
Q 988 4650 1302 4700 
Q 1616 4750 1894 4750 
Q 2613 4750 3031 4423 
Q 3450 4097 3450 3541 
Q 3450 3153 3228 2886 
Q 3006 2619 2597 2516 
z
" transform="scale(0.015625)"/>
       </defs>
       <use xlink:href="#DejaVuSans-32"/>
       <use xlink:href="#DejaVuSans-30" x="63.623047"/>
       <use xlink:href="#DejaVuSans-32" x="127.246094"/>
       <use xlink:href="#DejaVuSans-33" x="190.869141"/>
       <use xlink:href="#DejaVuSans-2d" x="254.492188"/>
       <use xlink:href="#DejaVuSans-30" x="290.576172"/>
       <use xlink:href="#DejaVuSans-31" x="354.199219"/>
      </g>
     </g>
    </g>
    <g id="xtick_6">
     <g id="line2d_11">
      <path d="M 549.772994 320.4 
L 549.772994 43.2 
" clip-path="url(#pbe86be881d)" style="fill: none; stroke-dasharray: 5.12,1.28,0.8,1.28; stroke-dashoffset: 0; stroke: #b0b0b0; stroke-width: 0.8"/>
     </g>
     <g id="line2d_12">
      <g>
       <use xlink:href="#mfa55217b59" x="549.772994" y="320.4" style="fill: #a9a9a9; stroke: #a9a9a9; stroke-width: 0.8"/>
      </g>
     </g>
     <g id="text_6">
      <!-- 2023-05 -->
      <g style="fill: #a9a9a9" transform="translate(528.881587 334.998438) scale(0.1 -0.1)">
       <use xlink:href="#DejaVuSans-32"/>
       <use xlink:href="#DejaVuSans-30" x="63.623047"/>
       <use xlink:href="#DejaVuSans-32" x="127.246094"/>
       <use xlink:href="#DejaVuSans-33" x="190.869141"/>
       <use xlink:href="#DejaVuSans-2d" x="254.492188"/>
       <use xlink:href="#DejaVuSans-30" x="290.576172"/>
       <use xlink:href="#DejaVuSans-35" x="354.199219"/>
      </g>
     </g>
    </g>
    <g id="xtick_7">
     <g id="line2d_13">
      <path d="M 628.092507 320.4 
L 628.092507 43.2 
" clip-path="url(#pbe86be881d)" style="fill: none; stroke-dasharray: 5.12,1.28,0.8,1.28; stroke-dashoffset: 0; stroke: #b0b0b0; stroke-width: 0.8"/>
     </g>
     <g id="line2d_14">
      <g>
       <use xlink:href="#mfa55217b59" x="628.092507" y="320.4" style="fill: #a9a9a9; stroke: #a9a9a9; stroke-width: 0.8"/>
      </g>
     </g>
     <g id="text_7">
      <!-- 2023-09 -->
      <g style="fill: #a9a9a9" transform="translate(607.2011 334.998438) scale(0.1 -0.1)">
       <use xlink:href="#DejaVuSans-32"/>
       <use xlink:href="#DejaVuSans-30" x="63.623047"/>
       <use xlink:href="#DejaVuSans-32" x="127.246094"/>
       <use xlink:href="#DejaVuSans-33" x="190.869141"/>
       <use xlink:href="#DejaVuSans-2d" x="254.492188"/>
       <use xlink:href="#DejaVuSans-30" x="290.576172"/>
       <use xlink:href="#DejaVuSans-39" x="354.199219"/>
      </g>
     </g>
    </g>
    <g id="xtick_8">
     <g id="line2d_15">
      <path d="M 705.775276 320.4 
L 705.775276 43.2 
" clip-path="url(#pbe86be881d)" style="fill: none; stroke-dasharray: 5.12,1.28,0.8,1.28; stroke-dashoffset: 0; stroke: #b0b0b0; stroke-width: 0.8"/>
     </g>
     <g id="line2d_16">
      <g>
       <use xlink:href="#mfa55217b59" x="705.775276" y="320.4" style="fill: #a9a9a9; stroke: #a9a9a9; stroke-width: 0.8"/>
      </g>
     </g>
     <g id="text_8">
      <!-- 2024-01 -->
      <g style="fill: #a9a9a9" transform="translate(684.88387 334.998438) scale(0.1 -0.1)">
       <defs>
        <path id="DejaVuSans-34" d="M 2419 4116 
L 825 1625 
L 2419 1625 
L 2419 4116 
z
M 2253 4666 
L 3047 4666 
L 3047 1625 
L 3713 1625 
L 3713 1100 
L 3047 1100 
L 3047 0 
L 2419 0 
L 2419 1100 
L 313 1100 
L 313 1709 
L 2253 4666 
z
" transform="scale(0.015625)"/>
       </defs>
       <use xlink:href="#DejaVuSans-32"/>
       <use xlink:href="#DejaVuSans-30" x="63.623047"/>
       <use xlink:href="#DejaVuSans-32" x="127.246094"/>
       <use xlink:href="#DejaVuSans-34" x="190.869141"/>
       <use xlink:href="#DejaVuSans-2d" x="254.492188"/>
       <use xlink:href="#DejaVuSans-30" x="290.576172"/>
       <use xlink:href="#DejaVuSans-31" x="354.199219"/>
      </g>
     </g>
    </g>
   </g>
   <g id="matplotlib.axis_2">
    <g id="ytick_1">
     <g id="line2d_17">
      <path d="M 108 307.843979 
L 777.6 307.843979 
" clip-path="url(#pbe86be881d)" style="fill: none; stroke-dasharray: 5.12,1.28,0.8,1.28; stroke-dashoffset: 0; stroke: #b0b0b0; stroke-width: 0.8"/>
     </g>
     <g id="line2d_18">
      <defs>
       <path id="maa25eb53ff" d="M 0 0 
L -3.5 0 
" style="stroke: #a9a9a9; stroke-width: 0.8"/>
      </defs>
      <g>
       <use xlink:href="#maa25eb53ff" x="108" y="307.843979" style="fill: #a9a9a9; stroke: #a9a9a9; stroke-width: 0.8"/>
      </g>
     </g>
     <g id="text_9">
      <!-- 0 -->
      <g style="fill: #a9a9a9" transform="translate(94.6375 311.643198) scale(0.1 -0.1)">
       <use xlink:href="#DejaVuSans-30"/>
      </g>
     </g>
    </g>
    <g id="ytick_2">
     <g id="line2d_19">
      <path d="M 108 272.660733 
L 777.6 272.660733 
" clip-path="url(#pbe86be881d)" style="fill: none; stroke-dasharray: 5.12,1.28,0.8,1.28; stroke-dashoffset: 0; stroke: #b0b0b0; stroke-width: 0.8"/>
     </g>
     <g id="line2d_20">
      <g>
       <use xlink:href="#maa25eb53ff" x="108" y="272.660733" style="fill: #a9a9a9; stroke: #a9a9a9; stroke-width: 0.8"/>
      </g>
     </g>
     <g id="text_10">
      <!-- 800 -->
      <g style="fill: #a9a9a9" transform="translate(81.9125 276.459952) scale(0.1 -0.1)">
       <defs>
        <path id="DejaVuSans-38" d="M 2034 2216 
Q 1584 2216 1326 1975 
Q 1069 1734 1069 1313 
Q 1069 891 1326 650 
Q 1584 409 2034 409 
Q 2484 409 2743 651 
Q 3003 894 3003 1313 
Q 3003 1734 2745 1975 
Q 2488 2216 2034 2216 
z
M 1403 2484 
Q 997 2584 770 2862 
Q 544 3141 544 3541 
Q 544 4100 942 4425 
Q 1341 4750 2034 4750 
Q 2731 4750 3128 4425 
Q 3525 4100 3525 3541 
Q 3525 3141 3298 2862 
Q 3072 2584 2669 2484 
Q 3125 2378 3379 2068 
Q 3634 1759 3634 1313 
Q 3634 634 3220 271 
Q 2806 -91 2034 -91 
Q 1263 -91 848 271 
Q 434 634 434 1313 
Q 434 1759 690 2068 
Q 947 2378 1403 2484 
z
M 1172 3481 
Q 1172 3119 1398 2916 
Q 1625 2713 2034 2713 
Q 2441 2713 2670 2916 
Q 2900 3119 2900 3481 
Q 2900 3844 2670 4047 
Q 2441 4250 2034 4250 
Q 1625 4250 1398 4047 
Q 1172 3844 1172 3481 
z
" transform="scale(0.015625)"/>
       </defs>
       <use xlink:href="#DejaVuSans-38"/>
       <use xlink:href="#DejaVuSans-30" x="63.623047"/>
       <use xlink:href="#DejaVuSans-30" x="127.246094"/>
      </g>
     </g>
    </g>
    <g id="ytick_3">
     <g id="line2d_21">
      <path d="M 108 237.477487 
L 777.6 237.477487 
" clip-path="url(#pbe86be881d)" style="fill: none; stroke-dasharray: 5.12,1.28,0.8,1.28; stroke-dashoffset: 0; stroke: #b0b0b0; stroke-width: 0.8"/>
     </g>
     <g id="line2d_22">
      <g>
       <use xlink:href="#maa25eb53ff" x="108" y="237.477487" style="fill: #a9a9a9; stroke: #a9a9a9; stroke-width: 0.8"/>
      </g>
     </g>
     <g id="text_11">
      <!-- 1600 -->
      <g style="fill: #a9a9a9" transform="translate(75.55 241.276706) scale(0.1 -0.1)">
       <defs>
        <path id="DejaVuSans-36" d="M 2113 2584 
Q 1688 2584 1439 2293 
Q 1191 2003 1191 1497 
Q 1191 994 1439 701 
Q 1688 409 2113 409 
Q 2538 409 2786 701 
Q 3034 994 3034 1497 
Q 3034 2003 2786 2293 
Q 2538 2584 2113 2584 
z
M 3366 4563 
L 3366 3988 
Q 3128 4100 2886 4159 
Q 2644 4219 2406 4219 
Q 1781 4219 1451 3797 
Q 1122 3375 1075 2522 
Q 1259 2794 1537 2939 
Q 1816 3084 2150 3084 
Q 2853 3084 3261 2657 
Q 3669 2231 3669 1497 
Q 3669 778 3244 343 
Q 2819 -91 2113 -91 
Q 1303 -91 875 529 
Q 447 1150 447 2328 
Q 447 3434 972 4092 
Q 1497 4750 2381 4750 
Q 2619 4750 2861 4703 
Q 3103 4656 3366 4563 
z
" transform="scale(0.015625)"/>
       </defs>
       <use xlink:href="#DejaVuSans-31"/>
       <use xlink:href="#DejaVuSans-36" x="63.623047"/>
       <use xlink:href="#DejaVuSans-30" x="127.246094"/>
       <use xlink:href="#DejaVuSans-30" x="190.869141"/>
      </g>
     </g>
    </g>
    <g id="ytick_4">
     <g id="line2d_23">
      <path d="M 108 202.294241 
L 777.6 202.294241 
" clip-path="url(#pbe86be881d)" style="fill: none; stroke-dasharray: 5.12,1.28,0.8,1.28; stroke-dashoffset: 0; stroke: #b0b0b0; stroke-width: 0.8"/>
     </g>
     <g id="line2d_24">
      <g>
       <use xlink:href="#maa25eb53ff" x="108" y="202.294241" style="fill: #a9a9a9; stroke: #a9a9a9; stroke-width: 0.8"/>
      </g>
     </g>
     <g id="text_12">
      <!-- 2400 -->
      <g style="fill: #a9a9a9" transform="translate(75.55 206.09346) scale(0.1 -0.1)">
       <use xlink:href="#DejaVuSans-32"/>
       <use xlink:href="#DejaVuSans-34" x="63.623047"/>
       <use xlink:href="#DejaVuSans-30" x="127.246094"/>
       <use xlink:href="#DejaVuSans-30" x="190.869141"/>
      </g>
     </g>
    </g>
    <g id="ytick_5">
     <g id="line2d_25">
      <path d="M 108 167.110995 
L 777.6 167.110995 
" clip-path="url(#pbe86be881d)" style="fill: none; stroke-dasharray: 5.12,1.28,0.8,1.28; stroke-dashoffset: 0; stroke: #b0b0b0; stroke-width: 0.8"/>
     </g>
     <g id="line2d_26">
      <g>
       <use xlink:href="#maa25eb53ff" x="108" y="167.110995" style="fill: #a9a9a9; stroke: #a9a9a9; stroke-width: 0.8"/>
      </g>
     </g>
     <g id="text_13">
      <!-- 3200 -->
      <g style="fill: #a9a9a9" transform="translate(75.55 170.910214) scale(0.1 -0.1)">
       <use xlink:href="#DejaVuSans-33"/>
       <use xlink:href="#DejaVuSans-32" x="63.623047"/>
       <use xlink:href="#DejaVuSans-30" x="127.246094"/>
       <use xlink:href="#DejaVuSans-30" x="190.869141"/>
      </g>
     </g>
    </g>
    <g id="ytick_6">
     <g id="line2d_27">
      <path d="M 108 131.927749 
L 777.6 131.927749 
" clip-path="url(#pbe86be881d)" style="fill: none; stroke-dasharray: 5.12,1.28,0.8,1.28; stroke-dashoffset: 0; stroke: #b0b0b0; stroke-width: 0.8"/>
     </g>
     <g id="line2d_28">
      <g>
       <use xlink:href="#maa25eb53ff" x="108" y="131.927749" style="fill: #a9a9a9; stroke: #a9a9a9; stroke-width: 0.8"/>
      </g>
     </g>
     <g id="text_14">
      <!-- 4000 -->
      <g style="fill: #a9a9a9" transform="translate(75.55 135.726967) scale(0.1 -0.1)">
       <use xlink:href="#DejaVuSans-34"/>
       <use xlink:href="#DejaVuSans-30" x="63.623047"/>
       <use xlink:href="#DejaVuSans-30" x="127.246094"/>
       <use xlink:href="#DejaVuSans-30" x="190.869141"/>
      </g>
     </g>
    </g>
    <g id="ytick_7">
     <g id="line2d_29">
      <path d="M 108 96.744503 
L 777.6 96.744503 
" clip-path="url(#pbe86be881d)" style="fill: none; stroke-dasharray: 5.12,1.28,0.8,1.28; stroke-dashoffset: 0; stroke: #b0b0b0; stroke-width: 0.8"/>
     </g>
     <g id="line2d_30">
      <g>
       <use xlink:href="#maa25eb53ff" x="108" y="96.744503" style="fill: #a9a9a9; stroke: #a9a9a9; stroke-width: 0.8"/>
      </g>
     </g>
     <g id="text_15">
      <!-- 4800 -->
      <g style="fill: #a9a9a9" transform="translate(75.55 100.543721) scale(0.1 -0.1)">
       <use xlink:href="#DejaVuSans-34"/>
       <use xlink:href="#DejaVuSans-38" x="63.623047"/>
       <use xlink:href="#DejaVuSans-30" x="127.246094"/>
       <use xlink:href="#DejaVuSans-30" x="190.869141"/>
      </g>
     </g>
    </g>
    <g id="ytick_8">
     <g id="line2d_31">
      <path d="M 108 61.561257 
L 777.6 61.561257 
" clip-path="url(#pbe86be881d)" style="fill: none; stroke-dasharray: 5.12,1.28,0.8,1.28; stroke-dashoffset: 0; stroke: #b0b0b0; stroke-width: 0.8"/>
     </g>
     <g id="line2d_32">
      <g>
       <use xlink:href="#maa25eb53ff" x="108" y="61.561257" style="fill: #a9a9a9; stroke: #a9a9a9; stroke-width: 0.8"/>
      </g>
     </g>
     <g id="text_16">
      <!-- 5600 -->
      <g style="fill: #a9a9a9" transform="translate(75.55 65.360475) scale(0.1 -0.1)">
       <use xlink:href="#DejaVuSans-35"/>
       <use xlink:href="#DejaVuSans-36" x="63.623047"/>
       <use xlink:href="#DejaVuSans-30" x="127.246094"/>
       <use xlink:href="#DejaVuSans-30" x="190.869141"/>
      </g>
     </g>
    </g>
   </g>
   <g id="line2d_33">
    <path d="M 138.436364 307.712042 
L 142.256828 307.404188 
L 142.893572 307.140314 
L 144.803804 306.920419 
L 148.624268 306.172775 
L 152.444732 305.864921 
L 153.081476 305.557068 
L 153.71822 305.381152 
L 154.354964 304.589529 
L 154.991708 304.149738 
L 155.628452 302.786387 
L 156.265196 302.698429 
L 156.90194 302.21466 
L 158.175428 301.598953 
L 160.722404 299.663874 
L 161.995892 299.136126 
L 162.632636 298.696335 
L 165.179612 297.596859 
L 165.816356 296.58534 
L 167.089844 295.66178 
L 167.726588 295.353927 
L 174.094028 294.474346 
L 174.730772 294.166492 
L 179.18798 293.81466 
L 181.098212 293.33089 
L 186.828908 292.583246 
L 187.465652 292.231414 
L 188.102396 292.143455 
L 188.73914 291.879581 
L 190.012628 291.659686 
L 190.649372 291.615707 
L 191.286116 291.395812 
L 193.833092 291 
L 195.10658 290.648168 
L 197.016812 290.472251 
L 198.2903 290.340314 
L 198.927045 290.164398 
L 199.563789 290.120419 
L 201.474021 289.548691 
L 205.294485 288.976963 
L 205.931229 288.801047 
L 206.567973 287.921466 
L 208.478205 287.217801 
L 210.388437 286.690052 
L 211.025181 286.382199 
L 211.661925 286.33822 
L 214.845645 285.458639 
L 216.119133 285.370681 
L 216.755877 285.282723 
L 218.666109 284.710995 
L 221.213085 284.095288 
L 221.849829 283.831414 
L 222.486573 283.743455 
L 223.123317 283.435602 
L 229.490757 282.468063 
L 232.674477 281.588482 
L 233.311221 281.19267 
L 235.858197 280.532984 
L 237.131685 279.78534 
L 237.768429 279.34555 
L 239.678661 278.993717 
L 243.499125 277.850262 
L 244.772613 277.45445 
L 245.409357 277.366492 
L 246.682845 277.01466 
L 247.956333 276.706806 
L 248.593077 276.618848 
L 249.866565 276.091099 
L 250.503309 275.959162 
L 251.140053 275.695288 
L 251.776797 275.60733 
L 252.413541 275.299476 
L 253.050285 275.12356 
L 254.323773 275.035602 
L 255.597261 274.595812 
L 256.870749 274.507853 
L 257.507493 274.2 
L 260.054469 273.760209 
L 262.601445 273.540314 
L 263.238189 273.408377 
L 264.511677 272.79267 
L 271.515862 269.846073 
L 272.152606 269.494241 
L 272.78935 268.790576 
L 273.426094 267.735079 
L 274.062838 266.899476 
L 274.699582 266.72356 
L 275.336326 266.72356 
L 276.609814 265.8 
L 277.246558 265.624084 
L 277.883302 265.272251 
L 278.520046 265.140314 
L 279.15679 264.568586 
L 279.793534 264.39267 
L 281.703766 263.46911 
L 282.977254 261.709948 
L 283.613998 261.314136 
L 284.250742 260.258639 
L 284.887486 259.598953 
L 285.52423 259.291099 
L 286.160974 259.115183 
L 288.70795 257.619895 
L 289.981438 256.608377 
L 290.618182 256.212565 
L 291.254926 255.289005 
L 291.89167 253.837696 
L 292.528414 252.914136 
L 293.165158 252.430366 
L 293.801902 252.166492 
L 296.348878 249.967539 
L 297.622366 248.956021 
L 298.25911 248.428272 
L 298.895854 247.59267 
L 300.169342 246.493194 
L 302.716318 244.865969 
L 303.353062 244.294241 
L 303.989806 244.162304 
L 304.62655 243.898429 
L 305.900038 243.194764 
L 307.81027 242.227225 
L 309.083758 241.039791 
L 309.720502 240.292147 
L 310.99399 239.412565 
L 311.630734 239.236649 
L 312.267478 238.928796 
L 313.540966 238.093194 
L 314.17771 237.741361 
L 314.814454 237.653403 
L 316.087942 236.949738 
L 316.724686 236.597906 
L 317.36143 235.93822 
L 317.998174 235.542408 
L 318.634918 235.322513 
L 319.908406 234.574869 
L 320.54515 234.223037 
L 321.181894 234.003141 
L 323.092126 232.771728 
L 325.002358 232.2 
L 325.639102 231.760209 
L 326.275846 231.628272 
L 327.549334 231.188482 
L 329.459566 230.440838 
L 331.369798 229.737173 
L 332.643286 229.517277 
L 333.916774 228.417801 
L 335.190262 227.802094 
L 336.46375 227.098429 
L 337.100494 226.746597 
L 338.373983 226.394764 
L 339.010727 225.998953 
L 339.647471 225.823037 
L 341.557703 224.635602 
L 344.741423 223.887958 
L 346.651655 222.788482 
L 347.288399 222.700524 
L 347.925143 222.480628 
L 349.198631 222.216754 
L 351.108863 220.809424 
L 353.019095 220.369634 
L 353.655839 220.149738 
L 354.292583 219.665969 
L 358.113047 218.434555 
L 358.749791 218.390576 
L 363.206999 216.80733 
L 363.843743 216.499476 
L 365.753975 216.059686 
L 367.027463 215.751832 
L 367.664207 215.443979 
L 368.300951 215.312042 
L 370.211183 214.432461 
L 372.121415 213.508901 
L 372.758159 213.06911 
L 373.394903 212.893194 
L 375.305135 211.881675 
L 376.578623 211.573822 
L 377.852111 210.914136 
L 379.125599 210.562304 
L 379.762343 210.474346 
L 381.035831 209.726702 
L 381.672575 209.594764 
L 382.946063 209.067016 
L 383.582807 208.935079 
L 384.219551 208.583246 
L 386.766527 208.187435 
L 388.040015 207.571728 
L 388.676759 207.043979 
L 389.313503 205.944503 
L 390.586991 205.680628 
L 391.223735 205.548691 
L 393.770711 204.229319 
L 394.407455 204.097382 
L 399.501407 201.678534 
L 401.411639 201.282723 
L 402.048383 200.93089 
L 405.868847 199.611518 
L 407.142335 198.819895 
L 408.415824 198.072251 
L 409.052568 197.984293 
L 409.689312 197.764398 
L 410.326056 197.720419 
L 413.509776 196.884817 
L 414.14652 196.401047 
L 415.420008 195.961257 
L 417.33024 195.34555 
L 417.966984 194.949738 
L 418.603728 194.773822 
L 419.240472 194.334031 
L 419.877216 194.070157 
L 420.51396 193.674346 
L 421.787448 193.234555 
L 423.69768 192.618848 
L 424.334424 192.310995 
L 426.244656 190.859686 
L 426.8814 190.727749 
L 428.154888 189.760209 
L 428.791632 189.628272 
L 429.428376 188.660733 
L 430.06512 188.396859 
L 430.701864 187.913089 
L 431.338608 187.825131 
L 432.612096 187.077487 
L 433.24884 186.94555 
L 433.885584 186.681675 
L 434.522328 186.197906 
L 435.159072 185.97801 
L 437.069304 184.702618 
L 439.61628 183.427225 
L 440.253024 183.339267 
L 441.526512 182.767539 
L 442.163256 182.415707 
L 442.8 181.360209 
L 443.436744 180.788482 
L 444.073488 180.436649 
L 444.710232 180.304712 
L 445.98372 179.513089 
L 446.620464 179.381152 
L 447.893952 178.765445 
L 449.804184 177.973822 
L 451.077672 177.094241 
L 452.35116 175.774869 
L 455.53488 173.487958 
L 456.808368 172.432461 
L 457.445112 172.168586 
L 458.081856 171.464921 
L 458.7186 170.981152 
L 459.992088 170.541361 
L 460.628832 170.013613 
L 461.90232 169.353927 
L 462.539064 169.17801 
L 463.175808 168.73822 
L 463.812552 168.606283 
L 465.722784 167.594764 
L 466.996272 166.84712 
L 473.363712 164.604188 
L 474.000456 164.032461 
L 475.910688 163.328796 
L 477.184176 162.932984 
L 477.820921 162.449215 
L 480.367897 161.129843 
L 481.004641 160.77801 
L 482.278129 158.271204 
L 483.551617 156.775916 
L 484.825105 156.028272 
L 486.735337 155.280628 
L 487.372081 155.19267 
L 488.008825 154.840838 
L 489.919057 154.26911 
L 492.466033 153.125654 
L 493.102777 152.729843 
L 494.376265 152.290052 
L 498.196729 150.091099 
L 498.833473 149.431414 
L 500.106961 148.727749 
L 500.743705 148.375916 
L 501.380449 148.156021 
L 502.017193 147.71623 
L 503.290681 147.100524 
L 505.200913 146.089005 
L 505.837657 145.913089 
L 506.474401 145.429319 
L 507.111145 145.165445 
L 507.747889 145.033508 
L 509.021377 144.593717 
L 510.931609 143.890052 
L 511.568353 143.450262 
L 512.841841 143.098429 
L 514.115329 142.61466 
L 514.752073 142.13089 
L 516.025561 141.735079 
L 516.662305 141.427225 
L 517.299049 141.251309 
L 518.572537 140.371728 
L 519.846025 139.8 
L 521.119513 138.832461 
L 522.393001 138.39267 
L 523.029745 137.864921 
L 523.666489 137.776963 
L 524.939977 136.853403 
L 526.213465 136.237696 
L 526.850209 135.973822 
L 527.486953 135.358115 
L 531.307417 133.994764 
L 533.217649 133.159162 
L 535.127881 132.587435 
L 536.401369 132.411518 
L 537.038113 132.147644 
L 537.674857 132.059686 
L 538.948345 131.531937 
L 539.585089 131.487958 
L 542.132065 130.564398 
L 544.042297 129.245026 
L 544.679041 128.981152 
L 545.315785 128.58534 
L 547.226017 127.749738 
L 549.13625 126.606283 
L 549.772994 126.210471 
L 551.046482 125.902618 
L 552.31997 125.023037 
L 554.866946 124.231414 
L 555.50369 123.967539 
L 556.777178 123.659686 
L 559.960898 122.648168 
L 561.87113 122.296335 
L 564.418106 121.504712 
L 565.05485 121.240838 
L 565.691594 121.15288 
L 566.328338 120.845026 
L 567.601826 120.581152 
L 568.23857 120.273298 
L 570.148802 119.833508 
L 571.42229 119.569634 
L 575.242754 118.865969 
L 576.516242 118.602094 
L 577.152986 118.470157 
L 577.78973 118.206283 
L 578.426474 118.162304 
L 580.336706 117.634555 
L 580.97345 117.282723 
L 584.15717 116.491099 
L 584.793914 116.359162 
L 586.067402 115.919372 
L 587.977634 115.259686 
L 588.614378 115.171728 
L 590.52461 114.512042 
L 591.161354 114.512042 
L 592.434842 114.072251 
L 593.071586 113.456545 
L 593.70833 113.148691 
L 594.981818 112.75288 
L 597.528794 111.78534 
L 598.165538 111.653403 
L 598.802282 111.257592 
L 599.439026 111.125654 
L 600.07577 110.729843 
L 603.25949 109.806283 
L 603.896234 109.410471 
L 604.532978 109.234555 
L 605.169722 108.706806 
L 607.079954 108.354974 
L 608.353442 107.651309 
L 608.990186 106.947644 
L 610.263674 106.68377 
L 614.720882 105.672251 
L 615.357626 105.496335 
L 616.631114 105.452356 
L 617.267859 105.144503 
L 619.814835 104.704712 
L 620.451579 104.396859 
L 622.361811 104.132984 
L 624.908787 103.341361 
L 626.819019 102.901571 
L 628.729251 102.417801 
L 631.276227 101.626178 
L 631.912971 101.494241 
L 632.549715 101.186387 
L 633.186459 101.098429 
L 633.823203 100.878534 
L 634.459947 100.482723 
L 636.370179 99.779058 
L 637.006923 99.295288 
L 638.280411 98.943455 
L 638.917155 98.679581 
L 640.190643 98.327749 
L 642.737619 97.184293 
L 644.647851 97.052356 
L 647.194827 96.260733 
L 647.831571 95.864921 
L 649.105059 95.46911 
L 651.015291 94.501571 
L 651.652035 94.369634 
L 652.288779 94.06178 
L 652.925523 93.973822 
L 659.929707 91.642932 
L 662.476683 91.027225 
L 663.113427 90.851309 
L 664.386915 90.279581 
L 665.023659 90.191623 
L 666.297147 89.839791 
L 666.933891 89.356021 
L 667.570635 89.048168 
L 668.207379 88.300524 
L 668.844123 87.860733 
L 670.117611 87.464921 
L 670.754355 86.937173 
L 677.758539 84.078534 
L 679.032027 83.770681 
L 680.305515 83.198953 
L 682.215747 82.099476 
L 682.852491 81.967539 
L 683.489235 81.48377 
L 684.762723 80.868063 
L 686.036211 80.07644 
L 687.946444 79.196859 
L 688.583188 78.757068 
L 689.856676 78.273298 
L 691.130164 77.525654 
L 691.766908 77.217801 
L 692.403652 76.77801 
L 693.67714 76.33822 
L 694.313884 76.206283 
L 696.86086 75.062827 
L 700.04458 73.963351 
L 700.681324 73.919372 
L 701.318068 73.743455 
L 701.954812 73.347644 
L 702.591556 73.259686 
L 703.2283 73.039791 
L 705.138532 72.687958 
L 708.322252 71.060733 
L 709.59574 70.357068 
L 710.232484 70.26911 
L 712.142716 69.257592 
L 714.052948 68.553927 
L 715.96318 67.718325 
L 718.510156 66.706806 
L 719.1469 66.53089 
L 719.783644 66.135079 
L 721.057132 65.959162 
L 721.693876 65.563351 
L 722.33062 65.519372 
L 723.604108 65.12356 
L 724.877596 64.507853 
L 725.51434 64.419895 
L 726.151084 64.156021 
L 726.787828 64.024084 
L 728.69806 63.188482 
L 729.334804 63.056545 
L 729.971548 62.79267 
L 733.155268 62.045026 
L 735.0655 61.297382 
L 736.975732 60.153927 
L 738.24922 59.626178 
L 738.885964 59.362304 
L 739.522708 58.966492 
L 740.796196 58.702618 
L 741.43294 58.350785 
L 742.069684 58.218848 
L 743.343172 57.515183 
L 746.526892 55.975916 
L 747.163636 55.8 
L 747.163636 55.8 
" clip-path="url(#pbe86be881d)" style="fill: none; stroke: #1f77b4; stroke-width: 1.5; stroke-linecap: square"/>
   </g>
   <g id="line2d_34">
    <path d="M 139.073108 307.8 
L 140.98334 307.712042 
L 142.893572 307.668063 
L 146.714036 307.580105 
L 149.897756 307.448168 
L 152.444732 307.448168 
L 153.081476 307.272251 
L 155.628452 307.184293 
L 157.538684 306.964398 
L 159.448916 306.788482 
L 163.26938 306.612565 
L 163.906124 306.612565 
L 164.542868 306.480628 
L 167.089844 306.39267 
L 168.363332 306.304712 
L 173.457284 306.216754 
L 176.641004 306.084817 
L 184.281932 305.996859 
L 187.465652 305.864921 
L 191.286116 305.776963 
L 193.833092 305.689005 
L 199.563789 305.601047 
L 201.474021 305.557068 
L 203.384253 305.513089 
L 205.294485 305.293194 
L 209.114949 305.249215 
L 210.388437 305.161257 
L 214.845645 305.073298 
L 221.849829 304.677487 
L 226.307037 304.589529 
L 227.580525 304.501571 
L 229.490757 304.413613 
L 233.311221 304.237696 
L 235.858197 304.193717 
L 237.768429 304.017801 
L 247.956333 303.402094 
L 250.503309 303.314136 
L 254.960517 303.094241 
L 256.870749 303.006283 
L 263.238189 302.65445 
L 270.242374 302.566492 
L 272.78935 302.302618 
L 274.062838 302.21466 
L 282.34051 301.554974 
L 286.160974 301.071204 
L 288.70795 300.983246 
L 293.801902 300.32356 
L 296.985622 300.235602 
L 305.263294 299.575916 
L 308.447014 299.224084 
L 310.99399 299.136126 
L 312.267478 299.048168 
L 314.814454 298.960209 
L 316.087942 298.872251 
L 319.271662 298.564398 
L 319.908406 298.388482 
L 323.72887 298.212565 
L 326.91259 298.124607 
L 335.190262 297.640838 
L 337.100494 297.55288 
L 345.378167 297.06911 
L 349.835375 296.981152 
L 350.472119 296.849215 
L 355.566071 296.761257 
L 360.023279 296.541361 
L 367.027463 296.453403 
L 371.484671 296.233508 
L 376.578623 296.14555 
L 381.672575 295.881675 
L 386.129783 295.793717 
L 398.227919 295.046073 
L 403.321871 294.958115 
L 419.877216 293.902618 
L 423.69768 293.81466 
L 425.607912 293.770681 
L 427.518144 293.726702 
L 429.428376 293.550785 
L 434.522328 293.462827 
L 435.795816 293.242932 
L 437.069304 293.154974 
L 440.253024 293.023037 
L 441.526512 292.935079 
L 442.8 292.84712 
L 448.530696 292.759162 
L 449.804184 292.627225 
L 452.35116 292.583246 
L 452.987904 292.451309 
L 454.261392 292.363351 
L 454.898136 292.231414 
L 456.808368 292.143455 
L 467.633016 291.48377 
L 469.543248 291.395812 
L 472.726968 291.263874 
L 481.641385 291.175916 
L 486.098593 290.956021 
L 491.192545 290.868063 
L 493.739521 290.780105 
L 496.286497 290.736126 
L 497.559985 290.604188 
L 500.106961 290.51623 
L 506.474401 290.164398 
L 510.294865 290.120419 
L 512.205097 289.944503 
L 514.115329 289.900524 
L 518.572537 289.812565 
L 521.119513 289.724607 
L 528.760441 289.636649 
L 531.944161 289.504712 
L 535.764625 289.416754 
L 537.674857 289.196859 
L 541.495321 289.15288 
L 543.405553 288.976963 
L 545.952529 288.889005 
L 553.593458 288.801047 
L 556.777178 288.66911 
L 567.601826 288.625131 
L 568.875314 288.537173 
L 570.785546 288.493194 
L 579.063218 288.405236 
L 580.336706 288.317277 
L 587.34089 288.229319 
L 589.887866 288.141361 
L 597.528794 288.097382 
L 598.802282 288.009424 
L 608.353442 287.965445 
L 610.263674 287.789529 
L 621.088323 287.701571 
L 622.998555 287.657592 
L 639.553899 287.569634 
L 641.464131 287.525654 
L 653.562267 287.437696 
L 656.109243 287.349738 
L 660.566451 287.26178 
L 665.660403 286.997906 
L 668.207379 286.909948 
L 670.754355 286.82199 
L 674.574819 286.734031 
L 676.485051 286.690052 
L 679.032027 286.602094 
L 680.942259 286.558115 
L 684.125979 286.470157 
L 685.399467 286.382199 
L 689.219932 286.294241 
L 692.403652 286.162304 
L 693.67714 286.118325 
L 695.587372 285.942408 
L 699.407836 285.85445 
L 701.954812 285.766492 
L 708.322252 285.678534 
L 711.505972 285.546597 
L 717.873412 285.458639 
L 722.33062 285.238743 
L 728.061316 285.150785 
L 729.334804 285.062827 
L 736.975732 284.974869 
L 738.885964 284.93089 
L 745.890148 284.842932 
L 747.163636 284.754974 
L 747.163636 284.754974 
" clip-path="url(#pbe86be881d)" style="fill: none; stroke: #ff7f0e; stroke-width: 1.5; stroke-linecap: square"/>
   </g>
   <g id="patch_3">
    <path d="M 108 320.4 
L 108 43.2 
" style="fill: none; stroke: #a9a9a9; stroke-width: 0.8; stroke-linejoin: miter; stroke-linecap: square"/>
   </g>
   <g id="patch_4">
    <path d="M 777.6 320.4 
L 777.6 43.2 
" style="fill: none"/>
   </g>
   <g id="patch_5">
    <path d="M 108 320.4 
L 777.6 320.4 
" style="fill: none; stroke: #a9a9a9; stroke-width: 0.8; stroke-linejoin: miter; stroke-linecap: square"/>
   </g>
   <g id="patch_6">
    <path d="M 108 43.2 
L 777.6 43.2 
" style="fill: none"/>
   </g>
   <g id="text_17">
    <!-- get_subscribe history -->
    <g style="fill: #a9a9a9" transform="translate(378.6075 37.2) scale(0.12 -0.12)">
     <defs>
      <path id="DejaVuSans-67" d="M 2906 1791 
Q 2906 2416 2648 2759 
Q 2391 3103 1925 3103 
Q 1463 3103 1205 2759 
Q 947 2416 947 1791 
Q 947 1169 1205 825 
Q 1463 481 1925 481 
Q 2391 481 2648 825 
Q 2906 1169 2906 1791 
z
M 3481 434 
Q 3481 -459 3084 -895 
Q 2688 -1331 1869 -1331 
Q 1566 -1331 1297 -1286 
Q 1028 -1241 775 -1147 
L 775 -588 
Q 1028 -725 1275 -790 
Q 1522 -856 1778 -856 
Q 2344 -856 2625 -561 
Q 2906 -266 2906 331 
L 2906 616 
Q 2728 306 2450 153 
Q 2172 0 1784 0 
Q 1141 0 747 490 
Q 353 981 353 1791 
Q 353 2603 747 3093 
Q 1141 3584 1784 3584 
Q 2172 3584 2450 3431 
Q 2728 3278 2906 2969 
L 2906 3500 
L 3481 3500 
L 3481 434 
z
" transform="scale(0.015625)"/>
      <path id="DejaVuSans-65" d="M 3597 1894 
L 3597 1613 
L 953 1613 
Q 991 1019 1311 708 
Q 1631 397 2203 397 
Q 2534 397 2845 478 
Q 3156 559 3463 722 
L 3463 178 
Q 3153 47 2828 -22 
Q 2503 -91 2169 -91 
Q 1331 -91 842 396 
Q 353 884 353 1716 
Q 353 2575 817 3079 
Q 1281 3584 2069 3584 
Q 2775 3584 3186 3129 
Q 3597 2675 3597 1894 
z
M 3022 2063 
Q 3016 2534 2758 2815 
Q 2500 3097 2075 3097 
Q 1594 3097 1305 2825 
Q 1016 2553 972 2059 
L 3022 2063 
z
" transform="scale(0.015625)"/>
      <path id="DejaVuSans-74" d="M 1172 4494 
L 1172 3500 
L 2356 3500 
L 2356 3053 
L 1172 3053 
L 1172 1153 
Q 1172 725 1289 603 
Q 1406 481 1766 481 
L 2356 481 
L 2356 0 
L 1766 0 
Q 1100 0 847 248 
Q 594 497 594 1153 
L 594 3053 
L 172 3053 
L 172 3500 
L 594 3500 
L 594 4494 
L 1172 4494 
z
" transform="scale(0.015625)"/>
      <path id="DejaVuSans-5f" d="M 3263 -1063 
L 3263 -1509 
L -63 -1509 
L -63 -1063 
L 3263 -1063 
z
" transform="scale(0.015625)"/>
      <path id="DejaVuSans-73" d="M 2834 3397 
L 2834 2853 
Q 2591 2978 2328 3040 
Q 2066 3103 1784 3103 
Q 1356 3103 1142 2972 
Q 928 2841 928 2578 
Q 928 2378 1081 2264 
Q 1234 2150 1697 2047 
L 1894 2003 
Q 2506 1872 2764 1633 
Q 3022 1394 3022 966 
Q 3022 478 2636 193 
Q 2250 -91 1575 -91 
Q 1294 -91 989 -36 
Q 684 19 347 128 
L 347 722 
Q 666 556 975 473 
Q 1284 391 1588 391 
Q 1994 391 2212 530 
Q 2431 669 2431 922 
Q 2431 1156 2273 1281 
Q 2116 1406 1581 1522 
L 1381 1569 
Q 847 1681 609 1914 
Q 372 2147 372 2553 
Q 372 3047 722 3315 
Q 1072 3584 1716 3584 
Q 2034 3584 2315 3537 
Q 2597 3491 2834 3397 
z
" transform="scale(0.015625)"/>
      <path id="DejaVuSans-75" d="M 544 1381 
L 544 3500 
L 1119 3500 
L 1119 1403 
Q 1119 906 1312 657 
Q 1506 409 1894 409 
Q 2359 409 2629 706 
Q 2900 1003 2900 1516 
L 2900 3500 
L 3475 3500 
L 3475 0 
L 2900 0 
L 2900 538 
Q 2691 219 2414 64 
Q 2138 -91 1772 -91 
Q 1169 -91 856 284 
Q 544 659 544 1381 
z
M 1991 3584 
L 1991 3584 
z
" transform="scale(0.015625)"/>
      <path id="DejaVuSans-62" d="M 3116 1747 
Q 3116 2381 2855 2742 
Q 2594 3103 2138 3103 
Q 1681 3103 1420 2742 
Q 1159 2381 1159 1747 
Q 1159 1113 1420 752 
Q 1681 391 2138 391 
Q 2594 391 2855 752 
Q 3116 1113 3116 1747 
z
M 1159 2969 
Q 1341 3281 1617 3432 
Q 1894 3584 2278 3584 
Q 2916 3584 3314 3078 
Q 3713 2572 3713 1747 
Q 3713 922 3314 415 
Q 2916 -91 2278 -91 
Q 1894 -91 1617 61 
Q 1341 213 1159 525 
L 1159 0 
L 581 0 
L 581 4863 
L 1159 4863 
L 1159 2969 
z
" transform="scale(0.015625)"/>
      <path id="DejaVuSans-63" d="M 3122 3366 
L 3122 2828 
Q 2878 2963 2633 3030 
Q 2388 3097 2138 3097 
Q 1578 3097 1268 2742 
Q 959 2388 959 1747 
Q 959 1106 1268 751 
Q 1578 397 2138 397 
Q 2388 397 2633 464 
Q 2878 531 3122 666 
L 3122 134 
Q 2881 22 2623 -34 
Q 2366 -91 2075 -91 
Q 1284 -91 818 406 
Q 353 903 353 1747 
Q 353 2603 823 3093 
Q 1294 3584 2113 3584 
Q 2378 3584 2631 3529 
Q 2884 3475 3122 3366 
z
" transform="scale(0.015625)"/>
      <path id="DejaVuSans-72" d="M 2631 2963 
Q 2534 3019 2420 3045 
Q 2306 3072 2169 3072 
Q 1681 3072 1420 2755 
Q 1159 2438 1159 1844 
L 1159 0 
L 581 0 
L 581 3500 
L 1159 3500 
L 1159 2956 
Q 1341 3275 1631 3429 
Q 1922 3584 2338 3584 
Q 2397 3584 2469 3576 
Q 2541 3569 2628 3553 
L 2631 2963 
z
" transform="scale(0.015625)"/>
      <path id="DejaVuSans-69" d="M 603 3500 
L 1178 3500 
L 1178 0 
L 603 0 
L 603 3500 
z
M 603 4863 
L 1178 4863 
L 1178 4134 
L 603 4134 
L 603 4863 
z
" transform="scale(0.015625)"/>
      <path id="DejaVuSans-20" transform="scale(0.015625)"/>
      <path id="DejaVuSans-68" d="M 3513 2113 
L 3513 0 
L 2938 0 
L 2938 2094 
Q 2938 2591 2744 2837 
Q 2550 3084 2163 3084 
Q 1697 3084 1428 2787 
Q 1159 2491 1159 1978 
L 1159 0 
L 581 0 
L 581 4863 
L 1159 4863 
L 1159 2956 
Q 1366 3272 1645 3428 
Q 1925 3584 2291 3584 
Q 2894 3584 3203 3211 
Q 3513 2838 3513 2113 
z
" transform="scale(0.015625)"/>
      <path id="DejaVuSans-6f" d="M 1959 3097 
Q 1497 3097 1228 2736 
Q 959 2375 959 1747 
Q 959 1119 1226 758 
Q 1494 397 1959 397 
Q 2419 397 2687 759 
Q 2956 1122 2956 1747 
Q 2956 2369 2687 2733 
Q 2419 3097 1959 3097 
z
M 1959 3584 
Q 2709 3584 3137 3096 
Q 3566 2609 3566 1747 
Q 3566 888 3137 398 
Q 2709 -91 1959 -91 
Q 1206 -91 779 398 
Q 353 888 353 1747 
Q 353 2609 779 3096 
Q 1206 3584 1959 3584 
z
" transform="scale(0.015625)"/>
      <path id="DejaVuSans-79" d="M 2059 -325 
Q 1816 -950 1584 -1140 
Q 1353 -1331 966 -1331 
L 506 -1331 
L 506 -850 
L 844 -850 
Q 1081 -850 1212 -737 
Q 1344 -625 1503 -206 
L 1606 56 
L 191 3500 
L 800 3500 
L 1894 763 
L 2988 3500 
L 3597 3500 
L 2059 -325 
z
" transform="scale(0.015625)"/>
     </defs>
     <use xlink:href="#DejaVuSans-67"/>
     <use xlink:href="#DejaVuSans-65" x="63.476562"/>
     <use xlink:href="#DejaVuSans-74" x="125"/>
     <use xlink:href="#DejaVuSans-5f" x="164.208984"/>
     <use xlink:href="#DejaVuSans-73" x="214.208984"/>
     <use xlink:href="#DejaVuSans-75" x="266.308594"/>
     <use xlink:href="#DejaVuSans-62" x="329.6875"/>
     <use xlink:href="#DejaVuSans-73" x="393.164062"/>
     <use xlink:href="#DejaVuSans-63" x="445.263672"/>
     <use xlink:href="#DejaVuSans-72" x="500.244141"/>
     <use xlink:href="#DejaVuSans-69" x="541.357422"/>
     <use xlink:href="#DejaVuSans-62" x="569.140625"/>
     <use xlink:href="#DejaVuSans-65" x="632.617188"/>
     <use xlink:href="#DejaVuSans-20" x="694.140625"/>
     <use xlink:href="#DejaVuSans-68" x="725.927734"/>
     <use xlink:href="#DejaVuSans-69" x="789.306641"/>
     <use xlink:href="#DejaVuSans-73" x="817.089844"/>
     <use xlink:href="#DejaVuSans-74" x="869.189453"/>
     <use xlink:href="#DejaVuSans-6f" x="908.398438"/>
     <use xlink:href="#DejaVuSans-72" x="969.580078"/>
     <use xlink:href="#DejaVuSans-79" x="1010.693359"/>
    </g>
   </g>
   <g id="legend_1">
    <g id="line2d_35">
     <path d="M 815.08 328.498438 
L 825.08 328.498438 
L 835.08 328.498438 
" style="fill: none; stroke: #1f77b4; stroke-width: 1.5; stroke-linecap: square"/>
    </g>
    <g id="text_18">
     <!-- star -->
     <g style="fill: #a9a9a9" transform="translate(843.08 331.998438) scale(0.1 -0.1)">
      <defs>
       <path id="DejaVuSans-61" d="M 2194 1759 
Q 1497 1759 1228 1600 
Q 959 1441 959 1056 
Q 959 750 1161 570 
Q 1363 391 1709 391 
Q 2188 391 2477 730 
Q 2766 1069 2766 1631 
L 2766 1759 
L 2194 1759 
z
M 3341 1997 
L 3341 0 
L 2766 0 
L 2766 531 
Q 2569 213 2275 61 
Q 1981 -91 1556 -91 
Q 1019 -91 701 211 
Q 384 513 384 1019 
Q 384 1609 779 1909 
Q 1175 2209 1959 2209 
L 2766 2209 
L 2766 2266 
Q 2766 2663 2505 2880 
Q 2244 3097 1772 3097 
Q 1472 3097 1187 3025 
Q 903 2953 641 2809 
L 641 3341 
Q 956 3463 1253 3523 
Q 1550 3584 1831 3584 
Q 2591 3584 2966 3190 
Q 3341 2797 3341 1997 
z
" transform="scale(0.015625)"/>
      </defs>
      <use xlink:href="#DejaVuSans-73"/>
      <use xlink:href="#DejaVuSans-74" x="52.099609"/>
      <use xlink:href="#DejaVuSans-61" x="91.308594"/>
      <use xlink:href="#DejaVuSans-72" x="152.587891"/>
     </g>
    </g>
    <g id="line2d_36">
     <path d="M 815.08 343.176562 
L 825.08 343.176562 
L 835.08 343.176562 
" style="fill: none; stroke: #ff7f0e; stroke-width: 1.5; stroke-linecap: square"/>
    </g>
    <g id="text_19">
     <!-- fork -->
     <g style="fill: #a9a9a9" transform="translate(843.08 346.676562) scale(0.1 -0.1)">
      <defs>
       <path id="DejaVuSans-66" d="M 2375 4863 
L 2375 4384 
L 1825 4384 
Q 1516 4384 1395 4259 
Q 1275 4134 1275 3809 
L 1275 3500 
L 2222 3500 
L 2222 3053 
L 1275 3053 
L 1275 0 
L 697 0 
L 697 3053 
L 147 3053 
L 147 3500 
L 697 3500 
L 697 3744 
Q 697 4328 969 4595 
Q 1241 4863 1831 4863 
L 2375 4863 
z
" transform="scale(0.015625)"/>
       <path id="DejaVuSans-6b" d="M 581 4863 
L 1159 4863 
L 1159 1991 
L 2875 3500 
L 3609 3500 
L 1753 1863 
L 3688 0 
L 2938 0 
L 1159 1709 
L 1159 0 
L 581 0 
L 581 4863 
z
" transform="scale(0.015625)"/>
      </defs>
      <use xlink:href="#DejaVuSans-66"/>
      <use xlink:href="#DejaVuSans-6f" x="35.205078"/>
      <use xlink:href="#DejaVuSans-72" x="96.386719"/>
      <use xlink:href="#DejaVuSans-6b" x="137.5"/>
     </g>
    </g>
   </g>
  </g>
 </g>
 <defs>
  <clipPath id="pbe86be881d">
   <rect x="108" y="43.2" width="669.6" height="277.2"/>
  </clipPath>
 </defs>
</svg>
