<?xml version="1.0" encoding="utf-8" standalone="no"?>
<!DOCTYPE svg PUBLIC "-//W3C//DTD SVG 1.1//EN"
  "http://www.w3.org/Graphics/SVG/1.1/DTD/svg11.dtd">
<svg xmlns:xlink="http://www.w3.org/1999/xlink" width="864pt" height="360pt" viewBox="0 0 864 360" xmlns="http://www.w3.org/2000/svg" version="1.1">
 <metadata>
  <rdf:RDF xmlns:dc="http://purl.org/dc/elements/1.1/" xmlns:cc="http://creativecommons.org/ns#" xmlns:rdf="http://www.w3.org/1999/02/22-rdf-syntax-ns#">
   <cc:Work>
    <dc:type rdf:resource="http://purl.org/dc/dcmitype/StillImage"/>
    <dc:date>2024-03-10T20:04:14.567776</dc:date>
    <dc:format>image/svg+xml</dc:format>
    <dc:creator>
     <cc:Agent>
      <dc:title>Matplotlib v3.8.3, https://matplotlib.org/</dc:title>
     </cc:Agent>
    </dc:creator>
   </cc:Work>
  </rdf:RDF>
 </metadata>
 <defs>
  <style type="text/css">*{stroke-linejoin: round; stroke-linecap: butt}</style>
 </defs>
 <g id="figure_1">
  <g id="patch_1">
   <path d="M 0 360 
L 864 360 
L 864 0 
L 0 0 
L 0 360 
z
" style="fill: none; opacity: 0"/>
  </g>
  <g id="axes_1">
   <g id="patch_2">
    <path d="M 108 320.4 
L 777.6 320.4 
L 777.6 43.2 
L 108 43.2 
L 108 320.4 
z
" style="fill: none; opacity: 0"/>
   </g>
   <g id="matplotlib.axis_1">
    <g id="xtick_1">
     <g id="line2d_1">
      <path d="M 163.165909 320.4 
L 163.165909 43.2 
" clip-path="url(#pf77ca0c65b)" style="fill: none; stroke-dasharray: 5.12,1.28,0.8,1.28; stroke-dashoffset: 0; stroke: #b0b0b0; stroke-width: 0.8"/>
     </g>
     <g id="line2d_2">
      <defs>
       <path id="me4053dc521" d="M 0 0 
L 0 3.5 
" style="stroke: #a9a9a9; stroke-width: 0.8"/>
      </defs>
      <g>
       <use xlink:href="#me4053dc521" x="163.165909" y="320.4" style="fill: #a9a9a9; stroke: #a9a9a9; stroke-width: 0.8"/>
      </g>
     </g>
     <g id="text_1">
      <!-- 2021-09 -->
      <g style="fill: #a9a9a9" transform="translate(142.274503 334.998438) scale(0.1 -0.1)">
       <defs>
        <path id="DejaVuSans-32" d="M 1228 531 
L 3431 531 
L 3431 0 
L 469 0 
L 469 531 
Q 828 903 1448 1529 
Q 2069 2156 2228 2338 
Q 2531 2678 2651 2914 
Q 2772 3150 2772 3378 
Q 2772 3750 2511 3984 
Q 2250 4219 1831 4219 
Q 1534 4219 1204 4116 
Q 875 4013 500 3803 
L 500 4441 
Q 881 4594 1212 4672 
Q 1544 4750 1819 4750 
Q 2544 4750 2975 4387 
Q 3406 4025 3406 3419 
Q 3406 3131 3298 2873 
Q 3191 2616 2906 2266 
Q 2828 2175 2409 1742 
Q 1991 1309 1228 531 
z
" transform="scale(0.015625)"/>
        <path id="DejaVuSans-30" d="M 2034 4250 
Q 1547 4250 1301 3770 
Q 1056 3291 1056 2328 
Q 1056 1369 1301 889 
Q 1547 409 2034 409 
Q 2525 409 2770 889 
Q 3016 1369 3016 2328 
Q 3016 3291 2770 3770 
Q 2525 4250 2034 4250 
z
M 2034 4750 
Q 2819 4750 3233 4129 
Q 3647 3509 3647 2328 
Q 3647 1150 3233 529 
Q 2819 -91 2034 -91 
Q 1250 -91 836 529 
Q 422 1150 422 2328 
Q 422 3509 836 4129 
Q 1250 4750 2034 4750 
z
" transform="scale(0.015625)"/>
        <path id="DejaVuSans-31" d="M 794 531 
L 1825 531 
L 1825 4091 
L 703 3866 
L 703 4441 
L 1819 4666 
L 2450 4666 
L 2450 531 
L 3481 531 
L 3481 0 
L 794 0 
L 794 531 
z
" transform="scale(0.015625)"/>
        <path id="DejaVuSans-2d" d="M 313 2009 
L 1997 2009 
L 1997 1497 
L 313 1497 
L 313 2009 
z
" transform="scale(0.015625)"/>
        <path id="DejaVuSans-39" d="M 703 97 
L 703 672 
Q 941 559 1184 500 
Q 1428 441 1663 441 
Q 2288 441 2617 861 
Q 2947 1281 2994 2138 
Q 2813 1869 2534 1725 
Q 2256 1581 1919 1581 
Q 1219 1581 811 2004 
Q 403 2428 403 3163 
Q 403 3881 828 4315 
Q 1253 4750 1959 4750 
Q 2769 4750 3195 4129 
Q 3622 3509 3622 2328 
Q 3622 1225 3098 567 
Q 2575 -91 1691 -91 
Q 1453 -91 1209 -44 
Q 966 3 703 97 
z
M 1959 2075 
Q 2384 2075 2632 2365 
Q 2881 2656 2881 3163 
Q 2881 3666 2632 3958 
Q 2384 4250 1959 4250 
Q 1534 4250 1286 3958 
Q 1038 3666 1038 3163 
Q 1038 2656 1286 2365 
Q 1534 2075 1959 2075 
z
" transform="scale(0.015625)"/>
       </defs>
       <use xlink:href="#DejaVuSans-32"/>
       <use xlink:href="#DejaVuSans-30" x="63.623047"/>
       <use xlink:href="#DejaVuSans-32" x="127.246094"/>
       <use xlink:href="#DejaVuSans-31" x="190.869141"/>
       <use xlink:href="#DejaVuSans-2d" x="254.492188"/>
       <use xlink:href="#DejaVuSans-30" x="290.576172"/>
       <use xlink:href="#DejaVuSans-39" x="354.199219"/>
      </g>
     </g>
    </g>
    <g id="xtick_2">
     <g id="line2d_3">
      <path d="M 240.525 320.4 
L 240.525 43.2 
" clip-path="url(#pf77ca0c65b)" style="fill: none; stroke-dasharray: 5.12,1.28,0.8,1.28; stroke-dashoffset: 0; stroke: #b0b0b0; stroke-width: 0.8"/>
     </g>
     <g id="line2d_4">
      <g>
       <use xlink:href="#me4053dc521" x="240.525" y="320.4" style="fill: #a9a9a9; stroke: #a9a9a9; stroke-width: 0.8"/>
      </g>
     </g>
     <g id="text_2">
      <!-- 2022-01 -->
      <g style="fill: #a9a9a9" transform="translate(219.633594 334.998438) scale(0.1 -0.1)">
       <use xlink:href="#DejaVuSans-32"/>
       <use xlink:href="#DejaVuSans-30" x="63.623047"/>
       <use xlink:href="#DejaVuSans-32" x="127.246094"/>
       <use xlink:href="#DejaVuSans-32" x="190.869141"/>
       <use xlink:href="#DejaVuSans-2d" x="254.492188"/>
       <use xlink:href="#DejaVuSans-30" x="290.576172"/>
       <use xlink:href="#DejaVuSans-31" x="354.199219"/>
      </g>
     </g>
    </g>
    <g id="xtick_3">
     <g id="line2d_5">
      <path d="M 316.615909 320.4 
L 316.615909 43.2 
" clip-path="url(#pf77ca0c65b)" style="fill: none; stroke-dasharray: 5.12,1.28,0.8,1.28; stroke-dashoffset: 0; stroke: #b0b0b0; stroke-width: 0.8"/>
     </g>
     <g id="line2d_6">
      <g>
       <use xlink:href="#me4053dc521" x="316.615909" y="320.4" style="fill: #a9a9a9; stroke: #a9a9a9; stroke-width: 0.8"/>
      </g>
     </g>
     <g id="text_3">
      <!-- 2022-05 -->
      <g style="fill: #a9a9a9" transform="translate(295.724503 334.998438) scale(0.1 -0.1)">
       <defs>
        <path id="DejaVuSans-35" d="M 691 4666 
L 3169 4666 
L 3169 4134 
L 1269 4134 
L 1269 2991 
Q 1406 3038 1543 3061 
Q 1681 3084 1819 3084 
Q 2600 3084 3056 2656 
Q 3513 2228 3513 1497 
Q 3513 744 3044 326 
Q 2575 -91 1722 -91 
Q 1428 -91 1123 -41 
Q 819 9 494 109 
L 494 744 
Q 775 591 1075 516 
Q 1375 441 1709 441 
Q 2250 441 2565 725 
Q 2881 1009 2881 1497 
Q 2881 1984 2565 2268 
Q 2250 2553 1709 2553 
Q 1456 2553 1204 2497 
Q 953 2441 691 2322 
L 691 4666 
z
" transform="scale(0.015625)"/>
       </defs>
       <use xlink:href="#DejaVuSans-32"/>
       <use xlink:href="#DejaVuSans-30" x="63.623047"/>
       <use xlink:href="#DejaVuSans-32" x="127.246094"/>
       <use xlink:href="#DejaVuSans-32" x="190.869141"/>
       <use xlink:href="#DejaVuSans-2d" x="254.492188"/>
       <use xlink:href="#DejaVuSans-30" x="290.576172"/>
       <use xlink:href="#DejaVuSans-35" x="354.199219"/>
      </g>
     </g>
    </g>
    <g id="xtick_4">
     <g id="line2d_7">
      <path d="M 394.609091 320.4 
L 394.609091 43.2 
" clip-path="url(#pf77ca0c65b)" style="fill: none; stroke-dasharray: 5.12,1.28,0.8,1.28; stroke-dashoffset: 0; stroke: #b0b0b0; stroke-width: 0.8"/>
     </g>
     <g id="line2d_8">
      <g>
       <use xlink:href="#me4053dc521" x="394.609091" y="320.4" style="fill: #a9a9a9; stroke: #a9a9a9; stroke-width: 0.8"/>
      </g>
     </g>
     <g id="text_4">
      <!-- 2022-09 -->
      <g style="fill: #a9a9a9" transform="translate(373.717685 334.998438) scale(0.1 -0.1)">
       <use xlink:href="#DejaVuSans-32"/>
       <use xlink:href="#DejaVuSans-30" x="63.623047"/>
       <use xlink:href="#DejaVuSans-32" x="127.246094"/>
       <use xlink:href="#DejaVuSans-32" x="190.869141"/>
       <use xlink:href="#DejaVuSans-2d" x="254.492188"/>
       <use xlink:href="#DejaVuSans-30" x="290.576172"/>
       <use xlink:href="#DejaVuSans-39" x="354.199219"/>
      </g>
     </g>
    </g>
    <g id="xtick_5">
     <g id="line2d_9">
      <path d="M 471.968182 320.4 
L 471.968182 43.2 
" clip-path="url(#pf77ca0c65b)" style="fill: none; stroke-dasharray: 5.12,1.28,0.8,1.28; stroke-dashoffset: 0; stroke: #b0b0b0; stroke-width: 0.8"/>
     </g>
     <g id="line2d_10">
      <g>
       <use xlink:href="#me4053dc521" x="471.968182" y="320.4" style="fill: #a9a9a9; stroke: #a9a9a9; stroke-width: 0.8"/>
      </g>
     </g>
     <g id="text_5">
      <!-- 2023-01 -->
      <g style="fill: #a9a9a9" transform="translate(451.076776 334.998438) scale(0.1 -0.1)">
       <defs>
        <path id="DejaVuSans-33" d="M 2597 2516 
Q 3050 2419 3304 2112 
Q 3559 1806 3559 1356 
Q 3559 666 3084 287 
Q 2609 -91 1734 -91 
Q 1441 -91 1130 -33 
Q 819 25 488 141 
L 488 750 
Q 750 597 1062 519 
Q 1375 441 1716 441 
Q 2309 441 2620 675 
Q 2931 909 2931 1356 
Q 2931 1769 2642 2001 
Q 2353 2234 1838 2234 
L 1294 2234 
L 1294 2753 
L 1863 2753 
Q 2328 2753 2575 2939 
Q 2822 3125 2822 3475 
Q 2822 3834 2567 4026 
Q 2313 4219 1838 4219 
Q 1578 4219 1281 4162 
Q 984 4106 628 3988 
L 628 4550 
Q 988 4650 1302 4700 
Q 1616 4750 1894 4750 
Q 2613 4750 3031 4423 
Q 3450 4097 3450 3541 
Q 3450 3153 3228 2886 
Q 3006 2619 2597 2516 
z
" transform="scale(0.015625)"/>
       </defs>
       <use xlink:href="#DejaVuSans-32"/>
       <use xlink:href="#DejaVuSans-30" x="63.623047"/>
       <use xlink:href="#DejaVuSans-32" x="127.246094"/>
       <use xlink:href="#DejaVuSans-33" x="190.869141"/>
       <use xlink:href="#DejaVuSans-2d" x="254.492188"/>
       <use xlink:href="#DejaVuSans-30" x="290.576172"/>
       <use xlink:href="#DejaVuSans-31" x="354.199219"/>
      </g>
     </g>
    </g>
    <g id="xtick_6">
     <g id="line2d_11">
      <path d="M 548.059091 320.4 
L 548.059091 43.2 
" clip-path="url(#pf77ca0c65b)" style="fill: none; stroke-dasharray: 5.12,1.28,0.8,1.28; stroke-dashoffset: 0; stroke: #b0b0b0; stroke-width: 0.8"/>
     </g>
     <g id="line2d_12">
      <g>
       <use xlink:href="#me4053dc521" x="548.059091" y="320.4" style="fill: #a9a9a9; stroke: #a9a9a9; stroke-width: 0.8"/>
      </g>
     </g>
     <g id="text_6">
      <!-- 2023-05 -->
      <g style="fill: #a9a9a9" transform="translate(527.167685 334.998438) scale(0.1 -0.1)">
       <use xlink:href="#DejaVuSans-32"/>
       <use xlink:href="#DejaVuSans-30" x="63.623047"/>
       <use xlink:href="#DejaVuSans-32" x="127.246094"/>
       <use xlink:href="#DejaVuSans-33" x="190.869141"/>
       <use xlink:href="#DejaVuSans-2d" x="254.492188"/>
       <use xlink:href="#DejaVuSans-30" x="290.576172"/>
       <use xlink:href="#DejaVuSans-35" x="354.199219"/>
      </g>
     </g>
    </g>
    <g id="xtick_7">
     <g id="line2d_13">
      <path d="M 626.052273 320.4 
L 626.052273 43.2 
" clip-path="url(#pf77ca0c65b)" style="fill: none; stroke-dasharray: 5.12,1.28,0.8,1.28; stroke-dashoffset: 0; stroke: #b0b0b0; stroke-width: 0.8"/>
     </g>
     <g id="line2d_14">
      <g>
       <use xlink:href="#me4053dc521" x="626.052273" y="320.4" style="fill: #a9a9a9; stroke: #a9a9a9; stroke-width: 0.8"/>
      </g>
     </g>
     <g id="text_7">
      <!-- 2023-09 -->
      <g style="fill: #a9a9a9" transform="translate(605.160866 334.998438) scale(0.1 -0.1)">
       <use xlink:href="#DejaVuSans-32"/>
       <use xlink:href="#DejaVuSans-30" x="63.623047"/>
       <use xlink:href="#DejaVuSans-32" x="127.246094"/>
       <use xlink:href="#DejaVuSans-33" x="190.869141"/>
       <use xlink:href="#DejaVuSans-2d" x="254.492188"/>
       <use xlink:href="#DejaVuSans-30" x="290.576172"/>
       <use xlink:href="#DejaVuSans-39" x="354.199219"/>
      </g>
     </g>
    </g>
    <g id="xtick_8">
     <g id="line2d_15">
      <path d="M 703.411364 320.4 
L 703.411364 43.2 
" clip-path="url(#pf77ca0c65b)" style="fill: none; stroke-dasharray: 5.12,1.28,0.8,1.28; stroke-dashoffset: 0; stroke: #b0b0b0; stroke-width: 0.8"/>
     </g>
     <g id="line2d_16">
      <g>
       <use xlink:href="#me4053dc521" x="703.411364" y="320.4" style="fill: #a9a9a9; stroke: #a9a9a9; stroke-width: 0.8"/>
      </g>
     </g>
     <g id="text_8">
      <!-- 2024-01 -->
      <g style="fill: #a9a9a9" transform="translate(682.519957 334.998438) scale(0.1 -0.1)">
       <defs>
        <path id="DejaVuSans-34" d="M 2419 4116 
L 825 1625 
L 2419 1625 
L 2419 4116 
z
M 2253 4666 
L 3047 4666 
L 3047 1625 
L 3713 1625 
L 3713 1100 
L 3047 1100 
L 3047 0 
L 2419 0 
L 2419 1100 
L 313 1100 
L 313 1709 
L 2253 4666 
z
" transform="scale(0.015625)"/>
       </defs>
       <use xlink:href="#DejaVuSans-32"/>
       <use xlink:href="#DejaVuSans-30" x="63.623047"/>
       <use xlink:href="#DejaVuSans-32" x="127.246094"/>
       <use xlink:href="#DejaVuSans-34" x="190.869141"/>
       <use xlink:href="#DejaVuSans-2d" x="254.492188"/>
       <use xlink:href="#DejaVuSans-30" x="290.576172"/>
       <use xlink:href="#DejaVuSans-31" x="354.199219"/>
      </g>
     </g>
    </g>
   </g>
   <g id="matplotlib.axis_2">
    <g id="ytick_1">
     <g id="line2d_17">
      <path d="M 108 307.843849 
L 777.6 307.843849 
" clip-path="url(#pf77ca0c65b)" style="fill: none; stroke-dasharray: 5.12,1.28,0.8,1.28; stroke-dashoffset: 0; stroke: #b0b0b0; stroke-width: 0.8"/>
     </g>
     <g id="line2d_18">
      <defs>
       <path id="mb4c35515a6" d="M 0 0 
L -3.5 0 
" style="stroke: #a9a9a9; stroke-width: 0.8"/>
      </defs>
      <g>
       <use xlink:href="#mb4c35515a6" x="108" y="307.843849" style="fill: #a9a9a9; stroke: #a9a9a9; stroke-width: 0.8"/>
      </g>
     </g>
     <g id="text_9">
      <!-- 0 -->
      <g style="fill: #a9a9a9" transform="translate(94.6375 311.643068) scale(0.1 -0.1)">
       <use xlink:href="#DejaVuSans-30"/>
      </g>
     </g>
    </g>
    <g id="ytick_2">
     <g id="line2d_19">
      <path d="M 108 272.764677 
L 777.6 272.764677 
" clip-path="url(#pf77ca0c65b)" style="fill: none; stroke-dasharray: 5.12,1.28,0.8,1.28; stroke-dashoffset: 0; stroke: #b0b0b0; stroke-width: 0.8"/>
     </g>
     <g id="line2d_20">
      <g>
       <use xlink:href="#mb4c35515a6" x="108" y="272.764677" style="fill: #a9a9a9; stroke: #a9a9a9; stroke-width: 0.8"/>
      </g>
     </g>
     <g id="text_10">
      <!-- 800 -->
      <g style="fill: #a9a9a9" transform="translate(81.9125 276.563896) scale(0.1 -0.1)">
       <defs>
        <path id="DejaVuSans-38" d="M 2034 2216 
Q 1584 2216 1326 1975 
Q 1069 1734 1069 1313 
Q 1069 891 1326 650 
Q 1584 409 2034 409 
Q 2484 409 2743 651 
Q 3003 894 3003 1313 
Q 3003 1734 2745 1975 
Q 2488 2216 2034 2216 
z
M 1403 2484 
Q 997 2584 770 2862 
Q 544 3141 544 3541 
Q 544 4100 942 4425 
Q 1341 4750 2034 4750 
Q 2731 4750 3128 4425 
Q 3525 4100 3525 3541 
Q 3525 3141 3298 2862 
Q 3072 2584 2669 2484 
Q 3125 2378 3379 2068 
Q 3634 1759 3634 1313 
Q 3634 634 3220 271 
Q 2806 -91 2034 -91 
Q 1263 -91 848 271 
Q 434 634 434 1313 
Q 434 1759 690 2068 
Q 947 2378 1403 2484 
z
M 1172 3481 
Q 1172 3119 1398 2916 
Q 1625 2713 2034 2713 
Q 2441 2713 2670 2916 
Q 2900 3119 2900 3481 
Q 2900 3844 2670 4047 
Q 2441 4250 2034 4250 
Q 1625 4250 1398 4047 
Q 1172 3844 1172 3481 
z
" transform="scale(0.015625)"/>
       </defs>
       <use xlink:href="#DejaVuSans-38"/>
       <use xlink:href="#DejaVuSans-30" x="63.623047"/>
       <use xlink:href="#DejaVuSans-30" x="127.246094"/>
      </g>
     </g>
    </g>
    <g id="ytick_3">
     <g id="line2d_21">
      <path d="M 108 237.685505 
L 777.6 237.685505 
" clip-path="url(#pf77ca0c65b)" style="fill: none; stroke-dasharray: 5.12,1.28,0.8,1.28; stroke-dashoffset: 0; stroke: #b0b0b0; stroke-width: 0.8"/>
     </g>
     <g id="line2d_22">
      <g>
       <use xlink:href="#mb4c35515a6" x="108" y="237.685505" style="fill: #a9a9a9; stroke: #a9a9a9; stroke-width: 0.8"/>
      </g>
     </g>
     <g id="text_11">
      <!-- 1600 -->
      <g style="fill: #a9a9a9" transform="translate(75.55 241.484724) scale(0.1 -0.1)">
       <defs>
        <path id="DejaVuSans-36" d="M 2113 2584 
Q 1688 2584 1439 2293 
Q 1191 2003 1191 1497 
Q 1191 994 1439 701 
Q 1688 409 2113 409 
Q 2538 409 2786 701 
Q 3034 994 3034 1497 
Q 3034 2003 2786 2293 
Q 2538 2584 2113 2584 
z
M 3366 4563 
L 3366 3988 
Q 3128 4100 2886 4159 
Q 2644 4219 2406 4219 
Q 1781 4219 1451 3797 
Q 1122 3375 1075 2522 
Q 1259 2794 1537 2939 
Q 1816 3084 2150 3084 
Q 2853 3084 3261 2657 
Q 3669 2231 3669 1497 
Q 3669 778 3244 343 
Q 2819 -91 2113 -91 
Q 1303 -91 875 529 
Q 447 1150 447 2328 
Q 447 3434 972 4092 
Q 1497 4750 2381 4750 
Q 2619 4750 2861 4703 
Q 3103 4656 3366 4563 
z
" transform="scale(0.015625)"/>
       </defs>
       <use xlink:href="#DejaVuSans-31"/>
       <use xlink:href="#DejaVuSans-36" x="63.623047"/>
       <use xlink:href="#DejaVuSans-30" x="127.246094"/>
       <use xlink:href="#DejaVuSans-30" x="190.869141"/>
      </g>
     </g>
    </g>
    <g id="ytick_4">
     <g id="line2d_23">
      <path d="M 108 202.606334 
L 777.6 202.606334 
" clip-path="url(#pf77ca0c65b)" style="fill: none; stroke-dasharray: 5.12,1.28,0.8,1.28; stroke-dashoffset: 0; stroke: #b0b0b0; stroke-width: 0.8"/>
     </g>
     <g id="line2d_24">
      <g>
       <use xlink:href="#mb4c35515a6" x="108" y="202.606334" style="fill: #a9a9a9; stroke: #a9a9a9; stroke-width: 0.8"/>
      </g>
     </g>
     <g id="text_12">
      <!-- 2400 -->
      <g style="fill: #a9a9a9" transform="translate(75.55 206.405552) scale(0.1 -0.1)">
       <use xlink:href="#DejaVuSans-32"/>
       <use xlink:href="#DejaVuSans-34" x="63.623047"/>
       <use xlink:href="#DejaVuSans-30" x="127.246094"/>
       <use xlink:href="#DejaVuSans-30" x="190.869141"/>
      </g>
     </g>
    </g>
    <g id="ytick_5">
     <g id="line2d_25">
      <path d="M 108 167.527162 
L 777.6 167.527162 
" clip-path="url(#pf77ca0c65b)" style="fill: none; stroke-dasharray: 5.12,1.28,0.8,1.28; stroke-dashoffset: 0; stroke: #b0b0b0; stroke-width: 0.8"/>
     </g>
     <g id="line2d_26">
      <g>
       <use xlink:href="#mb4c35515a6" x="108" y="167.527162" style="fill: #a9a9a9; stroke: #a9a9a9; stroke-width: 0.8"/>
      </g>
     </g>
     <g id="text_13">
      <!-- 3200 -->
      <g style="fill: #a9a9a9" transform="translate(75.55 171.326381) scale(0.1 -0.1)">
       <use xlink:href="#DejaVuSans-33"/>
       <use xlink:href="#DejaVuSans-32" x="63.623047"/>
       <use xlink:href="#DejaVuSans-30" x="127.246094"/>
       <use xlink:href="#DejaVuSans-30" x="190.869141"/>
      </g>
     </g>
    </g>
    <g id="ytick_6">
     <g id="line2d_27">
      <path d="M 108 132.44799 
L 777.6 132.44799 
" clip-path="url(#pf77ca0c65b)" style="fill: none; stroke-dasharray: 5.12,1.28,0.8,1.28; stroke-dashoffset: 0; stroke: #b0b0b0; stroke-width: 0.8"/>
     </g>
     <g id="line2d_28">
      <g>
       <use xlink:href="#mb4c35515a6" x="108" y="132.44799" style="fill: #a9a9a9; stroke: #a9a9a9; stroke-width: 0.8"/>
      </g>
     </g>
     <g id="text_14">
      <!-- 4000 -->
      <g style="fill: #a9a9a9" transform="translate(75.55 136.247209) scale(0.1 -0.1)">
       <use xlink:href="#DejaVuSans-34"/>
       <use xlink:href="#DejaVuSans-30" x="63.623047"/>
       <use xlink:href="#DejaVuSans-30" x="127.246094"/>
       <use xlink:href="#DejaVuSans-30" x="190.869141"/>
      </g>
     </g>
    </g>
    <g id="ytick_7">
     <g id="line2d_29">
      <path d="M 108 97.368819 
L 777.6 97.368819 
" clip-path="url(#pf77ca0c65b)" style="fill: none; stroke-dasharray: 5.12,1.28,0.8,1.28; stroke-dashoffset: 0; stroke: #b0b0b0; stroke-width: 0.8"/>
     </g>
     <g id="line2d_30">
      <g>
       <use xlink:href="#mb4c35515a6" x="108" y="97.368819" style="fill: #a9a9a9; stroke: #a9a9a9; stroke-width: 0.8"/>
      </g>
     </g>
     <g id="text_15">
      <!-- 4800 -->
      <g style="fill: #a9a9a9" transform="translate(75.55 101.168037) scale(0.1 -0.1)">
       <use xlink:href="#DejaVuSans-34"/>
       <use xlink:href="#DejaVuSans-38" x="63.623047"/>
       <use xlink:href="#DejaVuSans-30" x="127.246094"/>
       <use xlink:href="#DejaVuSans-30" x="190.869141"/>
      </g>
     </g>
    </g>
    <g id="ytick_8">
     <g id="line2d_31">
      <path d="M 108 62.289647 
L 777.6 62.289647 
" clip-path="url(#pf77ca0c65b)" style="fill: none; stroke-dasharray: 5.12,1.28,0.8,1.28; stroke-dashoffset: 0; stroke: #b0b0b0; stroke-width: 0.8"/>
     </g>
     <g id="line2d_32">
      <g>
       <use xlink:href="#mb4c35515a6" x="108" y="62.289647" style="fill: #a9a9a9; stroke: #a9a9a9; stroke-width: 0.8"/>
      </g>
     </g>
     <g id="text_16">
      <!-- 5600 -->
      <g style="fill: #a9a9a9" transform="translate(75.55 66.088866) scale(0.1 -0.1)">
       <use xlink:href="#DejaVuSans-35"/>
       <use xlink:href="#DejaVuSans-36" x="63.623047"/>
       <use xlink:href="#DejaVuSans-30" x="127.246094"/>
       <use xlink:href="#DejaVuSans-30" x="190.869141"/>
      </g>
     </g>
    </g>
   </g>
   <g id="line2d_33">
    <path d="M 138.436364 307.712302 
L 142.240909 307.405359 
L 142.875 307.142266 
L 144.777273 306.923021 
L 148.581818 306.177588 
L 152.386364 305.870646 
L 153.020455 305.563703 
L 153.654545 305.388307 
L 154.288636 304.599026 
L 154.922727 304.160536 
L 155.556818 302.801218 
L 156.190909 302.71352 
L 156.825 302.231181 
L 158.093182 301.617296 
L 160.629545 299.687942 
L 161.897727 299.161754 
L 162.531818 298.723264 
L 165.068182 297.62704 
L 165.702273 296.618514 
L 166.970455 295.697686 
L 167.604545 295.390743 
L 173.945455 294.513764 
L 174.579545 294.206821 
L 179.018182 293.856029 
L 180.920455 293.373691 
L 186.627273 292.628258 
L 187.261364 292.277467 
L 187.895455 292.189769 
L 188.529545 291.926675 
L 189.797727 291.70743 
L 190.431818 291.663581 
L 191.065909 291.444336 
L 193.602273 291.049695 
L 194.870455 290.698904 
L 196.772727 290.523508 
L 198.040909 290.391961 
L 198.675 290.216565 
L 199.309091 290.172716 
L 201.211364 289.60268 
L 205.015909 289.032643 
L 205.65 288.857247 
L 206.284091 287.980268 
L 208.186364 287.278685 
L 210.088636 286.752497 
L 210.722727 286.445554 
L 211.356818 286.401705 
L 214.527273 285.524726 
L 215.795455 285.437028 
L 216.429545 285.34933 
L 218.331818 284.779294 
L 220.868182 284.165408 
L 221.502273 283.902314 
L 222.136364 283.814616 
L 222.770455 283.507674 
L 229.111364 282.542996 
L 232.281818 281.666017 
L 232.915909 281.271376 
L 235.452273 280.613642 
L 236.720455 279.86821 
L 237.354545 279.42972 
L 239.256818 279.078928 
L 243.061364 277.938855 
L 244.329545 277.544214 
L 244.963636 277.456516 
L 246.231818 277.105725 
L 247.5 276.798782 
L 248.134091 276.711084 
L 249.402273 276.184896 
L 250.036364 276.05335 
L 250.670455 275.790256 
L 251.304545 275.702558 
L 251.938636 275.395615 
L 252.572727 275.220219 
L 253.840909 275.132521 
L 255.109091 274.694032 
L 256.377273 274.606334 
L 257.011364 274.299391 
L 259.547727 273.860901 
L 262.084091 273.641657 
L 262.718182 273.51011 
L 263.986364 272.896224 
L 270.961364 269.958343 
L 271.595455 269.607552 
L 272.229545 268.905968 
L 272.863636 267.853593 
L 273.497727 267.020463 
L 274.131818 266.845067 
L 274.765909 266.845067 
L 276.034091 265.924239 
L 276.668182 265.748843 
L 277.302273 265.398051 
L 277.936364 265.266504 
L 278.570455 264.696468 
L 279.204545 264.521072 
L 281.106818 263.600244 
L 282.375 261.846285 
L 283.009091 261.451644 
L 283.643182 260.399269 
L 284.277273 259.741535 
L 284.911364 259.434592 
L 285.545455 259.259196 
L 288.081818 257.768331 
L 289.35 256.759805 
L 289.984091 256.365164 
L 290.618182 255.444336 
L 291.252273 253.99732 
L 291.886364 253.076492 
L 292.520455 252.594153 
L 293.154545 252.33106 
L 295.690909 250.138611 
L 296.959091 249.130085 
L 297.593182 248.603898 
L 298.227273 247.770767 
L 299.495455 246.674543 
L 302.031818 245.052132 
L 302.665909 244.482095 
L 303.3 244.350548 
L 303.934091 244.087454 
L 305.202273 243.385871 
L 307.104545 242.421194 
L 308.372727 241.237272 
L 309.006818 240.491839 
L 310.275 239.61486 
L 310.909091 239.439464 
L 311.543182 239.132521 
L 312.811364 238.299391 
L 313.445455 237.948599 
L 314.079545 237.860901 
L 315.347727 237.159318 
L 315.981818 236.808526 
L 316.615909 236.150792 
L 317.25 235.756151 
L 317.884091 235.536906 
L 319.152273 234.791474 
L 319.786364 234.440682 
L 320.420455 234.221437 
L 322.322727 232.993666 
L 324.225 232.42363 
L 324.859091 231.98514 
L 325.493182 231.853593 
L 326.761364 231.415104 
L 328.663636 230.669671 
L 330.565909 229.968088 
L 331.834091 229.748843 
L 333.102273 228.652619 
L 334.370455 228.038733 
L 335.638636 227.33715 
L 336.272727 226.986358 
L 337.540909 226.635566 
L 338.175 226.240926 
L 338.809091 226.06553 
L 340.711364 224.881608 
L 343.881818 224.136175 
L 345.784091 223.039951 
L 346.418182 222.952253 
L 347.052273 222.733009 
L 348.320455 222.469915 
L 350.222727 221.066748 
L 352.125 220.628258 
L 352.759091 220.409013 
L 353.393182 219.926675 
L 357.197727 218.698904 
L 357.831818 218.655055 
L 362.270455 217.076492 
L 362.904545 216.769549 
L 364.806818 216.33106 
L 366.075 216.024117 
L 366.709091 215.717174 
L 367.343182 215.585627 
L 369.245455 214.708648 
L 371.147727 213.78782 
L 371.781818 213.34933 
L 372.415909 213.173934 
L 374.318182 212.165408 
L 375.586364 211.858465 
L 376.854545 211.200731 
L 378.122727 210.849939 
L 378.756818 210.762241 
L 380.025 210.016809 
L 380.659091 209.885262 
L 381.927273 209.359074 
L 382.561364 209.227527 
L 383.195455 208.876736 
L 385.731818 208.482095 
L 387 207.86821 
L 387.634091 207.342022 
L 388.268182 206.245798 
L 389.536364 205.982704 
L 390.170455 205.851157 
L 392.706818 204.535688 
L 393.340909 204.404141 
L 398.413636 201.992448 
L 400.315909 201.597808 
L 400.95 201.247016 
L 404.754545 199.931547 
L 406.022727 199.142266 
L 407.290909 198.396833 
L 407.925 198.309135 
L 408.559091 198.08989 
L 409.193182 198.046041 
L 412.363636 197.212911 
L 412.997727 196.730572 
L 414.265909 196.292083 
L 416.168182 195.678197 
L 416.802273 195.283557 
L 417.436364 195.108161 
L 418.070455 194.669671 
L 418.704545 194.406577 
L 419.338636 194.011937 
L 420.606818 193.573447 
L 422.509091 192.959562 
L 423.143182 192.652619 
L 425.045455 191.205603 
L 425.679545 191.074056 
L 426.947727 190.109379 
L 427.581818 189.977832 
L 428.215909 189.013155 
L 428.85 188.750061 
L 429.484091 188.267722 
L 430.118182 188.180024 
L 431.386364 187.434592 
L 432.020455 187.303045 
L 432.654545 187.039951 
L 433.288636 186.557613 
L 433.922727 186.338368 
L 435.825 185.066748 
L 438.361364 183.795128 
L 438.995455 183.70743 
L 440.263636 183.137393 
L 440.897727 182.786602 
L 441.531818 181.734227 
L 442.165909 181.16419 
L 442.8 180.813398 
L 443.434091 180.681851 
L 444.702273 179.89257 
L 445.336364 179.761023 
L 446.604545 179.147138 
L 448.506818 178.357856 
L 449.775 177.480877 
L 451.043182 176.165408 
L 454.213636 173.885262 
L 455.481818 172.832887 
L 456.115909 172.569793 
L 456.75 171.86821 
L 457.384091 171.385871 
L 458.652273 170.947381 
L 459.286364 170.421194 
L 460.554545 169.763459 
L 461.188636 169.588063 
L 461.822727 169.149574 
L 462.456818 169.018027 
L 464.359091 168.009501 
L 465.627273 167.264068 
L 471.968182 165.027771 
L 472.602273 164.457734 
L 474.504545 163.756151 
L 475.772727 163.36151 
L 476.406818 162.879172 
L 478.943182 161.563703 
L 479.577273 161.212911 
L 480.845455 158.71352 
L 482.113636 157.222655 
L 483.381818 156.477223 
L 485.284091 155.73179 
L 485.918182 155.644093 
L 486.552273 155.293301 
L 488.454545 154.723264 
L 490.990909 153.583191 
L 491.625 153.188551 
L 492.893182 152.750061 
L 496.697727 150.557613 
L 497.331818 149.899878 
L 497.965909 149.505238 
L 499.868182 148.672107 
L 500.502273 148.233618 
L 501.770455 147.619732 
L 503.672727 146.611206 
L 504.306818 146.43581 
L 504.940909 145.953471 
L 505.575 145.690378 
L 506.209091 145.558831 
L 507.477273 145.120341 
L 509.379545 144.418758 
L 510.013636 143.980268 
L 511.281818 143.629476 
L 512.55 143.147138 
L 513.184091 142.664799 
L 514.452273 142.270158 
L 515.086364 141.963216 
L 515.720455 141.78782 
L 516.988636 140.91084 
L 518.256818 140.340804 
L 519.525 139.376127 
L 520.793182 138.937637 
L 521.427273 138.411449 
L 522.061364 138.323752 
L 523.329545 137.402923 
L 524.597727 136.789038 
L 525.231818 136.525944 
L 525.865909 135.912058 
L 529.670455 134.552741 
L 531.572727 133.71961 
L 533.475 133.149574 
L 534.743182 132.974178 
L 535.377273 132.711084 
L 536.011364 132.623386 
L 537.279545 132.097199 
L 537.913636 132.05335 
L 540.45 131.132521 
L 542.352273 129.817052 
L 542.986364 129.553959 
L 543.620455 129.159318 
L 545.522727 128.326188 
L 547.425 127.186114 
L 548.059091 126.791474 
L 549.327273 126.484531 
L 550.595455 125.607552 
L 553.131818 124.81827 
L 553.765909 124.555177 
L 555.034091 124.248234 
L 558.204545 123.239708 
L 560.106818 122.888916 
L 562.643182 122.099635 
L 563.277273 121.836541 
L 563.911364 121.748843 
L 564.545455 121.4419 
L 565.813636 121.178806 
L 566.447727 120.871864 
L 568.35 120.433374 
L 569.618182 120.17028 
L 573.422727 119.468697 
L 574.690909 119.205603 
L 575.325 119.074056 
L 575.959091 118.810962 
L 576.593182 118.767113 
L 578.495455 118.240926 
L 579.129545 117.890134 
L 582.3 117.100853 
L 582.934091 116.969306 
L 584.202273 116.530816 
L 586.104545 115.873082 
L 586.738636 115.785384 
L 588.640909 115.127649 
L 589.275 115.127649 
L 590.543182 114.68916 
L 591.177273 114.075274 
L 591.811364 113.768331 
L 593.079545 113.373691 
L 595.615909 112.409013 
L 596.25 112.277467 
L 596.884091 111.882826 
L 597.518182 111.751279 
L 598.152273 111.356638 
L 601.322727 110.43581 
L 601.956818 110.041169 
L 602.590909 109.865773 
L 603.225 109.339586 
L 605.127273 108.988794 
L 606.395455 108.287211 
L 607.029545 107.585627 
L 608.297727 107.322533 
L 612.736364 106.314007 
L 613.370455 106.138611 
L 614.638636 106.094762 
L 615.272727 105.78782 
L 617.809091 105.34933 
L 618.443182 105.042387 
L 620.345455 104.779294 
L 622.881818 103.990012 
L 624.784091 103.551523 
L 626.686364 103.069184 
L 629.222727 102.279903 
L 629.856818 102.148356 
L 630.490909 101.841413 
L 631.125 101.753715 
L 631.759091 101.53447 
L 632.393182 101.183678 
L 634.295455 100.525944 
L 634.929545 100.043605 
L 636.197727 99.692814 
L 636.831818 99.42972 
L 638.1 99.078928 
L 640.636364 97.938855 
L 642.538636 97.807308 
L 645.075 97.018027 
L 645.709091 96.623386 
L 646.977273 96.228745 
L 648.879545 95.264068 
L 649.513636 95.132521 
L 650.147727 94.825579 
L 650.781818 94.737881 
L 657.756818 92.413886 
L 660.293182 91.8 
L 660.927273 91.624604 
L 662.195455 91.054568 
L 662.829545 90.96687 
L 664.097727 90.616078 
L 664.731818 90.133739 
L 665.365909 89.826797 
L 666 89.081364 
L 666.634091 88.642875 
L 667.902273 88.248234 
L 668.536364 87.722046 
L 675.511364 84.871864 
L 676.779545 84.564921 
L 678.047727 83.994884 
L 679.95 82.89866 
L 680.584091 82.767113 
L 681.218182 82.284775 
L 682.486364 81.670889 
L 683.754545 80.881608 
L 685.656818 80.004629 
L 686.290909 79.566139 
L 687.559091 79.0838 
L 688.827273 78.338368 
L 689.461364 78.031425 
L 690.095455 77.592935 
L 691.363636 77.154446 
L 691.997727 77.022899 
L 694.534091 75.882826 
L 697.704545 74.786602 
L 698.338636 74.742753 
L 698.972727 74.567357 
L 699.606818 74.172716 
L 700.240909 74.085018 
L 700.875 73.865773 
L 702.777273 73.514982 
L 705.947727 71.89257 
L 707.215909 71.190987 
L 707.85 71.103289 
L 709.752273 70.094762 
L 711.654545 69.393179 
L 713.556818 68.560049 
L 716.093182 67.551523 
L 716.727273 67.376127 
L 717.361364 66.981486 
L 718.629545 66.80609 
L 719.263636 66.411449 
L 719.897727 66.3676 
L 721.165909 65.97296 
L 722.434091 65.359074 
L 723.068182 65.271376 
L 723.702273 65.008283 
L 724.336364 64.876736 
L 726.238636 64.043605 
L 726.872727 63.912058 
L 727.506818 63.648965 
L 730.677273 62.903532 
L 732.579545 62.1581 
L 734.481818 61.018027 
L 735.75 60.491839 
L 736.384091 60.228745 
L 737.018182 59.834105 
L 738.286364 59.571011 
L 738.920455 59.220219 
L 739.554545 59.088672 
L 740.822727 58.387089 
L 744.627273 56.63313 
L 747.163636 55.8 
L 747.163636 55.8 
" clip-path="url(#pf77ca0c65b)" style="fill: none; stroke: #1f77b4; stroke-width: 1.5; stroke-linecap: square"/>
   </g>
   <g id="line2d_34">
    <path d="M 139.070455 307.8 
L 140.972727 307.712302 
L 142.875 307.668453 
L 146.679545 307.580755 
L 149.85 307.449208 
L 152.386364 307.449208 
L 153.020455 307.273812 
L 155.556818 307.186114 
L 157.459091 306.96687 
L 159.361364 306.791474 
L 163.165909 306.616078 
L 163.8 306.616078 
L 164.434091 306.484531 
L 166.970455 306.396833 
L 168.238636 306.309135 
L 173.311364 306.221437 
L 176.481818 306.08989 
L 184.090909 306.002192 
L 187.261364 305.870646 
L 191.065909 305.782948 
L 193.602273 305.69525 
L 199.309091 305.607552 
L 201.211364 305.563703 
L 203.113636 305.519854 
L 205.015909 305.300609 
L 208.820455 305.25676 
L 210.088636 305.169062 
L 214.527273 305.081364 
L 221.502273 304.686724 
L 225.940909 304.599026 
L 227.209091 304.511328 
L 229.111364 304.42363 
L 232.915909 304.248234 
L 235.452273 304.204385 
L 237.354545 304.028989 
L 247.5 303.415104 
L 250.036364 303.327406 
L 254.475 303.108161 
L 256.377273 303.020463 
L 262.718182 302.669671 
L 269.693182 302.581973 
L 272.229545 302.318879 
L 273.497727 302.231181 
L 281.740909 301.573447 
L 285.545455 301.091108 
L 288.081818 301.00341 
L 293.154545 300.345676 
L 296.325 300.257978 
L 304.568182 299.600244 
L 307.738636 299.249452 
L 310.275 299.161754 
L 311.543182 299.074056 
L 314.079545 298.986358 
L 315.347727 298.89866 
L 318.518182 298.591717 
L 319.152273 298.416322 
L 322.956818 298.240926 
L 326.127273 298.153228 
L 334.370455 297.670889 
L 336.272727 297.583191 
L 344.515909 297.100853 
L 348.954545 297.013155 
L 349.588636 296.881608 
L 354.661364 296.79391 
L 359.1 296.574665 
L 366.075 296.486967 
L 370.513636 296.267722 
L 375.586364 296.180024 
L 380.659091 295.916931 
L 385.097727 295.829233 
L 397.145455 295.0838 
L 402.218182 294.996102 
L 418.704545 293.943727 
L 422.509091 293.856029 
L 424.411364 293.81218 
L 426.313636 293.768331 
L 428.215909 293.592935 
L 433.288636 293.505238 
L 434.556818 293.285993 
L 435.825 293.198295 
L 438.995455 293.066748 
L 440.263636 292.97905 
L 441.531818 292.891352 
L 447.238636 292.803654 
L 448.506818 292.672107 
L 451.043182 292.628258 
L 451.677273 292.496711 
L 452.945455 292.409013 
L 453.579545 292.277467 
L 455.481818 292.189769 
L 466.261364 291.532034 
L 468.163636 291.444336 
L 471.334091 291.312789 
L 480.211364 291.225091 
L 484.65 291.005847 
L 489.722727 290.918149 
L 492.259091 290.830451 
L 494.795455 290.786602 
L 496.063636 290.655055 
L 498.6 290.567357 
L 504.940909 290.216565 
L 508.745455 290.172716 
L 510.647727 289.99732 
L 512.55 289.953471 
L 516.988636 289.865773 
L 519.525 289.778076 
L 527.134091 289.690378 
L 530.304545 289.558831 
L 534.109091 289.471133 
L 536.011364 289.251888 
L 539.815909 289.208039 
L 541.718182 289.032643 
L 544.254545 288.944945 
L 551.863636 288.857247 
L 555.034091 288.7257 
L 565.813636 288.681851 
L 567.081818 288.594153 
L 568.984091 288.550305 
L 577.227273 288.462607 
L 578.495455 288.374909 
L 585.470455 288.287211 
L 588.006818 288.199513 
L 595.615909 288.155664 
L 596.884091 288.067966 
L 606.395455 288.024117 
L 608.297727 287.848721 
L 619.077273 287.761023 
L 620.979545 287.717174 
L 637.465909 287.629476 
L 639.368182 287.585627 
L 651.415909 287.497929 
L 653.952273 287.410231 
L 658.390909 287.322533 
L 663.463636 287.05944 
L 666 286.971742 
L 668.536364 286.884044 
L 672.340909 286.796346 
L 674.243182 286.752497 
L 676.779545 286.664799 
L 678.681818 286.62095 
L 681.852273 286.533252 
L 683.120455 286.445554 
L 686.925 286.357856 
L 690.095455 286.226309 
L 691.363636 286.18246 
L 693.265909 286.007065 
L 697.070455 285.919367 
L 699.606818 285.831669 
L 705.947727 285.743971 
L 709.118182 285.612424 
L 715.459091 285.524726 
L 719.897727 285.305481 
L 725.604545 285.217783 
L 726.872727 285.130085 
L 734.481818 285.042387 
L 736.384091 284.998538 
L 743.359091 284.91084 
L 745.895455 284.647747 
L 747.163636 284.603898 
L 747.163636 284.603898 
" clip-path="url(#pf77ca0c65b)" style="fill: none; stroke: #ff7f0e; stroke-width: 1.5; stroke-linecap: square"/>
   </g>
   <g id="patch_3">
    <path d="M 108 320.4 
L 108 43.2 
" style="fill: none; stroke: #a9a9a9; stroke-width: 0.8; stroke-linejoin: miter; stroke-linecap: square"/>
   </g>
   <g id="patch_4">
    <path d="M 777.6 320.4 
L 777.6 43.2 
" style="fill: none"/>
   </g>
   <g id="patch_5">
    <path d="M 108 320.4 
L 777.6 320.4 
" style="fill: none; stroke: #a9a9a9; stroke-width: 0.8; stroke-linejoin: miter; stroke-linecap: square"/>
   </g>
   <g id="patch_6">
    <path d="M 108 43.2 
L 777.6 43.2 
" style="fill: none"/>
   </g>
   <g id="text_17">
    <!-- get_subscribe history -->
    <g style="fill: #a9a9a9" transform="translate(378.6075 37.2) scale(0.12 -0.12)">
     <defs>
      <path id="DejaVuSans-67" d="M 2906 1791 
Q 2906 2416 2648 2759 
Q 2391 3103 1925 3103 
Q 1463 3103 1205 2759 
Q 947 2416 947 1791 
Q 947 1169 1205 825 
Q 1463 481 1925 481 
Q 2391 481 2648 825 
Q 2906 1169 2906 1791 
z
M 3481 434 
Q 3481 -459 3084 -895 
Q 2688 -1331 1869 -1331 
Q 1566 -1331 1297 -1286 
Q 1028 -1241 775 -1147 
L 775 -588 
Q 1028 -725 1275 -790 
Q 1522 -856 1778 -856 
Q 2344 -856 2625 -561 
Q 2906 -266 2906 331 
L 2906 616 
Q 2728 306 2450 153 
Q 2172 0 1784 0 
Q 1141 0 747 490 
Q 353 981 353 1791 
Q 353 2603 747 3093 
Q 1141 3584 1784 3584 
Q 2172 3584 2450 3431 
Q 2728 3278 2906 2969 
L 2906 3500 
L 3481 3500 
L 3481 434 
z
" transform="scale(0.015625)"/>
      <path id="DejaVuSans-65" d="M 3597 1894 
L 3597 1613 
L 953 1613 
Q 991 1019 1311 708 
Q 1631 397 2203 397 
Q 2534 397 2845 478 
Q 3156 559 3463 722 
L 3463 178 
Q 3153 47 2828 -22 
Q 2503 -91 2169 -91 
Q 1331 -91 842 396 
Q 353 884 353 1716 
Q 353 2575 817 3079 
Q 1281 3584 2069 3584 
Q 2775 3584 3186 3129 
Q 3597 2675 3597 1894 
z
M 3022 2063 
Q 3016 2534 2758 2815 
Q 2500 3097 2075 3097 
Q 1594 3097 1305 2825 
Q 1016 2553 972 2059 
L 3022 2063 
z
" transform="scale(0.015625)"/>
      <path id="DejaVuSans-74" d="M 1172 4494 
L 1172 3500 
L 2356 3500 
L 2356 3053 
L 1172 3053 
L 1172 1153 
Q 1172 725 1289 603 
Q 1406 481 1766 481 
L 2356 481 
L 2356 0 
L 1766 0 
Q 1100 0 847 248 
Q 594 497 594 1153 
L 594 3053 
L 172 3053 
L 172 3500 
L 594 3500 
L 594 4494 
L 1172 4494 
z
" transform="scale(0.015625)"/>
      <path id="DejaVuSans-5f" d="M 3263 -1063 
L 3263 -1509 
L -63 -1509 
L -63 -1063 
L 3263 -1063 
z
" transform="scale(0.015625)"/>
      <path id="DejaVuSans-73" d="M 2834 3397 
L 2834 2853 
Q 2591 2978 2328 3040 
Q 2066 3103 1784 3103 
Q 1356 3103 1142 2972 
Q 928 2841 928 2578 
Q 928 2378 1081 2264 
Q 1234 2150 1697 2047 
L 1894 2003 
Q 2506 1872 2764 1633 
Q 3022 1394 3022 966 
Q 3022 478 2636 193 
Q 2250 -91 1575 -91 
Q 1294 -91 989 -36 
Q 684 19 347 128 
L 347 722 
Q 666 556 975 473 
Q 1284 391 1588 391 
Q 1994 391 2212 530 
Q 2431 669 2431 922 
Q 2431 1156 2273 1281 
Q 2116 1406 1581 1522 
L 1381 1569 
Q 847 1681 609 1914 
Q 372 2147 372 2553 
Q 372 3047 722 3315 
Q 1072 3584 1716 3584 
Q 2034 3584 2315 3537 
Q 2597 3491 2834 3397 
z
" transform="scale(0.015625)"/>
      <path id="DejaVuSans-75" d="M 544 1381 
L 544 3500 
L 1119 3500 
L 1119 1403 
Q 1119 906 1312 657 
Q 1506 409 1894 409 
Q 2359 409 2629 706 
Q 2900 1003 2900 1516 
L 2900 3500 
L 3475 3500 
L 3475 0 
L 2900 0 
L 2900 538 
Q 2691 219 2414 64 
Q 2138 -91 1772 -91 
Q 1169 -91 856 284 
Q 544 659 544 1381 
z
M 1991 3584 
L 1991 3584 
z
" transform="scale(0.015625)"/>
      <path id="DejaVuSans-62" d="M 3116 1747 
Q 3116 2381 2855 2742 
Q 2594 3103 2138 3103 
Q 1681 3103 1420 2742 
Q 1159 2381 1159 1747 
Q 1159 1113 1420 752 
Q 1681 391 2138 391 
Q 2594 391 2855 752 
Q 3116 1113 3116 1747 
z
M 1159 2969 
Q 1341 3281 1617 3432 
Q 1894 3584 2278 3584 
Q 2916 3584 3314 3078 
Q 3713 2572 3713 1747 
Q 3713 922 3314 415 
Q 2916 -91 2278 -91 
Q 1894 -91 1617 61 
Q 1341 213 1159 525 
L 1159 0 
L 581 0 
L 581 4863 
L 1159 4863 
L 1159 2969 
z
" transform="scale(0.015625)"/>
      <path id="DejaVuSans-63" d="M 3122 3366 
L 3122 2828 
Q 2878 2963 2633 3030 
Q 2388 3097 2138 3097 
Q 1578 3097 1268 2742 
Q 959 2388 959 1747 
Q 959 1106 1268 751 
Q 1578 397 2138 397 
Q 2388 397 2633 464 
Q 2878 531 3122 666 
L 3122 134 
Q 2881 22 2623 -34 
Q 2366 -91 2075 -91 
Q 1284 -91 818 406 
Q 353 903 353 1747 
Q 353 2603 823 3093 
Q 1294 3584 2113 3584 
Q 2378 3584 2631 3529 
Q 2884 3475 3122 3366 
z
" transform="scale(0.015625)"/>
      <path id="DejaVuSans-72" d="M 2631 2963 
Q 2534 3019 2420 3045 
Q 2306 3072 2169 3072 
Q 1681 3072 1420 2755 
Q 1159 2438 1159 1844 
L 1159 0 
L 581 0 
L 581 3500 
L 1159 3500 
L 1159 2956 
Q 1341 3275 1631 3429 
Q 1922 3584 2338 3584 
Q 2397 3584 2469 3576 
Q 2541 3569 2628 3553 
L 2631 2963 
z
" transform="scale(0.015625)"/>
      <path id="DejaVuSans-69" d="M 603 3500 
L 1178 3500 
L 1178 0 
L 603 0 
L 603 3500 
z
M 603 4863 
L 1178 4863 
L 1178 4134 
L 603 4134 
L 603 4863 
z
" transform="scale(0.015625)"/>
      <path id="DejaVuSans-20" transform="scale(0.015625)"/>
      <path id="DejaVuSans-68" d="M 3513 2113 
L 3513 0 
L 2938 0 
L 2938 2094 
Q 2938 2591 2744 2837 
Q 2550 3084 2163 3084 
Q 1697 3084 1428 2787 
Q 1159 2491 1159 1978 
L 1159 0 
L 581 0 
L 581 4863 
L 1159 4863 
L 1159 2956 
Q 1366 3272 1645 3428 
Q 1925 3584 2291 3584 
Q 2894 3584 3203 3211 
Q 3513 2838 3513 2113 
z
" transform="scale(0.015625)"/>
      <path id="DejaVuSans-6f" d="M 1959 3097 
Q 1497 3097 1228 2736 
Q 959 2375 959 1747 
Q 959 1119 1226 758 
Q 1494 397 1959 397 
Q 2419 397 2687 759 
Q 2956 1122 2956 1747 
Q 2956 2369 2687 2733 
Q 2419 3097 1959 3097 
z
M 1959 3584 
Q 2709 3584 3137 3096 
Q 3566 2609 3566 1747 
Q 3566 888 3137 398 
Q 2709 -91 1959 -91 
Q 1206 -91 779 398 
Q 353 888 353 1747 
Q 353 2609 779 3096 
Q 1206 3584 1959 3584 
z
" transform="scale(0.015625)"/>
      <path id="DejaVuSans-79" d="M 2059 -325 
Q 1816 -950 1584 -1140 
Q 1353 -1331 966 -1331 
L 506 -1331 
L 506 -850 
L 844 -850 
Q 1081 -850 1212 -737 
Q 1344 -625 1503 -206 
L 1606 56 
L 191 3500 
L 800 3500 
L 1894 763 
L 2988 3500 
L 3597 3500 
L 2059 -325 
z
" transform="scale(0.015625)"/>
     </defs>
     <use xlink:href="#DejaVuSans-67"/>
     <use xlink:href="#DejaVuSans-65" x="63.476562"/>
     <use xlink:href="#DejaVuSans-74" x="125"/>
     <use xlink:href="#DejaVuSans-5f" x="164.208984"/>
     <use xlink:href="#DejaVuSans-73" x="214.208984"/>
     <use xlink:href="#DejaVuSans-75" x="266.308594"/>
     <use xlink:href="#DejaVuSans-62" x="329.6875"/>
     <use xlink:href="#DejaVuSans-73" x="393.164062"/>
     <use xlink:href="#DejaVuSans-63" x="445.263672"/>
     <use xlink:href="#DejaVuSans-72" x="500.244141"/>
     <use xlink:href="#DejaVuSans-69" x="541.357422"/>
     <use xlink:href="#DejaVuSans-62" x="569.140625"/>
     <use xlink:href="#DejaVuSans-65" x="632.617188"/>
     <use xlink:href="#DejaVuSans-20" x="694.140625"/>
     <use xlink:href="#DejaVuSans-68" x="725.927734"/>
     <use xlink:href="#DejaVuSans-69" x="789.306641"/>
     <use xlink:href="#DejaVuSans-73" x="817.089844"/>
     <use xlink:href="#DejaVuSans-74" x="869.189453"/>
     <use xlink:href="#DejaVuSans-6f" x="908.398438"/>
     <use xlink:href="#DejaVuSans-72" x="969.580078"/>
     <use xlink:href="#DejaVuSans-79" x="1010.693359"/>
    </g>
   </g>
   <g id="legend_1">
    <g id="line2d_35">
     <path d="M 815.08 328.498438 
L 825.08 328.498438 
L 835.08 328.498438 
" style="fill: none; stroke: #1f77b4; stroke-width: 1.5; stroke-linecap: square"/>
    </g>
    <g id="text_18">
     <!-- star -->
     <g style="fill: #a9a9a9" transform="translate(843.08 331.998438) scale(0.1 -0.1)">
      <defs>
       <path id="DejaVuSans-61" d="M 2194 1759 
Q 1497 1759 1228 1600 
Q 959 1441 959 1056 
Q 959 750 1161 570 
Q 1363 391 1709 391 
Q 2188 391 2477 730 
Q 2766 1069 2766 1631 
L 2766 1759 
L 2194 1759 
z
M 3341 1997 
L 3341 0 
L 2766 0 
L 2766 531 
Q 2569 213 2275 61 
Q 1981 -91 1556 -91 
Q 1019 -91 701 211 
Q 384 513 384 1019 
Q 384 1609 779 1909 
Q 1175 2209 1959 2209 
L 2766 2209 
L 2766 2266 
Q 2766 2663 2505 2880 
Q 2244 3097 1772 3097 
Q 1472 3097 1187 3025 
Q 903 2953 641 2809 
L 641 3341 
Q 956 3463 1253 3523 
Q 1550 3584 1831 3584 
Q 2591 3584 2966 3190 
Q 3341 2797 3341 1997 
z
" transform="scale(0.015625)"/>
      </defs>
      <use xlink:href="#DejaVuSans-73"/>
      <use xlink:href="#DejaVuSans-74" x="52.099609"/>
      <use xlink:href="#DejaVuSans-61" x="91.308594"/>
      <use xlink:href="#DejaVuSans-72" x="152.587891"/>
     </g>
    </g>
    <g id="line2d_36">
     <path d="M 815.08 343.176562 
L 825.08 343.176562 
L 835.08 343.176562 
" style="fill: none; stroke: #ff7f0e; stroke-width: 1.5; stroke-linecap: square"/>
    </g>
    <g id="text_19">
     <!-- fork -->
     <g style="fill: #a9a9a9" transform="translate(843.08 346.676562) scale(0.1 -0.1)">
      <defs>
       <path id="DejaVuSans-66" d="M 2375 4863 
L 2375 4384 
L 1825 4384 
Q 1516 4384 1395 4259 
Q 1275 4134 1275 3809 
L 1275 3500 
L 2222 3500 
L 2222 3053 
L 1275 3053 
L 1275 0 
L 697 0 
L 697 3053 
L 147 3053 
L 147 3500 
L 697 3500 
L 697 3744 
Q 697 4328 969 4595 
Q 1241 4863 1831 4863 
L 2375 4863 
z
" transform="scale(0.015625)"/>
       <path id="DejaVuSans-6b" d="M 581 4863 
L 1159 4863 
L 1159 1991 
L 2875 3500 
L 3609 3500 
L 1753 1863 
L 3688 0 
L 2938 0 
L 1159 1709 
L 1159 0 
L 581 0 
L 581 4863 
z
" transform="scale(0.015625)"/>
      </defs>
      <use xlink:href="#DejaVuSans-66"/>
      <use xlink:href="#DejaVuSans-6f" x="35.205078"/>
      <use xlink:href="#DejaVuSans-72" x="96.386719"/>
      <use xlink:href="#DejaVuSans-6b" x="137.5"/>
     </g>
    </g>
   </g>
  </g>
 </g>
 <defs>
  <clipPath id="pf77ca0c65b">
   <rect x="108" y="43.2" width="669.6" height="277.2"/>
  </clipPath>
 </defs>
</svg>
