<?xml version="1.0" encoding="utf-8" standalone="no"?>
<!DOCTYPE svg PUBLIC "-//W3C//DTD SVG 1.1//EN"
  "http://www.w3.org/Graphics/SVG/1.1/DTD/svg11.dtd">
<svg xmlns:xlink="http://www.w3.org/1999/xlink" width="864pt" height="360pt" viewBox="0 0 864 360" xmlns="http://www.w3.org/2000/svg" version="1.1">
 <metadata>
  <rdf:RDF xmlns:dc="http://purl.org/dc/elements/1.1/" xmlns:cc="http://creativecommons.org/ns#" xmlns:rdf="http://www.w3.org/1999/02/22-rdf-syntax-ns#">
   <cc:Work>
    <dc:type rdf:resource="http://purl.org/dc/dcmitype/StillImage"/>
    <dc:date>2024-03-08T08:10:51.083603</dc:date>
    <dc:format>image/svg+xml</dc:format>
    <dc:creator>
     <cc:Agent>
      <dc:title>Matplotlib v3.8.3, https://matplotlib.org/</dc:title>
     </cc:Agent>
    </dc:creator>
   </cc:Work>
  </rdf:RDF>
 </metadata>
 <defs>
  <style type="text/css">*{stroke-linejoin: round; stroke-linecap: butt}</style>
 </defs>
 <g id="figure_1">
  <g id="patch_1">
   <path d="M 0 360 
L 864 360 
L 864 0 
L 0 0 
L 0 360 
z
" style="fill: none; opacity: 0"/>
  </g>
  <g id="axes_1">
   <g id="patch_2">
    <path d="M 108 320.4 
L 777.6 320.4 
L 777.6 43.2 
L 108 43.2 
L 108 320.4 
z
" style="fill: none; opacity: 0"/>
   </g>
   <g id="matplotlib.axis_1">
    <g id="xtick_1">
     <g id="line2d_1">
      <path d="M 163.217537 320.4 
L 163.217537 43.2 
" clip-path="url(#p397e8dda62)" style="fill: none; stroke-dasharray: 5.12,1.28,0.8,1.28; stroke-dashoffset: 0; stroke: #b0b0b0; stroke-width: 0.8"/>
     </g>
     <g id="line2d_2">
      <defs>
       <path id="m68a88e0ee7" d="M 0 0 
L 0 3.5 
" style="stroke: #a9a9a9; stroke-width: 0.8"/>
      </defs>
      <g>
       <use xlink:href="#m68a88e0ee7" x="163.217537" y="320.4" style="fill: #a9a9a9; stroke: #a9a9a9; stroke-width: 0.8"/>
      </g>
     </g>
     <g id="text_1">
      <!-- 2021-09 -->
      <g style="fill: #a9a9a9" transform="translate(142.32613 334.998438) scale(0.1 -0.1)">
       <defs>
        <path id="DejaVuSans-32" d="M 1228 531 
L 3431 531 
L 3431 0 
L 469 0 
L 469 531 
Q 828 903 1448 1529 
Q 2069 2156 2228 2338 
Q 2531 2678 2651 2914 
Q 2772 3150 2772 3378 
Q 2772 3750 2511 3984 
Q 2250 4219 1831 4219 
Q 1534 4219 1204 4116 
Q 875 4013 500 3803 
L 500 4441 
Q 881 4594 1212 4672 
Q 1544 4750 1819 4750 
Q 2544 4750 2975 4387 
Q 3406 4025 3406 3419 
Q 3406 3131 3298 2873 
Q 3191 2616 2906 2266 
Q 2828 2175 2409 1742 
Q 1991 1309 1228 531 
z
" transform="scale(0.015625)"/>
        <path id="DejaVuSans-30" d="M 2034 4250 
Q 1547 4250 1301 3770 
Q 1056 3291 1056 2328 
Q 1056 1369 1301 889 
Q 1547 409 2034 409 
Q 2525 409 2770 889 
Q 3016 1369 3016 2328 
Q 3016 3291 2770 3770 
Q 2525 4250 2034 4250 
z
M 2034 4750 
Q 2819 4750 3233 4129 
Q 3647 3509 3647 2328 
Q 3647 1150 3233 529 
Q 2819 -91 2034 -91 
Q 1250 -91 836 529 
Q 422 1150 422 2328 
Q 422 3509 836 4129 
Q 1250 4750 2034 4750 
z
" transform="scale(0.015625)"/>
        <path id="DejaVuSans-31" d="M 794 531 
L 1825 531 
L 1825 4091 
L 703 3866 
L 703 4441 
L 1819 4666 
L 2450 4666 
L 2450 531 
L 3481 531 
L 3481 0 
L 794 0 
L 794 531 
z
" transform="scale(0.015625)"/>
        <path id="DejaVuSans-2d" d="M 313 2009 
L 1997 2009 
L 1997 1497 
L 313 1497 
L 313 2009 
z
" transform="scale(0.015625)"/>
        <path id="DejaVuSans-39" d="M 703 97 
L 703 672 
Q 941 559 1184 500 
Q 1428 441 1663 441 
Q 2288 441 2617 861 
Q 2947 1281 2994 2138 
Q 2813 1869 2534 1725 
Q 2256 1581 1919 1581 
Q 1219 1581 811 2004 
Q 403 2428 403 3163 
Q 403 3881 828 4315 
Q 1253 4750 1959 4750 
Q 2769 4750 3195 4129 
Q 3622 3509 3622 2328 
Q 3622 1225 3098 567 
Q 2575 -91 1691 -91 
Q 1453 -91 1209 -44 
Q 966 3 703 97 
z
M 1959 2075 
Q 2384 2075 2632 2365 
Q 2881 2656 2881 3163 
Q 2881 3666 2632 3958 
Q 2384 4250 1959 4250 
Q 1534 4250 1286 3958 
Q 1038 3666 1038 3163 
Q 1038 2656 1286 2365 
Q 1534 2075 1959 2075 
z
" transform="scale(0.015625)"/>
       </defs>
       <use xlink:href="#DejaVuSans-32"/>
       <use xlink:href="#DejaVuSans-30" x="63.623047"/>
       <use xlink:href="#DejaVuSans-32" x="127.246094"/>
       <use xlink:href="#DejaVuSans-31" x="190.869141"/>
       <use xlink:href="#DejaVuSans-2d" x="254.492188"/>
       <use xlink:href="#DejaVuSans-30" x="290.576172"/>
       <use xlink:href="#DejaVuSans-39" x="354.199219"/>
      </g>
     </g>
    </g>
    <g id="xtick_2">
     <g id="line2d_3">
      <path d="M 240.738129 320.4 
L 240.738129 43.2 
" clip-path="url(#p397e8dda62)" style="fill: none; stroke-dasharray: 5.12,1.28,0.8,1.28; stroke-dashoffset: 0; stroke: #b0b0b0; stroke-width: 0.8"/>
     </g>
     <g id="line2d_4">
      <g>
       <use xlink:href="#m68a88e0ee7" x="240.738129" y="320.4" style="fill: #a9a9a9; stroke: #a9a9a9; stroke-width: 0.8"/>
      </g>
     </g>
     <g id="text_2">
      <!-- 2022-01 -->
      <g style="fill: #a9a9a9" transform="translate(219.846722 334.998438) scale(0.1 -0.1)">
       <use xlink:href="#DejaVuSans-32"/>
       <use xlink:href="#DejaVuSans-30" x="63.623047"/>
       <use xlink:href="#DejaVuSans-32" x="127.246094"/>
       <use xlink:href="#DejaVuSans-32" x="190.869141"/>
       <use xlink:href="#DejaVuSans-2d" x="254.492188"/>
       <use xlink:href="#DejaVuSans-30" x="290.576172"/>
       <use xlink:href="#DejaVuSans-31" x="354.199219"/>
      </g>
     </g>
    </g>
    <g id="xtick_3">
     <g id="line2d_5">
      <path d="M 316.987891 320.4 
L 316.987891 43.2 
" clip-path="url(#p397e8dda62)" style="fill: none; stroke-dasharray: 5.12,1.28,0.8,1.28; stroke-dashoffset: 0; stroke: #b0b0b0; stroke-width: 0.8"/>
     </g>
     <g id="line2d_6">
      <g>
       <use xlink:href="#m68a88e0ee7" x="316.987891" y="320.4" style="fill: #a9a9a9; stroke: #a9a9a9; stroke-width: 0.8"/>
      </g>
     </g>
     <g id="text_3">
      <!-- 2022-05 -->
      <g style="fill: #a9a9a9" transform="translate(296.096485 334.998438) scale(0.1 -0.1)">
       <defs>
        <path id="DejaVuSans-35" d="M 691 4666 
L 3169 4666 
L 3169 4134 
L 1269 4134 
L 1269 2991 
Q 1406 3038 1543 3061 
Q 1681 3084 1819 3084 
Q 2600 3084 3056 2656 
Q 3513 2228 3513 1497 
Q 3513 744 3044 326 
Q 2575 -91 1722 -91 
Q 1428 -91 1123 -41 
Q 819 9 494 109 
L 494 744 
Q 775 591 1075 516 
Q 1375 441 1709 441 
Q 2250 441 2565 725 
Q 2881 1009 2881 1497 
Q 2881 1984 2565 2268 
Q 2250 2553 1709 2553 
Q 1456 2553 1204 2497 
Q 953 2441 691 2322 
L 691 4666 
z
" transform="scale(0.015625)"/>
       </defs>
       <use xlink:href="#DejaVuSans-32"/>
       <use xlink:href="#DejaVuSans-30" x="63.623047"/>
       <use xlink:href="#DejaVuSans-32" x="127.246094"/>
       <use xlink:href="#DejaVuSans-32" x="190.869141"/>
       <use xlink:href="#DejaVuSans-2d" x="254.492188"/>
       <use xlink:href="#DejaVuSans-30" x="290.576172"/>
       <use xlink:href="#DejaVuSans-35" x="354.199219"/>
      </g>
     </g>
    </g>
    <g id="xtick_4">
     <g id="line2d_7">
      <path d="M 395.143898 320.4 
L 395.143898 43.2 
" clip-path="url(#p397e8dda62)" style="fill: none; stroke-dasharray: 5.12,1.28,0.8,1.28; stroke-dashoffset: 0; stroke: #b0b0b0; stroke-width: 0.8"/>
     </g>
     <g id="line2d_8">
      <g>
       <use xlink:href="#m68a88e0ee7" x="395.143898" y="320.4" style="fill: #a9a9a9; stroke: #a9a9a9; stroke-width: 0.8"/>
      </g>
     </g>
     <g id="text_4">
      <!-- 2022-09 -->
      <g style="fill: #a9a9a9" transform="translate(374.252492 334.998438) scale(0.1 -0.1)">
       <use xlink:href="#DejaVuSans-32"/>
       <use xlink:href="#DejaVuSans-30" x="63.623047"/>
       <use xlink:href="#DejaVuSans-32" x="127.246094"/>
       <use xlink:href="#DejaVuSans-32" x="190.869141"/>
       <use xlink:href="#DejaVuSans-2d" x="254.492188"/>
       <use xlink:href="#DejaVuSans-30" x="290.576172"/>
       <use xlink:href="#DejaVuSans-39" x="354.199219"/>
      </g>
     </g>
    </g>
    <g id="xtick_5">
     <g id="line2d_9">
      <path d="M 472.66449 320.4 
L 472.66449 43.2 
" clip-path="url(#p397e8dda62)" style="fill: none; stroke-dasharray: 5.12,1.28,0.8,1.28; stroke-dashoffset: 0; stroke: #b0b0b0; stroke-width: 0.8"/>
     </g>
     <g id="line2d_10">
      <g>
       <use xlink:href="#m68a88e0ee7" x="472.66449" y="320.4" style="fill: #a9a9a9; stroke: #a9a9a9; stroke-width: 0.8"/>
      </g>
     </g>
     <g id="text_5">
      <!-- 2023-01 -->
      <g style="fill: #a9a9a9" transform="translate(451.773084 334.998438) scale(0.1 -0.1)">
       <defs>
        <path id="DejaVuSans-33" d="M 2597 2516 
Q 3050 2419 3304 2112 
Q 3559 1806 3559 1356 
Q 3559 666 3084 287 
Q 2609 -91 1734 -91 
Q 1441 -91 1130 -33 
Q 819 25 488 141 
L 488 750 
Q 750 597 1062 519 
Q 1375 441 1716 441 
Q 2309 441 2620 675 
Q 2931 909 2931 1356 
Q 2931 1769 2642 2001 
Q 2353 2234 1838 2234 
L 1294 2234 
L 1294 2753 
L 1863 2753 
Q 2328 2753 2575 2939 
Q 2822 3125 2822 3475 
Q 2822 3834 2567 4026 
Q 2313 4219 1838 4219 
Q 1578 4219 1281 4162 
Q 984 4106 628 3988 
L 628 4550 
Q 988 4650 1302 4700 
Q 1616 4750 1894 4750 
Q 2613 4750 3031 4423 
Q 3450 4097 3450 3541 
Q 3450 3153 3228 2886 
Q 3006 2619 2597 2516 
z
" transform="scale(0.015625)"/>
       </defs>
       <use xlink:href="#DejaVuSans-32"/>
       <use xlink:href="#DejaVuSans-30" x="63.623047"/>
       <use xlink:href="#DejaVuSans-32" x="127.246094"/>
       <use xlink:href="#DejaVuSans-33" x="190.869141"/>
       <use xlink:href="#DejaVuSans-2d" x="254.492188"/>
       <use xlink:href="#DejaVuSans-30" x="290.576172"/>
       <use xlink:href="#DejaVuSans-31" x="354.199219"/>
      </g>
     </g>
    </g>
    <g id="xtick_6">
     <g id="line2d_11">
      <path d="M 548.914253 320.4 
L 548.914253 43.2 
" clip-path="url(#p397e8dda62)" style="fill: none; stroke-dasharray: 5.12,1.28,0.8,1.28; stroke-dashoffset: 0; stroke: #b0b0b0; stroke-width: 0.8"/>
     </g>
     <g id="line2d_12">
      <g>
       <use xlink:href="#m68a88e0ee7" x="548.914253" y="320.4" style="fill: #a9a9a9; stroke: #a9a9a9; stroke-width: 0.8"/>
      </g>
     </g>
     <g id="text_6">
      <!-- 2023-05 -->
      <g style="fill: #a9a9a9" transform="translate(528.022847 334.998438) scale(0.1 -0.1)">
       <use xlink:href="#DejaVuSans-32"/>
       <use xlink:href="#DejaVuSans-30" x="63.623047"/>
       <use xlink:href="#DejaVuSans-32" x="127.246094"/>
       <use xlink:href="#DejaVuSans-33" x="190.869141"/>
       <use xlink:href="#DejaVuSans-2d" x="254.492188"/>
       <use xlink:href="#DejaVuSans-30" x="290.576172"/>
       <use xlink:href="#DejaVuSans-35" x="354.199219"/>
      </g>
     </g>
    </g>
    <g id="xtick_7">
     <g id="line2d_13">
      <path d="M 627.07026 320.4 
L 627.07026 43.2 
" clip-path="url(#p397e8dda62)" style="fill: none; stroke-dasharray: 5.12,1.28,0.8,1.28; stroke-dashoffset: 0; stroke: #b0b0b0; stroke-width: 0.8"/>
     </g>
     <g id="line2d_14">
      <g>
       <use xlink:href="#m68a88e0ee7" x="627.07026" y="320.4" style="fill: #a9a9a9; stroke: #a9a9a9; stroke-width: 0.8"/>
      </g>
     </g>
     <g id="text_7">
      <!-- 2023-09 -->
      <g style="fill: #a9a9a9" transform="translate(606.178854 334.998438) scale(0.1 -0.1)">
       <use xlink:href="#DejaVuSans-32"/>
       <use xlink:href="#DejaVuSans-30" x="63.623047"/>
       <use xlink:href="#DejaVuSans-32" x="127.246094"/>
       <use xlink:href="#DejaVuSans-33" x="190.869141"/>
       <use xlink:href="#DejaVuSans-2d" x="254.492188"/>
       <use xlink:href="#DejaVuSans-30" x="290.576172"/>
       <use xlink:href="#DejaVuSans-39" x="354.199219"/>
      </g>
     </g>
    </g>
    <g id="xtick_8">
     <g id="line2d_15">
      <path d="M 704.590852 320.4 
L 704.590852 43.2 
" clip-path="url(#p397e8dda62)" style="fill: none; stroke-dasharray: 5.12,1.28,0.8,1.28; stroke-dashoffset: 0; stroke: #b0b0b0; stroke-width: 0.8"/>
     </g>
     <g id="line2d_16">
      <g>
       <use xlink:href="#m68a88e0ee7" x="704.590852" y="320.4" style="fill: #a9a9a9; stroke: #a9a9a9; stroke-width: 0.8"/>
      </g>
     </g>
     <g id="text_8">
      <!-- 2024-01 -->
      <g style="fill: #a9a9a9" transform="translate(683.699446 334.998438) scale(0.1 -0.1)">
       <defs>
        <path id="DejaVuSans-34" d="M 2419 4116 
L 825 1625 
L 2419 1625 
L 2419 4116 
z
M 2253 4666 
L 3047 4666 
L 3047 1625 
L 3713 1625 
L 3713 1100 
L 3047 1100 
L 3047 0 
L 2419 0 
L 2419 1100 
L 313 1100 
L 313 1709 
L 2253 4666 
z
" transform="scale(0.015625)"/>
       </defs>
       <use xlink:href="#DejaVuSans-32"/>
       <use xlink:href="#DejaVuSans-30" x="63.623047"/>
       <use xlink:href="#DejaVuSans-32" x="127.246094"/>
       <use xlink:href="#DejaVuSans-34" x="190.869141"/>
       <use xlink:href="#DejaVuSans-2d" x="254.492188"/>
       <use xlink:href="#DejaVuSans-30" x="290.576172"/>
       <use xlink:href="#DejaVuSans-31" x="354.199219"/>
      </g>
     </g>
    </g>
   </g>
   <g id="matplotlib.axis_2">
    <g id="ytick_1">
     <g id="line2d_17">
      <path d="M 108 307.843925 
L 777.6 307.843925 
" clip-path="url(#p397e8dda62)" style="fill: none; stroke-dasharray: 5.12,1.28,0.8,1.28; stroke-dashoffset: 0; stroke: #b0b0b0; stroke-width: 0.8"/>
     </g>
     <g id="line2d_18">
      <defs>
       <path id="m38384b8abf" d="M 0 0 
L -3.5 0 
" style="stroke: #a9a9a9; stroke-width: 0.8"/>
      </defs>
      <g>
       <use xlink:href="#m38384b8abf" x="108" y="307.843925" style="fill: #a9a9a9; stroke: #a9a9a9; stroke-width: 0.8"/>
      </g>
     </g>
     <g id="text_9">
      <!-- 0 -->
      <g style="fill: #a9a9a9" transform="translate(94.6375 311.643144) scale(0.1 -0.1)">
       <use xlink:href="#DejaVuSans-30"/>
      </g>
     </g>
    </g>
    <g id="ytick_2">
     <g id="line2d_19">
      <path d="M 108 272.703608 
L 777.6 272.703608 
" clip-path="url(#p397e8dda62)" style="fill: none; stroke-dasharray: 5.12,1.28,0.8,1.28; stroke-dashoffset: 0; stroke: #b0b0b0; stroke-width: 0.8"/>
     </g>
     <g id="line2d_20">
      <g>
       <use xlink:href="#m38384b8abf" x="108" y="272.703608" style="fill: #a9a9a9; stroke: #a9a9a9; stroke-width: 0.8"/>
      </g>
     </g>
     <g id="text_10">
      <!-- 800 -->
      <g style="fill: #a9a9a9" transform="translate(81.9125 276.502827) scale(0.1 -0.1)">
       <defs>
        <path id="DejaVuSans-38" d="M 2034 2216 
Q 1584 2216 1326 1975 
Q 1069 1734 1069 1313 
Q 1069 891 1326 650 
Q 1584 409 2034 409 
Q 2484 409 2743 651 
Q 3003 894 3003 1313 
Q 3003 1734 2745 1975 
Q 2488 2216 2034 2216 
z
M 1403 2484 
Q 997 2584 770 2862 
Q 544 3141 544 3541 
Q 544 4100 942 4425 
Q 1341 4750 2034 4750 
Q 2731 4750 3128 4425 
Q 3525 4100 3525 3541 
Q 3525 3141 3298 2862 
Q 3072 2584 2669 2484 
Q 3125 2378 3379 2068 
Q 3634 1759 3634 1313 
Q 3634 634 3220 271 
Q 2806 -91 2034 -91 
Q 1263 -91 848 271 
Q 434 634 434 1313 
Q 434 1759 690 2068 
Q 947 2378 1403 2484 
z
M 1172 3481 
Q 1172 3119 1398 2916 
Q 1625 2713 2034 2713 
Q 2441 2713 2670 2916 
Q 2900 3119 2900 3481 
Q 2900 3844 2670 4047 
Q 2441 4250 2034 4250 
Q 1625 4250 1398 4047 
Q 1172 3844 1172 3481 
z
" transform="scale(0.015625)"/>
       </defs>
       <use xlink:href="#DejaVuSans-38"/>
       <use xlink:href="#DejaVuSans-30" x="63.623047"/>
       <use xlink:href="#DejaVuSans-30" x="127.246094"/>
      </g>
     </g>
    </g>
    <g id="ytick_3">
     <g id="line2d_21">
      <path d="M 108 237.563291 
L 777.6 237.563291 
" clip-path="url(#p397e8dda62)" style="fill: none; stroke-dasharray: 5.12,1.28,0.8,1.28; stroke-dashoffset: 0; stroke: #b0b0b0; stroke-width: 0.8"/>
     </g>
     <g id="line2d_22">
      <g>
       <use xlink:href="#m38384b8abf" x="108" y="237.563291" style="fill: #a9a9a9; stroke: #a9a9a9; stroke-width: 0.8"/>
      </g>
     </g>
     <g id="text_11">
      <!-- 1600 -->
      <g style="fill: #a9a9a9" transform="translate(75.55 241.36251) scale(0.1 -0.1)">
       <defs>
        <path id="DejaVuSans-36" d="M 2113 2584 
Q 1688 2584 1439 2293 
Q 1191 2003 1191 1497 
Q 1191 994 1439 701 
Q 1688 409 2113 409 
Q 2538 409 2786 701 
Q 3034 994 3034 1497 
Q 3034 2003 2786 2293 
Q 2538 2584 2113 2584 
z
M 3366 4563 
L 3366 3988 
Q 3128 4100 2886 4159 
Q 2644 4219 2406 4219 
Q 1781 4219 1451 3797 
Q 1122 3375 1075 2522 
Q 1259 2794 1537 2939 
Q 1816 3084 2150 3084 
Q 2853 3084 3261 2657 
Q 3669 2231 3669 1497 
Q 3669 778 3244 343 
Q 2819 -91 2113 -91 
Q 1303 -91 875 529 
Q 447 1150 447 2328 
Q 447 3434 972 4092 
Q 1497 4750 2381 4750 
Q 2619 4750 2861 4703 
Q 3103 4656 3366 4563 
z
" transform="scale(0.015625)"/>
       </defs>
       <use xlink:href="#DejaVuSans-31"/>
       <use xlink:href="#DejaVuSans-36" x="63.623047"/>
       <use xlink:href="#DejaVuSans-30" x="127.246094"/>
       <use xlink:href="#DejaVuSans-30" x="190.869141"/>
      </g>
     </g>
    </g>
    <g id="ytick_4">
     <g id="line2d_23">
      <path d="M 108 202.422974 
L 777.6 202.422974 
" clip-path="url(#p397e8dda62)" style="fill: none; stroke-dasharray: 5.12,1.28,0.8,1.28; stroke-dashoffset: 0; stroke: #b0b0b0; stroke-width: 0.8"/>
     </g>
     <g id="line2d_24">
      <g>
       <use xlink:href="#m38384b8abf" x="108" y="202.422974" style="fill: #a9a9a9; stroke: #a9a9a9; stroke-width: 0.8"/>
      </g>
     </g>
     <g id="text_12">
      <!-- 2400 -->
      <g style="fill: #a9a9a9" transform="translate(75.55 206.222192) scale(0.1 -0.1)">
       <use xlink:href="#DejaVuSans-32"/>
       <use xlink:href="#DejaVuSans-34" x="63.623047"/>
       <use xlink:href="#DejaVuSans-30" x="127.246094"/>
       <use xlink:href="#DejaVuSans-30" x="190.869141"/>
      </g>
     </g>
    </g>
    <g id="ytick_5">
     <g id="line2d_25">
      <path d="M 108 167.282656 
L 777.6 167.282656 
" clip-path="url(#p397e8dda62)" style="fill: none; stroke-dasharray: 5.12,1.28,0.8,1.28; stroke-dashoffset: 0; stroke: #b0b0b0; stroke-width: 0.8"/>
     </g>
     <g id="line2d_26">
      <g>
       <use xlink:href="#m38384b8abf" x="108" y="167.282656" style="fill: #a9a9a9; stroke: #a9a9a9; stroke-width: 0.8"/>
      </g>
     </g>
     <g id="text_13">
      <!-- 3200 -->
      <g style="fill: #a9a9a9" transform="translate(75.55 171.081875) scale(0.1 -0.1)">
       <use xlink:href="#DejaVuSans-33"/>
       <use xlink:href="#DejaVuSans-32" x="63.623047"/>
       <use xlink:href="#DejaVuSans-30" x="127.246094"/>
       <use xlink:href="#DejaVuSans-30" x="190.869141"/>
      </g>
     </g>
    </g>
    <g id="ytick_6">
     <g id="line2d_27">
      <path d="M 108 132.142339 
L 777.6 132.142339 
" clip-path="url(#p397e8dda62)" style="fill: none; stroke-dasharray: 5.12,1.28,0.8,1.28; stroke-dashoffset: 0; stroke: #b0b0b0; stroke-width: 0.8"/>
     </g>
     <g id="line2d_28">
      <g>
       <use xlink:href="#m38384b8abf" x="108" y="132.142339" style="fill: #a9a9a9; stroke: #a9a9a9; stroke-width: 0.8"/>
      </g>
     </g>
     <g id="text_14">
      <!-- 4000 -->
      <g style="fill: #a9a9a9" transform="translate(75.55 135.941558) scale(0.1 -0.1)">
       <use xlink:href="#DejaVuSans-34"/>
       <use xlink:href="#DejaVuSans-30" x="63.623047"/>
       <use xlink:href="#DejaVuSans-30" x="127.246094"/>
       <use xlink:href="#DejaVuSans-30" x="190.869141"/>
      </g>
     </g>
    </g>
    <g id="ytick_7">
     <g id="line2d_29">
      <path d="M 108 97.002022 
L 777.6 97.002022 
" clip-path="url(#p397e8dda62)" style="fill: none; stroke-dasharray: 5.12,1.28,0.8,1.28; stroke-dashoffset: 0; stroke: #b0b0b0; stroke-width: 0.8"/>
     </g>
     <g id="line2d_30">
      <g>
       <use xlink:href="#m38384b8abf" x="108" y="97.002022" style="fill: #a9a9a9; stroke: #a9a9a9; stroke-width: 0.8"/>
      </g>
     </g>
     <g id="text_15">
      <!-- 4800 -->
      <g style="fill: #a9a9a9" transform="translate(75.55 100.801241) scale(0.1 -0.1)">
       <use xlink:href="#DejaVuSans-34"/>
       <use xlink:href="#DejaVuSans-38" x="63.623047"/>
       <use xlink:href="#DejaVuSans-30" x="127.246094"/>
       <use xlink:href="#DejaVuSans-30" x="190.869141"/>
      </g>
     </g>
    </g>
    <g id="ytick_8">
     <g id="line2d_31">
      <path d="M 108 61.861705 
L 777.6 61.861705 
" clip-path="url(#p397e8dda62)" style="fill: none; stroke-dasharray: 5.12,1.28,0.8,1.28; stroke-dashoffset: 0; stroke: #b0b0b0; stroke-width: 0.8"/>
     </g>
     <g id="line2d_32">
      <g>
       <use xlink:href="#m38384b8abf" x="108" y="61.861705" style="fill: #a9a9a9; stroke: #a9a9a9; stroke-width: 0.8"/>
      </g>
     </g>
     <g id="text_16">
      <!-- 5600 -->
      <g style="fill: #a9a9a9" transform="translate(75.55 65.660923) scale(0.1 -0.1)">
       <use xlink:href="#DejaVuSans-35"/>
       <use xlink:href="#DejaVuSans-36" x="63.623047"/>
       <use xlink:href="#DejaVuSans-30" x="127.246094"/>
       <use xlink:href="#DejaVuSans-30" x="190.869141"/>
      </g>
     </g>
    </g>
   </g>
   <g id="line2d_33">
    <path d="M 138.436364 307.712149 
L 142.248852 307.404671 
L 142.884266 307.141119 
L 144.790511 306.921492 
L 148.602999 306.17476 
L 152.415487 305.867283 
L 153.050901 305.559805 
L 153.686316 305.384103 
L 154.321731 304.593446 
L 154.957146 304.154192 
L 155.59256 302.792505 
L 156.227975 302.704654 
L 156.86339 302.221475 
L 158.134219 301.606519 
L 160.675878 299.673802 
L 161.946707 299.146697 
L 162.582122 298.707443 
L 165.123781 297.609308 
L 165.759195 296.599024 
L 167.030025 295.676591 
L 167.665439 295.369113 
L 174.019586 294.490605 
L 174.655001 294.183127 
L 179.102904 293.831724 
L 181.009148 293.348545 
L 186.72788 292.601813 
L 187.363295 292.25041 
L 187.998709 292.162559 
L 188.634124 291.899006 
L 189.904954 291.679379 
L 190.540368 291.635454 
L 191.175783 291.415827 
L 193.717442 291.020499 
L 194.988271 290.669095 
L 196.894515 290.493394 
L 198.165344 290.361618 
L 198.800759 290.185916 
L 199.436174 290.141991 
L 201.342418 289.57096 
L 205.154906 288.99993 
L 205.790321 288.824229 
L 206.425735 287.945721 
L 208.33198 287.242914 
L 210.238224 286.71581 
L 210.873638 286.408332 
L 211.509053 286.364406 
L 214.686126 285.485899 
L 215.956956 285.398048 
L 216.59237 285.310197 
L 218.498615 284.739167 
L 221.040273 284.124211 
L 221.675688 283.860659 
L 222.311103 283.772808 
L 222.946517 283.46533 
L 229.300664 282.498972 
L 232.477738 281.620464 
L 233.113152 281.225135 
L 235.654811 280.566254 
L 236.925641 279.819522 
L 237.561055 279.380268 
L 239.467299 279.028865 
L 243.279787 277.886805 
L 244.550617 277.491476 
L 245.186032 277.403626 
L 246.456861 277.052222 
L 247.72769 276.744745 
L 248.363105 276.656894 
L 249.633934 276.129789 
L 250.269349 275.998013 
L 250.904764 275.734461 
L 251.540178 275.64661 
L 252.175593 275.339132 
L 252.811008 275.16343 
L 254.081837 275.07558 
L 255.352667 274.636326 
L 256.623496 274.548475 
L 257.258911 274.240997 
L 259.800569 273.801743 
L 262.342228 273.582116 
L 262.977643 273.45034 
L 264.248472 272.835384 
L 271.238034 269.892383 
L 271.873448 269.54098 
L 272.508863 268.838173 
L 273.144278 267.783964 
L 273.779693 266.949381 
L 274.415107 266.77368 
L 275.050522 266.77368 
L 276.321351 265.851246 
L 276.956766 265.675545 
L 277.592181 265.324142 
L 278.227595 265.192365 
L 278.86301 264.621335 
L 279.498425 264.445634 
L 281.404669 263.5232 
L 282.675498 261.766184 
L 283.310913 261.370856 
L 283.946328 260.316646 
L 284.581742 259.657765 
L 285.217157 259.350288 
L 285.852572 259.174586 
L 288.39423 257.681123 
L 289.66506 256.670838 
L 290.300474 256.27551 
L 290.935889 255.353077 
L 291.571304 253.903538 
L 292.206719 252.981105 
L 292.842133 252.497926 
L 293.477548 252.234373 
L 296.019207 250.038104 
L 297.290036 249.027819 
L 297.925451 248.500715 
L 298.560865 247.666132 
L 299.831695 246.567997 
L 302.373354 244.942758 
L 303.008768 244.371727 
L 303.644183 244.239951 
L 304.279598 243.976399 
L 305.550427 243.273592 
L 307.456671 242.307234 
L 308.7275 241.121248 
L 309.362915 240.374516 
L 310.633745 239.496008 
L 311.269159 239.320307 
L 311.904574 239.012829 
L 313.175403 238.178246 
L 313.810818 237.826843 
L 314.446233 237.738993 
L 315.717062 237.036186 
L 316.352477 236.684783 
L 316.987891 236.025902 
L 317.623306 235.630573 
L 318.258721 235.410946 
L 319.52955 234.664215 
L 320.164965 234.312812 
L 320.80038 234.093185 
L 322.706624 232.863273 
L 324.612868 232.292243 
L 325.248282 231.852989 
L 325.883697 231.721213 
L 327.154526 231.281959 
L 329.060771 230.535227 
L 330.967015 229.832421 
L 332.237844 229.612794 
L 333.508673 228.514659 
L 334.779503 227.899704 
L 336.050332 227.196897 
L 336.685747 226.845494 
L 337.956576 226.494091 
L 338.591991 226.098762 
L 339.227406 225.923061 
L 341.13365 224.737075 
L 344.310723 223.990343 
L 346.216967 222.892208 
L 346.852382 222.804358 
L 347.487797 222.584731 
L 348.758626 222.321178 
L 350.66487 220.915566 
L 352.571114 220.476312 
L 353.206529 220.256685 
L 353.841943 219.773505 
L 357.654432 218.543594 
L 358.289846 218.499669 
L 362.737749 216.918355 
L 363.373164 216.610877 
L 365.279408 216.171623 
L 366.550237 215.864145 
L 367.185652 215.556667 
L 367.821067 215.424891 
L 369.727311 214.546383 
L 371.633555 213.62395 
L 372.268969 213.184696 
L 372.904384 213.008994 
L 374.810628 211.99871 
L 376.081458 211.691232 
L 377.352287 211.032351 
L 378.623116 210.680948 
L 379.258531 210.593097 
L 380.52936 209.846366 
L 381.164775 209.71459 
L 382.435604 209.187485 
L 383.071019 209.055709 
L 383.706434 208.704305 
L 386.248093 208.308977 
L 387.518922 207.694021 
L 388.154337 207.166917 
L 388.789751 206.068782 
L 390.060581 205.805229 
L 390.695995 205.673453 
L 393.237654 204.355691 
L 393.873069 204.223915 
L 398.956386 201.808018 
L 400.86263 201.41269 
L 401.498045 201.061286 
L 405.310533 199.743524 
L 406.581363 198.952867 
L 407.852192 198.206136 
L 408.487607 198.118285 
L 409.123021 197.898658 
L 409.758436 197.854732 
L 412.93551 197.02015 
L 413.570924 196.536971 
L 414.841754 196.097717 
L 416.747998 195.482761 
L 417.383412 195.087432 
L 418.018827 194.911731 
L 418.654242 194.472477 
L 419.289656 194.208925 
L 419.925071 193.813596 
L 421.195901 193.374342 
L 423.102145 192.759386 
L 423.737559 192.451909 
L 425.643803 191.002371 
L 426.279218 190.870594 
L 427.550047 189.904236 
L 428.185462 189.772459 
L 428.820877 188.806101 
L 429.456292 188.542548 
L 430.091706 188.059369 
L 430.727121 187.971518 
L 431.99795 187.224786 
L 432.633365 187.09301 
L 433.26878 186.829458 
L 433.904194 186.346279 
L 434.539609 186.126652 
L 436.445853 184.852815 
L 438.987512 183.578979 
L 439.622927 183.491128 
L 440.893756 182.920098 
L 441.529171 182.568694 
L 442.164585 181.514485 
L 442.8 180.943455 
L 443.435415 180.592052 
L 444.070829 180.460275 
L 445.341659 179.669618 
L 445.977073 179.537842 
L 447.247903 178.922887 
L 449.154147 178.132229 
L 450.424976 177.253721 
L 451.695806 175.93596 
L 454.872879 173.651839 
L 456.143708 172.597629 
L 456.779123 172.334077 
L 457.414538 171.631271 
L 458.049953 171.148091 
L 459.320782 170.708837 
L 459.956197 170.181733 
L 461.227026 169.522852 
L 461.862441 169.34715 
L 462.497855 168.907896 
L 463.13327 168.77612 
L 465.039514 167.765836 
L 466.310344 167.019104 
L 472.66449 164.778909 
L 473.299905 164.207879 
L 475.206149 163.505072 
L 476.476979 163.109744 
L 477.112393 162.626564 
L 479.654052 161.308803 
L 480.289467 160.957399 
L 481.560296 158.453652 
L 482.831125 156.960188 
L 484.101955 156.213457 
L 486.008199 155.466725 
L 486.643614 155.378874 
L 487.279028 155.027471 
L 489.185272 154.456441 
L 491.726931 153.31438 
L 492.362346 152.919052 
L 493.633175 152.479798 
L 497.445663 150.283528 
L 498.081078 149.624647 
L 499.351907 148.921841 
L 499.987322 148.570438 
L 500.622737 148.350811 
L 501.258151 147.911557 
L 502.528981 147.296601 
L 504.435225 146.286317 
L 505.07064 146.110615 
L 505.706054 145.627436 
L 506.341469 145.363884 
L 506.976884 145.232107 
L 508.247713 144.792853 
L 510.153957 144.090047 
L 510.789372 143.650793 
L 512.060201 143.29939 
L 513.331031 142.816211 
L 513.966445 142.333031 
L 515.237275 141.937703 
L 515.872689 141.630225 
L 516.508104 141.454523 
L 517.778933 140.576015 
L 519.049763 140.004985 
L 520.320592 139.038626 
L 521.591422 138.599372 
L 522.226836 138.072268 
L 522.862251 137.984417 
L 524.13308 137.061984 
L 525.40391 136.447028 
L 526.039324 136.183476 
L 526.674739 135.56852 
L 530.487227 134.206833 
L 532.393471 133.37225 
L 534.299715 132.80122 
L 535.570545 132.625519 
L 536.205959 132.361966 
L 536.841374 132.274115 
L 538.112203 131.747011 
L 538.747618 131.703085 
L 541.289277 130.780652 
L 543.195521 129.46289 
L 543.830936 129.199338 
L 544.46635 128.804009 
L 546.372594 127.969427 
L 548.278838 126.827366 
L 548.914253 126.432038 
L 550.185083 126.12456 
L 551.455912 125.246052 
L 553.997571 124.455395 
L 554.632985 124.191842 
L 555.903815 123.884365 
L 559.080888 122.874081 
L 560.987132 122.522677 
L 563.528791 121.73202 
L 564.164206 121.468468 
L 564.79962 121.380617 
L 565.435035 121.073139 
L 566.705864 120.809587 
L 567.341279 120.502109 
L 569.247523 120.062855 
L 570.518353 119.799303 
L 574.330841 119.096496 
L 575.60167 118.832944 
L 576.237085 118.701168 
L 576.8725 118.437615 
L 577.507914 118.39369 
L 579.414158 117.866585 
L 580.049573 117.515182 
L 583.226646 116.724525 
L 583.862061 116.592749 
L 585.13289 116.153495 
L 587.039135 115.494614 
L 587.674549 115.406763 
L 589.580793 114.747882 
L 590.216208 114.747882 
L 591.487037 114.308628 
L 592.122452 113.693673 
L 592.757867 113.386195 
L 594.028696 112.990866 
L 596.570355 112.024508 
L 597.20577 111.892731 
L 597.841184 111.497403 
L 598.476599 111.365627 
L 599.112014 110.970298 
L 602.289087 110.047865 
L 602.924502 109.652536 
L 603.559916 109.476835 
L 604.195331 108.94973 
L 606.101575 108.598327 
L 607.372405 107.89552 
L 608.007819 107.192714 
L 609.278649 106.929162 
L 613.726552 105.918877 
L 614.361966 105.743176 
L 615.632796 105.69925 
L 616.26821 105.391773 
L 618.809869 104.952519 
L 619.445284 104.645041 
L 621.351528 104.381489 
L 623.893187 103.590831 
L 625.799431 103.151577 
L 627.705675 102.668398 
L 630.247333 101.877741 
L 630.882748 101.745965 
L 631.518163 101.438487 
L 632.153578 101.350636 
L 632.788992 101.131009 
L 633.424407 100.735681 
L 635.330651 100.032874 
L 635.966066 99.549695 
L 637.236895 99.198292 
L 637.87231 98.934739 
L 639.143139 98.583336 
L 641.684798 97.441276 
L 643.591042 97.3095 
L 646.132701 96.518843 
L 646.768115 96.123514 
L 648.038945 95.728185 
L 649.945189 94.761827 
L 650.580604 94.630051 
L 651.216018 94.322573 
L 651.851433 94.234722 
L 658.840994 91.906676 
L 661.382653 91.29172 
L 662.018068 91.116019 
L 663.288897 90.544989 
L 663.924312 90.457138 
L 665.195141 90.105735 
L 665.830556 89.622555 
L 666.465971 89.315078 
L 667.101385 88.568346 
L 667.7368 88.129092 
L 669.00763 87.733763 
L 669.643044 87.206659 
L 676.632606 84.351508 
L 677.903435 84.04403 
L 679.174265 83.473 
L 681.080509 82.374865 
L 681.715923 82.243089 
L 682.351338 81.759909 
L 683.622167 81.144954 
L 684.892997 80.354297 
L 686.799241 79.475789 
L 687.434656 79.036535 
L 688.705485 78.553355 
L 689.976314 77.806624 
L 690.611729 77.499146 
L 691.247144 77.059892 
L 692.517973 76.620638 
L 693.153388 76.488862 
L 695.695046 75.346801 
L 698.87212 74.248667 
L 699.507535 74.204741 
L 700.142949 74.02904 
L 700.778364 73.633711 
L 701.413779 73.54586 
L 702.049193 73.326233 
L 703.955437 72.97483 
L 707.132511 71.34959 
L 708.40334 70.646784 
L 709.038755 70.558933 
L 710.944999 69.548649 
L 712.851243 68.845843 
L 714.757487 68.01126 
L 717.299146 67.000976 
L 717.934561 66.825275 
L 718.569975 66.429946 
L 719.840805 66.254244 
L 720.476219 65.858916 
L 721.111634 65.81499 
L 722.382463 65.419662 
L 723.653293 64.804706 
L 724.288708 64.716855 
L 724.924122 64.453303 
L 725.559537 64.321527 
L 727.465781 63.486944 
L 728.101196 63.355168 
L 728.73661 63.091616 
L 731.913684 62.344884 
L 733.819928 61.598152 
L 735.726172 60.456092 
L 736.997001 59.928987 
L 737.632416 59.665435 
L 738.267831 59.270106 
L 739.53866 59.006554 
L 740.174075 58.655151 
L 740.809489 58.523375 
L 742.080319 57.820568 
L 745.892807 56.019627 
L 746.528222 55.8 
L 747.163636 55.8 
L 747.163636 55.8 
" clip-path="url(#p397e8dda62)" style="fill: none; stroke: #1f77b4; stroke-width: 1.5; stroke-linecap: square"/>
   </g>
   <g id="line2d_34">
    <path d="M 139.071778 307.8 
L 140.978022 307.712149 
L 142.884266 307.668224 
L 146.696755 307.580373 
L 149.873828 307.448597 
L 152.415487 307.448597 
L 153.050901 307.272895 
L 155.59256 307.185044 
L 157.498804 306.965417 
L 159.405048 306.789716 
L 163.217537 306.614014 
L 163.852951 306.614014 
L 164.488366 306.482238 
L 167.030025 306.394387 
L 168.300854 306.306537 
L 173.384172 306.218686 
L 176.561245 306.08691 
L 184.186221 305.999059 
L 187.363295 305.867283 
L 191.175783 305.779432 
L 193.717442 305.691581 
L 199.436174 305.60373 
L 201.342418 305.559805 
L 203.248662 305.515879 
L 205.154906 305.296252 
L 208.967394 305.252327 
L 210.238224 305.164476 
L 214.686126 305.076625 
L 221.675688 304.681297 
L 226.123591 304.593446 
L 227.39442 304.505595 
L 229.300664 304.417744 
L 233.113152 304.242043 
L 235.654811 304.198117 
L 237.561055 304.022416 
L 247.72769 303.40746 
L 250.269349 303.31961 
L 254.717252 303.099983 
L 256.623496 303.012132 
L 262.977643 302.660729 
L 269.967204 302.572878 
L 272.508863 302.309325 
L 273.779693 302.221475 
L 282.040084 301.562594 
L 285.852572 301.079414 
L 288.39423 300.991564 
L 293.477548 300.332683 
L 296.654621 300.244832 
L 304.915012 299.585951 
L 308.092086 299.234548 
L 310.633745 299.146697 
L 311.904574 299.058846 
L 314.446233 298.970995 
L 315.717062 298.883145 
L 318.894136 298.575667 
L 319.52955 298.399965 
L 323.342038 298.224264 
L 326.519112 298.136413 
L 334.779503 297.653233 
L 336.685747 297.565383 
L 344.946138 297.082203 
L 349.394041 296.994352 
L 350.029455 296.862576 
L 355.112773 296.774725 
L 359.560676 296.555098 
L 366.550237 296.467248 
L 370.99814 296.247621 
L 376.081458 296.15977 
L 381.164775 295.896218 
L 385.612678 295.808367 
L 397.685557 295.061635 
L 402.768875 294.973784 
L 419.289656 293.919575 
L 423.102145 293.831724 
L 425.008389 293.787799 
L 426.914633 293.743873 
L 428.820877 293.568172 
L 433.904194 293.480321 
L 435.175024 293.260694 
L 436.445853 293.172843 
L 439.622927 293.041067 
L 440.893756 292.953216 
L 442.164585 292.865365 
L 447.883318 292.777514 
L 449.154147 292.645738 
L 451.695806 292.601813 
L 452.33122 292.470037 
L 453.60205 292.382186 
L 454.237464 292.25041 
L 456.143708 292.162559 
L 466.945758 291.503678 
L 468.852002 291.415827 
L 472.029076 291.284051 
L 480.924881 291.1962 
L 485.372784 290.976573 
L 490.456102 290.888722 
L 492.99776 290.800872 
L 495.539419 290.756946 
L 496.810249 290.62517 
L 499.351907 290.537319 
L 505.706054 290.185916 
L 509.518542 290.141991 
L 511.424786 289.966289 
L 513.331031 289.922364 
L 517.778933 289.834513 
L 520.320592 289.746662 
L 527.945568 289.658811 
L 531.122642 289.527035 
L 534.93513 289.439184 
L 536.841374 289.219557 
L 540.653862 289.175632 
L 542.560106 288.99993 
L 545.101765 288.912079 
L 552.726741 288.824229 
L 555.903815 288.692453 
L 566.705864 288.648527 
L 567.976694 288.560676 
L 569.882938 288.516751 
L 578.143329 288.4289 
L 579.414158 288.341049 
L 586.40372 288.253199 
L 588.945379 288.165348 
L 596.570355 288.121422 
L 597.841184 288.033572 
L 607.372405 287.989646 
L 609.278649 287.813945 
L 620.080698 287.726094 
L 621.986942 287.682168 
L 638.507724 287.594318 
L 640.413968 287.550392 
L 652.486848 287.462541 
L 655.028506 287.374691 
L 659.476409 287.28684 
L 664.559727 287.023287 
L 667.101385 286.935437 
L 669.643044 286.847586 
L 673.455532 286.759735 
L 675.361776 286.71581 
L 677.903435 286.627959 
L 679.809679 286.584033 
L 682.986753 286.496183 
L 684.257582 286.408332 
L 688.07007 286.320481 
L 691.247144 286.188705 
L 692.517973 286.14478 
L 694.424217 285.969078 
L 698.236705 285.881227 
L 700.778364 285.793376 
L 707.132511 285.705526 
L 710.309584 285.573749 
L 716.663731 285.485899 
L 721.111634 285.266272 
L 726.830366 285.178421 
L 728.101196 285.09057 
L 735.726172 285.002719 
L 737.632416 284.958794 
L 744.621978 284.870943 
L 747.163636 284.607391 
L 747.163636 284.607391 
" clip-path="url(#p397e8dda62)" style="fill: none; stroke: #ff7f0e; stroke-width: 1.5; stroke-linecap: square"/>
   </g>
   <g id="patch_3">
    <path d="M 108 320.4 
L 108 43.2 
" style="fill: none; stroke: #a9a9a9; stroke-width: 0.8; stroke-linejoin: miter; stroke-linecap: square"/>
   </g>
   <g id="patch_4">
    <path d="M 777.6 320.4 
L 777.6 43.2 
" style="fill: none"/>
   </g>
   <g id="patch_5">
    <path d="M 108 320.4 
L 777.6 320.4 
" style="fill: none; stroke: #a9a9a9; stroke-width: 0.8; stroke-linejoin: miter; stroke-linecap: square"/>
   </g>
   <g id="patch_6">
    <path d="M 108 43.2 
L 777.6 43.2 
" style="fill: none"/>
   </g>
   <g id="text_17">
    <!-- get_subscribe history -->
    <g style="fill: #a9a9a9" transform="translate(378.6075 37.2) scale(0.12 -0.12)">
     <defs>
      <path id="DejaVuSans-67" d="M 2906 1791 
Q 2906 2416 2648 2759 
Q 2391 3103 1925 3103 
Q 1463 3103 1205 2759 
Q 947 2416 947 1791 
Q 947 1169 1205 825 
Q 1463 481 1925 481 
Q 2391 481 2648 825 
Q 2906 1169 2906 1791 
z
M 3481 434 
Q 3481 -459 3084 -895 
Q 2688 -1331 1869 -1331 
Q 1566 -1331 1297 -1286 
Q 1028 -1241 775 -1147 
L 775 -588 
Q 1028 -725 1275 -790 
Q 1522 -856 1778 -856 
Q 2344 -856 2625 -561 
Q 2906 -266 2906 331 
L 2906 616 
Q 2728 306 2450 153 
Q 2172 0 1784 0 
Q 1141 0 747 490 
Q 353 981 353 1791 
Q 353 2603 747 3093 
Q 1141 3584 1784 3584 
Q 2172 3584 2450 3431 
Q 2728 3278 2906 2969 
L 2906 3500 
L 3481 3500 
L 3481 434 
z
" transform="scale(0.015625)"/>
      <path id="DejaVuSans-65" d="M 3597 1894 
L 3597 1613 
L 953 1613 
Q 991 1019 1311 708 
Q 1631 397 2203 397 
Q 2534 397 2845 478 
Q 3156 559 3463 722 
L 3463 178 
Q 3153 47 2828 -22 
Q 2503 -91 2169 -91 
Q 1331 -91 842 396 
Q 353 884 353 1716 
Q 353 2575 817 3079 
Q 1281 3584 2069 3584 
Q 2775 3584 3186 3129 
Q 3597 2675 3597 1894 
z
M 3022 2063 
Q 3016 2534 2758 2815 
Q 2500 3097 2075 3097 
Q 1594 3097 1305 2825 
Q 1016 2553 972 2059 
L 3022 2063 
z
" transform="scale(0.015625)"/>
      <path id="DejaVuSans-74" d="M 1172 4494 
L 1172 3500 
L 2356 3500 
L 2356 3053 
L 1172 3053 
L 1172 1153 
Q 1172 725 1289 603 
Q 1406 481 1766 481 
L 2356 481 
L 2356 0 
L 1766 0 
Q 1100 0 847 248 
Q 594 497 594 1153 
L 594 3053 
L 172 3053 
L 172 3500 
L 594 3500 
L 594 4494 
L 1172 4494 
z
" transform="scale(0.015625)"/>
      <path id="DejaVuSans-5f" d="M 3263 -1063 
L 3263 -1509 
L -63 -1509 
L -63 -1063 
L 3263 -1063 
z
" transform="scale(0.015625)"/>
      <path id="DejaVuSans-73" d="M 2834 3397 
L 2834 2853 
Q 2591 2978 2328 3040 
Q 2066 3103 1784 3103 
Q 1356 3103 1142 2972 
Q 928 2841 928 2578 
Q 928 2378 1081 2264 
Q 1234 2150 1697 2047 
L 1894 2003 
Q 2506 1872 2764 1633 
Q 3022 1394 3022 966 
Q 3022 478 2636 193 
Q 2250 -91 1575 -91 
Q 1294 -91 989 -36 
Q 684 19 347 128 
L 347 722 
Q 666 556 975 473 
Q 1284 391 1588 391 
Q 1994 391 2212 530 
Q 2431 669 2431 922 
Q 2431 1156 2273 1281 
Q 2116 1406 1581 1522 
L 1381 1569 
Q 847 1681 609 1914 
Q 372 2147 372 2553 
Q 372 3047 722 3315 
Q 1072 3584 1716 3584 
Q 2034 3584 2315 3537 
Q 2597 3491 2834 3397 
z
" transform="scale(0.015625)"/>
      <path id="DejaVuSans-75" d="M 544 1381 
L 544 3500 
L 1119 3500 
L 1119 1403 
Q 1119 906 1312 657 
Q 1506 409 1894 409 
Q 2359 409 2629 706 
Q 2900 1003 2900 1516 
L 2900 3500 
L 3475 3500 
L 3475 0 
L 2900 0 
L 2900 538 
Q 2691 219 2414 64 
Q 2138 -91 1772 -91 
Q 1169 -91 856 284 
Q 544 659 544 1381 
z
M 1991 3584 
L 1991 3584 
z
" transform="scale(0.015625)"/>
      <path id="DejaVuSans-62" d="M 3116 1747 
Q 3116 2381 2855 2742 
Q 2594 3103 2138 3103 
Q 1681 3103 1420 2742 
Q 1159 2381 1159 1747 
Q 1159 1113 1420 752 
Q 1681 391 2138 391 
Q 2594 391 2855 752 
Q 3116 1113 3116 1747 
z
M 1159 2969 
Q 1341 3281 1617 3432 
Q 1894 3584 2278 3584 
Q 2916 3584 3314 3078 
Q 3713 2572 3713 1747 
Q 3713 922 3314 415 
Q 2916 -91 2278 -91 
Q 1894 -91 1617 61 
Q 1341 213 1159 525 
L 1159 0 
L 581 0 
L 581 4863 
L 1159 4863 
L 1159 2969 
z
" transform="scale(0.015625)"/>
      <path id="DejaVuSans-63" d="M 3122 3366 
L 3122 2828 
Q 2878 2963 2633 3030 
Q 2388 3097 2138 3097 
Q 1578 3097 1268 2742 
Q 959 2388 959 1747 
Q 959 1106 1268 751 
Q 1578 397 2138 397 
Q 2388 397 2633 464 
Q 2878 531 3122 666 
L 3122 134 
Q 2881 22 2623 -34 
Q 2366 -91 2075 -91 
Q 1284 -91 818 406 
Q 353 903 353 1747 
Q 353 2603 823 3093 
Q 1294 3584 2113 3584 
Q 2378 3584 2631 3529 
Q 2884 3475 3122 3366 
z
" transform="scale(0.015625)"/>
      <path id="DejaVuSans-72" d="M 2631 2963 
Q 2534 3019 2420 3045 
Q 2306 3072 2169 3072 
Q 1681 3072 1420 2755 
Q 1159 2438 1159 1844 
L 1159 0 
L 581 0 
L 581 3500 
L 1159 3500 
L 1159 2956 
Q 1341 3275 1631 3429 
Q 1922 3584 2338 3584 
Q 2397 3584 2469 3576 
Q 2541 3569 2628 3553 
L 2631 2963 
z
" transform="scale(0.015625)"/>
      <path id="DejaVuSans-69" d="M 603 3500 
L 1178 3500 
L 1178 0 
L 603 0 
L 603 3500 
z
M 603 4863 
L 1178 4863 
L 1178 4134 
L 603 4134 
L 603 4863 
z
" transform="scale(0.015625)"/>
      <path id="DejaVuSans-20" transform="scale(0.015625)"/>
      <path id="DejaVuSans-68" d="M 3513 2113 
L 3513 0 
L 2938 0 
L 2938 2094 
Q 2938 2591 2744 2837 
Q 2550 3084 2163 3084 
Q 1697 3084 1428 2787 
Q 1159 2491 1159 1978 
L 1159 0 
L 581 0 
L 581 4863 
L 1159 4863 
L 1159 2956 
Q 1366 3272 1645 3428 
Q 1925 3584 2291 3584 
Q 2894 3584 3203 3211 
Q 3513 2838 3513 2113 
z
" transform="scale(0.015625)"/>
      <path id="DejaVuSans-6f" d="M 1959 3097 
Q 1497 3097 1228 2736 
Q 959 2375 959 1747 
Q 959 1119 1226 758 
Q 1494 397 1959 397 
Q 2419 397 2687 759 
Q 2956 1122 2956 1747 
Q 2956 2369 2687 2733 
Q 2419 3097 1959 3097 
z
M 1959 3584 
Q 2709 3584 3137 3096 
Q 3566 2609 3566 1747 
Q 3566 888 3137 398 
Q 2709 -91 1959 -91 
Q 1206 -91 779 398 
Q 353 888 353 1747 
Q 353 2609 779 3096 
Q 1206 3584 1959 3584 
z
" transform="scale(0.015625)"/>
      <path id="DejaVuSans-79" d="M 2059 -325 
Q 1816 -950 1584 -1140 
Q 1353 -1331 966 -1331 
L 506 -1331 
L 506 -850 
L 844 -850 
Q 1081 -850 1212 -737 
Q 1344 -625 1503 -206 
L 1606 56 
L 191 3500 
L 800 3500 
L 1894 763 
L 2988 3500 
L 3597 3500 
L 2059 -325 
z
" transform="scale(0.015625)"/>
     </defs>
     <use xlink:href="#DejaVuSans-67"/>
     <use xlink:href="#DejaVuSans-65" x="63.476562"/>
     <use xlink:href="#DejaVuSans-74" x="125"/>
     <use xlink:href="#DejaVuSans-5f" x="164.208984"/>
     <use xlink:href="#DejaVuSans-73" x="214.208984"/>
     <use xlink:href="#DejaVuSans-75" x="266.308594"/>
     <use xlink:href="#DejaVuSans-62" x="329.6875"/>
     <use xlink:href="#DejaVuSans-73" x="393.164062"/>
     <use xlink:href="#DejaVuSans-63" x="445.263672"/>
     <use xlink:href="#DejaVuSans-72" x="500.244141"/>
     <use xlink:href="#DejaVuSans-69" x="541.357422"/>
     <use xlink:href="#DejaVuSans-62" x="569.140625"/>
     <use xlink:href="#DejaVuSans-65" x="632.617188"/>
     <use xlink:href="#DejaVuSans-20" x="694.140625"/>
     <use xlink:href="#DejaVuSans-68" x="725.927734"/>
     <use xlink:href="#DejaVuSans-69" x="789.306641"/>
     <use xlink:href="#DejaVuSans-73" x="817.089844"/>
     <use xlink:href="#DejaVuSans-74" x="869.189453"/>
     <use xlink:href="#DejaVuSans-6f" x="908.398438"/>
     <use xlink:href="#DejaVuSans-72" x="969.580078"/>
     <use xlink:href="#DejaVuSans-79" x="1010.693359"/>
    </g>
   </g>
   <g id="legend_1">
    <g id="line2d_35">
     <path d="M 815.08 328.498438 
L 825.08 328.498438 
L 835.08 328.498438 
" style="fill: none; stroke: #1f77b4; stroke-width: 1.5; stroke-linecap: square"/>
    </g>
    <g id="text_18">
     <!-- star -->
     <g style="fill: #a9a9a9" transform="translate(843.08 331.998438) scale(0.1 -0.1)">
      <defs>
       <path id="DejaVuSans-61" d="M 2194 1759 
Q 1497 1759 1228 1600 
Q 959 1441 959 1056 
Q 959 750 1161 570 
Q 1363 391 1709 391 
Q 2188 391 2477 730 
Q 2766 1069 2766 1631 
L 2766 1759 
L 2194 1759 
z
M 3341 1997 
L 3341 0 
L 2766 0 
L 2766 531 
Q 2569 213 2275 61 
Q 1981 -91 1556 -91 
Q 1019 -91 701 211 
Q 384 513 384 1019 
Q 384 1609 779 1909 
Q 1175 2209 1959 2209 
L 2766 2209 
L 2766 2266 
Q 2766 2663 2505 2880 
Q 2244 3097 1772 3097 
Q 1472 3097 1187 3025 
Q 903 2953 641 2809 
L 641 3341 
Q 956 3463 1253 3523 
Q 1550 3584 1831 3584 
Q 2591 3584 2966 3190 
Q 3341 2797 3341 1997 
z
" transform="scale(0.015625)"/>
      </defs>
      <use xlink:href="#DejaVuSans-73"/>
      <use xlink:href="#DejaVuSans-74" x="52.099609"/>
      <use xlink:href="#DejaVuSans-61" x="91.308594"/>
      <use xlink:href="#DejaVuSans-72" x="152.587891"/>
     </g>
    </g>
    <g id="line2d_36">
     <path d="M 815.08 343.176562 
L 825.08 343.176562 
L 835.08 343.176562 
" style="fill: none; stroke: #ff7f0e; stroke-width: 1.5; stroke-linecap: square"/>
    </g>
    <g id="text_19">
     <!-- fork -->
     <g style="fill: #a9a9a9" transform="translate(843.08 346.676562) scale(0.1 -0.1)">
      <defs>
       <path id="DejaVuSans-66" d="M 2375 4863 
L 2375 4384 
L 1825 4384 
Q 1516 4384 1395 4259 
Q 1275 4134 1275 3809 
L 1275 3500 
L 2222 3500 
L 2222 3053 
L 1275 3053 
L 1275 0 
L 697 0 
L 697 3053 
L 147 3053 
L 147 3500 
L 697 3500 
L 697 3744 
Q 697 4328 969 4595 
Q 1241 4863 1831 4863 
L 2375 4863 
z
" transform="scale(0.015625)"/>
       <path id="DejaVuSans-6b" d="M 581 4863 
L 1159 4863 
L 1159 1991 
L 2875 3500 
L 3609 3500 
L 1753 1863 
L 3688 0 
L 2938 0 
L 1159 1709 
L 1159 0 
L 581 0 
L 581 4863 
z
" transform="scale(0.015625)"/>
      </defs>
      <use xlink:href="#DejaVuSans-66"/>
      <use xlink:href="#DejaVuSans-6f" x="35.205078"/>
      <use xlink:href="#DejaVuSans-72" x="96.386719"/>
      <use xlink:href="#DejaVuSans-6b" x="137.5"/>
     </g>
    </g>
   </g>
  </g>
 </g>
 <defs>
  <clipPath id="p397e8dda62">
   <rect x="108" y="43.2" width="669.6" height="277.2"/>
  </clipPath>
 </defs>
</svg>
