<?xml version="1.0" encoding="utf-8" standalone="no"?>
<!DOCTYPE svg PUBLIC "-//W3C//DTD SVG 1.1//EN"
  "http://www.w3.org/Graphics/SVG/1.1/DTD/svg11.dtd">
<svg xmlns:xlink="http://www.w3.org/1999/xlink" width="864pt" height="360pt" viewBox="0 0 864 360" xmlns="http://www.w3.org/2000/svg" version="1.1">
 <metadata>
  <rdf:RDF xmlns:dc="http://purl.org/dc/elements/1.1/" xmlns:cc="http://creativecommons.org/ns#" xmlns:rdf="http://www.w3.org/1999/02/22-rdf-syntax-ns#">
   <cc:Work>
    <dc:type rdf:resource="http://purl.org/dc/dcmitype/StillImage"/>
    <dc:date>2024-03-09T08:09:57.275808</dc:date>
    <dc:format>image/svg+xml</dc:format>
    <dc:creator>
     <cc:Agent>
      <dc:title>Matplotlib v3.8.3, https://matplotlib.org/</dc:title>
     </cc:Agent>
    </dc:creator>
   </cc:Work>
  </rdf:RDF>
 </metadata>
 <defs>
  <style type="text/css">*{stroke-linejoin: round; stroke-linecap: butt}</style>
 </defs>
 <g id="figure_1">
  <g id="patch_1">
   <path d="M 0 360 
L 864 360 
L 864 0 
L 0 0 
L 0 360 
z
" style="fill: none; opacity: 0"/>
  </g>
  <g id="axes_1">
   <g id="patch_2">
    <path d="M 108 320.4 
L 777.6 320.4 
L 777.6 43.2 
L 108 43.2 
L 108 320.4 
z
" style="fill: none; opacity: 0"/>
   </g>
   <g id="matplotlib.axis_1">
    <g id="xtick_1">
     <g id="line2d_1">
      <path d="M 163.191696 320.4 
L 163.191696 43.2 
" clip-path="url(#p556963b1fd)" style="fill: none; stroke-dasharray: 5.12,1.28,0.8,1.28; stroke-dashoffset: 0; stroke: #b0b0b0; stroke-width: 0.8"/>
     </g>
     <g id="line2d_2">
      <defs>
       <path id="m67865c2c82" d="M 0 0 
L 0 3.5 
" style="stroke: #a9a9a9; stroke-width: 0.8"/>
      </defs>
      <g>
       <use xlink:href="#m67865c2c82" x="163.191696" y="320.4" style="fill: #a9a9a9; stroke: #a9a9a9; stroke-width: 0.8"/>
      </g>
     </g>
     <g id="text_1">
      <!-- 2021-09 -->
      <g style="fill: #a9a9a9" transform="translate(142.30029 334.998438) scale(0.1 -0.1)">
       <defs>
        <path id="DejaVuSans-32" d="M 1228 531 
L 3431 531 
L 3431 0 
L 469 0 
L 469 531 
Q 828 903 1448 1529 
Q 2069 2156 2228 2338 
Q 2531 2678 2651 2914 
Q 2772 3150 2772 3378 
Q 2772 3750 2511 3984 
Q 2250 4219 1831 4219 
Q 1534 4219 1204 4116 
Q 875 4013 500 3803 
L 500 4441 
Q 881 4594 1212 4672 
Q 1544 4750 1819 4750 
Q 2544 4750 2975 4387 
Q 3406 4025 3406 3419 
Q 3406 3131 3298 2873 
Q 3191 2616 2906 2266 
Q 2828 2175 2409 1742 
Q 1991 1309 1228 531 
z
" transform="scale(0.015625)"/>
        <path id="DejaVuSans-30" d="M 2034 4250 
Q 1547 4250 1301 3770 
Q 1056 3291 1056 2328 
Q 1056 1369 1301 889 
Q 1547 409 2034 409 
Q 2525 409 2770 889 
Q 3016 1369 3016 2328 
Q 3016 3291 2770 3770 
Q 2525 4250 2034 4250 
z
M 2034 4750 
Q 2819 4750 3233 4129 
Q 3647 3509 3647 2328 
Q 3647 1150 3233 529 
Q 2819 -91 2034 -91 
Q 1250 -91 836 529 
Q 422 1150 422 2328 
Q 422 3509 836 4129 
Q 1250 4750 2034 4750 
z
" transform="scale(0.015625)"/>
        <path id="DejaVuSans-31" d="M 794 531 
L 1825 531 
L 1825 4091 
L 703 3866 
L 703 4441 
L 1819 4666 
L 2450 4666 
L 2450 531 
L 3481 531 
L 3481 0 
L 794 0 
L 794 531 
z
" transform="scale(0.015625)"/>
        <path id="DejaVuSans-2d" d="M 313 2009 
L 1997 2009 
L 1997 1497 
L 313 1497 
L 313 2009 
z
" transform="scale(0.015625)"/>
        <path id="DejaVuSans-39" d="M 703 97 
L 703 672 
Q 941 559 1184 500 
Q 1428 441 1663 441 
Q 2288 441 2617 861 
Q 2947 1281 2994 2138 
Q 2813 1869 2534 1725 
Q 2256 1581 1919 1581 
Q 1219 1581 811 2004 
Q 403 2428 403 3163 
Q 403 3881 828 4315 
Q 1253 4750 1959 4750 
Q 2769 4750 3195 4129 
Q 3622 3509 3622 2328 
Q 3622 1225 3098 567 
Q 2575 -91 1691 -91 
Q 1453 -91 1209 -44 
Q 966 3 703 97 
z
M 1959 2075 
Q 2384 2075 2632 2365 
Q 2881 2656 2881 3163 
Q 2881 3666 2632 3958 
Q 2384 4250 1959 4250 
Q 1534 4250 1286 3958 
Q 1038 3666 1038 3163 
Q 1038 2656 1286 2365 
Q 1534 2075 1959 2075 
z
" transform="scale(0.015625)"/>
       </defs>
       <use xlink:href="#DejaVuSans-32"/>
       <use xlink:href="#DejaVuSans-30" x="63.623047"/>
       <use xlink:href="#DejaVuSans-32" x="127.246094"/>
       <use xlink:href="#DejaVuSans-31" x="190.869141"/>
       <use xlink:href="#DejaVuSans-2d" x="254.492188"/>
       <use xlink:href="#DejaVuSans-30" x="290.576172"/>
       <use xlink:href="#DejaVuSans-39" x="354.199219"/>
      </g>
     </g>
    </g>
    <g id="xtick_2">
     <g id="line2d_3">
      <path d="M 240.631453 320.4 
L 240.631453 43.2 
" clip-path="url(#p556963b1fd)" style="fill: none; stroke-dasharray: 5.12,1.28,0.8,1.28; stroke-dashoffset: 0; stroke: #b0b0b0; stroke-width: 0.8"/>
     </g>
     <g id="line2d_4">
      <g>
       <use xlink:href="#m67865c2c82" x="240.631453" y="320.4" style="fill: #a9a9a9; stroke: #a9a9a9; stroke-width: 0.8"/>
      </g>
     </g>
     <g id="text_2">
      <!-- 2022-01 -->
      <g style="fill: #a9a9a9" transform="translate(219.740047 334.998438) scale(0.1 -0.1)">
       <use xlink:href="#DejaVuSans-32"/>
       <use xlink:href="#DejaVuSans-30" x="63.623047"/>
       <use xlink:href="#DejaVuSans-32" x="127.246094"/>
       <use xlink:href="#DejaVuSans-32" x="190.869141"/>
       <use xlink:href="#DejaVuSans-2d" x="254.492188"/>
       <use xlink:href="#DejaVuSans-30" x="290.576172"/>
       <use xlink:href="#DejaVuSans-31" x="354.199219"/>
      </g>
     </g>
    </g>
    <g id="xtick_3">
     <g id="line2d_5">
      <path d="M 316.801706 320.4 
L 316.801706 43.2 
" clip-path="url(#p556963b1fd)" style="fill: none; stroke-dasharray: 5.12,1.28,0.8,1.28; stroke-dashoffset: 0; stroke: #b0b0b0; stroke-width: 0.8"/>
     </g>
     <g id="line2d_6">
      <g>
       <use xlink:href="#m67865c2c82" x="316.801706" y="320.4" style="fill: #a9a9a9; stroke: #a9a9a9; stroke-width: 0.8"/>
      </g>
     </g>
     <g id="text_3">
      <!-- 2022-05 -->
      <g style="fill: #a9a9a9" transform="translate(295.9103 334.998438) scale(0.1 -0.1)">
       <defs>
        <path id="DejaVuSans-35" d="M 691 4666 
L 3169 4666 
L 3169 4134 
L 1269 4134 
L 1269 2991 
Q 1406 3038 1543 3061 
Q 1681 3084 1819 3084 
Q 2600 3084 3056 2656 
Q 3513 2228 3513 1497 
Q 3513 744 3044 326 
Q 2575 -91 1722 -91 
Q 1428 -91 1123 -41 
Q 819 9 494 109 
L 494 744 
Q 775 591 1075 516 
Q 1375 441 1709 441 
Q 2250 441 2565 725 
Q 2881 1009 2881 1497 
Q 2881 1984 2565 2268 
Q 2250 2553 1709 2553 
Q 1456 2553 1204 2497 
Q 953 2441 691 2322 
L 691 4666 
z
" transform="scale(0.015625)"/>
       </defs>
       <use xlink:href="#DejaVuSans-32"/>
       <use xlink:href="#DejaVuSans-30" x="63.623047"/>
       <use xlink:href="#DejaVuSans-32" x="127.246094"/>
       <use xlink:href="#DejaVuSans-32" x="190.869141"/>
       <use xlink:href="#DejaVuSans-2d" x="254.492188"/>
       <use xlink:href="#DejaVuSans-30" x="290.576172"/>
       <use xlink:href="#DejaVuSans-35" x="354.199219"/>
      </g>
     </g>
    </g>
    <g id="xtick_4">
     <g id="line2d_7">
      <path d="M 394.876216 320.4 
L 394.876216 43.2 
" clip-path="url(#p556963b1fd)" style="fill: none; stroke-dasharray: 5.12,1.28,0.8,1.28; stroke-dashoffset: 0; stroke: #b0b0b0; stroke-width: 0.8"/>
     </g>
     <g id="line2d_8">
      <g>
       <use xlink:href="#m67865c2c82" x="394.876216" y="320.4" style="fill: #a9a9a9; stroke: #a9a9a9; stroke-width: 0.8"/>
      </g>
     </g>
     <g id="text_4">
      <!-- 2022-09 -->
      <g style="fill: #a9a9a9" transform="translate(373.98481 334.998438) scale(0.1 -0.1)">
       <use xlink:href="#DejaVuSans-32"/>
       <use xlink:href="#DejaVuSans-30" x="63.623047"/>
       <use xlink:href="#DejaVuSans-32" x="127.246094"/>
       <use xlink:href="#DejaVuSans-32" x="190.869141"/>
       <use xlink:href="#DejaVuSans-2d" x="254.492188"/>
       <use xlink:href="#DejaVuSans-30" x="290.576172"/>
       <use xlink:href="#DejaVuSans-39" x="354.199219"/>
      </g>
     </g>
    </g>
    <g id="xtick_5">
     <g id="line2d_9">
      <path d="M 472.315973 320.4 
L 472.315973 43.2 
" clip-path="url(#p556963b1fd)" style="fill: none; stroke-dasharray: 5.12,1.28,0.8,1.28; stroke-dashoffset: 0; stroke: #b0b0b0; stroke-width: 0.8"/>
     </g>
     <g id="line2d_10">
      <g>
       <use xlink:href="#m67865c2c82" x="472.315973" y="320.4" style="fill: #a9a9a9; stroke: #a9a9a9; stroke-width: 0.8"/>
      </g>
     </g>
     <g id="text_5">
      <!-- 2023-01 -->
      <g style="fill: #a9a9a9" transform="translate(451.424567 334.998438) scale(0.1 -0.1)">
       <defs>
        <path id="DejaVuSans-33" d="M 2597 2516 
Q 3050 2419 3304 2112 
Q 3559 1806 3559 1356 
Q 3559 666 3084 287 
Q 2609 -91 1734 -91 
Q 1441 -91 1130 -33 
Q 819 25 488 141 
L 488 750 
Q 750 597 1062 519 
Q 1375 441 1716 441 
Q 2309 441 2620 675 
Q 2931 909 2931 1356 
Q 2931 1769 2642 2001 
Q 2353 2234 1838 2234 
L 1294 2234 
L 1294 2753 
L 1863 2753 
Q 2328 2753 2575 2939 
Q 2822 3125 2822 3475 
Q 2822 3834 2567 4026 
Q 2313 4219 1838 4219 
Q 1578 4219 1281 4162 
Q 984 4106 628 3988 
L 628 4550 
Q 988 4650 1302 4700 
Q 1616 4750 1894 4750 
Q 2613 4750 3031 4423 
Q 3450 4097 3450 3541 
Q 3450 3153 3228 2886 
Q 3006 2619 2597 2516 
z
" transform="scale(0.015625)"/>
       </defs>
       <use xlink:href="#DejaVuSans-32"/>
       <use xlink:href="#DejaVuSans-30" x="63.623047"/>
       <use xlink:href="#DejaVuSans-32" x="127.246094"/>
       <use xlink:href="#DejaVuSans-33" x="190.869141"/>
       <use xlink:href="#DejaVuSans-2d" x="254.492188"/>
       <use xlink:href="#DejaVuSans-30" x="290.576172"/>
       <use xlink:href="#DejaVuSans-31" x="354.199219"/>
      </g>
     </g>
    </g>
    <g id="xtick_6">
     <g id="line2d_11">
      <path d="M 548.486226 320.4 
L 548.486226 43.2 
" clip-path="url(#p556963b1fd)" style="fill: none; stroke-dasharray: 5.12,1.28,0.8,1.28; stroke-dashoffset: 0; stroke: #b0b0b0; stroke-width: 0.8"/>
     </g>
     <g id="line2d_12">
      <g>
       <use xlink:href="#m67865c2c82" x="548.486226" y="320.4" style="fill: #a9a9a9; stroke: #a9a9a9; stroke-width: 0.8"/>
      </g>
     </g>
     <g id="text_6">
      <!-- 2023-05 -->
      <g style="fill: #a9a9a9" transform="translate(527.59482 334.998438) scale(0.1 -0.1)">
       <use xlink:href="#DejaVuSans-32"/>
       <use xlink:href="#DejaVuSans-30" x="63.623047"/>
       <use xlink:href="#DejaVuSans-32" x="127.246094"/>
       <use xlink:href="#DejaVuSans-33" x="190.869141"/>
       <use xlink:href="#DejaVuSans-2d" x="254.492188"/>
       <use xlink:href="#DejaVuSans-30" x="290.576172"/>
       <use xlink:href="#DejaVuSans-35" x="354.199219"/>
      </g>
     </g>
    </g>
    <g id="xtick_7">
     <g id="line2d_13">
      <path d="M 626.560736 320.4 
L 626.560736 43.2 
" clip-path="url(#p556963b1fd)" style="fill: none; stroke-dasharray: 5.12,1.28,0.8,1.28; stroke-dashoffset: 0; stroke: #b0b0b0; stroke-width: 0.8"/>
     </g>
     <g id="line2d_14">
      <g>
       <use xlink:href="#m67865c2c82" x="626.560736" y="320.4" style="fill: #a9a9a9; stroke: #a9a9a9; stroke-width: 0.8"/>
      </g>
     </g>
     <g id="text_7">
      <!-- 2023-09 -->
      <g style="fill: #a9a9a9" transform="translate(605.669329 334.998438) scale(0.1 -0.1)">
       <use xlink:href="#DejaVuSans-32"/>
       <use xlink:href="#DejaVuSans-30" x="63.623047"/>
       <use xlink:href="#DejaVuSans-32" x="127.246094"/>
       <use xlink:href="#DejaVuSans-33" x="190.869141"/>
       <use xlink:href="#DejaVuSans-2d" x="254.492188"/>
       <use xlink:href="#DejaVuSans-30" x="290.576172"/>
       <use xlink:href="#DejaVuSans-39" x="354.199219"/>
      </g>
     </g>
    </g>
    <g id="xtick_8">
     <g id="line2d_15">
      <path d="M 704.000493 320.4 
L 704.000493 43.2 
" clip-path="url(#p556963b1fd)" style="fill: none; stroke-dasharray: 5.12,1.28,0.8,1.28; stroke-dashoffset: 0; stroke: #b0b0b0; stroke-width: 0.8"/>
     </g>
     <g id="line2d_16">
      <g>
       <use xlink:href="#m67865c2c82" x="704.000493" y="320.4" style="fill: #a9a9a9; stroke: #a9a9a9; stroke-width: 0.8"/>
      </g>
     </g>
     <g id="text_8">
      <!-- 2024-01 -->
      <g style="fill: #a9a9a9" transform="translate(683.109087 334.998438) scale(0.1 -0.1)">
       <defs>
        <path id="DejaVuSans-34" d="M 2419 4116 
L 825 1625 
L 2419 1625 
L 2419 4116 
z
M 2253 4666 
L 3047 4666 
L 3047 1625 
L 3713 1625 
L 3713 1100 
L 3047 1100 
L 3047 0 
L 2419 0 
L 2419 1100 
L 313 1100 
L 313 1709 
L 2253 4666 
z
" transform="scale(0.015625)"/>
       </defs>
       <use xlink:href="#DejaVuSans-32"/>
       <use xlink:href="#DejaVuSans-30" x="63.623047"/>
       <use xlink:href="#DejaVuSans-32" x="127.246094"/>
       <use xlink:href="#DejaVuSans-34" x="190.869141"/>
       <use xlink:href="#DejaVuSans-2d" x="254.492188"/>
       <use xlink:href="#DejaVuSans-30" x="290.576172"/>
       <use xlink:href="#DejaVuSans-31" x="354.199219"/>
      </g>
     </g>
    </g>
   </g>
   <g id="matplotlib.axis_2">
    <g id="ytick_1">
     <g id="line2d_17">
      <path d="M 108 307.843902 
L 777.6 307.843902 
" clip-path="url(#p556963b1fd)" style="fill: none; stroke-dasharray: 5.12,1.28,0.8,1.28; stroke-dashoffset: 0; stroke: #b0b0b0; stroke-width: 0.8"/>
     </g>
     <g id="line2d_18">
      <defs>
       <path id="ma08a86c7c6" d="M 0 0 
L -3.5 0 
" style="stroke: #a9a9a9; stroke-width: 0.8"/>
      </defs>
      <g>
       <use xlink:href="#ma08a86c7c6" x="108" y="307.843902" style="fill: #a9a9a9; stroke: #a9a9a9; stroke-width: 0.8"/>
      </g>
     </g>
     <g id="text_9">
      <!-- 0 -->
      <g style="fill: #a9a9a9" transform="translate(94.6375 311.643121) scale(0.1 -0.1)">
       <use xlink:href="#DejaVuSans-30"/>
      </g>
     </g>
    </g>
    <g id="ytick_2">
     <g id="line2d_19">
      <path d="M 108 272.721951 
L 777.6 272.721951 
" clip-path="url(#p556963b1fd)" style="fill: none; stroke-dasharray: 5.12,1.28,0.8,1.28; stroke-dashoffset: 0; stroke: #b0b0b0; stroke-width: 0.8"/>
     </g>
     <g id="line2d_20">
      <g>
       <use xlink:href="#ma08a86c7c6" x="108" y="272.721951" style="fill: #a9a9a9; stroke: #a9a9a9; stroke-width: 0.8"/>
      </g>
     </g>
     <g id="text_10">
      <!-- 800 -->
      <g style="fill: #a9a9a9" transform="translate(81.9125 276.52117) scale(0.1 -0.1)">
       <defs>
        <path id="DejaVuSans-38" d="M 2034 2216 
Q 1584 2216 1326 1975 
Q 1069 1734 1069 1313 
Q 1069 891 1326 650 
Q 1584 409 2034 409 
Q 2484 409 2743 651 
Q 3003 894 3003 1313 
Q 3003 1734 2745 1975 
Q 2488 2216 2034 2216 
z
M 1403 2484 
Q 997 2584 770 2862 
Q 544 3141 544 3541 
Q 544 4100 942 4425 
Q 1341 4750 2034 4750 
Q 2731 4750 3128 4425 
Q 3525 4100 3525 3541 
Q 3525 3141 3298 2862 
Q 3072 2584 2669 2484 
Q 3125 2378 3379 2068 
Q 3634 1759 3634 1313 
Q 3634 634 3220 271 
Q 2806 -91 2034 -91 
Q 1263 -91 848 271 
Q 434 634 434 1313 
Q 434 1759 690 2068 
Q 947 2378 1403 2484 
z
M 1172 3481 
Q 1172 3119 1398 2916 
Q 1625 2713 2034 2713 
Q 2441 2713 2670 2916 
Q 2900 3119 2900 3481 
Q 2900 3844 2670 4047 
Q 2441 4250 2034 4250 
Q 1625 4250 1398 4047 
Q 1172 3844 1172 3481 
z
" transform="scale(0.015625)"/>
       </defs>
       <use xlink:href="#DejaVuSans-38"/>
       <use xlink:href="#DejaVuSans-30" x="63.623047"/>
       <use xlink:href="#DejaVuSans-30" x="127.246094"/>
      </g>
     </g>
    </g>
    <g id="ytick_3">
     <g id="line2d_21">
      <path d="M 108 237.6 
L 777.6 237.6 
" clip-path="url(#p556963b1fd)" style="fill: none; stroke-dasharray: 5.12,1.28,0.8,1.28; stroke-dashoffset: 0; stroke: #b0b0b0; stroke-width: 0.8"/>
     </g>
     <g id="line2d_22">
      <g>
       <use xlink:href="#ma08a86c7c6" x="108" y="237.6" style="fill: #a9a9a9; stroke: #a9a9a9; stroke-width: 0.8"/>
      </g>
     </g>
     <g id="text_11">
      <!-- 1600 -->
      <g style="fill: #a9a9a9" transform="translate(75.55 241.399219) scale(0.1 -0.1)">
       <defs>
        <path id="DejaVuSans-36" d="M 2113 2584 
Q 1688 2584 1439 2293 
Q 1191 2003 1191 1497 
Q 1191 994 1439 701 
Q 1688 409 2113 409 
Q 2538 409 2786 701 
Q 3034 994 3034 1497 
Q 3034 2003 2786 2293 
Q 2538 2584 2113 2584 
z
M 3366 4563 
L 3366 3988 
Q 3128 4100 2886 4159 
Q 2644 4219 2406 4219 
Q 1781 4219 1451 3797 
Q 1122 3375 1075 2522 
Q 1259 2794 1537 2939 
Q 1816 3084 2150 3084 
Q 2853 3084 3261 2657 
Q 3669 2231 3669 1497 
Q 3669 778 3244 343 
Q 2819 -91 2113 -91 
Q 1303 -91 875 529 
Q 447 1150 447 2328 
Q 447 3434 972 4092 
Q 1497 4750 2381 4750 
Q 2619 4750 2861 4703 
Q 3103 4656 3366 4563 
z
" transform="scale(0.015625)"/>
       </defs>
       <use xlink:href="#DejaVuSans-31"/>
       <use xlink:href="#DejaVuSans-36" x="63.623047"/>
       <use xlink:href="#DejaVuSans-30" x="127.246094"/>
       <use xlink:href="#DejaVuSans-30" x="190.869141"/>
      </g>
     </g>
    </g>
    <g id="ytick_4">
     <g id="line2d_23">
      <path d="M 108 202.478049 
L 777.6 202.478049 
" clip-path="url(#p556963b1fd)" style="fill: none; stroke-dasharray: 5.12,1.28,0.8,1.28; stroke-dashoffset: 0; stroke: #b0b0b0; stroke-width: 0.8"/>
     </g>
     <g id="line2d_24">
      <g>
       <use xlink:href="#ma08a86c7c6" x="108" y="202.478049" style="fill: #a9a9a9; stroke: #a9a9a9; stroke-width: 0.8"/>
      </g>
     </g>
     <g id="text_12">
      <!-- 2400 -->
      <g style="fill: #a9a9a9" transform="translate(75.55 206.277268) scale(0.1 -0.1)">
       <use xlink:href="#DejaVuSans-32"/>
       <use xlink:href="#DejaVuSans-34" x="63.623047"/>
       <use xlink:href="#DejaVuSans-30" x="127.246094"/>
       <use xlink:href="#DejaVuSans-30" x="190.869141"/>
      </g>
     </g>
    </g>
    <g id="ytick_5">
     <g id="line2d_25">
      <path d="M 108 167.356098 
L 777.6 167.356098 
" clip-path="url(#p556963b1fd)" style="fill: none; stroke-dasharray: 5.12,1.28,0.8,1.28; stroke-dashoffset: 0; stroke: #b0b0b0; stroke-width: 0.8"/>
     </g>
     <g id="line2d_26">
      <g>
       <use xlink:href="#ma08a86c7c6" x="108" y="167.356098" style="fill: #a9a9a9; stroke: #a9a9a9; stroke-width: 0.8"/>
      </g>
     </g>
     <g id="text_13">
      <!-- 3200 -->
      <g style="fill: #a9a9a9" transform="translate(75.55 171.155316) scale(0.1 -0.1)">
       <use xlink:href="#DejaVuSans-33"/>
       <use xlink:href="#DejaVuSans-32" x="63.623047"/>
       <use xlink:href="#DejaVuSans-30" x="127.246094"/>
       <use xlink:href="#DejaVuSans-30" x="190.869141"/>
      </g>
     </g>
    </g>
    <g id="ytick_6">
     <g id="line2d_27">
      <path d="M 108 132.234146 
L 777.6 132.234146 
" clip-path="url(#p556963b1fd)" style="fill: none; stroke-dasharray: 5.12,1.28,0.8,1.28; stroke-dashoffset: 0; stroke: #b0b0b0; stroke-width: 0.8"/>
     </g>
     <g id="line2d_28">
      <g>
       <use xlink:href="#ma08a86c7c6" x="108" y="132.234146" style="fill: #a9a9a9; stroke: #a9a9a9; stroke-width: 0.8"/>
      </g>
     </g>
     <g id="text_14">
      <!-- 4000 -->
      <g style="fill: #a9a9a9" transform="translate(75.55 136.033365) scale(0.1 -0.1)">
       <use xlink:href="#DejaVuSans-34"/>
       <use xlink:href="#DejaVuSans-30" x="63.623047"/>
       <use xlink:href="#DejaVuSans-30" x="127.246094"/>
       <use xlink:href="#DejaVuSans-30" x="190.869141"/>
      </g>
     </g>
    </g>
    <g id="ytick_7">
     <g id="line2d_29">
      <path d="M 108 97.112195 
L 777.6 97.112195 
" clip-path="url(#p556963b1fd)" style="fill: none; stroke-dasharray: 5.12,1.28,0.8,1.28; stroke-dashoffset: 0; stroke: #b0b0b0; stroke-width: 0.8"/>
     </g>
     <g id="line2d_30">
      <g>
       <use xlink:href="#ma08a86c7c6" x="108" y="97.112195" style="fill: #a9a9a9; stroke: #a9a9a9; stroke-width: 0.8"/>
      </g>
     </g>
     <g id="text_15">
      <!-- 4800 -->
      <g style="fill: #a9a9a9" transform="translate(75.55 100.911414) scale(0.1 -0.1)">
       <use xlink:href="#DejaVuSans-34"/>
       <use xlink:href="#DejaVuSans-38" x="63.623047"/>
       <use xlink:href="#DejaVuSans-30" x="127.246094"/>
       <use xlink:href="#DejaVuSans-30" x="190.869141"/>
      </g>
     </g>
    </g>
    <g id="ytick_8">
     <g id="line2d_31">
      <path d="M 108 61.990244 
L 777.6 61.990244 
" clip-path="url(#p556963b1fd)" style="fill: none; stroke-dasharray: 5.12,1.28,0.8,1.28; stroke-dashoffset: 0; stroke: #b0b0b0; stroke-width: 0.8"/>
     </g>
     <g id="line2d_32">
      <g>
       <use xlink:href="#ma08a86c7c6" x="108" y="61.990244" style="fill: #a9a9a9; stroke: #a9a9a9; stroke-width: 0.8"/>
      </g>
     </g>
     <g id="text_16">
      <!-- 5600 -->
      <g style="fill: #a9a9a9" transform="translate(75.55 65.789463) scale(0.1 -0.1)">
       <use xlink:href="#DejaVuSans-35"/>
       <use xlink:href="#DejaVuSans-36" x="63.623047"/>
       <use xlink:href="#DejaVuSans-30" x="127.246094"/>
       <use xlink:href="#DejaVuSans-30" x="190.869141"/>
      </g>
     </g>
    </g>
   </g>
   <g id="line2d_33">
    <path d="M 138.436364 307.712195 
L 142.244876 307.404878 
L 142.879628 307.141463 
L 144.783885 306.921951 
L 148.592397 306.17561 
L 152.40091 305.868293 
L 153.035662 305.560976 
L 153.670414 305.385366 
L 154.305166 304.595122 
L 154.939918 304.156098 
L 155.574671 302.795122 
L 156.209423 302.707317 
L 156.844175 302.22439 
L 158.113679 301.609756 
L 160.652687 299.678049 
L 161.922192 299.15122 
L 162.556944 298.712195 
L 165.095952 297.614634 
L 165.730704 296.604878 
L 167.000209 295.682927 
L 167.634961 295.37561 
L 173.982482 294.497561 
L 174.617234 294.190244 
L 179.060499 293.839024 
L 180.964755 293.356098 
L 186.677524 292.609756 
L 187.312276 292.258537 
L 187.947028 292.170732 
L 188.58178 291.907317 
L 189.851284 291.687805 
L 190.486037 291.643902 
L 191.120789 291.42439 
L 193.659797 291.029268 
L 194.929301 290.678049 
L 196.833558 290.502439 
L 198.103062 290.370732 
L 198.737814 290.195122 
L 199.372566 290.15122 
L 201.276822 289.580488 
L 205.085335 289.009756 
L 205.720087 288.834146 
L 206.354839 287.956098 
L 208.259096 287.253659 
L 210.163352 286.726829 
L 210.798104 286.419512 
L 211.432856 286.37561 
L 214.606617 285.497561 
L 215.876121 285.409756 
L 216.510873 285.321951 
L 218.415129 284.75122 
L 220.954138 284.136585 
L 221.58889 283.873171 
L 222.223642 283.785366 
L 222.858394 283.478049 
L 229.205915 282.512195 
L 232.379676 281.634146 
L 233.014428 281.239024 
L 235.553436 280.580488 
L 236.822941 279.834146 
L 237.457693 279.395122 
L 239.361949 279.043902 
L 243.170462 277.902439 
L 244.439966 277.507317 
L 245.074718 277.419512 
L 246.344222 277.068293 
L 247.613726 276.760976 
L 248.248479 276.673171 
L 249.517983 276.146341 
L 250.152735 276.014634 
L 250.787487 275.75122 
L 251.422239 275.663415 
L 252.056991 275.356098 
L 252.691743 275.180488 
L 253.961248 275.092683 
L 255.230752 274.653659 
L 256.500256 274.565854 
L 257.135008 274.258537 
L 259.674016 273.819512 
L 262.213025 273.6 
L 262.847777 273.468293 
L 264.117281 272.853659 
L 271.099554 269.912195 
L 271.734307 269.560976 
L 272.369059 268.858537 
L 273.003811 267.804878 
L 273.638563 266.970732 
L 274.273315 266.795122 
L 274.908067 266.795122 
L 276.177571 265.873171 
L 276.812323 265.697561 
L 277.447076 265.346341 
L 278.081828 265.214634 
L 278.71658 264.643902 
L 279.351332 264.468293 
L 281.255588 263.546341 
L 282.525092 261.790244 
L 283.159845 261.395122 
L 283.794597 260.341463 
L 284.429349 259.682927 
L 285.064101 259.37561 
L 285.698853 259.2 
L 288.237861 257.707317 
L 289.507366 256.697561 
L 290.142118 256.302439 
L 290.77687 255.380488 
L 291.411622 253.931707 
L 292.046374 253.009756 
L 292.681126 252.526829 
L 293.315878 252.263415 
L 295.854887 250.068293 
L 297.124391 249.058537 
L 297.759143 248.531707 
L 298.393895 247.697561 
L 299.663399 246.6 
L 302.202408 244.97561 
L 302.83716 244.404878 
L 303.471912 244.273171 
L 304.106664 244.009756 
L 305.376168 243.307317 
L 307.280425 242.341463 
L 308.549929 241.156098 
L 309.184681 240.409756 
L 310.454185 239.531707 
L 311.088937 239.356098 
L 311.723689 239.04878 
L 312.993194 238.214634 
L 313.627946 237.863415 
L 314.262698 237.77561 
L 315.532202 237.073171 
L 316.166954 236.721951 
L 316.801706 236.063415 
L 317.436458 235.668293 
L 318.071211 235.44878 
L 319.340715 234.702439 
L 319.975467 234.35122 
L 320.610219 234.131707 
L 322.514475 232.902439 
L 324.418732 232.331707 
L 325.053484 231.892683 
L 325.688236 231.760976 
L 326.95774 231.321951 
L 328.861996 230.57561 
L 330.766253 229.873171 
L 332.035757 229.653659 
L 333.305261 228.556098 
L 334.574765 227.941463 
L 335.84427 227.239024 
L 336.479022 226.887805 
L 337.748526 226.536585 
L 338.383278 226.141463 
L 339.01803 225.965854 
L 340.922286 224.780488 
L 344.096047 224.034146 
L 346.000303 222.936585 
L 346.635055 222.84878 
L 347.269808 222.629268 
L 348.539312 222.365854 
L 350.443568 220.960976 
L 352.347824 220.521951 
L 352.982577 220.302439 
L 353.617329 219.819512 
L 357.425841 218.590244 
L 358.060593 218.546341 
L 362.503858 216.965854 
L 363.13861 216.658537 
L 365.042867 216.219512 
L 366.312371 215.912195 
L 366.947123 215.604878 
L 367.581875 215.473171 
L 369.486131 214.595122 
L 371.390388 213.673171 
L 372.02514 213.234146 
L 372.659892 213.058537 
L 374.564148 212.04878 
L 375.833652 211.741463 
L 377.103157 211.082927 
L 378.372661 210.731707 
L 379.007413 210.643902 
L 380.276917 209.897561 
L 380.911669 209.765854 
L 382.181174 209.239024 
L 382.815926 209.107317 
L 383.450678 208.756098 
L 385.989686 208.360976 
L 387.25919 207.746341 
L 387.893943 207.219512 
L 388.528695 206.121951 
L 389.798199 205.858537 
L 390.432951 205.726829 
L 392.971959 204.409756 
L 393.606712 204.278049 
L 398.684728 201.863415 
L 400.588985 201.468293 
L 401.223737 201.117073 
L 405.03225 199.8 
L 406.301754 199.009756 
L 407.571258 198.263415 
L 408.20601 198.17561 
L 408.840762 197.956098 
L 409.475514 197.912195 
L 412.649275 197.078049 
L 413.284027 196.595122 
L 414.553531 196.156098 
L 416.457787 195.541463 
L 417.09254 195.146341 
L 417.727292 194.970732 
L 418.362044 194.531707 
L 418.996796 194.268293 
L 419.631548 193.873171 
L 420.901052 193.434146 
L 422.805309 192.819512 
L 423.440061 192.512195 
L 425.344317 191.063415 
L 425.979069 190.931707 
L 427.248573 189.965854 
L 427.883325 189.834146 
L 428.518078 188.868293 
L 429.15283 188.604878 
L 429.787582 188.121951 
L 430.422334 188.034146 
L 431.691838 187.287805 
L 432.32659 187.156098 
L 432.961342 186.892683 
L 433.596094 186.409756 
L 434.230847 186.190244 
L 436.135103 184.917073 
L 438.674111 183.643902 
L 439.308863 183.556098 
L 440.578368 182.985366 
L 441.21312 182.634146 
L 441.847872 181.580488 
L 442.482624 181.009756 
L 443.117376 180.658537 
L 443.752128 180.526829 
L 445.021632 179.736585 
L 445.656384 179.604878 
L 446.925889 178.990244 
L 448.830145 178.2 
L 450.099649 177.321951 
L 451.369153 176.004878 
L 454.542914 173.721951 
L 455.812418 172.668293 
L 456.44717 172.404878 
L 457.081922 171.702439 
L 457.716675 171.219512 
L 458.986179 170.780488 
L 459.620931 170.253659 
L 460.890435 169.595122 
L 461.525187 169.419512 
L 462.159939 168.980488 
L 462.794691 168.84878 
L 464.698948 167.839024 
L 465.968452 167.092683 
L 472.315973 164.853659 
L 472.950725 164.282927 
L 474.854982 163.580488 
L 476.124486 163.185366 
L 476.759238 162.702439 
L 479.298246 161.385366 
L 479.932998 161.034146 
L 481.202503 158.531707 
L 482.472007 157.039024 
L 483.741511 156.292683 
L 485.645767 155.546341 
L 486.280519 155.458537 
L 486.915272 155.107317 
L 488.819528 154.536585 
L 491.358536 153.395122 
L 491.993288 153 
L 493.262793 152.560976 
L 497.071305 150.365854 
L 497.706057 149.707317 
L 498.975562 149.004878 
L 499.610314 148.653659 
L 500.245066 148.434146 
L 500.879818 147.995122 
L 502.149322 147.380488 
L 504.053579 146.370732 
L 504.688331 146.195122 
L 505.323083 145.712195 
L 505.957835 145.44878 
L 506.592587 145.317073 
L 507.862091 144.878049 
L 509.766348 144.17561 
L 510.4011 143.736585 
L 511.670604 143.385366 
L 512.940108 142.902439 
L 513.57486 142.419512 
L 514.844364 142.02439 
L 515.479117 141.717073 
L 516.113869 141.541463 
L 517.383373 140.663415 
L 518.652877 140.092683 
L 519.922381 139.126829 
L 521.191885 138.687805 
L 521.826638 138.160976 
L 522.46139 138.073171 
L 523.730894 137.15122 
L 525.000398 136.536585 
L 525.63515 136.273171 
L 526.269902 135.658537 
L 530.078415 134.297561 
L 531.982671 133.463415 
L 533.886928 132.892683 
L 535.156432 132.717073 
L 535.791184 132.453659 
L 536.425936 132.365854 
L 537.69544 131.839024 
L 538.330192 131.795122 
L 540.869201 130.873171 
L 542.773457 129.556098 
L 543.408209 129.292683 
L 544.042961 128.897561 
L 545.947218 128.063415 
L 547.851474 126.921951 
L 548.486226 126.526829 
L 549.75573 126.219512 
L 551.025235 125.341463 
L 553.564243 124.55122 
L 554.198995 124.287805 
L 555.468499 123.980488 
L 558.64226 122.970732 
L 560.546516 122.619512 
L 563.085525 121.829268 
L 563.720277 121.565854 
L 564.355029 121.478049 
L 564.989781 121.170732 
L 566.259285 120.907317 
L 566.894037 120.6 
L 568.798294 120.160976 
L 570.067798 119.897561 
L 573.876311 119.195122 
L 575.145815 118.931707 
L 575.780567 118.8 
L 576.415319 118.536585 
L 577.050071 118.492683 
L 578.954327 117.965854 
L 579.58908 117.614634 
L 582.76284 116.82439 
L 583.397592 116.692683 
L 584.667096 116.253659 
L 586.571353 115.595122 
L 587.206105 115.507317 
L 589.110361 114.84878 
L 589.745113 114.84878 
L 591.014617 114.409756 
L 591.64937 113.795122 
L 592.284122 113.487805 
L 593.553626 113.092683 
L 596.092634 112.126829 
L 596.727386 111.995122 
L 597.362139 111.6 
L 597.996891 111.468293 
L 598.631643 111.073171 
L 601.805403 110.15122 
L 602.440155 109.756098 
L 603.074908 109.580488 
L 603.70966 109.053659 
L 605.613916 108.702439 
L 606.88342 108 
L 607.518172 107.297561 
L 608.787677 107.034146 
L 613.230941 106.02439 
L 613.865693 105.84878 
L 615.135198 105.804878 
L 615.76995 105.497561 
L 618.308958 105.058537 
L 618.94371 104.75122 
L 620.847967 104.487805 
L 623.386975 103.697561 
L 625.291231 103.258537 
L 627.195488 102.77561 
L 629.734496 101.985366 
L 630.369248 101.853659 
L 631.004 101.546341 
L 631.638752 101.458537 
L 632.273505 101.239024 
L 632.908257 100.887805 
L 634.812513 100.229268 
L 635.447265 99.746341 
L 636.716769 99.395122 
L 637.351521 99.131707 
L 638.621026 98.780488 
L 641.160034 97.639024 
L 643.06429 97.507317 
L 645.603299 96.717073 
L 646.238051 96.321951 
L 647.507555 95.926829 
L 649.411812 94.960976 
L 650.046564 94.829268 
L 650.681316 94.521951 
L 651.316068 94.434146 
L 658.298341 92.107317 
L 660.83735 91.492683 
L 661.472102 91.317073 
L 662.741606 90.746341 
L 663.376358 90.658537 
L 664.645862 90.307317 
L 665.280614 89.82439 
L 665.915366 89.517073 
L 666.550118 88.770732 
L 667.184871 88.331707 
L 668.454375 87.936585 
L 669.089127 87.409756 
L 676.0714 84.556098 
L 677.340904 84.24878 
L 678.610409 83.678049 
L 680.514665 82.580488 
L 681.149417 82.44878 
L 681.784169 81.965854 
L 683.053673 81.35122 
L 684.323178 80.560976 
L 686.227434 79.682927 
L 686.862186 79.243902 
L 688.13169 78.760976 
L 689.401194 78.014634 
L 690.035947 77.707317 
L 690.670699 77.268293 
L 691.940203 76.829268 
L 692.574955 76.697561 
L 695.113963 75.556098 
L 698.287724 74.458537 
L 698.922476 74.414634 
L 699.557228 74.239024 
L 700.19198 73.843902 
L 700.826732 73.756098 
L 701.461485 73.536585 
L 703.365741 73.185366 
L 706.539501 71.560976 
L 707.809006 70.858537 
L 708.443758 70.770732 
L 710.348014 69.760976 
L 712.25227 69.058537 
L 714.156527 68.22439 
L 716.695535 67.214634 
L 717.330287 67.039024 
L 717.965039 66.643902 
L 719.234544 66.468293 
L 719.869296 66.073171 
L 720.504048 66.029268 
L 721.773552 65.634146 
L 723.043056 65.019512 
L 723.677808 64.931707 
L 724.31256 64.668293 
L 724.947313 64.536585 
L 726.851569 63.702439 
L 727.486321 63.570732 
L 728.121073 63.307317 
L 731.294834 62.560976 
L 733.19909 61.814634 
L 735.103346 60.673171 
L 736.372851 60.146341 
L 737.007603 59.882927 
L 737.642355 59.487805 
L 738.911859 59.22439 
L 739.546611 58.873171 
L 740.181363 58.741463 
L 741.450867 58.039024 
L 745.25938 56.282927 
L 746.528884 55.8 
L 747.163636 55.8 
L 747.163636 55.8 
" clip-path="url(#p556963b1fd)" style="fill: none; stroke: #1f77b4; stroke-width: 1.5; stroke-linecap: square"/>
   </g>
   <g id="line2d_34">
    <path d="M 139.071116 307.8 
L 140.975372 307.712195 
L 142.879628 307.668293 
L 146.688141 307.580488 
L 149.861902 307.44878 
L 152.40091 307.44878 
L 153.035662 307.273171 
L 155.574671 307.185366 
L 157.478927 306.965854 
L 159.383183 306.790244 
L 163.191696 306.614634 
L 163.826448 306.614634 
L 164.4612 306.482927 
L 167.000209 306.395122 
L 168.269713 306.307317 
L 173.34773 306.219512 
L 176.52149 306.087805 
L 184.138515 306 
L 187.312276 305.868293 
L 191.120789 305.780488 
L 193.659797 305.692683 
L 199.372566 305.604878 
L 201.276822 305.560976 
L 203.181079 305.517073 
L 205.085335 305.297561 
L 208.893848 305.253659 
L 210.163352 305.165854 
L 214.606617 305.078049 
L 221.58889 304.682927 
L 226.032155 304.595122 
L 227.301659 304.507317 
L 229.205915 304.419512 
L 233.014428 304.243902 
L 235.553436 304.2 
L 237.457693 304.02439 
L 247.613726 303.409756 
L 250.152735 303.321951 
L 254.596 303.102439 
L 256.500256 303.014634 
L 262.847777 302.663415 
L 269.83005 302.57561 
L 272.369059 302.312195 
L 273.638563 302.22439 
L 281.89034 301.565854 
L 285.698853 301.082927 
L 288.237861 300.995122 
L 293.315878 300.336585 
L 296.489639 300.24878 
L 304.741416 299.590244 
L 307.915177 299.239024 
L 310.454185 299.15122 
L 311.723689 299.063415 
L 314.262698 298.97561 
L 315.532202 298.887805 
L 318.705963 298.580488 
L 319.340715 298.404878 
L 323.149227 298.229268 
L 326.322988 298.141463 
L 334.574765 297.658537 
L 336.479022 297.570732 
L 344.730799 297.087805 
L 349.174064 297 
L 349.808816 296.868293 
L 354.886833 296.780488 
L 359.330098 296.560976 
L 366.312371 296.473171 
L 370.755636 296.253659 
L 375.833652 296.165854 
L 380.911669 295.902439 
L 385.354934 295.814634 
L 397.415224 295.068293 
L 402.493241 294.980488 
L 418.996796 293.926829 
L 422.805309 293.839024 
L 424.709565 293.795122 
L 426.613821 293.75122 
L 428.518078 293.57561 
L 433.596094 293.487805 
L 434.865599 293.268293 
L 436.135103 293.180488 
L 439.308863 293.04878 
L 440.578368 292.960976 
L 441.847872 292.873171 
L 447.560641 292.785366 
L 448.830145 292.653659 
L 451.369153 292.609756 
L 452.003906 292.478049 
L 453.27341 292.390244 
L 453.908162 292.258537 
L 455.812418 292.170732 
L 466.603204 291.512195 
L 468.50746 291.42439 
L 471.681221 291.292683 
L 480.56775 291.204878 
L 485.011015 290.985366 
L 490.089032 290.897561 
L 492.628041 290.809756 
L 495.167049 290.765854 
L 496.436553 290.634146 
L 498.975562 290.546341 
L 505.323083 290.195122 
L 509.131595 290.15122 
L 511.035852 289.97561 
L 512.940108 289.931707 
L 517.383373 289.843902 
L 519.922381 289.756098 
L 527.539407 289.668293 
L 530.713167 289.536585 
L 534.52168 289.44878 
L 536.425936 289.229268 
L 540.234449 289.185366 
L 542.138705 289.009756 
L 544.677714 288.921951 
L 552.294739 288.834146 
L 555.468499 288.702439 
L 566.259285 288.658537 
L 567.528789 288.570732 
L 569.433046 288.526829 
L 577.684823 288.439024 
L 578.954327 288.35122 
L 585.936601 288.263415 
L 588.475609 288.17561 
L 596.092634 288.131707 
L 597.362139 288.043902 
L 606.88342 288 
L 608.787677 287.82439 
L 619.578462 287.736585 
L 621.482719 287.692683 
L 637.986274 287.604878 
L 639.89053 287.560976 
L 651.95082 287.473171 
L 654.489828 287.385366 
L 658.933093 287.297561 
L 664.01111 287.034146 
L 666.550118 286.946341 
L 669.089127 286.858537 
L 672.89764 286.770732 
L 674.801896 286.726829 
L 677.340904 286.639024 
L 679.245161 286.595122 
L 682.418921 286.507317 
L 683.688425 286.419512 
L 687.496938 286.331707 
L 690.670699 286.2 
L 691.940203 286.156098 
L 693.844459 285.980488 
L 697.652972 285.892683 
L 700.19198 285.804878 
L 706.539501 285.717073 
L 709.713262 285.585366 
L 716.060783 285.497561 
L 720.504048 285.278049 
L 726.216817 285.190244 
L 727.486321 285.102439 
L 735.103346 285.014634 
L 737.007603 284.970732 
L 743.989876 284.882927 
L 746.528884 284.619512 
L 747.163636 284.619512 
L 747.163636 284.619512 
" clip-path="url(#p556963b1fd)" style="fill: none; stroke: #ff7f0e; stroke-width: 1.5; stroke-linecap: square"/>
   </g>
   <g id="patch_3">
    <path d="M 108 320.4 
L 108 43.2 
" style="fill: none; stroke: #a9a9a9; stroke-width: 0.8; stroke-linejoin: miter; stroke-linecap: square"/>
   </g>
   <g id="patch_4">
    <path d="M 777.6 320.4 
L 777.6 43.2 
" style="fill: none"/>
   </g>
   <g id="patch_5">
    <path d="M 108 320.4 
L 777.6 320.4 
" style="fill: none; stroke: #a9a9a9; stroke-width: 0.8; stroke-linejoin: miter; stroke-linecap: square"/>
   </g>
   <g id="patch_6">
    <path d="M 108 43.2 
L 777.6 43.2 
" style="fill: none"/>
   </g>
   <g id="text_17">
    <!-- get_subscribe history -->
    <g style="fill: #a9a9a9" transform="translate(378.6075 37.2) scale(0.12 -0.12)">
     <defs>
      <path id="DejaVuSans-67" d="M 2906 1791 
Q 2906 2416 2648 2759 
Q 2391 3103 1925 3103 
Q 1463 3103 1205 2759 
Q 947 2416 947 1791 
Q 947 1169 1205 825 
Q 1463 481 1925 481 
Q 2391 481 2648 825 
Q 2906 1169 2906 1791 
z
M 3481 434 
Q 3481 -459 3084 -895 
Q 2688 -1331 1869 -1331 
Q 1566 -1331 1297 -1286 
Q 1028 -1241 775 -1147 
L 775 -588 
Q 1028 -725 1275 -790 
Q 1522 -856 1778 -856 
Q 2344 -856 2625 -561 
Q 2906 -266 2906 331 
L 2906 616 
Q 2728 306 2450 153 
Q 2172 0 1784 0 
Q 1141 0 747 490 
Q 353 981 353 1791 
Q 353 2603 747 3093 
Q 1141 3584 1784 3584 
Q 2172 3584 2450 3431 
Q 2728 3278 2906 2969 
L 2906 3500 
L 3481 3500 
L 3481 434 
z
" transform="scale(0.015625)"/>
      <path id="DejaVuSans-65" d="M 3597 1894 
L 3597 1613 
L 953 1613 
Q 991 1019 1311 708 
Q 1631 397 2203 397 
Q 2534 397 2845 478 
Q 3156 559 3463 722 
L 3463 178 
Q 3153 47 2828 -22 
Q 2503 -91 2169 -91 
Q 1331 -91 842 396 
Q 353 884 353 1716 
Q 353 2575 817 3079 
Q 1281 3584 2069 3584 
Q 2775 3584 3186 3129 
Q 3597 2675 3597 1894 
z
M 3022 2063 
Q 3016 2534 2758 2815 
Q 2500 3097 2075 3097 
Q 1594 3097 1305 2825 
Q 1016 2553 972 2059 
L 3022 2063 
z
" transform="scale(0.015625)"/>
      <path id="DejaVuSans-74" d="M 1172 4494 
L 1172 3500 
L 2356 3500 
L 2356 3053 
L 1172 3053 
L 1172 1153 
Q 1172 725 1289 603 
Q 1406 481 1766 481 
L 2356 481 
L 2356 0 
L 1766 0 
Q 1100 0 847 248 
Q 594 497 594 1153 
L 594 3053 
L 172 3053 
L 172 3500 
L 594 3500 
L 594 4494 
L 1172 4494 
z
" transform="scale(0.015625)"/>
      <path id="DejaVuSans-5f" d="M 3263 -1063 
L 3263 -1509 
L -63 -1509 
L -63 -1063 
L 3263 -1063 
z
" transform="scale(0.015625)"/>
      <path id="DejaVuSans-73" d="M 2834 3397 
L 2834 2853 
Q 2591 2978 2328 3040 
Q 2066 3103 1784 3103 
Q 1356 3103 1142 2972 
Q 928 2841 928 2578 
Q 928 2378 1081 2264 
Q 1234 2150 1697 2047 
L 1894 2003 
Q 2506 1872 2764 1633 
Q 3022 1394 3022 966 
Q 3022 478 2636 193 
Q 2250 -91 1575 -91 
Q 1294 -91 989 -36 
Q 684 19 347 128 
L 347 722 
Q 666 556 975 473 
Q 1284 391 1588 391 
Q 1994 391 2212 530 
Q 2431 669 2431 922 
Q 2431 1156 2273 1281 
Q 2116 1406 1581 1522 
L 1381 1569 
Q 847 1681 609 1914 
Q 372 2147 372 2553 
Q 372 3047 722 3315 
Q 1072 3584 1716 3584 
Q 2034 3584 2315 3537 
Q 2597 3491 2834 3397 
z
" transform="scale(0.015625)"/>
      <path id="DejaVuSans-75" d="M 544 1381 
L 544 3500 
L 1119 3500 
L 1119 1403 
Q 1119 906 1312 657 
Q 1506 409 1894 409 
Q 2359 409 2629 706 
Q 2900 1003 2900 1516 
L 2900 3500 
L 3475 3500 
L 3475 0 
L 2900 0 
L 2900 538 
Q 2691 219 2414 64 
Q 2138 -91 1772 -91 
Q 1169 -91 856 284 
Q 544 659 544 1381 
z
M 1991 3584 
L 1991 3584 
z
" transform="scale(0.015625)"/>
      <path id="DejaVuSans-62" d="M 3116 1747 
Q 3116 2381 2855 2742 
Q 2594 3103 2138 3103 
Q 1681 3103 1420 2742 
Q 1159 2381 1159 1747 
Q 1159 1113 1420 752 
Q 1681 391 2138 391 
Q 2594 391 2855 752 
Q 3116 1113 3116 1747 
z
M 1159 2969 
Q 1341 3281 1617 3432 
Q 1894 3584 2278 3584 
Q 2916 3584 3314 3078 
Q 3713 2572 3713 1747 
Q 3713 922 3314 415 
Q 2916 -91 2278 -91 
Q 1894 -91 1617 61 
Q 1341 213 1159 525 
L 1159 0 
L 581 0 
L 581 4863 
L 1159 4863 
L 1159 2969 
z
" transform="scale(0.015625)"/>
      <path id="DejaVuSans-63" d="M 3122 3366 
L 3122 2828 
Q 2878 2963 2633 3030 
Q 2388 3097 2138 3097 
Q 1578 3097 1268 2742 
Q 959 2388 959 1747 
Q 959 1106 1268 751 
Q 1578 397 2138 397 
Q 2388 397 2633 464 
Q 2878 531 3122 666 
L 3122 134 
Q 2881 22 2623 -34 
Q 2366 -91 2075 -91 
Q 1284 -91 818 406 
Q 353 903 353 1747 
Q 353 2603 823 3093 
Q 1294 3584 2113 3584 
Q 2378 3584 2631 3529 
Q 2884 3475 3122 3366 
z
" transform="scale(0.015625)"/>
      <path id="DejaVuSans-72" d="M 2631 2963 
Q 2534 3019 2420 3045 
Q 2306 3072 2169 3072 
Q 1681 3072 1420 2755 
Q 1159 2438 1159 1844 
L 1159 0 
L 581 0 
L 581 3500 
L 1159 3500 
L 1159 2956 
Q 1341 3275 1631 3429 
Q 1922 3584 2338 3584 
Q 2397 3584 2469 3576 
Q 2541 3569 2628 3553 
L 2631 2963 
z
" transform="scale(0.015625)"/>
      <path id="DejaVuSans-69" d="M 603 3500 
L 1178 3500 
L 1178 0 
L 603 0 
L 603 3500 
z
M 603 4863 
L 1178 4863 
L 1178 4134 
L 603 4134 
L 603 4863 
z
" transform="scale(0.015625)"/>
      <path id="DejaVuSans-20" transform="scale(0.015625)"/>
      <path id="DejaVuSans-68" d="M 3513 2113 
L 3513 0 
L 2938 0 
L 2938 2094 
Q 2938 2591 2744 2837 
Q 2550 3084 2163 3084 
Q 1697 3084 1428 2787 
Q 1159 2491 1159 1978 
L 1159 0 
L 581 0 
L 581 4863 
L 1159 4863 
L 1159 2956 
Q 1366 3272 1645 3428 
Q 1925 3584 2291 3584 
Q 2894 3584 3203 3211 
Q 3513 2838 3513 2113 
z
" transform="scale(0.015625)"/>
      <path id="DejaVuSans-6f" d="M 1959 3097 
Q 1497 3097 1228 2736 
Q 959 2375 959 1747 
Q 959 1119 1226 758 
Q 1494 397 1959 397 
Q 2419 397 2687 759 
Q 2956 1122 2956 1747 
Q 2956 2369 2687 2733 
Q 2419 3097 1959 3097 
z
M 1959 3584 
Q 2709 3584 3137 3096 
Q 3566 2609 3566 1747 
Q 3566 888 3137 398 
Q 2709 -91 1959 -91 
Q 1206 -91 779 398 
Q 353 888 353 1747 
Q 353 2609 779 3096 
Q 1206 3584 1959 3584 
z
" transform="scale(0.015625)"/>
      <path id="DejaVuSans-79" d="M 2059 -325 
Q 1816 -950 1584 -1140 
Q 1353 -1331 966 -1331 
L 506 -1331 
L 506 -850 
L 844 -850 
Q 1081 -850 1212 -737 
Q 1344 -625 1503 -206 
L 1606 56 
L 191 3500 
L 800 3500 
L 1894 763 
L 2988 3500 
L 3597 3500 
L 2059 -325 
z
" transform="scale(0.015625)"/>
     </defs>
     <use xlink:href="#DejaVuSans-67"/>
     <use xlink:href="#DejaVuSans-65" x="63.476562"/>
     <use xlink:href="#DejaVuSans-74" x="125"/>
     <use xlink:href="#DejaVuSans-5f" x="164.208984"/>
     <use xlink:href="#DejaVuSans-73" x="214.208984"/>
     <use xlink:href="#DejaVuSans-75" x="266.308594"/>
     <use xlink:href="#DejaVuSans-62" x="329.6875"/>
     <use xlink:href="#DejaVuSans-73" x="393.164062"/>
     <use xlink:href="#DejaVuSans-63" x="445.263672"/>
     <use xlink:href="#DejaVuSans-72" x="500.244141"/>
     <use xlink:href="#DejaVuSans-69" x="541.357422"/>
     <use xlink:href="#DejaVuSans-62" x="569.140625"/>
     <use xlink:href="#DejaVuSans-65" x="632.617188"/>
     <use xlink:href="#DejaVuSans-20" x="694.140625"/>
     <use xlink:href="#DejaVuSans-68" x="725.927734"/>
     <use xlink:href="#DejaVuSans-69" x="789.306641"/>
     <use xlink:href="#DejaVuSans-73" x="817.089844"/>
     <use xlink:href="#DejaVuSans-74" x="869.189453"/>
     <use xlink:href="#DejaVuSans-6f" x="908.398438"/>
     <use xlink:href="#DejaVuSans-72" x="969.580078"/>
     <use xlink:href="#DejaVuSans-79" x="1010.693359"/>
    </g>
   </g>
   <g id="legend_1">
    <g id="line2d_35">
     <path d="M 815.08 328.498438 
L 825.08 328.498438 
L 835.08 328.498438 
" style="fill: none; stroke: #1f77b4; stroke-width: 1.5; stroke-linecap: square"/>
    </g>
    <g id="text_18">
     <!-- star -->
     <g style="fill: #a9a9a9" transform="translate(843.08 331.998438) scale(0.1 -0.1)">
      <defs>
       <path id="DejaVuSans-61" d="M 2194 1759 
Q 1497 1759 1228 1600 
Q 959 1441 959 1056 
Q 959 750 1161 570 
Q 1363 391 1709 391 
Q 2188 391 2477 730 
Q 2766 1069 2766 1631 
L 2766 1759 
L 2194 1759 
z
M 3341 1997 
L 3341 0 
L 2766 0 
L 2766 531 
Q 2569 213 2275 61 
Q 1981 -91 1556 -91 
Q 1019 -91 701 211 
Q 384 513 384 1019 
Q 384 1609 779 1909 
Q 1175 2209 1959 2209 
L 2766 2209 
L 2766 2266 
Q 2766 2663 2505 2880 
Q 2244 3097 1772 3097 
Q 1472 3097 1187 3025 
Q 903 2953 641 2809 
L 641 3341 
Q 956 3463 1253 3523 
Q 1550 3584 1831 3584 
Q 2591 3584 2966 3190 
Q 3341 2797 3341 1997 
z
" transform="scale(0.015625)"/>
      </defs>
      <use xlink:href="#DejaVuSans-73"/>
      <use xlink:href="#DejaVuSans-74" x="52.099609"/>
      <use xlink:href="#DejaVuSans-61" x="91.308594"/>
      <use xlink:href="#DejaVuSans-72" x="152.587891"/>
     </g>
    </g>
    <g id="line2d_36">
     <path d="M 815.08 343.176562 
L 825.08 343.176562 
L 835.08 343.176562 
" style="fill: none; stroke: #ff7f0e; stroke-width: 1.5; stroke-linecap: square"/>
    </g>
    <g id="text_19">
     <!-- fork -->
     <g style="fill: #a9a9a9" transform="translate(843.08 346.676562) scale(0.1 -0.1)">
      <defs>
       <path id="DejaVuSans-66" d="M 2375 4863 
L 2375 4384 
L 1825 4384 
Q 1516 4384 1395 4259 
Q 1275 4134 1275 3809 
L 1275 3500 
L 2222 3500 
L 2222 3053 
L 1275 3053 
L 1275 0 
L 697 0 
L 697 3053 
L 147 3053 
L 147 3500 
L 697 3500 
L 697 3744 
Q 697 4328 969 4595 
Q 1241 4863 1831 4863 
L 2375 4863 
z
" transform="scale(0.015625)"/>
       <path id="DejaVuSans-6b" d="M 581 4863 
L 1159 4863 
L 1159 1991 
L 2875 3500 
L 3609 3500 
L 1753 1863 
L 3688 0 
L 2938 0 
L 1159 1709 
L 1159 0 
L 581 0 
L 581 4863 
z
" transform="scale(0.015625)"/>
      </defs>
      <use xlink:href="#DejaVuSans-66"/>
      <use xlink:href="#DejaVuSans-6f" x="35.205078"/>
      <use xlink:href="#DejaVuSans-72" x="96.386719"/>
      <use xlink:href="#DejaVuSans-6b" x="137.5"/>
     </g>
    </g>
   </g>
  </g>
 </g>
 <defs>
  <clipPath id="p556963b1fd">
   <rect x="108" y="43.2" width="669.6" height="277.2"/>
  </clipPath>
 </defs>
</svg>
